<svg width="339" height="374" viewBox="0 0 339 374" fill="none" xmlns="http://www.w3.org/2000/svg">
<g filter="url(#filter0_f_90_288)">
<ellipse cx="100" cy="273.643" rx="50" ry="50.3571" fill="#910A67"/>
</g>
<g filter="url(#filter1_f_90_288)">
<ellipse cx="257" cy="110.486" rx="59" ry="60.4286" fill="#3C0753"/>
</g>
<g filter="url(#filter2_b_90_288)">
<rect x="33" y="42" width="283" height="282" rx="16" fill="white" fill-opacity="0.24"/>
</g>
<path d="M54.769 295C53.7023 295 52.8277 294.701 52.145 294.104C51.505 293.464 51.185 292.653 51.185 291.672C51.185 288.344 52.465 285.293 55.025 282.52C57.6277 279.704 61.7237 276.973 67.313 274.328C70.129 272.963 72.2623 271.768 73.713 270.744C75.2063 269.677 76.2517 268.589 76.849 267.48C77.4463 266.371 77.745 265.027 77.745 263.448C77.745 261.187 76.977 259.459 75.441 258.264C73.9477 257.027 71.793 256.408 68.977 256.408C65.8197 256.408 63.409 257.091 61.745 258.456C60.081 259.821 59.249 261.827 59.249 264.472C59.249 265.539 59.3343 266.477 59.505 267.288C58.9077 267.373 58.4383 267.416 58.097 267.416C56.305 267.416 54.769 266.883 53.489 265.816C52.209 264.749 51.569 263.448 51.569 261.912C51.569 259.608 52.337 257.517 53.873 255.64C55.409 253.763 57.4997 252.291 60.145 251.224C62.7903 250.157 65.7343 249.624 68.977 249.624C72.305 249.624 75.2063 250.2 77.681 251.352C80.1983 252.461 82.1397 254.061 83.505 256.152C84.8703 258.243 85.553 260.675 85.553 263.448C85.553 266.563 84.401 269.379 82.097 271.896C79.8357 274.413 76.2303 276.867 71.281 279.256C67.569 281.048 64.7957 282.691 62.961 284.184C61.1263 285.635 60.1023 287.021 59.889 288.344H80.241C82.2037 288.344 83.6757 288.92 84.657 290.072C85.681 291.181 86.193 292.824 86.193 295H54.769ZM109.998 295.576C106.755 295.576 103.769 294.957 101.038 293.72C98.35 292.44 96.2167 290.712 94.638 288.536C93.0593 286.36 92.27 283.949 92.27 281.304V263.896C92.27 261.251 93.0593 258.84 94.638 256.664C96.2167 254.488 98.35 252.781 101.038 251.544C103.769 250.264 106.755 249.624 109.998 249.624C113.283 249.624 116.27 250.264 118.958 251.544C121.689 252.781 123.822 254.488 125.358 256.664C126.937 258.84 127.726 261.251 127.726 263.896V281.304C127.726 283.949 126.937 286.36 125.358 288.536C123.779 290.712 121.625 292.44 118.894 293.72C116.206 294.957 113.241 295.576 109.998 295.576ZM109.998 288.792C113.027 288.792 115.459 288.088 117.294 286.68C119.129 285.272 120.046 283.395 120.046 281.048V264.088C120.046 261.784 119.129 259.928 117.294 258.52C115.459 257.112 113.027 256.408 109.998 256.408C107.011 256.408 104.601 257.112 102.766 258.52C100.931 259.928 100.014 261.784 100.014 264.088V281.048C100.014 283.395 100.91 285.272 102.702 286.68C104.537 288.088 106.969 288.792 109.998 288.792ZM186.79 282.84C186.79 286.637 185.254 289.667 182.182 291.928C179.153 294.189 175.057 295.405 169.894 295.576V298.968C169.894 300.035 169.617 300.845 169.062 301.4C168.507 301.955 167.718 302.232 166.694 302.232V295.512C161.659 295.213 157.691 294.04 154.79 291.992C151.889 289.944 150.438 287.341 150.438 284.184C150.438 280.728 152.614 279 156.966 279C157.051 282.029 157.926 284.397 159.59 286.104C161.254 287.811 163.622 288.835 166.694 289.176V275.096C162.897 274.2 159.867 273.176 157.606 272.024C155.387 270.872 153.766 269.464 152.742 267.8C151.761 266.136 151.27 264.109 151.27 261.72C151.27 258.264 152.657 255.448 155.43 253.272C158.246 251.096 162.001 249.901 166.694 249.688V246.168C166.694 245.144 166.971 244.355 167.526 243.8C168.081 243.245 168.87 242.968 169.894 242.968V249.688C172.838 249.816 175.441 250.349 177.702 251.288C180.006 252.184 181.798 253.4 183.078 254.936C184.401 256.429 185.062 258.136 185.062 260.056C185.062 263 182.993 264.536 178.854 264.664C178.513 261.848 177.638 259.736 176.23 258.328C174.822 256.92 172.71 256.109 169.894 255.896V269.016C174.075 269.997 177.382 271.085 179.814 272.28C182.289 273.475 184.059 274.925 185.126 276.632C186.235 278.296 186.79 280.365 186.79 282.84ZM158.886 261.72C158.886 263.427 159.441 264.771 160.55 265.752C161.702 266.691 163.75 267.544 166.694 268.312V255.896C164.177 256.067 162.235 256.664 160.87 257.688C159.547 258.669 158.886 260.013 158.886 261.72ZM169.894 289.304C172.923 289.176 175.227 288.579 176.806 287.512C178.427 286.403 179.238 284.845 179.238 282.84C179.238 281.645 178.961 280.664 178.406 279.896C177.851 279.085 176.913 278.381 175.59 277.784C174.267 277.144 172.369 276.504 169.894 275.864V289.304Z" fill="white"/>
<path d="M69.3206 65.476C71.4326 65.476 73.2806 65.884 74.8646 66.7C76.4486 67.492 77.6726 68.62 78.5366 70.084C79.4006 71.548 79.8326 73.264 79.8326 75.232C79.8326 76.48 79.5566 77.764 79.0046 79.084C78.4766 80.404 77.7326 81.592 76.7726 82.648L69.9326 90.244C69.5486 90.652 69.1886 90.928 68.8526 91.072C68.5166 91.24 68.0966 91.324 67.5926 91.324C66.3446 91.324 65.2886 90.808 64.4246 89.776L69.3926 84.52C70.1846 84.328 70.8926 84.088 71.5166 83.8L71.3366 83.368C70.3286 83.848 69.2606 84.088 68.1326 84.088C66.2606 84.088 64.6166 83.728 63.2006 83.008C61.8086 82.264 60.7286 81.232 59.9606 79.912C59.2166 78.568 58.8446 77.008 58.8446 75.232C58.8446 73.264 59.2646 71.548 60.1046 70.084C60.9686 68.62 62.1926 67.492 63.7766 66.7C65.3606 65.884 67.2086 65.476 69.3206 65.476ZM69.3206 69.58C67.5686 69.58 66.1646 70.096 65.1086 71.128C64.0526 72.16 63.5246 73.528 63.5246 75.232C63.5246 76.96 64.0526 78.352 65.1086 79.408C66.1646 80.44 67.5686 80.956 69.3206 80.956C71.0486 80.956 72.4406 80.428 73.4966 79.372C74.5766 78.316 75.1166 76.936 75.1166 75.232C75.1166 73.552 74.5766 72.196 73.4966 71.164C72.4406 70.108 71.0486 69.58 69.3206 69.58ZM101.894 69.076C101.894 67.972 102.326 67.096 103.19 66.448C104.054 65.776 105.23 65.44 106.718 65.44L114.278 84.448L113.45 86.716L113.81 86.86L121.91 65.476C123.374 65.476 124.538 65.812 125.402 66.484C126.29 67.132 126.734 68.008 126.734 69.112V91.324C123.59 91.324 122.018 90.148 122.018 87.796V76.276L123.242 72.964L122.846 72.82L116.258 90.028C116.09 90.412 115.826 90.724 115.466 90.964C115.13 91.204 114.746 91.324 114.314 91.324C113.882 91.324 113.486 91.204 113.126 90.964C112.79 90.724 112.538 90.4 112.37 89.992L105.782 72.784L105.386 72.928L106.574 76.24V87.796C106.574 90.148 105.014 91.324 101.894 91.324V69.076ZM140.904 91.324C138.936 91.324 137.136 90.94 135.504 90.172C133.872 89.38 132.576 88.312 131.616 86.968C130.68 85.624 130.212 84.16 130.212 82.576V74.188C130.212 72.604 130.68 71.152 131.616 69.832C132.576 68.488 133.872 67.432 135.504 66.664C137.136 65.872 138.936 65.476 140.904 65.476C142.872 65.476 144.672 65.872 146.304 66.664C147.96 67.432 149.256 68.488 150.192 69.832C151.152 71.152 151.632 72.604 151.632 74.188V82.576C151.632 84.16 151.152 85.624 150.192 86.968C149.256 88.312 147.96 89.38 146.304 90.172C144.672 90.94 142.872 91.324 140.904 91.324ZM140.904 87.112C142.704 87.112 144.144 86.692 145.224 85.852C146.304 84.988 146.844 83.872 146.844 82.504V74.296C146.844 72.904 146.304 71.788 145.224 70.948C144.144 70.084 142.704 69.652 140.904 69.652C139.128 69.652 137.7 70.084 136.62 70.948C135.54 71.788 135 72.904 135 74.296V82.504C135 83.872 135.54 84.988 136.62 85.852C137.7 86.692 139.128 87.112 140.904 87.112ZM155.12 69.292C155.12 68.116 155.516 67.192 156.308 66.52C157.1 65.824 158.168 65.476 159.512 65.476L171.68 84.484L172.04 84.196L170.564 81.748V65.476C172.124 65.476 173.3 65.776 174.092 66.376C174.908 66.976 175.316 67.864 175.316 69.04V88.048C175.316 88.936 174.932 89.704 174.164 90.352C173.42 91 172.556 91.324 171.572 91.324L158.756 71.272L158.396 71.596L159.872 74.044V87.76C159.872 88.936 159.464 89.824 158.648 90.424C157.856 91.024 156.68 91.324 155.12 91.324V69.292ZM186.164 69.976H177.488C177.488 67.192 178.748 65.8 181.268 65.8H199.664C199.664 68.584 198.392 69.976 195.848 69.976H190.988V87.76C190.988 88.912 190.58 89.8 189.764 90.424C188.948 91.024 187.748 91.324 186.164 91.324V69.976ZM202.757 69.04C202.757 67.888 203.165 67.012 203.981 66.412C204.797 65.788 205.997 65.476 207.581 65.476V76.204H218.345V69.04C218.345 67.864 218.753 66.976 219.569 66.376C220.409 65.776 221.609 65.476 223.169 65.476V87.76C223.169 88.912 222.749 89.8 221.909 90.424C221.093 91.024 219.905 91.324 218.345 91.324V80.38H207.581V87.76C207.581 88.912 207.161 89.8 206.321 90.424C205.505 91.024 204.317 91.324 202.757 91.324V69.04ZM234.709 91.324C232.405 91.324 230.545 90.916 229.129 90.1C227.737 89.26 227.029 88.144 227.005 86.752C227.005 86.152 227.245 85.648 227.725 85.24C228.229 84.832 229.021 84.616 230.101 84.592C230.317 85.648 230.821 86.464 231.613 87.04C232.405 87.592 233.365 87.868 234.493 87.868C235.717 87.868 236.677 87.712 237.373 87.4C238.069 87.088 238.417 86.62 238.417 85.996C238.417 85.42 238.129 84.94 237.553 84.556C237.001 84.172 235.897 83.788 234.241 83.404C232.441 82.972 231.037 82.54 230.029 82.108C229.045 81.676 228.313 81.124 227.833 80.452C227.353 79.78 227.113 78.892 227.113 77.788C227.113 76.252 227.761 75.016 229.057 74.08C230.353 73.144 232.129 72.676 234.385 72.676C236.569 72.676 238.381 73.072 239.821 73.864C241.261 74.632 241.981 75.664 241.981 76.96C241.981 77.608 241.741 78.088 241.261 78.4C240.781 78.712 239.989 78.88 238.885 78.904C238.645 77.944 238.189 77.224 237.517 76.744C236.845 76.264 235.897 76.024 234.673 76.024C233.761 76.024 232.969 76.18 232.297 76.492C231.649 76.804 231.325 77.212 231.325 77.716C231.325 78.244 231.601 78.652 232.153 78.94C232.705 79.228 233.665 79.516 235.033 79.804C237.721 80.38 239.665 81.148 240.865 82.108C242.089 83.068 242.701 84.376 242.701 86.032C242.701 87.64 241.981 88.924 240.541 89.884C239.125 90.844 237.181 91.324 234.709 91.324Z" fill="black"/>
<path d="M200.882 302.216C199.346 302.216 198.106 301.944 197.162 301.4C196.234 300.84 195.762 300.096 195.746 299.168C195.746 298.768 195.906 298.432 196.226 298.16C196.562 297.888 197.09 297.744 197.81 297.728C197.954 298.432 198.29 298.976 198.818 299.36C199.346 299.728 199.986 299.912 200.738 299.912C201.554 299.912 202.194 299.808 202.658 299.6C203.122 299.392 203.354 299.08 203.354 298.664C203.354 298.28 203.162 297.96 202.778 297.704C202.41 297.448 201.674 297.192 200.57 296.936C199.37 296.648 198.434 296.36 197.762 296.072C197.106 295.784 196.618 295.416 196.298 294.968C195.978 294.52 195.818 293.928 195.818 293.192C195.818 292.168 196.25 291.344 197.114 290.72C197.978 290.096 199.162 289.784 200.666 289.784C202.122 289.784 203.33 290.048 204.29 290.576C205.25 291.088 205.73 291.776 205.73 292.64C205.73 293.072 205.57 293.392 205.25 293.6C204.93 293.808 204.402 293.92 203.666 293.936C203.506 293.296 203.202 292.816 202.754 292.496C202.306 292.176 201.674 292.016 200.858 292.016C200.25 292.016 199.722 292.12 199.274 292.328C198.842 292.536 198.626 292.808 198.626 293.144C198.626 293.496 198.81 293.768 199.178 293.96C199.546 294.152 200.186 294.344 201.098 294.536C202.89 294.92 204.186 295.432 204.986 296.072C205.802 296.712 206.21 297.584 206.21 298.688C206.21 299.76 205.73 300.616 204.77 301.256C203.826 301.896 202.53 302.216 200.882 302.216ZM211.736 302.216C210.92 302.216 210.168 302.056 209.48 301.736C208.808 301.416 208.264 300.96 207.848 300.368C207.448 299.76 207.248 299.04 207.248 298.208C207.248 297.376 207.464 296.656 207.896 296.048C208.328 295.424 208.912 294.952 209.648 294.632C210.4 294.296 211.224 294.128 212.12 294.128C212.856 294.128 213.512 294.248 214.088 294.488C214.68 294.712 215.224 295.056 215.72 295.52L215.84 295.4C215.696 295.256 215.448 295.04 215.096 294.752V294.272C215.096 293.616 214.864 293.096 214.4 292.712C213.936 292.328 213.288 292.136 212.456 292.136C210.968 292.136 209.872 292.68 209.168 293.768C208.816 293.656 208.52 293.48 208.28 293.24C208.04 292.984 207.92 292.712 207.92 292.424C207.92 291.944 208.136 291.504 208.568 291.104C209 290.704 209.584 290.384 210.32 290.144C211.056 289.904 211.856 289.784 212.72 289.784C214.416 289.784 215.728 290.184 216.656 290.984C217.584 291.768 218.048 292.84 218.048 294.2V300.2C218.048 300.904 217.824 301.416 217.376 301.736C216.928 302.056 216.224 302.216 215.264 302.216V301.232C215.536 300.96 215.72 300.76 215.816 300.632L215.72 300.512C215.192 301.072 214.624 301.496 214.016 301.784C213.424 302.072 212.664 302.216 211.736 302.216ZM212.504 300.032C213.336 300.032 213.984 299.872 214.448 299.552C214.912 299.232 215.144 298.776 215.144 298.184C215.144 297.608 214.904 297.152 214.424 296.816C213.96 296.48 213.328 296.312 212.528 296.312C211.792 296.312 211.208 296.48 210.776 296.816C210.36 297.136 210.152 297.592 210.152 298.184C210.152 298.792 210.36 299.256 210.776 299.576C211.192 299.88 211.768 300.032 212.504 300.032ZM224.707 302.216C224.323 302.216 223.987 302.128 223.699 301.952C223.427 301.776 223.235 301.536 223.123 301.232L218.803 290.024C218.915 289.96 219.107 289.904 219.379 289.856C219.667 289.808 219.899 289.784 220.075 289.784C220.539 289.784 220.955 289.88 221.323 290.072C221.707 290.264 221.963 290.544 222.091 290.912L224.563 298.4L224.155 299.528L224.347 299.576L227.323 290.912C227.451 290.544 227.699 290.264 228.067 290.072C228.451 289.88 228.875 289.784 229.339 289.784C229.515 289.784 229.739 289.808 230.011 289.856C230.299 289.904 230.499 289.96 230.611 290.024L226.291 301.232C226.179 301.536 225.979 301.776 225.691 301.952C225.419 302.128 225.091 302.216 224.707 302.216ZM236.609 302.216C235.617 302.216 234.713 302.024 233.897 301.64C233.081 301.24 232.433 300.704 231.953 300.032C231.473 299.344 231.233 298.576 231.233 297.728V294.536C231.233 293.64 231.481 292.832 231.977 292.112C232.473 291.392 233.129 290.824 233.945 290.408C234.777 289.992 235.673 289.784 236.633 289.784C237.577 289.784 238.441 289.984 239.225 290.384C240.025 290.768 240.657 291.312 241.121 292.016C241.585 292.704 241.817 293.496 241.817 294.392V295.736C241.817 296.088 241.681 296.384 241.409 296.624C241.153 296.864 240.825 296.984 240.425 296.984H234.137V297.512C234.137 298.2 234.345 298.76 234.761 299.192C235.177 299.624 235.801 299.84 236.633 299.84C237.433 299.84 238.025 299.664 238.409 299.312C238.809 298.96 239.009 298.504 239.009 297.944C239.297 297.912 239.497 297.896 239.609 297.896C240.201 297.896 240.665 298.032 241.001 298.304C241.337 298.56 241.505 298.928 241.505 299.408C241.505 299.872 241.289 300.32 240.857 300.752C240.425 301.184 239.833 301.536 239.081 301.808C238.329 302.08 237.505 302.216 236.609 302.216ZM239.105 294.848V294.392C239.105 293.72 238.873 293.176 238.409 292.76C237.945 292.344 237.345 292.136 236.609 292.136C235.873 292.136 235.273 292.344 234.809 292.76C234.361 293.16 234.137 293.704 234.137 294.392V294.848H239.105ZM258.882 287.96H251.778C251.058 287.96 250.506 287.728 250.122 287.264C249.754 286.784 249.57 286.096 249.57 285.2H261.306C261.77 285.2 262.138 285.328 262.41 285.584C262.698 285.824 262.842 286.136 262.842 286.52C262.842 286.76 262.786 286.992 262.674 287.216L255.714 301.208C255.378 301.88 254.818 302.216 254.034 302.216C253.618 302.216 253.25 302.168 252.93 302.072C252.626 301.976 252.338 301.824 252.066 301.616L258.882 287.96ZM271.539 302.216C270.291 302.216 269.147 301.976 268.107 301.496C267.083 301.016 266.275 300.36 265.683 299.528C265.091 298.68 264.795 297.752 264.795 296.744V290.456C264.795 289.448 265.091 288.528 265.683 287.696C266.275 286.848 267.083 286.184 268.107 285.704C269.147 285.224 270.291 284.984 271.539 284.984C272.787 284.984 273.923 285.232 274.947 285.728C275.987 286.208 276.803 286.864 277.395 287.696C278.003 288.528 278.307 289.448 278.307 290.456V296.744C278.307 297.752 278.003 298.672 277.395 299.504C276.803 300.336 275.987 301 274.947 301.496C273.923 301.976 272.787 302.216 271.539 302.216ZM271.539 299.408C272.627 299.408 273.491 299.16 274.131 298.664C274.771 298.152 275.091 297.48 275.091 296.648V290.552C275.091 289.72 274.771 289.056 274.131 288.56C273.491 288.048 272.627 287.792 271.539 287.792C270.451 287.792 269.587 288.048 268.947 288.56C268.307 289.056 267.987 289.72 267.987 290.552V296.648C267.987 297.48 268.307 298.152 268.947 298.664C269.587 299.16 270.451 299.408 271.539 299.408ZM299.518 285.368C299.678 285.032 299.918 284.776 300.238 284.6C300.574 284.408 300.942 284.312 301.342 284.312C301.998 284.312 302.59 284.52 303.118 284.936L294.718 301.808C294.542 302.144 294.294 302.4 293.974 302.576C293.654 302.768 293.294 302.864 292.894 302.864C292.27 302.864 291.678 302.648 291.118 302.216L299.518 285.368ZM290.95 295.016C290.166 295.016 289.446 294.864 288.79 294.56C288.134 294.24 287.614 293.808 287.23 293.264C286.846 292.72 286.654 292.128 286.654 291.488V288.512C286.654 287.872 286.838 287.28 287.206 286.736C287.59 286.192 288.11 285.768 288.766 285.464C289.422 285.144 290.15 284.984 290.95 284.984C291.75 284.984 292.47 285.144 293.11 285.464C293.766 285.768 294.278 286.192 294.646 286.736C295.03 287.264 295.222 287.856 295.222 288.512V291.488C295.222 292.128 295.03 292.72 294.646 293.264C294.278 293.808 293.766 294.24 293.11 294.56C292.454 294.864 291.734 295.016 290.95 295.016ZM290.95 292.52C291.366 292.52 291.686 292.416 291.91 292.208C292.134 291.984 292.246 291.712 292.246 291.392V288.608C292.246 288.288 292.126 288.024 291.886 287.816C291.662 287.592 291.35 287.48 290.95 287.48C290.534 287.48 290.206 287.592 289.966 287.816C289.726 288.024 289.606 288.288 289.606 288.608V291.392C289.606 291.712 289.718 291.984 289.942 292.208C290.182 292.416 290.518 292.52 290.95 292.52ZM303.238 302.216C302.438 302.216 301.71 302.056 301.054 301.736C300.398 301.416 299.878 300.992 299.494 300.464C299.126 299.92 298.942 299.328 298.942 298.688V295.712C298.942 295.072 299.126 294.48 299.494 293.936C299.878 293.392 300.398 292.968 301.054 292.664C301.71 292.344 302.438 292.184 303.238 292.184C304.038 292.184 304.758 292.344 305.398 292.664C306.054 292.968 306.566 293.392 306.934 293.936C307.302 294.464 307.486 295.056 307.486 295.712V298.688C307.486 299.328 307.294 299.92 306.91 300.464C306.542 300.992 306.03 301.416 305.374 301.736C304.734 302.056 304.022 302.216 303.238 302.216ZM303.382 299.648C303.798 299.648 304.134 299.544 304.39 299.336C304.646 299.112 304.774 298.84 304.774 298.52V295.88C304.774 295.56 304.638 295.296 304.366 295.088C304.11 294.864 303.782 294.752 303.382 294.752C302.95 294.752 302.598 294.864 302.326 295.088C302.07 295.296 301.942 295.56 301.942 295.88V298.52C301.942 298.824 302.07 299.088 302.326 299.312C302.598 299.536 302.95 299.648 303.382 299.648Z" fill="#EEC800"/>
<path d="M91.0967 137.578H86.8687C86.6447 137.578 86.4674 137.517 86.3367 137.396C86.206 137.275 86.1407 137.116 86.1407 136.92C86.1407 136.724 86.2014 136.551 86.3227 136.402L91.3207 130.34C91.386 130.256 91.484 130.191 91.6147 130.144C91.7454 130.097 91.89 130.074 92.0487 130.074C92.2727 130.074 92.45 130.144 92.5807 130.284C92.7207 130.424 92.7907 130.601 92.7907 130.816V136.122H94.4147C94.4147 136.626 94.326 136.995 94.1487 137.228C93.9714 137.461 93.6914 137.578 93.3087 137.578H92.7907V138.992C92.7907 139.384 92.6507 139.673 92.3707 139.86C92.1 140.037 91.6754 140.126 91.0967 140.126V137.578ZM91.1947 136.122V132.888L91.6707 132.244L91.5727 132.174L88.3807 136.122H91.1947ZM95.7218 131.376C95.7218 130.956 95.8665 130.634 96.1558 130.41C96.4545 130.186 96.8698 130.074 97.4018 130.074V134.666L102.232 130.074C102.447 130.233 102.619 130.405 102.75 130.592C102.881 130.779 102.946 130.942 102.946 131.082C102.946 131.213 102.899 131.348 102.806 131.488C102.713 131.628 102.582 131.777 102.414 131.936L99.4458 134.722L103.422 139.608C103.151 139.953 102.82 140.126 102.428 140.126C102.008 140.126 101.667 139.967 101.406 139.65L98.2838 135.786L97.4018 136.612V138.894C97.4018 139.314 97.2665 139.627 96.9958 139.832C96.7252 140.028 96.3005 140.126 95.7218 140.126V131.376ZM109.488 130.256C109.582 130.069 109.717 129.925 109.894 129.822C110.072 129.719 110.268 129.668 110.482 129.668C110.8 129.668 111.108 129.775 111.406 129.99L106.45 139.93C106.357 140.117 106.222 140.257 106.044 140.35C105.876 140.453 105.685 140.504 105.47 140.504C105.153 140.504 104.845 140.392 104.546 140.168L109.488 130.256ZM112.853 130.97C112.853 130.755 112.932 130.573 113.091 130.424C113.259 130.275 113.464 130.2 113.707 130.2H120.007C120.007 130.704 119.913 131.073 119.727 131.306C119.549 131.539 119.265 131.656 118.873 131.656H114.533V134.26H118.327C118.327 134.764 118.233 135.133 118.047 135.366C117.869 135.599 117.585 135.716 117.193 135.716H114.533V138.88C114.533 139.319 114.397 139.636 114.127 139.832C113.865 140.028 113.441 140.126 112.853 140.126V130.97ZM121.384 131.362C121.384 130.942 121.524 130.625 121.804 130.41C122.093 130.186 122.513 130.074 123.064 130.074V134.33H127.516V131.362C127.516 130.942 127.661 130.625 127.95 130.41C128.239 130.186 128.659 130.074 129.21 130.074V138.838C129.21 139.249 129.065 139.566 128.776 139.79C128.487 140.014 128.067 140.126 127.516 140.126V135.8H123.064V138.838C123.064 139.258 122.919 139.58 122.63 139.804C122.35 140.019 121.935 140.126 121.384 140.126V131.362ZM131.808 140C131.566 140 131.36 139.925 131.192 139.776C131.034 139.627 130.954 139.44 130.954 139.216V130.97C130.954 130.755 131.034 130.573 131.192 130.424C131.36 130.275 131.566 130.2 131.808 130.2H134.972C135.784 130.2 136.503 130.354 137.128 130.662C137.763 130.97 138.253 131.404 138.598 131.964C138.944 132.524 139.116 133.168 139.116 133.896V136.262C139.116 136.99 138.939 137.639 138.584 138.208C138.239 138.768 137.749 139.207 137.114 139.524C136.489 139.841 135.775 140 134.972 140H131.808ZM134.832 138.544C135.663 138.544 136.302 138.348 136.75 137.956C137.208 137.564 137.436 137.009 137.436 136.29V133.882C137.436 133.163 137.212 132.613 136.764 132.23C136.316 131.847 135.672 131.656 134.832 131.656H132.634V138.544H134.832ZM145.295 130.256C145.388 130.069 145.524 129.925 145.701 129.822C145.878 129.719 146.074 129.668 146.289 129.668C146.606 129.668 146.914 129.775 147.213 129.99L142.257 139.93C142.164 140.117 142.028 140.257 141.851 140.35C141.683 140.453 141.492 140.504 141.277 140.504C140.96 140.504 140.652 140.392 140.353 140.168L145.295 130.256ZM148.659 131.362C148.659 130.942 148.799 130.625 149.079 130.41C149.369 130.186 149.789 130.074 150.339 130.074V134.33H154.791V131.362C154.791 130.942 154.936 130.625 155.225 130.41C155.515 130.186 155.935 130.074 156.485 130.074V138.838C156.485 139.249 156.341 139.566 156.051 139.79C155.762 140.014 155.342 140.126 154.791 140.126V135.8H150.339V138.838C150.339 139.258 150.195 139.58 149.905 139.804C149.625 140.019 149.21 140.126 148.659 140.126V131.362ZM159.084 140C158.841 140 158.636 139.925 158.468 139.776C158.309 139.627 158.23 139.44 158.23 139.216V130.97C158.23 130.755 158.309 130.573 158.468 130.424C158.636 130.275 158.841 130.2 159.084 130.2H162.248C163.06 130.2 163.778 130.354 164.404 130.662C165.038 130.97 165.528 131.404 165.874 131.964C166.219 132.524 166.392 133.168 166.392 133.896V136.262C166.392 136.99 166.214 137.639 165.86 138.208C165.514 138.768 165.024 139.207 164.39 139.524C163.764 139.841 163.05 140 162.248 140H159.084ZM162.108 138.544C162.938 138.544 163.578 138.348 164.026 137.956C164.483 137.564 164.712 137.009 164.712 136.29V133.882C164.712 133.163 164.488 132.613 164.04 132.23C163.592 131.847 162.948 131.656 162.108 131.656H159.91V138.544H162.108ZM172.57 130.256C172.664 130.069 172.799 129.925 172.976 129.822C173.154 129.719 173.35 129.668 173.564 129.668C173.882 129.668 174.19 129.775 174.488 129.99L169.532 139.93C169.439 140.117 169.304 140.257 169.126 140.35C168.958 140.453 168.767 140.504 168.552 140.504C168.235 140.504 167.927 140.392 167.628 140.168L172.57 130.256ZM179.659 140.126C178.837 140.126 178.123 140.019 177.517 139.804C176.91 139.589 176.443 139.295 176.117 138.922C175.799 138.549 175.641 138.119 175.641 137.634C175.641 136.878 176.117 136.5 177.069 136.5C177.087 137.237 177.321 137.797 177.769 138.18C178.226 138.563 178.865 138.754 179.687 138.754C180.405 138.754 180.961 138.633 181.353 138.39C181.745 138.147 181.941 137.797 181.941 137.34C181.941 137.051 181.866 136.817 181.717 136.64C181.567 136.453 181.315 136.29 180.961 136.15C180.606 136.001 180.093 135.851 179.421 135.702C178.525 135.506 177.815 135.277 177.293 135.016C176.779 134.755 176.406 134.442 176.173 134.078C175.939 133.714 175.823 133.261 175.823 132.72C175.823 132.197 175.977 131.735 176.285 131.334C176.593 130.933 177.027 130.625 177.587 130.41C178.147 130.186 178.795 130.074 179.533 130.074C180.233 130.074 180.863 130.172 181.423 130.368C181.983 130.555 182.421 130.821 182.739 131.166C183.056 131.511 183.215 131.908 183.215 132.356C183.215 133 182.762 133.336 181.857 133.364C181.782 132.692 181.558 132.202 181.185 131.894C180.821 131.586 180.27 131.432 179.533 131.432C178.879 131.432 178.375 131.544 178.021 131.768C177.666 131.992 177.489 132.309 177.489 132.72C177.489 133 177.554 133.233 177.685 133.42C177.825 133.597 178.053 133.756 178.371 133.896C178.688 134.027 179.145 134.157 179.743 134.288C180.695 134.503 181.451 134.745 182.011 135.016C182.571 135.277 182.972 135.595 183.215 135.968C183.467 136.332 183.593 136.789 183.593 137.34C183.593 137.909 183.429 138.404 183.103 138.824C182.785 139.244 182.328 139.566 181.731 139.79C181.143 140.014 180.452 140.126 179.659 140.126ZM185.894 140C185.652 140 185.446 139.925 185.278 139.776C185.12 139.627 185.04 139.44 185.04 139.216V130.97C185.04 130.755 185.12 130.573 185.278 130.424C185.446 130.275 185.652 130.2 185.894 130.2H189.058C189.87 130.2 190.589 130.354 191.214 130.662C191.849 130.97 192.339 131.404 192.684 131.964C193.03 132.524 193.202 133.168 193.202 133.896V136.262C193.202 136.99 193.025 137.639 192.67 138.208C192.325 138.768 191.835 139.207 191.2 139.524C190.575 139.841 189.861 140 189.058 140H185.894ZM188.918 138.544C189.749 138.544 190.388 138.348 190.836 137.956C191.294 137.564 191.522 137.009 191.522 136.29V133.882C191.522 133.163 191.298 132.613 190.85 132.23C190.402 131.847 189.758 131.656 188.918 131.656H186.72V138.544H188.918ZM205.622 140.42C205.333 140.42 205.067 140.35 204.824 140.21C204.582 140.07 204.386 139.883 204.236 139.65C203.602 139.967 202.916 140.126 202.178 140.126C201.413 140.126 200.713 139.972 200.078 139.664C199.453 139.356 198.958 138.941 198.594 138.418C198.23 137.895 198.048 137.321 198.048 136.696V133.49C198.048 132.865 198.226 132.291 198.58 131.768C198.944 131.245 199.439 130.835 200.064 130.536C200.699 130.228 201.404 130.074 202.178 130.074C202.953 130.074 203.653 130.228 204.278 130.536C204.913 130.835 205.408 131.245 205.762 131.768C206.126 132.291 206.308 132.865 206.308 133.49V136.696C206.308 137.116 206.224 137.517 206.056 137.9C205.898 138.273 205.664 138.6 205.356 138.88C205.487 139.057 205.66 139.193 205.874 139.286C206.098 139.37 206.332 139.403 206.574 139.384C206.574 139.739 206.495 140 206.336 140.168C206.187 140.336 205.949 140.42 205.622 140.42ZM204.32 137.578C204.526 137.345 204.628 137.046 204.628 136.682V133.518C204.628 132.921 204.404 132.445 203.956 132.09C203.518 131.726 202.925 131.544 202.178 131.544C201.432 131.544 200.834 131.726 200.386 132.09C199.948 132.445 199.728 132.921 199.728 133.518V136.01C200.092 135.889 200.438 135.828 200.764 135.828C201.52 135.828 202.174 135.959 202.724 136.22C203.284 136.481 203.816 136.934 204.32 137.578ZM202.178 138.67C202.589 138.67 202.99 138.6 203.382 138.46C203 137.909 202.608 137.541 202.206 137.354C201.805 137.167 201.296 137.074 200.68 137.074C200.438 137.074 200.148 137.125 199.812 137.228C199.952 137.667 200.228 138.017 200.638 138.278C201.058 138.539 201.572 138.67 202.178 138.67ZM214.085 138.88C214.085 139.281 213.959 139.589 213.707 139.804C213.464 140.019 213.091 140.126 212.587 140.126V139.258C212.671 139.155 212.778 139.015 212.909 138.838L212.825 138.782C212.545 139.202 212.199 139.533 211.789 139.776C211.387 140.009 210.93 140.126 210.417 140.126C209.931 140.126 209.493 140.019 209.101 139.804C208.718 139.58 208.419 139.277 208.205 138.894C207.99 138.502 207.883 138.059 207.883 137.564V133.882C207.883 133.527 208.009 133.271 208.261 133.112C208.522 132.953 208.923 132.874 209.465 132.874V137.466C209.465 137.867 209.581 138.185 209.815 138.418C210.048 138.642 210.393 138.754 210.851 138.754C211.345 138.754 211.747 138.605 212.055 138.306C212.363 138.007 212.517 137.634 212.517 137.186V133.882C212.517 133.527 212.643 133.271 212.895 133.112C213.156 132.953 213.553 132.874 214.085 132.874V138.88ZM218.167 140.126C217.672 140.126 217.224 140.033 216.823 139.846C216.422 139.659 216.104 139.389 215.871 139.034C215.638 138.679 215.521 138.264 215.521 137.788C215.521 137.303 215.642 136.883 215.885 136.528C216.137 136.164 216.478 135.889 216.907 135.702C217.336 135.506 217.817 135.408 218.349 135.408C219.198 135.408 219.912 135.697 220.491 136.276L220.561 136.206C220.393 136.038 220.258 135.917 220.155 135.842V135.45C220.155 135.039 220.015 134.717 219.735 134.484C219.455 134.241 219.063 134.12 218.559 134.12C218.111 134.12 217.719 134.209 217.383 134.386C217.047 134.554 216.776 134.806 216.571 135.142C216.384 135.077 216.226 134.974 216.095 134.834C215.974 134.694 215.913 134.545 215.913 134.386C215.913 134.115 216.039 133.863 216.291 133.63C216.543 133.397 216.879 133.215 217.299 133.084C217.728 132.944 218.19 132.874 218.685 132.874C219.637 132.874 220.374 133.103 220.897 133.56C221.429 134.008 221.695 134.624 221.695 135.408V139.034C221.695 139.417 221.578 139.697 221.345 139.874C221.112 140.042 220.738 140.126 220.225 140.126V139.524C220.393 139.356 220.505 139.235 220.561 139.16L220.491 139.104C220.192 139.44 219.856 139.697 219.483 139.874C219.119 140.042 218.68 140.126 218.167 140.126ZM218.531 138.95C219.044 138.95 219.446 138.847 219.735 138.642C220.034 138.437 220.183 138.147 220.183 137.774C220.183 137.401 220.034 137.111 219.735 136.906C219.446 136.691 219.049 136.584 218.545 136.584C218.088 136.584 217.724 136.691 217.453 136.906C217.192 137.111 217.061 137.401 217.061 137.774C217.061 138.157 217.192 138.451 217.453 138.656C217.714 138.852 218.074 138.95 218.531 138.95ZM225.588 140.126C224.841 140.126 224.281 139.916 223.908 139.496C223.534 139.076 223.348 138.535 223.348 137.872V131.082C223.348 130.727 223.474 130.471 223.726 130.312C223.987 130.153 224.384 130.074 224.916 130.074V137.816C224.916 138.152 224.986 138.395 225.126 138.544C225.275 138.684 225.513 138.754 225.84 138.754C226.204 138.754 226.535 138.665 226.834 138.488C226.918 138.563 226.983 138.661 227.03 138.782C227.076 138.894 227.1 139.006 227.1 139.118C227.1 139.379 226.964 139.613 226.694 139.818C226.432 140.023 226.064 140.126 225.588 140.126ZM229.485 132.076C229.177 132.076 228.921 131.983 228.715 131.796C228.51 131.6 228.407 131.357 228.407 131.068C228.407 130.779 228.51 130.541 228.715 130.354C228.921 130.167 229.177 130.074 229.485 130.074C229.793 130.074 230.05 130.167 230.255 130.354C230.461 130.541 230.563 130.779 230.563 131.068C230.563 131.357 230.461 131.6 230.255 131.796C230.05 131.983 229.793 132.076 229.485 132.076ZM228.701 133.882C228.701 133.527 228.832 133.271 229.093 133.112C229.355 132.953 229.747 132.874 230.269 132.874V139.118C230.269 139.473 230.139 139.729 229.877 139.888C229.616 140.047 229.224 140.126 228.701 140.126V133.882ZM235.153 140.126C234.425 140.126 233.884 139.916 233.529 139.496C233.184 139.076 233.011 138.535 233.011 137.872V134.19H231.611C231.611 133.789 231.69 133.49 231.849 133.294C232.008 133.098 232.222 133 232.493 133H233.025V131.782C233.025 131.427 233.151 131.171 233.403 131.012C233.664 130.853 234.052 130.774 234.565 130.774V133H236.427C236.427 133.42 236.343 133.723 236.175 133.91C236.007 134.097 235.741 134.19 235.377 134.19H234.579V137.816C234.579 138.152 234.644 138.395 234.775 138.544C234.906 138.684 235.134 138.754 235.461 138.754C235.788 138.754 236.11 138.665 236.427 138.488C236.511 138.563 236.572 138.656 236.609 138.768C236.656 138.88 236.679 138.997 236.679 139.118C236.679 139.379 236.544 139.613 236.273 139.818C236.002 140.023 235.629 140.126 235.153 140.126ZM238.657 142.926C238.321 142.926 238.059 142.814 237.873 142.59C237.686 142.366 237.588 142.039 237.579 141.61C237.84 141.657 238.064 141.68 238.251 141.68C238.624 141.68 238.918 141.573 239.133 141.358C239.357 141.153 239.595 140.765 239.847 140.196L240.099 139.636L237.369 133C237.434 132.963 237.537 132.935 237.677 132.916C237.826 132.888 237.952 132.874 238.055 132.874C238.297 132.874 238.517 132.93 238.713 133.042C238.918 133.145 239.058 133.294 239.133 133.49L240.757 137.718L240.547 138.334L240.645 138.376L242.563 133.49C242.647 133.294 242.787 133.145 242.983 133.042C243.179 132.93 243.398 132.874 243.641 132.874C243.743 132.874 243.865 132.888 244.005 132.916C244.154 132.935 244.261 132.963 244.327 133L241.191 140.658C240.873 141.423 240.519 141.993 240.127 142.366C239.735 142.739 239.245 142.926 238.657 142.926Z" fill="white"/>
<path d="M51.9674 141.352L45.969 134.972C45.6086 134.589 45.6086 133.967 45.969 133.584L47.2741 132.196C47.6344 131.812 48.2188 131.812 48.5791 132.196L52.6199 136.494L61.2749 127.287C61.6352 126.904 62.2196 126.904 62.5799 127.287L63.885 128.676C64.2453 129.059 64.2453 129.681 63.885 130.064L53.2725 141.353C52.9121 141.736 52.3278 141.736 51.9674 141.352Z" fill="#84FF65"/>
<path d="M91.2428 160.108H88.6148C88.6148 159.724 88.6988 159.424 88.8668 159.208C89.0348 158.984 89.2868 158.872 89.6228 158.872H91.2428V157.492C91.2428 157.124 91.3588 156.86 91.5908 156.7C91.8308 156.54 92.1868 156.46 92.6588 156.46V158.872H95.2748C95.2748 159.264 95.1908 159.568 95.0228 159.784C94.8548 160 94.6028 160.108 94.2668 160.108H92.6588V161.512C92.6588 162.2 92.1868 162.544 91.2428 162.544V160.108ZM99.544 163.108C98.904 163.108 98.332 163.012 97.828 162.82C97.324 162.62 96.932 162.344 96.652 161.992C96.372 161.64 96.232 161.24 96.232 160.792C96.232 160.448 96.344 160.196 96.568 160.036C96.792 159.876 97.152 159.796 97.648 159.796C97.624 159.964 97.612 160.136 97.612 160.312C97.612 160.808 97.776 161.188 98.104 161.452C98.432 161.708 98.912 161.836 99.544 161.836C100.824 161.836 101.464 161.424 101.464 160.6C101.464 160.184 101.32 159.868 101.032 159.652C100.744 159.436 100.32 159.328 99.76 159.328H99.352C99.176 159.328 99.028 159.272 98.908 159.16C98.796 159.04 98.74 158.892 98.74 158.716C98.74 158.524 98.796 158.372 98.908 158.26C99.02 158.148 99.168 158.092 99.352 158.092H99.772C100.236 158.092 100.592 157.988 100.84 157.78C101.096 157.572 101.224 157.28 101.224 156.904C101.224 156.536 101.084 156.252 100.804 156.052C100.524 155.852 100.124 155.752 99.604 155.752C99.036 155.752 98.596 155.852 98.284 156.052C97.98 156.252 97.828 156.54 97.828 156.916C97.828 157.068 97.844 157.228 97.876 157.396C97.452 157.412 97.108 157.34 96.844 157.18C96.58 157.012 96.448 156.788 96.448 156.508C96.448 156.116 96.58 155.768 96.844 155.464C97.116 155.16 97.492 154.924 97.972 154.756C98.452 154.58 98.996 154.492 99.604 154.492C100.22 154.492 100.76 154.592 101.224 154.792C101.696 154.992 102.056 155.276 102.304 155.644C102.56 156.004 102.688 156.424 102.688 156.904C102.688 157.68 102.284 158.28 101.476 158.704C101.996 158.928 102.368 159.188 102.592 159.484C102.816 159.772 102.928 160.144 102.928 160.6C102.928 161.104 102.788 161.548 102.508 161.932C102.228 162.308 101.832 162.6 101.32 162.808C100.816 163.008 100.224 163.108 99.544 163.108ZM107.388 163.108C106.78 163.108 106.22 162.992 105.708 162.76C105.204 162.52 104.804 162.196 104.508 161.788C104.212 161.38 104.064 160.928 104.064 160.432V157.168C104.064 156.672 104.212 156.22 104.508 155.812C104.804 155.404 105.204 155.084 105.708 154.852C106.22 154.612 106.78 154.492 107.388 154.492C108.004 154.492 108.564 154.612 109.068 154.852C109.58 155.084 109.98 155.404 110.268 155.812C110.564 156.22 110.712 156.672 110.712 157.168V160.432C110.712 160.928 110.564 161.38 110.268 161.788C109.972 162.196 109.568 162.52 109.056 162.76C108.552 162.992 107.996 163.108 107.388 163.108ZM107.388 161.836C107.956 161.836 108.412 161.704 108.756 161.44C109.1 161.176 109.272 160.824 109.272 160.384V157.204C109.272 156.772 109.1 156.424 108.756 156.16C108.412 155.896 107.956 155.764 107.388 155.764C106.828 155.764 106.376 155.896 106.032 156.16C105.688 156.424 105.516 156.772 105.516 157.204V160.384C105.516 160.824 105.684 161.176 106.02 161.44C106.364 161.704 106.82 161.836 107.388 161.836ZM115.357 163.108C114.749 163.108 114.189 162.992 113.677 162.76C113.173 162.52 112.773 162.196 112.477 161.788C112.181 161.38 112.033 160.928 112.033 160.432V157.168C112.033 156.672 112.181 156.22 112.477 155.812C112.773 155.404 113.173 155.084 113.677 154.852C114.189 154.612 114.749 154.492 115.357 154.492C115.973 154.492 116.533 154.612 117.037 154.852C117.549 155.084 117.949 155.404 118.237 155.812C118.533 156.22 118.681 156.672 118.681 157.168V160.432C118.681 160.928 118.533 161.38 118.237 161.788C117.941 162.196 117.537 162.52 117.025 162.76C116.521 162.992 115.965 163.108 115.357 163.108ZM115.357 161.836C115.925 161.836 116.381 161.704 116.725 161.44C117.069 161.176 117.241 160.824 117.241 160.384V157.204C117.241 156.772 117.069 156.424 116.725 156.16C116.381 155.896 115.925 155.764 115.357 155.764C114.797 155.764 114.345 155.896 114.001 156.16C113.657 156.424 113.485 156.772 113.485 157.204V160.384C113.485 160.824 113.653 161.176 113.989 161.44C114.333 161.704 114.789 161.836 115.357 161.836ZM123.326 163.108C122.718 163.108 122.158 162.992 121.646 162.76C121.142 162.52 120.742 162.196 120.446 161.788C120.15 161.38 120.002 160.928 120.002 160.432V157.168C120.002 156.672 120.15 156.22 120.446 155.812C120.742 155.404 121.142 155.084 121.646 154.852C122.158 154.612 122.718 154.492 123.326 154.492C123.942 154.492 124.502 154.612 125.006 154.852C125.518 155.084 125.918 155.404 126.206 155.812C126.502 156.22 126.65 156.672 126.65 157.168V160.432C126.65 160.928 126.502 161.38 126.206 161.788C125.91 162.196 125.506 162.52 124.994 162.76C124.49 162.992 123.934 163.108 123.326 163.108ZM123.326 161.836C123.894 161.836 124.35 161.704 124.694 161.44C125.038 161.176 125.21 160.824 125.21 160.384V157.204C125.21 156.772 125.038 156.424 124.694 156.16C124.35 155.896 123.894 155.764 123.326 155.764C122.766 155.764 122.314 155.896 121.97 156.16C121.626 156.424 121.454 156.772 121.454 157.204V160.384C121.454 160.824 121.622 161.176 121.958 161.44C122.302 161.704 122.758 161.836 123.326 161.836ZM131.295 163.108C130.687 163.108 130.127 162.992 129.615 162.76C129.111 162.52 128.711 162.196 128.415 161.788C128.119 161.38 127.971 160.928 127.971 160.432V157.168C127.971 156.672 128.119 156.22 128.415 155.812C128.711 155.404 129.111 155.084 129.615 154.852C130.127 154.612 130.687 154.492 131.295 154.492C131.911 154.492 132.471 154.612 132.975 154.852C133.487 155.084 133.887 155.404 134.175 155.812C134.471 156.22 134.619 156.672 134.619 157.168V160.432C134.619 160.928 134.471 161.38 134.175 161.788C133.879 162.196 133.475 162.52 132.963 162.76C132.459 162.992 131.903 163.108 131.295 163.108ZM131.295 161.836C131.863 161.836 132.319 161.704 132.663 161.44C133.007 161.176 133.179 160.824 133.179 160.384V157.204C133.179 156.772 133.007 156.424 132.663 156.16C132.319 155.896 131.863 155.764 131.295 155.764C130.735 155.764 130.283 155.896 129.939 156.16C129.595 156.424 129.423 156.772 129.423 157.204V160.384C129.423 160.824 129.591 161.176 129.927 161.44C130.271 161.704 130.727 161.836 131.295 161.836ZM142.549 163.108C141.853 163.108 141.229 162.976 140.677 162.712C140.133 162.44 139.709 162.068 139.405 161.596C139.101 161.116 138.949 160.572 138.949 159.964V157.6C138.949 156.992 139.097 156.456 139.393 155.992C139.697 155.52 140.117 155.152 140.653 154.888C141.197 154.624 141.813 154.492 142.501 154.492C143.197 154.492 143.813 154.6 144.349 154.816C144.885 155.024 145.301 155.32 145.597 155.704C145.901 156.08 146.053 156.512 146.053 157C146.053 157.28 145.961 157.5 145.777 157.66C145.593 157.812 145.345 157.888 145.033 157.888C144.881 157.888 144.737 157.872 144.601 157.84C144.625 157.72 144.637 157.54 144.637 157.3C144.637 156.844 144.437 156.472 144.037 156.184C143.645 155.896 143.133 155.752 142.501 155.752C141.877 155.752 141.369 155.924 140.977 156.268C140.585 156.612 140.389 157.056 140.389 157.6V159.964C140.389 160.516 140.589 160.968 140.989 161.32C141.389 161.664 141.909 161.836 142.549 161.836C143.181 161.836 143.697 161.696 144.097 161.416C144.497 161.128 144.697 160.756 144.697 160.3C144.697 160.076 144.685 159.904 144.661 159.784C144.789 159.752 144.929 159.736 145.081 159.736C145.393 159.736 145.641 159.82 145.825 159.988C146.017 160.156 146.113 160.384 146.113 160.672C146.113 161.144 145.961 161.564 145.657 161.932C145.361 162.3 144.941 162.588 144.397 162.796C143.853 163.004 143.237 163.108 142.549 163.108ZM147.344 155.56C147.344 155.216 147.456 154.952 147.68 154.768C147.912 154.584 148.248 154.492 148.688 154.492V157.624C148.568 157.76 148.472 157.884 148.4 157.996L148.472 158.044C148.728 157.684 149.032 157.404 149.384 157.204C149.744 156.996 150.148 156.892 150.596 156.892C151.012 156.892 151.376 156.984 151.688 157.168C152 157.344 152.24 157.592 152.408 157.912C152.584 158.232 152.672 158.588 152.672 158.98V162.244C152.672 162.548 152.56 162.768 152.336 162.904C152.112 163.04 151.776 163.108 151.328 163.108V159.16C151.328 158.832 151.228 158.568 151.028 158.368C150.836 158.16 150.552 158.056 150.176 158.056C149.76 158.056 149.408 158.188 149.12 158.452C148.832 158.708 148.688 159.024 148.688 159.4V162.244C148.688 162.548 148.576 162.768 148.352 162.904C148.128 163.04 147.792 163.108 147.344 163.108V155.56ZM156.051 163.108C155.627 163.108 155.243 163.028 154.899 162.868C154.555 162.708 154.283 162.476 154.083 162.172C153.883 161.868 153.783 161.512 153.783 161.104C153.783 160.688 153.887 160.328 154.095 160.024C154.311 159.712 154.603 159.476 154.971 159.316C155.339 159.148 155.751 159.064 156.207 159.064C156.935 159.064 157.547 159.312 158.043 159.808L158.103 159.748C157.959 159.604 157.843 159.5 157.755 159.436V159.1C157.755 158.748 157.635 158.472 157.395 158.272C157.155 158.064 156.819 157.96 156.387 157.96C156.003 157.96 155.667 158.036 155.379 158.188C155.091 158.332 154.859 158.548 154.683 158.836C154.523 158.78 154.387 158.692 154.275 158.572C154.171 158.452 154.119 158.324 154.119 158.188C154.119 157.956 154.227 157.74 154.443 157.54C154.659 157.34 154.947 157.184 155.307 157.072C155.675 156.952 156.071 156.892 156.495 156.892C157.311 156.892 157.943 157.088 158.391 157.48C158.847 157.864 159.075 158.392 159.075 159.064V162.172C159.075 162.5 158.975 162.74 158.775 162.892C158.575 163.036 158.255 163.108 157.815 163.108V162.592C157.959 162.448 158.055 162.344 158.103 162.28L158.043 162.232C157.787 162.52 157.499 162.74 157.179 162.892C156.867 163.036 156.491 163.108 156.051 163.108ZM156.363 162.1C156.803 162.1 157.147 162.012 157.395 161.836C157.651 161.66 157.779 161.412 157.779 161.092C157.779 160.772 157.651 160.524 157.395 160.348C157.147 160.164 156.807 160.072 156.375 160.072C155.983 160.072 155.671 160.164 155.439 160.348C155.215 160.524 155.103 160.772 155.103 161.092C155.103 161.42 155.215 161.672 155.439 161.848C155.663 162.016 155.971 162.1 156.363 162.1ZM160.527 157.96C160.527 157.248 160.955 156.892 161.811 156.892V157.624C161.715 157.728 161.623 157.852 161.535 157.996L161.607 158.044C161.839 157.692 162.143 157.412 162.519 157.204C162.903 156.996 163.323 156.892 163.779 156.892C164.195 156.892 164.559 156.984 164.871 157.168C165.183 157.344 165.423 157.592 165.591 157.912C165.767 158.232 165.855 158.588 165.855 158.98V162.244C165.855 162.548 165.743 162.768 165.519 162.904C165.295 163.04 164.959 163.108 164.511 163.108V159.16C164.511 158.832 164.411 158.568 164.211 158.368C164.019 158.16 163.735 158.056 163.359 158.056C162.943 158.056 162.591 158.188 162.303 158.452C162.015 158.708 161.871 159.024 161.871 159.4V162.244C161.871 162.548 161.759 162.768 161.535 162.904C161.319 163.04 160.983 163.108 160.527 163.108V157.96ZM167.266 157.96C167.266 157.248 167.694 156.892 168.55 156.892V157.624C168.454 157.728 168.362 157.852 168.274 157.996L168.346 158.044C168.578 157.692 168.882 157.412 169.258 157.204C169.642 156.996 170.062 156.892 170.518 156.892C170.934 156.892 171.298 156.984 171.61 157.168C171.922 157.344 172.162 157.592 172.33 157.912C172.506 158.232 172.594 158.588 172.594 158.98V162.244C172.594 162.548 172.482 162.768 172.258 162.904C172.034 163.04 171.698 163.108 171.25 163.108V159.16C171.25 158.832 171.15 158.568 170.95 158.368C170.758 158.16 170.474 158.056 170.098 158.056C169.682 158.056 169.33 158.188 169.042 158.452C168.754 158.708 168.61 159.024 168.61 159.4V162.244C168.61 162.548 168.498 162.768 168.274 162.904C168.058 163.04 167.722 163.108 167.266 163.108V157.96ZM176.548 163.108C176.06 163.108 175.612 163.012 175.204 162.82C174.804 162.628 174.488 162.364 174.256 162.028C174.024 161.684 173.908 161.3 173.908 160.876V159.22C173.908 158.78 174.028 158.384 174.268 158.032C174.508 157.68 174.832 157.404 175.24 157.204C175.648 156.996 176.088 156.892 176.56 156.892C177.032 156.892 177.46 156.988 177.844 157.18C178.236 157.372 178.544 157.644 178.768 157.996C179 158.34 179.116 158.728 179.116 159.16V159.868C179.116 160.028 179.056 160.164 178.936 160.276C178.816 160.388 178.664 160.444 178.48 160.444H175.216V160.792C175.216 161.16 175.328 161.456 175.552 161.68C175.784 161.904 176.12 162.016 176.56 162.016C176.992 162.016 177.316 161.924 177.532 161.74C177.748 161.548 177.856 161.296 177.856 160.984C177.904 160.976 177.976 160.972 178.072 160.972C178.344 160.972 178.56 161.036 178.72 161.164C178.888 161.284 178.972 161.456 178.972 161.68C178.972 161.92 178.864 162.152 178.648 162.376C178.432 162.592 178.136 162.768 177.76 162.904C177.392 163.04 176.988 163.108 176.548 163.108ZM177.88 159.448V159.16C177.88 158.8 177.756 158.512 177.508 158.296C177.268 158.072 176.948 157.96 176.548 157.96C176.148 157.96 175.824 158.072 175.576 158.296C175.336 158.512 175.216 158.8 175.216 159.16V159.448H177.88ZM182.24 163.108C181.6 163.108 181.12 162.928 180.8 162.568C180.48 162.208 180.32 161.744 180.32 161.176V155.356C180.32 155.052 180.428 154.832 180.644 154.696C180.868 154.56 181.208 154.492 181.664 154.492V161.128C181.664 161.416 181.724 161.624 181.844 161.752C181.972 161.872 182.176 161.932 182.456 161.932C182.768 161.932 183.052 161.856 183.308 161.704C183.38 161.768 183.436 161.852 183.476 161.956C183.516 162.052 183.536 162.148 183.536 162.244C183.536 162.468 183.42 162.668 183.188 162.844C182.964 163.02 182.648 163.108 182.24 163.108ZM186.833 163.108C186.105 163.108 185.505 162.968 185.033 162.688C184.569 162.408 184.337 162.036 184.337 161.572C184.337 161.14 184.641 160.912 185.249 160.888C185.321 161.272 185.497 161.564 185.777 161.764C186.057 161.956 186.397 162.052 186.797 162.052C187.229 162.052 187.565 161.996 187.805 161.884C188.045 161.764 188.165 161.588 188.165 161.356C188.165 161.132 188.061 160.956 187.853 160.828C187.653 160.692 187.265 160.556 186.689 160.42C186.121 160.292 185.673 160.156 185.345 160.012C185.017 159.868 184.769 159.684 184.601 159.46C184.441 159.236 184.361 158.94 184.361 158.572C184.361 158.076 184.573 157.672 184.997 157.36C185.429 157.048 186.005 156.892 186.725 156.892C187.421 156.892 188.005 157.02 188.477 157.276C188.949 157.532 189.185 157.872 189.185 158.296C189.185 158.504 189.105 158.66 188.945 158.764C188.793 158.868 188.557 158.924 188.237 158.932C188.109 158.252 187.625 157.912 186.785 157.912C186.457 157.912 186.181 157.972 185.957 158.092C185.741 158.212 185.633 158.368 185.633 158.56C185.633 158.76 185.729 158.916 185.921 159.028C186.121 159.132 186.453 159.232 186.917 159.328C187.797 159.512 188.437 159.76 188.837 160.072C189.237 160.384 189.437 160.812 189.437 161.356C189.437 161.892 189.205 162.32 188.741 162.64C188.277 162.952 187.641 163.108 186.833 163.108Z" fill="white"/>
<path d="M51.9674 165.352L45.969 158.972C45.6086 158.589 45.6086 157.967 45.969 157.584L47.2741 156.196C47.6344 155.812 48.2188 155.812 48.5791 156.196L52.6199 160.494L61.2749 151.287C61.6352 150.904 62.2196 150.904 62.5799 151.287L63.885 152.676C64.2453 153.059 64.2453 153.681 63.885 154.064L53.2725 165.353C52.9121 165.736 52.3278 165.736 51.9674 165.352Z" fill="#84FF65"/>
<path d="M89.4713 187.108H86.8433C86.8433 186.724 86.9273 186.424 87.0953 186.208C87.2633 185.984 87.5153 185.872 87.8513 185.872H89.4713V184.492C89.4713 184.124 89.5873 183.86 89.8193 183.7C90.0593 183.54 90.4153 183.46 90.8873 183.46V185.872H93.5033C93.5033 186.264 93.4193 186.568 93.2513 186.784C93.0833 187 92.8313 187.108 92.4953 187.108H90.8873V188.512C90.8873 189.2 90.4153 189.544 89.4713 189.544V187.108ZM97.7005 190.108C97.1005 190.108 96.5525 190.012 96.0565 189.82C95.5605 189.62 95.1685 189.348 94.8805 189.004C94.6005 188.66 94.4605 188.28 94.4605 187.864C94.4605 187.536 94.5525 187.296 94.7365 187.144C94.9205 186.984 95.2085 186.904 95.6005 186.904L95.8285 186.916C95.8045 187.06 95.7925 187.212 95.7925 187.372C95.7925 187.836 95.9605 188.196 96.2965 188.452C96.6325 188.708 97.1005 188.836 97.7005 188.836C98.3085 188.836 98.7805 188.672 99.1165 188.344C99.4525 188.016 99.6205 187.552 99.6205 186.952C99.6205 186.368 99.4525 185.92 99.1165 185.608C98.7805 185.296 98.3005 185.14 97.6765 185.14C96.9965 185.14 96.4365 185.328 95.9965 185.704C95.8285 185.84 95.6405 185.908 95.4325 185.908C95.2325 185.908 95.0605 185.848 94.9165 185.728C94.7805 185.6 94.7125 185.44 94.7125 185.248C94.7125 185.2 94.7165 185.164 94.7245 185.14L95.2165 182.116C95.2405 181.948 95.3125 181.82 95.4325 181.732C95.5605 181.644 95.7245 181.6 95.9245 181.6H100.64C100.64 182.424 100.296 182.836 99.6085 182.836H96.3325L96.1045 184.288C95.9045 184.424 95.7485 184.552 95.6365 184.672L95.6845 184.744C95.9885 184.496 96.3525 184.3 96.7765 184.156C97.2005 184.004 97.6125 183.928 98.0125 183.928C98.9405 183.928 99.6725 184.2 100.208 184.744C100.752 185.28 101.024 186.016 101.024 186.952C101.024 187.592 100.888 188.152 100.616 188.632C100.352 189.104 99.9685 189.468 99.4645 189.724C98.9685 189.98 98.3805 190.108 97.7005 190.108ZM105.488 190.108C104.88 190.108 104.32 189.992 103.808 189.76C103.304 189.52 102.904 189.196 102.608 188.788C102.312 188.38 102.164 187.928 102.164 187.432V184.168C102.164 183.672 102.312 183.22 102.608 182.812C102.904 182.404 103.304 182.084 103.808 181.852C104.32 181.612 104.88 181.492 105.488 181.492C106.104 181.492 106.664 181.612 107.168 181.852C107.68 182.084 108.08 182.404 108.368 182.812C108.664 183.22 108.812 183.672 108.812 184.168V187.432C108.812 187.928 108.664 188.38 108.368 188.788C108.072 189.196 107.668 189.52 107.156 189.76C106.652 189.992 106.096 190.108 105.488 190.108ZM105.488 188.836C106.056 188.836 106.512 188.704 106.856 188.44C107.2 188.176 107.372 187.824 107.372 187.384V184.204C107.372 183.772 107.2 183.424 106.856 183.16C106.512 182.896 106.056 182.764 105.488 182.764C104.928 182.764 104.476 182.896 104.132 183.16C103.788 183.424 103.616 183.772 103.616 184.204V187.384C103.616 187.824 103.784 188.176 104.12 188.44C104.464 188.704 104.92 188.836 105.488 188.836ZM113.457 190.108C112.849 190.108 112.289 189.992 111.777 189.76C111.273 189.52 110.873 189.196 110.577 188.788C110.281 188.38 110.133 187.928 110.133 187.432V184.168C110.133 183.672 110.281 183.22 110.577 182.812C110.873 182.404 111.273 182.084 111.777 181.852C112.289 181.612 112.849 181.492 113.457 181.492C114.073 181.492 114.633 181.612 115.137 181.852C115.649 182.084 116.049 182.404 116.337 182.812C116.633 183.22 116.781 183.672 116.781 184.168V187.432C116.781 187.928 116.633 188.38 116.337 188.788C116.041 189.196 115.637 189.52 115.125 189.76C114.621 189.992 114.065 190.108 113.457 190.108ZM113.457 188.836C114.025 188.836 114.481 188.704 114.825 188.44C115.169 188.176 115.341 187.824 115.341 187.384V184.204C115.341 183.772 115.169 183.424 114.825 183.16C114.481 182.896 114.025 182.764 113.457 182.764C112.897 182.764 112.445 182.896 112.101 183.16C111.757 183.424 111.585 183.772 111.585 184.204V187.384C111.585 187.824 111.753 188.176 112.089 188.44C112.433 188.704 112.889 188.836 113.457 188.836ZM121.425 190.108C120.817 190.108 120.257 189.992 119.745 189.76C119.241 189.52 118.841 189.196 118.545 188.788C118.249 188.38 118.101 187.928 118.101 187.432V184.168C118.101 183.672 118.249 183.22 118.545 182.812C118.841 182.404 119.241 182.084 119.745 181.852C120.257 181.612 120.817 181.492 121.425 181.492C122.041 181.492 122.601 181.612 123.105 181.852C123.617 182.084 124.017 182.404 124.305 182.812C124.601 183.22 124.749 183.672 124.749 184.168V187.432C124.749 187.928 124.601 188.38 124.305 188.788C124.009 189.196 123.605 189.52 123.093 189.76C122.589 189.992 122.033 190.108 121.425 190.108ZM121.425 188.836C121.993 188.836 122.449 188.704 122.793 188.44C123.137 188.176 123.309 187.824 123.309 187.384V184.204C123.309 183.772 123.137 183.424 122.793 183.16C122.449 182.896 121.993 182.764 121.425 182.764C120.865 182.764 120.413 182.896 120.069 183.16C119.725 183.424 119.553 183.772 119.553 184.204V187.384C119.553 187.824 119.721 188.176 120.057 188.44C120.401 188.704 120.857 188.836 121.425 188.836ZM129.394 190.108C128.786 190.108 128.226 189.992 127.714 189.76C127.21 189.52 126.81 189.196 126.514 188.788C126.218 188.38 126.07 187.928 126.07 187.432V184.168C126.07 183.672 126.218 183.22 126.514 182.812C126.81 182.404 127.21 182.084 127.714 181.852C128.226 181.612 128.786 181.492 129.394 181.492C130.01 181.492 130.57 181.612 131.074 181.852C131.586 182.084 131.986 182.404 132.274 182.812C132.57 183.22 132.718 183.672 132.718 184.168V187.432C132.718 187.928 132.57 188.38 132.274 188.788C131.978 189.196 131.574 189.52 131.062 189.76C130.558 189.992 130.002 190.108 129.394 190.108ZM129.394 188.836C129.962 188.836 130.418 188.704 130.762 188.44C131.106 188.176 131.278 187.824 131.278 187.384V184.204C131.278 183.772 131.106 183.424 130.762 183.16C130.418 182.896 129.962 182.764 129.394 182.764C128.834 182.764 128.382 182.896 128.038 183.16C127.694 183.424 127.522 183.772 127.522 184.204V187.384C127.522 187.824 127.69 188.176 128.026 188.44C128.37 188.704 128.826 188.836 129.394 188.836ZM140.733 190.108C140.381 190.108 140.145 189.948 140.025 189.628L136.953 181.636C137.025 181.596 137.121 181.564 137.241 181.54C137.361 181.508 137.473 181.492 137.577 181.492C137.857 181.492 138.089 181.556 138.273 181.684C138.465 181.804 138.605 181.98 138.693 182.212L140.649 187.696L140.397 188.416L140.517 188.464L142.761 182.212C142.945 181.732 143.321 181.492 143.889 181.492C143.985 181.492 144.089 181.508 144.201 181.54C144.321 181.564 144.421 181.596 144.501 181.636L141.441 189.628C141.385 189.78 141.293 189.9 141.165 189.988C141.045 190.068 140.901 190.108 140.733 190.108ZM148.286 190.108C147.63 190.108 147.03 189.976 146.486 189.712C145.95 189.448 145.526 189.092 145.214 188.644C144.902 188.196 144.746 187.704 144.746 187.168V184.42C144.746 183.884 144.898 183.392 145.202 182.944C145.514 182.496 145.938 182.144 146.474 181.888C147.018 181.624 147.622 181.492 148.286 181.492C148.95 181.492 149.55 181.624 150.086 181.888C150.63 182.144 151.054 182.496 151.358 182.944C151.67 183.392 151.826 183.884 151.826 184.42V187.168C151.826 187.704 151.67 188.196 151.358 188.644C151.046 189.092 150.618 189.448 150.074 189.712C149.538 189.976 148.942 190.108 148.286 190.108ZM148.286 188.848C148.926 188.848 149.434 188.692 149.81 188.38C150.194 188.068 150.386 187.656 150.386 187.144V184.444C150.386 183.932 150.194 183.524 149.81 183.22C149.434 182.908 148.926 182.752 148.286 182.752C147.646 182.752 147.134 182.908 146.75 183.22C146.374 183.524 146.186 183.932 146.186 184.444V187.144C146.186 187.656 146.374 188.068 146.75 188.38C147.134 188.692 147.646 188.848 148.286 188.848ZM153.793 190C153.585 190 153.409 189.936 153.265 189.808C153.129 189.68 153.061 189.52 153.061 189.328V182.26C153.061 182.076 153.129 181.92 153.265 181.792C153.409 181.664 153.585 181.6 153.793 181.6H156.505C157.201 181.6 157.817 181.732 158.353 181.996C158.897 182.26 159.317 182.632 159.613 183.112C159.909 183.592 160.057 184.144 160.057 184.768V186.796C160.057 187.42 159.905 187.976 159.601 188.464C159.305 188.944 158.885 189.32 158.341 189.592C157.805 189.864 157.193 190 156.505 190H153.793ZM156.385 188.752C157.097 188.752 157.645 188.584 158.029 188.248C158.421 187.912 158.617 187.436 158.617 186.82V184.756C158.617 184.14 158.425 183.668 158.041 183.34C157.657 183.012 157.105 182.848 156.385 182.848H154.501V188.752H156.385Z" fill="white"/>
<path d="M51.9674 194.352L45.969 187.972C45.6086 187.589 45.6086 186.967 45.969 186.584L47.2741 185.196C47.6344 184.812 48.2188 184.812 48.5791 185.196L52.6199 189.494L61.2749 180.287C61.6352 179.904 62.2196 179.904 62.5799 180.287L63.885 181.676C64.2453 182.059 64.2453 182.681 63.885 183.064L53.2725 194.353C52.9121 194.736 52.3278 194.736 51.9674 194.352Z" fill="#84FF65"/>
<path d="M87.1813 218C86.9813 218 86.8173 217.944 86.6893 217.832C86.5693 217.712 86.5093 217.56 86.5093 217.376C86.5093 216.752 86.7493 216.18 87.2293 215.66C87.7173 215.132 88.4853 214.62 89.5333 214.124C90.0613 213.868 90.4613 213.644 90.7333 213.452C91.0133 213.252 91.2093 213.048 91.3213 212.84C91.4333 212.632 91.4893 212.38 91.4893 212.084C91.4893 211.66 91.3453 211.336 91.0573 211.112C90.7773 210.88 90.3733 210.764 89.8453 210.764C89.2533 210.764 88.8013 210.892 88.4893 211.148C88.1773 211.404 88.0213 211.78 88.0213 212.276C88.0213 212.476 88.0373 212.652 88.0693 212.804C87.9573 212.82 87.8693 212.828 87.8053 212.828C87.4693 212.828 87.1813 212.728 86.9413 212.528C86.7013 212.328 86.5813 212.084 86.5813 211.796C86.5813 211.364 86.7253 210.972 87.0133 210.62C87.3013 210.268 87.6933 209.992 88.1893 209.792C88.6853 209.592 89.2373 209.492 89.8453 209.492C90.4693 209.492 91.0133 209.6 91.4773 209.816C91.9493 210.024 92.3133 210.324 92.5693 210.716C92.8253 211.108 92.9533 211.564 92.9533 212.084C92.9533 212.668 92.7373 213.196 92.3053 213.668C91.8813 214.14 91.2053 214.6 90.2773 215.048C89.5813 215.384 89.0613 215.692 88.7173 215.972C88.3733 216.244 88.1813 216.504 88.1413 216.752H91.9573C92.3253 216.752 92.6013 216.86 92.7853 217.076C92.9773 217.284 93.0733 217.592 93.0733 218H87.1813ZM98.1607 215.924H94.5367C94.3447 215.924 94.1927 215.872 94.0807 215.768C93.9687 215.664 93.9127 215.528 93.9127 215.36C93.9127 215.192 93.9647 215.044 94.0687 214.916L98.3527 209.72C98.4087 209.648 98.4927 209.592 98.6047 209.552C98.7167 209.512 98.8407 209.492 98.9767 209.492C99.1687 209.492 99.3207 209.552 99.4327 209.672C99.5527 209.792 99.6127 209.944 99.6127 210.128V214.676H101.005C101.005 215.108 100.929 215.424 100.777 215.624C100.625 215.824 100.385 215.924 100.057 215.924H99.6127V217.136C99.6127 217.472 99.4927 217.72 99.2527 217.88C99.0207 218.032 98.6567 218.108 98.1607 218.108V215.924ZM98.2447 214.676V211.904L98.6527 211.352L98.5687 211.292L95.8327 214.676H98.2447ZM106.085 209.648C106.165 209.488 106.281 209.364 106.433 209.276C106.585 209.188 106.753 209.144 106.937 209.144C107.209 209.144 107.473 209.236 107.729 209.42L103.481 217.94C103.401 218.1 103.285 218.22 103.133 218.3C102.989 218.388 102.825 218.432 102.641 218.432C102.369 218.432 102.105 218.336 101.849 218.144L106.085 209.648ZM113.349 210.848H109.593C109.265 210.848 109.013 210.74 108.837 210.524C108.661 210.308 108.573 210 108.573 209.6H114.441C114.649 209.6 114.813 209.66 114.933 209.78C115.061 209.892 115.125 210.032 115.125 210.2C115.125 210.304 115.101 210.412 115.053 210.524L111.501 217.628C111.333 217.948 111.069 218.108 110.709 218.108C110.525 218.108 110.365 218.088 110.229 218.048C110.093 218.008 109.965 217.936 109.845 217.832L113.349 210.848ZM122.76 218.108C122.064 218.108 121.44 217.976 120.888 217.712C120.344 217.44 119.92 217.068 119.616 216.596C119.312 216.116 119.16 215.572 119.16 214.964V212.6C119.16 211.992 119.308 211.456 119.604 210.992C119.908 210.52 120.328 210.152 120.864 209.888C121.408 209.624 122.024 209.492 122.712 209.492C123.408 209.492 124.024 209.6 124.56 209.816C125.096 210.024 125.512 210.32 125.808 210.704C126.112 211.08 126.264 211.512 126.264 212C126.264 212.28 126.172 212.5 125.988 212.66C125.804 212.812 125.556 212.888 125.244 212.888C125.092 212.888 124.948 212.872 124.812 212.84C124.836 212.72 124.848 212.54 124.848 212.3C124.848 211.844 124.648 211.472 124.248 211.184C123.856 210.896 123.344 210.752 122.712 210.752C122.088 210.752 121.58 210.924 121.188 211.268C120.796 211.612 120.6 212.056 120.6 212.6V214.964C120.6 215.516 120.8 215.968 121.2 216.32C121.6 216.664 122.12 216.836 122.76 216.836C123.392 216.836 123.908 216.696 124.308 216.416C124.708 216.128 124.908 215.756 124.908 215.3C124.908 215.076 124.896 214.904 124.872 214.784C125 214.752 125.14 214.736 125.292 214.736C125.604 214.736 125.852 214.82 126.036 214.988C126.228 215.156 126.324 215.384 126.324 215.672C126.324 216.144 126.172 216.564 125.868 216.932C125.572 217.3 125.152 217.588 124.608 217.796C124.064 218.004 123.448 218.108 122.76 218.108ZM132.751 217.04C132.751 217.384 132.643 217.648 132.427 217.832C132.219 218.016 131.899 218.108 131.467 218.108V217.364C131.539 217.276 131.631 217.156 131.743 217.004L131.671 216.956C131.431 217.316 131.135 217.6 130.783 217.808C130.439 218.008 130.047 218.108 129.607 218.108C129.191 218.108 128.815 218.016 128.479 217.832C128.151 217.64 127.895 217.38 127.711 217.052C127.527 216.716 127.435 216.336 127.435 215.912V212.756C127.435 212.452 127.543 212.232 127.759 212.096C127.983 211.96 128.327 211.892 128.791 211.892V215.828C128.791 216.172 128.891 216.444 129.091 216.644C129.291 216.836 129.587 216.932 129.979 216.932C130.403 216.932 130.747 216.804 131.011 216.548C131.275 216.292 131.407 215.972 131.407 215.588V212.756C131.407 212.452 131.515 212.232 131.731 212.096C131.955 211.96 132.295 211.892 132.751 211.892V217.04ZM136.61 218.108C135.882 218.108 135.282 217.968 134.81 217.688C134.346 217.408 134.114 217.036 134.114 216.572C134.114 216.14 134.418 215.912 135.026 215.888C135.098 216.272 135.274 216.564 135.554 216.764C135.834 216.956 136.174 217.052 136.574 217.052C137.006 217.052 137.342 216.996 137.582 216.884C137.822 216.764 137.942 216.588 137.942 216.356C137.942 216.132 137.838 215.956 137.63 215.828C137.43 215.692 137.042 215.556 136.466 215.42C135.898 215.292 135.45 215.156 135.122 215.012C134.794 214.868 134.546 214.684 134.378 214.46C134.218 214.236 134.138 213.94 134.138 213.572C134.138 213.076 134.35 212.672 134.774 212.36C135.206 212.048 135.782 211.892 136.502 211.892C137.198 211.892 137.782 212.02 138.254 212.276C138.726 212.532 138.962 212.872 138.962 213.296C138.962 213.504 138.882 213.66 138.722 213.764C138.57 213.868 138.334 213.924 138.014 213.932C137.886 213.252 137.402 212.912 136.562 212.912C136.234 212.912 135.958 212.972 135.734 213.092C135.518 213.212 135.41 213.368 135.41 213.56C135.41 213.76 135.506 213.916 135.698 214.028C135.898 214.132 136.23 214.232 136.694 214.328C137.574 214.512 138.214 214.76 138.614 215.072C139.014 215.384 139.214 215.812 139.214 216.356C139.214 216.892 138.982 217.32 138.518 217.64C138.054 217.952 137.418 218.108 136.61 218.108ZM142.56 218.108C141.936 218.108 141.472 217.928 141.168 217.568C140.872 217.208 140.724 216.744 140.724 216.176V213.02H139.524C139.524 212.676 139.592 212.42 139.728 212.252C139.864 212.084 140.048 212 140.28 212H140.736V210.956C140.736 210.652 140.844 210.432 141.06 210.296C141.284 210.16 141.616 210.092 142.056 210.092V212H143.652C143.652 212.36 143.58 212.62 143.436 212.78C143.292 212.94 143.064 213.02 142.752 213.02H142.068V216.128C142.068 216.416 142.124 216.624 142.236 216.752C142.348 216.872 142.544 216.932 142.824 216.932C143.104 216.932 143.38 216.856 143.652 216.704C143.724 216.768 143.776 216.848 143.808 216.944C143.848 217.04 143.868 217.14 143.868 217.244C143.868 217.468 143.752 217.668 143.52 217.844C143.288 218.02 142.968 218.108 142.56 218.108ZM147.171 218.108C146.659 218.108 146.195 218.016 145.779 217.832C145.371 217.64 145.047 217.38 144.807 217.052C144.575 216.724 144.459 216.352 144.459 215.936V214.16C144.459 213.736 144.575 213.352 144.807 213.008C145.039 212.664 145.359 212.392 145.767 212.192C146.183 211.992 146.651 211.892 147.171 211.892C147.691 211.892 148.155 211.992 148.563 212.192C148.979 212.392 149.303 212.664 149.535 213.008C149.767 213.352 149.883 213.736 149.883 214.16V215.936C149.883 216.352 149.763 216.724 149.523 217.052C149.291 217.38 148.967 217.64 148.551 217.832C148.143 218.016 147.683 218.108 147.171 218.108ZM147.171 216.944C147.595 216.944 147.931 216.848 148.179 216.656C148.427 216.456 148.551 216.188 148.551 215.852V214.22C148.551 213.868 148.427 213.584 148.179 213.368C147.931 213.152 147.595 213.044 147.171 213.044C146.747 213.044 146.411 213.152 146.163 213.368C145.915 213.584 145.791 213.868 145.791 214.22V215.852C145.791 216.188 145.915 216.456 146.163 216.656C146.411 216.848 146.747 216.944 147.171 216.944ZM150.969 212.96C150.969 212.248 151.393 211.892 152.241 211.892V212.624C152.113 212.768 152.021 212.892 151.965 212.996L152.025 213.044C152.281 212.668 152.549 212.384 152.829 212.192C153.109 211.992 153.441 211.892 153.825 211.892C154.521 211.892 155.009 212.236 155.289 212.924C155.497 212.596 155.753 212.344 156.057 212.168C156.361 211.984 156.713 211.892 157.113 211.892C157.665 211.892 158.097 212.088 158.409 212.48C158.729 212.872 158.889 213.372 158.889 213.98V217.244C158.889 217.548 158.781 217.768 158.565 217.904C158.349 218.04 158.017 218.108 157.569 218.108V214.088C157.569 213.76 157.497 213.504 157.353 213.32C157.209 213.128 156.989 213.032 156.693 213.032C156.381 213.032 156.117 213.14 155.901 213.356C155.693 213.564 155.589 213.876 155.589 214.292V217.244C155.589 217.548 155.481 217.768 155.265 217.904C155.049 218.04 154.721 218.108 154.281 218.108V214.088C154.281 213.384 153.993 213.032 153.417 213.032C153.073 213.032 152.797 213.152 152.589 213.392C152.389 213.632 152.289 213.944 152.289 214.328V217.244C152.289 217.548 152.181 217.768 151.965 217.904C151.749 218.04 151.417 218.108 150.969 218.108V212.96ZM162.853 218.108C162.365 218.108 161.917 218.012 161.509 217.82C161.109 217.628 160.793 217.364 160.561 217.028C160.329 216.684 160.213 216.3 160.213 215.876V214.22C160.213 213.78 160.333 213.384 160.573 213.032C160.813 212.68 161.137 212.404 161.545 212.204C161.953 211.996 162.393 211.892 162.865 211.892C163.337 211.892 163.765 211.988 164.149 212.18C164.541 212.372 164.849 212.644 165.073 212.996C165.305 213.34 165.421 213.728 165.421 214.16V214.868C165.421 215.028 165.361 215.164 165.241 215.276C165.121 215.388 164.969 215.444 164.785 215.444H161.521V215.792C161.521 216.16 161.633 216.456 161.857 216.68C162.089 216.904 162.425 217.016 162.865 217.016C163.297 217.016 163.621 216.924 163.837 216.74C164.053 216.548 164.161 216.296 164.161 215.984C164.209 215.976 164.281 215.972 164.377 215.972C164.649 215.972 164.865 216.036 165.025 216.164C165.193 216.284 165.277 216.456 165.277 216.68C165.277 216.92 165.169 217.152 164.953 217.376C164.737 217.592 164.441 217.768 164.065 217.904C163.697 218.04 163.293 218.108 162.853 218.108ZM164.185 214.448V214.16C164.185 213.8 164.061 213.512 163.813 213.296C163.573 213.072 163.253 212.96 162.853 212.96C162.453 212.96 162.129 213.072 161.881 213.296C161.641 213.512 161.521 213.8 161.521 214.16V214.448H164.185ZM169.588 213.056C169.124 213.056 168.744 213.188 168.448 213.452C168.152 213.708 168.004 214.024 168.004 214.4V217.244C168.004 217.548 167.892 217.768 167.668 217.904C167.452 218.04 167.116 218.108 166.66 218.108V212.96C166.66 212.248 167.088 211.892 167.944 211.892V212.612C167.832 212.74 167.74 212.868 167.668 212.996L167.728 213.044C168.248 212.276 168.884 211.892 169.636 211.892C169.956 211.892 170.2 211.976 170.368 212.144C170.536 212.304 170.62 212.508 170.62 212.756C170.62 212.94 170.572 213.104 170.476 213.248C170.244 213.12 169.948 213.056 169.588 213.056ZM178.02 218.108C177.316 218.108 176.704 218.016 176.184 217.832C175.664 217.648 175.264 217.396 174.984 217.076C174.712 216.756 174.576 216.388 174.576 215.972C174.576 215.324 174.984 215 175.8 215C175.816 215.632 176.016 216.112 176.4 216.44C176.792 216.768 177.34 216.932 178.044 216.932C178.66 216.932 179.136 216.828 179.472 216.62C179.808 216.412 179.976 216.112 179.976 215.72C179.976 215.472 179.912 215.272 179.784 215.12C179.656 214.96 179.44 214.82 179.136 214.7C178.832 214.572 178.392 214.444 177.816 214.316C177.048 214.148 176.44 213.952 175.992 213.728C175.552 213.504 175.232 213.236 175.032 212.924C174.832 212.612 174.732 212.224 174.732 211.76C174.732 211.312 174.864 210.916 175.128 210.572C175.392 210.228 175.764 209.964 176.244 209.78C176.724 209.588 177.28 209.492 177.912 209.492C178.512 209.492 179.052 209.576 179.532 209.744C180.012 209.904 180.388 210.132 180.66 210.428C180.932 210.724 181.068 211.064 181.068 211.448C181.068 212 180.68 212.288 179.904 212.312C179.84 211.736 179.648 211.316 179.328 211.052C179.016 210.788 178.544 210.656 177.912 210.656C177.352 210.656 176.92 210.752 176.616 210.944C176.312 211.136 176.16 211.408 176.16 211.76C176.16 212 176.216 212.2 176.328 212.36C176.448 212.512 176.644 212.648 176.916 212.768C177.188 212.88 177.58 212.992 178.092 213.104C178.908 213.288 179.556 213.496 180.036 213.728C180.516 213.952 180.86 214.224 181.068 214.544C181.284 214.856 181.392 215.248 181.392 215.72C181.392 216.208 181.252 216.632 180.972 216.992C180.7 217.352 180.308 217.628 179.796 217.82C179.292 218.012 178.7 218.108 178.02 218.108ZM187.829 217.04C187.829 217.384 187.721 217.648 187.505 217.832C187.297 218.016 186.977 218.108 186.545 218.108V217.364C186.617 217.276 186.709 217.156 186.821 217.004L186.749 216.956C186.509 217.316 186.213 217.6 185.861 217.808C185.517 218.008 185.125 218.108 184.685 218.108C184.269 218.108 183.893 218.016 183.557 217.832C183.229 217.64 182.973 217.38 182.789 217.052C182.605 216.716 182.513 216.336 182.513 215.912V212.756C182.513 212.452 182.621 212.232 182.837 212.096C183.061 211.96 183.405 211.892 183.869 211.892V215.828C183.869 216.172 183.969 216.444 184.169 216.644C184.369 216.836 184.665 216.932 185.057 216.932C185.481 216.932 185.825 216.804 186.089 216.548C186.353 216.292 186.485 215.972 186.485 215.588V212.756C186.485 212.452 186.593 212.232 186.809 212.096C187.033 211.96 187.373 211.892 187.829 211.892V217.04ZM189.336 212.864C189.336 212.584 189.44 212.352 189.648 212.168C189.856 211.984 190.168 211.892 190.584 211.892V212.552C190.48 212.68 190.404 212.784 190.356 212.864L190.404 212.912C190.652 212.584 190.932 212.332 191.244 212.156C191.556 211.98 191.94 211.892 192.396 211.892C193.068 211.892 193.612 212.088 194.028 212.48C194.452 212.872 194.664 213.388 194.664 214.028V215.972C194.664 216.396 194.56 216.772 194.352 217.1C194.144 217.42 193.856 217.668 193.488 217.844C193.128 218.02 192.716 218.108 192.252 218.108C191.932 218.108 191.612 218.04 191.292 217.904C190.972 217.768 190.7 217.588 190.476 217.364L190.44 217.424C190.488 217.488 190.572 217.572 190.692 217.676V219.56C190.692 220.192 190.24 220.508 189.336 220.508V212.864ZM192 216.932C192.424 216.932 192.748 216.844 192.972 216.668C193.204 216.484 193.32 216.228 193.32 215.9V214.112C193.32 213.768 193.204 213.508 192.972 213.332C192.748 213.148 192.424 213.056 192 213.056C191.616 213.056 191.3 213.152 191.052 213.344C190.804 213.536 190.68 213.772 190.68 214.052V215.948C190.68 216.228 190.8 216.464 191.04 216.656C191.28 216.84 191.6 216.932 192 216.932ZM195.981 212.864C195.981 212.584 196.085 212.352 196.293 212.168C196.501 211.984 196.813 211.892 197.229 211.892V212.552C197.125 212.68 197.049 212.784 197.001 212.864L197.049 212.912C197.297 212.584 197.577 212.332 197.889 212.156C198.201 211.98 198.585 211.892 199.041 211.892C199.713 211.892 200.257 212.088 200.673 212.48C201.097 212.872 201.309 213.388 201.309 214.028V215.972C201.309 216.396 201.205 216.772 200.997 217.1C200.789 217.42 200.501 217.668 200.133 217.844C199.773 218.02 199.361 218.108 198.897 218.108C198.577 218.108 198.257 218.04 197.937 217.904C197.617 217.768 197.345 217.588 197.121 217.364L197.085 217.424C197.133 217.488 197.217 217.572 197.337 217.676V219.56C197.337 220.192 196.885 220.508 195.981 220.508V212.864ZM198.645 216.932C199.069 216.932 199.393 216.844 199.617 216.668C199.849 216.484 199.965 216.228 199.965 215.9V214.112C199.965 213.768 199.849 213.508 199.617 213.332C199.393 213.148 199.069 213.056 198.645 213.056C198.261 213.056 197.945 213.152 197.697 213.344C197.449 213.536 197.325 213.772 197.325 214.052V215.948C197.325 216.228 197.445 216.464 197.685 216.656C197.925 216.84 198.245 216.932 198.645 216.932ZM204.827 218.108C204.315 218.108 203.851 218.016 203.435 217.832C203.027 217.64 202.703 217.38 202.463 217.052C202.231 216.724 202.115 216.352 202.115 215.936V214.16C202.115 213.736 202.231 213.352 202.463 213.008C202.695 212.664 203.015 212.392 203.423 212.192C203.839 211.992 204.307 211.892 204.827 211.892C205.347 211.892 205.811 211.992 206.219 212.192C206.635 212.392 206.959 212.664 207.191 213.008C207.423 213.352 207.539 213.736 207.539 214.16V215.936C207.539 216.352 207.419 216.724 207.179 217.052C206.947 217.38 206.623 217.64 206.207 217.832C205.799 218.016 205.339 218.108 204.827 218.108ZM204.827 216.944C205.251 216.944 205.587 216.848 205.835 216.656C206.083 216.456 206.207 216.188 206.207 215.852V214.22C206.207 213.868 206.083 213.584 205.835 213.368C205.587 213.152 205.251 213.044 204.827 213.044C204.403 213.044 204.067 213.152 203.819 213.368C203.571 213.584 203.447 213.868 203.447 214.22V215.852C203.447 216.188 203.571 216.456 203.819 216.656C204.067 216.848 204.403 216.944 204.827 216.944ZM211.705 213.056C211.241 213.056 210.861 213.188 210.565 213.452C210.269 213.708 210.121 214.024 210.121 214.4V217.244C210.121 217.548 210.009 217.768 209.785 217.904C209.569 218.04 209.233 218.108 208.777 218.108V212.96C208.777 212.248 209.205 211.892 210.061 211.892V212.612C209.949 212.74 209.857 212.868 209.785 212.996L209.845 213.044C210.365 212.276 211.001 211.892 211.753 211.892C212.073 211.892 212.317 211.976 212.485 212.144C212.653 212.304 212.737 212.508 212.737 212.756C212.737 212.94 212.689 213.104 212.593 213.248C212.361 213.12 212.065 213.056 211.705 213.056ZM216.247 218.108C215.623 218.108 215.159 217.928 214.855 217.568C214.559 217.208 214.411 216.744 214.411 216.176V213.02H213.211C213.211 212.676 213.279 212.42 213.415 212.252C213.551 212.084 213.735 212 213.967 212H214.423V210.956C214.423 210.652 214.531 210.432 214.747 210.296C214.971 210.16 215.303 210.092 215.743 210.092V212H217.339C217.339 212.36 217.267 212.62 217.123 212.78C216.979 212.94 216.751 213.02 216.439 213.02H215.755V216.128C215.755 216.416 215.811 216.624 215.923 216.752C216.035 216.872 216.231 216.932 216.511 216.932C216.791 216.932 217.067 216.856 217.339 216.704C217.411 216.768 217.463 216.848 217.495 216.944C217.535 217.04 217.555 217.14 217.555 217.244C217.555 217.468 217.439 217.668 217.207 217.844C216.975 218.02 216.655 218.108 216.247 218.108Z" fill="white"/>
<path d="M51.9674 219.352L45.969 212.972C45.6086 212.589 45.6086 211.967 45.969 211.584L47.2741 210.196C47.6344 209.812 48.2188 209.812 48.5791 210.196L52.6199 214.494L61.2749 205.287C61.6352 204.904 62.2196 204.904 62.5799 205.287L63.885 206.676C64.2453 207.059 64.2453 207.681 63.885 208.064L53.2725 219.353C52.9121 219.736 52.3278 219.736 51.9674 219.352Z" fill="#84FF65"/>
<defs>
<filter id="filter0_f_90_288" x="0" y="173.286" width="200" height="200.714" filterUnits="userSpaceOnUse" color-interpolation-filters="sRGB">
<feFlood flood-opacity="0" result="BackgroundImageFix"/>
<feBlend mode="normal" in="SourceGraphic" in2="BackgroundImageFix" result="shape"/>
<feGaussianBlur stdDeviation="25" result="effect1_foregroundBlur_90_288"/>
</filter>
<filter id="filter1_f_90_288" x="148" y="0.0571289" width="218" height="220.857" filterUnits="userSpaceOnUse" color-interpolation-filters="sRGB">
<feFlood flood-opacity="0" result="BackgroundImageFix"/>
<feBlend mode="normal" in="SourceGraphic" in2="BackgroundImageFix" result="shape"/>
<feGaussianBlur stdDeviation="25" result="effect1_foregroundBlur_90_288"/>
</filter>
<filter id="filter2_b_90_288" x="-17" y="-8" width="383" height="382" filterUnits="userSpaceOnUse" color-interpolation-filters="sRGB">
<feFlood flood-opacity="0" result="BackgroundImageFix"/>
<feGaussianBlur in="BackgroundImageFix" stdDeviation="25"/>
<feComposite in2="SourceAlpha" operator="in" result="effect1_backgroundBlur_90_288"/>
<feBlend mode="normal" in="SourceGraphic" in2="effect1_backgroundBlur_90_288" result="shape"/>
</filter>
</defs>
</svg>
