<svg width="369" height="370" viewBox="0 0 369 370" fill="none" xmlns="http://www.w3.org/2000/svg">
<g filter="url(#filter0_f_90_287)">
<ellipse cx="269" cy="100.572" rx="50" ry="50.5396" fill="#910A67"/>
</g>
<g filter="url(#filter1_f_90_287)">
<ellipse cx="109" cy="258.647" rx="59" ry="60.6475" fill="#3C0753"/>
</g>
<g filter="url(#filter2_b_90_287)">
<rect x="36" y="42" width="284" height="280.957" rx="16" fill="white" fill-opacity="0.24"/>
</g>
<path d="M63.5348 256.617H60.0788C58.4148 256.617 57.0921 256.019 56.1108 254.825C55.1294 253.587 54.6388 251.966 54.6388 249.961H67.6948C68.6761 249.961 69.5081 250.281 70.1908 250.921C70.9161 251.561 71.2788 252.35 71.2788 253.289V289.449C71.2788 291.326 70.6174 292.777 69.2948 293.801C67.9721 294.825 66.0521 295.337 63.5348 295.337V256.617ZM96.3328 249.385C99.9594 249.385 103.138 250.11 105.869 251.561C108.642 252.969 110.775 254.974 112.269 257.577C113.805 260.179 114.573 263.187 114.573 266.601C114.573 268.777 114.103 271.017 113.165 273.321C112.226 275.582 110.903 277.63 109.197 279.465L96.4608 293.481C95.8634 294.163 95.2661 294.633 94.6688 294.889C94.1141 295.187 93.4314 295.337 92.6208 295.337C90.6581 295.337 88.9728 294.526 87.5648 292.905L96.8448 283.049C97.9541 282.835 99.1488 282.43 100.429 281.833L100.109 281.193C98.2741 282.003 96.4181 282.409 94.5408 282.409C91.2554 282.409 88.3541 281.769 85.8368 280.489C83.3621 279.166 81.4421 277.31 80.0768 274.921C78.7114 272.531 78.0288 269.758 78.0288 266.601C78.0288 263.187 78.7754 260.179 80.2688 257.577C81.8048 254.974 83.9594 252.969 86.7328 251.561C89.5061 250.11 92.7061 249.385 96.3328 249.385ZM96.3328 256.041C93.1328 256.041 90.5301 257.022 88.5248 258.985C86.5621 260.905 85.5808 263.443 85.5808 266.601C85.5808 269.758 86.5621 272.318 88.5248 274.281C90.4874 276.243 93.0901 277.225 96.3328 277.225C99.4901 277.225 102.05 276.243 104.013 274.281C106.018 272.318 107.021 269.758 107.021 266.601C107.021 263.486 106.018 260.947 104.013 258.985C102.05 257.022 99.4901 256.041 96.3328 256.041ZM172.696 282.601C172.696 286.398 171.16 289.427 168.088 291.689C165.059 293.95 160.963 295.166 155.8 295.337V298.729C155.8 299.795 155.523 300.606 154.968 301.161C154.414 301.715 153.624 301.993 152.6 301.993V295.273C147.566 294.974 143.598 293.801 140.696 291.753C137.795 289.705 136.344 287.102 136.344 283.945C136.344 280.489 138.52 278.761 142.872 278.761C142.958 281.79 143.832 284.158 145.496 285.865C147.16 287.571 149.528 288.595 152.6 288.937V274.857C148.803 273.961 145.774 272.937 143.512 271.785C141.294 270.633 139.672 269.225 138.648 267.561C137.667 265.897 137.176 263.87 137.176 261.481C137.176 258.025 138.563 255.209 141.336 253.033C144.152 250.857 147.907 249.662 152.6 249.449V245.929C152.6 244.905 152.878 244.115 153.432 243.561C153.987 243.006 154.776 242.729 155.8 242.729V249.449C158.744 249.577 161.347 250.11 163.608 251.049C165.912 251.945 167.704 253.161 168.984 254.697C170.307 256.19 170.968 257.897 170.968 259.817C170.968 262.761 168.899 264.297 164.76 264.425C164.419 261.609 163.544 259.497 162.136 258.089C160.728 256.681 158.616 255.87 155.8 255.657V268.777C159.982 269.758 163.288 270.846 165.72 272.041C168.195 273.235 169.966 274.686 171.032 276.393C172.142 278.057 172.696 280.126 172.696 282.601ZM144.792 261.481C144.792 263.187 145.347 264.531 146.456 265.513C147.608 266.451 149.656 267.305 152.6 268.073V255.657C150.083 255.827 148.142 256.425 146.776 257.449C145.454 258.43 144.792 259.774 144.792 261.481ZM155.8 289.065C158.83 288.937 161.134 288.339 162.712 287.273C164.334 286.163 165.144 284.606 165.144 282.601C165.144 281.406 164.867 280.425 164.312 279.657C163.758 278.846 162.819 278.142 161.496 277.545C160.174 276.905 158.275 276.265 155.8 275.625V289.065Z" fill="white"/>
<path d="M77.9612 89.324C75.8972 89.324 74.0732 88.916 72.4892 88.1C70.9052 87.284 69.6692 86.132 68.7812 84.644C67.9172 83.156 67.4852 81.452 67.4852 79.532C67.4852 78.284 67.7492 77.012 68.2772 75.716C68.8292 74.396 69.5732 73.208 70.5092 72.152L77.3852 64.556C77.7452 64.148 78.0932 63.872 78.4292 63.728C78.7892 63.56 79.2092 63.476 79.6892 63.476C80.9612 63.476 82.0172 63.98 82.8572 64.988L78.1772 70.28C77.8892 70.328 77.5292 70.424 77.0972 70.568C76.6652 70.712 76.3172 70.856 76.0532 71L76.2692 71.432C76.7012 71.216 77.2412 71.048 77.8892 70.928C78.5372 70.784 79.1132 70.712 79.6172 70.712C81.2972 70.712 82.8092 71.096 84.1532 71.864C85.4972 72.632 86.5532 73.688 87.3212 75.032C88.0892 76.376 88.4732 77.876 88.4732 79.532C88.4732 81.452 88.0292 83.156 87.1412 84.644C86.2532 86.108 85.0172 87.26 83.4332 88.1C81.8492 88.916 80.0252 89.324 77.9612 89.324ZM77.9612 85.184C79.6892 85.184 81.0932 84.668 82.1732 83.636C83.2532 82.58 83.7932 81.212 83.7932 79.532C83.7932 77.852 83.2532 76.484 82.1732 75.428C81.0932 74.372 79.6892 73.844 77.9612 73.844C76.2572 73.844 74.8652 74.372 73.7852 75.428C72.7292 76.484 72.2012 77.852 72.2012 79.532C72.2012 81.212 72.7292 82.58 73.7852 83.636C74.8652 84.668 76.2572 85.184 77.9612 85.184ZM101.253 67.076C101.253 65.972 101.685 65.096 102.549 64.448C103.413 63.776 104.589 63.44 106.077 63.44L113.637 82.448L112.809 84.716L113.169 84.86L121.269 63.476C122.733 63.476 123.897 63.812 124.761 64.484C125.649 65.132 126.093 66.008 126.093 67.112V89.324C122.949 89.324 121.377 88.148 121.377 85.796V74.276L122.601 70.964L122.205 70.82L115.617 88.028C115.449 88.412 115.185 88.724 114.825 88.964C114.489 89.204 114.105 89.324 113.673 89.324C113.241 89.324 112.845 89.204 112.485 88.964C112.149 88.724 111.897 88.4 111.729 87.992L105.141 70.784L104.745 70.928L105.933 74.24V85.796C105.933 88.148 104.373 89.324 101.253 89.324V67.076ZM140.263 89.324C138.295 89.324 136.495 88.94 134.863 88.172C133.231 87.38 131.935 86.312 130.975 84.968C130.039 83.624 129.571 82.16 129.571 80.576V72.188C129.571 70.604 130.039 69.152 130.975 67.832C131.935 66.488 133.231 65.432 134.863 64.664C136.495 63.872 138.295 63.476 140.263 63.476C142.231 63.476 144.031 63.872 145.663 64.664C147.319 65.432 148.615 66.488 149.551 67.832C150.511 69.152 150.991 70.604 150.991 72.188V80.576C150.991 82.16 150.511 83.624 149.551 84.968C148.615 86.312 147.319 87.38 145.663 88.172C144.031 88.94 142.231 89.324 140.263 89.324ZM140.263 85.112C142.063 85.112 143.503 84.692 144.583 83.852C145.663 82.988 146.203 81.872 146.203 80.504V72.296C146.203 70.904 145.663 69.788 144.583 68.948C143.503 68.084 142.063 67.652 140.263 67.652C138.487 67.652 137.059 68.084 135.979 68.948C134.899 69.788 134.359 70.904 134.359 72.296V80.504C134.359 81.872 134.899 82.988 135.979 83.852C137.059 84.692 138.487 85.112 140.263 85.112ZM154.479 67.292C154.479 66.116 154.875 65.192 155.667 64.52C156.459 63.824 157.527 63.476 158.871 63.476L171.039 82.484L171.399 82.196L169.923 79.748V63.476C171.483 63.476 172.659 63.776 173.451 64.376C174.267 64.976 174.675 65.864 174.675 67.04V86.048C174.675 86.936 174.291 87.704 173.523 88.352C172.779 89 171.915 89.324 170.931 89.324L158.115 69.272L157.755 69.596L159.231 72.044V85.76C159.231 86.936 158.823 87.824 158.007 88.424C157.215 89.024 156.039 89.324 154.479 89.324V67.292ZM185.524 67.976H176.848C176.848 65.192 178.108 63.8 180.628 63.8H199.024C199.024 66.584 197.752 67.976 195.208 67.976H190.348V85.76C190.348 86.912 189.94 87.8 189.124 88.424C188.308 89.024 187.108 89.324 185.524 89.324V67.976ZM202.116 67.04C202.116 65.888 202.524 65.012 203.34 64.412C204.156 63.788 205.356 63.476 206.94 63.476V74.204H217.704V67.04C217.704 65.864 218.112 64.976 218.928 64.376C219.768 63.776 220.968 63.476 222.528 63.476V85.76C222.528 86.912 222.108 87.8 221.268 88.424C220.452 89.024 219.264 89.324 217.704 89.324V78.38H206.94V85.76C206.94 86.912 206.52 87.8 205.68 88.424C204.864 89.024 203.676 89.324 202.116 89.324V67.04ZM234.069 89.324C231.765 89.324 229.905 88.916 228.489 88.1C227.097 87.26 226.389 86.144 226.365 84.752C226.365 84.152 226.605 83.648 227.085 83.24C227.589 82.832 228.381 82.616 229.461 82.592C229.677 83.648 230.181 84.464 230.973 85.04C231.765 85.592 232.725 85.868 233.853 85.868C235.077 85.868 236.037 85.712 236.733 85.4C237.429 85.088 237.777 84.62 237.777 83.996C237.777 83.42 237.489 82.94 236.913 82.556C236.361 82.172 235.257 81.788 233.601 81.404C231.801 80.972 230.397 80.54 229.389 80.108C228.405 79.676 227.673 79.124 227.193 78.452C226.713 77.78 226.473 76.892 226.473 75.788C226.473 74.252 227.121 73.016 228.417 72.08C229.713 71.144 231.489 70.676 233.745 70.676C235.929 70.676 237.741 71.072 239.181 71.864C240.621 72.632 241.341 73.664 241.341 74.96C241.341 75.608 241.101 76.088 240.621 76.4C240.141 76.712 239.349 76.88 238.245 76.904C238.005 75.944 237.549 75.224 236.877 74.744C236.205 74.264 235.257 74.024 234.033 74.024C233.121 74.024 232.329 74.18 231.657 74.492C231.009 74.804 230.685 75.212 230.685 75.716C230.685 76.244 230.961 76.652 231.513 76.94C232.065 77.228 233.025 77.516 234.393 77.804C237.081 78.38 239.025 79.148 240.225 80.108C241.449 81.068 242.061 82.376 242.061 84.032C242.061 85.64 241.341 86.924 239.901 87.884C238.485 88.844 236.541 89.324 234.069 89.324Z" fill="black"/>
<path d="M204.601 305.085C203.065 305.085 201.825 304.813 200.881 304.269C199.953 303.709 199.481 302.965 199.465 302.037C199.465 301.637 199.625 301.301 199.945 301.029C200.281 300.757 200.809 300.613 201.529 300.597C201.673 301.301 202.009 301.845 202.537 302.229C203.065 302.597 203.705 302.781 204.457 302.781C205.273 302.781 205.913 302.677 206.377 302.469C206.841 302.261 207.073 301.949 207.073 301.533C207.073 301.149 206.881 300.829 206.497 300.573C206.129 300.317 205.393 300.061 204.289 299.805C203.089 299.517 202.153 299.229 201.48 298.941C200.825 298.653 200.337 298.285 200.017 297.837C199.697 297.389 199.537 296.797 199.537 296.061C199.537 295.037 199.969 294.213 200.833 293.589C201.697 292.965 202.881 292.653 204.385 292.653C205.841 292.653 207.049 292.917 208.009 293.445C208.969 293.957 209.449 294.645 209.449 295.509C209.449 295.941 209.289 296.261 208.969 296.469C208.649 296.677 208.121 296.789 207.385 296.805C207.225 296.165 206.921 295.685 206.473 295.365C206.025 295.045 205.393 294.885 204.577 294.885C203.969 294.885 203.441 294.989 202.993 295.197C202.561 295.405 202.345 295.677 202.345 296.013C202.345 296.365 202.529 296.637 202.897 296.829C203.265 297.021 203.905 297.213 204.817 297.405C206.609 297.789 207.905 298.301 208.705 298.941C209.521 299.581 209.929 300.453 209.929 301.557C209.929 302.629 209.449 303.485 208.489 304.125C207.545 304.765 206.249 305.085 204.601 305.085ZM215.455 305.085C214.639 305.085 213.887 304.925 213.199 304.605C212.527 304.285 211.983 303.829 211.567 303.237C211.167 302.629 210.967 301.909 210.967 301.077C210.967 300.245 211.183 299.525 211.615 298.917C212.047 298.293 212.631 297.821 213.367 297.501C214.119 297.165 214.943 296.997 215.839 296.997C216.575 296.997 217.231 297.117 217.807 297.357C218.399 297.581 218.943 297.925 219.439 298.389L219.559 298.269C219.415 298.125 219.167 297.909 218.815 297.621V297.141C218.815 296.485 218.583 295.965 218.119 295.581C217.655 295.197 217.007 295.005 216.175 295.005C214.687 295.005 213.591 295.549 212.887 296.637C212.535 296.525 212.239 296.349 211.999 296.109C211.759 295.853 211.639 295.581 211.639 295.293C211.639 294.813 211.855 294.373 212.287 293.973C212.719 293.573 213.303 293.253 214.039 293.013C214.775 292.773 215.575 292.653 216.439 292.653C218.135 292.653 219.447 293.053 220.375 293.853C221.303 294.637 221.767 295.709 221.767 297.069V303.069C221.767 303.773 221.543 304.285 221.095 304.605C220.647 304.925 219.943 305.085 218.983 305.085V304.101C219.255 303.829 219.439 303.629 219.535 303.501L219.439 303.381C218.911 303.941 218.343 304.365 217.735 304.653C217.143 304.941 216.383 305.085 215.455 305.085ZM216.223 302.901C217.055 302.901 217.703 302.741 218.167 302.421C218.631 302.101 218.863 301.645 218.863 301.053C218.863 300.477 218.623 300.021 218.143 299.685C217.679 299.349 217.047 299.181 216.247 299.181C215.511 299.181 214.927 299.349 214.495 299.685C214.079 300.005 213.871 300.461 213.871 301.053C213.871 301.661 214.079 302.125 214.495 302.445C214.911 302.749 215.487 302.901 216.223 302.901ZM228.425 305.085C228.041 305.085 227.705 304.997 227.417 304.821C227.145 304.645 226.953 304.405 226.841 304.101L222.521 292.893C222.633 292.829 222.825 292.773 223.097 292.725C223.385 292.677 223.617 292.653 223.793 292.653C224.257 292.653 224.673 292.749 225.041 292.941C225.425 293.133 225.681 293.413 225.809 293.781L228.281 301.269L227.873 302.397L228.065 302.445L231.041 293.781C231.169 293.413 231.417 293.133 231.785 292.941C232.169 292.749 232.593 292.653 233.057 292.653C233.233 292.653 233.457 292.677 233.729 292.725C234.017 292.773 234.217 292.829 234.329 292.893L230.009 304.101C229.897 304.405 229.697 304.645 229.409 304.821C229.137 304.997 228.809 305.085 228.425 305.085ZM240.328 305.085C239.336 305.085 238.432 304.893 237.616 304.509C236.8 304.109 236.152 303.573 235.672 302.901C235.192 302.213 234.952 301.445 234.952 300.597V297.405C234.952 296.509 235.2 295.701 235.696 294.981C236.192 294.261 236.848 293.693 237.664 293.277C238.496 292.861 239.392 292.653 240.352 292.653C241.296 292.653 242.16 292.853 242.944 293.253C243.744 293.637 244.376 294.181 244.84 294.885C245.304 295.573 245.536 296.365 245.536 297.261V298.605C245.536 298.957 245.4 299.253 245.128 299.493C244.872 299.733 244.544 299.853 244.144 299.853H237.856V300.381C237.856 301.069 238.064 301.629 238.48 302.061C238.896 302.493 239.52 302.709 240.352 302.709C241.152 302.709 241.744 302.533 242.128 302.181C242.528 301.829 242.728 301.373 242.728 300.813C243.016 300.781 243.216 300.765 243.328 300.765C243.92 300.765 244.384 300.901 244.72 301.173C245.056 301.429 245.224 301.797 245.224 302.277C245.224 302.741 245.008 303.189 244.576 303.621C244.144 304.053 243.552 304.405 242.8 304.677C242.048 304.949 241.224 305.085 240.328 305.085ZM242.824 297.717V297.261C242.824 296.589 242.592 296.045 242.128 295.629C241.664 295.213 241.064 295.005 240.328 295.005C239.592 295.005 238.992 295.213 238.528 295.629C238.08 296.029 237.856 296.573 237.856 297.261V297.717H242.824ZM260.129 305.085C258.913 305.085 257.801 304.893 256.793 304.509C255.785 304.109 254.985 303.565 254.393 302.877C253.817 302.189 253.529 301.429 253.529 300.597C253.529 299.893 253.729 299.381 254.129 299.061C254.529 298.741 255.161 298.581 256.025 298.581L256.529 298.605C256.481 298.861 256.457 299.181 256.457 299.565C256.457 300.413 256.785 301.077 257.441 301.557C258.097 302.037 258.993 302.277 260.129 302.277C261.313 302.277 262.217 301.973 262.841 301.365C263.481 300.741 263.801 299.861 263.801 298.725C263.801 297.653 263.473 296.821 262.817 296.229C262.161 295.637 261.249 295.341 260.081 295.341C258.801 295.341 257.713 295.677 256.817 296.349C256.417 296.637 256.001 296.781 255.569 296.781C255.137 296.781 254.769 296.653 254.465 296.397C254.161 296.125 254.009 295.781 254.009 295.365C254.009 295.253 254.017 295.165 254.033 295.101L254.993 289.221C255.057 288.837 255.217 288.549 255.473 288.357C255.745 288.165 256.097 288.069 256.529 288.069H266.177C266.177 289.893 265.433 290.805 263.945 290.805H257.465L257.033 293.373C256.633 293.645 256.305 293.917 256.049 294.189L256.169 294.333C256.777 293.821 257.505 293.413 258.353 293.109C259.217 292.805 260.065 292.653 260.897 292.653C262.113 292.653 263.169 292.901 264.065 293.397C264.977 293.893 265.673 294.597 266.153 295.509C266.649 296.421 266.897 297.493 266.897 298.725C266.897 300.021 266.625 301.149 266.081 302.109C265.537 303.069 264.753 303.805 263.729 304.317C262.721 304.829 261.521 305.085 260.129 305.085ZM275.821 305.085C274.573 305.085 273.429 304.845 272.389 304.365C271.365 303.885 270.557 303.229 269.965 302.397C269.373 301.549 269.077 300.621 269.077 299.613V293.325C269.077 292.317 269.373 291.397 269.965 290.565C270.557 289.717 271.365 289.053 272.389 288.573C273.429 288.093 274.573 287.853 275.821 287.853C277.069 287.853 278.205 288.101 279.229 288.597C280.269 289.077 281.085 289.733 281.677 290.565C282.285 291.397 282.589 292.317 282.589 293.325V299.613C282.589 300.621 282.285 301.541 281.677 302.373C281.085 303.205 280.269 303.869 279.229 304.365C278.205 304.845 277.069 305.085 275.821 305.085ZM275.821 302.277C276.909 302.277 277.773 302.029 278.413 301.533C279.053 301.021 279.373 300.349 279.373 299.517V293.421C279.373 292.589 279.053 291.925 278.413 291.429C277.773 290.917 276.909 290.661 275.821 290.661C274.733 290.661 273.869 290.917 273.229 291.429C272.589 291.925 272.269 292.589 272.269 293.421V299.517C272.269 300.349 272.589 301.021 273.229 301.533C273.869 302.029 274.733 302.277 275.821 302.277ZM303.799 288.237C303.959 287.901 304.199 287.645 304.519 287.469C304.855 287.277 305.223 287.181 305.623 287.181C306.279 287.181 306.871 287.389 307.399 287.805L298.999 304.677C298.823 305.013 298.575 305.269 298.255 305.445C297.935 305.637 297.575 305.733 297.175 305.733C296.551 305.733 295.959 305.517 295.399 305.085L303.799 288.237ZM295.231 297.885C294.447 297.885 293.727 297.733 293.071 297.429C292.415 297.109 291.895 296.677 291.511 296.133C291.127 295.589 290.935 294.997 290.935 294.357V291.381C290.935 290.741 291.119 290.149 291.487 289.605C291.871 289.061 292.391 288.637 293.047 288.333C293.703 288.013 294.431 287.853 295.231 287.853C296.031 287.853 296.751 288.013 297.391 288.333C298.047 288.637 298.559 289.061 298.927 289.605C299.311 290.133 299.503 290.725 299.503 291.381V294.357C299.503 294.997 299.311 295.589 298.927 296.133C298.559 296.677 298.047 297.109 297.391 297.429C296.735 297.733 296.015 297.885 295.231 297.885ZM295.231 295.389C295.647 295.389 295.967 295.285 296.191 295.077C296.415 294.853 296.527 294.581 296.527 294.261V291.477C296.527 291.157 296.407 290.893 296.167 290.685C295.943 290.461 295.631 290.349 295.231 290.349C294.815 290.349 294.487 290.461 294.247 290.685C294.007 290.893 293.887 291.157 293.887 291.477V294.261C293.887 294.581 293.999 294.853 294.223 295.077C294.463 295.285 294.799 295.389 295.231 295.389ZM307.519 305.085C306.719 305.085 305.991 304.925 305.335 304.605C304.679 304.285 304.159 303.861 303.775 303.333C303.407 302.789 303.223 302.197 303.223 301.557V298.581C303.223 297.941 303.407 297.349 303.775 296.805C304.159 296.261 304.679 295.837 305.335 295.533C305.991 295.213 306.719 295.053 307.519 295.053C308.319 295.053 309.039 295.213 309.679 295.533C310.335 295.837 310.847 296.261 311.215 296.805C311.583 297.333 311.767 297.925 311.767 298.581V301.557C311.767 302.197 311.575 302.789 311.191 303.333C310.823 303.861 310.311 304.285 309.655 304.605C309.015 304.925 308.303 305.085 307.519 305.085ZM307.663 302.517C308.079 302.517 308.415 302.413 308.671 302.205C308.927 301.981 309.055 301.709 309.055 301.389V298.749C309.055 298.429 308.919 298.165 308.647 297.957C308.391 297.733 308.063 297.621 307.663 297.621C307.231 297.621 306.879 297.733 306.607 297.957C306.351 298.165 306.223 298.429 306.223 298.749V301.389C306.223 301.693 306.351 301.957 306.607 302.181C306.879 302.405 307.231 302.517 307.663 302.517Z" fill="#EEC800"/>
<path d="M92.0967 132.295H87.8687C87.6447 132.295 87.4674 132.235 87.3367 132.113C87.206 131.992 87.1407 131.833 87.1407 131.637C87.1407 131.441 87.2014 131.269 87.3227 131.119L92.3207 125.057C92.386 124.973 92.484 124.908 92.6147 124.861C92.7454 124.815 92.89 124.791 93.0487 124.791C93.2727 124.791 93.45 124.861 93.5807 125.001C93.7207 125.141 93.7907 125.319 93.7907 125.533V130.839H95.4147C95.4147 131.343 95.326 131.712 95.1487 131.945C94.9714 132.179 94.6914 132.295 94.3087 132.295H93.7907V133.709C93.7907 134.101 93.6507 134.391 93.3707 134.577C93.1 134.755 92.6754 134.843 92.0967 134.843V132.295ZM92.1947 130.839V127.605L92.6707 126.961L92.5727 126.891L89.3807 130.839H92.1947ZM96.7218 126.093C96.7218 125.673 96.8665 125.351 97.1558 125.127C97.4545 124.903 97.8698 124.791 98.4018 124.791V129.383L103.232 124.791C103.447 124.95 103.619 125.123 103.75 125.309C103.881 125.496 103.946 125.659 103.946 125.799C103.946 125.93 103.899 126.065 103.806 126.205C103.713 126.345 103.582 126.495 103.414 126.653L100.446 129.439L104.422 134.325C104.151 134.671 103.82 134.843 103.428 134.843C103.008 134.843 102.667 134.685 102.406 134.367L99.2838 130.503L98.4018 131.329V133.611C98.4018 134.031 98.2665 134.344 97.9958 134.549C97.7252 134.745 97.3005 134.843 96.7218 134.843V126.093ZM110.488 124.973C110.582 124.787 110.717 124.642 110.894 124.539C111.072 124.437 111.268 124.385 111.482 124.385C111.8 124.385 112.108 124.493 112.406 124.707L107.45 134.647C107.357 134.834 107.222 134.974 107.044 135.067C106.876 135.17 106.685 135.221 106.47 135.221C106.153 135.221 105.845 135.109 105.546 134.885L110.488 124.973ZM113.853 125.687C113.853 125.473 113.932 125.291 114.091 125.141C114.259 124.992 114.464 124.917 114.707 124.917H121.007C121.007 125.421 120.913 125.79 120.727 126.023C120.549 126.257 120.265 126.373 119.873 126.373H115.533V128.977H119.327C119.327 129.481 119.233 129.85 119.047 130.083C118.869 130.317 118.585 130.433 118.193 130.433H115.533V133.597C115.533 134.036 115.397 134.353 115.127 134.549C114.865 134.745 114.441 134.843 113.853 134.843V125.687ZM122.384 126.079C122.384 125.659 122.524 125.342 122.804 125.127C123.093 124.903 123.513 124.791 124.064 124.791V129.047H128.516V126.079C128.516 125.659 128.661 125.342 128.95 125.127C129.239 124.903 129.659 124.791 130.21 124.791V133.555C130.21 133.966 130.065 134.283 129.776 134.507C129.487 134.731 129.067 134.843 128.516 134.843V130.517H124.064V133.555C124.064 133.975 123.919 134.297 123.63 134.521C123.35 134.736 122.935 134.843 122.384 134.843V126.079ZM132.808 134.717C132.566 134.717 132.36 134.643 132.192 134.493C132.034 134.344 131.954 134.157 131.954 133.933V125.687C131.954 125.473 132.034 125.291 132.192 125.141C132.36 124.992 132.566 124.917 132.808 124.917H135.972C136.784 124.917 137.503 125.071 138.128 125.379C138.763 125.687 139.253 126.121 139.598 126.681C139.944 127.241 140.116 127.885 140.116 128.613V130.979C140.116 131.707 139.939 132.356 139.584 132.925C139.239 133.485 138.749 133.924 138.114 134.241C137.489 134.559 136.775 134.717 135.972 134.717H132.808ZM135.832 133.261C136.663 133.261 137.302 133.065 137.75 132.673C138.208 132.281 138.436 131.726 138.436 131.007V128.599C138.436 127.881 138.212 127.33 137.764 126.947C137.316 126.565 136.672 126.373 135.832 126.373H133.634V133.261H135.832ZM146.295 124.973C146.388 124.787 146.524 124.642 146.701 124.539C146.878 124.437 147.074 124.385 147.289 124.385C147.606 124.385 147.914 124.493 148.213 124.707L143.257 134.647C143.164 134.834 143.028 134.974 142.851 135.067C142.683 135.17 142.492 135.221 142.277 135.221C141.96 135.221 141.652 135.109 141.353 134.885L146.295 124.973ZM149.659 126.079C149.659 125.659 149.799 125.342 150.079 125.127C150.369 124.903 150.789 124.791 151.339 124.791V129.047H155.791V126.079C155.791 125.659 155.936 125.342 156.225 125.127C156.515 124.903 156.935 124.791 157.485 124.791V133.555C157.485 133.966 157.341 134.283 157.051 134.507C156.762 134.731 156.342 134.843 155.791 134.843V130.517H151.339V133.555C151.339 133.975 151.195 134.297 150.905 134.521C150.625 134.736 150.21 134.843 149.659 134.843V126.079ZM160.084 134.717C159.841 134.717 159.636 134.643 159.468 134.493C159.309 134.344 159.23 134.157 159.23 133.933V125.687C159.23 125.473 159.309 125.291 159.468 125.141C159.636 124.992 159.841 124.917 160.084 124.917H163.248C164.06 124.917 164.778 125.071 165.404 125.379C166.038 125.687 166.528 126.121 166.874 126.681C167.219 127.241 167.392 127.885 167.392 128.613V130.979C167.392 131.707 167.214 132.356 166.86 132.925C166.514 133.485 166.024 133.924 165.39 134.241C164.764 134.559 164.05 134.717 163.248 134.717H160.084ZM163.108 133.261C163.938 133.261 164.578 133.065 165.026 132.673C165.483 132.281 165.712 131.726 165.712 131.007V128.599C165.712 127.881 165.488 127.33 165.04 126.947C164.592 126.565 163.948 126.373 163.108 126.373H160.91V133.261H163.108ZM173.57 124.973C173.664 124.787 173.799 124.642 173.976 124.539C174.154 124.437 174.35 124.385 174.564 124.385C174.882 124.385 175.19 124.493 175.488 124.707L170.532 134.647C170.439 134.834 170.304 134.974 170.126 135.067C169.958 135.17 169.767 135.221 169.552 135.221C169.235 135.221 168.927 135.109 168.628 134.885L173.57 124.973ZM180.659 134.843C179.837 134.843 179.123 134.736 178.517 134.521C177.91 134.307 177.443 134.013 177.117 133.639C176.799 133.266 176.641 132.837 176.641 132.351C176.641 131.595 177.117 131.217 178.069 131.217C178.087 131.955 178.321 132.515 178.769 132.897C179.226 133.28 179.865 133.471 180.687 133.471C181.405 133.471 181.961 133.35 182.353 133.107C182.745 132.865 182.941 132.515 182.941 132.057C182.941 131.768 182.866 131.535 182.717 131.357C182.567 131.171 182.315 131.007 181.961 130.867C181.606 130.718 181.093 130.569 180.421 130.419C179.525 130.223 178.815 129.995 178.293 129.733C177.779 129.472 177.406 129.159 177.173 128.795C176.939 128.431 176.823 127.979 176.823 127.437C176.823 126.915 176.977 126.453 177.285 126.051C177.593 125.65 178.027 125.342 178.587 125.127C179.147 124.903 179.795 124.791 180.533 124.791C181.233 124.791 181.863 124.889 182.423 125.085C182.983 125.272 183.421 125.538 183.739 125.883C184.056 126.229 184.215 126.625 184.215 127.073C184.215 127.717 183.762 128.053 182.857 128.081C182.782 127.409 182.558 126.919 182.185 126.611C181.821 126.303 181.27 126.149 180.533 126.149C179.879 126.149 179.375 126.261 179.021 126.485C178.666 126.709 178.489 127.027 178.489 127.437C178.489 127.717 178.554 127.951 178.685 128.137C178.825 128.315 179.053 128.473 179.371 128.613C179.688 128.744 180.145 128.875 180.743 129.005C181.695 129.22 182.451 129.463 183.011 129.733C183.571 129.995 183.972 130.312 184.215 130.685C184.467 131.049 184.593 131.507 184.593 132.057C184.593 132.627 184.429 133.121 184.103 133.541C183.785 133.961 183.328 134.283 182.731 134.507C182.143 134.731 181.452 134.843 180.659 134.843ZM186.894 134.717C186.652 134.717 186.446 134.643 186.278 134.493C186.12 134.344 186.04 134.157 186.04 133.933V125.687C186.04 125.473 186.12 125.291 186.278 125.141C186.446 124.992 186.652 124.917 186.894 124.917H190.058C190.87 124.917 191.589 125.071 192.214 125.379C192.849 125.687 193.339 126.121 193.684 126.681C194.03 127.241 194.202 127.885 194.202 128.613V130.979C194.202 131.707 194.025 132.356 193.67 132.925C193.325 133.485 192.835 133.924 192.2 134.241C191.575 134.559 190.861 134.717 190.058 134.717H186.894ZM189.918 133.261C190.749 133.261 191.388 133.065 191.836 132.673C192.294 132.281 192.522 131.726 192.522 131.007V128.599C192.522 127.881 192.298 127.33 191.85 126.947C191.402 126.565 190.758 126.373 189.918 126.373H187.72V133.261H189.918ZM206.622 135.137C206.333 135.137 206.067 135.067 205.824 134.927C205.582 134.787 205.386 134.601 205.236 134.367C204.602 134.685 203.916 134.843 203.178 134.843C202.413 134.843 201.713 134.689 201.078 134.381C200.453 134.073 199.958 133.658 199.594 133.135C199.23 132.613 199.048 132.039 199.048 131.413V128.207C199.048 127.582 199.226 127.008 199.58 126.485C199.944 125.963 200.439 125.552 201.064 125.253C201.699 124.945 202.404 124.791 203.178 124.791C203.953 124.791 204.653 124.945 205.278 125.253C205.913 125.552 206.408 125.963 206.762 126.485C207.126 127.008 207.308 127.582 207.308 128.207V131.413C207.308 131.833 207.224 132.235 207.056 132.617C206.898 132.991 206.664 133.317 206.356 133.597C206.487 133.775 206.66 133.91 206.874 134.003C207.098 134.087 207.332 134.12 207.574 134.101C207.574 134.456 207.495 134.717 207.336 134.885C207.187 135.053 206.949 135.137 206.622 135.137ZM205.32 132.295C205.526 132.062 205.628 131.763 205.628 131.399V128.235C205.628 127.638 205.404 127.162 204.956 126.807C204.518 126.443 203.925 126.261 203.178 126.261C202.432 126.261 201.834 126.443 201.386 126.807C200.948 127.162 200.728 127.638 200.728 128.235V130.727C201.092 130.606 201.438 130.545 201.764 130.545C202.52 130.545 203.174 130.676 203.724 130.937C204.284 131.199 204.816 131.651 205.32 132.295ZM203.178 133.387C203.589 133.387 203.99 133.317 204.382 133.177C204 132.627 203.608 132.258 203.206 132.071C202.805 131.885 202.296 131.791 201.68 131.791C201.438 131.791 201.148 131.843 200.812 131.945C200.952 132.384 201.228 132.734 201.638 132.995C202.058 133.257 202.572 133.387 203.178 133.387ZM215.085 133.597C215.085 133.999 214.959 134.307 214.707 134.521C214.464 134.736 214.091 134.843 213.587 134.843V133.975C213.671 133.873 213.778 133.733 213.909 133.555L213.825 133.499C213.545 133.919 213.199 134.251 212.789 134.493C212.387 134.727 211.93 134.843 211.417 134.843C210.931 134.843 210.493 134.736 210.101 134.521C209.718 134.297 209.419 133.994 209.205 133.611C208.99 133.219 208.883 132.776 208.883 132.281V128.599C208.883 128.245 209.009 127.988 209.261 127.829C209.522 127.671 209.923 127.591 210.465 127.591V132.183C210.465 132.585 210.581 132.902 210.815 133.135C211.048 133.359 211.393 133.471 211.851 133.471C212.345 133.471 212.747 133.322 213.055 133.023C213.363 132.725 213.517 132.351 213.517 131.903V128.599C213.517 128.245 213.643 127.988 213.895 127.829C214.156 127.671 214.553 127.591 215.085 127.591V133.597ZM219.167 134.843C218.672 134.843 218.224 134.75 217.823 134.563C217.422 134.377 217.104 134.106 216.871 133.751C216.638 133.397 216.521 132.981 216.521 132.505C216.521 132.02 216.642 131.6 216.885 131.245C217.137 130.881 217.478 130.606 217.907 130.419C218.336 130.223 218.817 130.125 219.349 130.125C220.198 130.125 220.912 130.415 221.491 130.993L221.561 130.923C221.393 130.755 221.258 130.634 221.155 130.559V130.167C221.155 129.757 221.015 129.435 220.735 129.201C220.455 128.959 220.063 128.837 219.559 128.837C219.111 128.837 218.719 128.926 218.383 129.103C218.047 129.271 217.776 129.523 217.571 129.859C217.384 129.794 217.226 129.691 217.095 129.551C216.974 129.411 216.913 129.262 216.913 129.103C216.913 128.833 217.039 128.581 217.291 128.347C217.543 128.114 217.879 127.932 218.299 127.801C218.728 127.661 219.19 127.591 219.685 127.591C220.637 127.591 221.374 127.82 221.897 128.277C222.429 128.725 222.695 129.341 222.695 130.125V133.751C222.695 134.134 222.578 134.414 222.345 134.591C222.112 134.759 221.738 134.843 221.225 134.843V134.241C221.393 134.073 221.505 133.952 221.561 133.877L221.491 133.821C221.192 134.157 220.856 134.414 220.483 134.591C220.119 134.759 219.68 134.843 219.167 134.843ZM219.531 133.667C220.044 133.667 220.446 133.565 220.735 133.359C221.034 133.154 221.183 132.865 221.183 132.491C221.183 132.118 221.034 131.829 220.735 131.623C220.446 131.409 220.049 131.301 219.545 131.301C219.088 131.301 218.724 131.409 218.453 131.623C218.192 131.829 218.061 132.118 218.061 132.491C218.061 132.874 218.192 133.168 218.453 133.373C218.714 133.569 219.074 133.667 219.531 133.667ZM226.588 134.843C225.841 134.843 225.281 134.633 224.908 134.213C224.534 133.793 224.348 133.252 224.348 132.589V125.799C224.348 125.445 224.474 125.188 224.726 125.029C224.987 124.871 225.384 124.791 225.916 124.791V132.533C225.916 132.869 225.986 133.112 226.126 133.261C226.275 133.401 226.513 133.471 226.84 133.471C227.204 133.471 227.535 133.383 227.834 133.205C227.918 133.28 227.983 133.378 228.03 133.499C228.076 133.611 228.1 133.723 228.1 133.835C228.1 134.097 227.964 134.33 227.694 134.535C227.432 134.741 227.064 134.843 226.588 134.843ZM230.485 126.793C230.177 126.793 229.921 126.7 229.715 126.513C229.51 126.317 229.407 126.075 229.407 125.785C229.407 125.496 229.51 125.258 229.715 125.071C229.921 124.885 230.177 124.791 230.485 124.791C230.793 124.791 231.05 124.885 231.255 125.071C231.461 125.258 231.563 125.496 231.563 125.785C231.563 126.075 231.461 126.317 231.255 126.513C231.05 126.7 230.793 126.793 230.485 126.793ZM229.701 128.599C229.701 128.245 229.832 127.988 230.093 127.829C230.355 127.671 230.747 127.591 231.269 127.591V133.835C231.269 134.19 231.139 134.447 230.877 134.605C230.616 134.764 230.224 134.843 229.701 134.843V128.599ZM236.153 134.843C235.425 134.843 234.884 134.633 234.529 134.213C234.184 133.793 234.011 133.252 234.011 132.589V128.907H232.611C232.611 128.506 232.69 128.207 232.849 128.011C233.008 127.815 233.222 127.717 233.493 127.717H234.025V126.499C234.025 126.145 234.151 125.888 234.403 125.729C234.664 125.571 235.052 125.491 235.565 125.491V127.717H237.427C237.427 128.137 237.343 128.441 237.175 128.627C237.007 128.814 236.741 128.907 236.377 128.907H235.579V132.533C235.579 132.869 235.644 133.112 235.775 133.261C235.906 133.401 236.134 133.471 236.461 133.471C236.788 133.471 237.11 133.383 237.427 133.205C237.511 133.28 237.572 133.373 237.609 133.485C237.656 133.597 237.679 133.714 237.679 133.835C237.679 134.097 237.544 134.33 237.273 134.535C237.002 134.741 236.629 134.843 236.153 134.843ZM239.657 137.643C239.321 137.643 239.059 137.531 238.873 137.307C238.686 137.083 238.588 136.757 238.579 136.327C238.84 136.374 239.064 136.397 239.251 136.397C239.624 136.397 239.918 136.29 240.133 136.075C240.357 135.87 240.595 135.483 240.847 134.913L241.099 134.353L238.369 127.717C238.434 127.68 238.537 127.652 238.677 127.633C238.826 127.605 238.952 127.591 239.055 127.591C239.297 127.591 239.517 127.647 239.713 127.759C239.918 127.862 240.058 128.011 240.133 128.207L241.757 132.435L241.547 133.051L241.645 133.093L243.563 128.207C243.647 128.011 243.787 127.862 243.983 127.759C244.179 127.647 244.398 127.591 244.641 127.591C244.743 127.591 244.865 127.605 245.005 127.633C245.154 127.652 245.261 127.68 245.327 127.717L242.191 135.375C241.873 136.141 241.519 136.71 241.127 137.083C240.735 137.457 240.245 137.643 239.657 137.643Z" fill="white"/>
<path d="M52.1325 137.484L45.3075 131.876C44.8975 131.539 44.8975 130.993 45.3075 130.656L46.7924 129.436C47.2024 129.099 47.8673 129.099 48.2773 129.436L52.875 133.214L62.7227 125.122C63.1327 124.785 63.7976 124.785 64.2076 125.122L65.6925 126.342C66.1025 126.679 66.1025 127.225 65.6925 127.562L53.6175 137.485C53.2074 137.821 52.5426 137.821 52.1325 137.484Z" fill="#84FF65"/>
<path d="M86.2428 160.867H83.6148C83.6148 160.483 83.6988 160.183 83.8668 159.967C84.0348 159.743 84.2868 159.631 84.6228 159.631H86.2428V158.251C86.2428 157.883 86.3588 157.619 86.5908 157.459C86.8308 157.299 87.1868 157.219 87.6588 157.219V159.631H90.2748C90.2748 160.023 90.1908 160.327 90.0228 160.543C89.8548 160.759 89.6028 160.867 89.2668 160.867H87.6588V162.271C87.6588 162.959 87.1868 163.303 86.2428 163.303V160.867ZM94.544 163.867C93.904 163.867 93.332 163.771 92.828 163.579C92.324 163.379 91.932 163.103 91.652 162.751C91.372 162.399 91.232 161.999 91.232 161.551C91.232 161.207 91.344 160.955 91.568 160.795C91.792 160.635 92.152 160.555 92.648 160.555C92.624 160.723 92.612 160.895 92.612 161.071C92.612 161.567 92.776 161.947 93.104 162.211C93.432 162.467 93.912 162.595 94.544 162.595C95.824 162.595 96.464 162.183 96.464 161.359C96.464 160.943 96.32 160.627 96.032 160.411C95.744 160.195 95.32 160.087 94.76 160.087H94.352C94.176 160.087 94.028 160.031 93.908 159.919C93.796 159.799 93.74 159.651 93.74 159.475C93.74 159.283 93.796 159.131 93.908 159.019C94.02 158.907 94.168 158.851 94.352 158.851H94.772C95.236 158.851 95.592 158.747 95.84 158.539C96.096 158.331 96.224 158.039 96.224 157.663C96.224 157.295 96.084 157.011 95.804 156.811C95.524 156.611 95.124 156.511 94.604 156.511C94.036 156.511 93.596 156.611 93.284 156.811C92.98 157.011 92.828 157.299 92.828 157.675C92.828 157.827 92.844 157.987 92.876 158.155C92.452 158.171 92.108 158.099 91.844 157.939C91.58 157.771 91.448 157.547 91.448 157.267C91.448 156.875 91.58 156.527 91.844 156.223C92.116 155.919 92.492 155.683 92.972 155.515C93.452 155.339 93.996 155.251 94.604 155.251C95.22 155.251 95.76 155.351 96.224 155.551C96.696 155.751 97.056 156.035 97.304 156.403C97.56 156.763 97.688 157.183 97.688 157.663C97.688 158.439 97.284 159.039 96.476 159.463C96.996 159.687 97.368 159.947 97.592 160.243C97.816 160.531 97.928 160.903 97.928 161.359C97.928 161.863 97.788 162.307 97.508 162.691C97.228 163.067 96.832 163.359 96.32 163.567C95.816 163.767 95.224 163.867 94.544 163.867ZM102.388 163.867C101.78 163.867 101.22 163.751 100.708 163.519C100.204 163.279 99.8043 162.955 99.5083 162.547C99.2123 162.139 99.0643 161.687 99.0643 161.191V157.927C99.0643 157.431 99.2123 156.979 99.5083 156.571C99.8043 156.163 100.204 155.843 100.708 155.611C101.22 155.371 101.78 155.251 102.388 155.251C103.004 155.251 103.564 155.371 104.068 155.611C104.58 155.843 104.98 156.163 105.268 156.571C105.564 156.979 105.712 157.431 105.712 157.927V161.191C105.712 161.687 105.564 162.139 105.268 162.547C104.972 162.955 104.568 163.279 104.056 163.519C103.552 163.751 102.996 163.867 102.388 163.867ZM102.388 162.595C102.956 162.595 103.412 162.463 103.756 162.199C104.1 161.935 104.272 161.583 104.272 161.143V157.963C104.272 157.531 104.1 157.183 103.756 156.919C103.412 156.655 102.956 156.523 102.388 156.523C101.828 156.523 101.376 156.655 101.032 156.919C100.688 157.183 100.516 157.531 100.516 157.963V161.143C100.516 161.583 100.684 161.935 101.02 162.199C101.364 162.463 101.82 162.595 102.388 162.595ZM110.357 163.867C109.749 163.867 109.189 163.751 108.677 163.519C108.173 163.279 107.773 162.955 107.477 162.547C107.181 162.139 107.033 161.687 107.033 161.191V157.927C107.033 157.431 107.181 156.979 107.477 156.571C107.773 156.163 108.173 155.843 108.677 155.611C109.189 155.371 109.749 155.251 110.357 155.251C110.973 155.251 111.533 155.371 112.037 155.611C112.549 155.843 112.949 156.163 113.237 156.571C113.533 156.979 113.681 157.431 113.681 157.927V161.191C113.681 161.687 113.533 162.139 113.237 162.547C112.941 162.955 112.537 163.279 112.025 163.519C111.521 163.751 110.965 163.867 110.357 163.867ZM110.357 162.595C110.925 162.595 111.381 162.463 111.725 162.199C112.069 161.935 112.241 161.583 112.241 161.143V157.963C112.241 157.531 112.069 157.183 111.725 156.919C111.381 156.655 110.925 156.523 110.357 156.523C109.797 156.523 109.345 156.655 109.001 156.919C108.657 157.183 108.485 157.531 108.485 157.963V161.143C108.485 161.583 108.653 161.935 108.989 162.199C109.333 162.463 109.789 162.595 110.357 162.595ZM118.326 163.867C117.718 163.867 117.158 163.751 116.646 163.519C116.142 163.279 115.742 162.955 115.446 162.547C115.15 162.139 115.002 161.687 115.002 161.191V157.927C115.002 157.431 115.15 156.979 115.446 156.571C115.742 156.163 116.142 155.843 116.646 155.611C117.158 155.371 117.718 155.251 118.326 155.251C118.942 155.251 119.502 155.371 120.006 155.611C120.518 155.843 120.918 156.163 121.206 156.571C121.502 156.979 121.65 157.431 121.65 157.927V161.191C121.65 161.687 121.502 162.139 121.206 162.547C120.91 162.955 120.506 163.279 119.994 163.519C119.49 163.751 118.934 163.867 118.326 163.867ZM118.326 162.595C118.894 162.595 119.35 162.463 119.694 162.199C120.038 161.935 120.21 161.583 120.21 161.143V157.963C120.21 157.531 120.038 157.183 119.694 156.919C119.35 156.655 118.894 156.523 118.326 156.523C117.766 156.523 117.314 156.655 116.97 156.919C116.626 157.183 116.454 157.531 116.454 157.963V161.143C116.454 161.583 116.622 161.935 116.958 162.199C117.302 162.463 117.758 162.595 118.326 162.595ZM126.295 163.867C125.687 163.867 125.127 163.751 124.615 163.519C124.111 163.279 123.711 162.955 123.415 162.547C123.119 162.139 122.971 161.687 122.971 161.191V157.927C122.971 157.431 123.119 156.979 123.415 156.571C123.711 156.163 124.111 155.843 124.615 155.611C125.127 155.371 125.687 155.251 126.295 155.251C126.911 155.251 127.471 155.371 127.975 155.611C128.487 155.843 128.887 156.163 129.175 156.571C129.471 156.979 129.619 157.431 129.619 157.927V161.191C129.619 161.687 129.471 162.139 129.175 162.547C128.879 162.955 128.475 163.279 127.963 163.519C127.459 163.751 126.903 163.867 126.295 163.867ZM126.295 162.595C126.863 162.595 127.319 162.463 127.663 162.199C128.007 161.935 128.179 161.583 128.179 161.143V157.963C128.179 157.531 128.007 157.183 127.663 156.919C127.319 156.655 126.863 156.523 126.295 156.523C125.735 156.523 125.283 156.655 124.939 156.919C124.595 157.183 124.423 157.531 124.423 157.963V161.143C124.423 161.583 124.591 161.935 124.927 162.199C125.271 162.463 125.727 162.595 126.295 162.595ZM137.549 163.867C136.853 163.867 136.229 163.735 135.677 163.471C135.133 163.199 134.709 162.827 134.405 162.355C134.101 161.875 133.949 161.331 133.949 160.723V158.359C133.949 157.751 134.097 157.215 134.393 156.751C134.697 156.279 135.117 155.911 135.653 155.647C136.197 155.383 136.813 155.251 137.501 155.251C138.197 155.251 138.813 155.359 139.349 155.575C139.885 155.783 140.301 156.079 140.597 156.463C140.901 156.839 141.053 157.271 141.053 157.759C141.053 158.039 140.961 158.259 140.777 158.419C140.593 158.571 140.345 158.647 140.033 158.647C139.881 158.647 139.737 158.631 139.601 158.599C139.625 158.479 139.637 158.299 139.637 158.059C139.637 157.603 139.437 157.231 139.037 156.943C138.645 156.655 138.133 156.511 137.501 156.511C136.877 156.511 136.369 156.683 135.977 157.027C135.585 157.371 135.389 157.815 135.389 158.359V160.723C135.389 161.275 135.589 161.727 135.989 162.079C136.389 162.423 136.909 162.595 137.549 162.595C138.181 162.595 138.697 162.455 139.097 162.175C139.497 161.887 139.697 161.515 139.697 161.059C139.697 160.835 139.685 160.663 139.661 160.543C139.789 160.511 139.929 160.495 140.081 160.495C140.393 160.495 140.641 160.579 140.825 160.747C141.017 160.915 141.113 161.143 141.113 161.431C141.113 161.903 140.961 162.323 140.657 162.691C140.361 163.059 139.941 163.347 139.397 163.555C138.853 163.763 138.237 163.867 137.549 163.867ZM142.344 156.319C142.344 155.975 142.456 155.711 142.68 155.527C142.912 155.343 143.248 155.251 143.688 155.251V158.383C143.568 158.519 143.472 158.643 143.4 158.755L143.472 158.803C143.728 158.443 144.032 158.163 144.384 157.963C144.744 157.755 145.148 157.651 145.596 157.651C146.012 157.651 146.376 157.743 146.688 157.927C147 158.103 147.24 158.351 147.408 158.671C147.584 158.991 147.672 159.347 147.672 159.739V163.003C147.672 163.307 147.56 163.527 147.336 163.663C147.112 163.799 146.776 163.867 146.328 163.867V159.919C146.328 159.591 146.228 159.327 146.028 159.127C145.836 158.919 145.552 158.815 145.176 158.815C144.76 158.815 144.408 158.947 144.12 159.211C143.832 159.467 143.688 159.783 143.688 160.159V163.003C143.688 163.307 143.576 163.527 143.352 163.663C143.128 163.799 142.792 163.867 142.344 163.867V156.319ZM151.051 163.867C150.627 163.867 150.243 163.787 149.899 163.627C149.555 163.467 149.283 163.235 149.083 162.931C148.883 162.627 148.783 162.271 148.783 161.863C148.783 161.447 148.887 161.087 149.095 160.783C149.311 160.471 149.603 160.235 149.971 160.075C150.339 159.907 150.751 159.823 151.207 159.823C151.935 159.823 152.547 160.071 153.043 160.567L153.103 160.507C152.959 160.363 152.843 160.259 152.755 160.195V159.859C152.755 159.507 152.635 159.231 152.395 159.031C152.155 158.823 151.819 158.719 151.387 158.719C151.003 158.719 150.667 158.795 150.379 158.947C150.091 159.091 149.859 159.307 149.683 159.595C149.523 159.539 149.387 159.451 149.275 159.331C149.171 159.211 149.119 159.083 149.119 158.947C149.119 158.715 149.227 158.499 149.443 158.299C149.659 158.099 149.947 157.943 150.307 157.831C150.675 157.711 151.071 157.651 151.495 157.651C152.311 157.651 152.943 157.847 153.391 158.239C153.847 158.623 154.075 159.151 154.075 159.823V162.931C154.075 163.259 153.975 163.499 153.775 163.651C153.575 163.795 153.255 163.867 152.815 163.867V163.351C152.959 163.207 153.055 163.103 153.103 163.039L153.043 162.991C152.787 163.279 152.499 163.499 152.179 163.651C151.867 163.795 151.491 163.867 151.051 163.867ZM151.363 162.859C151.803 162.859 152.147 162.771 152.395 162.595C152.651 162.419 152.779 162.171 152.779 161.851C152.779 161.531 152.651 161.283 152.395 161.107C152.147 160.923 151.807 160.831 151.375 160.831C150.983 160.831 150.671 160.923 150.439 161.107C150.215 161.283 150.103 161.531 150.103 161.851C150.103 162.179 150.215 162.431 150.439 162.607C150.663 162.775 150.971 162.859 151.363 162.859ZM155.527 158.719C155.527 158.007 155.955 157.651 156.811 157.651V158.383C156.715 158.487 156.623 158.611 156.535 158.755L156.607 158.803C156.839 158.451 157.143 158.171 157.519 157.963C157.903 157.755 158.323 157.651 158.779 157.651C159.195 157.651 159.559 157.743 159.871 157.927C160.183 158.103 160.423 158.351 160.591 158.671C160.767 158.991 160.855 159.347 160.855 159.739V163.003C160.855 163.307 160.743 163.527 160.519 163.663C160.295 163.799 159.959 163.867 159.511 163.867V159.919C159.511 159.591 159.411 159.327 159.211 159.127C159.019 158.919 158.735 158.815 158.359 158.815C157.943 158.815 157.591 158.947 157.303 159.211C157.015 159.467 156.871 159.783 156.871 160.159V163.003C156.871 163.307 156.759 163.527 156.535 163.663C156.319 163.799 155.983 163.867 155.527 163.867V158.719ZM162.266 158.719C162.266 158.007 162.694 157.651 163.55 157.651V158.383C163.454 158.487 163.362 158.611 163.274 158.755L163.346 158.803C163.578 158.451 163.882 158.171 164.258 157.963C164.642 157.755 165.062 157.651 165.518 157.651C165.934 157.651 166.298 157.743 166.61 157.927C166.922 158.103 167.162 158.351 167.33 158.671C167.506 158.991 167.594 159.347 167.594 159.739V163.003C167.594 163.307 167.482 163.527 167.258 163.663C167.034 163.799 166.698 163.867 166.25 163.867V159.919C166.25 159.591 166.15 159.327 165.95 159.127C165.758 158.919 165.474 158.815 165.098 158.815C164.682 158.815 164.33 158.947 164.042 159.211C163.754 159.467 163.61 159.783 163.61 160.159V163.003C163.61 163.307 163.498 163.527 163.274 163.663C163.058 163.799 162.722 163.867 162.266 163.867V158.719ZM171.548 163.867C171.06 163.867 170.612 163.771 170.204 163.579C169.804 163.387 169.488 163.123 169.256 162.787C169.024 162.443 168.908 162.059 168.908 161.635V159.979C168.908 159.539 169.028 159.143 169.268 158.791C169.508 158.439 169.832 158.163 170.24 157.963C170.648 157.755 171.088 157.651 171.56 157.651C172.032 157.651 172.46 157.747 172.844 157.939C173.236 158.131 173.544 158.403 173.768 158.755C174 159.099 174.116 159.487 174.116 159.919V160.627C174.116 160.787 174.056 160.923 173.936 161.035C173.816 161.147 173.664 161.203 173.48 161.203H170.216V161.551C170.216 161.919 170.328 162.215 170.552 162.439C170.784 162.663 171.12 162.775 171.56 162.775C171.992 162.775 172.316 162.683 172.532 162.499C172.748 162.307 172.856 162.055 172.856 161.743C172.904 161.735 172.976 161.731 173.072 161.731C173.344 161.731 173.56 161.795 173.72 161.923C173.888 162.043 173.972 162.215 173.972 162.439C173.972 162.679 173.864 162.911 173.648 163.135C173.432 163.351 173.136 163.527 172.76 163.663C172.392 163.799 171.988 163.867 171.548 163.867ZM172.88 160.207V159.919C172.88 159.559 172.756 159.271 172.508 159.055C172.268 158.831 171.948 158.719 171.548 158.719C171.148 158.719 170.824 158.831 170.576 159.055C170.336 159.271 170.216 159.559 170.216 159.919V160.207H172.88ZM177.24 163.867C176.6 163.867 176.12 163.687 175.8 163.327C175.48 162.967 175.32 162.503 175.32 161.935V156.115C175.32 155.811 175.428 155.591 175.644 155.455C175.868 155.319 176.208 155.251 176.664 155.251V161.887C176.664 162.175 176.724 162.383 176.844 162.511C176.972 162.631 177.176 162.691 177.456 162.691C177.768 162.691 178.052 162.615 178.308 162.463C178.38 162.527 178.436 162.611 178.476 162.715C178.516 162.811 178.536 162.907 178.536 163.003C178.536 163.227 178.42 163.427 178.188 163.603C177.964 163.779 177.648 163.867 177.24 163.867ZM181.833 163.867C181.105 163.867 180.505 163.727 180.033 163.447C179.569 163.167 179.337 162.795 179.337 162.331C179.337 161.899 179.641 161.671 180.249 161.647C180.321 162.031 180.497 162.323 180.777 162.523C181.057 162.715 181.397 162.811 181.797 162.811C182.229 162.811 182.565 162.755 182.805 162.643C183.045 162.523 183.165 162.347 183.165 162.115C183.165 161.891 183.061 161.715 182.853 161.587C182.653 161.451 182.265 161.315 181.689 161.179C181.121 161.051 180.673 160.915 180.345 160.771C180.017 160.627 179.769 160.443 179.601 160.219C179.441 159.995 179.361 159.699 179.361 159.331C179.361 158.835 179.573 158.431 179.997 158.119C180.429 157.807 181.005 157.651 181.725 157.651C182.421 157.651 183.005 157.779 183.477 158.035C183.949 158.291 184.185 158.631 184.185 159.055C184.185 159.263 184.105 159.419 183.945 159.523C183.793 159.627 183.557 159.683 183.237 159.691C183.109 159.011 182.625 158.671 181.785 158.671C181.457 158.671 181.181 158.731 180.957 158.851C180.741 158.971 180.633 159.127 180.633 159.319C180.633 159.519 180.729 159.675 180.921 159.787C181.121 159.891 181.453 159.991 181.917 160.087C182.797 160.271 183.437 160.519 183.837 160.831C184.237 161.143 184.437 161.571 184.437 162.115C184.437 162.651 184.205 163.079 183.741 163.399C183.277 163.711 182.641 163.867 181.833 163.867Z" fill="white"/>
<path d="M51.1325 163.332L44.3075 157.724C43.8975 157.387 43.8975 156.841 44.3075 156.504L45.7924 155.284C46.2024 154.947 46.8673 154.947 47.2773 155.284L51.875 159.062L61.7227 150.97C62.1327 150.633 62.7976 150.633 63.2076 150.97L64.6925 152.19C65.1025 152.527 65.1025 153.073 64.6925 153.41L52.6175 163.332C52.2074 163.669 51.5426 163.669 51.1325 163.332Z" fill="#84FF65"/>
<path d="M85.4713 190.014H82.8433C82.8433 189.63 82.9273 189.33 83.0953 189.114C83.2633 188.89 83.5153 188.778 83.8513 188.778H85.4713V187.398C85.4713 187.03 85.5873 186.766 85.8193 186.606C86.0593 186.446 86.4153 186.366 86.8873 186.366V188.778H89.5033C89.5033 189.17 89.4193 189.474 89.2513 189.69C89.0833 189.906 88.8313 190.014 88.4953 190.014H86.8873V191.418C86.8873 192.106 86.4153 192.45 85.4713 192.45V190.014ZM93.7005 193.014C93.1005 193.014 92.5525 192.918 92.0565 192.726C91.5605 192.526 91.1685 192.254 90.8805 191.91C90.6005 191.566 90.4605 191.186 90.4605 190.77C90.4605 190.442 90.5525 190.202 90.7365 190.05C90.9205 189.89 91.2085 189.81 91.6005 189.81L91.8285 189.822C91.8045 189.966 91.7925 190.118 91.7925 190.278C91.7925 190.742 91.9605 191.102 92.2965 191.358C92.6325 191.614 93.1005 191.742 93.7005 191.742C94.3085 191.742 94.7805 191.578 95.1165 191.25C95.4525 190.922 95.6205 190.458 95.6205 189.858C95.6205 189.274 95.4525 188.826 95.1165 188.514C94.7805 188.202 94.3005 188.046 93.6765 188.046C92.9965 188.046 92.4365 188.234 91.9965 188.61C91.8285 188.746 91.6405 188.814 91.4325 188.814C91.2325 188.814 91.0605 188.754 90.9165 188.634C90.7805 188.506 90.7125 188.346 90.7125 188.154C90.7125 188.106 90.7165 188.07 90.7245 188.046L91.2165 185.022C91.2405 184.854 91.3125 184.726 91.4325 184.638C91.5605 184.55 91.7245 184.506 91.9245 184.506H96.6405C96.6405 185.33 96.2965 185.742 95.6085 185.742H92.3325L92.1045 187.194C91.9045 187.33 91.7485 187.458 91.6365 187.578L91.6845 187.65C91.9885 187.402 92.3525 187.206 92.7765 187.062C93.2005 186.91 93.6125 186.834 94.0125 186.834C94.9405 186.834 95.6725 187.106 96.2085 187.65C96.7525 188.186 97.0245 188.922 97.0245 189.858C97.0245 190.498 96.8885 191.058 96.6165 191.538C96.3525 192.01 95.9685 192.374 95.4645 192.63C94.9685 192.886 94.3805 193.014 93.7005 193.014ZM101.488 193.014C100.88 193.014 100.32 192.898 99.8079 192.666C99.3039 192.426 98.9039 192.102 98.6079 191.694C98.3119 191.286 98.1639 190.834 98.1639 190.338V187.074C98.1639 186.578 98.3119 186.126 98.6079 185.718C98.9039 185.31 99.3039 184.99 99.8079 184.758C100.32 184.518 100.88 184.398 101.488 184.398C102.104 184.398 102.664 184.518 103.168 184.758C103.68 184.99 104.08 185.31 104.368 185.718C104.664 186.126 104.812 186.578 104.812 187.074V190.338C104.812 190.834 104.664 191.286 104.368 191.694C104.072 192.102 103.668 192.426 103.156 192.666C102.652 192.898 102.096 193.014 101.488 193.014ZM101.488 191.742C102.056 191.742 102.512 191.61 102.856 191.346C103.2 191.082 103.372 190.73 103.372 190.29V187.11C103.372 186.678 103.2 186.33 102.856 186.066C102.512 185.802 102.056 185.67 101.488 185.67C100.928 185.67 100.476 185.802 100.132 186.066C99.7879 186.33 99.6159 186.678 99.6159 187.11V190.29C99.6159 190.73 99.7839 191.082 100.12 191.346C100.464 191.61 100.92 191.742 101.488 191.742ZM109.457 193.014C108.849 193.014 108.289 192.898 107.777 192.666C107.273 192.426 106.873 192.102 106.577 191.694C106.281 191.286 106.133 190.834 106.133 190.338V187.074C106.133 186.578 106.281 186.126 106.577 185.718C106.873 185.31 107.273 184.99 107.777 184.758C108.289 184.518 108.849 184.398 109.457 184.398C110.073 184.398 110.633 184.518 111.137 184.758C111.649 184.99 112.049 185.31 112.337 185.718C112.633 186.126 112.781 186.578 112.781 187.074V190.338C112.781 190.834 112.633 191.286 112.337 191.694C112.041 192.102 111.637 192.426 111.125 192.666C110.621 192.898 110.065 193.014 109.457 193.014ZM109.457 191.742C110.025 191.742 110.481 191.61 110.825 191.346C111.169 191.082 111.341 190.73 111.341 190.29V187.11C111.341 186.678 111.169 186.33 110.825 186.066C110.481 185.802 110.025 185.67 109.457 185.67C108.897 185.67 108.445 185.802 108.101 186.066C107.757 186.33 107.585 186.678 107.585 187.11V190.29C107.585 190.73 107.753 191.082 108.089 191.346C108.433 191.61 108.889 191.742 109.457 191.742ZM117.425 193.014C116.817 193.014 116.257 192.898 115.745 192.666C115.241 192.426 114.841 192.102 114.545 191.694C114.249 191.286 114.101 190.834 114.101 190.338V187.074C114.101 186.578 114.249 186.126 114.545 185.718C114.841 185.31 115.241 184.99 115.745 184.758C116.257 184.518 116.817 184.398 117.425 184.398C118.041 184.398 118.601 184.518 119.105 184.758C119.617 184.99 120.017 185.31 120.305 185.718C120.601 186.126 120.749 186.578 120.749 187.074V190.338C120.749 190.834 120.601 191.286 120.305 191.694C120.009 192.102 119.605 192.426 119.093 192.666C118.589 192.898 118.033 193.014 117.425 193.014ZM117.425 191.742C117.993 191.742 118.449 191.61 118.793 191.346C119.137 191.082 119.309 190.73 119.309 190.29V187.11C119.309 186.678 119.137 186.33 118.793 186.066C118.449 185.802 117.993 185.67 117.425 185.67C116.865 185.67 116.413 185.802 116.069 186.066C115.725 186.33 115.553 186.678 115.553 187.11V190.29C115.553 190.73 115.721 191.082 116.057 191.346C116.401 191.61 116.857 191.742 117.425 191.742ZM125.394 193.014C124.786 193.014 124.226 192.898 123.714 192.666C123.21 192.426 122.81 192.102 122.514 191.694C122.218 191.286 122.07 190.834 122.07 190.338V187.074C122.07 186.578 122.218 186.126 122.514 185.718C122.81 185.31 123.21 184.99 123.714 184.758C124.226 184.518 124.786 184.398 125.394 184.398C126.01 184.398 126.57 184.518 127.074 184.758C127.586 184.99 127.986 185.31 128.274 185.718C128.57 186.126 128.718 186.578 128.718 187.074V190.338C128.718 190.834 128.57 191.286 128.274 191.694C127.978 192.102 127.574 192.426 127.062 192.666C126.558 192.898 126.002 193.014 125.394 193.014ZM125.394 191.742C125.962 191.742 126.418 191.61 126.762 191.346C127.106 191.082 127.278 190.73 127.278 190.29V187.11C127.278 186.678 127.106 186.33 126.762 186.066C126.418 185.802 125.962 185.67 125.394 185.67C124.834 185.67 124.382 185.802 124.038 186.066C123.694 186.33 123.522 186.678 123.522 187.11V190.29C123.522 190.73 123.69 191.082 124.026 191.346C124.37 191.61 124.826 191.742 125.394 191.742ZM136.733 193.014C136.381 193.014 136.145 192.854 136.025 192.534L132.953 184.542C133.025 184.502 133.121 184.47 133.241 184.446C133.361 184.414 133.473 184.398 133.577 184.398C133.857 184.398 134.089 184.462 134.273 184.59C134.465 184.71 134.605 184.886 134.693 185.118L136.649 190.602L136.397 191.322L136.517 191.37L138.761 185.118C138.945 184.638 139.321 184.398 139.889 184.398C139.985 184.398 140.089 184.414 140.201 184.446C140.321 184.47 140.421 184.502 140.501 184.542L137.441 192.534C137.385 192.686 137.293 192.806 137.165 192.894C137.045 192.974 136.901 193.014 136.733 193.014ZM144.286 193.014C143.63 193.014 143.03 192.882 142.486 192.618C141.95 192.354 141.526 191.998 141.214 191.55C140.902 191.102 140.746 190.61 140.746 190.074V187.326C140.746 186.79 140.898 186.298 141.202 185.85C141.514 185.402 141.938 185.05 142.474 184.794C143.018 184.53 143.622 184.398 144.286 184.398C144.95 184.398 145.55 184.53 146.086 184.794C146.63 185.05 147.054 185.402 147.358 185.85C147.67 186.298 147.826 186.79 147.826 187.326V190.074C147.826 190.61 147.67 191.102 147.358 191.55C147.046 191.998 146.618 192.354 146.074 192.618C145.538 192.882 144.942 193.014 144.286 193.014ZM144.286 191.754C144.926 191.754 145.434 191.598 145.81 191.286C146.194 190.974 146.386 190.562 146.386 190.05V187.35C146.386 186.838 146.194 186.43 145.81 186.126C145.434 185.814 144.926 185.658 144.286 185.658C143.646 185.658 143.134 185.814 142.75 186.126C142.374 186.43 142.186 186.838 142.186 187.35V190.05C142.186 190.562 142.374 190.974 142.75 191.286C143.134 191.598 143.646 191.754 144.286 191.754ZM149.793 192.906C149.585 192.906 149.409 192.842 149.265 192.714C149.129 192.586 149.061 192.426 149.061 192.234V185.166C149.061 184.982 149.129 184.826 149.265 184.698C149.409 184.57 149.585 184.506 149.793 184.506H152.505C153.201 184.506 153.817 184.638 154.353 184.902C154.897 185.166 155.317 185.538 155.613 186.018C155.909 186.498 156.057 187.05 156.057 187.674V189.702C156.057 190.326 155.905 190.882 155.601 191.37C155.305 191.85 154.885 192.226 154.341 192.498C153.805 192.77 153.193 192.906 152.505 192.906H149.793ZM152.385 191.658C153.097 191.658 153.645 191.49 154.029 191.154C154.421 190.818 154.617 190.342 154.617 189.726V187.662C154.617 187.046 154.425 186.574 154.041 186.246C153.657 185.918 153.105 185.754 152.385 185.754H150.501V191.658H152.385Z" fill="white"/>
<path d="M50.1325 192.332L43.3075 186.724C42.8975 186.387 42.8975 185.841 43.3075 185.504L44.7924 184.284C45.2024 183.947 45.8673 183.947 46.2773 184.284L50.875 188.062L60.7227 179.97C61.1327 179.633 61.7976 179.633 62.2076 179.97L63.6925 181.19C64.1025 181.527 64.1025 182.073 63.6925 182.41L51.6175 192.332C51.2074 192.669 50.5426 192.669 50.1325 192.332Z" fill="#84FF65"/>
<path d="M85.1813 222.717C84.9813 222.717 84.8173 222.661 84.6893 222.549C84.5693 222.429 84.5093 222.277 84.5093 222.093C84.5093 221.469 84.7493 220.897 85.2293 220.377C85.7173 219.849 86.4853 219.337 87.5333 218.841C88.0613 218.585 88.4613 218.361 88.7333 218.169C89.0133 217.969 89.2093 217.765 89.3213 217.557C89.4333 217.349 89.4893 217.097 89.4893 216.801C89.4893 216.377 89.3453 216.053 89.0573 215.829C88.7773 215.597 88.3733 215.481 87.8453 215.481C87.2533 215.481 86.8013 215.609 86.4893 215.865C86.1773 216.121 86.0213 216.497 86.0213 216.993C86.0213 217.193 86.0373 217.369 86.0693 217.521C85.9573 217.537 85.8693 217.545 85.8053 217.545C85.4693 217.545 85.1813 217.445 84.9413 217.245C84.7013 217.045 84.5813 216.801 84.5813 216.513C84.5813 216.081 84.7253 215.689 85.0133 215.337C85.3013 214.985 85.6933 214.709 86.1893 214.509C86.6853 214.309 87.2373 214.209 87.8453 214.209C88.4693 214.209 89.0133 214.317 89.4773 214.533C89.9493 214.741 90.3133 215.041 90.5693 215.433C90.8253 215.825 90.9533 216.281 90.9533 216.801C90.9533 217.385 90.7373 217.913 90.3053 218.385C89.8813 218.857 89.2053 219.317 88.2773 219.765C87.5813 220.101 87.0613 220.409 86.7173 220.689C86.3733 220.961 86.1813 221.221 86.1413 221.469H89.9573C90.3253 221.469 90.6013 221.577 90.7853 221.793C90.9773 222.001 91.0733 222.309 91.0733 222.717H85.1813ZM96.1607 220.641H92.5367C92.3447 220.641 92.1927 220.589 92.0807 220.485C91.9687 220.381 91.9127 220.245 91.9127 220.077C91.9127 219.909 91.9647 219.761 92.0687 219.633L96.3527 214.437C96.4087 214.365 96.4927 214.309 96.6047 214.269C96.7167 214.229 96.8407 214.209 96.9767 214.209C97.1687 214.209 97.3207 214.269 97.4327 214.389C97.5527 214.509 97.6127 214.661 97.6127 214.845V219.393H99.0047C99.0047 219.825 98.9287 220.141 98.7767 220.341C98.6247 220.541 98.3847 220.641 98.0567 220.641H97.6127V221.853C97.6127 222.189 97.4927 222.437 97.2527 222.597C97.0207 222.749 96.6567 222.825 96.1607 222.825V220.641ZM96.2447 219.393V216.621L96.6527 216.069L96.5687 216.009L93.8327 219.393H96.2447ZM104.085 214.365C104.165 214.205 104.281 214.081 104.433 213.993C104.585 213.905 104.753 213.861 104.937 213.861C105.209 213.861 105.473 213.953 105.729 214.137L101.481 222.657C101.401 222.817 101.285 222.937 101.133 223.017C100.989 223.105 100.825 223.149 100.641 223.149C100.369 223.149 100.105 223.053 99.8491 222.861L104.085 214.365ZM111.349 215.565H107.593C107.265 215.565 107.013 215.457 106.837 215.241C106.661 215.025 106.573 214.717 106.573 214.317H112.441C112.649 214.317 112.813 214.377 112.933 214.497C113.061 214.609 113.125 214.749 113.125 214.917C113.125 215.021 113.101 215.129 113.053 215.241L109.501 222.345C109.333 222.665 109.069 222.825 108.709 222.825C108.525 222.825 108.365 222.805 108.229 222.765C108.093 222.725 107.965 222.653 107.845 222.549L111.349 215.565ZM120.76 222.825C120.064 222.825 119.44 222.693 118.888 222.429C118.344 222.157 117.92 221.785 117.616 221.313C117.312 220.833 117.16 220.289 117.16 219.681V217.317C117.16 216.709 117.308 216.173 117.604 215.709C117.908 215.237 118.328 214.869 118.864 214.605C119.408 214.341 120.024 214.209 120.712 214.209C121.408 214.209 122.024 214.317 122.56 214.533C123.096 214.741 123.512 215.037 123.808 215.421C124.112 215.797 124.264 216.229 124.264 216.717C124.264 216.997 124.172 217.217 123.988 217.377C123.804 217.529 123.556 217.605 123.244 217.605C123.092 217.605 122.948 217.589 122.812 217.557C122.836 217.437 122.848 217.257 122.848 217.017C122.848 216.561 122.648 216.189 122.248 215.901C121.856 215.613 121.344 215.469 120.712 215.469C120.088 215.469 119.58 215.641 119.188 215.985C118.796 216.329 118.6 216.773 118.6 217.317V219.681C118.6 220.233 118.8 220.685 119.2 221.037C119.6 221.381 120.12 221.553 120.76 221.553C121.392 221.553 121.908 221.413 122.308 221.133C122.708 220.845 122.908 220.473 122.908 220.017C122.908 219.793 122.896 219.621 122.872 219.501C123 219.469 123.14 219.453 123.292 219.453C123.604 219.453 123.852 219.537 124.036 219.705C124.228 219.873 124.324 220.101 124.324 220.389C124.324 220.861 124.172 221.281 123.868 221.649C123.572 222.017 123.152 222.305 122.608 222.513C122.064 222.721 121.448 222.825 120.76 222.825ZM130.751 221.757C130.751 222.101 130.643 222.365 130.427 222.549C130.219 222.733 129.899 222.825 129.467 222.825V222.081C129.539 221.993 129.631 221.873 129.743 221.721L129.671 221.673C129.431 222.033 129.135 222.317 128.783 222.525C128.439 222.725 128.047 222.825 127.607 222.825C127.191 222.825 126.815 222.733 126.479 222.549C126.151 222.357 125.895 222.097 125.711 221.769C125.527 221.433 125.435 221.053 125.435 220.629V217.473C125.435 217.169 125.543 216.949 125.759 216.813C125.983 216.677 126.327 216.609 126.791 216.609V220.545C126.791 220.889 126.891 221.161 127.091 221.361C127.291 221.553 127.587 221.649 127.979 221.649C128.403 221.649 128.747 221.521 129.011 221.265C129.275 221.009 129.407 220.689 129.407 220.305V217.473C129.407 217.169 129.515 216.949 129.731 216.813C129.955 216.677 130.295 216.609 130.751 216.609V221.757ZM134.61 222.825C133.882 222.825 133.282 222.685 132.81 222.405C132.346 222.125 132.114 221.753 132.114 221.289C132.114 220.857 132.418 220.629 133.026 220.605C133.098 220.989 133.274 221.281 133.554 221.481C133.834 221.673 134.174 221.769 134.574 221.769C135.006 221.769 135.342 221.713 135.582 221.601C135.822 221.481 135.942 221.305 135.942 221.073C135.942 220.849 135.838 220.673 135.63 220.545C135.43 220.409 135.042 220.273 134.466 220.137C133.898 220.009 133.45 219.873 133.122 219.729C132.794 219.585 132.546 219.401 132.378 219.177C132.218 218.953 132.138 218.657 132.138 218.289C132.138 217.793 132.35 217.389 132.774 217.077C133.206 216.765 133.782 216.609 134.502 216.609C135.198 216.609 135.782 216.737 136.254 216.993C136.726 217.249 136.962 217.589 136.962 218.013C136.962 218.221 136.882 218.377 136.722 218.481C136.57 218.585 136.334 218.641 136.014 218.649C135.886 217.969 135.402 217.629 134.562 217.629C134.234 217.629 133.958 217.689 133.734 217.809C133.518 217.929 133.41 218.085 133.41 218.277C133.41 218.477 133.506 218.633 133.698 218.745C133.898 218.849 134.23 218.949 134.694 219.045C135.574 219.229 136.214 219.477 136.614 219.789C137.014 220.101 137.214 220.529 137.214 221.073C137.214 221.609 136.982 222.037 136.518 222.357C136.054 222.669 135.418 222.825 134.61 222.825ZM140.56 222.825C139.936 222.825 139.472 222.645 139.168 222.285C138.872 221.925 138.724 221.461 138.724 220.893V217.737H137.524C137.524 217.393 137.592 217.137 137.728 216.969C137.864 216.801 138.048 216.717 138.28 216.717H138.736V215.673C138.736 215.369 138.844 215.149 139.06 215.013C139.284 214.877 139.616 214.809 140.056 214.809V216.717H141.652C141.652 217.077 141.58 217.337 141.436 217.497C141.292 217.657 141.064 217.737 140.752 217.737H140.068V220.845C140.068 221.133 140.124 221.341 140.236 221.469C140.348 221.589 140.544 221.649 140.824 221.649C141.104 221.649 141.38 221.573 141.652 221.421C141.724 221.485 141.776 221.565 141.808 221.661C141.848 221.757 141.868 221.857 141.868 221.961C141.868 222.185 141.752 222.385 141.52 222.561C141.288 222.737 140.968 222.825 140.56 222.825ZM145.171 222.825C144.659 222.825 144.195 222.733 143.779 222.549C143.371 222.357 143.047 222.097 142.807 221.769C142.575 221.441 142.459 221.069 142.459 220.653V218.877C142.459 218.453 142.575 218.069 142.807 217.725C143.039 217.381 143.359 217.109 143.767 216.909C144.183 216.709 144.651 216.609 145.171 216.609C145.691 216.609 146.155 216.709 146.563 216.909C146.979 217.109 147.303 217.381 147.535 217.725C147.767 218.069 147.883 218.453 147.883 218.877V220.653C147.883 221.069 147.763 221.441 147.523 221.769C147.291 222.097 146.967 222.357 146.551 222.549C146.143 222.733 145.683 222.825 145.171 222.825ZM145.171 221.661C145.595 221.661 145.931 221.565 146.179 221.373C146.427 221.173 146.551 220.905 146.551 220.569V218.937C146.551 218.585 146.427 218.301 146.179 218.085C145.931 217.869 145.595 217.761 145.171 217.761C144.747 217.761 144.411 217.869 144.163 218.085C143.915 218.301 143.791 218.585 143.791 218.937V220.569C143.791 220.905 143.915 221.173 144.163 221.373C144.411 221.565 144.747 221.661 145.171 221.661ZM148.969 217.677C148.969 216.965 149.393 216.609 150.241 216.609V217.341C150.113 217.485 150.021 217.609 149.965 217.713L150.025 217.761C150.281 217.385 150.549 217.101 150.829 216.909C151.109 216.709 151.441 216.609 151.825 216.609C152.521 216.609 153.009 216.953 153.289 217.641C153.497 217.313 153.753 217.061 154.057 216.885C154.361 216.701 154.713 216.609 155.113 216.609C155.665 216.609 156.097 216.805 156.409 217.197C156.729 217.589 156.889 218.089 156.889 218.697V221.961C156.889 222.265 156.781 222.485 156.565 222.621C156.349 222.757 156.017 222.825 155.569 222.825V218.805C155.569 218.477 155.497 218.221 155.353 218.037C155.209 217.845 154.989 217.749 154.693 217.749C154.381 217.749 154.117 217.857 153.901 218.073C153.693 218.281 153.589 218.593 153.589 219.009V221.961C153.589 222.265 153.481 222.485 153.265 222.621C153.049 222.757 152.721 222.825 152.281 222.825V218.805C152.281 218.101 151.993 217.749 151.417 217.749C151.073 217.749 150.797 217.869 150.589 218.109C150.389 218.349 150.289 218.661 150.289 219.045V221.961C150.289 222.265 150.181 222.485 149.965 222.621C149.749 222.757 149.417 222.825 148.969 222.825V217.677ZM160.853 222.825C160.365 222.825 159.917 222.729 159.509 222.537C159.109 222.345 158.793 222.081 158.561 221.745C158.329 221.401 158.213 221.017 158.213 220.593V218.937C158.213 218.497 158.333 218.101 158.573 217.749C158.813 217.397 159.137 217.121 159.545 216.921C159.953 216.713 160.393 216.609 160.865 216.609C161.337 216.609 161.765 216.705 162.149 216.897C162.541 217.089 162.849 217.361 163.073 217.713C163.305 218.057 163.421 218.445 163.421 218.877V219.585C163.421 219.745 163.361 219.881 163.241 219.993C163.121 220.105 162.969 220.161 162.785 220.161H159.521V220.509C159.521 220.877 159.633 221.173 159.857 221.397C160.089 221.621 160.425 221.733 160.865 221.733C161.297 221.733 161.621 221.641 161.837 221.457C162.053 221.265 162.161 221.013 162.161 220.701C162.209 220.693 162.281 220.689 162.377 220.689C162.649 220.689 162.865 220.753 163.025 220.881C163.193 221.001 163.277 221.173 163.277 221.397C163.277 221.637 163.169 221.869 162.953 222.093C162.737 222.309 162.441 222.485 162.065 222.621C161.697 222.757 161.293 222.825 160.853 222.825ZM162.185 219.165V218.877C162.185 218.517 162.061 218.229 161.813 218.013C161.573 217.789 161.253 217.677 160.853 217.677C160.453 217.677 160.129 217.789 159.881 218.013C159.641 218.229 159.521 218.517 159.521 218.877V219.165H162.185ZM167.588 217.773C167.124 217.773 166.744 217.905 166.448 218.169C166.152 218.425 166.004 218.741 166.004 219.117V221.961C166.004 222.265 165.892 222.485 165.668 222.621C165.452 222.757 165.116 222.825 164.66 222.825V217.677C164.66 216.965 165.088 216.609 165.944 216.609V217.329C165.832 217.457 165.74 217.585 165.668 217.713L165.728 217.761C166.248 216.993 166.884 216.609 167.636 216.609C167.956 216.609 168.2 216.693 168.368 216.861C168.536 217.021 168.62 217.225 168.62 217.473C168.62 217.657 168.572 217.821 168.476 217.965C168.244 217.837 167.948 217.773 167.588 217.773ZM176.02 222.825C175.316 222.825 174.704 222.733 174.184 222.549C173.664 222.365 173.264 222.113 172.984 221.793C172.712 221.473 172.576 221.105 172.576 220.689C172.576 220.041 172.984 219.717 173.8 219.717C173.816 220.349 174.016 220.829 174.4 221.157C174.792 221.485 175.34 221.649 176.044 221.649C176.66 221.649 177.136 221.545 177.472 221.337C177.808 221.129 177.976 220.829 177.976 220.437C177.976 220.189 177.912 219.989 177.784 219.837C177.656 219.677 177.44 219.537 177.136 219.417C176.832 219.289 176.392 219.161 175.816 219.033C175.048 218.865 174.44 218.669 173.992 218.445C173.552 218.221 173.232 217.953 173.032 217.641C172.832 217.329 172.732 216.941 172.732 216.477C172.732 216.029 172.864 215.633 173.128 215.289C173.392 214.945 173.764 214.681 174.244 214.497C174.724 214.305 175.28 214.209 175.912 214.209C176.512 214.209 177.052 214.293 177.532 214.461C178.012 214.621 178.388 214.849 178.66 215.145C178.932 215.441 179.068 215.781 179.068 216.165C179.068 216.717 178.68 217.005 177.904 217.029C177.84 216.453 177.648 216.033 177.328 215.769C177.016 215.505 176.544 215.373 175.912 215.373C175.352 215.373 174.92 215.469 174.616 215.661C174.312 215.853 174.16 216.125 174.16 216.477C174.16 216.717 174.216 216.917 174.328 217.077C174.448 217.229 174.644 217.365 174.916 217.485C175.188 217.597 175.58 217.709 176.092 217.821C176.908 218.005 177.556 218.213 178.036 218.445C178.516 218.669 178.86 218.941 179.068 219.261C179.284 219.573 179.392 219.965 179.392 220.437C179.392 220.925 179.252 221.349 178.972 221.709C178.7 222.069 178.308 222.345 177.796 222.537C177.292 222.729 176.7 222.825 176.02 222.825ZM185.829 221.757C185.829 222.101 185.721 222.365 185.505 222.549C185.297 222.733 184.977 222.825 184.545 222.825V222.081C184.617 221.993 184.709 221.873 184.821 221.721L184.749 221.673C184.509 222.033 184.213 222.317 183.861 222.525C183.517 222.725 183.125 222.825 182.685 222.825C182.269 222.825 181.893 222.733 181.557 222.549C181.229 222.357 180.973 222.097 180.789 221.769C180.605 221.433 180.513 221.053 180.513 220.629V217.473C180.513 217.169 180.621 216.949 180.837 216.813C181.061 216.677 181.405 216.609 181.869 216.609V220.545C181.869 220.889 181.969 221.161 182.169 221.361C182.369 221.553 182.665 221.649 183.057 221.649C183.481 221.649 183.825 221.521 184.089 221.265C184.353 221.009 184.485 220.689 184.485 220.305V217.473C184.485 217.169 184.593 216.949 184.809 216.813C185.033 216.677 185.373 216.609 185.829 216.609V221.757ZM187.336 217.581C187.336 217.301 187.44 217.069 187.648 216.885C187.856 216.701 188.168 216.609 188.584 216.609V217.269C188.48 217.397 188.404 217.501 188.356 217.581L188.404 217.629C188.652 217.301 188.932 217.049 189.244 216.873C189.556 216.697 189.94 216.609 190.396 216.609C191.068 216.609 191.612 216.805 192.028 217.197C192.452 217.589 192.664 218.105 192.664 218.745V220.689C192.664 221.113 192.56 221.489 192.352 221.817C192.144 222.137 191.856 222.385 191.488 222.561C191.128 222.737 190.716 222.825 190.252 222.825C189.932 222.825 189.612 222.757 189.292 222.621C188.972 222.485 188.7 222.305 188.476 222.081L188.44 222.141C188.488 222.205 188.572 222.289 188.692 222.393V224.277C188.692 224.909 188.24 225.225 187.336 225.225V217.581ZM190 221.649C190.424 221.649 190.748 221.561 190.972 221.385C191.204 221.201 191.32 220.945 191.32 220.617V218.829C191.32 218.485 191.204 218.225 190.972 218.049C190.748 217.865 190.424 217.773 190 217.773C189.616 217.773 189.3 217.869 189.052 218.061C188.804 218.253 188.68 218.489 188.68 218.769V220.665C188.68 220.945 188.8 221.181 189.04 221.373C189.28 221.557 189.6 221.649 190 221.649ZM193.981 217.581C193.981 217.301 194.085 217.069 194.293 216.885C194.501 216.701 194.813 216.609 195.229 216.609V217.269C195.125 217.397 195.049 217.501 195.001 217.581L195.049 217.629C195.297 217.301 195.577 217.049 195.889 216.873C196.201 216.697 196.585 216.609 197.041 216.609C197.713 216.609 198.257 216.805 198.673 217.197C199.097 217.589 199.309 218.105 199.309 218.745V220.689C199.309 221.113 199.205 221.489 198.997 221.817C198.789 222.137 198.501 222.385 198.133 222.561C197.773 222.737 197.361 222.825 196.897 222.825C196.577 222.825 196.257 222.757 195.937 222.621C195.617 222.485 195.345 222.305 195.121 222.081L195.085 222.141C195.133 222.205 195.217 222.289 195.337 222.393V224.277C195.337 224.909 194.885 225.225 193.981 225.225V217.581ZM196.645 221.649C197.069 221.649 197.393 221.561 197.617 221.385C197.849 221.201 197.965 220.945 197.965 220.617V218.829C197.965 218.485 197.849 218.225 197.617 218.049C197.393 217.865 197.069 217.773 196.645 217.773C196.261 217.773 195.945 217.869 195.697 218.061C195.449 218.253 195.325 218.489 195.325 218.769V220.665C195.325 220.945 195.445 221.181 195.685 221.373C195.925 221.557 196.245 221.649 196.645 221.649ZM202.827 222.825C202.315 222.825 201.851 222.733 201.435 222.549C201.027 222.357 200.703 222.097 200.463 221.769C200.231 221.441 200.115 221.069 200.115 220.653V218.877C200.115 218.453 200.231 218.069 200.463 217.725C200.695 217.381 201.015 217.109 201.423 216.909C201.839 216.709 202.307 216.609 202.827 216.609C203.347 216.609 203.811 216.709 204.219 216.909C204.635 217.109 204.959 217.381 205.191 217.725C205.423 218.069 205.539 218.453 205.539 218.877V220.653C205.539 221.069 205.419 221.441 205.179 221.769C204.947 222.097 204.623 222.357 204.207 222.549C203.799 222.733 203.339 222.825 202.827 222.825ZM202.827 221.661C203.251 221.661 203.587 221.565 203.835 221.373C204.083 221.173 204.207 220.905 204.207 220.569V218.937C204.207 218.585 204.083 218.301 203.835 218.085C203.587 217.869 203.251 217.761 202.827 217.761C202.403 217.761 202.067 217.869 201.819 218.085C201.571 218.301 201.447 218.585 201.447 218.937V220.569C201.447 220.905 201.571 221.173 201.819 221.373C202.067 221.565 202.403 221.661 202.827 221.661ZM209.705 217.773C209.241 217.773 208.861 217.905 208.565 218.169C208.269 218.425 208.121 218.741 208.121 219.117V221.961C208.121 222.265 208.009 222.485 207.785 222.621C207.569 222.757 207.233 222.825 206.777 222.825V217.677C206.777 216.965 207.205 216.609 208.061 216.609V217.329C207.949 217.457 207.857 217.585 207.785 217.713L207.845 217.761C208.365 216.993 209.001 216.609 209.753 216.609C210.073 216.609 210.317 216.693 210.485 216.861C210.653 217.021 210.737 217.225 210.737 217.473C210.737 217.657 210.689 217.821 210.593 217.965C210.361 217.837 210.065 217.773 209.705 217.773ZM214.247 222.825C213.623 222.825 213.159 222.645 212.855 222.285C212.559 221.925 212.411 221.461 212.411 220.893V217.737H211.211C211.211 217.393 211.279 217.137 211.415 216.969C211.551 216.801 211.735 216.717 211.967 216.717H212.423V215.673C212.423 215.369 212.531 215.149 212.747 215.013C212.971 214.877 213.303 214.809 213.743 214.809V216.717H215.339C215.339 217.077 215.267 217.337 215.123 217.497C214.979 217.657 214.751 217.737 214.439 217.737H213.755V220.845C213.755 221.133 213.811 221.341 213.923 221.469C214.035 221.589 214.231 221.649 214.511 221.649C214.791 221.649 215.067 221.573 215.339 221.421C215.411 221.485 215.463 221.565 215.495 221.661C215.535 221.757 215.555 221.857 215.555 221.961C215.555 222.185 215.439 222.385 215.207 222.561C214.975 222.737 214.655 222.825 214.247 222.825Z" fill="white"/>
<path d="M50.1325 222.633L43.3075 217.025C42.8975 216.688 42.8975 216.141 43.3075 215.804L44.7924 214.584C45.2024 214.247 45.8673 214.247 46.2773 214.584L50.875 218.362L60.7227 210.27C61.1327 209.933 61.7976 209.933 62.2076 210.27L63.6925 211.49C64.1025 211.827 64.1025 212.374 63.6925 212.711L51.6175 222.633C51.2074 222.97 50.5426 222.97 50.1325 222.633Z" fill="#84FF65"/>
<defs>
<filter id="filter0_f_90_287" x="169" y="0.0319824" width="200" height="201.079" filterUnits="userSpaceOnUse" color-interpolation-filters="sRGB">
<feFlood flood-opacity="0" result="BackgroundImageFix"/>
<feBlend mode="normal" in="SourceGraphic" in2="BackgroundImageFix" result="shape"/>
<feGaussianBlur stdDeviation="25" result="effect1_foregroundBlur_90_287"/>
</filter>
<filter id="filter1_f_90_287" x="0" y="148" width="218" height="221.295" filterUnits="userSpaceOnUse" color-interpolation-filters="sRGB">
<feFlood flood-opacity="0" result="BackgroundImageFix"/>
<feBlend mode="normal" in="SourceGraphic" in2="BackgroundImageFix" result="shape"/>
<feGaussianBlur stdDeviation="25" result="effect1_foregroundBlur_90_287"/>
</filter>
<filter id="filter2_b_90_287" x="-14" y="-8" width="384" height="380.957" filterUnits="userSpaceOnUse" color-interpolation-filters="sRGB">
<feFlood flood-opacity="0" result="BackgroundImageFix"/>
<feGaussianBlur in="BackgroundImageFix" stdDeviation="25"/>
<feComposite in2="SourceAlpha" operator="in" result="effect1_backgroundBlur_90_287"/>
<feBlend mode="normal" in="SourceGraphic" in2="effect1_backgroundBlur_90_287" result="shape"/>
</filter>
</defs>
</svg>
