<svg width="388" height="278" viewBox="0 0 388 278" fill="none" xmlns="http://www.w3.org/2000/svg">
<rect x="43" width="283" height="278" rx="16" fill="#848484" fill-opacity="0.8"/>
<g filter="url(#filter0_f_90_286)">
<circle cx="100" cy="162" r="50" fill="#910A67"/>
</g>
<g filter="url(#filter1_f_90_286)">
<ellipse cx="279" cy="110" rx="59" ry="60" fill="#3C0753"/>
</g>
<g filter="url(#filter2_b_90_286)">
<rect x="43" width="283" height="278" rx="16" fill="black" fill-opacity="0.24"/>
</g>
<path d="M84.2602 48.324C82.2922 48.324 80.5402 48.036 79.0042 47.46C77.4682 46.86 76.2682 46.032 75.4042 44.976C74.5402 43.896 74.1082 42.672 74.1082 41.304C74.1082 40.176 74.4682 39.36 75.1882 38.856C75.9322 38.352 77.1322 38.1 78.7882 38.1C78.7162 38.556 78.6802 39.096 78.6802 39.72C78.6802 41.16 79.1482 42.264 80.0842 43.032C81.0442 43.776 82.4362 44.148 84.2602 44.148C86.0602 44.148 87.4162 43.86 88.3282 43.284C89.2642 42.708 89.7322 41.856 89.7322 40.728C89.7322 38.376 88.1362 37.2 84.9442 37.2H83.7562C83.1562 37.2 82.6642 37.008 82.2802 36.624C81.8962 36.24 81.7042 35.748 81.7042 35.148C81.7042 34.524 81.8842 34.032 82.2442 33.672C82.6282 33.288 83.1322 33.096 83.7562 33.096H84.9802C87.6682 33.096 89.0122 32.004 89.0122 29.82C89.0122 28.788 88.6162 28.008 87.8242 27.48C87.0322 26.928 85.8922 26.652 84.4042 26.652C82.7722 26.652 81.5122 26.94 80.6242 27.516C79.7362 28.068 79.2922 28.872 79.2922 29.928C79.2922 30.384 79.3402 30.9 79.4362 31.476C78.0442 31.524 76.9042 31.284 76.0162 30.756C75.1522 30.228 74.7202 29.52 74.7202 28.632C74.7202 27.432 75.1282 26.364 75.9442 25.428C76.7602 24.492 77.9002 23.772 79.3642 23.268C80.8522 22.74 82.5322 22.476 84.4042 22.476C86.3002 22.476 87.9682 22.776 89.4082 23.376C90.8482 23.976 91.9522 24.84 92.7202 25.968C93.5122 27.072 93.9082 28.356 93.9082 29.82C93.9082 32.076 92.7442 33.852 90.4162 35.148C91.9282 35.796 92.9962 36.552 93.6202 37.416C94.2682 38.28 94.5922 39.384 94.5922 40.728C94.5922 42.24 94.1602 43.572 93.2962 44.724C92.4322 45.876 91.2202 46.764 89.6602 47.388C88.1002 48.012 86.3002 48.324 84.2602 48.324ZM116.63 26.076C116.63 24.972 117.062 24.096 117.926 23.448C118.79 22.776 119.966 22.44 121.454 22.44L129.014 41.448L128.186 43.716L128.546 43.86L136.646 22.476C138.11 22.476 139.274 22.812 140.138 23.484C141.026 24.132 141.47 25.008 141.47 26.112V48.324C138.326 48.324 136.754 47.148 136.754 44.796V33.276L137.978 29.964L137.582 29.82L130.994 47.028C130.826 47.412 130.562 47.724 130.202 47.964C129.866 48.204 129.482 48.324 129.05 48.324C128.618 48.324 128.222 48.204 127.862 47.964C127.526 47.724 127.274 47.4 127.106 46.992L120.518 29.784L120.122 29.928L121.31 33.24V44.796C121.31 47.148 119.75 48.324 116.63 48.324V26.076ZM155.64 48.324C153.672 48.324 151.872 47.94 150.24 47.172C148.608 46.38 147.312 45.312 146.352 43.968C145.416 42.624 144.948 41.16 144.948 39.576V31.188C144.948 29.604 145.416 28.152 146.352 26.832C147.312 25.488 148.608 24.432 150.24 23.664C151.872 22.872 153.672 22.476 155.64 22.476C157.608 22.476 159.408 22.872 161.04 23.664C162.696 24.432 163.992 25.488 164.928 26.832C165.888 28.152 166.368 29.604 166.368 31.188V39.576C166.368 41.16 165.888 42.624 164.928 43.968C163.992 45.312 162.696 46.38 161.04 47.172C159.408 47.94 157.608 48.324 155.64 48.324ZM155.64 44.112C157.44 44.112 158.88 43.692 159.96 42.852C161.04 41.988 161.58 40.872 161.58 39.504V31.296C161.58 29.904 161.04 28.788 159.96 27.948C158.88 27.084 157.44 26.652 155.64 26.652C153.864 26.652 152.436 27.084 151.356 27.948C150.276 28.788 149.736 29.904 149.736 31.296V39.504C149.736 40.872 150.276 41.988 151.356 42.852C152.436 43.692 153.864 44.112 155.64 44.112ZM169.856 26.292C169.856 25.116 170.252 24.192 171.044 23.52C171.836 22.824 172.904 22.476 174.248 22.476L186.416 41.484L186.776 41.196L185.3 38.748V22.476C186.86 22.476 188.036 22.776 188.828 23.376C189.644 23.976 190.052 24.864 190.052 26.04V45.048C190.052 45.936 189.668 46.704 188.9 47.352C188.156 48 187.292 48.324 186.308 48.324L173.492 28.272L173.132 28.596L174.608 31.044V44.76C174.608 45.936 174.2 46.824 173.384 47.424C172.592 48.024 171.416 48.324 169.856 48.324V26.292ZM200.901 26.976H192.225C192.225 24.192 193.485 22.8 196.005 22.8H214.401C214.401 25.584 213.129 26.976 210.585 26.976H205.725V44.76C205.725 45.912 205.317 46.8 204.501 47.424C203.685 48.024 202.485 48.324 200.901 48.324V26.976ZM217.493 26.04C217.493 24.888 217.901 24.012 218.717 23.412C219.533 22.788 220.733 22.476 222.317 22.476V33.204H233.081V26.04C233.081 24.864 233.489 23.976 234.305 23.376C235.145 22.776 236.345 22.476 237.905 22.476V44.76C237.905 45.912 237.485 46.8 236.645 47.424C235.829 48.024 234.641 48.324 233.081 48.324V37.38H222.317V44.76C222.317 45.912 221.897 46.8 221.057 47.424C220.241 48.024 219.053 48.324 217.493 48.324V26.04ZM249.446 48.324C247.142 48.324 245.282 47.916 243.866 47.1C242.474 46.26 241.766 45.144 241.742 43.752C241.742 43.152 241.982 42.648 242.462 42.24C242.966 41.832 243.758 41.616 244.838 41.592C245.054 42.648 245.558 43.464 246.35 44.04C247.142 44.592 248.102 44.868 249.23 44.868C250.454 44.868 251.414 44.712 252.11 44.4C252.806 44.088 253.154 43.62 253.154 42.996C253.154 42.42 252.866 41.94 252.29 41.556C251.738 41.172 250.634 40.788 248.978 40.404C247.178 39.972 245.774 39.54 244.766 39.108C243.782 38.676 243.05 38.124 242.57 37.452C242.09 36.78 241.85 35.892 241.85 34.788C241.85 33.252 242.498 32.016 243.794 31.08C245.09 30.144 246.866 29.676 249.122 29.676C251.306 29.676 253.118 30.072 254.558 30.864C255.998 31.632 256.718 32.664 256.718 33.96C256.718 34.608 256.478 35.088 255.998 35.4C255.518 35.712 254.726 35.88 253.622 35.904C253.382 34.944 252.926 34.224 252.254 33.744C251.582 33.264 250.634 33.024 249.41 33.024C248.498 33.024 247.706 33.18 247.034 33.492C246.386 33.804 246.062 34.212 246.062 34.716C246.062 35.244 246.338 35.652 246.89 35.94C247.442 36.228 248.402 36.516 249.77 36.804C252.458 37.38 254.402 38.148 255.602 39.108C256.826 40.068 257.438 41.376 257.438 43.032C257.438 44.64 256.718 45.924 255.278 46.884C253.862 47.844 251.918 48.324 249.446 48.324Z" fill="black"/>
<path d="M75.5348 211.856H72.0788C70.4148 211.856 69.0921 211.259 68.1108 210.064C67.1294 208.827 66.6388 207.205 66.6388 205.2H79.6948C80.6761 205.2 81.5081 205.52 82.1908 206.16C82.9161 206.8 83.2788 207.589 83.2788 208.528V244.688C83.2788 246.565 82.6174 248.016 81.2948 249.04C79.9721 250.064 78.0521 250.576 75.5348 250.576V211.856ZM112.045 238.928H92.7168C91.6928 238.928 90.8821 238.651 90.2848 238.096C89.6874 237.541 89.3888 236.816 89.3888 235.92C89.3888 235.024 89.6661 234.235 90.2208 233.552L113.069 205.84C113.367 205.456 113.815 205.157 114.413 204.944C115.01 204.731 115.671 204.624 116.397 204.624C117.421 204.624 118.231 204.944 118.829 205.584C119.469 206.224 119.789 207.035 119.789 208.016V232.272H127.213C127.213 234.576 126.807 236.261 125.997 237.328C125.186 238.395 123.906 238.928 122.157 238.928H119.789V245.392C119.789 247.184 119.149 248.507 117.869 249.36C116.631 250.171 114.69 250.576 112.045 250.576V238.928ZM112.493 232.272V217.488L114.669 214.544L114.221 214.224L99.6288 232.272H112.493ZM184.696 237.84C184.696 241.637 183.16 244.667 180.088 246.928C177.059 249.189 172.963 250.405 167.8 250.576V253.968C167.8 255.035 167.523 255.845 166.968 256.4C166.414 256.955 165.624 257.232 164.6 257.232V250.512C159.566 250.213 155.598 249.04 152.696 246.992C149.795 244.944 148.344 242.341 148.344 239.184C148.344 235.728 150.52 234 154.872 234C154.958 237.029 155.832 239.397 157.496 241.104C159.16 242.811 161.528 243.835 164.6 244.176V230.096C160.803 229.2 157.774 228.176 155.512 227.024C153.294 225.872 151.672 224.464 150.648 222.8C149.667 221.136 149.176 219.109 149.176 216.72C149.176 213.264 150.563 210.448 153.336 208.272C156.152 206.096 159.907 204.901 164.6 204.688V201.168C164.6 200.144 164.878 199.355 165.432 198.8C165.987 198.245 166.776 197.968 167.8 197.968V204.688C170.744 204.816 173.347 205.349 175.608 206.288C177.912 207.184 179.704 208.4 180.984 209.936C182.307 211.429 182.968 213.136 182.968 215.056C182.968 218 180.899 219.536 176.76 219.664C176.419 216.848 175.544 214.736 174.136 213.328C172.728 211.92 170.616 211.109 167.8 210.896V224.016C171.982 224.997 175.288 226.085 177.72 227.28C180.195 228.475 181.966 229.925 183.032 231.632C184.142 233.296 184.696 235.365 184.696 237.84ZM156.792 216.72C156.792 218.427 157.347 219.771 158.456 220.752C159.608 221.691 161.656 222.544 164.6 223.312V210.896C162.083 211.067 160.142 211.664 158.776 212.688C157.454 213.669 156.792 215.013 156.792 216.72ZM167.8 244.304C170.83 244.176 173.134 243.579 174.712 242.512C176.334 241.403 177.144 239.845 177.144 237.84C177.144 236.645 176.867 235.664 176.312 234.896C175.758 234.085 174.819 233.381 173.496 232.784C172.174 232.144 170.275 231.504 167.8 230.864V244.304Z" fill="white"/>
<path d="M203.46 259.216C201.924 259.216 200.684 258.944 199.74 258.4C198.812 257.84 198.34 257.096 198.324 256.168C198.324 255.768 198.484 255.432 198.804 255.16C199.14 254.888 199.668 254.744 200.388 254.728C200.532 255.432 200.868 255.976 201.396 256.36C201.924 256.728 202.564 256.912 203.316 256.912C204.132 256.912 204.772 256.808 205.236 256.6C205.7 256.392 205.932 256.08 205.932 255.664C205.932 255.28 205.74 254.96 205.356 254.704C204.988 254.448 204.252 254.192 203.148 253.936C201.948 253.648 201.012 253.36 200.34 253.072C199.684 252.784 199.196 252.416 198.876 251.968C198.556 251.52 198.396 250.928 198.396 250.192C198.396 249.168 198.828 248.344 199.692 247.72C200.556 247.096 201.74 246.784 203.244 246.784C204.7 246.784 205.908 247.048 206.868 247.576C207.828 248.088 208.308 248.776 208.308 249.64C208.308 250.072 208.148 250.392 207.828 250.6C207.508 250.808 206.98 250.92 206.244 250.936C206.084 250.296 205.78 249.816 205.332 249.496C204.884 249.176 204.252 249.016 203.436 249.016C202.828 249.016 202.3 249.12 201.852 249.328C201.42 249.536 201.204 249.808 201.204 250.144C201.204 250.496 201.388 250.768 201.756 250.96C202.124 251.152 202.764 251.344 203.676 251.536C205.468 251.92 206.764 252.432 207.564 253.072C208.38 253.712 208.788 254.584 208.788 255.688C208.788 256.76 208.308 257.616 207.348 258.256C206.404 258.896 205.108 259.216 203.46 259.216ZM214.314 259.216C213.498 259.216 212.746 259.056 212.058 258.736C211.386 258.416 210.842 257.96 210.426 257.368C210.026 256.76 209.826 256.04 209.826 255.208C209.826 254.376 210.042 253.656 210.474 253.048C210.906 252.424 211.49 251.952 212.226 251.632C212.978 251.296 213.802 251.128 214.698 251.128C215.434 251.128 216.09 251.248 216.666 251.488C217.258 251.712 217.802 252.056 218.298 252.52L218.418 252.4C218.274 252.256 218.026 252.04 217.674 251.752V251.272C217.674 250.616 217.442 250.096 216.978 249.712C216.514 249.328 215.866 249.136 215.034 249.136C213.546 249.136 212.45 249.68 211.746 250.768C211.394 250.656 211.098 250.48 210.858 250.24C210.618 249.984 210.498 249.712 210.498 249.424C210.498 248.944 210.714 248.504 211.146 248.104C211.578 247.704 212.162 247.384 212.898 247.144C213.634 246.904 214.434 246.784 215.298 246.784C216.994 246.784 218.306 247.184 219.234 247.984C220.162 248.768 220.626 249.84 220.626 251.2V257.2C220.626 257.904 220.402 258.416 219.954 258.736C219.506 259.056 218.802 259.216 217.842 259.216V258.232C218.114 257.96 218.298 257.76 218.394 257.632L218.298 257.512C217.77 258.072 217.202 258.496 216.594 258.784C216.002 259.072 215.242 259.216 214.314 259.216ZM215.082 257.032C215.914 257.032 216.562 256.872 217.026 256.552C217.49 256.232 217.722 255.776 217.722 255.184C217.722 254.608 217.482 254.152 217.002 253.816C216.538 253.48 215.906 253.312 215.106 253.312C214.37 253.312 213.786 253.48 213.354 253.816C212.938 254.136 212.73 254.592 212.73 255.184C212.73 255.792 212.938 256.256 213.354 256.576C213.77 256.88 214.346 257.032 215.082 257.032ZM227.285 259.216C226.901 259.216 226.565 259.128 226.277 258.952C226.005 258.776 225.813 258.536 225.701 258.232L221.381 247.024C221.493 246.96 221.685 246.904 221.957 246.856C222.245 246.808 222.477 246.784 222.653 246.784C223.117 246.784 223.533 246.88 223.901 247.072C224.285 247.264 224.541 247.544 224.669 247.912L227.141 255.4L226.733 256.528L226.925 256.576L229.901 247.912C230.029 247.544 230.277 247.264 230.645 247.072C231.029 246.88 231.453 246.784 231.917 246.784C232.093 246.784 232.317 246.808 232.589 246.856C232.877 246.904 233.077 246.96 233.189 247.024L228.869 258.232C228.757 258.536 228.557 258.776 228.269 258.952C227.997 259.128 227.669 259.216 227.285 259.216ZM239.187 259.216C238.195 259.216 237.291 259.024 236.475 258.64C235.659 258.24 235.011 257.704 234.531 257.032C234.051 256.344 233.811 255.576 233.811 254.728V251.536C233.811 250.64 234.059 249.832 234.555 249.112C235.051 248.392 235.707 247.824 236.523 247.408C237.355 246.992 238.251 246.784 239.211 246.784C240.155 246.784 241.019 246.984 241.803 247.384C242.603 247.768 243.235 248.312 243.699 249.016C244.163 249.704 244.395 250.496 244.395 251.392V252.736C244.395 253.088 244.259 253.384 243.987 253.624C243.731 253.864 243.403 253.984 243.003 253.984H236.715V254.512C236.715 255.2 236.923 255.76 237.339 256.192C237.755 256.624 238.379 256.84 239.211 256.84C240.011 256.84 240.603 256.664 240.987 256.312C241.387 255.96 241.587 255.504 241.587 254.944C241.875 254.912 242.075 254.896 242.187 254.896C242.779 254.896 243.243 255.032 243.579 255.304C243.915 255.56 244.083 255.928 244.083 256.408C244.083 256.872 243.867 257.32 243.435 257.752C243.003 258.184 242.411 258.536 241.659 258.808C240.907 259.08 240.083 259.216 239.187 259.216ZM241.683 251.848V251.392C241.683 250.72 241.451 250.176 240.987 249.76C240.523 249.344 239.923 249.136 239.187 249.136C238.451 249.136 237.851 249.344 237.387 249.76C236.939 250.16 236.715 250.704 236.715 251.392V251.848H241.683ZM259.157 259.216C257.845 259.216 256.677 259.024 255.653 258.64C254.629 258.24 253.829 257.688 253.253 256.984C252.677 256.264 252.389 255.448 252.389 254.536C252.389 253.784 252.629 253.24 253.109 252.904C253.605 252.568 254.405 252.4 255.509 252.4C255.461 252.704 255.437 253.064 255.437 253.48C255.437 254.44 255.749 255.176 256.373 255.688C257.013 256.184 257.941 256.432 259.157 256.432C260.357 256.432 261.261 256.24 261.869 255.856C262.493 255.472 262.805 254.904 262.805 254.152C262.805 252.584 261.741 251.8 259.613 251.8H258.821C258.421 251.8 258.093 251.672 257.837 251.416C257.581 251.16 257.453 250.832 257.453 250.432C257.453 250.016 257.573 249.688 257.813 249.448C258.069 249.192 258.405 249.064 258.821 249.064H259.637C261.429 249.064 262.325 248.336 262.325 246.88C262.325 246.192 262.061 245.672 261.533 245.32C261.005 244.952 260.245 244.768 259.253 244.768C258.165 244.768 257.325 244.96 256.733 245.344C256.141 245.712 255.845 246.248 255.845 246.952C255.845 247.256 255.877 247.6 255.941 247.984C255.013 248.016 254.253 247.856 253.661 247.504C253.085 247.152 252.797 246.68 252.797 246.088C252.797 245.288 253.069 244.576 253.613 243.952C254.157 243.328 254.917 242.848 255.893 242.512C256.885 242.16 258.005 241.984 259.253 241.984C260.517 241.984 261.629 242.184 262.589 242.584C263.549 242.984 264.285 243.56 264.797 244.312C265.325 245.048 265.589 245.904 265.589 246.88C265.589 248.384 264.813 249.568 263.261 250.432C264.269 250.864 264.981 251.368 265.397 251.944C265.829 252.52 266.045 253.256 266.045 254.152C266.045 255.16 265.757 256.048 265.181 256.816C264.605 257.584 263.797 258.176 262.757 258.592C261.717 259.008 260.517 259.216 259.157 259.216ZM274.961 259.216C273.713 259.216 272.569 258.976 271.529 258.496C270.505 258.016 269.697 257.36 269.105 256.528C268.513 255.68 268.217 254.752 268.217 253.744V247.456C268.217 246.448 268.513 245.528 269.105 244.696C269.697 243.848 270.505 243.184 271.529 242.704C272.569 242.224 273.713 241.984 274.961 241.984C276.209 241.984 277.345 242.232 278.369 242.728C279.409 243.208 280.225 243.864 280.817 244.696C281.425 245.528 281.729 246.448 281.729 247.456V253.744C281.729 254.752 281.425 255.672 280.817 256.504C280.225 257.336 279.409 258 278.369 258.496C277.345 258.976 276.209 259.216 274.961 259.216ZM274.961 256.408C276.049 256.408 276.913 256.16 277.553 255.664C278.193 255.152 278.513 254.48 278.513 253.648V247.552C278.513 246.72 278.193 246.056 277.553 245.56C276.913 245.048 276.049 244.792 274.961 244.792C273.873 244.792 273.009 245.048 272.369 245.56C271.729 246.056 271.409 246.72 271.409 247.552V253.648C271.409 254.48 271.729 255.152 272.369 255.664C273.009 256.16 273.873 256.408 274.961 256.408ZM302.94 242.368C303.1 242.032 303.34 241.776 303.66 241.6C303.996 241.408 304.364 241.312 304.764 241.312C305.42 241.312 306.012 241.52 306.54 241.936L298.14 258.808C297.964 259.144 297.716 259.4 297.396 259.576C297.076 259.768 296.716 259.864 296.316 259.864C295.692 259.864 295.1 259.648 294.54 259.216L302.94 242.368ZM294.372 252.016C293.588 252.016 292.868 251.864 292.212 251.56C291.556 251.24 291.036 250.808 290.652 250.264C290.268 249.72 290.076 249.128 290.076 248.488V245.512C290.076 244.872 290.26 244.28 290.628 243.736C291.012 243.192 291.532 242.768 292.188 242.464C292.844 242.144 293.572 241.984 294.372 241.984C295.172 241.984 295.892 242.144 296.532 242.464C297.188 242.768 297.7 243.192 298.068 243.736C298.452 244.264 298.644 244.856 298.644 245.512V248.488C298.644 249.128 298.452 249.72 298.068 250.264C297.7 250.808 297.188 251.24 296.532 251.56C295.876 251.864 295.156 252.016 294.372 252.016ZM294.372 249.52C294.788 249.52 295.108 249.416 295.332 249.208C295.556 248.984 295.668 248.712 295.668 248.392V245.608C295.668 245.288 295.548 245.024 295.308 244.816C295.084 244.592 294.772 244.48 294.372 244.48C293.956 244.48 293.628 244.592 293.388 244.816C293.148 245.024 293.028 245.288 293.028 245.608V248.392C293.028 248.712 293.14 248.984 293.364 249.208C293.604 249.416 293.94 249.52 294.372 249.52ZM306.66 259.216C305.86 259.216 305.132 259.056 304.476 258.736C303.82 258.416 303.3 257.992 302.916 257.464C302.548 256.92 302.364 256.328 302.364 255.688V252.712C302.364 252.072 302.548 251.48 302.916 250.936C303.3 250.392 303.82 249.968 304.476 249.664C305.132 249.344 305.86 249.184 306.66 249.184C307.46 249.184 308.18 249.344 308.82 249.664C309.476 249.968 309.988 250.392 310.356 250.936C310.724 251.464 310.908 252.056 310.908 252.712V255.688C310.908 256.328 310.716 256.92 310.332 257.464C309.964 257.992 309.452 258.416 308.796 258.736C308.156 259.056 307.444 259.216 306.66 259.216ZM306.804 256.648C307.22 256.648 307.556 256.544 307.812 256.336C308.068 256.112 308.196 255.84 308.196 255.52V252.88C308.196 252.56 308.06 252.296 307.788 252.088C307.532 251.864 307.204 251.752 306.804 251.752C306.372 251.752 306.02 251.864 305.748 252.088C305.492 252.296 305.364 252.56 305.364 252.88V255.52C305.364 255.824 305.492 256.088 305.748 256.312C306.02 256.536 306.372 256.648 306.804 256.648Z" fill="#EEC800"/>
<path d="M98.0967 93.578H93.8687C93.6447 93.578 93.4674 93.5173 93.3367 93.396C93.206 93.2747 93.1407 93.116 93.1407 92.92C93.1407 92.724 93.2014 92.5513 93.3227 92.402L98.3207 86.34C98.386 86.256 98.484 86.1907 98.6147 86.144C98.7454 86.0973 98.89 86.074 99.0487 86.074C99.2727 86.074 99.45 86.144 99.5807 86.284C99.7207 86.424 99.7907 86.6013 99.7907 86.816V92.122H101.415C101.415 92.626 101.326 92.9947 101.149 93.228C100.971 93.4613 100.691 93.578 100.309 93.578H99.7907V94.992C99.7907 95.384 99.6507 95.6733 99.3707 95.86C99.1 96.0373 98.6754 96.126 98.0967 96.126V93.578ZM98.1947 92.122V88.888L98.6707 88.244L98.5727 88.174L95.3807 92.122H98.1947ZM102.722 87.376C102.722 86.956 102.867 86.634 103.156 86.41C103.455 86.186 103.87 86.074 104.402 86.074V90.666L109.232 86.074C109.447 86.2327 109.619 86.4053 109.75 86.592C109.881 86.7787 109.946 86.942 109.946 87.082C109.946 87.2127 109.899 87.348 109.806 87.488C109.713 87.628 109.582 87.7773 109.414 87.936L106.446 90.722L110.422 95.608C110.151 95.9533 109.82 96.126 109.428 96.126C109.008 96.126 108.667 95.9673 108.406 95.65L105.284 91.786L104.402 92.612V94.894C104.402 95.314 104.267 95.6267 103.996 95.832C103.725 96.028 103.301 96.126 102.722 96.126V87.376ZM116.488 86.256C116.582 86.0693 116.717 85.9247 116.894 85.822C117.072 85.7193 117.268 85.668 117.482 85.668C117.8 85.668 118.108 85.7753 118.406 85.99L113.45 95.93C113.357 96.1167 113.222 96.2567 113.044 96.35C112.876 96.4527 112.685 96.504 112.47 96.504C112.153 96.504 111.845 96.392 111.546 96.168L116.488 86.256ZM119.853 86.97C119.853 86.7553 119.932 86.5733 120.091 86.424C120.259 86.2747 120.464 86.2 120.707 86.2H127.007C127.007 86.704 126.913 87.0727 126.727 87.306C126.549 87.5393 126.265 87.656 125.873 87.656H121.533V90.26H125.327C125.327 90.764 125.233 91.1327 125.047 91.366C124.869 91.5993 124.585 91.716 124.193 91.716H121.533V94.88C121.533 95.3187 121.397 95.636 121.127 95.832C120.865 96.028 120.441 96.126 119.853 96.126V86.97ZM128.384 87.362C128.384 86.942 128.524 86.6247 128.804 86.41C129.093 86.186 129.513 86.074 130.064 86.074V90.33H134.516V87.362C134.516 86.942 134.661 86.6247 134.95 86.41C135.239 86.186 135.659 86.074 136.21 86.074V94.838C136.21 95.2487 136.065 95.566 135.776 95.79C135.487 96.014 135.067 96.126 134.516 96.126V91.8H130.064V94.838C130.064 95.258 129.919 95.58 129.63 95.804C129.35 96.0187 128.935 96.126 128.384 96.126V87.362ZM138.808 96C138.566 96 138.36 95.9253 138.192 95.776C138.034 95.6267 137.954 95.44 137.954 95.216V86.97C137.954 86.7553 138.034 86.5733 138.192 86.424C138.36 86.2747 138.566 86.2 138.808 86.2H141.972C142.784 86.2 143.503 86.354 144.128 86.662C144.763 86.97 145.253 87.404 145.598 87.964C145.944 88.524 146.116 89.168 146.116 89.896V92.262C146.116 92.99 145.939 93.6387 145.584 94.208C145.239 94.768 144.749 95.2067 144.114 95.524C143.489 95.8413 142.775 96 141.972 96H138.808ZM141.832 94.544C142.663 94.544 143.302 94.348 143.75 93.956C144.208 93.564 144.436 93.0087 144.436 92.29V89.882C144.436 89.1633 144.212 88.6127 143.764 88.23C143.316 87.8473 142.672 87.656 141.832 87.656H139.634V94.544H141.832ZM152.295 86.256C152.388 86.0693 152.524 85.9247 152.701 85.822C152.878 85.7193 153.074 85.668 153.289 85.668C153.606 85.668 153.914 85.7753 154.213 85.99L149.257 95.93C149.164 96.1167 149.028 96.2567 148.851 96.35C148.683 96.4527 148.492 96.504 148.277 96.504C147.96 96.504 147.652 96.392 147.353 96.168L152.295 86.256ZM155.659 87.362C155.659 86.942 155.799 86.6247 156.079 86.41C156.369 86.186 156.789 86.074 157.339 86.074V90.33H161.791V87.362C161.791 86.942 161.936 86.6247 162.225 86.41C162.515 86.186 162.935 86.074 163.485 86.074V94.838C163.485 95.2487 163.341 95.566 163.051 95.79C162.762 96.014 162.342 96.126 161.791 96.126V91.8H157.339V94.838C157.339 95.258 157.195 95.58 156.905 95.804C156.625 96.0187 156.21 96.126 155.659 96.126V87.362ZM166.084 96C165.841 96 165.636 95.9253 165.468 95.776C165.309 95.6267 165.23 95.44 165.23 95.216V86.97C165.23 86.7553 165.309 86.5733 165.468 86.424C165.636 86.2747 165.841 86.2 166.084 86.2H169.248C170.06 86.2 170.778 86.354 171.404 86.662C172.038 86.97 172.528 87.404 172.874 87.964C173.219 88.524 173.392 89.168 173.392 89.896V92.262C173.392 92.99 173.214 93.6387 172.86 94.208C172.514 94.768 172.024 95.2067 171.39 95.524C170.764 95.8413 170.05 96 169.248 96H166.084ZM169.108 94.544C169.938 94.544 170.578 94.348 171.026 93.956C171.483 93.564 171.712 93.0087 171.712 92.29V89.882C171.712 89.1633 171.488 88.6127 171.04 88.23C170.592 87.8473 169.948 87.656 169.108 87.656H166.91V94.544H169.108ZM179.57 86.256C179.664 86.0693 179.799 85.9247 179.976 85.822C180.154 85.7193 180.35 85.668 180.564 85.668C180.882 85.668 181.19 85.7753 181.488 85.99L176.532 95.93C176.439 96.1167 176.304 96.2567 176.126 96.35C175.958 96.4527 175.767 96.504 175.552 96.504C175.235 96.504 174.927 96.392 174.628 96.168L179.57 86.256ZM186.659 96.126C185.837 96.126 185.123 96.0187 184.517 95.804C183.91 95.5893 183.443 95.2953 183.117 94.922C182.799 94.5487 182.641 94.1193 182.641 93.634C182.641 92.878 183.117 92.5 184.069 92.5C184.087 93.2373 184.321 93.7973 184.769 94.18C185.226 94.5627 185.865 94.754 186.687 94.754C187.405 94.754 187.961 94.6327 188.353 94.39C188.745 94.1473 188.941 93.7973 188.941 93.34C188.941 93.0507 188.866 92.8173 188.717 92.64C188.567 92.4533 188.315 92.29 187.961 92.15C187.606 92.0007 187.093 91.8513 186.421 91.702C185.525 91.506 184.815 91.2773 184.293 91.016C183.779 90.7547 183.406 90.442 183.173 90.078C182.939 89.714 182.823 89.2613 182.823 88.72C182.823 88.1973 182.977 87.7353 183.285 87.334C183.593 86.9327 184.027 86.6247 184.587 86.41C185.147 86.186 185.795 86.074 186.533 86.074C187.233 86.074 187.863 86.172 188.423 86.368C188.983 86.5547 189.421 86.8207 189.739 87.166C190.056 87.5113 190.215 87.908 190.215 88.356C190.215 89 189.762 89.336 188.857 89.364C188.782 88.692 188.558 88.202 188.185 87.894C187.821 87.586 187.27 87.432 186.533 87.432C185.879 87.432 185.375 87.544 185.021 87.768C184.666 87.992 184.489 88.3093 184.489 88.72C184.489 89 184.554 89.2333 184.685 89.42C184.825 89.5973 185.053 89.756 185.371 89.896C185.688 90.0267 186.145 90.1573 186.743 90.288C187.695 90.5027 188.451 90.7453 189.011 91.016C189.571 91.2773 189.972 91.5947 190.215 91.968C190.467 92.332 190.593 92.7893 190.593 93.34C190.593 93.9093 190.429 94.404 190.103 94.824C189.785 95.244 189.328 95.566 188.731 95.79C188.143 96.014 187.452 96.126 186.659 96.126ZM192.894 96C192.652 96 192.446 95.9253 192.278 95.776C192.12 95.6267 192.04 95.44 192.04 95.216V86.97C192.04 86.7553 192.12 86.5733 192.278 86.424C192.446 86.2747 192.652 86.2 192.894 86.2H196.058C196.87 86.2 197.589 86.354 198.214 86.662C198.849 86.97 199.339 87.404 199.684 87.964C200.03 88.524 200.202 89.168 200.202 89.896V92.262C200.202 92.99 200.025 93.6387 199.67 94.208C199.325 94.768 198.835 95.2067 198.2 95.524C197.575 95.8413 196.861 96 196.058 96H192.894ZM195.918 94.544C196.749 94.544 197.388 94.348 197.836 93.956C198.294 93.564 198.522 93.0087 198.522 92.29V89.882C198.522 89.1633 198.298 88.6127 197.85 88.23C197.402 87.8473 196.758 87.656 195.918 87.656H193.72V94.544H195.918ZM212.622 96.42C212.333 96.42 212.067 96.35 211.824 96.21C211.582 96.07 211.386 95.8833 211.236 95.65C210.602 95.9673 209.916 96.126 209.178 96.126C208.413 96.126 207.713 95.972 207.078 95.664C206.453 95.356 205.958 94.9407 205.594 94.418C205.23 93.8953 205.048 93.3213 205.048 92.696V89.49C205.048 88.8647 205.226 88.2907 205.58 87.768C205.944 87.2453 206.439 86.8347 207.064 86.536C207.699 86.228 208.404 86.074 209.178 86.074C209.953 86.074 210.653 86.228 211.278 86.536C211.913 86.8347 212.408 87.2453 212.762 87.768C213.126 88.2907 213.308 88.8647 213.308 89.49V92.696C213.308 93.116 213.224 93.5173 213.056 93.9C212.898 94.2733 212.664 94.6 212.356 94.88C212.487 95.0573 212.66 95.1927 212.874 95.286C213.098 95.37 213.332 95.4027 213.574 95.384C213.574 95.7387 213.495 96 213.336 96.168C213.187 96.336 212.949 96.42 212.622 96.42ZM211.32 93.578C211.526 93.3447 211.628 93.046 211.628 92.682V89.518C211.628 88.9207 211.404 88.4447 210.956 88.09C210.518 87.726 209.925 87.544 209.178 87.544C208.432 87.544 207.834 87.726 207.386 88.09C206.948 88.4447 206.728 88.9207 206.728 89.518V92.01C207.092 91.8887 207.438 91.828 207.764 91.828C208.52 91.828 209.174 91.9587 209.724 92.22C210.284 92.4813 210.816 92.934 211.32 93.578ZM209.178 94.67C209.589 94.67 209.99 94.6 210.382 94.46C210 93.9093 209.608 93.5407 209.206 93.354C208.805 93.1673 208.296 93.074 207.68 93.074C207.438 93.074 207.148 93.1253 206.812 93.228C206.952 93.6667 207.228 94.0167 207.638 94.278C208.058 94.5393 208.572 94.67 209.178 94.67ZM221.085 94.88C221.085 95.2813 220.959 95.5893 220.707 95.804C220.464 96.0187 220.091 96.126 219.587 96.126V95.258C219.671 95.1553 219.778 95.0153 219.909 94.838L219.825 94.782C219.545 95.202 219.199 95.5333 218.789 95.776C218.387 96.0093 217.93 96.126 217.417 96.126C216.931 96.126 216.493 96.0187 216.101 95.804C215.718 95.58 215.419 95.2767 215.205 94.894C214.99 94.502 214.883 94.0587 214.883 93.564V89.882C214.883 89.5273 215.009 89.2707 215.261 89.112C215.522 88.9533 215.923 88.874 216.465 88.874V93.466C216.465 93.8673 216.581 94.1847 216.815 94.418C217.048 94.642 217.393 94.754 217.851 94.754C218.345 94.754 218.747 94.6047 219.055 94.306C219.363 94.0073 219.517 93.634 219.517 93.186V89.882C219.517 89.5273 219.643 89.2707 219.895 89.112C220.156 88.9533 220.553 88.874 221.085 88.874V94.88ZM225.167 96.126C224.672 96.126 224.224 96.0327 223.823 95.846C223.422 95.6593 223.104 95.3887 222.871 95.034C222.638 94.6793 222.521 94.264 222.521 93.788C222.521 93.3027 222.642 92.8827 222.885 92.528C223.137 92.164 223.478 91.8887 223.907 91.702C224.336 91.506 224.817 91.408 225.349 91.408C226.198 91.408 226.912 91.6973 227.491 92.276L227.561 92.206C227.393 92.038 227.258 91.9167 227.155 91.842V91.45C227.155 91.0393 227.015 90.7173 226.735 90.484C226.455 90.2413 226.063 90.12 225.559 90.12C225.111 90.12 224.719 90.2087 224.383 90.386C224.047 90.554 223.776 90.806 223.571 91.142C223.384 91.0767 223.226 90.974 223.095 90.834C222.974 90.694 222.913 90.5447 222.913 90.386C222.913 90.1153 223.039 89.8633 223.291 89.63C223.543 89.3967 223.879 89.2147 224.299 89.084C224.728 88.944 225.19 88.874 225.685 88.874C226.637 88.874 227.374 89.1027 227.897 89.56C228.429 90.008 228.695 90.624 228.695 91.408V95.034C228.695 95.4167 228.578 95.6967 228.345 95.874C228.112 96.042 227.738 96.126 227.225 96.126V95.524C227.393 95.356 227.505 95.2347 227.561 95.16L227.491 95.104C227.192 95.44 226.856 95.6967 226.483 95.874C226.119 96.042 225.68 96.126 225.167 96.126ZM225.531 94.95C226.044 94.95 226.446 94.8473 226.735 94.642C227.034 94.4367 227.183 94.1473 227.183 93.774C227.183 93.4007 227.034 93.1113 226.735 92.906C226.446 92.6913 226.049 92.584 225.545 92.584C225.088 92.584 224.724 92.6913 224.453 92.906C224.192 93.1113 224.061 93.4007 224.061 93.774C224.061 94.1567 224.192 94.4507 224.453 94.656C224.714 94.852 225.074 94.95 225.531 94.95ZM232.588 96.126C231.841 96.126 231.281 95.916 230.908 95.496C230.534 95.076 230.348 94.5347 230.348 93.872V87.082C230.348 86.7273 230.474 86.4707 230.726 86.312C230.987 86.1533 231.384 86.074 231.916 86.074V93.816C231.916 94.152 231.986 94.3947 232.126 94.544C232.275 94.684 232.513 94.754 232.84 94.754C233.204 94.754 233.535 94.6653 233.834 94.488C233.918 94.5627 233.983 94.6607 234.03 94.782C234.076 94.894 234.1 95.006 234.1 95.118C234.1 95.3793 233.964 95.6127 233.694 95.818C233.432 96.0233 233.064 96.126 232.588 96.126ZM236.485 88.076C236.177 88.076 235.921 87.9827 235.715 87.796C235.51 87.6 235.407 87.3573 235.407 87.068C235.407 86.7787 235.51 86.5407 235.715 86.354C235.921 86.1673 236.177 86.074 236.485 86.074C236.793 86.074 237.05 86.1673 237.255 86.354C237.461 86.5407 237.563 86.7787 237.563 87.068C237.563 87.3573 237.461 87.6 237.255 87.796C237.05 87.9827 236.793 88.076 236.485 88.076ZM235.701 89.882C235.701 89.5273 235.832 89.2707 236.093 89.112C236.355 88.9533 236.747 88.874 237.269 88.874V95.118C237.269 95.4727 237.139 95.7293 236.877 95.888C236.616 96.0467 236.224 96.126 235.701 96.126V89.882ZM242.153 96.126C241.425 96.126 240.884 95.916 240.529 95.496C240.184 95.076 240.011 94.5347 240.011 93.872V90.19H238.611C238.611 89.7887 238.69 89.49 238.849 89.294C239.008 89.098 239.222 89 239.493 89H240.025V87.782C240.025 87.4273 240.151 87.1707 240.403 87.012C240.664 86.8533 241.052 86.774 241.565 86.774V89H243.427C243.427 89.42 243.343 89.7233 243.175 89.91C243.007 90.0967 242.741 90.19 242.377 90.19H241.579V93.816C241.579 94.152 241.644 94.3947 241.775 94.544C241.906 94.684 242.134 94.754 242.461 94.754C242.788 94.754 243.11 94.6653 243.427 94.488C243.511 94.5627 243.572 94.656 243.609 94.768C243.656 94.88 243.679 94.9967 243.679 95.118C243.679 95.3793 243.544 95.6127 243.273 95.818C243.002 96.0233 242.629 96.126 242.153 96.126ZM245.657 98.926C245.321 98.926 245.059 98.814 244.873 98.59C244.686 98.366 244.588 98.0393 244.579 97.61C244.84 97.6567 245.064 97.68 245.251 97.68C245.624 97.68 245.918 97.5727 246.133 97.358C246.357 97.1527 246.595 96.7653 246.847 96.196L247.099 95.636L244.369 89C244.434 88.9627 244.537 88.9347 244.677 88.916C244.826 88.888 244.952 88.874 245.055 88.874C245.297 88.874 245.517 88.93 245.713 89.042C245.918 89.1447 246.058 89.294 246.133 89.49L247.757 93.718L247.547 94.334L247.645 94.376L249.563 89.49C249.647 89.294 249.787 89.1447 249.983 89.042C250.179 88.93 250.398 88.874 250.641 88.874C250.743 88.874 250.865 88.888 251.005 88.916C251.154 88.9347 251.261 88.9627 251.327 89L248.191 96.658C247.873 97.4233 247.519 97.9927 247.127 98.366C246.735 98.7393 246.245 98.926 245.657 98.926Z" fill="white"/>
<path d="M62.1325 97.3525L55.3075 90.972C54.8975 90.5887 54.8975 89.9671 55.3075 89.5838L56.7924 88.1956C57.2024 87.8122 57.8673 87.8122 58.2773 88.1956L62.875 92.4937L72.7227 83.2875C73.1327 82.9042 73.7976 82.9042 74.2076 83.2875L75.6925 84.6757C76.1025 85.059 76.1025 85.6806 75.6925 86.0639L63.6175 97.3525C63.2074 97.7358 62.5426 97.7358 62.1325 97.3525Z" fill="#84FF65"/>
<path d="M98.2428 122.108H95.6148C95.6148 121.724 95.6988 121.424 95.8668 121.208C96.0348 120.984 96.2868 120.872 96.6228 120.872H98.2428V119.492C98.2428 119.124 98.3588 118.86 98.5908 118.7C98.8308 118.54 99.1868 118.46 99.6588 118.46V120.872H102.275C102.275 121.264 102.191 121.568 102.023 121.784C101.855 122 101.603 122.108 101.267 122.108H99.6588V123.512C99.6588 124.2 99.1868 124.544 98.2428 124.544V122.108ZM106.544 125.108C105.904 125.108 105.332 125.012 104.828 124.82C104.324 124.62 103.932 124.344 103.652 123.992C103.372 123.64 103.232 123.24 103.232 122.792C103.232 122.448 103.344 122.196 103.568 122.036C103.792 121.876 104.152 121.796 104.648 121.796C104.624 121.964 104.612 122.136 104.612 122.312C104.612 122.808 104.776 123.188 105.104 123.452C105.432 123.708 105.912 123.836 106.544 123.836C107.824 123.836 108.464 123.424 108.464 122.6C108.464 122.184 108.32 121.868 108.032 121.652C107.744 121.436 107.32 121.328 106.76 121.328H106.352C106.176 121.328 106.028 121.272 105.908 121.16C105.796 121.04 105.74 120.892 105.74 120.716C105.74 120.524 105.796 120.372 105.908 120.26C106.02 120.148 106.168 120.092 106.352 120.092H106.772C107.236 120.092 107.592 119.988 107.84 119.78C108.096 119.572 108.224 119.28 108.224 118.904C108.224 118.536 108.084 118.252 107.804 118.052C107.524 117.852 107.124 117.752 106.604 117.752C106.036 117.752 105.596 117.852 105.284 118.052C104.98 118.252 104.828 118.54 104.828 118.916C104.828 119.068 104.844 119.228 104.876 119.396C104.452 119.412 104.108 119.34 103.844 119.18C103.58 119.012 103.448 118.788 103.448 118.508C103.448 118.116 103.58 117.768 103.844 117.464C104.116 117.16 104.492 116.924 104.972 116.756C105.452 116.58 105.996 116.492 106.604 116.492C107.22 116.492 107.76 116.592 108.224 116.792C108.696 116.992 109.056 117.276 109.304 117.644C109.56 118.004 109.688 118.424 109.688 118.904C109.688 119.68 109.284 120.28 108.476 120.704C108.996 120.928 109.368 121.188 109.592 121.484C109.816 121.772 109.928 122.144 109.928 122.6C109.928 123.104 109.788 123.548 109.508 123.932C109.228 124.308 108.832 124.6 108.32 124.808C107.816 125.008 107.224 125.108 106.544 125.108ZM114.388 125.108C113.78 125.108 113.22 124.992 112.708 124.76C112.204 124.52 111.804 124.196 111.508 123.788C111.212 123.38 111.064 122.928 111.064 122.432V119.168C111.064 118.672 111.212 118.22 111.508 117.812C111.804 117.404 112.204 117.084 112.708 116.852C113.22 116.612 113.78 116.492 114.388 116.492C115.004 116.492 115.564 116.612 116.068 116.852C116.58 117.084 116.98 117.404 117.268 117.812C117.564 118.22 117.712 118.672 117.712 119.168V122.432C117.712 122.928 117.564 123.38 117.268 123.788C116.972 124.196 116.568 124.52 116.056 124.76C115.552 124.992 114.996 125.108 114.388 125.108ZM114.388 123.836C114.956 123.836 115.412 123.704 115.756 123.44C116.1 123.176 116.272 122.824 116.272 122.384V119.204C116.272 118.772 116.1 118.424 115.756 118.16C115.412 117.896 114.956 117.764 114.388 117.764C113.828 117.764 113.376 117.896 113.032 118.16C112.688 118.424 112.516 118.772 112.516 119.204V122.384C112.516 122.824 112.684 123.176 113.02 123.44C113.364 123.704 113.82 123.836 114.388 123.836ZM122.357 125.108C121.749 125.108 121.189 124.992 120.677 124.76C120.173 124.52 119.773 124.196 119.477 123.788C119.181 123.38 119.033 122.928 119.033 122.432V119.168C119.033 118.672 119.181 118.22 119.477 117.812C119.773 117.404 120.173 117.084 120.677 116.852C121.189 116.612 121.749 116.492 122.357 116.492C122.973 116.492 123.533 116.612 124.037 116.852C124.549 117.084 124.949 117.404 125.237 117.812C125.533 118.22 125.681 118.672 125.681 119.168V122.432C125.681 122.928 125.533 123.38 125.237 123.788C124.941 124.196 124.537 124.52 124.025 124.76C123.521 124.992 122.965 125.108 122.357 125.108ZM122.357 123.836C122.925 123.836 123.381 123.704 123.725 123.44C124.069 123.176 124.241 122.824 124.241 122.384V119.204C124.241 118.772 124.069 118.424 123.725 118.16C123.381 117.896 122.925 117.764 122.357 117.764C121.797 117.764 121.345 117.896 121.001 118.16C120.657 118.424 120.485 118.772 120.485 119.204V122.384C120.485 122.824 120.653 123.176 120.989 123.44C121.333 123.704 121.789 123.836 122.357 123.836ZM130.326 125.108C129.718 125.108 129.158 124.992 128.646 124.76C128.142 124.52 127.742 124.196 127.446 123.788C127.15 123.38 127.002 122.928 127.002 122.432V119.168C127.002 118.672 127.15 118.22 127.446 117.812C127.742 117.404 128.142 117.084 128.646 116.852C129.158 116.612 129.718 116.492 130.326 116.492C130.942 116.492 131.502 116.612 132.006 116.852C132.518 117.084 132.918 117.404 133.206 117.812C133.502 118.22 133.65 118.672 133.65 119.168V122.432C133.65 122.928 133.502 123.38 133.206 123.788C132.91 124.196 132.506 124.52 131.994 124.76C131.49 124.992 130.934 125.108 130.326 125.108ZM130.326 123.836C130.894 123.836 131.35 123.704 131.694 123.44C132.038 123.176 132.21 122.824 132.21 122.384V119.204C132.21 118.772 132.038 118.424 131.694 118.16C131.35 117.896 130.894 117.764 130.326 117.764C129.766 117.764 129.314 117.896 128.97 118.16C128.626 118.424 128.454 118.772 128.454 119.204V122.384C128.454 122.824 128.622 123.176 128.958 123.44C129.302 123.704 129.758 123.836 130.326 123.836ZM138.295 125.108C137.687 125.108 137.127 124.992 136.615 124.76C136.111 124.52 135.711 124.196 135.415 123.788C135.119 123.38 134.971 122.928 134.971 122.432V119.168C134.971 118.672 135.119 118.22 135.415 117.812C135.711 117.404 136.111 117.084 136.615 116.852C137.127 116.612 137.687 116.492 138.295 116.492C138.911 116.492 139.471 116.612 139.975 116.852C140.487 117.084 140.887 117.404 141.175 117.812C141.471 118.22 141.619 118.672 141.619 119.168V122.432C141.619 122.928 141.471 123.38 141.175 123.788C140.879 124.196 140.475 124.52 139.963 124.76C139.459 124.992 138.903 125.108 138.295 125.108ZM138.295 123.836C138.863 123.836 139.319 123.704 139.663 123.44C140.007 123.176 140.179 122.824 140.179 122.384V119.204C140.179 118.772 140.007 118.424 139.663 118.16C139.319 117.896 138.863 117.764 138.295 117.764C137.735 117.764 137.283 117.896 136.939 118.16C136.595 118.424 136.423 118.772 136.423 119.204V122.384C136.423 122.824 136.591 123.176 136.927 123.44C137.271 123.704 137.727 123.836 138.295 123.836ZM149.549 125.108C148.853 125.108 148.229 124.976 147.677 124.712C147.133 124.44 146.709 124.068 146.405 123.596C146.101 123.116 145.949 122.572 145.949 121.964V119.6C145.949 118.992 146.097 118.456 146.393 117.992C146.697 117.52 147.117 117.152 147.653 116.888C148.197 116.624 148.813 116.492 149.501 116.492C150.197 116.492 150.813 116.6 151.349 116.816C151.885 117.024 152.301 117.32 152.597 117.704C152.901 118.08 153.053 118.512 153.053 119C153.053 119.28 152.961 119.5 152.777 119.66C152.593 119.812 152.345 119.888 152.033 119.888C151.881 119.888 151.737 119.872 151.601 119.84C151.625 119.72 151.637 119.54 151.637 119.3C151.637 118.844 151.437 118.472 151.037 118.184C150.645 117.896 150.133 117.752 149.501 117.752C148.877 117.752 148.369 117.924 147.977 118.268C147.585 118.612 147.389 119.056 147.389 119.6V121.964C147.389 122.516 147.589 122.968 147.989 123.32C148.389 123.664 148.909 123.836 149.549 123.836C150.181 123.836 150.697 123.696 151.097 123.416C151.497 123.128 151.697 122.756 151.697 122.3C151.697 122.076 151.685 121.904 151.661 121.784C151.789 121.752 151.929 121.736 152.081 121.736C152.393 121.736 152.641 121.82 152.825 121.988C153.017 122.156 153.113 122.384 153.113 122.672C153.113 123.144 152.961 123.564 152.657 123.932C152.361 124.3 151.941 124.588 151.397 124.796C150.853 125.004 150.237 125.108 149.549 125.108ZM154.344 117.56C154.344 117.216 154.456 116.952 154.68 116.768C154.912 116.584 155.248 116.492 155.688 116.492V119.624C155.568 119.76 155.472 119.884 155.4 119.996L155.472 120.044C155.728 119.684 156.032 119.404 156.384 119.204C156.744 118.996 157.148 118.892 157.596 118.892C158.012 118.892 158.376 118.984 158.688 119.168C159 119.344 159.24 119.592 159.408 119.912C159.584 120.232 159.672 120.588 159.672 120.98V124.244C159.672 124.548 159.56 124.768 159.336 124.904C159.112 125.04 158.776 125.108 158.328 125.108V121.16C158.328 120.832 158.228 120.568 158.028 120.368C157.836 120.16 157.552 120.056 157.176 120.056C156.76 120.056 156.408 120.188 156.12 120.452C155.832 120.708 155.688 121.024 155.688 121.4V124.244C155.688 124.548 155.576 124.768 155.352 124.904C155.128 125.04 154.792 125.108 154.344 125.108V117.56ZM163.051 125.108C162.627 125.108 162.243 125.028 161.899 124.868C161.555 124.708 161.283 124.476 161.083 124.172C160.883 123.868 160.783 123.512 160.783 123.104C160.783 122.688 160.887 122.328 161.095 122.024C161.311 121.712 161.603 121.476 161.971 121.316C162.339 121.148 162.751 121.064 163.207 121.064C163.935 121.064 164.547 121.312 165.043 121.808L165.103 121.748C164.959 121.604 164.843 121.5 164.755 121.436V121.1C164.755 120.748 164.635 120.472 164.395 120.272C164.155 120.064 163.819 119.96 163.387 119.96C163.003 119.96 162.667 120.036 162.379 120.188C162.091 120.332 161.859 120.548 161.683 120.836C161.523 120.78 161.387 120.692 161.275 120.572C161.171 120.452 161.119 120.324 161.119 120.188C161.119 119.956 161.227 119.74 161.443 119.54C161.659 119.34 161.947 119.184 162.307 119.072C162.675 118.952 163.071 118.892 163.495 118.892C164.311 118.892 164.943 119.088 165.391 119.48C165.847 119.864 166.075 120.392 166.075 121.064V124.172C166.075 124.5 165.975 124.74 165.775 124.892C165.575 125.036 165.255 125.108 164.815 125.108V124.592C164.959 124.448 165.055 124.344 165.103 124.28L165.043 124.232C164.787 124.52 164.499 124.74 164.179 124.892C163.867 125.036 163.491 125.108 163.051 125.108ZM163.363 124.1C163.803 124.1 164.147 124.012 164.395 123.836C164.651 123.66 164.779 123.412 164.779 123.092C164.779 122.772 164.651 122.524 164.395 122.348C164.147 122.164 163.807 122.072 163.375 122.072C162.983 122.072 162.671 122.164 162.439 122.348C162.215 122.524 162.103 122.772 162.103 123.092C162.103 123.42 162.215 123.672 162.439 123.848C162.663 124.016 162.971 124.1 163.363 124.1ZM167.527 119.96C167.527 119.248 167.955 118.892 168.811 118.892V119.624C168.715 119.728 168.623 119.852 168.535 119.996L168.607 120.044C168.839 119.692 169.143 119.412 169.519 119.204C169.903 118.996 170.323 118.892 170.779 118.892C171.195 118.892 171.559 118.984 171.871 119.168C172.183 119.344 172.423 119.592 172.591 119.912C172.767 120.232 172.855 120.588 172.855 120.98V124.244C172.855 124.548 172.743 124.768 172.519 124.904C172.295 125.04 171.959 125.108 171.511 125.108V121.16C171.511 120.832 171.411 120.568 171.211 120.368C171.019 120.16 170.735 120.056 170.359 120.056C169.943 120.056 169.591 120.188 169.303 120.452C169.015 120.708 168.871 121.024 168.871 121.4V124.244C168.871 124.548 168.759 124.768 168.535 124.904C168.319 125.04 167.983 125.108 167.527 125.108V119.96ZM174.266 119.96C174.266 119.248 174.694 118.892 175.55 118.892V119.624C175.454 119.728 175.362 119.852 175.274 119.996L175.346 120.044C175.578 119.692 175.882 119.412 176.258 119.204C176.642 118.996 177.062 118.892 177.518 118.892C177.934 118.892 178.298 118.984 178.61 119.168C178.922 119.344 179.162 119.592 179.33 119.912C179.506 120.232 179.594 120.588 179.594 120.98V124.244C179.594 124.548 179.482 124.768 179.258 124.904C179.034 125.04 178.698 125.108 178.25 125.108V121.16C178.25 120.832 178.15 120.568 177.95 120.368C177.758 120.16 177.474 120.056 177.098 120.056C176.682 120.056 176.33 120.188 176.042 120.452C175.754 120.708 175.61 121.024 175.61 121.4V124.244C175.61 124.548 175.498 124.768 175.274 124.904C175.058 125.04 174.722 125.108 174.266 125.108V119.96ZM183.548 125.108C183.06 125.108 182.612 125.012 182.204 124.82C181.804 124.628 181.488 124.364 181.256 124.028C181.024 123.684 180.908 123.3 180.908 122.876V121.22C180.908 120.78 181.028 120.384 181.268 120.032C181.508 119.68 181.832 119.404 182.24 119.204C182.648 118.996 183.088 118.892 183.56 118.892C184.032 118.892 184.46 118.988 184.844 119.18C185.236 119.372 185.544 119.644 185.768 119.996C186 120.34 186.116 120.728 186.116 121.16V121.868C186.116 122.028 186.056 122.164 185.936 122.276C185.816 122.388 185.664 122.444 185.48 122.444H182.216V122.792C182.216 123.16 182.328 123.456 182.552 123.68C182.784 123.904 183.12 124.016 183.56 124.016C183.992 124.016 184.316 123.924 184.532 123.74C184.748 123.548 184.856 123.296 184.856 122.984C184.904 122.976 184.976 122.972 185.072 122.972C185.344 122.972 185.56 123.036 185.72 123.164C185.888 123.284 185.972 123.456 185.972 123.68C185.972 123.92 185.864 124.152 185.648 124.376C185.432 124.592 185.136 124.768 184.76 124.904C184.392 125.04 183.988 125.108 183.548 125.108ZM184.88 121.448V121.16C184.88 120.8 184.756 120.512 184.508 120.296C184.268 120.072 183.948 119.96 183.548 119.96C183.148 119.96 182.824 120.072 182.576 120.296C182.336 120.512 182.216 120.8 182.216 121.16V121.448H184.88ZM189.24 125.108C188.6 125.108 188.12 124.928 187.8 124.568C187.48 124.208 187.32 123.744 187.32 123.176V117.356C187.32 117.052 187.428 116.832 187.644 116.696C187.868 116.56 188.208 116.492 188.664 116.492V123.128C188.664 123.416 188.724 123.624 188.844 123.752C188.972 123.872 189.176 123.932 189.456 123.932C189.768 123.932 190.052 123.856 190.308 123.704C190.38 123.768 190.436 123.852 190.476 123.956C190.516 124.052 190.536 124.148 190.536 124.244C190.536 124.468 190.42 124.668 190.188 124.844C189.964 125.02 189.648 125.108 189.24 125.108ZM193.833 125.108C193.105 125.108 192.505 124.968 192.033 124.688C191.569 124.408 191.337 124.036 191.337 123.572C191.337 123.14 191.641 122.912 192.249 122.888C192.321 123.272 192.497 123.564 192.777 123.764C193.057 123.956 193.397 124.052 193.797 124.052C194.229 124.052 194.565 123.996 194.805 123.884C195.045 123.764 195.165 123.588 195.165 123.356C195.165 123.132 195.061 122.956 194.853 122.828C194.653 122.692 194.265 122.556 193.689 122.42C193.121 122.292 192.673 122.156 192.345 122.012C192.017 121.868 191.769 121.684 191.601 121.46C191.441 121.236 191.361 120.94 191.361 120.572C191.361 120.076 191.573 119.672 191.997 119.36C192.429 119.048 193.005 118.892 193.725 118.892C194.421 118.892 195.005 119.02 195.477 119.276C195.949 119.532 196.185 119.872 196.185 120.296C196.185 120.504 196.105 120.66 195.945 120.764C195.793 120.868 195.557 120.924 195.237 120.932C195.109 120.252 194.625 119.912 193.785 119.912C193.457 119.912 193.181 119.972 192.957 120.092C192.741 120.212 192.633 120.368 192.633 120.56C192.633 120.76 192.729 120.916 192.921 121.028C193.121 121.132 193.453 121.232 193.917 121.328C194.797 121.512 195.437 121.76 195.837 122.072C196.237 122.384 196.437 122.812 196.437 123.356C196.437 123.892 196.205 124.32 195.741 124.64C195.277 124.952 194.641 125.108 193.833 125.108Z" fill="white"/>
<path d="M62.1325 127.352L55.3075 120.972C54.8975 120.589 54.8975 119.967 55.3075 119.584L56.7924 118.196C57.2024 117.812 57.8673 117.812 58.2773 118.196L62.875 122.494L72.7227 113.287C73.1327 112.904 73.7976 112.904 74.2076 113.287L75.6925 114.676C76.1025 115.059 76.1025 115.681 75.6925 116.064L63.6175 127.353C63.2074 127.736 62.5426 127.736 62.1325 127.352Z" fill="#84FF65"/>
<path d="M96.4713 146.108H93.8433C93.8433 145.724 93.9273 145.424 94.0953 145.208C94.2633 144.984 94.5153 144.872 94.8513 144.872H96.4713V143.492C96.4713 143.124 96.5873 142.86 96.8193 142.7C97.0593 142.54 97.4153 142.46 97.8873 142.46V144.872H100.503C100.503 145.264 100.419 145.568 100.251 145.784C100.083 146 99.8313 146.108 99.4953 146.108H97.8873V147.512C97.8873 148.2 97.4153 148.544 96.4713 148.544V146.108ZM104.7 149.108C104.1 149.108 103.552 149.012 103.056 148.82C102.56 148.62 102.168 148.348 101.88 148.004C101.6 147.66 101.46 147.28 101.46 146.864C101.46 146.536 101.552 146.296 101.736 146.144C101.92 145.984 102.208 145.904 102.6 145.904L102.828 145.916C102.804 146.06 102.792 146.212 102.792 146.372C102.792 146.836 102.96 147.196 103.296 147.452C103.632 147.708 104.1 147.836 104.7 147.836C105.308 147.836 105.78 147.672 106.116 147.344C106.452 147.016 106.62 146.552 106.62 145.952C106.62 145.368 106.452 144.92 106.116 144.608C105.78 144.296 105.3 144.14 104.676 144.14C103.996 144.14 103.436 144.328 102.996 144.704C102.828 144.84 102.64 144.908 102.432 144.908C102.232 144.908 102.06 144.848 101.916 144.728C101.78 144.6 101.712 144.44 101.712 144.248C101.712 144.2 101.716 144.164 101.724 144.14L102.216 141.116C102.24 140.948 102.312 140.82 102.432 140.732C102.56 140.644 102.724 140.6 102.924 140.6H107.64C107.64 141.424 107.296 141.836 106.608 141.836H103.332L103.104 143.288C102.904 143.424 102.748 143.552 102.636 143.672L102.684 143.744C102.988 143.496 103.352 143.3 103.776 143.156C104.2 143.004 104.612 142.928 105.012 142.928C105.94 142.928 106.672 143.2 107.208 143.744C107.752 144.28 108.024 145.016 108.024 145.952C108.024 146.592 107.888 147.152 107.616 147.632C107.352 148.104 106.968 148.468 106.464 148.724C105.968 148.98 105.38 149.108 104.7 149.108ZM112.488 149.108C111.88 149.108 111.32 148.992 110.808 148.76C110.304 148.52 109.904 148.196 109.608 147.788C109.312 147.38 109.164 146.928 109.164 146.432V143.168C109.164 142.672 109.312 142.22 109.608 141.812C109.904 141.404 110.304 141.084 110.808 140.852C111.32 140.612 111.88 140.492 112.488 140.492C113.104 140.492 113.664 140.612 114.168 140.852C114.68 141.084 115.08 141.404 115.368 141.812C115.664 142.22 115.812 142.672 115.812 143.168V146.432C115.812 146.928 115.664 147.38 115.368 147.788C115.072 148.196 114.668 148.52 114.156 148.76C113.652 148.992 113.096 149.108 112.488 149.108ZM112.488 147.836C113.056 147.836 113.512 147.704 113.856 147.44C114.2 147.176 114.372 146.824 114.372 146.384V143.204C114.372 142.772 114.2 142.424 113.856 142.16C113.512 141.896 113.056 141.764 112.488 141.764C111.928 141.764 111.476 141.896 111.132 142.16C110.788 142.424 110.616 142.772 110.616 143.204V146.384C110.616 146.824 110.784 147.176 111.12 147.44C111.464 147.704 111.92 147.836 112.488 147.836ZM120.457 149.108C119.849 149.108 119.289 148.992 118.777 148.76C118.273 148.52 117.873 148.196 117.577 147.788C117.281 147.38 117.133 146.928 117.133 146.432V143.168C117.133 142.672 117.281 142.22 117.577 141.812C117.873 141.404 118.273 141.084 118.777 140.852C119.289 140.612 119.849 140.492 120.457 140.492C121.073 140.492 121.633 140.612 122.137 140.852C122.649 141.084 123.049 141.404 123.337 141.812C123.633 142.22 123.781 142.672 123.781 143.168V146.432C123.781 146.928 123.633 147.38 123.337 147.788C123.041 148.196 122.637 148.52 122.125 148.76C121.621 148.992 121.065 149.108 120.457 149.108ZM120.457 147.836C121.025 147.836 121.481 147.704 121.825 147.44C122.169 147.176 122.341 146.824 122.341 146.384V143.204C122.341 142.772 122.169 142.424 121.825 142.16C121.481 141.896 121.025 141.764 120.457 141.764C119.897 141.764 119.445 141.896 119.101 142.16C118.757 142.424 118.585 142.772 118.585 143.204V146.384C118.585 146.824 118.753 147.176 119.089 147.44C119.433 147.704 119.889 147.836 120.457 147.836ZM128.425 149.108C127.817 149.108 127.257 148.992 126.745 148.76C126.241 148.52 125.841 148.196 125.545 147.788C125.249 147.38 125.101 146.928 125.101 146.432V143.168C125.101 142.672 125.249 142.22 125.545 141.812C125.841 141.404 126.241 141.084 126.745 140.852C127.257 140.612 127.817 140.492 128.425 140.492C129.041 140.492 129.601 140.612 130.105 140.852C130.617 141.084 131.017 141.404 131.305 141.812C131.601 142.22 131.749 142.672 131.749 143.168V146.432C131.749 146.928 131.601 147.38 131.305 147.788C131.009 148.196 130.605 148.52 130.093 148.76C129.589 148.992 129.033 149.108 128.425 149.108ZM128.425 147.836C128.993 147.836 129.449 147.704 129.793 147.44C130.137 147.176 130.309 146.824 130.309 146.384V143.204C130.309 142.772 130.137 142.424 129.793 142.16C129.449 141.896 128.993 141.764 128.425 141.764C127.865 141.764 127.413 141.896 127.069 142.16C126.725 142.424 126.553 142.772 126.553 143.204V146.384C126.553 146.824 126.721 147.176 127.057 147.44C127.401 147.704 127.857 147.836 128.425 147.836ZM136.394 149.108C135.786 149.108 135.226 148.992 134.714 148.76C134.21 148.52 133.81 148.196 133.514 147.788C133.218 147.38 133.07 146.928 133.07 146.432V143.168C133.07 142.672 133.218 142.22 133.514 141.812C133.81 141.404 134.21 141.084 134.714 140.852C135.226 140.612 135.786 140.492 136.394 140.492C137.01 140.492 137.57 140.612 138.074 140.852C138.586 141.084 138.986 141.404 139.274 141.812C139.57 142.22 139.718 142.672 139.718 143.168V146.432C139.718 146.928 139.57 147.38 139.274 147.788C138.978 148.196 138.574 148.52 138.062 148.76C137.558 148.992 137.002 149.108 136.394 149.108ZM136.394 147.836C136.962 147.836 137.418 147.704 137.762 147.44C138.106 147.176 138.278 146.824 138.278 146.384V143.204C138.278 142.772 138.106 142.424 137.762 142.16C137.418 141.896 136.962 141.764 136.394 141.764C135.834 141.764 135.382 141.896 135.038 142.16C134.694 142.424 134.522 142.772 134.522 143.204V146.384C134.522 146.824 134.69 147.176 135.026 147.44C135.37 147.704 135.826 147.836 136.394 147.836ZM147.733 149.108C147.381 149.108 147.145 148.948 147.025 148.628L143.953 140.636C144.025 140.596 144.121 140.564 144.241 140.54C144.361 140.508 144.473 140.492 144.577 140.492C144.857 140.492 145.089 140.556 145.273 140.684C145.465 140.804 145.605 140.98 145.693 141.212L147.649 146.696L147.397 147.416L147.517 147.464L149.761 141.212C149.945 140.732 150.321 140.492 150.889 140.492C150.985 140.492 151.089 140.508 151.201 140.54C151.321 140.564 151.421 140.596 151.501 140.636L148.441 148.628C148.385 148.78 148.293 148.9 148.165 148.988C148.045 149.068 147.901 149.108 147.733 149.108ZM155.286 149.108C154.63 149.108 154.03 148.976 153.486 148.712C152.95 148.448 152.526 148.092 152.214 147.644C151.902 147.196 151.746 146.704 151.746 146.168V143.42C151.746 142.884 151.898 142.392 152.202 141.944C152.514 141.496 152.938 141.144 153.474 140.888C154.018 140.624 154.622 140.492 155.286 140.492C155.95 140.492 156.55 140.624 157.086 140.888C157.63 141.144 158.054 141.496 158.358 141.944C158.67 142.392 158.826 142.884 158.826 143.42V146.168C158.826 146.704 158.67 147.196 158.358 147.644C158.046 148.092 157.618 148.448 157.074 148.712C156.538 148.976 155.942 149.108 155.286 149.108ZM155.286 147.848C155.926 147.848 156.434 147.692 156.81 147.38C157.194 147.068 157.386 146.656 157.386 146.144V143.444C157.386 142.932 157.194 142.524 156.81 142.22C156.434 141.908 155.926 141.752 155.286 141.752C154.646 141.752 154.134 141.908 153.75 142.22C153.374 142.524 153.186 142.932 153.186 143.444V146.144C153.186 146.656 153.374 147.068 153.75 147.38C154.134 147.692 154.646 147.848 155.286 147.848ZM160.793 149C160.585 149 160.409 148.936 160.265 148.808C160.129 148.68 160.061 148.52 160.061 148.328V141.26C160.061 141.076 160.129 140.92 160.265 140.792C160.409 140.664 160.585 140.6 160.793 140.6H163.505C164.201 140.6 164.817 140.732 165.353 140.996C165.897 141.26 166.317 141.632 166.613 142.112C166.909 142.592 167.057 143.144 167.057 143.768V145.796C167.057 146.42 166.905 146.976 166.601 147.464C166.305 147.944 165.885 148.32 165.341 148.592C164.805 148.864 164.193 149 163.505 149H160.793ZM163.385 147.752C164.097 147.752 164.645 147.584 165.029 147.248C165.421 146.912 165.617 146.436 165.617 145.82V143.756C165.617 143.14 165.425 142.668 165.041 142.34C164.657 142.012 164.105 141.848 163.385 141.848H161.501V147.752H163.385Z" fill="white"/>
<path d="M62.1325 153.352L55.3075 146.972C54.8975 146.589 54.8975 145.967 55.3075 145.584L56.7924 144.196C57.2024 143.812 57.8673 143.812 58.2773 144.196L62.875 148.494L72.7227 139.287C73.1327 138.904 73.7976 138.904 74.2076 139.287L75.6925 140.676C76.1025 141.059 76.1025 141.681 75.6925 142.064L63.6175 153.353C63.2074 153.736 62.5426 153.736 62.1325 153.352Z" fill="#84FF65"/>
<path d="M94.1813 181C93.9813 181 93.8173 180.944 93.6893 180.832C93.5693 180.712 93.5093 180.56 93.5093 180.376C93.5093 179.752 93.7493 179.18 94.2293 178.66C94.7173 178.132 95.4853 177.62 96.5333 177.124C97.0613 176.868 97.4613 176.644 97.7333 176.452C98.0133 176.252 98.2093 176.048 98.3213 175.84C98.4333 175.632 98.4893 175.38 98.4893 175.084C98.4893 174.66 98.3453 174.336 98.0573 174.112C97.7773 173.88 97.3733 173.764 96.8453 173.764C96.2533 173.764 95.8013 173.892 95.4893 174.148C95.1773 174.404 95.0213 174.78 95.0213 175.276C95.0213 175.476 95.0373 175.652 95.0693 175.804C94.9573 175.82 94.8693 175.828 94.8053 175.828C94.4693 175.828 94.1813 175.728 93.9413 175.528C93.7013 175.328 93.5813 175.084 93.5813 174.796C93.5813 174.364 93.7253 173.972 94.0133 173.62C94.3013 173.268 94.6933 172.992 95.1893 172.792C95.6853 172.592 96.2373 172.492 96.8453 172.492C97.4693 172.492 98.0133 172.6 98.4773 172.816C98.9493 173.024 99.3133 173.324 99.5693 173.716C99.8253 174.108 99.9533 174.564 99.9533 175.084C99.9533 175.668 99.7373 176.196 99.3053 176.668C98.8813 177.14 98.2053 177.6 97.2773 178.048C96.5813 178.384 96.0613 178.692 95.7173 178.972C95.3733 179.244 95.1813 179.504 95.1413 179.752H98.9573C99.3253 179.752 99.6013 179.86 99.7853 180.076C99.9773 180.284 100.073 180.592 100.073 181H94.1813ZM105.161 178.924H101.537C101.345 178.924 101.193 178.872 101.081 178.768C100.969 178.664 100.913 178.528 100.913 178.36C100.913 178.192 100.965 178.044 101.069 177.916L105.353 172.72C105.409 172.648 105.493 172.592 105.605 172.552C105.717 172.512 105.841 172.492 105.977 172.492C106.169 172.492 106.321 172.552 106.433 172.672C106.553 172.792 106.613 172.944 106.613 173.128V177.676H108.005C108.005 178.108 107.929 178.424 107.777 178.624C107.625 178.824 107.385 178.924 107.057 178.924H106.613V180.136C106.613 180.472 106.493 180.72 106.253 180.88C106.021 181.032 105.657 181.108 105.161 181.108V178.924ZM105.245 177.676V174.904L105.653 174.352L105.569 174.292L102.833 177.676H105.245ZM113.085 172.648C113.165 172.488 113.281 172.364 113.433 172.276C113.585 172.188 113.753 172.144 113.937 172.144C114.209 172.144 114.473 172.236 114.729 172.42L110.481 180.94C110.401 181.1 110.285 181.22 110.133 181.3C109.989 181.388 109.825 181.432 109.641 181.432C109.369 181.432 109.105 181.336 108.849 181.144L113.085 172.648ZM120.349 173.848H116.593C116.265 173.848 116.013 173.74 115.837 173.524C115.661 173.308 115.573 173 115.573 172.6H121.441C121.649 172.6 121.813 172.66 121.933 172.78C122.061 172.892 122.125 173.032 122.125 173.2C122.125 173.304 122.101 173.412 122.053 173.524L118.501 180.628C118.333 180.948 118.069 181.108 117.709 181.108C117.525 181.108 117.365 181.088 117.229 181.048C117.093 181.008 116.965 180.936 116.845 180.832L120.349 173.848ZM129.76 181.108C129.064 181.108 128.44 180.976 127.888 180.712C127.344 180.44 126.92 180.068 126.616 179.596C126.312 179.116 126.16 178.572 126.16 177.964V175.6C126.16 174.992 126.308 174.456 126.604 173.992C126.908 173.52 127.328 173.152 127.864 172.888C128.408 172.624 129.024 172.492 129.712 172.492C130.408 172.492 131.024 172.6 131.56 172.816C132.096 173.024 132.512 173.32 132.808 173.704C133.112 174.08 133.264 174.512 133.264 175C133.264 175.28 133.172 175.5 132.988 175.66C132.804 175.812 132.556 175.888 132.244 175.888C132.092 175.888 131.948 175.872 131.812 175.84C131.836 175.72 131.848 175.54 131.848 175.3C131.848 174.844 131.648 174.472 131.248 174.184C130.856 173.896 130.344 173.752 129.712 173.752C129.088 173.752 128.58 173.924 128.188 174.268C127.796 174.612 127.6 175.056 127.6 175.6V177.964C127.6 178.516 127.8 178.968 128.2 179.32C128.6 179.664 129.12 179.836 129.76 179.836C130.392 179.836 130.908 179.696 131.308 179.416C131.708 179.128 131.908 178.756 131.908 178.3C131.908 178.076 131.896 177.904 131.872 177.784C132 177.752 132.14 177.736 132.292 177.736C132.604 177.736 132.852 177.82 133.036 177.988C133.228 178.156 133.324 178.384 133.324 178.672C133.324 179.144 133.172 179.564 132.868 179.932C132.572 180.3 132.152 180.588 131.608 180.796C131.064 181.004 130.448 181.108 129.76 181.108ZM139.751 180.04C139.751 180.384 139.643 180.648 139.427 180.832C139.219 181.016 138.899 181.108 138.467 181.108V180.364C138.539 180.276 138.631 180.156 138.743 180.004L138.671 179.956C138.431 180.316 138.135 180.6 137.783 180.808C137.439 181.008 137.047 181.108 136.607 181.108C136.191 181.108 135.815 181.016 135.479 180.832C135.151 180.64 134.895 180.38 134.711 180.052C134.527 179.716 134.435 179.336 134.435 178.912V175.756C134.435 175.452 134.543 175.232 134.759 175.096C134.983 174.96 135.327 174.892 135.791 174.892V178.828C135.791 179.172 135.891 179.444 136.091 179.644C136.291 179.836 136.587 179.932 136.979 179.932C137.403 179.932 137.747 179.804 138.011 179.548C138.275 179.292 138.407 178.972 138.407 178.588V175.756C138.407 175.452 138.515 175.232 138.731 175.096C138.955 174.96 139.295 174.892 139.751 174.892V180.04ZM143.61 181.108C142.882 181.108 142.282 180.968 141.81 180.688C141.346 180.408 141.114 180.036 141.114 179.572C141.114 179.14 141.418 178.912 142.026 178.888C142.098 179.272 142.274 179.564 142.554 179.764C142.834 179.956 143.174 180.052 143.574 180.052C144.006 180.052 144.342 179.996 144.582 179.884C144.822 179.764 144.942 179.588 144.942 179.356C144.942 179.132 144.838 178.956 144.63 178.828C144.43 178.692 144.042 178.556 143.466 178.42C142.898 178.292 142.45 178.156 142.122 178.012C141.794 177.868 141.546 177.684 141.378 177.46C141.218 177.236 141.138 176.94 141.138 176.572C141.138 176.076 141.35 175.672 141.774 175.36C142.206 175.048 142.782 174.892 143.502 174.892C144.198 174.892 144.782 175.02 145.254 175.276C145.726 175.532 145.962 175.872 145.962 176.296C145.962 176.504 145.882 176.66 145.722 176.764C145.57 176.868 145.334 176.924 145.014 176.932C144.886 176.252 144.402 175.912 143.562 175.912C143.234 175.912 142.958 175.972 142.734 176.092C142.518 176.212 142.41 176.368 142.41 176.56C142.41 176.76 142.506 176.916 142.698 177.028C142.898 177.132 143.23 177.232 143.694 177.328C144.574 177.512 145.214 177.76 145.614 178.072C146.014 178.384 146.214 178.812 146.214 179.356C146.214 179.892 145.982 180.32 145.518 180.64C145.054 180.952 144.418 181.108 143.61 181.108ZM149.56 181.108C148.936 181.108 148.472 180.928 148.168 180.568C147.872 180.208 147.724 179.744 147.724 179.176V176.02H146.524C146.524 175.676 146.592 175.42 146.728 175.252C146.864 175.084 147.048 175 147.28 175H147.736V173.956C147.736 173.652 147.844 173.432 148.06 173.296C148.284 173.16 148.616 173.092 149.056 173.092V175H150.652C150.652 175.36 150.58 175.62 150.436 175.78C150.292 175.94 150.064 176.02 149.752 176.02H149.068V179.128C149.068 179.416 149.124 179.624 149.236 179.752C149.348 179.872 149.544 179.932 149.824 179.932C150.104 179.932 150.38 179.856 150.652 179.704C150.724 179.768 150.776 179.848 150.808 179.944C150.848 180.04 150.868 180.14 150.868 180.244C150.868 180.468 150.752 180.668 150.52 180.844C150.288 181.02 149.968 181.108 149.56 181.108ZM154.171 181.108C153.659 181.108 153.195 181.016 152.779 180.832C152.371 180.64 152.047 180.38 151.807 180.052C151.575 179.724 151.459 179.352 151.459 178.936V177.16C151.459 176.736 151.575 176.352 151.807 176.008C152.039 175.664 152.359 175.392 152.767 175.192C153.183 174.992 153.651 174.892 154.171 174.892C154.691 174.892 155.155 174.992 155.563 175.192C155.979 175.392 156.303 175.664 156.535 176.008C156.767 176.352 156.883 176.736 156.883 177.16V178.936C156.883 179.352 156.763 179.724 156.523 180.052C156.291 180.38 155.967 180.64 155.551 180.832C155.143 181.016 154.683 181.108 154.171 181.108ZM154.171 179.944C154.595 179.944 154.931 179.848 155.179 179.656C155.427 179.456 155.551 179.188 155.551 178.852V177.22C155.551 176.868 155.427 176.584 155.179 176.368C154.931 176.152 154.595 176.044 154.171 176.044C153.747 176.044 153.411 176.152 153.163 176.368C152.915 176.584 152.791 176.868 152.791 177.22V178.852C152.791 179.188 152.915 179.456 153.163 179.656C153.411 179.848 153.747 179.944 154.171 179.944ZM157.969 175.96C157.969 175.248 158.393 174.892 159.241 174.892V175.624C159.113 175.768 159.021 175.892 158.965 175.996L159.025 176.044C159.281 175.668 159.549 175.384 159.829 175.192C160.109 174.992 160.441 174.892 160.825 174.892C161.521 174.892 162.009 175.236 162.289 175.924C162.497 175.596 162.753 175.344 163.057 175.168C163.361 174.984 163.713 174.892 164.113 174.892C164.665 174.892 165.097 175.088 165.409 175.48C165.729 175.872 165.889 176.372 165.889 176.98V180.244C165.889 180.548 165.781 180.768 165.565 180.904C165.349 181.04 165.017 181.108 164.569 181.108V177.088C164.569 176.76 164.497 176.504 164.353 176.32C164.209 176.128 163.989 176.032 163.693 176.032C163.381 176.032 163.117 176.14 162.901 176.356C162.693 176.564 162.589 176.876 162.589 177.292V180.244C162.589 180.548 162.481 180.768 162.265 180.904C162.049 181.04 161.721 181.108 161.281 181.108V177.088C161.281 176.384 160.993 176.032 160.417 176.032C160.073 176.032 159.797 176.152 159.589 176.392C159.389 176.632 159.289 176.944 159.289 177.328V180.244C159.289 180.548 159.181 180.768 158.965 180.904C158.749 181.04 158.417 181.108 157.969 181.108V175.96ZM169.853 181.108C169.365 181.108 168.917 181.012 168.509 180.82C168.109 180.628 167.793 180.364 167.561 180.028C167.329 179.684 167.213 179.3 167.213 178.876V177.22C167.213 176.78 167.333 176.384 167.573 176.032C167.813 175.68 168.137 175.404 168.545 175.204C168.953 174.996 169.393 174.892 169.865 174.892C170.337 174.892 170.765 174.988 171.149 175.18C171.541 175.372 171.849 175.644 172.073 175.996C172.305 176.34 172.421 176.728 172.421 177.16V177.868C172.421 178.028 172.361 178.164 172.241 178.276C172.121 178.388 171.969 178.444 171.785 178.444H168.521V178.792C168.521 179.16 168.633 179.456 168.857 179.68C169.089 179.904 169.425 180.016 169.865 180.016C170.297 180.016 170.621 179.924 170.837 179.74C171.053 179.548 171.161 179.296 171.161 178.984C171.209 178.976 171.281 178.972 171.377 178.972C171.649 178.972 171.865 179.036 172.025 179.164C172.193 179.284 172.277 179.456 172.277 179.68C172.277 179.92 172.169 180.152 171.953 180.376C171.737 180.592 171.441 180.768 171.065 180.904C170.697 181.04 170.293 181.108 169.853 181.108ZM171.185 177.448V177.16C171.185 176.8 171.061 176.512 170.813 176.296C170.573 176.072 170.253 175.96 169.853 175.96C169.453 175.96 169.129 176.072 168.881 176.296C168.641 176.512 168.521 176.8 168.521 177.16V177.448H171.185ZM176.588 176.056C176.124 176.056 175.744 176.188 175.448 176.452C175.152 176.708 175.004 177.024 175.004 177.4V180.244C175.004 180.548 174.892 180.768 174.668 180.904C174.452 181.04 174.116 181.108 173.66 181.108V175.96C173.66 175.248 174.088 174.892 174.944 174.892V175.612C174.832 175.74 174.74 175.868 174.668 175.996L174.728 176.044C175.248 175.276 175.884 174.892 176.636 174.892C176.956 174.892 177.2 174.976 177.368 175.144C177.536 175.304 177.62 175.508 177.62 175.756C177.62 175.94 177.572 176.104 177.476 176.248C177.244 176.12 176.948 176.056 176.588 176.056ZM185.02 181.108C184.316 181.108 183.704 181.016 183.184 180.832C182.664 180.648 182.264 180.396 181.984 180.076C181.712 179.756 181.576 179.388 181.576 178.972C181.576 178.324 181.984 178 182.8 178C182.816 178.632 183.016 179.112 183.4 179.44C183.792 179.768 184.34 179.932 185.044 179.932C185.66 179.932 186.136 179.828 186.472 179.62C186.808 179.412 186.976 179.112 186.976 178.72C186.976 178.472 186.912 178.272 186.784 178.12C186.656 177.96 186.44 177.82 186.136 177.7C185.832 177.572 185.392 177.444 184.816 177.316C184.048 177.148 183.44 176.952 182.992 176.728C182.552 176.504 182.232 176.236 182.032 175.924C181.832 175.612 181.732 175.224 181.732 174.76C181.732 174.312 181.864 173.916 182.128 173.572C182.392 173.228 182.764 172.964 183.244 172.78C183.724 172.588 184.28 172.492 184.912 172.492C185.512 172.492 186.052 172.576 186.532 172.744C187.012 172.904 187.388 173.132 187.66 173.428C187.932 173.724 188.068 174.064 188.068 174.448C188.068 175 187.68 175.288 186.904 175.312C186.84 174.736 186.648 174.316 186.328 174.052C186.016 173.788 185.544 173.656 184.912 173.656C184.352 173.656 183.92 173.752 183.616 173.944C183.312 174.136 183.16 174.408 183.16 174.76C183.16 175 183.216 175.2 183.328 175.36C183.448 175.512 183.644 175.648 183.916 175.768C184.188 175.88 184.58 175.992 185.092 176.104C185.908 176.288 186.556 176.496 187.036 176.728C187.516 176.952 187.86 177.224 188.068 177.544C188.284 177.856 188.392 178.248 188.392 178.72C188.392 179.208 188.252 179.632 187.972 179.992C187.7 180.352 187.308 180.628 186.796 180.82C186.292 181.012 185.7 181.108 185.02 181.108ZM194.829 180.04C194.829 180.384 194.721 180.648 194.505 180.832C194.297 181.016 193.977 181.108 193.545 181.108V180.364C193.617 180.276 193.709 180.156 193.821 180.004L193.749 179.956C193.509 180.316 193.213 180.6 192.861 180.808C192.517 181.008 192.125 181.108 191.685 181.108C191.269 181.108 190.893 181.016 190.557 180.832C190.229 180.64 189.973 180.38 189.789 180.052C189.605 179.716 189.513 179.336 189.513 178.912V175.756C189.513 175.452 189.621 175.232 189.837 175.096C190.061 174.96 190.405 174.892 190.869 174.892V178.828C190.869 179.172 190.969 179.444 191.169 179.644C191.369 179.836 191.665 179.932 192.057 179.932C192.481 179.932 192.825 179.804 193.089 179.548C193.353 179.292 193.485 178.972 193.485 178.588V175.756C193.485 175.452 193.593 175.232 193.809 175.096C194.033 174.96 194.373 174.892 194.829 174.892V180.04ZM196.336 175.864C196.336 175.584 196.44 175.352 196.648 175.168C196.856 174.984 197.168 174.892 197.584 174.892V175.552C197.48 175.68 197.404 175.784 197.356 175.864L197.404 175.912C197.652 175.584 197.932 175.332 198.244 175.156C198.556 174.98 198.94 174.892 199.396 174.892C200.068 174.892 200.612 175.088 201.028 175.48C201.452 175.872 201.664 176.388 201.664 177.028V178.972C201.664 179.396 201.56 179.772 201.352 180.1C201.144 180.42 200.856 180.668 200.488 180.844C200.128 181.02 199.716 181.108 199.252 181.108C198.932 181.108 198.612 181.04 198.292 180.904C197.972 180.768 197.7 180.588 197.476 180.364L197.44 180.424C197.488 180.488 197.572 180.572 197.692 180.676V182.56C197.692 183.192 197.24 183.508 196.336 183.508V175.864ZM199 179.932C199.424 179.932 199.748 179.844 199.972 179.668C200.204 179.484 200.32 179.228 200.32 178.9V177.112C200.32 176.768 200.204 176.508 199.972 176.332C199.748 176.148 199.424 176.056 199 176.056C198.616 176.056 198.3 176.152 198.052 176.344C197.804 176.536 197.68 176.772 197.68 177.052V178.948C197.68 179.228 197.8 179.464 198.04 179.656C198.28 179.84 198.6 179.932 199 179.932ZM202.981 175.864C202.981 175.584 203.085 175.352 203.293 175.168C203.501 174.984 203.813 174.892 204.229 174.892V175.552C204.125 175.68 204.049 175.784 204.001 175.864L204.049 175.912C204.297 175.584 204.577 175.332 204.889 175.156C205.201 174.98 205.585 174.892 206.041 174.892C206.713 174.892 207.257 175.088 207.673 175.48C208.097 175.872 208.309 176.388 208.309 177.028V178.972C208.309 179.396 208.205 179.772 207.997 180.1C207.789 180.42 207.501 180.668 207.133 180.844C206.773 181.02 206.361 181.108 205.897 181.108C205.577 181.108 205.257 181.04 204.937 180.904C204.617 180.768 204.345 180.588 204.121 180.364L204.085 180.424C204.133 180.488 204.217 180.572 204.337 180.676V182.56C204.337 183.192 203.885 183.508 202.981 183.508V175.864ZM205.645 179.932C206.069 179.932 206.393 179.844 206.617 179.668C206.849 179.484 206.965 179.228 206.965 178.9V177.112C206.965 176.768 206.849 176.508 206.617 176.332C206.393 176.148 206.069 176.056 205.645 176.056C205.261 176.056 204.945 176.152 204.697 176.344C204.449 176.536 204.325 176.772 204.325 177.052V178.948C204.325 179.228 204.445 179.464 204.685 179.656C204.925 179.84 205.245 179.932 205.645 179.932ZM211.827 181.108C211.315 181.108 210.851 181.016 210.435 180.832C210.027 180.64 209.703 180.38 209.463 180.052C209.231 179.724 209.115 179.352 209.115 178.936V177.16C209.115 176.736 209.231 176.352 209.463 176.008C209.695 175.664 210.015 175.392 210.423 175.192C210.839 174.992 211.307 174.892 211.827 174.892C212.347 174.892 212.811 174.992 213.219 175.192C213.635 175.392 213.959 175.664 214.191 176.008C214.423 176.352 214.539 176.736 214.539 177.16V178.936C214.539 179.352 214.419 179.724 214.179 180.052C213.947 180.38 213.623 180.64 213.207 180.832C212.799 181.016 212.339 181.108 211.827 181.108ZM211.827 179.944C212.251 179.944 212.587 179.848 212.835 179.656C213.083 179.456 213.207 179.188 213.207 178.852V177.22C213.207 176.868 213.083 176.584 212.835 176.368C212.587 176.152 212.251 176.044 211.827 176.044C211.403 176.044 211.067 176.152 210.819 176.368C210.571 176.584 210.447 176.868 210.447 177.22V178.852C210.447 179.188 210.571 179.456 210.819 179.656C211.067 179.848 211.403 179.944 211.827 179.944ZM218.705 176.056C218.241 176.056 217.861 176.188 217.565 176.452C217.269 176.708 217.121 177.024 217.121 177.4V180.244C217.121 180.548 217.009 180.768 216.785 180.904C216.569 181.04 216.233 181.108 215.777 181.108V175.96C215.777 175.248 216.205 174.892 217.061 174.892V175.612C216.949 175.74 216.857 175.868 216.785 175.996L216.845 176.044C217.365 175.276 218.001 174.892 218.753 174.892C219.073 174.892 219.317 174.976 219.485 175.144C219.653 175.304 219.737 175.508 219.737 175.756C219.737 175.94 219.689 176.104 219.593 176.248C219.361 176.12 219.065 176.056 218.705 176.056ZM223.247 181.108C222.623 181.108 222.159 180.928 221.855 180.568C221.559 180.208 221.411 179.744 221.411 179.176V176.02H220.211C220.211 175.676 220.279 175.42 220.415 175.252C220.551 175.084 220.735 175 220.967 175H221.423V173.956C221.423 173.652 221.531 173.432 221.747 173.296C221.971 173.16 222.303 173.092 222.743 173.092V175H224.339C224.339 175.36 224.267 175.62 224.123 175.78C223.979 175.94 223.751 176.02 223.439 176.02H222.755V179.128C222.755 179.416 222.811 179.624 222.923 179.752C223.035 179.872 223.231 179.932 223.511 179.932C223.791 179.932 224.067 179.856 224.339 179.704C224.411 179.768 224.463 179.848 224.495 179.944C224.535 180.04 224.555 180.14 224.555 180.244C224.555 180.468 224.439 180.668 224.207 180.844C223.975 181.02 223.655 181.108 223.247 181.108Z" fill="white"/>
<path d="M62.1325 182.352L55.3075 175.972C54.8975 175.589 54.8975 174.967 55.3075 174.584L56.7924 173.196C57.2024 172.812 57.8673 172.812 58.2773 173.196L62.875 177.494L72.7227 168.287C73.1327 167.904 73.7976 167.904 74.2076 168.287L75.6925 169.676C76.1025 170.059 76.1025 170.681 75.6925 171.064L63.6175 182.353C63.2074 182.736 62.5426 182.736 62.1325 182.352Z" fill="#84FF65"/>
<defs>
<filter id="filter0_f_90_286" x="0" y="62" width="200" height="200" filterUnits="userSpaceOnUse" color-interpolation-filters="sRGB">
<feFlood flood-opacity="0" result="BackgroundImageFix"/>
<feBlend mode="normal" in="SourceGraphic" in2="BackgroundImageFix" result="shape"/>
<feGaussianBlur stdDeviation="25" result="effect1_foregroundBlur_90_286"/>
</filter>
<filter id="filter1_f_90_286" x="170" y="0" width="218" height="220" filterUnits="userSpaceOnUse" color-interpolation-filters="sRGB">
<feFlood flood-opacity="0" result="BackgroundImageFix"/>
<feBlend mode="normal" in="SourceGraphic" in2="BackgroundImageFix" result="shape"/>
<feGaussianBlur stdDeviation="25" result="effect1_foregroundBlur_90_286"/>
</filter>
<filter id="filter2_b_90_286" x="-7" y="-50" width="383" height="378" filterUnits="userSpaceOnUse" color-interpolation-filters="sRGB">
<feFlood flood-opacity="0" result="BackgroundImageFix"/>
<feGaussianBlur in="BackgroundImageFix" stdDeviation="25"/>
<feComposite in2="SourceAlpha" operator="in" result="effect1_backgroundBlur_90_286"/>
<feBlend mode="normal" in="SourceGraphic" in2="effect1_backgroundBlur_90_286" result="shape"/>
</filter>
</defs>
</svg>
