<svg width="267" height="262" viewBox="0 0 267 262" fill="none" xmlns="http://www.w3.org/2000/svg">
<path d="M6.94 21.18C5.75333 21.18 4.69333 20.9533 3.76 20.5C2.84 20.0467 2.12 19.4133 1.6 18.6C1.08 17.7867 0.82 16.86 0.82 15.82V12.14C0.82 11.1 1.07333 10.18 1.58 9.38C2.1 8.56667 2.81333 7.94 3.72 7.5C4.62667 7.04667 5.66667 6.82 6.84 6.82C8.01333 6.82 9.05333 7 9.96 7.36C10.88 7.70667 11.5933 8.2 12.1 8.84C12.6067 9.46667 12.86 10.1867 12.86 11C12.86 11.4933 12.6933 11.8867 12.36 12.18C12.04 12.46 11.6067 12.6 11.06 12.6C10.7933 12.6 10.5 12.56 10.18 12.48C10.2067 12.16 10.22 11.8467 10.22 11.54C10.22 10.8333 9.90667 10.26 9.28 9.82C8.65333 9.38 7.84 9.16 6.84 9.16C5.85333 9.16 5.04667 9.44 4.42 10C3.80667 10.5467 3.5 11.26 3.5 12.14V15.82C3.5 16.7133 3.82 17.44 4.46 18C5.1 18.56 5.92667 18.84 6.94 18.84C7.94 18.84 8.75333 18.62 9.38 18.18C10.0067 17.74 10.32 17.1733 10.32 16.48C10.32 16.16 10.3067 15.8533 10.28 15.56C10.6133 15.4933 10.8933 15.46 11.12 15.46C11.68 15.46 12.1267 15.6067 12.46 15.9C12.7933 16.1933 12.96 16.5933 12.96 17.1C12.96 17.8867 12.7067 18.5933 12.2 19.22C11.6933 19.8333 10.98 20.3133 10.06 20.66C9.15333 21.0067 8.11333 21.18 6.94 21.18ZM22.6109 21.18C21.5176 21.18 20.5176 20.9667 19.6109 20.54C18.7043 20.1 17.9843 19.5067 17.4509 18.76C16.9309 18.0133 16.6709 17.2 16.6709 16.32V11.66C16.6709 10.78 16.9309 9.97333 17.4509 9.24C17.9843 8.49333 18.7043 7.90667 19.6109 7.48C20.5176 7.04 21.5176 6.82 22.6109 6.82C23.7043 6.82 24.7043 7.04 25.6109 7.48C26.5309 7.90667 27.2509 8.49333 27.7709 9.24C28.3043 9.97333 28.5709 10.78 28.5709 11.66V16.32C28.5709 17.2 28.3043 18.0133 27.7709 18.76C27.2509 19.5067 26.5309 20.1 25.6109 20.54C24.7043 20.9667 23.7043 21.18 22.6109 21.18ZM22.6109 18.84C23.6109 18.84 24.4109 18.6067 25.0109 18.14C25.6109 17.66 25.9109 17.04 25.9109 16.28V11.72C25.9109 10.9467 25.6109 10.3267 25.0109 9.86C24.4109 9.38 23.6109 9.14 22.6109 9.14C21.6243 9.14 20.8309 9.38 20.2309 9.86C19.6309 10.3267 19.3309 10.9467 19.3309 11.72V16.28C19.3309 17.04 19.6309 17.66 20.2309 18.14C20.8309 18.6067 21.6243 18.84 22.6109 18.84ZM32.7089 8.94C32.7089 8.28667 32.9289 7.77333 33.3689 7.4C33.8089 7.01333 34.4022 6.82 35.1489 6.82L41.9089 17.38L42.1089 17.22L41.2889 15.86V6.82C42.1556 6.82 42.8089 6.98667 43.2489 7.32C43.7022 7.65333 43.9289 8.14667 43.9289 8.8V19.36C43.9289 19.8533 43.7156 20.28 43.2889 20.64C42.8756 21 42.3956 21.18 41.8489 21.18L34.7289 10.04L34.5289 10.22L35.3489 11.58V19.2C35.3489 19.8533 35.1222 20.3467 34.6689 20.68C34.2289 21.0133 33.5756 21.18 32.7089 21.18V8.94ZM52.1558 9.32H47.3358C47.3358 7.77333 48.0358 7 49.4358 7H59.6558C59.6558 8.54667 58.9491 9.32 57.5358 9.32H54.8358V19.2C54.8358 19.84 54.6091 20.3333 54.1558 20.68C53.7024 21.0133 53.0358 21.18 52.1558 21.18V9.32ZM62.7281 21.18C62.1548 21.1133 61.7015 20.9133 61.3681 20.58C61.0481 20.2467 60.8881 19.8267 60.8881 19.32C60.8881 18.9333 60.9815 18.5333 61.1681 18.12L65.7481 7.7C66.0015 7.11333 66.4415 6.82 67.0681 6.82C67.6815 6.82 68.1148 7.11333 68.3681 7.7L72.9481 18.12C73.1348 18.56 73.2281 18.96 73.2281 19.32C73.2281 19.8267 73.0615 20.2467 72.7281 20.58C72.4081 20.9133 71.9548 21.1133 71.3681 21.18L69.6881 17.38H64.4281L62.7281 21.18ZM68.8681 15.1L66.6681 9.62L66.4281 9.72L66.9081 10.96L65.2281 15.1H68.8681ZM82.6275 21.18C81.4408 21.18 80.3808 20.9533 79.4475 20.5C78.5275 20.0467 77.8075 19.4133 77.2875 18.6C76.7675 17.7867 76.5075 16.86 76.5075 15.82V12.14C76.5075 11.1 76.7608 10.18 77.2675 9.38C77.7875 8.56667 78.5008 7.94 79.4075 7.5C80.3142 7.04667 81.3542 6.82 82.5275 6.82C83.7008 6.82 84.7408 7 85.6475 7.36C86.5675 7.70667 87.2808 8.2 87.7875 8.84C88.2942 9.46667 88.5475 10.1867 88.5475 11C88.5475 11.4933 88.3808 11.8867 88.0475 12.18C87.7275 12.46 87.2942 12.6 86.7475 12.6C86.4808 12.6 86.1875 12.56 85.8675 12.48C85.8942 12.16 85.9075 11.8467 85.9075 11.54C85.9075 10.8333 85.5942 10.26 84.9675 9.82C84.3408 9.38 83.5275 9.16 82.5275 9.16C81.5408 9.16 80.7342 9.44 80.1075 10C79.4942 10.5467 79.1875 11.26 79.1875 12.14V15.82C79.1875 16.7133 79.5075 17.44 80.1475 18C80.7875 18.56 81.6142 18.84 82.6275 18.84C83.6275 18.84 84.4408 18.62 85.0675 18.18C85.6942 17.74 86.0075 17.1733 86.0075 16.48C86.0075 16.16 85.9942 15.8533 85.9675 15.56C86.3008 15.4933 86.5808 15.46 86.8075 15.46C87.3675 15.46 87.8142 15.6067 88.1475 15.9C88.4808 16.1933 88.6475 16.5933 88.6475 17.1C88.6475 17.8867 88.3942 18.5933 87.8875 19.22C87.3808 19.8333 86.6675 20.3133 85.7475 20.66C84.8408 21.0067 83.8008 21.18 82.6275 21.18ZM96.08 9.32H91.26C91.26 7.77333 91.96 7 93.36 7H103.58C103.58 8.54667 102.873 9.32 101.46 9.32H98.76V19.2C98.76 19.84 98.5333 20.3333 98.08 20.68C97.6267 21.0133 96.96 21.18 96.08 21.18V9.32ZM115.254 8.82C115.254 8.19333 115.488 7.70667 115.954 7.36C116.421 7 117.081 6.82 117.934 6.82V19.18C117.934 19.82 117.701 20.3133 117.234 20.66C116.768 21.0067 116.108 21.18 115.254 21.18V8.82ZM122.875 8.94C122.875 8.28667 123.095 7.77333 123.535 7.4C123.975 7.01333 124.568 6.82 125.315 6.82L132.075 17.38L132.275 17.22L131.455 15.86V6.82C132.321 6.82 132.975 6.98667 133.415 7.32C133.868 7.65333 134.095 8.14667 134.095 8.8V19.36C134.095 19.8533 133.881 20.28 133.455 20.64C133.041 21 132.561 21.18 132.015 21.18L124.895 10.04L124.695 10.22L125.515 11.58V19.2C125.515 19.8533 125.288 20.3467 124.835 20.68C124.395 21.0133 123.741 21.18 122.875 21.18V8.94ZM138.629 8.22C138.629 7.88667 138.756 7.6 139.009 7.36C139.276 7.12 139.596 7 139.969 7H149.029C149.029 7.8 148.889 8.38667 148.609 8.76C148.343 9.12 147.903 9.3 147.289 9.3H141.309V12.68H146.629C146.629 13.48 146.489 14.0667 146.209 14.44C145.943 14.8 145.503 14.98 144.889 14.98H141.309V19.28C141.309 19.9467 141.096 20.4333 140.669 20.74C140.243 21.0333 139.563 21.18 138.629 21.18V8.22ZM157.267 21.18C156.174 21.18 155.174 20.9667 154.267 20.54C153.361 20.1 152.641 19.5067 152.107 18.76C151.587 18.0133 151.327 17.2 151.327 16.32V11.66C151.327 10.78 151.587 9.97333 152.107 9.24C152.641 8.49333 153.361 7.90667 154.267 7.48C155.174 7.04 156.174 6.82 157.267 6.82C158.361 6.82 159.361 7.04 160.267 7.48C161.187 7.90667 161.907 8.49333 162.427 9.24C162.961 9.97333 163.227 10.78 163.227 11.66V16.32C163.227 17.2 162.961 18.0133 162.427 18.76C161.907 19.5067 161.187 20.1 160.267 20.54C159.361 20.9667 158.361 21.18 157.267 21.18ZM157.267 18.84C158.267 18.84 159.067 18.6067 159.667 18.14C160.267 17.66 160.567 17.04 160.567 16.28V11.72C160.567 10.9467 160.267 10.3267 159.667 9.86C159.067 9.38 158.267 9.14 157.267 9.14C156.281 9.14 155.487 9.38 154.887 9.86C154.287 10.3267 153.987 10.9467 153.987 11.72V16.28C153.987 17.04 154.287 17.66 154.887 18.14C155.487 18.6067 156.281 18.84 157.267 18.84ZM167.365 8.22C167.365 7.87333 167.492 7.58667 167.745 7.36C167.998 7.12 168.318 7 168.705 7H174.045C175.485 7 176.598 7.38 177.385 8.14C178.185 8.9 178.585 9.96667 178.585 11.34C178.585 12.1267 178.425 12.7933 178.105 13.34C177.785 13.8733 177.298 14.3 176.645 14.62V14.68C177.818 15.2 178.405 16.1867 178.405 17.64V19.2C178.405 19.84 178.178 20.3333 177.725 20.68C177.272 21.0133 176.605 21.18 175.725 21.18V17.76C175.725 17.0533 175.585 16.5333 175.305 16.2C175.025 15.8667 174.598 15.7 174.025 15.7H170.005V19.2C170.005 19.8533 169.778 20.3467 169.325 20.68C168.885 21.0133 168.232 21.18 167.365 21.18V8.22ZM173.905 13.42C174.545 13.42 175.038 13.24 175.385 12.88C175.732 12.5067 175.905 11.9867 175.905 11.32C175.905 9.96 175.238 9.28 173.905 9.28H170.005V13.42H173.905ZM182.944 8.82C182.944 8.20667 183.184 7.72 183.664 7.36C184.144 6.98667 184.797 6.8 185.624 6.8L189.824 17.36L189.364 18.62L189.564 18.7L194.064 6.82C194.877 6.82 195.524 7.00667 196.004 7.38C196.497 7.74 196.744 8.22667 196.744 8.84V21.18C194.997 21.18 194.124 20.5267 194.124 19.22V12.82L194.804 10.98L194.584 10.9L190.924 20.46C190.831 20.6733 190.684 20.8467 190.484 20.98C190.297 21.1133 190.084 21.18 189.844 21.18C189.604 21.18 189.384 21.1133 189.184 20.98C188.997 20.8467 188.857 20.6667 188.764 20.44L185.104 10.88L184.884 10.96L185.544 12.8V19.22C185.544 20.5267 184.677 21.18 182.944 21.18V8.82ZM202.716 21.18C202.143 21.1133 201.69 20.9133 201.356 20.58C201.036 20.2467 200.876 19.8267 200.876 19.32C200.876 18.9333 200.97 18.5333 201.156 18.12L205.736 7.7C205.99 7.11333 206.43 6.82 207.056 6.82C207.67 6.82 208.103 7.11333 208.356 7.7L212.936 18.12C213.123 18.56 213.216 18.96 213.216 19.32C213.216 19.8267 213.05 20.2467 212.716 20.58C212.396 20.9133 211.943 21.1133 211.356 21.18L209.676 17.38H204.416L202.716 21.18ZM208.856 15.1L206.656 9.62L206.416 9.72L206.896 10.96L205.216 15.1H208.856ZM219.298 9.32H214.478C214.478 7.77333 215.178 7 216.578 7H226.798C226.798 8.54667 226.091 9.32 224.678 9.32H221.978V19.2C221.978 19.84 221.751 20.3333 221.298 20.68C220.845 21.0133 220.178 21.18 219.298 21.18V9.32ZM231.116 8.82C231.116 8.19333 231.349 7.70667 231.816 7.36C232.283 7 232.943 6.82 233.796 6.82V19.18C233.796 19.82 233.563 20.3133 233.096 20.66C232.629 21.0067 231.969 21.18 231.116 21.18V8.82ZM244.256 21.18C243.163 21.18 242.163 20.9667 241.256 20.54C240.35 20.1 239.63 19.5067 239.096 18.76C238.576 18.0133 238.316 17.2 238.316 16.32V11.66C238.316 10.78 238.576 9.97333 239.096 9.24C239.63 8.49333 240.35 7.90667 241.256 7.48C242.163 7.04 243.163 6.82 244.256 6.82C245.35 6.82 246.35 7.04 247.256 7.48C248.176 7.90667 248.896 8.49333 249.416 9.24C249.95 9.97333 250.216 10.78 250.216 11.66V16.32C250.216 17.2 249.95 18.0133 249.416 18.76C248.896 19.5067 248.176 20.1 247.256 20.54C246.35 20.9667 245.35 21.18 244.256 21.18ZM244.256 18.84C245.256 18.84 246.056 18.6067 246.656 18.14C247.256 17.66 247.556 17.04 247.556 16.28V11.72C247.556 10.9467 247.256 10.3267 246.656 9.86C246.056 9.38 245.256 9.14 244.256 9.14C243.27 9.14 242.476 9.38 241.876 9.86C241.276 10.3267 240.976 10.9467 240.976 11.72V16.28C240.976 17.04 241.276 17.66 241.876 18.14C242.476 18.6067 243.27 18.84 244.256 18.84ZM254.354 8.94C254.354 8.28667 254.574 7.77333 255.014 7.4C255.454 7.01333 256.048 6.82 256.794 6.82L263.554 17.38L263.754 17.22L262.934 15.86V6.82C263.801 6.82 264.454 6.98667 264.894 7.32C265.348 7.65333 265.574 8.14667 265.574 8.8V19.36C265.574 19.8533 265.361 20.28 264.934 20.64C264.521 21 264.041 21.18 263.494 21.18L256.374 10.04L256.174 10.22L256.994 11.58V19.2C256.994 19.8533 256.768 20.3467 256.314 20.68C255.874 21.0133 255.221 21.18 254.354 21.18V8.94Z" fill="white"/>
<g filter="url(#filter0_b_100_340)">
<rect x="3" y="57" width="57" height="49" rx="7" fill="#D9D9D9" fill-opacity="0.16"/>
</g>
<g filter="url(#filter1_b_100_340)">
<rect x="3" y="135" width="57" height="49" rx="7" fill="#D9D9D9" fill-opacity="0.16"/>
</g>
<g filter="url(#filter2_b_100_340)">
<rect x="3" y="213" width="57" height="49" rx="7" fill="#D9D9D9" fill-opacity="0.16"/>
</g>
<path d="M77.56 77.108C77.216 77.068 76.944 76.948 76.744 76.748C76.552 76.548 76.456 76.296 76.456 75.992C76.456 75.76 76.512 75.52 76.624 75.272L79.372 69.02C79.524 68.668 79.788 68.492 80.164 68.492C80.532 68.492 80.792 68.668 80.944 69.02L83.692 75.272C83.804 75.536 83.86 75.776 83.86 75.992C83.86 76.296 83.76 76.548 83.56 76.748C83.368 76.948 83.096 77.068 82.744 77.108L81.736 74.828H78.58L77.56 77.108ZM81.244 73.46L79.924 70.172L79.78 70.232L80.068 70.976L79.06 73.46H81.244ZM88.2165 77.108C87.7845 77.108 87.3965 77.016 87.0525 76.832C86.7085 76.648 86.4365 76.396 86.2365 76.076C86.0365 75.748 85.9365 75.372 85.9365 74.948V73.052C85.9365 72.636 86.0405 72.264 86.2485 71.936C86.4565 71.608 86.7445 71.352 87.1125 71.168C87.4885 70.984 87.9045 70.892 88.3605 70.892C88.6565 70.892 88.9605 70.956 89.2725 71.084C89.5925 71.204 89.8605 71.368 90.0765 71.576L90.1245 71.516C90.0845 71.452 89.9965 71.372 89.8605 71.276V69.5C89.8605 69.18 89.9845 68.932 90.2325 68.756C90.4885 68.58 90.8725 68.492 91.3845 68.492V76.076C91.3845 76.372 91.2725 76.62 91.0485 76.82C90.8245 77.012 90.4765 77.108 90.0045 77.108V76.448C90.1085 76.32 90.1845 76.216 90.2325 76.136L90.1725 76.088C89.9245 76.424 89.6485 76.68 89.3445 76.856C89.0485 77.024 88.6725 77.108 88.2165 77.108ZM88.6605 75.812C89.0205 75.812 89.3125 75.728 89.5365 75.56C89.7685 75.384 89.8845 75.164 89.8845 74.9V73.088C89.8845 72.832 89.7685 72.62 89.5365 72.452C89.3125 72.276 89.0165 72.188 88.6485 72.188C88.2565 72.188 87.9525 72.272 87.7365 72.44C87.5285 72.6 87.4245 72.832 87.4245 73.136V74.84C87.4245 75.16 87.5285 75.404 87.7365 75.572C87.9525 75.732 88.2605 75.812 88.6605 75.812ZM96.3216 77.108C95.8896 77.108 95.5016 77.016 95.1576 76.832C94.8136 76.648 94.5416 76.396 94.3416 76.076C94.1416 75.748 94.0416 75.372 94.0416 74.948V73.052C94.0416 72.636 94.1456 72.264 94.3536 71.936C94.5616 71.608 94.8496 71.352 95.2176 71.168C95.5936 70.984 96.0096 70.892 96.4656 70.892C96.7616 70.892 97.0656 70.956 97.3776 71.084C97.6976 71.204 97.9656 71.368 98.1816 71.576L98.2296 71.516C98.1896 71.452 98.1016 71.372 97.9656 71.276V69.5C97.9656 69.18 98.0896 68.932 98.3376 68.756C98.5936 68.58 98.9776 68.492 99.4896 68.492V76.076C99.4896 76.372 99.3776 76.62 99.1536 76.82C98.9296 77.012 98.5816 77.108 98.1096 77.108V76.448C98.2136 76.32 98.2896 76.216 98.3376 76.136L98.2776 76.088C98.0296 76.424 97.7536 76.68 97.4496 76.856C97.1536 77.024 96.7776 77.108 96.3216 77.108ZM96.7656 75.812C97.1256 75.812 97.4176 75.728 97.6416 75.56C97.8736 75.384 97.9896 75.164 97.9896 74.9V73.088C97.9896 72.832 97.8736 72.62 97.6416 72.452C97.4176 72.276 97.1216 72.188 96.7536 72.188C96.3616 72.188 96.0576 72.272 95.8416 72.44C95.6336 72.6 95.5296 72.832 95.5296 73.136V74.84C95.5296 75.16 95.6336 75.404 95.8416 75.572C96.0576 75.732 96.3656 75.812 96.7656 75.812ZM105.303 72.188C104.831 72.188 104.447 72.316 104.151 72.572C103.855 72.82 103.707 73.132 103.707 73.508V76.196C103.707 76.516 103.587 76.748 103.347 76.892C103.107 77.036 102.731 77.108 102.219 77.108V72.044C102.219 71.676 102.335 71.392 102.567 71.192C102.807 70.992 103.167 70.892 103.647 70.892V71.6C103.527 71.736 103.431 71.868 103.359 71.996L103.431 72.044C103.935 71.276 104.567 70.892 105.327 70.892C105.671 70.892 105.931 70.984 106.107 71.168C106.283 71.344 106.371 71.568 106.371 71.84C106.371 72.048 106.315 72.224 106.203 72.368C105.987 72.248 105.687 72.188 105.303 72.188ZM110.795 77.108C110.299 77.108 109.847 77.012 109.439 76.82C109.031 76.62 108.707 76.352 108.467 76.016C108.227 75.672 108.107 75.288 108.107 74.864V73.268C108.107 72.82 108.231 72.416 108.479 72.056C108.727 71.696 109.055 71.412 109.463 71.204C109.879 70.996 110.327 70.892 110.807 70.892C111.279 70.892 111.711 70.992 112.103 71.192C112.503 71.384 112.819 71.656 113.051 72.008C113.283 72.352 113.399 72.748 113.399 73.196V73.868C113.399 74.044 113.331 74.192 113.195 74.312C113.067 74.432 112.903 74.492 112.703 74.492H109.559V74.756C109.559 75.1 109.663 75.38 109.871 75.596C110.079 75.812 110.391 75.92 110.807 75.92C111.207 75.92 111.503 75.832 111.695 75.656C111.895 75.48 111.995 75.252 111.995 74.972C112.139 74.956 112.239 74.948 112.295 74.948C112.591 74.948 112.823 75.016 112.991 75.152C113.159 75.28 113.243 75.464 113.243 75.704C113.243 75.936 113.135 76.16 112.919 76.376C112.703 76.592 112.407 76.768 112.031 76.904C111.655 77.04 111.243 77.108 110.795 77.108ZM112.043 73.424V73.196C112.043 72.86 111.927 72.588 111.695 72.38C111.463 72.172 111.163 72.068 110.795 72.068C110.427 72.068 110.127 72.172 109.895 72.38C109.671 72.58 109.559 72.852 109.559 73.196V73.424H112.043ZM118.31 77.108C117.542 77.108 116.922 76.972 116.45 76.7C115.986 76.42 115.75 76.048 115.742 75.584C115.742 75.384 115.822 75.216 115.982 75.08C116.15 74.944 116.414 74.872 116.774 74.864C116.846 75.216 117.014 75.488 117.278 75.68C117.542 75.864 117.862 75.956 118.238 75.956C118.646 75.956 118.966 75.904 119.198 75.8C119.43 75.696 119.546 75.54 119.546 75.332C119.546 75.14 119.45 74.98 119.258 74.852C119.074 74.724 118.706 74.596 118.154 74.468C117.554 74.324 117.086 74.18 116.75 74.036C116.422 73.892 116.178 73.708 116.018 73.484C115.858 73.26 115.778 72.964 115.778 72.596C115.778 72.084 115.994 71.672 116.426 71.36C116.858 71.048 117.45 70.892 118.202 70.892C118.93 70.892 119.534 71.024 120.014 71.288C120.494 71.544 120.734 71.888 120.734 72.32C120.734 72.536 120.654 72.696 120.494 72.8C120.334 72.904 120.07 72.96 119.702 72.968C119.622 72.648 119.47 72.408 119.246 72.248C119.022 72.088 118.706 72.008 118.298 72.008C117.994 72.008 117.73 72.06 117.506 72.164C117.29 72.268 117.182 72.404 117.182 72.572C117.182 72.748 117.274 72.884 117.458 72.98C117.642 73.076 117.962 73.172 118.418 73.268C119.314 73.46 119.962 73.716 120.362 74.036C120.77 74.356 120.974 74.792 120.974 75.344C120.974 75.88 120.734 76.308 120.254 76.628C119.782 76.948 119.134 77.108 118.31 77.108ZM125.806 77.108C125.038 77.108 124.418 76.972 123.946 76.7C123.482 76.42 123.246 76.048 123.238 75.584C123.238 75.384 123.318 75.216 123.478 75.08C123.646 74.944 123.91 74.872 124.27 74.864C124.342 75.216 124.51 75.488 124.774 75.68C125.038 75.864 125.358 75.956 125.734 75.956C126.142 75.956 126.462 75.904 126.694 75.8C126.926 75.696 127.042 75.54 127.042 75.332C127.042 75.14 126.946 74.98 126.754 74.852C126.57 74.724 126.202 74.596 125.65 74.468C125.05 74.324 124.582 74.18 124.246 74.036C123.918 73.892 123.674 73.708 123.514 73.484C123.354 73.26 123.274 72.964 123.274 72.596C123.274 72.084 123.49 71.672 123.922 71.36C124.354 71.048 124.946 70.892 125.698 70.892C126.426 70.892 127.03 71.024 127.51 71.288C127.99 71.544 128.23 71.888 128.23 72.32C128.23 72.536 128.15 72.696 127.99 72.8C127.83 72.904 127.566 72.96 127.198 72.968C127.118 72.648 126.966 72.408 126.742 72.248C126.518 72.088 126.202 72.008 125.794 72.008C125.49 72.008 125.226 72.06 125.002 72.164C124.786 72.268 124.678 72.404 124.678 72.572C124.678 72.748 124.77 72.884 124.954 72.98C125.138 73.076 125.458 73.172 125.914 73.268C126.81 73.46 127.458 73.716 127.858 74.036C128.266 74.356 128.47 74.792 128.47 75.344C128.47 75.88 128.23 76.308 127.75 76.628C127.278 76.948 126.63 77.108 125.806 77.108ZM131.682 72.896C131.37 72.896 131.114 72.8 130.914 72.608C130.714 72.408 130.614 72.152 130.614 71.84C130.614 71.544 130.714 71.292 130.914 71.084C131.122 70.876 131.378 70.772 131.682 70.772C131.986 70.772 132.242 70.876 132.45 71.084C132.666 71.292 132.774 71.544 132.774 71.84C132.774 72.144 132.666 72.396 132.45 72.596C132.242 72.796 131.986 72.896 131.682 72.896ZM131.682 77.108C131.378 77.108 131.122 77.008 130.914 76.808C130.714 76.608 130.614 76.356 130.614 76.052C130.614 75.748 130.714 75.496 130.914 75.296C131.122 75.088 131.378 74.984 131.682 74.984C131.986 74.984 132.242 75.088 132.45 75.296C132.666 75.496 132.774 75.748 132.774 76.052C132.774 76.356 132.666 76.608 132.45 76.808C132.242 77.008 131.986 77.108 131.682 77.108Z" fill="white" fill-opacity="0.7"/>
<path d="M86.56 97.108C86.216 97.068 85.944 96.948 85.744 96.748C85.552 96.548 85.456 96.296 85.456 95.992C85.456 95.76 85.512 95.52 85.624 95.272L88.372 89.02C88.524 88.668 88.788 88.492 89.164 88.492C89.532 88.492 89.792 88.668 89.944 89.02L92.692 95.272C92.804 95.536 92.86 95.776 92.86 95.992C92.86 96.296 92.76 96.548 92.56 96.748C92.368 96.948 92.096 97.068 91.744 97.108L90.736 94.828H87.58L86.56 97.108ZM90.244 93.46L88.924 90.172L88.78 90.232L89.068 90.976L88.06 93.46H90.244ZM95.3483 92.044C95.3483 91.676 95.4643 91.392 95.6963 91.192C95.9283 90.992 96.2803 90.892 96.7523 90.892V91.612C96.6083 91.788 96.5123 91.916 96.4643 91.996L96.5483 92.044C96.7963 91.668 97.0603 91.384 97.3403 91.192C97.6203 90.992 97.9523 90.892 98.3363 90.892C99.0323 90.892 99.5123 91.232 99.7763 91.912C99.9763 91.592 100.232 91.344 100.544 91.168C100.856 90.984 101.208 90.892 101.6 90.892C102.144 90.892 102.576 91.092 102.896 91.492C103.224 91.884 103.388 92.388 103.388 93.004V96.196C103.388 96.516 103.264 96.748 103.016 96.892C102.776 97.036 102.408 97.108 101.912 97.108V93.124C101.912 92.828 101.844 92.592 101.708 92.416C101.58 92.24 101.38 92.152 101.108 92.152C100.82 92.152 100.576 92.252 100.376 92.452C100.184 92.644 100.088 92.948 100.088 93.364V96.196C100.088 96.516 99.9683 96.748 99.7283 96.892C99.4963 97.036 99.1323 97.108 98.6363 97.108V93.124C98.6363 92.82 98.5723 92.584 98.4443 92.416C98.3163 92.24 98.1163 92.152 97.8443 92.152C97.5083 92.152 97.2523 92.268 97.0763 92.5C96.9083 92.724 96.8243 93.032 96.8243 93.424V96.196C96.8243 96.516 96.7003 96.748 96.4523 96.892C96.2123 97.036 95.8443 97.108 95.3483 97.108V92.044ZM107.039 90.328C106.751 90.328 106.511 90.244 106.319 90.076C106.135 89.9 106.043 89.676 106.043 89.404C106.043 89.14 106.135 88.924 106.319 88.756C106.511 88.58 106.751 88.492 107.039 88.492C107.327 88.492 107.563 88.58 107.747 88.756C107.939 88.924 108.035 89.14 108.035 89.404C108.035 89.676 107.939 89.9 107.747 90.076C107.563 90.244 107.327 90.328 107.039 90.328ZM106.283 91.804C106.283 91.476 106.407 91.244 106.655 91.108C106.903 90.964 107.279 90.892 107.783 90.892V96.196C107.783 96.516 107.659 96.748 107.411 96.892C107.163 97.036 106.787 97.108 106.283 97.108V91.804ZM113.353 97.108C112.833 97.108 112.373 97.016 111.973 96.832C111.573 96.64 111.261 96.376 111.037 96.04C110.813 95.704 110.701 95.324 110.701 94.9V93.22C110.701 92.764 110.813 92.36 111.037 92.008C111.261 91.656 111.573 91.384 111.973 91.192C112.373 90.992 112.829 90.892 113.341 90.892C113.821 90.892 114.245 90.96 114.613 91.096C114.989 91.232 115.281 91.424 115.489 91.672C115.697 91.912 115.801 92.192 115.801 92.512C115.801 92.76 115.705 92.96 115.513 93.112C115.321 93.264 115.069 93.34 114.757 93.34C114.669 93.34 114.605 93.336 114.565 93.328C114.565 92.984 114.453 92.708 114.229 92.5C114.013 92.292 113.729 92.188 113.377 92.188C113.025 92.188 112.737 92.288 112.513 92.488C112.297 92.688 112.189 92.952 112.189 93.28V94.792C112.189 95.096 112.301 95.344 112.525 95.536C112.749 95.72 113.037 95.812 113.389 95.812C113.741 95.812 114.029 95.708 114.253 95.5C114.477 95.284 114.589 95.012 114.589 94.684C114.637 94.676 114.705 94.672 114.793 94.672C115.105 94.672 115.357 94.744 115.549 94.888C115.741 95.032 115.837 95.228 115.837 95.476C115.837 95.796 115.729 96.08 115.513 96.328C115.305 96.568 115.013 96.76 114.637 96.904C114.261 97.04 113.833 97.108 113.353 97.108ZM120.121 97.108C119.713 97.108 119.337 97.028 118.993 96.868C118.657 96.708 118.385 96.48 118.177 96.184C117.977 95.88 117.877 95.52 117.877 95.104C117.877 94.688 117.985 94.328 118.201 94.024C118.417 93.712 118.709 93.476 119.077 93.316C119.453 93.148 119.865 93.064 120.313 93.064C120.681 93.064 121.009 93.124 121.297 93.244C121.593 93.356 121.865 93.528 122.113 93.76L122.173 93.7C122.101 93.628 121.977 93.52 121.801 93.376V93.136C121.801 92.808 121.685 92.548 121.453 92.356C121.221 92.164 120.897 92.068 120.481 92.068C119.737 92.068 119.189 92.34 118.837 92.884C118.661 92.828 118.513 92.74 118.393 92.62C118.273 92.492 118.213 92.356 118.213 92.212C118.213 91.972 118.321 91.752 118.537 91.552C118.753 91.352 119.045 91.192 119.413 91.072C119.781 90.952 120.181 90.892 120.613 90.892C121.461 90.892 122.117 91.092 122.581 91.492C123.045 91.884 123.277 92.42 123.277 93.1V96.1C123.277 96.452 123.165 96.708 122.941 96.868C122.717 97.028 122.365 97.108 121.885 97.108V96.616C122.021 96.48 122.113 96.38 122.161 96.316L122.113 96.256C121.849 96.536 121.565 96.748 121.261 96.892C120.965 97.036 120.585 97.108 120.121 97.108ZM120.505 96.016C120.921 96.016 121.245 95.936 121.477 95.776C121.709 95.616 121.825 95.388 121.825 95.092C121.825 94.804 121.705 94.576 121.465 94.408C121.233 94.24 120.917 94.156 120.517 94.156C120.149 94.156 119.857 94.24 119.641 94.408C119.433 94.568 119.329 94.796 119.329 95.092C119.329 95.396 119.433 95.628 119.641 95.788C119.849 95.94 120.137 96.016 120.505 96.016ZM127.909 97.108C127.245 97.108 126.741 96.92 126.397 96.544C126.061 96.16 125.893 95.676 125.893 95.092V89.404C125.893 89.076 126.013 88.844 126.253 88.708C126.501 88.564 126.881 88.492 127.393 88.492V95.032C127.393 95.304 127.453 95.504 127.573 95.632C127.693 95.752 127.885 95.812 128.149 95.812C128.445 95.812 128.741 95.736 129.037 95.584C129.117 95.656 129.177 95.748 129.217 95.86C129.265 95.964 129.289 96.072 129.289 96.184C129.289 96.424 129.169 96.64 128.929 96.832C128.689 97.016 128.349 97.108 127.909 97.108ZM138.049 97.108C137.641 97.108 137.265 97.028 136.921 96.868C136.585 96.708 136.313 96.48 136.105 96.184C135.905 95.88 135.805 95.52 135.805 95.104C135.805 94.688 135.913 94.328 136.129 94.024C136.345 93.712 136.637 93.476 137.005 93.316C137.381 93.148 137.793 93.064 138.241 93.064C138.609 93.064 138.937 93.124 139.225 93.244C139.521 93.356 139.793 93.528 140.041 93.76L140.101 93.7C140.029 93.628 139.905 93.52 139.729 93.376V93.136C139.729 92.808 139.613 92.548 139.381 92.356C139.149 92.164 138.825 92.068 138.409 92.068C137.665 92.068 137.117 92.34 136.765 92.884C136.589 92.828 136.441 92.74 136.321 92.62C136.201 92.492 136.141 92.356 136.141 92.212C136.141 91.972 136.249 91.752 136.465 91.552C136.681 91.352 136.973 91.192 137.341 91.072C137.709 90.952 138.109 90.892 138.541 90.892C139.389 90.892 140.045 91.092 140.509 91.492C140.973 91.884 141.205 92.42 141.205 93.1V96.1C141.205 96.452 141.093 96.708 140.869 96.868C140.645 97.028 140.293 97.108 139.813 97.108V96.616C139.949 96.48 140.041 96.38 140.089 96.316L140.041 96.256C139.777 96.536 139.493 96.748 139.189 96.892C138.893 97.036 138.513 97.108 138.049 97.108ZM138.433 96.016C138.849 96.016 139.173 95.936 139.405 95.776C139.637 95.616 139.753 95.388 139.753 95.092C139.753 94.804 139.633 94.576 139.393 94.408C139.161 94.24 138.845 94.156 138.445 94.156C138.077 94.156 137.785 94.24 137.569 94.408C137.361 94.568 137.257 94.796 137.257 95.092C137.257 95.396 137.361 95.628 137.569 95.788C137.777 95.94 138.065 96.016 138.433 96.016ZM143.87 92.044C143.87 91.676 143.986 91.392 144.218 91.192C144.458 90.992 144.818 90.892 145.298 90.892V91.612C145.202 91.724 145.106 91.852 145.01 91.996L145.082 92.044C145.322 91.684 145.63 91.404 146.006 91.204C146.382 90.996 146.798 90.892 147.254 90.892C147.662 90.892 148.022 90.984 148.334 91.168C148.646 91.352 148.886 91.604 149.054 91.924C149.23 92.244 149.318 92.604 149.318 93.004V96.196C149.318 96.516 149.194 96.748 148.946 96.892C148.698 97.036 148.322 97.108 147.818 97.108V93.22C147.818 92.916 147.726 92.668 147.542 92.476C147.366 92.284 147.106 92.188 146.762 92.188C146.354 92.188 146.018 92.316 145.754 92.572C145.49 92.82 145.358 93.132 145.358 93.508V96.196C145.358 96.516 145.238 96.748 144.998 96.892C144.758 97.036 144.382 97.108 143.87 97.108V92.044ZM154.183 97.108C153.751 97.108 153.363 97.016 153.019 96.832C152.675 96.648 152.403 96.396 152.203 96.076C152.003 95.748 151.903 95.372 151.903 94.948V93.052C151.903 92.636 152.007 92.264 152.215 91.936C152.423 91.608 152.711 91.352 153.079 91.168C153.455 90.984 153.871 90.892 154.327 90.892C154.623 90.892 154.927 90.956 155.239 91.084C155.559 91.204 155.827 91.368 156.043 91.576L156.091 91.516C156.051 91.452 155.963 91.372 155.827 91.276V89.5C155.827 89.18 155.951 88.932 156.199 88.756C156.455 88.58 156.839 88.492 157.351 88.492V96.076C157.351 96.372 157.239 96.62 157.015 96.82C156.791 97.012 156.443 97.108 155.971 97.108V96.448C156.075 96.32 156.151 96.216 156.199 96.136L156.139 96.088C155.891 96.424 155.615 96.68 155.311 96.856C155.015 97.024 154.639 97.108 154.183 97.108ZM154.627 95.812C154.987 95.812 155.279 95.728 155.503 95.56C155.735 95.384 155.851 95.164 155.851 94.9V93.088C155.851 92.832 155.735 92.62 155.503 92.452C155.279 92.276 154.983 92.188 154.615 92.188C154.223 92.188 153.919 92.272 153.703 92.44C153.495 92.6 153.391 92.832 153.391 93.136V94.84C153.391 95.16 153.495 95.404 153.703 95.572C153.919 95.732 154.227 95.812 154.627 95.812ZM162.072 97.108C161.664 97.108 161.288 97.028 160.944 96.868C160.608 96.708 160.336 96.48 160.128 96.184C159.928 95.88 159.828 95.52 159.828 95.104C159.828 94.688 159.936 94.328 160.152 94.024C160.368 93.712 160.66 93.476 161.028 93.316C161.404 93.148 161.816 93.064 162.264 93.064C162.632 93.064 162.96 93.124 163.248 93.244C163.544 93.356 163.816 93.528 164.064 93.76L164.124 93.7C164.052 93.628 163.928 93.52 163.752 93.376V93.136C163.752 92.808 163.636 92.548 163.404 92.356C163.172 92.164 162.848 92.068 162.432 92.068C161.688 92.068 161.14 92.34 160.788 92.884C160.612 92.828 160.464 92.74 160.344 92.62C160.224 92.492 160.164 92.356 160.164 92.212C160.164 91.972 160.272 91.752 160.488 91.552C160.704 91.352 160.996 91.192 161.364 91.072C161.732 90.952 162.132 90.892 162.564 90.892C163.412 90.892 164.068 91.092 164.532 91.492C164.996 91.884 165.228 92.42 165.228 93.1V96.1C165.228 96.452 165.116 96.708 164.892 96.868C164.668 97.028 164.316 97.108 163.836 97.108V96.616C163.972 96.48 164.064 96.38 164.112 96.316L164.064 96.256C163.8 96.536 163.516 96.748 163.212 96.892C162.916 97.036 162.536 97.108 162.072 97.108ZM162.456 96.016C162.872 96.016 163.196 95.936 163.428 95.776C163.66 95.616 163.776 95.388 163.776 95.092C163.776 94.804 163.656 94.576 163.416 94.408C163.184 94.24 162.868 94.156 162.468 94.156C162.1 94.156 161.808 94.24 161.592 94.408C161.384 94.568 161.28 94.796 161.28 95.092C161.28 95.396 161.384 95.628 161.592 95.788C161.8 95.94 162.088 96.016 162.456 96.016ZM169.86 97.108C169.196 97.108 168.692 96.92 168.348 96.544C168.012 96.16 167.844 95.676 167.844 95.092V89.404C167.844 89.076 167.964 88.844 168.204 88.708C168.452 88.564 168.832 88.492 169.344 88.492V95.032C169.344 95.304 169.404 95.504 169.524 95.632C169.644 95.752 169.836 95.812 170.1 95.812C170.396 95.812 170.692 95.736 170.988 95.584C171.068 95.656 171.128 95.748 171.168 95.86C171.216 95.964 171.24 96.072 171.24 96.184C171.24 96.424 171.12 96.64 170.88 96.832C170.64 97.016 170.3 97.108 169.86 97.108ZM175.798 97.108C175.278 97.108 174.806 97.016 174.382 96.832C173.966 96.64 173.638 96.376 173.398 96.04C173.158 95.704 173.038 95.324 173.038 94.9V93.208C173.038 92.776 173.154 92.384 173.386 92.032C173.626 91.68 173.954 91.404 174.37 91.204C174.786 90.996 175.262 90.892 175.798 90.892C176.334 90.892 176.81 90.996 177.226 91.204C177.65 91.404 177.978 91.68 178.21 92.032C178.45 92.384 178.57 92.776 178.57 93.208V94.9C178.57 95.324 178.446 95.704 178.198 96.04C177.958 96.376 177.626 96.64 177.202 96.832C176.786 97.016 176.318 97.108 175.798 97.108ZM175.798 95.824C176.198 95.824 176.51 95.732 176.734 95.548C176.966 95.364 177.082 95.116 177.082 94.804V93.28C177.082 92.952 176.966 92.688 176.734 92.488C176.51 92.28 176.198 92.176 175.798 92.176C175.406 92.176 175.094 92.28 174.862 92.488C174.63 92.688 174.514 92.952 174.514 93.28V94.804C174.514 95.116 174.63 95.364 174.862 95.548C175.094 95.732 175.406 95.824 175.798 95.824ZM186.09 95.944C186.09 96.32 185.97 96.608 185.73 96.808C185.498 97.008 185.142 97.108 184.662 97.108V96.388C184.766 96.268 184.862 96.136 184.95 95.992L184.878 95.944C184.366 96.72 183.678 97.108 182.814 97.108C182.406 97.108 182.038 97.016 181.71 96.832C181.39 96.64 181.134 96.376 180.942 96.04C180.758 95.704 180.666 95.324 180.666 94.9V91.804C180.666 91.476 180.786 91.244 181.026 91.108C181.274 90.964 181.65 90.892 182.154 90.892V94.792C182.154 95.104 182.25 95.352 182.442 95.536C182.634 95.72 182.91 95.812 183.27 95.812C183.67 95.812 183.99 95.688 184.23 95.44C184.478 95.184 184.602 94.868 184.602 94.492V91.804C184.602 91.476 184.722 91.244 184.962 91.108C185.202 90.964 185.578 90.892 186.09 90.892V95.944ZM191.257 97.108C190.489 97.108 189.869 96.972 189.397 96.7C188.933 96.42 188.697 96.048 188.689 95.584C188.689 95.384 188.769 95.216 188.929 95.08C189.097 94.944 189.361 94.872 189.721 94.864C189.793 95.216 189.961 95.488 190.225 95.68C190.489 95.864 190.809 95.956 191.185 95.956C191.593 95.956 191.913 95.904 192.145 95.8C192.377 95.696 192.493 95.54 192.493 95.332C192.493 95.14 192.397 94.98 192.205 94.852C192.021 94.724 191.653 94.596 191.101 94.468C190.501 94.324 190.033 94.18 189.697 94.036C189.369 93.892 189.125 93.708 188.965 93.484C188.805 93.26 188.725 92.964 188.725 92.596C188.725 92.084 188.941 91.672 189.373 91.36C189.805 91.048 190.397 90.892 191.149 90.892C191.877 90.892 192.481 91.024 192.961 91.288C193.441 91.544 193.681 91.888 193.681 92.32C193.681 92.536 193.601 92.696 193.441 92.8C193.281 92.904 193.017 92.96 192.649 92.968C192.569 92.648 192.417 92.408 192.193 92.248C191.969 92.088 191.653 92.008 191.245 92.008C190.941 92.008 190.677 92.06 190.453 92.164C190.237 92.268 190.129 92.404 190.129 92.572C190.129 92.748 190.221 92.884 190.405 92.98C190.589 93.076 190.909 93.172 191.365 93.268C192.261 93.46 192.909 93.716 193.309 94.036C193.717 94.356 193.921 94.792 193.921 95.344C193.921 95.88 193.681 96.308 193.201 96.628C192.729 96.948 192.081 97.108 191.257 97.108ZM198.933 97.108C198.437 97.108 197.985 97.012 197.577 96.82C197.169 96.62 196.845 96.352 196.605 96.016C196.365 95.672 196.245 95.288 196.245 94.864V93.268C196.245 92.82 196.369 92.416 196.617 92.056C196.865 91.696 197.193 91.412 197.601 91.204C198.017 90.996 198.465 90.892 198.945 90.892C199.417 90.892 199.849 90.992 200.241 91.192C200.641 91.384 200.957 91.656 201.189 92.008C201.421 92.352 201.537 92.748 201.537 93.196V93.868C201.537 94.044 201.469 94.192 201.333 94.312C201.205 94.432 201.041 94.492 200.841 94.492H197.697V94.756C197.697 95.1 197.801 95.38 198.009 95.596C198.217 95.812 198.529 95.92 198.945 95.92C199.345 95.92 199.641 95.832 199.833 95.656C200.033 95.48 200.133 95.252 200.133 94.972C200.277 94.956 200.377 94.948 200.433 94.948C200.729 94.948 200.961 95.016 201.129 95.152C201.297 95.28 201.381 95.464 201.381 95.704C201.381 95.936 201.273 96.16 201.057 96.376C200.841 96.592 200.545 96.768 200.169 96.904C199.793 97.04 199.381 97.108 198.933 97.108ZM200.181 93.424V93.196C200.181 92.86 200.065 92.588 199.833 92.38C199.601 92.172 199.301 92.068 198.933 92.068C198.565 92.068 198.265 92.172 198.033 92.38C197.809 92.58 197.697 92.852 197.697 93.196V93.424H200.181ZM210.861 97.108C210.093 97.108 209.473 96.972 209.001 96.7C208.537 96.42 208.301 96.048 208.293 95.584C208.293 95.384 208.373 95.216 208.533 95.08C208.701 94.944 208.965 94.872 209.325 94.864C209.397 95.216 209.565 95.488 209.829 95.68C210.093 95.864 210.413 95.956 210.789 95.956C211.197 95.956 211.517 95.904 211.749 95.8C211.981 95.696 212.097 95.54 212.097 95.332C212.097 95.14 212.001 94.98 211.809 94.852C211.625 94.724 211.257 94.596 210.705 94.468C210.105 94.324 209.637 94.18 209.301 94.036C208.973 93.892 208.729 93.708 208.569 93.484C208.409 93.26 208.329 92.964 208.329 92.596C208.329 92.084 208.545 91.672 208.977 91.36C209.409 91.048 210.001 90.892 210.753 90.892C211.481 90.892 212.085 91.024 212.565 91.288C213.045 91.544 213.285 91.888 213.285 92.32C213.285 92.536 213.205 92.696 213.045 92.8C212.885 92.904 212.621 92.96 212.253 92.968C212.173 92.648 212.021 92.408 211.797 92.248C211.573 92.088 211.257 92.008 210.849 92.008C210.545 92.008 210.281 92.06 210.057 92.164C209.841 92.268 209.733 92.404 209.733 92.572C209.733 92.748 209.825 92.884 210.009 92.98C210.193 93.076 210.513 93.172 210.969 93.268C211.865 93.46 212.513 93.716 212.913 94.036C213.321 94.356 213.525 94.792 213.525 95.344C213.525 95.88 213.285 96.308 212.805 96.628C212.333 96.948 211.685 97.108 210.861 97.108ZM221.237 95.944C221.237 96.32 221.117 96.608 220.877 96.808C220.645 97.008 220.289 97.108 219.809 97.108V96.388C219.913 96.268 220.009 96.136 220.097 95.992L220.025 95.944C219.513 96.72 218.825 97.108 217.961 97.108C217.553 97.108 217.185 97.016 216.857 96.832C216.537 96.64 216.281 96.376 216.089 96.04C215.905 95.704 215.813 95.324 215.813 94.9V91.804C215.813 91.476 215.933 91.244 216.173 91.108C216.421 90.964 216.797 90.892 217.301 90.892V94.792C217.301 95.104 217.397 95.352 217.589 95.536C217.781 95.72 218.057 95.812 218.417 95.812C218.817 95.812 219.137 95.688 219.377 95.44C219.625 95.184 219.749 94.868 219.749 94.492V91.804C219.749 91.476 219.869 91.244 220.109 91.108C220.349 90.964 220.725 90.892 221.237 90.892V95.944ZM226.176 97.108C225.744 97.108 225.356 97.016 225.012 96.832C224.668 96.648 224.396 96.396 224.196 96.076C223.996 95.748 223.896 95.372 223.896 94.948V93.052C223.896 92.636 224 92.264 224.208 91.936C224.416 91.608 224.704 91.352 225.072 91.168C225.448 90.984 225.864 90.892 226.32 90.892C226.616 90.892 226.92 90.956 227.232 91.084C227.552 91.204 227.82 91.368 228.036 91.576L228.084 91.516C228.044 91.452 227.956 91.372 227.82 91.276V89.5C227.82 89.18 227.944 88.932 228.192 88.756C228.448 88.58 228.832 88.492 229.344 88.492V96.076C229.344 96.372 229.232 96.62 229.008 96.82C228.784 97.012 228.436 97.108 227.964 97.108V96.448C228.068 96.32 228.144 96.216 228.192 96.136L228.132 96.088C227.884 96.424 227.608 96.68 227.304 96.856C227.008 97.024 226.632 97.108 226.176 97.108ZM226.62 95.812C226.98 95.812 227.272 95.728 227.496 95.56C227.728 95.384 227.844 95.164 227.844 94.9V93.088C227.844 92.832 227.728 92.62 227.496 92.452C227.272 92.276 226.976 92.188 226.608 92.188C226.216 92.188 225.912 92.272 225.696 92.44C225.488 92.6 225.384 92.832 225.384 93.136V94.84C225.384 95.16 225.488 95.404 225.696 95.572C225.912 95.732 226.22 95.812 226.62 95.812ZM236.487 92.044C236.487 91.676 236.603 91.392 236.835 91.192C237.075 90.992 237.435 90.892 237.915 90.892V91.612C237.819 91.724 237.723 91.852 237.627 91.996L237.699 92.044C237.939 91.684 238.247 91.404 238.623 91.204C238.999 90.996 239.415 90.892 239.871 90.892C240.279 90.892 240.639 90.984 240.951 91.168C241.263 91.352 241.503 91.604 241.671 91.924C241.847 92.244 241.935 92.604 241.935 93.004V96.196C241.935 96.516 241.811 96.748 241.563 96.892C241.315 97.036 240.939 97.108 240.435 97.108V93.22C240.435 92.916 240.343 92.668 240.159 92.476C239.983 92.284 239.723 92.188 239.379 92.188C238.971 92.188 238.635 92.316 238.371 92.572C238.107 92.82 237.975 93.132 237.975 93.508V96.196C237.975 96.516 237.855 96.748 237.615 96.892C237.375 97.036 236.999 97.108 236.487 97.108V92.044ZM245.276 97.108C245.012 97.108 244.788 97.024 244.604 96.856C244.428 96.68 244.34 96.46 244.34 96.196C244.34 95.932 244.428 95.712 244.604 95.536C244.788 95.352 245.012 95.26 245.276 95.26C245.532 95.26 245.752 95.352 245.936 95.536C246.128 95.712 246.224 95.932 246.224 96.196C246.224 96.452 246.128 96.668 245.936 96.844C245.752 97.02 245.532 97.108 245.276 97.108ZM249.385 97.108C249.121 97.108 248.897 97.024 248.713 96.856C248.537 96.68 248.449 96.46 248.449 96.196C248.449 95.932 248.537 95.712 248.713 95.536C248.897 95.352 249.121 95.26 249.385 95.26C249.641 95.26 249.861 95.352 250.045 95.536C250.237 95.712 250.333 95.932 250.333 96.196C250.333 96.452 250.237 96.668 250.045 96.844C249.861 97.02 249.641 97.108 249.385 97.108Z" fill="white" fill-opacity="0.7"/>
<path d="M77.708 141.332C77.708 141.124 77.784 140.952 77.936 140.816C78.088 140.672 78.28 140.6 78.512 140.6H81.848C82.424 140.6 82.932 140.716 83.372 140.948C83.82 141.172 84.164 141.496 84.404 141.92C84.652 142.336 84.776 142.82 84.776 143.372C84.776 143.932 84.656 144.424 84.416 144.848C84.176 145.264 83.836 145.588 83.396 145.82C82.956 146.044 82.44 146.156 81.848 146.156H79.316V147.92C79.316 148.304 79.176 148.6 78.896 148.808C78.624 149.008 78.228 149.108 77.708 149.108V141.332ZM81.848 144.764C82.272 144.764 82.6 144.64 82.832 144.392C83.064 144.144 83.18 143.8 83.18 143.36C83.18 142.928 83.06 142.592 82.82 142.352C82.588 142.112 82.264 141.992 81.848 141.992H79.316V144.764H81.848ZM86.8327 141.644C86.8327 141.276 86.9607 140.992 87.2167 140.792C87.4727 140.592 87.8407 140.492 88.3207 140.492V143.612C88.2167 143.724 88.1207 143.852 88.0327 143.996L88.1047 144.044C88.6567 143.276 89.3607 142.892 90.2167 142.892C90.6247 142.892 90.9847 142.984 91.2967 143.168C91.6087 143.352 91.8487 143.604 92.0167 143.924C92.1927 144.244 92.2807 144.604 92.2807 145.004V148.196C92.2807 148.516 92.1567 148.748 91.9087 148.892C91.6607 149.036 91.2847 149.108 90.7807 149.108V145.22C90.7807 144.916 90.6887 144.668 90.5047 144.476C90.3287 144.284 90.0687 144.188 89.7247 144.188C89.3167 144.188 88.9807 144.316 88.7167 144.572C88.4527 144.82 88.3207 145.132 88.3207 145.508V148.196C88.3207 148.516 88.1967 148.748 87.9487 148.892C87.7007 149.036 87.3287 149.108 86.8327 149.108V141.644ZM97.1763 149.108C96.6563 149.108 96.1843 149.016 95.7603 148.832C95.3443 148.64 95.0163 148.376 94.7763 148.04C94.5363 147.704 94.4163 147.324 94.4163 146.9V145.208C94.4163 144.776 94.5323 144.384 94.7643 144.032C95.0043 143.68 95.3323 143.404 95.7483 143.204C96.1643 142.996 96.6403 142.892 97.1763 142.892C97.7123 142.892 98.1883 142.996 98.6043 143.204C99.0283 143.404 99.3563 143.68 99.5883 144.032C99.8283 144.384 99.9483 144.776 99.9483 145.208V146.9C99.9483 147.324 99.8243 147.704 99.5763 148.04C99.3363 148.376 99.0043 148.64 98.5803 148.832C98.1643 149.016 97.6963 149.108 97.1763 149.108ZM97.1763 147.824C97.5763 147.824 97.8883 147.732 98.1123 147.548C98.3443 147.364 98.4603 147.116 98.4603 146.804V145.28C98.4603 144.952 98.3443 144.688 98.1123 144.488C97.8883 144.28 97.5763 144.176 97.1763 144.176C96.7843 144.176 96.4723 144.28 96.2403 144.488C96.0083 144.688 95.8923 144.952 95.8923 145.28V146.804C95.8923 147.116 96.0083 147.364 96.2403 147.548C96.4723 147.732 96.7843 147.824 97.1763 147.824ZM102.211 144.044C102.211 143.676 102.327 143.392 102.559 143.192C102.799 142.992 103.159 142.892 103.639 142.892V143.612C103.543 143.724 103.447 143.852 103.351 143.996L103.423 144.044C103.663 143.684 103.971 143.404 104.347 143.204C104.723 142.996 105.139 142.892 105.595 142.892C106.003 142.892 106.363 142.984 106.675 143.168C106.987 143.352 107.227 143.604 107.395 143.924C107.571 144.244 107.659 144.604 107.659 145.004V148.196C107.659 148.516 107.535 148.748 107.287 148.892C107.039 149.036 106.663 149.108 106.159 149.108V145.22C106.159 144.916 106.067 144.668 105.883 144.476C105.707 144.284 105.447 144.188 105.103 144.188C104.695 144.188 104.359 144.316 104.095 144.572C103.831 144.82 103.699 145.132 103.699 145.508V148.196C103.699 148.516 103.579 148.748 103.339 148.892C103.099 149.036 102.723 149.108 102.211 149.108V144.044ZM112.932 149.108C112.436 149.108 111.984 149.012 111.576 148.82C111.168 148.62 110.844 148.352 110.604 148.016C110.364 147.672 110.244 147.288 110.244 146.864V145.268C110.244 144.82 110.368 144.416 110.616 144.056C110.864 143.696 111.192 143.412 111.6 143.204C112.016 142.996 112.464 142.892 112.944 142.892C113.416 142.892 113.848 142.992 114.24 143.192C114.64 143.384 114.956 143.656 115.188 144.008C115.42 144.352 115.536 144.748 115.536 145.196V145.868C115.536 146.044 115.468 146.192 115.332 146.312C115.204 146.432 115.04 146.492 114.84 146.492H111.696V146.756C111.696 147.1 111.8 147.38 112.008 147.596C112.216 147.812 112.528 147.92 112.944 147.92C113.344 147.92 113.64 147.832 113.832 147.656C114.032 147.48 114.132 147.252 114.132 146.972C114.276 146.956 114.376 146.948 114.432 146.948C114.728 146.948 114.96 147.016 115.128 147.152C115.296 147.28 115.38 147.464 115.38 147.704C115.38 147.936 115.272 148.16 115.056 148.376C114.84 148.592 114.544 148.768 114.168 148.904C113.792 149.04 113.38 149.108 112.932 149.108ZM114.18 145.424V145.196C114.18 144.86 114.064 144.588 113.832 144.38C113.6 144.172 113.3 144.068 112.932 144.068C112.564 144.068 112.264 144.172 112.032 144.38C111.808 144.58 111.696 144.852 111.696 145.196V145.424H114.18ZM123.241 144.896C122.929 144.896 122.673 144.8 122.473 144.608C122.273 144.408 122.173 144.152 122.173 143.84C122.173 143.544 122.273 143.292 122.473 143.084C122.681 142.876 122.937 142.772 123.241 142.772C123.545 142.772 123.801 142.876 124.009 143.084C124.225 143.292 124.333 143.544 124.333 143.84C124.333 144.144 124.225 144.396 124.009 144.596C123.801 144.796 123.545 144.896 123.241 144.896ZM123.241 149.108C122.937 149.108 122.681 149.008 122.473 148.808C122.273 148.608 122.173 148.356 122.173 148.052C122.173 147.748 122.273 147.496 122.473 147.296C122.681 147.088 122.937 146.984 123.241 146.984C123.545 146.984 123.801 147.088 124.009 147.296C124.225 147.496 124.333 147.748 124.333 148.052C124.333 148.356 124.225 148.608 124.009 148.808C123.801 149.008 123.545 149.108 123.241 149.108Z" fill="white" fill-opacity="0.7"/>
<path d="M88.072 166.18H85.456C85.456 165.756 85.544 165.424 85.72 165.184C85.904 164.936 86.176 164.812 86.536 164.812H88.072V163.504C88.072 163.112 88.204 162.832 88.468 162.664C88.732 162.488 89.12 162.4 89.632 162.4V164.812H92.248C92.248 165.244 92.156 165.58 91.972 165.82C91.796 166.06 91.52 166.18 91.144 166.18H89.632V167.488C89.632 168.232 89.112 168.604 88.072 168.604V166.18ZM95.2072 169C94.9832 169 94.8032 168.936 94.6672 168.808C94.5392 168.68 94.4752 168.512 94.4752 168.304C94.4752 167.68 94.7192 167.112 95.2072 166.6C95.7032 166.08 96.4792 165.58 97.5352 165.1C98.0392 164.876 98.4232 164.672 98.6872 164.488C98.9512 164.296 99.1352 164.1 99.2392 163.9C99.3512 163.692 99.4072 163.444 99.4072 163.156C99.4072 162.756 99.2712 162.448 98.9992 162.232C98.7272 162.008 98.3432 161.896 97.8472 161.896C96.7112 161.896 96.1432 162.364 96.1432 163.3C96.1432 163.516 96.1592 163.704 96.1912 163.864C96.1192 163.88 96.0152 163.888 95.8792 163.888C95.5112 163.888 95.1952 163.784 94.9312 163.576C94.6752 163.36 94.5472 163.096 94.5472 162.784C94.5472 162.36 94.6912 161.972 94.9792 161.62C95.2672 161.268 95.6632 160.992 96.1672 160.792C96.6712 160.592 97.2312 160.492 97.8472 160.492C98.4792 160.492 99.0352 160.604 99.5152 160.828C100.003 161.044 100.379 161.356 100.643 161.764C100.907 162.164 101.039 162.628 101.039 163.156C101.039 163.748 100.819 164.288 100.379 164.776C99.9392 165.256 99.2712 165.7 98.3752 166.108C97.6792 166.428 97.1632 166.712 96.8272 166.96C96.4992 167.2 96.3232 167.424 96.2992 167.632H99.9472C100.347 167.632 100.651 167.748 100.859 167.98C101.067 168.212 101.171 168.552 101.171 169H95.2072ZM104.985 161.98H104.373C104.037 161.98 103.769 161.856 103.569 161.608C103.369 161.352 103.269 161.016 103.269 160.6H105.849C106.057 160.6 106.233 160.668 106.377 160.804C106.521 160.94 106.593 161.1 106.593 161.284V167.92C106.593 168.304 106.453 168.6 106.173 168.808C105.901 169.008 105.505 169.108 104.985 169.108V161.98ZM109.847 169C109.623 169 109.443 168.936 109.307 168.808C109.179 168.68 109.115 168.512 109.115 168.304C109.115 167.68 109.359 167.112 109.847 166.6C110.343 166.08 111.119 165.58 112.175 165.1C112.679 164.876 113.063 164.672 113.327 164.488C113.591 164.296 113.775 164.1 113.879 163.9C113.991 163.692 114.047 163.444 114.047 163.156C114.047 162.756 113.911 162.448 113.639 162.232C113.367 162.008 112.983 161.896 112.487 161.896C111.351 161.896 110.783 162.364 110.783 163.3C110.783 163.516 110.799 163.704 110.831 163.864C110.759 163.88 110.655 163.888 110.519 163.888C110.151 163.888 109.835 163.784 109.571 163.576C109.315 163.36 109.187 163.096 109.187 162.784C109.187 162.36 109.331 161.972 109.619 161.62C109.907 161.268 110.303 160.992 110.807 160.792C111.311 160.592 111.871 160.492 112.487 160.492C113.119 160.492 113.675 160.604 114.155 160.828C114.643 161.044 115.019 161.356 115.283 161.764C115.547 162.164 115.679 162.628 115.679 163.156C115.679 163.748 115.459 164.288 115.019 164.776C114.579 165.256 113.911 165.7 113.015 166.108C112.319 166.428 111.803 166.712 111.467 166.96C111.139 167.2 110.963 167.424 110.939 167.632H114.587C114.987 167.632 115.291 167.748 115.499 167.98C115.707 168.212 115.811 168.552 115.811 169H109.847ZM122.565 161.98H119.013C118.653 161.98 118.377 161.864 118.185 161.632C118.001 161.392 117.909 161.048 117.909 160.6H123.777C124.009 160.6 124.193 160.664 124.329 160.792C124.473 160.912 124.545 161.068 124.545 161.26C124.545 161.38 124.517 161.496 124.461 161.608L120.981 168.604C120.813 168.94 120.533 169.108 120.141 169.108C119.933 169.108 119.749 169.084 119.589 169.036C119.437 168.988 119.293 168.912 119.157 168.808L122.565 161.98ZM128.257 161.98H127.645C127.309 161.98 127.041 161.856 126.841 161.608C126.641 161.352 126.541 161.016 126.541 160.6H129.121C129.329 160.6 129.505 160.668 129.649 160.804C129.793 160.94 129.865 161.1 129.865 161.284V167.92C129.865 168.304 129.725 168.6 129.445 168.808C129.173 169.008 128.777 169.108 128.257 169.108V161.98ZM135.94 169.108C135.316 169.108 134.744 168.988 134.224 168.748C133.712 168.508 133.308 168.18 133.012 167.764C132.716 167.34 132.568 166.876 132.568 166.372V163.228C132.568 162.724 132.716 162.264 133.012 161.848C133.308 161.424 133.712 161.092 134.224 160.852C134.744 160.612 135.316 160.492 135.94 160.492C136.564 160.492 137.132 160.616 137.644 160.864C138.164 161.104 138.572 161.432 138.868 161.848C139.172 162.264 139.324 162.724 139.324 163.228V166.372C139.324 166.876 139.172 167.336 138.868 167.752C138.572 168.168 138.164 168.5 137.644 168.748C137.132 168.988 136.564 169.108 135.94 169.108ZM135.94 167.704C136.484 167.704 136.916 167.58 137.236 167.332C137.556 167.076 137.716 166.74 137.716 166.324V163.276C137.716 162.86 137.556 162.528 137.236 162.28C136.916 162.024 136.484 161.896 135.94 161.896C135.396 161.896 134.964 162.024 134.644 162.28C134.324 162.528 134.164 162.86 134.164 163.276V166.324C134.164 166.74 134.324 167.076 134.644 167.332C134.964 167.58 135.396 167.704 135.94 167.704ZM145.107 169.108C144.451 169.108 143.867 169.012 143.355 168.82C142.843 168.62 142.443 168.344 142.155 167.992C141.867 167.632 141.723 167.224 141.723 166.768C141.723 166.392 141.843 166.12 142.083 165.952C142.331 165.784 142.731 165.7 143.283 165.7C143.259 165.852 143.247 166.032 143.247 166.24C143.247 166.72 143.403 167.088 143.715 167.344C144.035 167.592 144.499 167.716 145.107 167.716C145.707 167.716 146.159 167.62 146.463 167.428C146.775 167.236 146.931 166.952 146.931 166.576C146.931 165.792 146.399 165.4 145.335 165.4H144.939C144.739 165.4 144.575 165.336 144.447 165.208C144.319 165.08 144.255 164.916 144.255 164.716C144.255 164.508 144.315 164.344 144.435 164.224C144.563 164.096 144.731 164.032 144.939 164.032H145.347C146.243 164.032 146.691 163.668 146.691 162.94C146.691 162.596 146.559 162.336 146.295 162.16C146.031 161.976 145.651 161.884 145.155 161.884C144.611 161.884 144.191 161.98 143.895 162.172C143.599 162.356 143.451 162.624 143.451 162.976C143.451 163.128 143.467 163.3 143.499 163.492C143.035 163.508 142.655 163.428 142.359 163.252C142.071 163.076 141.927 162.84 141.927 162.544C141.927 162.144 142.063 161.788 142.335 161.476C142.607 161.164 142.987 160.924 143.475 160.756C143.971 160.58 144.531 160.492 145.155 160.492C145.787 160.492 146.343 160.592 146.823 160.792C147.303 160.992 147.671 161.28 147.927 161.656C148.191 162.024 148.323 162.452 148.323 162.94C148.323 163.692 147.935 164.284 147.159 164.716C147.663 164.932 148.019 165.184 148.227 165.472C148.443 165.76 148.551 166.128 148.551 166.576C148.551 167.08 148.407 167.524 148.119 167.908C147.831 168.292 147.427 168.588 146.907 168.796C146.387 169.004 145.787 169.108 145.107 169.108ZM152.374 161.98H151.762C151.426 161.98 151.158 161.856 150.958 161.608C150.758 161.352 150.658 161.016 150.658 160.6H153.238C153.446 160.6 153.622 160.668 153.766 160.804C153.91 160.94 153.982 161.1 153.982 161.284V167.92C153.982 168.304 153.842 168.6 153.562 168.808C153.29 169.008 152.894 169.108 152.374 169.108V161.98ZM161.04 161.98H157.488C157.128 161.98 156.852 161.864 156.66 161.632C156.476 161.392 156.384 161.048 156.384 160.6H162.252C162.484 160.6 162.668 160.664 162.804 160.792C162.948 160.912 163.02 161.068 163.02 161.26C163.02 161.38 162.992 161.496 162.936 161.608L159.456 168.604C159.288 168.94 159.008 169.108 158.616 169.108C158.408 169.108 158.224 169.084 158.064 169.036C157.912 168.988 157.768 168.912 157.632 168.808L161.04 161.98ZM168.436 169.108C167.828 169.108 167.272 169.012 166.768 168.82C166.264 168.62 165.864 168.348 165.568 168.004C165.28 167.66 165.136 167.28 165.136 166.864C165.136 166.512 165.236 166.256 165.436 166.096C165.636 165.936 165.952 165.856 166.384 165.856L166.636 165.868C166.612 165.996 166.6 166.156 166.6 166.348C166.6 166.772 166.764 167.104 167.092 167.344C167.42 167.584 167.868 167.704 168.436 167.704C169.028 167.704 169.48 167.552 169.792 167.248C170.112 166.936 170.272 166.496 170.272 165.928C170.272 165.392 170.108 164.976 169.78 164.68C169.452 164.384 168.996 164.236 168.412 164.236C167.772 164.236 167.228 164.404 166.78 164.74C166.58 164.884 166.372 164.956 166.156 164.956C165.94 164.956 165.756 164.892 165.604 164.764C165.452 164.628 165.376 164.456 165.376 164.248C165.376 164.192 165.38 164.148 165.388 164.116L165.868 161.176C165.9 160.984 165.98 160.84 166.108 160.744C166.244 160.648 166.42 160.6 166.636 160.6H171.46C171.46 161.512 171.088 161.968 170.344 161.968H167.104L166.888 163.252C166.688 163.388 166.524 163.524 166.396 163.66L166.456 163.732C166.76 163.476 167.124 163.272 167.548 163.12C167.98 162.968 168.404 162.892 168.82 162.892C169.428 162.892 169.956 163.016 170.404 163.264C170.86 163.512 171.208 163.864 171.448 164.32C171.696 164.776 171.82 165.312 171.82 165.928C171.82 166.576 171.684 167.14 171.412 167.62C171.14 168.1 170.748 168.468 170.236 168.724C169.732 168.98 169.132 169.108 168.436 169.108ZM174.782 169C174.558 169 174.378 168.936 174.242 168.808C174.114 168.68 174.05 168.512 174.05 168.304C174.05 167.68 174.294 167.112 174.782 166.6C175.278 166.08 176.054 165.58 177.11 165.1C177.614 164.876 177.998 164.672 178.262 164.488C178.526 164.296 178.71 164.1 178.814 163.9C178.926 163.692 178.982 163.444 178.982 163.156C178.982 162.756 178.846 162.448 178.574 162.232C178.302 162.008 177.918 161.896 177.422 161.896C176.286 161.896 175.718 162.364 175.718 163.3C175.718 163.516 175.734 163.704 175.766 163.864C175.694 163.88 175.59 163.888 175.454 163.888C175.086 163.888 174.77 163.784 174.506 163.576C174.25 163.36 174.122 163.096 174.122 162.784C174.122 162.36 174.266 161.972 174.554 161.62C174.842 161.268 175.238 160.992 175.742 160.792C176.246 160.592 176.806 160.492 177.422 160.492C178.054 160.492 178.61 160.604 179.09 160.828C179.578 161.044 179.954 161.356 180.218 161.764C180.482 162.164 180.614 162.628 180.614 163.156C180.614 163.748 180.394 164.288 179.954 164.776C179.514 165.256 178.846 165.7 177.95 166.108C177.254 166.428 176.738 166.712 176.402 166.96C176.074 167.2 175.898 167.424 175.874 167.632H179.522C179.922 167.632 180.226 167.748 180.434 167.98C180.642 168.212 180.746 168.552 180.746 169H174.782ZM186.348 169.108C185.692 169.108 185.108 169.012 184.596 168.82C184.084 168.62 183.684 168.344 183.396 167.992C183.108 167.632 182.964 167.224 182.964 166.768C182.964 166.392 183.084 166.12 183.324 165.952C183.572 165.784 183.972 165.7 184.524 165.7C184.5 165.852 184.488 166.032 184.488 166.24C184.488 166.72 184.644 167.088 184.956 167.344C185.276 167.592 185.74 167.716 186.348 167.716C186.948 167.716 187.4 167.62 187.704 167.428C188.016 167.236 188.172 166.952 188.172 166.576C188.172 165.792 187.64 165.4 186.576 165.4H186.18C185.98 165.4 185.816 165.336 185.688 165.208C185.56 165.08 185.496 164.916 185.496 164.716C185.496 164.508 185.556 164.344 185.676 164.224C185.804 164.096 185.972 164.032 186.18 164.032H186.588C187.484 164.032 187.932 163.668 187.932 162.94C187.932 162.596 187.8 162.336 187.536 162.16C187.272 161.976 186.892 161.884 186.396 161.884C185.852 161.884 185.432 161.98 185.136 162.172C184.84 162.356 184.692 162.624 184.692 162.976C184.692 163.128 184.708 163.3 184.74 163.492C184.276 163.508 183.896 163.428 183.6 163.252C183.312 163.076 183.168 162.84 183.168 162.544C183.168 162.144 183.304 161.788 183.576 161.476C183.848 161.164 184.228 160.924 184.716 160.756C185.212 160.58 185.772 160.492 186.396 160.492C187.028 160.492 187.584 160.592 188.064 160.792C188.544 160.992 188.912 161.28 189.168 161.656C189.432 162.024 189.564 162.452 189.564 162.94C189.564 163.692 189.176 164.284 188.4 164.716C188.904 164.932 189.26 165.184 189.468 165.472C189.684 165.76 189.792 166.128 189.792 166.576C189.792 167.08 189.648 167.524 189.36 167.908C189.072 168.292 188.668 168.588 188.148 168.796C187.628 169.004 187.028 169.108 186.348 169.108ZM193.086 164.896C192.774 164.896 192.518 164.8 192.318 164.608C192.118 164.408 192.018 164.152 192.018 163.84C192.018 163.544 192.118 163.292 192.318 163.084C192.526 162.876 192.782 162.772 193.086 162.772C193.39 162.772 193.646 162.876 193.854 163.084C194.07 163.292 194.178 163.544 194.178 163.84C194.178 164.144 194.07 164.396 193.854 164.596C193.646 164.796 193.39 164.896 193.086 164.896ZM193.086 169.108C192.782 169.108 192.526 169.008 192.318 168.808C192.118 168.608 192.018 168.356 192.018 168.052C192.018 167.748 192.118 167.496 192.318 167.296C192.526 167.088 192.782 166.984 193.086 166.984C193.39 166.984 193.646 167.088 193.854 167.296C194.07 167.496 194.178 167.748 194.178 168.052C194.178 168.356 194.07 168.608 193.854 168.808C193.646 169.008 193.39 169.108 193.086 169.108Z" fill="white" fill-opacity="0.7"/>
<path d="M78.708 218.332C78.708 218.132 78.784 217.96 78.936 217.816C79.096 217.672 79.288 217.6 79.512 217.6H84.864C84.864 218.08 84.78 218.432 84.612 218.656C84.452 218.872 84.188 218.98 83.82 218.98H80.316V221.068H83.508C83.508 221.548 83.424 221.9 83.256 222.124C83.096 222.34 82.832 222.448 82.464 222.448H80.316V224.62H84.072C84.432 224.62 84.692 224.732 84.852 224.956C85.02 225.172 85.104 225.52 85.104 226H79.512C79.288 226 79.096 225.932 78.936 225.796C78.784 225.652 78.708 225.476 78.708 225.268V218.332ZM87.3346 223.144C87.3346 222.736 87.4186 222.42 87.5866 222.196C87.7626 221.972 88.0266 221.86 88.3786 221.86H92.1946C92.1946 222.716 91.8426 223.144 91.1386 223.144H87.3346ZM94.6722 221.044C94.6722 220.676 94.7882 220.392 95.0202 220.192C95.2522 219.992 95.6042 219.892 96.0762 219.892V220.612C95.9322 220.788 95.8362 220.916 95.7882 220.996L95.8722 221.044C96.1202 220.668 96.3842 220.384 96.6642 220.192C96.9442 219.992 97.2762 219.892 97.6602 219.892C98.3562 219.892 98.8362 220.232 99.1002 220.912C99.3002 220.592 99.5562 220.344 99.8682 220.168C100.18 219.984 100.532 219.892 100.924 219.892C101.468 219.892 101.9 220.092 102.22 220.492C102.548 220.884 102.712 221.388 102.712 222.004V225.196C102.712 225.516 102.588 225.748 102.34 225.892C102.1 226.036 101.732 226.108 101.236 226.108V222.124C101.236 221.828 101.168 221.592 101.032 221.416C100.904 221.24 100.704 221.152 100.432 221.152C100.144 221.152 99.9002 221.252 99.7002 221.452C99.5082 221.644 99.4122 221.948 99.4122 222.364V225.196C99.4122 225.516 99.2922 225.748 99.0522 225.892C98.8202 226.036 98.4562 226.108 97.9602 226.108V222.124C97.9602 221.82 97.8962 221.584 97.7682 221.416C97.6402 221.24 97.4402 221.152 97.1682 221.152C96.8322 221.152 96.5762 221.268 96.4002 221.5C96.2322 221.724 96.1482 222.032 96.1482 222.424V225.196C96.1482 225.516 96.0242 225.748 95.7762 225.892C95.5362 226.036 95.1682 226.108 94.6722 226.108V221.044ZM107.359 226.108C106.951 226.108 106.575 226.028 106.231 225.868C105.895 225.708 105.623 225.48 105.415 225.184C105.215 224.88 105.115 224.52 105.115 224.104C105.115 223.688 105.223 223.328 105.439 223.024C105.655 222.712 105.947 222.476 106.315 222.316C106.691 222.148 107.103 222.064 107.551 222.064C107.919 222.064 108.247 222.124 108.535 222.244C108.831 222.356 109.103 222.528 109.351 222.76L109.411 222.7C109.339 222.628 109.215 222.52 109.039 222.376V222.136C109.039 221.808 108.923 221.548 108.691 221.356C108.459 221.164 108.135 221.068 107.719 221.068C106.975 221.068 106.427 221.34 106.075 221.884C105.899 221.828 105.751 221.74 105.631 221.62C105.511 221.492 105.451 221.356 105.451 221.212C105.451 220.972 105.559 220.752 105.775 220.552C105.991 220.352 106.283 220.192 106.651 220.072C107.019 219.952 107.419 219.892 107.851 219.892C108.699 219.892 109.355 220.092 109.819 220.492C110.283 220.884 110.515 221.42 110.515 222.1V225.1C110.515 225.452 110.403 225.708 110.179 225.868C109.955 226.028 109.603 226.108 109.123 226.108V225.616C109.259 225.48 109.351 225.38 109.399 225.316L109.351 225.256C109.087 225.536 108.803 225.748 108.499 225.892C108.203 226.036 107.823 226.108 107.359 226.108ZM107.743 225.016C108.159 225.016 108.483 224.936 108.715 224.776C108.947 224.616 109.063 224.388 109.063 224.092C109.063 223.804 108.943 223.576 108.703 223.408C108.471 223.24 108.155 223.156 107.755 223.156C107.387 223.156 107.095 223.24 106.879 223.408C106.671 223.568 106.567 223.796 106.567 224.092C106.567 224.396 106.671 224.628 106.879 224.788C107.087 224.94 107.375 225.016 107.743 225.016ZM114.175 219.328C113.887 219.328 113.647 219.244 113.455 219.076C113.271 218.9 113.179 218.676 113.179 218.404C113.179 218.14 113.271 217.924 113.455 217.756C113.647 217.58 113.887 217.492 114.175 217.492C114.463 217.492 114.699 217.58 114.883 217.756C115.075 217.924 115.171 218.14 115.171 218.404C115.171 218.676 115.075 218.9 114.883 219.076C114.699 219.244 114.463 219.328 114.175 219.328ZM113.419 220.804C113.419 220.476 113.543 220.244 113.791 220.108C114.039 219.964 114.415 219.892 114.919 219.892V225.196C114.919 225.516 114.795 225.748 114.547 225.892C114.299 226.036 113.923 226.108 113.419 226.108V220.804ZM119.878 226.108C119.214 226.108 118.71 225.92 118.366 225.544C118.03 225.16 117.862 224.676 117.862 224.092V218.404C117.862 218.076 117.982 217.844 118.222 217.708C118.47 217.564 118.85 217.492 119.362 217.492V224.032C119.362 224.304 119.422 224.504 119.542 224.632C119.662 224.752 119.854 224.812 120.118 224.812C120.414 224.812 120.71 224.736 121.006 224.584C121.086 224.656 121.146 224.748 121.186 224.86C121.234 224.964 121.258 225.072 121.258 225.184C121.258 225.424 121.138 225.64 120.898 225.832C120.658 226.016 120.318 226.108 119.878 226.108ZM128.842 221.896C128.53 221.896 128.274 221.8 128.074 221.608C127.874 221.408 127.774 221.152 127.774 220.84C127.774 220.544 127.874 220.292 128.074 220.084C128.282 219.876 128.538 219.772 128.842 219.772C129.146 219.772 129.402 219.876 129.61 220.084C129.826 220.292 129.934 220.544 129.934 220.84C129.934 221.144 129.826 221.396 129.61 221.596C129.402 221.796 129.146 221.896 128.842 221.896ZM128.842 226.108C128.538 226.108 128.282 226.008 128.074 225.808C127.874 225.608 127.774 225.356 127.774 225.052C127.774 224.748 127.874 224.496 128.074 224.296C128.282 224.088 128.538 223.984 128.842 223.984C129.146 223.984 129.402 224.088 129.61 224.296C129.826 224.496 129.934 224.748 129.934 225.052C129.934 225.356 129.826 225.608 129.61 225.808C129.402 226.008 129.146 226.108 128.842 226.108Z" fill="white" fill-opacity="0.7"/>
<path d="M87.56 246.108C87.216 246.068 86.944 245.948 86.744 245.748C86.552 245.548 86.456 245.296 86.456 244.992C86.456 244.76 86.512 244.52 86.624 244.272L89.372 238.02C89.524 237.668 89.788 237.492 90.164 237.492C90.532 237.492 90.792 237.668 90.944 238.02L93.692 244.272C93.804 244.536 93.86 244.776 93.86 244.992C93.86 245.296 93.76 245.548 93.56 245.748C93.368 245.948 93.096 246.068 92.744 246.108L91.736 243.828H88.58L87.56 246.108ZM91.244 242.46L89.924 239.172L89.78 239.232L90.068 239.976L89.06 242.46H91.244ZM96.5232 248.508C96.2112 248.508 95.9632 248.4 95.7792 248.184C95.6032 247.968 95.5152 247.656 95.5152 247.248C95.7552 247.288 95.9552 247.308 96.1152 247.308C96.4192 247.308 96.6592 247.228 96.8352 247.068C97.0192 246.908 97.2192 246.588 97.4352 246.108L97.6272 245.664L95.3112 240.012C95.3672 239.98 95.4632 239.952 95.5992 239.928C95.7432 239.904 95.8592 239.892 95.9472 239.892C96.1792 239.892 96.3912 239.944 96.5832 240.048C96.7752 240.144 96.9072 240.28 96.9792 240.456L98.2632 243.828L98.0592 244.392L98.1672 244.428L99.7152 240.456C99.7872 240.272 99.9152 240.132 100.099 240.036C100.291 239.94 100.503 239.892 100.735 239.892C100.823 239.892 100.935 239.904 101.071 239.928C101.215 239.952 101.319 239.98 101.383 240.012L98.6952 246.54C98.4152 247.212 98.1072 247.708 97.7712 248.028C97.4432 248.348 97.0272 248.508 96.5232 248.508ZM103.434 241.044C103.434 240.676 103.55 240.392 103.782 240.192C104.014 239.992 104.366 239.892 104.838 239.892V240.612C104.694 240.788 104.598 240.916 104.55 240.996L104.634 241.044C104.882 240.668 105.146 240.384 105.426 240.192C105.706 239.992 106.038 239.892 106.422 239.892C107.118 239.892 107.598 240.232 107.862 240.912C108.062 240.592 108.318 240.344 108.63 240.168C108.942 239.984 109.294 239.892 109.686 239.892C110.23 239.892 110.662 240.092 110.982 240.492C111.31 240.884 111.474 241.388 111.474 242.004V245.196C111.474 245.516 111.35 245.748 111.102 245.892C110.862 246.036 110.494 246.108 109.998 246.108V242.124C109.998 241.828 109.93 241.592 109.794 241.416C109.666 241.24 109.466 241.152 109.194 241.152C108.906 241.152 108.662 241.252 108.462 241.452C108.27 241.644 108.174 241.948 108.174 242.364V245.196C108.174 245.516 108.054 245.748 107.814 245.892C107.582 246.036 107.218 246.108 106.722 246.108V242.124C106.722 241.82 106.658 241.584 106.53 241.416C106.402 241.24 106.202 241.152 105.93 241.152C105.594 241.152 105.338 241.268 105.162 241.5C104.994 241.724 104.91 242.032 104.91 242.424V245.196C104.91 245.516 104.786 245.748 104.538 245.892C104.298 246.036 103.93 246.108 103.434 246.108V241.044ZM116.121 246.108C115.713 246.108 115.337 246.028 114.993 245.868C114.657 245.708 114.385 245.48 114.177 245.184C113.977 244.88 113.877 244.52 113.877 244.104C113.877 243.688 113.985 243.328 114.201 243.024C114.417 242.712 114.709 242.476 115.077 242.316C115.453 242.148 115.865 242.064 116.313 242.064C116.681 242.064 117.009 242.124 117.297 242.244C117.593 242.356 117.865 242.528 118.113 242.76L118.173 242.7C118.101 242.628 117.977 242.52 117.801 242.376V242.136C117.801 241.808 117.685 241.548 117.453 241.356C117.221 241.164 116.897 241.068 116.481 241.068C115.737 241.068 115.189 241.34 114.837 241.884C114.661 241.828 114.513 241.74 114.393 241.62C114.273 241.492 114.213 241.356 114.213 241.212C114.213 240.972 114.321 240.752 114.537 240.552C114.753 240.352 115.045 240.192 115.413 240.072C115.781 239.952 116.181 239.892 116.613 239.892C117.461 239.892 118.117 240.092 118.581 240.492C119.045 240.884 119.277 241.42 119.277 242.1V245.1C119.277 245.452 119.165 245.708 118.941 245.868C118.717 246.028 118.365 246.108 117.885 246.108V245.616C118.021 245.48 118.113 245.38 118.161 245.316L118.113 245.256C117.849 245.536 117.565 245.748 117.261 245.892C116.965 246.036 116.585 246.108 116.121 246.108ZM116.505 245.016C116.921 245.016 117.245 244.936 117.477 244.776C117.709 244.616 117.825 244.388 117.825 244.092C117.825 243.804 117.705 243.576 117.465 243.408C117.233 243.24 116.917 243.156 116.517 243.156C116.149 243.156 115.857 243.24 115.641 243.408C115.433 243.568 115.329 243.796 115.329 244.092C115.329 244.396 115.433 244.628 115.641 244.788C115.849 244.94 116.137 245.016 116.505 245.016ZM121.941 241.044C121.941 240.676 122.057 240.392 122.289 240.192C122.529 239.992 122.889 239.892 123.369 239.892V240.612C123.273 240.724 123.177 240.852 123.081 240.996L123.153 241.044C123.393 240.684 123.701 240.404 124.077 240.204C124.453 239.996 124.869 239.892 125.325 239.892C125.733 239.892 126.093 239.984 126.405 240.168C126.717 240.352 126.957 240.604 127.125 240.924C127.301 241.244 127.389 241.604 127.389 242.004V245.196C127.389 245.516 127.265 245.748 127.017 245.892C126.769 246.036 126.393 246.108 125.889 246.108V242.22C125.889 241.916 125.797 241.668 125.613 241.476C125.437 241.284 125.177 241.188 124.833 241.188C124.425 241.188 124.089 241.316 123.825 241.572C123.561 241.82 123.429 242.132 123.429 242.508V245.196C123.429 245.516 123.309 245.748 123.069 245.892C122.829 246.036 122.453 246.108 121.941 246.108V241.044ZM130.046 238.5C130.046 238.18 130.17 237.932 130.418 237.756C130.674 237.58 131.054 237.492 131.558 237.492V240.276C131.446 240.364 131.358 240.444 131.294 240.516L131.342 240.576C131.558 240.368 131.838 240.204 132.182 240.084C132.534 239.956 132.858 239.892 133.154 239.892C133.866 239.892 134.434 240.092 134.858 240.492C135.282 240.884 135.494 241.4 135.494 242.04V243.948C135.494 244.364 135.39 244.736 135.182 245.064C134.974 245.392 134.694 245.648 134.342 245.832C133.99 246.016 133.614 246.108 133.214 246.108C132.79 246.108 132.418 246.024 132.098 245.856C131.786 245.68 131.502 245.424 131.246 245.088L131.198 245.136C131.23 245.192 131.27 245.248 131.318 245.304C131.366 245.36 131.402 245.404 131.426 245.436C131.426 245.66 131.318 245.828 131.102 245.94C130.886 246.052 130.534 246.108 130.046 246.108V238.5ZM132.77 244.812C133.17 244.812 133.474 244.732 133.682 244.572C133.898 244.404 134.006 244.16 134.006 243.84V242.136C134.006 241.832 133.898 241.6 133.682 241.44C133.466 241.272 133.162 241.188 132.77 241.188C132.418 241.188 132.122 241.276 131.882 241.452C131.65 241.628 131.534 241.84 131.534 242.088V243.9C131.534 244.164 131.65 244.384 131.882 244.56C132.114 244.728 132.41 244.812 132.77 244.812ZM140.767 246.108C140.271 246.108 139.819 246.012 139.411 245.82C139.003 245.62 138.679 245.352 138.439 245.016C138.199 244.672 138.079 244.288 138.079 243.864V242.268C138.079 241.82 138.203 241.416 138.451 241.056C138.699 240.696 139.027 240.412 139.435 240.204C139.851 239.996 140.299 239.892 140.779 239.892C141.251 239.892 141.683 239.992 142.075 240.192C142.475 240.384 142.791 240.656 143.023 241.008C143.255 241.352 143.371 241.748 143.371 242.196V242.868C143.371 243.044 143.303 243.192 143.167 243.312C143.039 243.432 142.875 243.492 142.675 243.492H139.531V243.756C139.531 244.1 139.635 244.38 139.843 244.596C140.051 244.812 140.363 244.92 140.779 244.92C141.179 244.92 141.475 244.832 141.667 244.656C141.867 244.48 141.967 244.252 141.967 243.972C142.111 243.956 142.211 243.948 142.267 243.948C142.563 243.948 142.795 244.016 142.963 244.152C143.131 244.28 143.215 244.464 143.215 244.704C143.215 244.936 143.107 245.16 142.891 245.376C142.675 245.592 142.379 245.768 142.003 245.904C141.627 246.04 141.215 246.108 140.767 246.108ZM142.015 242.424V242.196C142.015 241.86 141.899 241.588 141.667 241.38C141.435 241.172 141.135 241.068 140.767 241.068C140.399 241.068 140.099 241.172 139.867 241.38C139.643 241.58 139.531 241.852 139.531 242.196V242.424H142.015ZM145.846 241.044C145.846 240.676 145.962 240.392 146.194 240.192C146.434 239.992 146.794 239.892 147.274 239.892V240.612C147.178 240.724 147.082 240.852 146.986 240.996L147.058 241.044C147.298 240.684 147.606 240.404 147.982 240.204C148.358 239.996 148.774 239.892 149.23 239.892C149.638 239.892 149.998 239.984 150.31 240.168C150.622 240.352 150.862 240.604 151.03 240.924C151.206 241.244 151.294 241.604 151.294 242.004V245.196C151.294 245.516 151.17 245.748 150.922 245.892C150.674 246.036 150.298 246.108 149.794 246.108V242.22C149.794 241.916 149.702 241.668 149.518 241.476C149.342 241.284 149.082 241.188 148.738 241.188C148.33 241.188 147.994 241.316 147.73 241.572C147.466 241.82 147.334 242.132 147.334 242.508V245.196C147.334 245.516 147.214 245.748 146.974 245.892C146.734 246.036 146.358 246.108 145.846 246.108V241.044ZM156.532 246.108C156.012 246.108 155.552 246.016 155.152 245.832C154.752 245.64 154.44 245.376 154.216 245.04C153.992 244.704 153.88 244.324 153.88 243.9V242.22C153.88 241.764 153.992 241.36 154.216 241.008C154.44 240.656 154.752 240.384 155.152 240.192C155.552 239.992 156.008 239.892 156.52 239.892C157 239.892 157.424 239.96 157.792 240.096C158.168 240.232 158.46 240.424 158.668 240.672C158.876 240.912 158.98 241.192 158.98 241.512C158.98 241.76 158.884 241.96 158.692 242.112C158.5 242.264 158.248 242.34 157.936 242.34C157.848 242.34 157.784 242.336 157.744 242.328C157.744 241.984 157.632 241.708 157.408 241.5C157.192 241.292 156.908 241.188 156.556 241.188C156.204 241.188 155.916 241.288 155.692 241.488C155.476 241.688 155.368 241.952 155.368 242.28V243.792C155.368 244.096 155.48 244.344 155.704 244.536C155.928 244.72 156.216 244.812 156.568 244.812C156.92 244.812 157.208 244.708 157.432 244.5C157.656 244.284 157.768 244.012 157.768 243.684C157.816 243.676 157.884 243.672 157.972 243.672C158.284 243.672 158.536 243.744 158.728 243.888C158.92 244.032 159.016 244.228 159.016 244.476C159.016 244.796 158.908 245.08 158.692 245.328C158.484 245.568 158.192 245.76 157.816 245.904C157.44 246.04 157.012 246.108 156.532 246.108ZM161.483 238.644C161.483 238.276 161.611 237.992 161.867 237.792C162.123 237.592 162.491 237.492 162.971 237.492V240.612C162.867 240.724 162.771 240.852 162.683 240.996L162.755 241.044C163.307 240.276 164.011 239.892 164.867 239.892C165.275 239.892 165.635 239.984 165.947 240.168C166.259 240.352 166.499 240.604 166.667 240.924C166.843 241.244 166.931 241.604 166.931 242.004V245.196C166.931 245.516 166.807 245.748 166.559 245.892C166.311 246.036 165.935 246.108 165.431 246.108V242.22C165.431 241.916 165.339 241.668 165.155 241.476C164.979 241.284 164.719 241.188 164.375 241.188C163.967 241.188 163.631 241.316 163.367 241.572C163.103 241.82 162.971 242.132 162.971 242.508V245.196C162.971 245.516 162.847 245.748 162.599 245.892C162.351 246.036 161.979 246.108 161.483 246.108V238.644ZM171.533 246.108C171.125 246.108 170.749 246.028 170.405 245.868C170.069 245.708 169.797 245.48 169.589 245.184C169.389 244.88 169.289 244.52 169.289 244.104C169.289 243.688 169.397 243.328 169.613 243.024C169.829 242.712 170.121 242.476 170.489 242.316C170.865 242.148 171.277 242.064 171.725 242.064C172.093 242.064 172.421 242.124 172.709 242.244C173.005 242.356 173.277 242.528 173.525 242.76L173.585 242.7C173.513 242.628 173.389 242.52 173.213 242.376V242.136C173.213 241.808 173.097 241.548 172.865 241.356C172.633 241.164 172.309 241.068 171.893 241.068C171.149 241.068 170.601 241.34 170.249 241.884C170.073 241.828 169.925 241.74 169.805 241.62C169.685 241.492 169.625 241.356 169.625 241.212C169.625 240.972 169.733 240.752 169.949 240.552C170.165 240.352 170.457 240.192 170.825 240.072C171.193 239.952 171.593 239.892 172.025 239.892C172.873 239.892 173.529 240.092 173.993 240.492C174.457 240.884 174.689 241.42 174.689 242.1V245.1C174.689 245.452 174.577 245.708 174.353 245.868C174.129 246.028 173.777 246.108 173.297 246.108V245.616C173.433 245.48 173.525 245.38 173.573 245.316L173.525 245.256C173.261 245.536 172.977 245.748 172.673 245.892C172.377 246.036 171.997 246.108 171.533 246.108ZM171.917 245.016C172.333 245.016 172.657 244.936 172.889 244.776C173.121 244.616 173.237 244.388 173.237 244.092C173.237 243.804 173.117 243.576 172.877 243.408C172.645 243.24 172.329 243.156 171.929 243.156C171.561 243.156 171.269 243.24 171.053 243.408C170.845 243.568 170.741 243.796 170.741 244.092C170.741 244.396 170.845 244.628 171.053 244.788C171.261 244.94 171.549 245.016 171.917 245.016ZM179.321 246.108C178.657 246.108 178.153 245.92 177.809 245.544C177.473 245.16 177.305 244.676 177.305 244.092V238.404C177.305 238.076 177.425 237.844 177.665 237.708C177.913 237.564 178.293 237.492 178.805 237.492V244.032C178.805 244.304 178.865 244.504 178.985 244.632C179.105 244.752 179.297 244.812 179.561 244.812C179.857 244.812 180.153 244.736 180.449 244.584C180.529 244.656 180.589 244.748 180.629 244.86C180.677 244.964 180.701 245.072 180.701 245.184C180.701 245.424 180.581 245.64 180.341 245.832C180.101 246.016 179.761 246.108 179.321 246.108ZM183.056 238.644C183.056 238.276 183.184 237.992 183.44 237.792C183.696 237.592 184.064 237.492 184.544 237.492V240.612C184.44 240.724 184.344 240.852 184.256 240.996L184.328 241.044C184.88 240.276 185.584 239.892 186.44 239.892C186.848 239.892 187.208 239.984 187.52 240.168C187.832 240.352 188.072 240.604 188.24 240.924C188.416 241.244 188.504 241.604 188.504 242.004V245.196C188.504 245.516 188.38 245.748 188.132 245.892C187.884 246.036 187.508 246.108 187.004 246.108V242.22C187.004 241.916 186.912 241.668 186.728 241.476C186.552 241.284 186.292 241.188 185.948 241.188C185.54 241.188 185.204 241.316 184.94 241.572C184.676 241.82 184.544 242.132 184.544 242.508V245.196C184.544 245.516 184.42 245.748 184.172 245.892C183.924 246.036 183.552 246.108 183.056 246.108V238.644ZM195.542 246.108C194.558 246.108 193.714 245.928 193.01 245.568C192.306 245.2 191.77 244.696 191.402 244.056C191.042 243.408 190.862 242.672 190.862 241.848C190.862 240.992 191.05 240.236 191.426 239.58C191.802 238.916 192.334 238.404 193.022 238.044C193.718 237.676 194.53 237.492 195.458 237.492C196.322 237.492 197.09 237.636 197.762 237.924C198.442 238.212 198.97 238.632 199.346 239.184C199.73 239.736 199.922 240.4 199.922 241.176C199.922 241.744 199.802 242.252 199.562 242.7C199.33 243.148 199.006 243.5 198.59 243.756C198.174 244.004 197.71 244.128 197.198 244.128C196.902 244.128 196.646 244.056 196.43 243.912C196.222 243.76 196.09 243.56 196.034 243.312C195.882 243.552 195.67 243.748 195.398 243.9C195.126 244.052 194.822 244.128 194.486 244.128C193.99 244.128 193.602 243.98 193.322 243.684C193.05 243.38 192.914 242.96 192.914 242.424C192.914 241.856 193.022 241.344 193.238 240.888C193.454 240.424 193.754 240.064 194.138 239.808C194.522 239.544 194.954 239.412 195.434 239.412C195.69 239.412 195.914 239.472 196.106 239.592C196.306 239.704 196.454 239.86 196.55 240.06L196.706 239.58H197.762L196.85 242.628C196.834 242.708 196.826 242.764 196.826 242.796C196.826 242.996 196.958 243.096 197.222 243.096C197.59 243.096 197.898 242.924 198.146 242.58C198.402 242.236 198.53 241.764 198.53 241.164C198.53 239.508 197.506 238.68 195.458 238.68C194.418 238.68 193.622 238.956 193.07 239.508C192.518 240.06 192.242 240.84 192.242 241.848C192.242 242.824 192.522 243.58 193.082 244.116C193.65 244.644 194.47 244.908 195.542 244.908C196.43 244.908 197.166 244.74 197.75 244.404C197.854 244.348 197.962 244.32 198.074 244.32C198.226 244.32 198.378 244.376 198.53 244.488C198.682 244.592 198.81 244.736 198.914 244.92C198.474 245.336 197.966 245.64 197.39 245.832C196.814 246.016 196.198 246.108 195.542 246.108ZM194.702 243.144C194.934 243.144 195.142 243.048 195.326 242.856C195.518 242.656 195.666 242.396 195.77 242.076C195.882 241.748 195.938 241.4 195.938 241.032C195.938 240.816 195.894 240.656 195.806 240.552C195.726 240.448 195.594 240.396 195.41 240.396C195.178 240.396 194.958 240.484 194.75 240.66C194.55 240.836 194.39 241.084 194.27 241.404C194.15 241.716 194.09 242.064 194.09 242.448C194.09 242.696 194.138 242.876 194.234 242.988C194.338 243.092 194.494 243.144 194.702 243.144ZM204.867 248.508C204.395 248.508 203.975 248.44 203.607 248.304C203.239 248.176 202.951 248 202.743 247.776C202.535 247.552 202.431 247.304 202.431 247.032C202.431 246.76 202.523 246.568 202.707 246.456C202.899 246.344 203.167 246.288 203.511 246.288C203.543 246.616 203.671 246.868 203.895 247.044C204.119 247.228 204.443 247.32 204.867 247.32C205.339 247.32 205.671 247.204 205.863 246.972C206.063 246.74 206.163 246.42 206.163 246.012V245.604C206.283 245.516 206.371 245.432 206.427 245.352L206.379 245.292C206.171 245.5 205.891 245.668 205.539 245.796C205.195 245.924 204.871 245.988 204.567 245.988C204.119 245.988 203.719 245.9 203.367 245.724C203.015 245.54 202.735 245.284 202.527 244.956C202.327 244.628 202.227 244.256 202.227 243.84V242.052C202.227 241.652 202.331 241.288 202.539 240.96C202.755 240.624 203.035 240.364 203.379 240.18C203.731 239.988 204.107 239.892 204.507 239.892C204.947 239.892 205.319 239.98 205.623 240.156C205.935 240.332 206.219 240.584 206.475 240.912L206.523 240.864C206.483 240.792 206.407 240.688 206.295 240.552C206.295 240.112 206.755 239.892 207.675 239.892V245.796C207.675 246.324 207.555 246.792 207.315 247.2C207.075 247.608 206.739 247.928 206.307 248.16C205.883 248.392 205.403 248.508 204.867 248.508ZM204.951 244.704C205.303 244.704 205.599 244.616 205.839 244.44C206.079 244.256 206.199 244.04 206.199 243.792V242.088C206.199 241.832 206.079 241.616 205.839 241.44C205.607 241.264 205.311 241.176 204.951 241.176C204.559 241.176 204.255 241.26 204.039 241.428C203.831 241.596 203.727 241.836 203.727 242.148V243.732C203.727 244.036 203.831 244.276 204.039 244.452C204.247 244.62 204.551 244.704 204.951 244.704ZM210.36 241.044C210.36 240.676 210.476 240.392 210.708 240.192C210.94 239.992 211.292 239.892 211.764 239.892V240.612C211.62 240.788 211.524 240.916 211.476 240.996L211.56 241.044C211.808 240.668 212.072 240.384 212.352 240.192C212.632 239.992 212.964 239.892 213.348 239.892C214.044 239.892 214.524 240.232 214.788 240.912C214.988 240.592 215.244 240.344 215.556 240.168C215.868 239.984 216.22 239.892 216.612 239.892C217.156 239.892 217.588 240.092 217.908 240.492C218.236 240.884 218.4 241.388 218.4 242.004V245.196C218.4 245.516 218.276 245.748 218.028 245.892C217.788 246.036 217.42 246.108 216.924 246.108V242.124C216.924 241.828 216.856 241.592 216.72 241.416C216.592 241.24 216.392 241.152 216.12 241.152C215.832 241.152 215.588 241.252 215.388 241.452C215.196 241.644 215.1 241.948 215.1 242.364V245.196C215.1 245.516 214.98 245.748 214.74 245.892C214.508 246.036 214.144 246.108 213.648 246.108V242.124C213.648 241.82 213.584 241.584 213.456 241.416C213.328 241.24 213.128 241.152 212.856 241.152C212.52 241.152 212.264 241.268 212.088 241.5C211.92 241.724 211.836 242.032 211.836 242.424V245.196C211.836 245.516 211.712 245.748 211.464 245.892C211.224 246.036 210.856 246.108 210.36 246.108V241.044ZM223.047 246.108C222.639 246.108 222.263 246.028 221.919 245.868C221.583 245.708 221.311 245.48 221.103 245.184C220.903 244.88 220.803 244.52 220.803 244.104C220.803 243.688 220.911 243.328 221.127 243.024C221.343 242.712 221.635 242.476 222.003 242.316C222.379 242.148 222.791 242.064 223.239 242.064C223.607 242.064 223.935 242.124 224.223 242.244C224.519 242.356 224.791 242.528 225.039 242.76L225.099 242.7C225.027 242.628 224.903 242.52 224.727 242.376V242.136C224.727 241.808 224.611 241.548 224.379 241.356C224.147 241.164 223.823 241.068 223.407 241.068C222.663 241.068 222.115 241.34 221.763 241.884C221.587 241.828 221.439 241.74 221.319 241.62C221.199 241.492 221.139 241.356 221.139 241.212C221.139 240.972 221.247 240.752 221.463 240.552C221.679 240.352 221.971 240.192 222.339 240.072C222.707 239.952 223.107 239.892 223.539 239.892C224.387 239.892 225.043 240.092 225.507 240.492C225.971 240.884 226.203 241.42 226.203 242.1V245.1C226.203 245.452 226.091 245.708 225.867 245.868C225.643 246.028 225.291 246.108 224.811 246.108V245.616C224.947 245.48 225.039 245.38 225.087 245.316L225.039 245.256C224.775 245.536 224.491 245.748 224.187 245.892C223.891 246.036 223.511 246.108 223.047 246.108ZM223.431 245.016C223.847 245.016 224.171 244.936 224.403 244.776C224.635 244.616 224.751 244.388 224.751 244.092C224.751 243.804 224.631 243.576 224.391 243.408C224.159 243.24 223.843 243.156 223.443 243.156C223.075 243.156 222.783 243.24 222.567 243.408C222.359 243.568 222.255 243.796 222.255 244.092C222.255 244.396 222.359 244.628 222.567 244.788C222.775 244.94 223.063 245.016 223.431 245.016ZM229.863 239.328C229.575 239.328 229.335 239.244 229.143 239.076C228.959 238.9 228.867 238.676 228.867 238.404C228.867 238.14 228.959 237.924 229.143 237.756C229.335 237.58 229.575 237.492 229.863 237.492C230.151 237.492 230.387 237.58 230.571 237.756C230.763 237.924 230.859 238.14 230.859 238.404C230.859 238.676 230.763 238.9 230.571 239.076C230.387 239.244 230.151 239.328 229.863 239.328ZM229.107 240.804C229.107 240.476 229.231 240.244 229.479 240.108C229.727 239.964 230.103 239.892 230.607 239.892V245.196C230.607 245.516 230.483 245.748 230.235 245.892C229.987 246.036 229.611 246.108 229.107 246.108V240.804ZM235.565 246.108C234.901 246.108 234.397 245.92 234.053 245.544C233.717 245.16 233.549 244.676 233.549 244.092V238.404C233.549 238.076 233.669 237.844 233.909 237.708C234.157 237.564 234.537 237.492 235.049 237.492V244.032C235.049 244.304 235.109 244.504 235.229 244.632C235.349 244.752 235.541 244.812 235.805 244.812C236.101 244.812 236.397 244.736 236.693 244.584C236.773 244.656 236.833 244.748 236.873 244.86C236.921 244.964 236.945 245.072 236.945 245.184C236.945 245.424 236.825 245.64 236.585 245.832C236.345 246.016 236.005 246.108 235.565 246.108ZM239.984 246.108C239.72 246.108 239.496 246.024 239.312 245.856C239.136 245.68 239.048 245.46 239.048 245.196C239.048 244.932 239.136 244.712 239.312 244.536C239.496 244.352 239.72 244.26 239.984 244.26C240.24 244.26 240.46 244.352 240.644 244.536C240.836 244.712 240.932 244.932 240.932 245.196C240.932 245.452 240.836 245.668 240.644 245.844C240.46 246.02 240.24 246.108 239.984 246.108ZM245.989 246.108C245.469 246.108 245.009 246.016 244.609 245.832C244.209 245.64 243.897 245.376 243.673 245.04C243.449 244.704 243.337 244.324 243.337 243.9V242.22C243.337 241.764 243.449 241.36 243.673 241.008C243.897 240.656 244.209 240.384 244.609 240.192C245.009 239.992 245.465 239.892 245.977 239.892C246.457 239.892 246.881 239.96 247.249 240.096C247.625 240.232 247.917 240.424 248.125 240.672C248.333 240.912 248.437 241.192 248.437 241.512C248.437 241.76 248.341 241.96 248.149 242.112C247.957 242.264 247.705 242.34 247.393 242.34C247.305 242.34 247.241 242.336 247.201 242.328C247.201 241.984 247.089 241.708 246.865 241.5C246.649 241.292 246.365 241.188 246.013 241.188C245.661 241.188 245.373 241.288 245.149 241.488C244.933 241.688 244.825 241.952 244.825 242.28V243.792C244.825 244.096 244.937 244.344 245.161 244.536C245.385 244.72 245.673 244.812 246.025 244.812C246.377 244.812 246.665 244.708 246.889 244.5C247.113 244.284 247.225 244.012 247.225 243.684C247.273 243.676 247.341 243.672 247.429 243.672C247.741 243.672 247.993 243.744 248.185 243.888C248.377 244.032 248.473 244.228 248.473 244.476C248.473 244.796 248.365 245.08 248.149 245.328C247.941 245.568 247.649 245.76 247.273 245.904C246.897 246.04 246.469 246.108 245.989 246.108ZM253.143 246.108C252.623 246.108 252.151 246.016 251.727 245.832C251.311 245.64 250.983 245.376 250.743 245.04C250.503 244.704 250.383 244.324 250.383 243.9V242.208C250.383 241.776 250.499 241.384 250.731 241.032C250.971 240.68 251.299 240.404 251.715 240.204C252.131 239.996 252.607 239.892 253.143 239.892C253.679 239.892 254.155 239.996 254.571 240.204C254.995 240.404 255.323 240.68 255.555 241.032C255.795 241.384 255.915 241.776 255.915 242.208V243.9C255.915 244.324 255.791 244.704 255.543 245.04C255.303 245.376 254.971 245.64 254.547 245.832C254.131 246.016 253.663 246.108 253.143 246.108ZM253.143 244.824C253.543 244.824 253.855 244.732 254.079 244.548C254.311 244.364 254.427 244.116 254.427 243.804V242.28C254.427 241.952 254.311 241.688 254.079 241.488C253.855 241.28 253.543 241.176 253.143 241.176C252.751 241.176 252.439 241.28 252.207 241.488C251.975 241.688 251.859 241.952 251.859 242.28V243.804C251.859 244.116 251.975 244.364 252.207 244.548C252.439 244.732 252.751 244.824 253.143 244.824ZM258.178 241.044C258.178 240.676 258.294 240.392 258.526 240.192C258.758 239.992 259.11 239.892 259.582 239.892V240.612C259.438 240.788 259.342 240.916 259.294 240.996L259.378 241.044C259.626 240.668 259.89 240.384 260.17 240.192C260.45 239.992 260.782 239.892 261.166 239.892C261.862 239.892 262.342 240.232 262.606 240.912C262.806 240.592 263.062 240.344 263.374 240.168C263.686 239.984 264.038 239.892 264.43 239.892C264.974 239.892 265.406 240.092 265.726 240.492C266.054 240.884 266.218 241.388 266.218 242.004V245.196C266.218 245.516 266.094 245.748 265.846 245.892C265.606 246.036 265.238 246.108 264.742 246.108V242.124C264.742 241.828 264.674 241.592 264.538 241.416C264.41 241.24 264.21 241.152 263.938 241.152C263.65 241.152 263.406 241.252 263.206 241.452C263.014 241.644 262.918 241.948 262.918 242.364V245.196C262.918 245.516 262.798 245.748 262.558 245.892C262.326 246.036 261.962 246.108 261.466 246.108V242.124C261.466 241.82 261.402 241.584 261.274 241.416C261.146 241.24 260.946 241.152 260.674 241.152C260.338 241.152 260.082 241.268 259.906 241.5C259.738 241.724 259.654 242.032 259.654 242.424V245.196C259.654 245.516 259.53 245.748 259.282 245.892C259.042 246.036 258.674 246.108 258.178 246.108V241.044Z" fill="white" fill-opacity="0.7"/>
<path d="M41.7048 72.1718L21.403 81.5419C19.0607 82.6352 19.8415 86.0707 22.34 86.0707H30.9294V94.6601C30.9294 97.1586 34.3649 97.9399 35.4582 95.5971L44.8283 75.2953C45.6091 73.4208 43.5788 71.3906 41.7048 72.1718Z" fill="white" fill-opacity="0.7"/>
<path d="M43.2866 164.666L37.8179 162.322C37.5843 162.222 37.3246 162.201 37.078 162.262C36.8315 162.323 36.6113 162.462 36.4507 162.659L34.0288 165.618C30.2279 163.826 27.169 160.767 25.377 156.966L28.3359 154.544C28.533 154.384 28.6726 154.164 28.7333 153.917C28.7941 153.67 28.7729 153.41 28.6729 153.177L26.3291 147.708C26.2193 147.456 26.0251 147.251 25.78 147.127C25.5348 147.003 25.2542 146.968 24.9863 147.029L19.9082 148.201C19.65 148.261 19.4196 148.406 19.2547 148.614C19.0897 148.821 18.9999 149.078 19 149.343C19 161.868 29.1514 172 41.6562 172C41.9213 172 42.1787 171.91 42.3862 171.745C42.5937 171.58 42.7392 171.35 42.7988 171.091L43.9707 166.013C44.0312 165.744 43.996 165.462 43.8711 165.216C43.7463 164.97 43.5396 164.776 43.2866 164.666Z" fill="white" fill-opacity="0.7"/>
<path d="M32.1094 226C25.417 226 20 231.416 20 238.109C20 244.802 25.416 250.219 32.1094 250.219C34.4606 250.219 36.7647 249.528 38.7211 248.255C39.3073 247.873 39.4352 247.069 38.9922 246.528L38.4953 245.921C38.1207 245.463 37.4611 245.351 36.9634 245.67C35.5234 246.594 33.8337 247.094 32.1094 247.094C27.1554 247.094 23.125 243.063 23.125 238.109C23.125 233.155 27.1554 229.125 32.1094 229.125C36.999 229.125 41.0938 231.938 41.0938 236.938C41.0938 238.831 40.0638 240.831 38.2534 241.024C37.4063 241.002 37.4277 240.396 37.5954 239.558L38.7396 233.644C38.8795 232.921 38.3256 232.25 37.5891 232.25H35.3928C35.2306 232.25 35.0741 232.31 34.9531 232.418C34.8322 232.526 34.7552 232.674 34.7369 232.836L34.7364 232.84C34.0188 231.966 32.7614 231.777 31.8082 231.777C28.1666 231.777 25.0781 234.816 25.0781 239.172C25.0781 242.361 26.8743 244.342 29.7656 244.342C31.0832 244.342 32.5668 243.578 33.4273 242.47C33.8922 244.135 35.4104 244.135 36.8799 244.135C42.1977 244.135 44.2188 240.639 44.2188 236.938C44.2188 230.28 38.8488 226 32.1094 226ZM31.0508 240.865C29.9644 240.865 29.2896 240.102 29.2896 238.874C29.2896 236.677 30.7924 235.323 32.1523 235.323C33.2408 235.323 33.8907 236.067 33.8907 237.313C33.8907 239.514 32.2366 240.865 31.0508 240.865Z" fill="white" fill-opacity="0.7"/>
<defs>
<filter id="filter0_b_100_340" x="-47" y="7" width="157" height="149" filterUnits="userSpaceOnUse" color-interpolation-filters="sRGB">
<feFlood flood-opacity="0" result="BackgroundImageFix"/>
<feGaussianBlur in="BackgroundImageFix" stdDeviation="25"/>
<feComposite in2="SourceAlpha" operator="in" result="effect1_backgroundBlur_100_340"/>
<feBlend mode="normal" in="SourceGraphic" in2="effect1_backgroundBlur_100_340" result="shape"/>
</filter>
<filter id="filter1_b_100_340" x="-47" y="85" width="157" height="149" filterUnits="userSpaceOnUse" color-interpolation-filters="sRGB">
<feFlood flood-opacity="0" result="BackgroundImageFix"/>
<feGaussianBlur in="BackgroundImageFix" stdDeviation="25"/>
<feComposite in2="SourceAlpha" operator="in" result="effect1_backgroundBlur_100_340"/>
<feBlend mode="normal" in="SourceGraphic" in2="effect1_backgroundBlur_100_340" result="shape"/>
</filter>
<filter id="filter2_b_100_340" x="-47" y="163" width="157" height="149" filterUnits="userSpaceOnUse" color-interpolation-filters="sRGB">
<feFlood flood-opacity="0" result="BackgroundImageFix"/>
<feGaussianBlur in="BackgroundImageFix" stdDeviation="25"/>
<feComposite in2="SourceAlpha" operator="in" result="effect1_backgroundBlur_100_340"/>
<feBlend mode="normal" in="SourceGraphic" in2="effect1_backgroundBlur_100_340" result="shape"/>
</filter>
</defs>
</svg>
