<svg width="543" height="349" viewBox="0 0 543 349" fill="none" xmlns="http://www.w3.org/2000/svg">
<path d="M65.817 199.747C65.817 199.08 66.0704 198.507 66.577 198.027C67.1104 197.547 67.7504 197.307 68.497 197.307H86.617C86.617 198.907 86.337 200.08 85.777 200.827C85.2437 201.547 84.3637 201.907 83.137 201.907H71.177V208.667H81.817C81.817 210.267 81.537 211.44 80.977 212.187C80.4437 212.907 79.5637 213.267 78.337 213.267H71.177V221.867C71.177 223.2 70.7504 224.174 69.897 224.787C69.0437 225.374 67.6837 225.667 65.817 225.667V199.747ZM92.0273 225.667C90.6673 225.667 89.414 225.4 88.2673 224.867C87.1473 224.334 86.2407 223.574 85.5473 222.587C84.8807 221.574 84.5473 220.374 84.5473 218.987C84.5473 217.6 84.9073 216.4 85.6273 215.387C86.3473 214.347 87.3207 213.56 88.5473 213.027C89.8007 212.467 91.174 212.187 92.6673 212.187C93.894 212.187 94.9873 212.387 95.9473 212.787C96.934 213.16 97.8407 213.734 98.6673 214.507L98.8673 214.307C98.6273 214.067 98.214 213.707 97.6273 213.227V212.427C97.6273 211.334 97.2407 210.467 96.4673 209.827C95.694 209.187 94.614 208.867 93.2273 208.867C90.7473 208.867 88.9207 209.774 87.7473 211.587C87.1607 211.4 86.6673 211.107 86.2673 210.707C85.8673 210.28 85.6673 209.827 85.6673 209.347C85.6673 208.547 86.0273 207.814 86.7473 207.147C87.4673 206.48 88.4407 205.947 89.6673 205.547C90.894 205.147 92.2273 204.947 93.6673 204.947C96.494 204.947 98.6807 205.614 100.227 206.947C101.774 208.254 102.547 210.04 102.547 212.307V222.307C102.547 223.48 102.174 224.334 101.427 224.867C100.681 225.4 99.5073 225.667 97.9073 225.667V224.027C98.3607 223.574 98.6673 223.24 98.8273 223.027L98.6673 222.827C97.7873 223.76 96.8407 224.467 95.8273 224.947C94.8407 225.427 93.574 225.667 92.0273 225.667ZM93.3073 222.027C94.694 222.027 95.774 221.76 96.5473 221.227C97.3207 220.694 97.7073 219.934 97.7073 218.947C97.7073 217.987 97.3073 217.227 96.5073 216.667C95.734 216.107 94.6807 215.827 93.3473 215.827C92.1207 215.827 91.1473 216.107 90.4273 216.667C89.734 217.2 89.3873 217.96 89.3873 218.947C89.3873 219.96 89.734 220.734 90.4273 221.267C91.1207 221.774 92.0807 222.027 93.3073 222.027ZM114.562 225.667C112.002 225.667 109.935 225.214 108.362 224.307C106.815 223.374 106.029 222.134 106.002 220.587C106.002 219.92 106.269 219.36 106.802 218.907C107.362 218.454 108.242 218.214 109.442 218.187C109.682 219.36 110.242 220.267 111.122 220.907C112.002 221.52 113.069 221.827 114.322 221.827C115.682 221.827 116.749 221.654 117.522 221.307C118.295 220.96 118.682 220.44 118.682 219.747C118.682 219.107 118.362 218.574 117.722 218.147C117.109 217.72 115.882 217.294 114.042 216.867C112.042 216.387 110.482 215.907 109.362 215.427C108.269 214.947 107.455 214.334 106.922 213.587C106.389 212.84 106.122 211.854 106.122 210.627C106.122 208.92 106.842 207.547 108.282 206.507C109.722 205.467 111.695 204.947 114.202 204.947C116.629 204.947 118.642 205.387 120.242 206.267C121.842 207.12 122.642 208.267 122.642 209.707C122.642 210.427 122.375 210.96 121.842 211.307C121.309 211.654 120.429 211.84 119.202 211.867C118.935 210.8 118.429 210 117.682 209.467C116.935 208.934 115.882 208.667 114.522 208.667C113.509 208.667 112.629 208.84 111.882 209.187C111.162 209.534 110.802 209.987 110.802 210.547C110.802 211.134 111.109 211.587 111.722 211.907C112.335 212.227 113.402 212.547 114.922 212.867C117.909 213.507 120.069 214.36 121.402 215.427C122.762 216.494 123.442 217.947 123.442 219.787C123.442 221.574 122.642 223 121.042 224.067C119.469 225.134 117.309 225.667 114.562 225.667ZM134.751 225.667C132.591 225.667 130.991 225.04 129.951 223.787C128.911 222.534 128.391 220.92 128.391 218.947V209.027H124.271C124.271 207.774 124.511 206.84 124.991 206.227C125.471 205.614 126.111 205.307 126.911 205.307H128.471V201.987C128.471 200.894 128.871 200.12 129.671 199.667C130.471 199.187 131.684 198.947 133.311 198.947V205.307H138.631C138.631 206.64 138.378 207.6 137.871 208.187C137.364 208.747 136.551 209.027 135.431 209.027H133.391V218.747C133.391 219.68 133.564 220.347 133.911 220.747C134.284 221.147 134.911 221.347 135.791 221.347C136.724 221.347 137.658 221.094 138.591 220.587C138.858 220.827 139.071 221.134 139.231 221.507C139.391 221.854 139.471 222.214 139.471 222.587C139.471 223.387 139.058 224.107 138.231 224.747C137.404 225.36 136.244 225.667 134.751 225.667ZM160.191 225.667C158.831 225.667 157.578 225.4 156.431 224.867C155.311 224.334 154.405 223.574 153.711 222.587C153.045 221.574 152.711 220.374 152.711 218.987C152.711 217.6 153.071 216.4 153.791 215.387C154.511 214.347 155.485 213.56 156.711 213.027C157.965 212.467 159.338 212.187 160.831 212.187C162.058 212.187 163.151 212.387 164.111 212.787C165.098 213.16 166.005 213.734 166.831 214.507L167.031 214.307C166.791 214.067 166.378 213.707 165.791 213.227V212.427C165.791 211.334 165.405 210.467 164.631 209.827C163.858 209.187 162.778 208.867 161.391 208.867C158.911 208.867 157.085 209.774 155.911 211.587C155.325 211.4 154.831 211.107 154.431 210.707C154.031 210.28 153.831 209.827 153.831 209.347C153.831 208.547 154.191 207.814 154.911 207.147C155.631 206.48 156.605 205.947 157.831 205.547C159.058 205.147 160.391 204.947 161.831 204.947C164.658 204.947 166.845 205.614 168.391 206.947C169.938 208.254 170.711 210.04 170.711 212.307V222.307C170.711 223.48 170.338 224.334 169.591 224.867C168.845 225.4 167.671 225.667 166.071 225.667V224.027C166.525 223.574 166.831 223.24 166.991 223.027L166.831 222.827C165.951 223.76 165.005 224.467 163.991 224.947C163.005 225.427 161.738 225.667 160.191 225.667ZM161.471 222.027C162.858 222.027 163.938 221.76 164.711 221.227C165.485 220.694 165.871 219.934 165.871 218.947C165.871 217.987 165.471 217.227 164.671 216.667C163.898 216.107 162.845 215.827 161.511 215.827C160.285 215.827 159.311 216.107 158.591 216.667C157.898 217.2 157.551 217.96 157.551 218.947C157.551 219.96 157.898 220.734 158.591 221.267C159.285 221.774 160.245 222.027 161.471 222.027ZM175.192 208.787C175.192 207.56 175.579 206.614 176.352 205.947C177.152 205.28 178.352 204.947 179.952 204.947V207.347C179.632 207.72 179.312 208.147 178.992 208.627L179.232 208.787C180.032 207.587 181.059 206.654 182.312 205.987C183.565 205.294 184.952 204.947 186.472 204.947C187.832 204.947 189.032 205.254 190.072 205.867C191.112 206.48 191.912 207.32 192.472 208.387C193.059 209.454 193.352 210.654 193.352 211.987V222.627C193.352 223.694 192.939 224.467 192.112 224.947C191.285 225.427 190.032 225.667 188.352 225.667V212.707C188.352 211.694 188.045 210.867 187.432 210.227C186.845 209.587 185.979 209.267 184.832 209.267C183.472 209.267 182.352 209.694 181.472 210.547C180.592 211.374 180.152 212.414 180.152 213.667V222.627C180.152 223.694 179.752 224.467 178.952 224.947C178.152 225.427 176.899 225.667 175.192 225.667V208.787ZM205.169 225.667C203.729 225.667 202.436 225.36 201.289 224.747C200.143 224.134 199.236 223.294 198.569 222.227C197.903 221.134 197.569 219.88 197.569 218.467V212.147C197.569 210.76 197.916 209.52 198.609 208.427C199.303 207.334 200.263 206.48 201.489 205.867C202.743 205.254 204.129 204.947 205.649 204.947C206.636 204.947 207.649 205.16 208.689 205.587C209.756 205.987 210.649 206.534 211.369 207.227L211.529 207.027C211.396 206.814 211.103 206.547 210.649 206.227V200.307C210.649 199.24 211.063 198.414 211.889 197.827C212.743 197.24 214.023 196.947 215.729 196.947V222.227C215.729 223.214 215.356 224.04 214.609 224.707C213.863 225.347 212.703 225.667 211.129 225.667V223.467C211.476 223.04 211.729 222.694 211.889 222.427L211.689 222.267C210.863 223.387 209.943 224.24 208.929 224.827C207.943 225.387 206.689 225.667 205.169 225.667ZM206.649 221.347C207.849 221.347 208.823 221.067 209.569 220.507C210.343 219.92 210.729 219.187 210.729 218.307V212.267C210.729 211.414 210.343 210.707 209.569 210.147C208.823 209.56 207.836 209.267 206.609 209.267C205.303 209.267 204.289 209.547 203.569 210.107C202.876 210.64 202.529 211.414 202.529 212.427V218.107C202.529 219.174 202.876 219.987 203.569 220.547C204.289 221.08 205.316 221.347 206.649 221.347ZM241.739 225.667C239.339 225.667 237.246 225.374 235.459 224.787C233.672 224.2 232.299 223.374 231.339 222.307C230.406 221.214 229.939 219.947 229.939 218.507C229.939 216.32 231.419 215.227 234.379 215.227C234.486 217.254 235.166 218.787 236.419 219.827C237.699 220.867 239.486 221.387 241.779 221.387C243.672 221.387 245.139 221.067 246.179 220.427C247.219 219.76 247.739 218.84 247.739 217.667C247.739 216.894 247.539 216.267 247.139 215.787C246.739 215.28 246.059 214.84 245.099 214.467C244.139 214.067 242.739 213.667 240.899 213.267C238.286 212.654 236.219 211.974 234.699 211.227C233.206 210.48 232.126 209.587 231.459 208.547C230.792 207.48 230.459 206.16 230.459 204.587C230.459 203.067 230.899 201.734 231.779 200.587C232.686 199.44 233.952 198.547 235.579 197.907C237.232 197.267 239.126 196.947 241.259 196.947C243.312 196.947 245.139 197.227 246.739 197.787C248.366 198.32 249.632 199.08 250.539 200.067C251.472 201.054 251.939 202.187 251.939 203.467C251.939 205.44 250.512 206.467 247.659 206.547C247.499 204.707 246.912 203.36 245.899 202.507C244.886 201.654 243.339 201.227 241.259 201.227C239.472 201.227 238.099 201.52 237.139 202.107C236.179 202.694 235.699 203.52 235.699 204.587C235.699 205.334 235.886 205.96 236.259 206.467C236.632 206.947 237.259 207.374 238.139 207.747C239.019 208.094 240.272 208.454 241.899 208.827C244.646 209.44 246.819 210.134 248.419 210.907C250.019 211.654 251.179 212.574 251.899 213.667C252.619 214.734 252.979 216.054 252.979 217.627C252.979 219.254 252.512 220.68 251.579 221.907C250.672 223.107 249.366 224.04 247.659 224.707C245.979 225.347 244.006 225.667 241.739 225.667ZM264.985 225.667C262.825 225.667 261.225 225.04 260.185 223.787C259.145 222.534 258.625 220.92 258.625 218.947V209.027H254.505C254.505 207.774 254.745 206.84 255.225 206.227C255.705 205.614 256.345 205.307 257.145 205.307H258.705V201.987C258.705 200.894 259.105 200.12 259.905 199.667C260.705 199.187 261.919 198.947 263.545 198.947V205.307H268.865C268.865 206.64 268.612 207.6 268.105 208.187C267.599 208.747 266.785 209.027 265.665 209.027H263.625V218.747C263.625 219.68 263.799 220.347 264.145 220.747C264.519 221.147 265.145 221.347 266.025 221.347C266.959 221.347 267.892 221.094 268.825 220.587C269.092 220.827 269.305 221.134 269.465 221.507C269.625 221.854 269.705 222.214 269.705 222.587C269.705 223.387 269.292 224.107 268.465 224.747C267.639 225.36 266.479 225.667 264.985 225.667ZM278.902 225.667C277.542 225.667 276.289 225.4 275.142 224.867C274.022 224.334 273.116 223.574 272.422 222.587C271.756 221.574 271.422 220.374 271.422 218.987C271.422 217.6 271.782 216.4 272.502 215.387C273.222 214.347 274.196 213.56 275.422 213.027C276.676 212.467 278.049 212.187 279.542 212.187C280.769 212.187 281.862 212.387 282.822 212.787C283.809 213.16 284.716 213.734 285.542 214.507L285.742 214.307C285.502 214.067 285.089 213.707 284.502 213.227V212.427C284.502 211.334 284.116 210.467 283.342 209.827C282.569 209.187 281.489 208.867 280.102 208.867C277.622 208.867 275.796 209.774 274.622 211.587C274.036 211.4 273.542 211.107 273.142 210.707C272.742 210.28 272.542 209.827 272.542 209.347C272.542 208.547 272.902 207.814 273.622 207.147C274.342 206.48 275.316 205.947 276.542 205.547C277.769 205.147 279.102 204.947 280.542 204.947C283.369 204.947 285.556 205.614 287.102 206.947C288.649 208.254 289.422 210.04 289.422 212.307V222.307C289.422 223.48 289.049 224.334 288.302 224.867C287.556 225.4 286.382 225.667 284.782 225.667V224.027C285.236 223.574 285.542 223.24 285.702 223.027L285.542 222.827C284.662 223.76 283.716 224.467 282.702 224.947C281.716 225.427 280.449 225.667 278.902 225.667ZM280.182 222.027C281.569 222.027 282.649 221.76 283.422 221.227C284.196 220.694 284.582 219.934 284.582 218.947C284.582 217.987 284.182 217.227 283.382 216.667C282.609 216.107 281.556 215.827 280.222 215.827C278.996 215.827 278.022 216.107 277.302 216.667C276.609 217.2 276.262 217.96 276.262 218.947C276.262 219.96 276.609 220.734 277.302 221.267C277.996 221.774 278.956 222.027 280.182 222.027ZM293.903 200.307C293.903 199.24 294.316 198.414 295.143 197.827C295.996 197.24 297.263 196.947 298.943 196.947V206.227C298.57 206.52 298.276 206.787 298.063 207.027L298.223 207.227C298.943 206.534 299.876 205.987 301.023 205.587C302.196 205.16 303.276 204.947 304.263 204.947C306.636 204.947 308.53 205.614 309.943 206.947C311.356 208.254 312.063 209.974 312.063 212.107V218.467C312.063 219.854 311.716 221.094 311.023 222.187C310.33 223.28 309.396 224.134 308.223 224.747C307.05 225.36 305.796 225.667 304.463 225.667C303.05 225.667 301.81 225.387 300.743 224.827C299.703 224.24 298.756 223.387 297.903 222.267L297.743 222.427C297.85 222.614 297.983 222.8 298.143 222.987C298.303 223.174 298.423 223.32 298.503 223.427C298.503 224.174 298.143 224.734 297.423 225.107C296.703 225.48 295.53 225.667 293.903 225.667V200.307ZM302.983 221.347C304.316 221.347 305.33 221.08 306.023 220.547C306.743 219.987 307.103 219.174 307.103 218.107V212.427C307.103 211.414 306.743 210.64 306.023 210.107C305.303 209.547 304.29 209.267 302.983 209.267C301.81 209.267 300.823 209.56 300.023 210.147C299.25 210.734 298.863 211.44 298.863 212.267V218.307C298.863 219.187 299.25 219.92 300.023 220.507C300.796 221.067 301.783 221.347 302.983 221.347ZM323.08 225.667C320.867 225.667 319.187 225.04 318.04 223.787C316.92 222.507 316.36 220.894 316.36 218.947V199.987C316.36 198.894 316.76 198.12 317.56 197.667C318.387 197.187 319.653 196.947 321.36 196.947V218.747C321.36 219.654 321.56 220.32 321.96 220.747C322.36 221.147 323 221.347 323.88 221.347C324.867 221.347 325.853 221.094 326.84 220.587C327.107 220.827 327.307 221.134 327.44 221.507C327.6 221.854 327.68 222.214 327.68 222.587C327.68 223.387 327.28 224.107 326.48 224.747C325.68 225.36 324.547 225.667 323.08 225.667ZM338.834 225.667C337.181 225.667 335.674 225.347 334.314 224.707C332.954 224.04 331.874 223.147 331.074 222.027C330.274 220.88 329.874 219.6 329.874 218.187V212.867C329.874 211.374 330.287 210.027 331.114 208.827C331.941 207.627 333.034 206.68 334.394 205.987C335.781 205.294 337.274 204.947 338.874 204.947C340.447 204.947 341.887 205.28 343.194 205.947C344.527 206.587 345.581 207.494 346.354 208.667C347.127 209.814 347.514 211.134 347.514 212.627V214.867C347.514 215.454 347.287 215.947 346.834 216.347C346.407 216.747 345.861 216.947 345.194 216.947H334.714V217.827C334.714 218.974 335.061 219.907 335.754 220.627C336.447 221.347 337.487 221.707 338.874 221.707C340.207 221.707 341.194 221.414 341.834 220.827C342.501 220.24 342.834 219.48 342.834 218.547C343.314 218.494 343.647 218.467 343.834 218.467C344.821 218.467 345.594 218.694 346.154 219.147C346.714 219.574 346.994 220.187 346.994 220.987C346.994 221.76 346.634 222.507 345.914 223.227C345.194 223.947 344.207 224.534 342.954 224.987C341.701 225.44 340.327 225.667 338.834 225.667ZM342.994 213.387V212.627C342.994 211.507 342.607 210.6 341.834 209.907C341.061 209.214 340.061 208.867 338.834 208.867C337.607 208.867 336.607 209.214 335.834 209.907C335.087 210.574 334.714 211.48 334.714 212.627V213.387H342.994ZM372.676 225.667C370.276 225.667 368.183 225.374 366.396 224.787C364.61 224.2 363.236 223.374 362.276 222.307C361.343 221.214 360.876 219.947 360.876 218.507C360.876 216.32 362.356 215.227 365.316 215.227C365.423 217.254 366.103 218.787 367.356 219.827C368.636 220.867 370.423 221.387 372.716 221.387C374.61 221.387 376.076 221.067 377.116 220.427C378.156 219.76 378.676 218.84 378.676 217.667C378.676 216.894 378.476 216.267 378.076 215.787C377.676 215.28 376.996 214.84 376.036 214.467C375.076 214.067 373.676 213.667 371.836 213.267C369.223 212.654 367.156 211.974 365.636 211.227C364.143 210.48 363.063 209.587 362.396 208.547C361.73 207.48 361.396 206.16 361.396 204.587C361.396 203.067 361.836 201.734 362.716 200.587C363.623 199.44 364.89 198.547 366.516 197.907C368.17 197.267 370.063 196.947 372.196 196.947C374.25 196.947 376.076 197.227 377.676 197.787C379.303 198.32 380.57 199.08 381.476 200.067C382.41 201.054 382.876 202.187 382.876 203.467C382.876 205.44 381.45 206.467 378.596 206.547C378.436 204.707 377.85 203.36 376.836 202.507C375.823 201.654 374.276 201.227 372.196 201.227C370.41 201.227 369.036 201.52 368.076 202.107C367.116 202.694 366.636 203.52 366.636 204.587C366.636 205.334 366.823 205.96 367.196 206.467C367.57 206.947 368.196 207.374 369.076 207.747C369.956 208.094 371.21 208.454 372.836 208.827C375.583 209.44 377.756 210.134 379.356 210.907C380.956 211.654 382.116 212.574 382.836 213.667C383.556 214.734 383.916 216.054 383.916 217.627C383.916 219.254 383.45 220.68 382.516 221.907C381.61 223.107 380.303 224.04 378.596 224.707C376.916 225.347 374.943 225.667 372.676 225.667ZM396.49 225.667C394.837 225.667 393.33 225.347 391.97 224.707C390.61 224.04 389.53 223.147 388.73 222.027C387.93 220.88 387.53 219.6 387.53 218.187V212.867C387.53 211.374 387.943 210.027 388.77 208.827C389.597 207.627 390.69 206.68 392.05 205.987C393.437 205.294 394.93 204.947 396.53 204.947C398.103 204.947 399.543 205.28 400.85 205.947C402.183 206.587 403.237 207.494 404.01 208.667C404.783 209.814 405.17 211.134 405.17 212.627V214.867C405.17 215.454 404.943 215.947 404.49 216.347C404.063 216.747 403.517 216.947 402.85 216.947H392.37V217.827C392.37 218.974 392.717 219.907 393.41 220.627C394.103 221.347 395.143 221.707 396.53 221.707C397.863 221.707 398.85 221.414 399.49 220.827C400.157 220.24 400.49 219.48 400.49 218.547C400.97 218.494 401.303 218.467 401.49 218.467C402.477 218.467 403.25 218.694 403.81 219.147C404.37 219.574 404.65 220.187 404.65 220.987C404.65 221.76 404.29 222.507 403.57 223.227C402.85 223.947 401.863 224.534 400.61 224.987C399.357 225.44 397.983 225.667 396.49 225.667ZM400.65 213.387V212.627C400.65 211.507 400.263 210.6 399.49 209.907C398.717 209.214 397.717 208.867 396.49 208.867C395.263 208.867 394.263 209.214 393.49 209.907C392.743 210.574 392.37 211.48 392.37 212.627V213.387H400.65ZM419.3 209.267C417.727 209.267 416.447 209.694 415.46 210.547C414.473 211.374 413.98 212.414 413.98 213.667V222.627C413.98 223.694 413.58 224.467 412.78 224.947C411.98 225.427 410.727 225.667 409.02 225.667V208.787C409.02 207.56 409.407 206.614 410.18 205.947C410.98 205.28 412.18 204.947 413.78 204.947V207.307C413.38 207.76 413.06 208.2 412.82 208.627L413.06 208.787C414.74 206.227 416.847 204.947 419.38 204.947C420.527 204.947 421.393 205.254 421.98 205.867C422.567 206.454 422.86 207.2 422.86 208.107C422.86 208.8 422.673 209.387 422.3 209.867C421.58 209.467 420.58 209.267 419.3 209.267ZM434.27 225.667C433.63 225.667 433.07 225.52 432.59 225.227C432.137 224.934 431.817 224.534 431.63 224.027L424.43 205.347C424.617 205.24 424.937 205.147 425.39 205.067C425.87 204.987 426.257 204.947 426.55 204.947C427.323 204.947 428.017 205.107 428.63 205.427C429.27 205.747 429.697 206.214 429.91 206.827L434.03 219.307L433.35 221.187L433.67 221.267L438.63 206.827C438.843 206.214 439.257 205.747 439.87 205.427C440.51 205.107 441.217 204.947 441.99 204.947C442.283 204.947 442.657 204.987 443.11 205.067C443.59 205.147 443.923 205.24 444.11 205.347L436.91 224.027C436.723 224.534 436.39 224.934 435.91 225.227C435.457 225.52 434.91 225.667 434.27 225.667ZM454.107 225.667C452.454 225.667 450.947 225.347 449.587 224.707C448.227 224.04 447.147 223.147 446.347 222.027C445.547 220.88 445.147 219.6 445.147 218.187V212.867C445.147 211.374 445.561 210.027 446.387 208.827C447.214 207.627 448.307 206.68 449.667 205.987C451.054 205.294 452.547 204.947 454.147 204.947C455.721 204.947 457.161 205.28 458.467 205.947C459.801 206.587 460.854 207.494 461.627 208.667C462.401 209.814 462.787 211.134 462.787 212.627V214.867C462.787 215.454 462.561 215.947 462.107 216.347C461.681 216.747 461.134 216.947 460.467 216.947H449.987V217.827C449.987 218.974 450.334 219.907 451.027 220.627C451.721 221.347 452.761 221.707 454.147 221.707C455.481 221.707 456.467 221.414 457.107 220.827C457.774 220.24 458.107 219.48 458.107 218.547C458.587 218.494 458.921 218.467 459.107 218.467C460.094 218.467 460.867 218.694 461.427 219.147C461.987 219.574 462.267 220.187 462.267 220.987C462.267 221.76 461.907 222.507 461.187 223.227C460.467 223.947 459.481 224.534 458.227 224.987C456.974 225.44 455.601 225.667 454.107 225.667ZM458.267 213.387V212.627C458.267 211.507 457.881 210.6 457.107 209.907C456.334 209.214 455.334 208.867 454.107 208.867C452.881 208.867 451.881 209.214 451.107 209.907C450.361 210.574 449.987 211.48 449.987 212.627V213.387H458.267ZM476.917 209.267C475.344 209.267 474.064 209.694 473.077 210.547C472.091 211.374 471.597 212.414 471.597 213.667V222.627C471.597 223.694 471.197 224.467 470.397 224.947C469.597 225.427 468.344 225.667 466.637 225.667V208.787C466.637 207.56 467.024 206.614 467.797 205.947C468.597 205.28 469.797 204.947 471.397 204.947V207.307C470.997 207.76 470.677 208.2 470.437 208.627L470.677 208.787C472.357 206.227 474.464 204.947 476.997 204.947C478.144 204.947 479.011 205.254 479.597 205.867C480.184 206.454 480.477 207.2 480.477 208.107C480.477 208.8 480.291 209.387 479.917 209.867C479.197 209.467 478.197 209.267 476.917 209.267Z" fill="white"/>
<path d="M21.7856 292.532C21.1856 292.532 20.694 292.39 20.3106 292.107C19.9273 291.807 19.669 291.39 19.5356 290.857L15.4106 274.807C15.6606 274.657 15.9773 274.582 16.3606 274.582C16.844 274.582 17.2523 274.707 17.5856 274.957C17.919 275.19 18.1356 275.515 18.2356 275.932L20.9606 287.782L20.5606 289.257L20.7106 289.307L24.7356 275.357C24.8023 275.107 24.9273 274.915 25.1106 274.782C25.3106 274.649 25.544 274.582 25.8106 274.582C26.0606 274.582 26.2856 274.649 26.4856 274.782C26.6856 274.915 26.819 275.107 26.8856 275.357L30.3606 287.882L30.0106 289.407L30.1606 289.457L33.3856 275.932C33.4856 275.515 33.694 275.19 34.0106 274.957C34.344 274.707 34.744 274.582 35.2106 274.582C35.594 274.582 35.9273 274.657 36.2106 274.807L32.0856 290.857C31.9523 291.39 31.6856 291.807 31.2856 292.107C30.9023 292.39 30.4106 292.532 29.8106 292.532L25.5356 277.407L25.3856 277.457L25.7106 278.632L21.7856 292.532ZM42.4718 292.532C41.4551 292.532 40.5468 292.34 39.7468 291.957C38.9468 291.557 38.3218 291.015 37.8718 290.332C37.4218 289.632 37.1968 288.849 37.1968 287.982V284.282C37.1968 283.399 37.4301 282.599 37.8968 281.882C38.3801 281.165 39.0218 280.607 39.8218 280.207C40.6384 279.79 41.5218 279.582 42.4718 279.582C43.4218 279.582 44.2884 279.782 45.0718 280.182C45.8718 280.582 46.4968 281.132 46.9468 281.832C47.4134 282.532 47.6468 283.324 47.6468 284.207V285.807C47.6468 286.074 47.5468 286.299 47.3468 286.482C47.1468 286.665 46.9051 286.757 46.6218 286.757H39.3218V287.882C39.3218 288.732 39.5884 289.415 40.1218 289.932C40.6718 290.449 41.4551 290.707 42.4718 290.707C43.4884 290.707 44.2634 290.482 44.7968 290.032C45.3301 289.582 45.5968 288.974 45.5968 288.207C46.0968 288.174 46.5134 288.274 46.8468 288.507C47.1968 288.724 47.3718 289.049 47.3718 289.482C47.3718 290.015 47.1384 290.515 46.6718 290.982C46.2218 291.449 45.6218 291.824 44.8718 292.107C44.1218 292.39 43.3218 292.532 42.4718 292.532ZM45.6218 285.057V284.207C45.6218 283.374 45.3301 282.699 44.7468 282.182C44.1801 281.649 43.4218 281.382 42.4718 281.382C41.5218 281.382 40.7551 281.649 40.1718 282.182C39.6051 282.699 39.3218 283.374 39.3218 284.207V285.057H45.6218ZM56.978 276.432C56.978 275.832 57.1614 275.374 57.528 275.057C57.8947 274.74 58.4364 274.582 59.153 274.582V281.157C58.9197 281.424 58.7364 281.657 58.603 281.857L58.703 281.957C59.2197 281.257 59.8697 280.69 60.653 280.257C61.4364 279.807 62.2864 279.582 63.203 279.582C64.553 279.582 65.6197 279.982 66.403 280.782C67.1864 281.582 67.578 282.615 67.578 283.882V290.932C67.578 291.482 67.3947 291.89 67.028 292.157C66.678 292.407 66.1364 292.532 65.403 292.532V284.107C65.403 283.307 65.178 282.674 64.728 282.207C64.278 281.74 63.5947 281.507 62.678 281.507C62.0614 281.507 61.478 281.64 60.928 281.907C60.3947 282.157 59.9614 282.507 59.628 282.957C59.3114 283.39 59.153 283.865 59.153 284.382V290.932C59.153 291.482 58.9697 291.89 58.603 292.157C58.253 292.407 57.7114 292.532 56.978 292.532V276.432ZM74.9708 292.532C73.5375 292.532 72.3791 292.149 71.4958 291.382C70.6291 290.615 70.1958 289.607 70.1958 288.357C70.1958 287.09 70.6541 286.074 71.5708 285.307C72.4875 284.524 73.6958 284.132 75.1958 284.132C76.7958 284.132 78.1125 284.699 79.1458 285.832L79.2458 285.732C79.0625 285.532 78.8541 285.324 78.6208 285.107V284.057C78.6208 283.207 78.3541 282.549 77.8208 282.082C77.2875 281.615 76.5291 281.382 75.5458 281.382C73.7958 281.382 72.5458 282.074 71.7958 283.457C71.5291 283.324 71.3041 283.149 71.1208 282.932C70.9541 282.699 70.8708 282.465 70.8708 282.232C70.8708 281.782 71.0958 281.357 71.5458 280.957C71.9958 280.54 72.5875 280.207 73.3208 279.957C74.0708 279.707 74.8541 279.582 75.6708 279.582C77.2541 279.582 78.4958 279.974 79.3958 280.757C80.3125 281.54 80.7708 282.624 80.7708 284.007V290.857C80.7708 291.44 80.6041 291.865 80.2708 292.132C79.9375 292.399 79.4125 292.532 78.6958 292.532V291.357C79.0458 290.99 79.2375 290.774 79.2708 290.707L79.1708 290.607C78.0875 291.89 76.6875 292.532 74.9708 292.532ZM75.3458 290.807C76.3791 290.807 77.1875 290.59 77.7708 290.157C78.3708 289.724 78.6708 289.124 78.6708 288.357C78.6708 287.59 78.3791 286.982 77.7958 286.532C77.2125 286.082 76.4125 285.857 75.3958 285.857C74.4458 285.857 73.6958 286.082 73.1458 286.532C72.6125 286.965 72.3458 287.574 72.3458 288.357C72.3458 289.14 72.6041 289.749 73.1208 290.182C73.6541 290.599 74.3958 290.807 75.3458 290.807ZM88.3028 292.532C88.0528 292.532 87.8278 292.465 87.6278 292.332C87.4278 292.199 87.2862 292.032 87.2028 291.832L82.4028 279.757C82.5028 279.707 82.6445 279.665 82.8278 279.632C83.0112 279.599 83.1778 279.582 83.3278 279.582C83.6945 279.582 84.0195 279.665 84.3028 279.832C84.5862 279.999 84.7778 280.24 84.8778 280.557L88.1778 289.532L87.8278 290.532L87.9528 290.582L91.7028 280.557C91.8028 280.24 91.9945 279.999 92.2778 279.832C92.5612 279.665 92.8778 279.582 93.2278 279.582C93.3778 279.582 93.5445 279.599 93.7278 279.632C93.9112 279.665 94.0612 279.707 94.1778 279.757L89.3778 291.832C89.2945 292.032 89.1528 292.199 88.9528 292.332C88.7695 292.465 88.5528 292.532 88.3028 292.532ZM100.431 292.532C99.4141 292.532 98.5058 292.34 97.7058 291.957C96.9058 291.557 96.2808 291.015 95.8308 290.332C95.3808 289.632 95.1558 288.849 95.1558 287.982V284.282C95.1558 283.399 95.3891 282.599 95.8558 281.882C96.3391 281.165 96.9808 280.607 97.7808 280.207C98.5974 279.79 99.4808 279.582 100.431 279.582C101.381 279.582 102.247 279.782 103.031 280.182C103.831 280.582 104.456 281.132 104.906 281.832C105.372 282.532 105.606 283.324 105.606 284.207V285.807C105.606 286.074 105.506 286.299 105.306 286.482C105.106 286.665 104.864 286.757 104.581 286.757H97.2808V287.882C97.2808 288.732 97.5474 289.415 98.0808 289.932C98.6308 290.449 99.4141 290.707 100.431 290.707C101.447 290.707 102.222 290.482 102.756 290.032C103.289 289.582 103.556 288.974 103.556 288.207C104.056 288.174 104.472 288.274 104.806 288.507C105.156 288.724 105.331 289.049 105.331 289.482C105.331 290.015 105.097 290.515 104.631 290.982C104.181 291.449 103.581 291.824 102.831 292.107C102.081 292.39 101.281 292.532 100.431 292.532ZM103.581 285.057V284.207C103.581 283.374 103.289 282.699 102.706 282.182C102.139 281.649 101.381 281.382 100.431 281.382C99.4808 281.382 98.7141 281.649 98.1308 282.182C97.5641 282.699 97.2808 283.374 97.2808 284.207V285.057H103.581ZM114.937 276.432C114.937 275.832 115.12 275.374 115.487 275.057C115.854 274.74 116.395 274.582 117.112 274.582V281.157C116.879 281.424 116.695 281.657 116.562 281.857L116.662 281.957C117.179 281.257 117.829 280.69 118.612 280.257C119.395 279.807 120.245 279.582 121.162 279.582C122.512 279.582 123.579 279.982 124.362 280.782C125.145 281.582 125.537 282.615 125.537 283.882V290.932C125.537 291.482 125.354 291.89 124.987 292.157C124.637 292.407 124.095 292.532 123.362 292.532V284.107C123.362 283.307 123.137 282.674 122.687 282.207C122.237 281.74 121.554 281.507 120.637 281.507C120.02 281.507 119.437 281.64 118.887 281.907C118.354 282.157 117.92 282.507 117.587 282.957C117.27 283.39 117.112 283.865 117.112 284.382V290.932C117.112 291.482 116.929 291.89 116.562 292.157C116.212 292.407 115.67 292.532 114.937 292.532V276.432ZM139.13 290.682C139.13 291.915 138.43 292.532 137.03 292.532V290.932C137.18 290.782 137.355 290.557 137.555 290.257L137.455 290.157C136.955 290.874 136.321 291.449 135.555 291.882C134.805 292.315 133.98 292.532 133.08 292.532C132.18 292.532 131.38 292.34 130.68 291.957C129.996 291.574 129.463 291.04 129.08 290.357C128.713 289.674 128.53 288.907 128.53 288.057V281.182C128.53 280.632 128.713 280.232 129.08 279.982C129.446 279.715 129.996 279.582 130.73 279.582V287.957C130.73 288.757 130.963 289.399 131.43 289.882C131.913 290.365 132.621 290.607 133.555 290.607C134.171 290.607 134.738 290.482 135.255 290.232C135.771 289.965 136.18 289.615 136.48 289.182C136.796 288.732 136.955 288.249 136.955 287.732V281.182C136.955 280.632 137.13 280.232 137.48 279.982C137.846 279.715 138.396 279.582 139.13 279.582V290.682ZM142.623 281.432C142.623 280.199 143.323 279.582 144.723 279.582V281.182C144.573 281.332 144.398 281.557 144.198 281.857L144.298 281.957C144.798 281.257 145.448 280.69 146.248 280.257C147.048 279.807 147.914 279.582 148.848 279.582C150.198 279.582 151.264 279.982 152.048 280.782C152.831 281.582 153.223 282.615 153.223 283.882V290.932C153.223 291.482 153.039 291.89 152.673 292.157C152.323 292.407 151.781 292.532 151.048 292.532V284.107C151.048 283.307 150.823 282.674 150.373 282.207C149.923 281.74 149.239 281.507 148.323 281.507C147.706 281.507 147.123 281.64 146.573 281.907C146.039 282.157 145.606 282.507 145.273 282.957C144.956 283.39 144.798 283.865 144.798 284.382V290.932C144.798 291.482 144.614 291.89 144.248 292.157C143.898 292.407 143.356 292.532 142.623 292.532V281.432ZM161.04 292.532C159.607 292.532 158.44 292.14 157.54 291.357C156.657 290.557 156.215 289.499 156.215 288.182V283.907C156.215 283.057 156.424 282.307 156.84 281.657C157.257 280.99 157.832 280.482 158.565 280.132C159.315 279.765 160.174 279.582 161.14 279.582C161.924 279.582 162.649 279.749 163.315 280.082C163.982 280.399 164.565 280.824 165.065 281.357L165.14 281.232C165.024 281.065 164.849 280.882 164.615 280.682V276.282C164.615 275.732 164.799 275.315 165.165 275.032C165.532 274.732 166.082 274.582 166.815 274.582V290.757C166.815 291.307 166.649 291.74 166.315 292.057C165.999 292.374 165.482 292.532 164.765 292.532V291.132C164.999 290.832 165.157 290.615 165.24 290.482L165.165 290.382C164.632 291.049 164.04 291.574 163.39 291.957C162.74 292.34 161.957 292.532 161.04 292.532ZM161.515 290.607C162.399 290.607 163.14 290.382 163.74 289.932C164.34 289.465 164.64 288.89 164.64 288.207V283.882C164.64 283.215 164.357 282.657 163.79 282.207C163.224 281.74 162.457 281.507 161.49 281.507C160.507 281.507 159.74 281.732 159.19 282.182C158.657 282.615 158.39 283.224 158.39 284.007V288.082C158.39 288.899 158.657 289.524 159.19 289.957C159.74 290.39 160.515 290.607 161.515 290.607ZM175.733 281.507C174.8 281.507 174.025 281.79 173.408 282.357C172.791 282.907 172.483 283.582 172.483 284.382V290.932C172.483 291.482 172.3 291.89 171.933 292.157C171.583 292.407 171.041 292.532 170.308 292.532V281.432C170.308 280.199 171.008 279.582 172.408 279.582V281.107C172.141 281.39 171.958 281.64 171.858 281.857L171.958 281.957C173.025 280.374 174.358 279.582 175.958 279.582C176.558 279.582 177.016 279.732 177.333 280.032C177.65 280.315 177.808 280.665 177.808 281.082C177.808 281.382 177.733 281.649 177.583 281.882C177.116 281.632 176.5 281.507 175.733 281.507ZM184.342 292.532C183.325 292.532 182.417 292.34 181.617 291.957C180.817 291.557 180.192 291.015 179.742 290.332C179.292 289.632 179.067 288.849 179.067 287.982V284.282C179.067 283.399 179.3 282.599 179.767 281.882C180.25 281.165 180.892 280.607 181.692 280.207C182.509 279.79 183.392 279.582 184.342 279.582C185.292 279.582 186.159 279.782 186.942 280.182C187.742 280.582 188.367 281.132 188.817 281.832C189.284 282.532 189.517 283.324 189.517 284.207V285.807C189.517 286.074 189.417 286.299 189.217 286.482C189.017 286.665 188.775 286.757 188.492 286.757H181.192V287.882C181.192 288.732 181.459 289.415 181.992 289.932C182.542 290.449 183.325 290.707 184.342 290.707C185.359 290.707 186.134 290.482 186.667 290.032C187.2 289.582 187.467 288.974 187.467 288.207C187.967 288.174 188.384 288.274 188.717 288.507C189.067 288.724 189.242 289.049 189.242 289.482C189.242 290.015 189.009 290.515 188.542 290.982C188.092 291.449 187.492 291.824 186.742 292.107C185.992 292.39 185.192 292.532 184.342 292.532ZM187.492 285.057V284.207C187.492 283.374 187.2 282.699 186.617 282.182C186.05 281.649 185.292 281.382 184.342 281.382C183.392 281.382 182.625 281.649 182.042 282.182C181.475 282.699 181.192 283.374 181.192 284.207V285.057H187.492ZM196.978 292.532C195.544 292.532 194.378 292.14 193.478 291.357C192.594 290.557 192.153 289.499 192.153 288.182V283.907C192.153 283.057 192.361 282.307 192.778 281.657C193.194 280.99 193.769 280.482 194.503 280.132C195.253 279.765 196.111 279.582 197.078 279.582C197.861 279.582 198.586 279.749 199.253 280.082C199.919 280.399 200.503 280.824 201.003 281.357L201.078 281.232C200.961 281.065 200.786 280.882 200.553 280.682V276.282C200.553 275.732 200.736 275.315 201.103 275.032C201.469 274.732 202.019 274.582 202.753 274.582V290.757C202.753 291.307 202.586 291.74 202.253 292.057C201.936 292.374 201.419 292.532 200.703 292.532V291.132C200.936 290.832 201.094 290.615 201.178 290.482L201.103 290.382C200.569 291.049 199.978 291.574 199.328 291.957C198.678 292.34 197.894 292.532 196.978 292.532ZM197.453 290.607C198.336 290.607 199.078 290.382 199.678 289.932C200.278 289.465 200.578 288.89 200.578 288.207V283.882C200.578 283.215 200.294 282.657 199.728 282.207C199.161 281.74 198.394 281.507 197.428 281.507C196.444 281.507 195.678 281.732 195.128 282.182C194.594 282.615 194.328 283.224 194.328 284.007V288.082C194.328 288.899 194.594 289.524 195.128 289.957C195.678 290.39 196.453 290.607 197.453 290.607ZM210.771 292.532C209.921 292.532 209.121 292.407 208.371 292.157C207.621 291.89 207.012 291.515 206.546 291.032C206.096 290.549 205.871 289.982 205.871 289.332C205.871 288.532 206.354 288.099 207.321 288.032C207.487 288.965 207.879 289.657 208.496 290.107C209.129 290.54 209.929 290.757 210.896 290.757C211.862 290.757 212.612 290.615 213.146 290.332C213.679 290.049 213.946 289.615 213.946 289.032C213.946 288.615 213.837 288.282 213.621 288.032C213.404 287.765 213.054 287.54 212.571 287.357C212.104 287.157 211.429 286.965 210.546 286.782C209.446 286.532 208.571 286.265 207.921 285.982C207.271 285.699 206.771 285.324 206.421 284.857C206.087 284.39 205.921 283.774 205.921 283.007C205.921 282.357 206.121 281.774 206.521 281.257C206.921 280.724 207.471 280.315 208.171 280.032C208.887 279.732 209.696 279.582 210.596 279.582C211.429 279.582 212.212 279.699 212.946 279.932C213.696 280.165 214.296 280.499 214.746 280.932C215.212 281.365 215.446 281.865 215.446 282.432C215.446 282.815 215.296 283.124 214.996 283.357C214.696 283.574 214.279 283.699 213.746 283.732C213.696 282.999 213.396 282.424 212.846 282.007C212.312 281.574 211.562 281.357 210.596 281.357C209.796 281.357 209.162 281.507 208.696 281.807C208.229 282.107 207.996 282.507 207.996 283.007C207.996 283.54 208.212 283.94 208.646 284.207C209.096 284.457 209.854 284.699 210.921 284.932C212.671 285.282 213.954 285.765 214.771 286.382C215.604 286.982 216.021 287.84 216.021 288.957C216.021 290.09 215.562 290.974 214.646 291.607C213.729 292.224 212.437 292.532 210.771 292.532ZM230.087 292.532C229.071 292.532 228.146 292.34 227.312 291.957C226.496 291.574 225.854 291.057 225.387 290.407C224.937 289.74 224.712 288.999 224.712 288.182V284.082C224.712 283.249 224.937 282.49 225.387 281.807C225.854 281.124 226.496 280.582 227.312 280.182C228.129 279.782 229.054 279.582 230.087 279.582C231.121 279.582 232.046 279.782 232.862 280.182C233.696 280.582 234.337 281.124 234.787 281.807C235.254 282.49 235.487 283.249 235.487 284.082V288.182C235.487 288.999 235.254 289.74 234.787 290.407C234.321 291.057 233.679 291.574 232.862 291.957C232.046 292.34 231.121 292.532 230.087 292.532ZM230.087 290.657C231.087 290.657 231.879 290.424 232.462 289.957C233.062 289.474 233.362 288.849 233.362 288.082V284.157C233.362 283.357 233.062 282.707 232.462 282.207C231.879 281.707 231.087 281.457 230.087 281.457C229.104 281.457 228.312 281.707 227.712 282.207C227.112 282.707 226.812 283.357 226.812 284.157V288.082C226.812 288.849 227.104 289.474 227.687 289.957C228.287 290.424 229.087 290.657 230.087 290.657ZM238.451 281.557H236.376C236.376 280.39 236.81 279.807 237.676 279.807H238.451V278.282C238.451 277.199 238.76 276.315 239.376 275.632C239.993 274.932 240.918 274.582 242.151 274.582C242.851 274.582 243.393 274.74 243.776 275.057C244.16 275.357 244.351 275.707 244.351 276.107C244.351 276.457 244.243 276.74 244.026 276.957C243.51 276.657 242.951 276.507 242.351 276.507C241.735 276.507 241.293 276.657 241.026 276.957C240.76 277.257 240.626 277.732 240.626 278.382V279.807H243.751C243.751 280.407 243.618 280.849 243.351 281.132C243.101 281.415 242.71 281.557 242.176 281.557H240.626V290.932C240.626 291.482 240.443 291.89 240.076 292.157C239.726 292.407 239.185 292.532 238.451 292.532V281.557ZM257.939 292.532C257.089 292.532 256.289 292.407 255.539 292.157C254.789 291.89 254.18 291.515 253.714 291.032C253.264 290.549 253.039 289.982 253.039 289.332C253.039 288.532 253.522 288.099 254.489 288.032C254.655 288.965 255.047 289.657 255.664 290.107C256.297 290.54 257.097 290.757 258.064 290.757C259.03 290.757 259.78 290.615 260.314 290.332C260.847 290.049 261.114 289.615 261.114 289.032C261.114 288.615 261.005 288.282 260.789 288.032C260.572 287.765 260.222 287.54 259.739 287.357C259.272 287.157 258.597 286.965 257.714 286.782C256.614 286.532 255.739 286.265 255.089 285.982C254.439 285.699 253.939 285.324 253.589 284.857C253.255 284.39 253.089 283.774 253.089 283.007C253.089 282.357 253.289 281.774 253.689 281.257C254.089 280.724 254.639 280.315 255.339 280.032C256.055 279.732 256.864 279.582 257.764 279.582C258.597 279.582 259.38 279.699 260.114 279.932C260.864 280.165 261.464 280.499 261.914 280.932C262.38 281.365 262.614 281.865 262.614 282.432C262.614 282.815 262.464 283.124 262.164 283.357C261.864 283.574 261.447 283.699 260.914 283.732C260.864 282.999 260.564 282.424 260.014 282.007C259.48 281.574 258.73 281.357 257.764 281.357C256.964 281.357 256.33 281.507 255.864 281.807C255.397 282.107 255.164 282.507 255.164 283.007C255.164 283.54 255.38 283.94 255.814 284.207C256.264 284.457 257.022 284.699 258.089 284.932C259.839 285.282 261.122 285.765 261.939 286.382C262.772 286.982 263.189 287.84 263.189 288.957C263.189 290.09 262.73 290.974 261.814 291.607C260.897 292.224 259.605 292.532 257.939 292.532ZM271.085 292.532C270.068 292.532 269.16 292.34 268.36 291.957C267.56 291.557 266.935 291.015 266.485 290.332C266.035 289.632 265.81 288.849 265.81 287.982V284.282C265.81 283.399 266.043 282.599 266.51 281.882C266.993 281.165 267.635 280.607 268.435 280.207C269.252 279.79 270.135 279.582 271.085 279.582C272.035 279.582 272.902 279.782 273.685 280.182C274.485 280.582 275.11 281.132 275.56 281.832C276.027 282.532 276.26 283.324 276.26 284.207V285.807C276.26 286.074 276.16 286.299 275.96 286.482C275.76 286.665 275.518 286.757 275.235 286.757H267.935V287.882C267.935 288.732 268.202 289.415 268.735 289.932C269.285 290.449 270.068 290.707 271.085 290.707C272.102 290.707 272.877 290.482 273.41 290.032C273.943 289.582 274.21 288.974 274.21 288.207C274.71 288.174 275.127 288.274 275.46 288.507C275.81 288.724 275.985 289.049 275.985 289.482C275.985 290.015 275.752 290.515 275.285 290.982C274.835 291.449 274.235 291.824 273.485 292.107C272.735 292.39 271.935 292.532 271.085 292.532ZM274.235 285.057V284.207C274.235 283.374 273.943 282.699 273.36 282.182C272.793 281.649 272.035 281.382 271.085 281.382C270.135 281.382 269.368 281.649 268.785 282.182C268.218 282.699 267.935 283.374 267.935 284.207V285.057H274.235ZM284.571 281.507C283.638 281.507 282.863 281.79 282.246 282.357C281.629 282.907 281.321 283.582 281.321 284.382V290.932C281.321 291.482 281.138 291.89 280.771 292.157C280.421 292.407 279.879 292.532 279.146 292.532V281.432C279.146 280.199 279.846 279.582 281.246 279.582V281.107C280.979 281.39 280.796 281.64 280.696 281.857L280.796 281.957C281.863 280.374 283.196 279.582 284.796 279.582C285.396 279.582 285.854 279.732 286.171 280.032C286.488 280.315 286.646 280.665 286.646 281.082C286.646 281.382 286.571 281.649 286.421 281.882C285.954 281.632 285.338 281.507 284.571 281.507ZM293.918 292.532C293.668 292.532 293.443 292.465 293.243 292.332C293.043 292.199 292.901 292.032 292.818 291.832L288.018 279.757C288.118 279.707 288.26 279.665 288.443 279.632C288.626 279.599 288.793 279.582 288.943 279.582C289.31 279.582 289.635 279.665 289.918 279.832C290.201 279.999 290.393 280.24 290.493 280.557L293.793 289.532L293.443 290.532L293.568 290.582L297.318 280.557C297.418 280.24 297.61 279.999 297.893 279.832C298.176 279.665 298.493 279.582 298.843 279.582C298.993 279.582 299.16 279.599 299.343 279.632C299.526 279.665 299.676 279.707 299.793 279.757L294.993 291.832C294.91 292.032 294.768 292.199 294.568 292.332C294.385 292.465 294.168 292.532 293.918 292.532ZM306.046 292.532C305.029 292.532 304.121 292.34 303.321 291.957C302.521 291.557 301.896 291.015 301.446 290.332C300.996 289.632 300.771 288.849 300.771 287.982V284.282C300.771 283.399 301.004 282.599 301.471 281.882C301.954 281.165 302.596 280.607 303.396 280.207C304.213 279.79 305.096 279.582 306.046 279.582C306.996 279.582 307.863 279.782 308.646 280.182C309.446 280.582 310.071 281.132 310.521 281.832C310.988 282.532 311.221 283.324 311.221 284.207V285.807C311.221 286.074 311.121 286.299 310.921 286.482C310.721 286.665 310.479 286.757 310.196 286.757H302.896V287.882C302.896 288.732 303.163 289.415 303.696 289.932C304.246 290.449 305.029 290.707 306.046 290.707C307.063 290.707 307.838 290.482 308.371 290.032C308.904 289.582 309.171 288.974 309.171 288.207C309.671 288.174 310.088 288.274 310.421 288.507C310.771 288.724 310.946 289.049 310.946 289.482C310.946 290.015 310.713 290.515 310.246 290.982C309.796 291.449 309.196 291.824 308.446 292.107C307.696 292.39 306.896 292.532 306.046 292.532ZM309.196 285.057V284.207C309.196 283.374 308.904 282.699 308.321 282.182C307.754 281.649 306.996 281.382 306.046 281.382C305.096 281.382 304.329 281.649 303.746 282.182C303.179 282.699 302.896 283.374 302.896 284.207V285.057H309.196ZM319.532 281.507C318.599 281.507 317.824 281.79 317.207 282.357C316.59 282.907 316.282 283.582 316.282 284.382V290.932C316.282 291.482 316.099 291.89 315.732 292.157C315.382 292.407 314.84 292.532 314.107 292.532V281.432C314.107 280.199 314.807 279.582 316.207 279.582V281.107C315.94 281.39 315.757 281.64 315.657 281.857L315.757 281.957C316.824 280.374 318.157 279.582 319.757 279.582C320.357 279.582 320.815 279.732 321.132 280.032C321.449 280.315 321.607 280.665 321.607 281.082C321.607 281.382 321.532 281.649 321.382 281.882C320.915 281.632 320.299 281.507 319.532 281.507ZM328.129 292.532C327.279 292.532 326.479 292.407 325.729 292.157C324.979 291.89 324.371 291.515 323.904 291.032C323.454 290.549 323.229 289.982 323.229 289.332C323.229 288.532 323.712 288.099 324.679 288.032C324.846 288.965 325.237 289.657 325.854 290.107C326.487 290.54 327.287 290.757 328.254 290.757C329.221 290.757 329.971 290.615 330.504 290.332C331.037 290.049 331.304 289.615 331.304 289.032C331.304 288.615 331.196 288.282 330.979 288.032C330.762 287.765 330.412 287.54 329.929 287.357C329.462 287.157 328.787 286.965 327.904 286.782C326.804 286.532 325.929 286.265 325.279 285.982C324.629 285.699 324.129 285.324 323.779 284.857C323.446 284.39 323.279 283.774 323.279 283.007C323.279 282.357 323.479 281.774 323.879 281.257C324.279 280.724 324.829 280.315 325.529 280.032C326.246 279.732 327.054 279.582 327.954 279.582C328.787 279.582 329.571 279.699 330.304 279.932C331.054 280.165 331.654 280.499 332.104 280.932C332.571 281.365 332.804 281.865 332.804 282.432C332.804 282.815 332.654 283.124 332.354 283.357C332.054 283.574 331.637 283.699 331.104 283.732C331.054 282.999 330.754 282.424 330.204 282.007C329.671 281.574 328.921 281.357 327.954 281.357C327.154 281.357 326.521 281.507 326.054 281.807C325.587 282.107 325.354 282.507 325.354 283.007C325.354 283.54 325.571 283.94 326.004 284.207C326.454 284.457 327.212 284.699 328.279 284.932C330.029 285.282 331.312 285.765 332.129 286.382C332.962 286.982 333.379 287.84 333.379 288.957C333.379 290.09 332.921 290.974 332.004 291.607C331.087 292.224 329.796 292.532 328.129 292.532ZM346.846 292.532C345.412 292.532 344.254 292.149 343.371 291.382C342.504 290.615 342.071 289.607 342.071 288.357C342.071 287.09 342.529 286.074 343.446 285.307C344.362 284.524 345.571 284.132 347.071 284.132C348.671 284.132 349.987 284.699 351.021 285.832L351.121 285.732C350.937 285.532 350.729 285.324 350.496 285.107V284.057C350.496 283.207 350.229 282.549 349.696 282.082C349.162 281.615 348.404 281.382 347.421 281.382C345.671 281.382 344.421 282.074 343.671 283.457C343.404 283.324 343.179 283.149 342.996 282.932C342.829 282.699 342.746 282.465 342.746 282.232C342.746 281.782 342.971 281.357 343.421 280.957C343.871 280.54 344.462 280.207 345.196 279.957C345.946 279.707 346.729 279.582 347.546 279.582C349.129 279.582 350.371 279.974 351.271 280.757C352.187 281.54 352.646 282.624 352.646 284.007V290.857C352.646 291.44 352.479 291.865 352.146 292.132C351.812 292.399 351.287 292.532 350.571 292.532V291.357C350.921 290.99 351.112 290.774 351.146 290.707L351.046 290.607C349.962 291.89 348.562 292.532 346.846 292.532ZM347.221 290.807C348.254 290.807 349.062 290.59 349.646 290.157C350.246 289.724 350.546 289.124 350.546 288.357C350.546 287.59 350.254 286.982 349.671 286.532C349.087 286.082 348.287 285.857 347.271 285.857C346.321 285.857 345.571 286.082 345.021 286.532C344.487 286.965 344.221 287.574 344.221 288.357C344.221 289.14 344.479 289.749 344.996 290.182C345.529 290.599 346.271 290.807 347.221 290.807ZM361.451 281.507C360.518 281.507 359.743 281.79 359.126 282.357C358.509 282.907 358.201 283.582 358.201 284.382V290.932C358.201 291.482 358.018 291.89 357.651 292.157C357.301 292.407 356.759 292.532 356.026 292.532V281.432C356.026 280.199 356.726 279.582 358.126 279.582V281.107C357.859 281.39 357.676 281.64 357.576 281.857L357.676 281.957C358.743 280.374 360.076 279.582 361.676 279.582C362.276 279.582 362.734 279.732 363.051 280.032C363.368 280.315 363.526 280.665 363.526 281.082C363.526 281.382 363.451 281.649 363.301 281.882C362.834 281.632 362.218 281.507 361.451 281.507ZM369.272 292.532C368.255 292.532 367.33 292.34 366.497 291.957C365.68 291.574 365.039 291.057 364.572 290.407C364.122 289.74 363.897 288.999 363.897 288.182V284.082C363.897 283.249 364.122 282.49 364.572 281.807C365.039 281.124 365.68 280.582 366.497 280.182C367.314 279.782 368.239 279.582 369.272 279.582C370.305 279.582 371.23 279.782 372.047 280.182C372.88 280.582 373.522 281.124 373.972 281.807C374.439 282.49 374.672 283.249 374.672 284.082V288.182C374.672 288.999 374.439 289.74 373.972 290.407C373.505 291.057 372.864 291.574 372.047 291.957C371.23 292.34 370.305 292.532 369.272 292.532ZM369.272 290.657C370.272 290.657 371.064 290.424 371.647 289.957C372.247 289.474 372.547 288.849 372.547 288.082V284.157C372.547 283.357 372.247 282.707 371.647 282.207C371.064 281.707 370.272 281.457 369.272 281.457C368.289 281.457 367.497 281.707 366.897 282.207C366.297 282.707 365.997 283.357 365.997 284.157V288.082C365.997 288.849 366.289 289.474 366.872 289.957C367.472 290.424 368.272 290.657 369.272 290.657ZM387.543 290.682C387.543 291.915 386.843 292.532 385.443 292.532V290.932C385.593 290.782 385.768 290.557 385.968 290.257L385.868 290.157C385.368 290.874 384.735 291.449 383.968 291.882C383.218 292.315 382.393 292.532 381.493 292.532C380.593 292.532 379.793 292.34 379.093 291.957C378.41 291.574 377.876 291.04 377.493 290.357C377.126 289.674 376.943 288.907 376.943 288.057V281.182C376.943 280.632 377.126 280.232 377.493 279.982C377.86 279.715 378.41 279.582 379.143 279.582V287.957C379.143 288.757 379.376 289.399 379.843 289.882C380.326 290.365 381.035 290.607 381.968 290.607C382.585 290.607 383.151 290.482 383.668 290.232C384.185 289.965 384.593 289.615 384.893 289.182C385.21 288.732 385.368 288.249 385.368 287.732V281.182C385.368 280.632 385.543 280.232 385.893 279.982C386.26 279.715 386.81 279.582 387.543 279.582V290.682ZM391.036 281.432C391.036 280.199 391.736 279.582 393.136 279.582V281.182C392.986 281.332 392.811 281.557 392.611 281.857L392.711 281.957C393.211 281.257 393.861 280.69 394.661 280.257C395.461 279.807 396.327 279.582 397.261 279.582C398.611 279.582 399.677 279.982 400.461 280.782C401.244 281.582 401.636 282.615 401.636 283.882V290.932C401.636 291.482 401.452 291.89 401.086 292.157C400.736 292.407 400.194 292.532 399.461 292.532V284.107C399.461 283.307 399.236 282.674 398.786 282.207C398.336 281.74 397.652 281.507 396.736 281.507C396.119 281.507 395.536 281.64 394.986 281.907C394.452 282.157 394.019 282.507 393.686 282.957C393.369 283.39 393.211 283.865 393.211 284.382V290.932C393.211 291.482 393.027 291.89 392.661 292.157C392.311 292.407 391.769 292.532 391.036 292.532V281.432ZM409.453 292.532C408.02 292.532 406.853 292.14 405.953 291.357C405.07 290.557 404.628 289.499 404.628 288.182V283.907C404.628 283.057 404.837 282.307 405.253 281.657C405.67 280.99 406.245 280.482 406.978 280.132C407.728 279.765 408.587 279.582 409.553 279.582C410.337 279.582 411.062 279.749 411.728 280.082C412.395 280.399 412.978 280.824 413.478 281.357L413.553 281.232C413.437 281.065 413.262 280.882 413.028 280.682V276.282C413.028 275.732 413.212 275.315 413.578 275.032C413.945 274.732 414.495 274.582 415.228 274.582V290.757C415.228 291.307 415.062 291.74 414.728 292.057C414.412 292.374 413.895 292.532 413.178 292.532V291.132C413.412 290.832 413.57 290.615 413.653 290.482L413.578 290.382C413.045 291.049 412.453 291.574 411.803 291.957C411.153 292.34 410.37 292.532 409.453 292.532ZM409.928 290.607C410.812 290.607 411.553 290.382 412.153 289.932C412.753 289.465 413.053 288.89 413.053 288.207V283.882C413.053 283.215 412.77 282.657 412.203 282.207C411.637 281.74 410.87 281.507 409.903 281.507C408.92 281.507 408.153 281.732 407.603 282.182C407.07 282.615 406.803 283.224 406.803 284.007V288.082C406.803 288.899 407.07 289.524 407.603 289.957C408.153 290.39 408.928 290.607 409.928 290.607ZM430.142 292.532C428.958 292.532 428.075 292.199 427.492 291.532C426.908 290.849 426.617 289.957 426.617 288.857V281.557H424.292C424.292 280.99 424.417 280.557 424.667 280.257C424.917 279.957 425.258 279.807 425.692 279.807H426.642V277.432C426.642 276.882 426.817 276.482 427.167 276.232C427.533 275.965 428.075 275.832 428.792 275.832V279.807H432.117C432.117 280.974 431.592 281.557 430.542 281.557H428.817V288.782C428.817 289.449 428.933 289.924 429.167 290.207C429.417 290.474 429.858 290.607 430.492 290.607C431.075 290.607 431.625 290.457 432.142 290.157C432.358 290.374 432.467 290.665 432.467 291.032C432.467 291.432 432.258 291.782 431.842 292.082C431.425 292.382 430.858 292.532 430.142 292.532ZM435.103 276.432C435.103 275.832 435.286 275.374 435.653 275.057C436.02 274.74 436.561 274.582 437.278 274.582V281.157C437.045 281.424 436.861 281.657 436.728 281.857L436.828 281.957C437.345 281.257 437.995 280.69 438.778 280.257C439.561 279.807 440.411 279.582 441.328 279.582C442.678 279.582 443.745 279.982 444.528 280.782C445.311 281.582 445.703 282.615 445.703 283.882V290.932C445.703 291.482 445.52 291.89 445.153 292.157C444.803 292.407 444.261 292.532 443.528 292.532V284.107C443.528 283.307 443.303 282.674 442.853 282.207C442.403 281.74 441.72 281.507 440.803 281.507C440.186 281.507 439.603 281.64 439.053 281.907C438.52 282.157 438.086 282.507 437.753 282.957C437.436 283.39 437.278 283.865 437.278 284.382V290.932C437.278 291.482 437.095 291.89 436.728 292.157C436.378 292.407 435.836 292.532 435.103 292.532V276.432ZM453.971 292.532C452.954 292.532 452.046 292.34 451.246 291.957C450.446 291.557 449.821 291.015 449.371 290.332C448.921 289.632 448.696 288.849 448.696 287.982V284.282C448.696 283.399 448.929 282.599 449.396 281.882C449.879 281.165 450.521 280.607 451.321 280.207C452.137 279.79 453.021 279.582 453.971 279.582C454.921 279.582 455.787 279.782 456.571 280.182C457.371 280.582 457.996 281.132 458.446 281.832C458.912 282.532 459.146 283.324 459.146 284.207V285.807C459.146 286.074 459.046 286.299 458.846 286.482C458.646 286.665 458.404 286.757 458.121 286.757H450.821V287.882C450.821 288.732 451.087 289.415 451.621 289.932C452.171 290.449 452.954 290.707 453.971 290.707C454.987 290.707 455.762 290.482 456.296 290.032C456.829 289.582 457.096 288.974 457.096 288.207C457.596 288.174 458.012 288.274 458.346 288.507C458.696 288.724 458.871 289.049 458.871 289.482C458.871 290.015 458.637 290.515 458.171 290.982C457.721 291.449 457.121 291.824 456.371 292.107C455.621 292.39 454.821 292.532 453.971 292.532ZM457.121 285.057V284.207C457.121 283.374 456.829 282.699 456.246 282.182C455.679 281.649 454.921 281.382 453.971 281.382C453.021 281.382 452.254 281.649 451.671 282.182C451.104 282.699 450.821 283.374 450.821 284.207V285.057H457.121ZM473.077 292.532C472.544 292.532 472.102 292.415 471.752 292.182C471.402 291.932 471.16 291.59 471.027 291.157L467.852 279.782C468.085 279.649 468.402 279.582 468.802 279.582C469.169 279.582 469.477 279.665 469.727 279.832C469.977 279.999 470.135 280.24 470.202 280.557L472.302 288.857L472.052 289.932L472.177 289.982L474.902 280.307C474.969 280.09 475.094 279.915 475.277 279.782C475.46 279.649 475.685 279.582 475.952 279.582C476.219 279.582 476.444 279.649 476.627 279.782C476.81 279.915 476.935 280.09 477.002 280.307L479.377 288.957L479.077 290.032L479.227 290.082L481.677 280.557C481.744 280.24 481.902 279.999 482.152 279.832C482.402 279.665 482.71 279.582 483.077 279.582C483.477 279.582 483.794 279.649 484.027 279.782L480.852 291.157C480.735 291.59 480.485 291.932 480.102 292.182C479.719 292.415 479.26 292.532 478.727 292.532L475.727 281.732L475.627 281.757L475.877 282.682L473.077 292.532ZM490.537 292.532C489.52 292.532 488.595 292.34 487.762 291.957C486.945 291.574 486.303 291.057 485.837 290.407C485.387 289.74 485.162 288.999 485.162 288.182V284.082C485.162 283.249 485.387 282.49 485.837 281.807C486.303 281.124 486.945 280.582 487.762 280.182C488.578 279.782 489.503 279.582 490.537 279.582C491.57 279.582 492.495 279.782 493.312 280.182C494.145 280.582 494.787 281.124 495.237 281.807C495.703 282.49 495.937 283.249 495.937 284.082V288.182C495.937 288.999 495.703 289.74 495.237 290.407C494.77 291.057 494.128 291.574 493.312 291.957C492.495 292.34 491.57 292.532 490.537 292.532ZM490.537 290.657C491.537 290.657 492.328 290.424 492.912 289.957C493.512 289.474 493.812 288.849 493.812 288.082V284.157C493.812 283.357 493.512 282.707 492.912 282.207C492.328 281.707 491.537 281.457 490.537 281.457C489.553 281.457 488.762 281.707 488.162 282.207C487.562 282.707 487.262 283.357 487.262 284.157V288.082C487.262 288.849 487.553 289.474 488.137 289.957C488.737 290.424 489.537 290.657 490.537 290.657ZM504.249 281.507C503.315 281.507 502.54 281.79 501.924 282.357C501.307 282.907 500.999 283.582 500.999 284.382V290.932C500.999 291.482 500.815 291.89 500.449 292.157C500.099 292.407 499.557 292.532 498.824 292.532V281.432C498.824 280.199 499.524 279.582 500.924 279.582V281.107C500.657 281.39 500.474 281.64 500.374 281.857L500.474 281.957C501.54 280.374 502.874 279.582 504.474 279.582C505.074 279.582 505.532 279.732 505.849 280.032C506.165 280.315 506.324 280.665 506.324 281.082C506.324 281.382 506.249 281.649 506.099 281.882C505.632 281.632 505.015 281.507 504.249 281.507ZM512.581 292.532C511.364 292.532 510.456 292.199 509.856 291.532C509.256 290.849 508.956 289.957 508.956 288.857V276.182C508.956 275.632 509.131 275.232 509.481 274.982C509.847 274.715 510.397 274.582 511.131 274.582V288.782C511.131 289.432 511.264 289.899 511.531 290.182C511.797 290.465 512.239 290.607 512.856 290.607C513.472 290.607 514.039 290.457 514.556 290.157C514.772 290.407 514.881 290.699 514.881 291.032C514.881 291.432 514.672 291.782 514.256 292.082C513.839 292.382 513.281 292.532 512.581 292.532ZM521.197 292.532C519.763 292.532 518.597 292.14 517.697 291.357C516.813 290.557 516.372 289.499 516.372 288.182V283.907C516.372 283.057 516.58 282.307 516.997 281.657C517.413 280.99 517.988 280.482 518.722 280.132C519.472 279.765 520.33 279.582 521.297 279.582C522.08 279.582 522.805 279.749 523.472 280.082C524.138 280.399 524.722 280.824 525.222 281.357L525.297 281.232C525.18 281.065 525.005 280.882 524.772 280.682V276.282C524.772 275.732 524.955 275.315 525.322 275.032C525.688 274.732 526.238 274.582 526.972 274.582V290.757C526.972 291.307 526.805 291.74 526.472 292.057C526.155 292.374 525.638 292.532 524.922 292.532V291.132C525.155 290.832 525.313 290.615 525.397 290.482L525.322 290.382C524.788 291.049 524.197 291.574 523.547 291.957C522.897 292.34 522.113 292.532 521.197 292.532ZM521.672 290.607C522.555 290.607 523.297 290.382 523.897 289.932C524.497 289.465 524.797 288.89 524.797 288.207V283.882C524.797 283.215 524.513 282.657 523.947 282.207C523.38 281.74 522.613 281.507 521.647 281.507C520.663 281.507 519.897 281.732 519.347 282.182C518.813 282.615 518.547 283.224 518.547 284.007V288.082C518.547 288.899 518.813 289.524 519.347 289.957C519.897 290.39 520.672 290.607 521.672 290.607ZM134.719 325.532C133.536 325.532 132.652 325.199 132.069 324.532C131.486 323.849 131.194 322.957 131.194 321.857V314.557H128.869C128.869 313.99 128.994 313.557 129.244 313.257C129.494 312.957 129.836 312.807 130.269 312.807H131.219V310.432C131.219 309.882 131.394 309.482 131.744 309.232C132.111 308.965 132.652 308.832 133.369 308.832V312.807H136.694C136.694 313.974 136.169 314.557 135.119 314.557H133.394V321.782C133.394 322.449 133.511 322.924 133.744 323.207C133.994 323.474 134.436 323.607 135.069 323.607C135.652 323.607 136.202 323.457 136.719 323.157C136.936 323.374 137.044 323.665 137.044 324.032C137.044 324.432 136.836 324.782 136.419 325.082C136.002 325.382 135.436 325.532 134.719 325.532ZM139.681 309.432C139.681 308.832 139.864 308.374 140.231 308.057C140.597 307.74 141.139 307.582 141.856 307.582V314.157C141.622 314.424 141.439 314.657 141.306 314.857L141.406 314.957C141.922 314.257 142.572 313.69 143.356 313.257C144.139 312.807 144.989 312.582 145.906 312.582C147.256 312.582 148.322 312.982 149.106 313.782C149.889 314.582 150.281 315.615 150.281 316.882V323.932C150.281 324.482 150.097 324.89 149.731 325.157C149.381 325.407 148.839 325.532 148.106 325.532V317.107C148.106 316.307 147.881 315.674 147.431 315.207C146.981 314.74 146.297 314.507 145.381 314.507C144.764 314.507 144.181 314.64 143.631 314.907C143.097 315.157 142.664 315.507 142.331 315.957C142.014 316.39 141.856 316.865 141.856 317.382V323.932C141.856 324.482 141.672 324.89 141.306 325.157C140.956 325.407 140.414 325.532 139.681 325.532V309.432ZM157.673 325.532C156.24 325.532 155.082 325.149 154.198 324.382C153.332 323.615 152.898 322.607 152.898 321.357C152.898 320.09 153.357 319.074 154.273 318.307C155.19 317.524 156.398 317.132 157.898 317.132C159.498 317.132 160.815 317.699 161.848 318.832L161.948 318.732C161.765 318.532 161.557 318.324 161.323 318.107V317.057C161.323 316.207 161.057 315.549 160.523 315.082C159.99 314.615 159.232 314.382 158.248 314.382C156.498 314.382 155.248 315.074 154.498 316.457C154.232 316.324 154.007 316.149 153.823 315.932C153.657 315.699 153.573 315.465 153.573 315.232C153.573 314.782 153.798 314.357 154.248 313.957C154.698 313.54 155.29 313.207 156.023 312.957C156.773 312.707 157.557 312.582 158.373 312.582C159.957 312.582 161.198 312.974 162.098 313.757C163.015 314.54 163.473 315.624 163.473 317.007V323.857C163.473 324.44 163.307 324.865 162.973 325.132C162.64 325.399 162.115 325.532 161.398 325.532V324.357C161.748 323.99 161.94 323.774 161.973 323.707L161.873 323.607C160.79 324.89 159.39 325.532 157.673 325.532ZM158.048 323.807C159.082 323.807 159.89 323.59 160.473 323.157C161.073 322.724 161.373 322.124 161.373 321.357C161.373 320.59 161.082 319.982 160.498 319.532C159.915 319.082 159.115 318.857 158.098 318.857C157.148 318.857 156.398 319.082 155.848 319.532C155.315 319.965 155.048 320.574 155.048 321.357C155.048 322.14 155.307 322.749 155.823 323.182C156.357 323.599 157.098 323.807 158.048 323.807ZM170.705 325.532C169.522 325.532 168.639 325.199 168.055 324.532C167.472 323.849 167.18 322.957 167.18 321.857V314.557H164.855C164.855 313.99 164.98 313.557 165.23 313.257C165.48 312.957 165.822 312.807 166.255 312.807H167.205V310.432C167.205 309.882 167.38 309.482 167.73 309.232C168.097 308.965 168.639 308.832 169.355 308.832V312.807H172.68C172.68 313.974 172.155 314.557 171.105 314.557H169.38V321.782C169.38 322.449 169.497 322.924 169.73 323.207C169.98 323.474 170.422 323.607 171.055 323.607C171.639 323.607 172.189 323.457 172.705 323.157C172.922 323.374 173.03 323.665 173.03 324.032C173.03 324.432 172.822 324.782 172.405 325.082C171.989 325.382 171.422 325.532 170.705 325.532ZM192.462 323.682C192.462 324.915 191.762 325.532 190.362 325.532V323.932C190.512 323.782 190.687 323.557 190.887 323.257L190.787 323.157C190.287 323.874 189.654 324.449 188.887 324.882C188.137 325.315 187.312 325.532 186.412 325.532C185.512 325.532 184.712 325.34 184.012 324.957C183.329 324.574 182.796 324.04 182.412 323.357C182.046 322.674 181.862 321.907 181.862 321.057V314.182C181.862 313.632 182.046 313.232 182.412 312.982C182.779 312.715 183.329 312.582 184.062 312.582V320.957C184.062 321.757 184.296 322.399 184.762 322.882C185.246 323.365 185.954 323.607 186.887 323.607C187.504 323.607 188.071 323.482 188.587 323.232C189.104 322.965 189.512 322.615 189.812 322.182C190.129 321.732 190.287 321.249 190.287 320.732V314.182C190.287 313.632 190.462 313.232 190.812 312.982C191.179 312.715 191.729 312.582 192.462 312.582V323.682ZM200.48 325.532C199.63 325.532 198.83 325.407 198.08 325.157C197.33 324.89 196.722 324.515 196.255 324.032C195.805 323.549 195.58 322.982 195.58 322.332C195.58 321.532 196.063 321.099 197.03 321.032C197.197 321.965 197.588 322.657 198.205 323.107C198.838 323.54 199.638 323.757 200.605 323.757C201.572 323.757 202.322 323.615 202.855 323.332C203.388 323.049 203.655 322.615 203.655 322.032C203.655 321.615 203.547 321.282 203.33 321.032C203.113 320.765 202.763 320.54 202.28 320.357C201.813 320.157 201.138 319.965 200.255 319.782C199.155 319.532 198.28 319.265 197.63 318.982C196.98 318.699 196.48 318.324 196.13 317.857C195.797 317.39 195.63 316.774 195.63 316.007C195.63 315.357 195.83 314.774 196.23 314.257C196.63 313.724 197.18 313.315 197.88 313.032C198.597 312.732 199.405 312.582 200.305 312.582C201.138 312.582 201.922 312.699 202.655 312.932C203.405 313.165 204.005 313.499 204.455 313.932C204.922 314.365 205.155 314.865 205.155 315.432C205.155 315.815 205.005 316.124 204.705 316.357C204.405 316.574 203.988 316.699 203.455 316.732C203.405 315.999 203.105 315.424 202.555 315.007C202.022 314.574 201.272 314.357 200.305 314.357C199.505 314.357 198.872 314.507 198.405 314.807C197.938 315.107 197.705 315.507 197.705 316.007C197.705 316.54 197.922 316.94 198.355 317.207C198.805 317.457 199.563 317.699 200.63 317.932C202.38 318.282 203.663 318.765 204.48 319.382C205.313 319.982 205.73 320.84 205.73 321.957C205.73 323.09 205.272 323.974 204.355 324.607C203.438 325.224 202.147 325.532 200.48 325.532ZM213.627 325.532C212.61 325.532 211.702 325.34 210.902 324.957C210.102 324.557 209.477 324.015 209.027 323.332C208.577 322.632 208.352 321.849 208.352 320.982V317.282C208.352 316.399 208.585 315.599 209.052 314.882C209.535 314.165 210.177 313.607 210.977 313.207C211.793 312.79 212.677 312.582 213.627 312.582C214.577 312.582 215.443 312.782 216.227 313.182C217.027 313.582 217.652 314.132 218.102 314.832C218.568 315.532 218.802 316.324 218.802 317.207V318.807C218.802 319.074 218.702 319.299 218.502 319.482C218.302 319.665 218.06 319.757 217.777 319.757H210.477V320.882C210.477 321.732 210.743 322.415 211.277 322.932C211.827 323.449 212.61 323.707 213.627 323.707C214.643 323.707 215.418 323.482 215.952 323.032C216.485 322.582 216.752 321.974 216.752 321.207C217.252 321.174 217.668 321.274 218.002 321.507C218.352 321.724 218.527 322.049 218.527 322.482C218.527 323.015 218.293 323.515 217.827 323.982C217.377 324.449 216.777 324.824 216.027 325.107C215.277 325.39 214.477 325.532 213.627 325.532ZM216.777 318.057V317.207C216.777 316.374 216.485 315.699 215.902 315.182C215.335 314.649 214.577 314.382 213.627 314.382C212.677 314.382 211.91 314.649 211.327 315.182C210.76 315.699 210.477 316.374 210.477 317.207V318.057H216.777ZM235.108 325.532C233.708 325.532 232.458 325.274 231.358 324.757C230.258 324.224 229.399 323.49 228.783 322.557C228.183 321.607 227.883 320.532 227.883 319.332V313.732C227.883 312.532 228.183 311.465 228.783 310.532C229.399 309.599 230.249 308.874 231.333 308.357C232.416 307.84 233.658 307.582 235.058 307.582C236.458 307.582 237.699 307.807 238.783 308.257C239.866 308.69 240.708 309.299 241.308 310.082C241.924 310.865 242.233 311.765 242.233 312.782C242.233 313.282 242.066 313.674 241.733 313.957C241.399 314.24 240.958 314.382 240.408 314.382C240.291 314.382 240.116 314.365 239.883 314.332C239.916 314.132 239.933 313.815 239.933 313.382C239.933 312.665 239.724 312.024 239.308 311.457C238.908 310.89 238.333 310.449 237.583 310.132C236.849 309.815 236.008 309.657 235.058 309.657C234.124 309.657 233.291 309.832 232.558 310.182C231.824 310.515 231.249 310.999 230.833 311.632C230.433 312.249 230.233 312.949 230.233 313.732V319.332C230.233 320.132 230.433 320.849 230.833 321.482C231.249 322.099 231.824 322.582 232.558 322.932C233.308 323.282 234.158 323.457 235.108 323.457C236.074 323.457 236.933 323.299 237.683 322.982C238.433 322.665 239.016 322.232 239.433 321.682C239.849 321.115 240.058 320.465 240.058 319.732C240.058 319.465 240.041 319.149 240.008 318.782C240.241 318.749 240.408 318.732 240.508 318.732C241.058 318.732 241.499 318.89 241.833 319.207C242.183 319.524 242.358 319.949 242.358 320.482C242.358 321.465 242.049 322.34 241.433 323.107C240.816 323.874 239.958 324.474 238.858 324.907C237.774 325.324 236.524 325.532 235.108 325.532ZM246.423 325.307C246.089 325.307 245.806 325.207 245.573 325.007C245.339 324.79 245.223 324.524 245.223 324.207V308.907C245.223 308.59 245.331 308.332 245.548 308.132C245.781 307.915 246.073 307.807 246.423 307.807H252.273C253.689 307.807 254.939 308.074 256.023 308.607C257.106 309.14 257.948 309.89 258.548 310.857C259.164 311.807 259.473 312.899 259.473 314.132V318.932C259.473 320.165 259.164 321.265 258.548 322.232C257.948 323.199 257.098 323.957 255.998 324.507C254.914 325.04 253.673 325.307 252.273 325.307H246.423ZM252.023 323.257C253.623 323.257 254.873 322.882 255.773 322.132C256.673 321.365 257.123 320.307 257.123 318.957V314.107C257.123 312.774 256.673 311.732 255.773 310.982C254.873 310.232 253.623 309.857 252.023 309.857H247.573V323.257H252.023ZM262.728 309.607C262.728 308.974 262.919 308.482 263.303 308.132C263.703 307.765 264.253 307.582 264.953 307.582L274.653 322.332L274.828 322.182L274.103 320.982V307.582C274.869 307.582 275.444 307.749 275.828 308.082C276.228 308.415 276.428 308.899 276.428 309.532V323.682C276.428 324.215 276.236 324.657 275.853 325.007C275.486 325.357 275.011 325.532 274.428 325.532L264.503 310.457L264.328 310.607L265.053 311.807V323.582C265.053 324.215 264.853 324.699 264.453 325.032C264.069 325.365 263.494 325.532 262.728 325.532V309.607ZM291.36 325.532C290.176 325.532 289.293 325.199 288.71 324.532C288.126 323.849 287.835 322.957 287.835 321.857V314.557H285.51C285.51 313.99 285.635 313.557 285.885 313.257C286.135 312.957 286.476 312.807 286.91 312.807H287.86V310.432C287.86 309.882 288.035 309.482 288.385 309.232C288.751 308.965 289.293 308.832 290.01 308.832V312.807H293.335C293.335 313.974 292.81 314.557 291.76 314.557H290.035V321.782C290.035 322.449 290.151 322.924 290.385 323.207C290.635 323.474 291.076 323.607 291.71 323.607C292.293 323.607 292.843 323.457 293.36 323.157C293.576 323.374 293.685 323.665 293.685 324.032C293.685 324.432 293.476 324.782 293.06 325.082C292.643 325.382 292.076 325.532 291.36 325.532ZM301.346 325.532C300.33 325.532 299.421 325.34 298.621 324.957C297.821 324.557 297.196 324.015 296.746 323.332C296.296 322.632 296.071 321.849 296.071 320.982V317.282C296.071 316.399 296.305 315.599 296.771 314.882C297.255 314.165 297.896 313.607 298.696 313.207C299.513 312.79 300.396 312.582 301.346 312.582C302.296 312.582 303.163 312.782 303.946 313.182C304.746 313.582 305.371 314.132 305.821 314.832C306.288 315.532 306.521 316.324 306.521 317.207V318.807C306.521 319.074 306.421 319.299 306.221 319.482C306.021 319.665 305.78 319.757 305.496 319.757H298.196V320.882C298.196 321.732 298.463 322.415 298.996 322.932C299.546 323.449 300.33 323.707 301.346 323.707C302.363 323.707 303.138 323.482 303.671 323.032C304.205 322.582 304.471 321.974 304.471 321.207C304.971 321.174 305.388 321.274 305.721 321.507C306.071 321.724 306.246 322.049 306.246 322.482C306.246 323.015 306.013 323.515 305.546 323.982C305.096 324.449 304.496 324.824 303.746 325.107C302.996 325.39 302.196 325.532 301.346 325.532ZM304.496 318.057V317.207C304.496 316.374 304.205 315.699 303.621 315.182C303.055 314.649 302.296 314.382 301.346 314.382C300.396 314.382 299.63 314.649 299.046 315.182C298.48 315.699 298.196 316.374 298.196 317.207V318.057H304.496ZM314.407 325.532C313.391 325.532 312.482 325.349 311.682 324.982C310.882 324.615 310.257 324.099 309.807 323.432C309.374 322.765 309.157 322.007 309.157 321.157V317.107C309.157 316.224 309.374 315.44 309.807 314.757C310.257 314.074 310.874 313.54 311.657 313.157C312.441 312.774 313.341 312.582 314.357 312.582C315.307 312.582 316.149 312.724 316.882 313.007C317.632 313.274 318.216 313.657 318.632 314.157C319.049 314.657 319.257 315.224 319.257 315.857C319.257 316.274 319.091 316.615 318.757 316.882C318.441 317.132 318.024 317.24 317.507 317.207C317.507 316.407 317.216 315.757 316.632 315.257C316.066 314.757 315.324 314.507 314.407 314.507C313.491 314.507 312.749 314.757 312.182 315.257C311.616 315.74 311.332 316.374 311.332 317.157V321.057C311.332 321.807 311.624 322.424 312.207 322.907C312.791 323.374 313.541 323.607 314.457 323.607C315.374 323.607 316.116 323.357 316.682 322.857C317.266 322.357 317.557 321.715 317.557 320.932C318.091 320.899 318.516 321.007 318.832 321.257C319.166 321.49 319.332 321.824 319.332 322.257C319.332 322.89 319.124 323.457 318.707 323.957C318.291 324.457 317.707 324.849 316.957 325.132C316.207 325.399 315.357 325.532 314.407 325.532ZM322.2 309.432C322.2 308.832 322.384 308.374 322.75 308.057C323.117 307.74 323.659 307.582 324.375 307.582V314.157C324.142 314.424 323.959 314.657 323.825 314.857L323.925 314.957C324.442 314.257 325.092 313.69 325.875 313.257C326.659 312.807 327.509 312.582 328.425 312.582C329.775 312.582 330.842 312.982 331.625 313.782C332.409 314.582 332.8 315.615 332.8 316.882V323.932C332.8 324.482 332.617 324.89 332.25 325.157C331.9 325.407 331.359 325.532 330.625 325.532V317.107C330.625 316.307 330.4 315.674 329.95 315.207C329.5 314.74 328.817 314.507 327.9 314.507C327.284 314.507 326.7 314.64 326.15 314.907C325.617 315.157 325.184 315.507 324.85 315.957C324.534 316.39 324.375 316.865 324.375 317.382V323.932C324.375 324.482 324.192 324.89 323.825 325.157C323.475 325.407 322.934 325.532 322.2 325.532V309.432ZM336.043 314.432C336.043 313.199 336.743 312.582 338.143 312.582V314.182C337.993 314.332 337.818 314.557 337.618 314.857L337.718 314.957C338.218 314.257 338.868 313.69 339.668 313.257C340.468 312.807 341.335 312.582 342.268 312.582C343.618 312.582 344.685 312.982 345.468 313.782C346.251 314.582 346.643 315.615 346.643 316.882V323.932C346.643 324.482 346.46 324.89 346.093 325.157C345.743 325.407 345.201 325.532 344.468 325.532V317.107C344.468 316.307 344.243 315.674 343.793 315.207C343.343 314.74 342.66 314.507 341.743 314.507C341.126 314.507 340.543 314.64 339.993 314.907C339.46 315.157 339.026 315.507 338.693 315.957C338.376 316.39 338.218 316.865 338.218 317.382V323.932C338.218 324.482 338.035 324.89 337.668 325.157C337.318 325.407 336.776 325.532 336.043 325.532V314.432ZM354.636 325.532C353.619 325.532 352.694 325.34 351.861 324.957C351.044 324.574 350.402 324.057 349.936 323.407C349.486 322.74 349.261 321.999 349.261 321.182V317.082C349.261 316.249 349.486 315.49 349.936 314.807C350.402 314.124 351.044 313.582 351.861 313.182C352.677 312.782 353.602 312.582 354.636 312.582C355.669 312.582 356.594 312.782 357.411 313.182C358.244 313.582 358.886 314.124 359.336 314.807C359.802 315.49 360.036 316.249 360.036 317.082V321.182C360.036 321.999 359.802 322.74 359.336 323.407C358.869 324.057 358.227 324.574 357.411 324.957C356.594 325.34 355.669 325.532 354.636 325.532ZM354.636 323.657C355.636 323.657 356.427 323.424 357.011 322.957C357.611 322.474 357.911 321.849 357.911 321.082V317.157C357.911 316.357 357.611 315.707 357.011 315.207C356.427 314.707 355.636 314.457 354.636 314.457C353.652 314.457 352.861 314.707 352.261 315.207C351.661 315.707 351.361 316.357 351.361 317.157V321.082C351.361 321.849 351.652 322.474 352.236 322.957C352.836 323.424 353.636 323.657 354.636 323.657ZM366.548 325.532C365.331 325.532 364.423 325.199 363.823 324.532C363.223 323.849 362.923 322.957 362.923 321.857V309.182C362.923 308.632 363.098 308.232 363.448 307.982C363.815 307.715 364.365 307.582 365.098 307.582V321.782C365.098 322.432 365.231 322.899 365.498 323.182C365.765 323.465 366.206 323.607 366.823 323.607C367.44 323.607 368.006 323.457 368.523 323.157C368.74 323.407 368.848 323.699 368.848 324.032C368.848 324.432 368.64 324.782 368.223 325.082C367.806 325.382 367.248 325.532 366.548 325.532ZM375.583 325.532C374.566 325.532 373.641 325.34 372.808 324.957C371.991 324.574 371.35 324.057 370.883 323.407C370.433 322.74 370.208 321.999 370.208 321.182V317.082C370.208 316.249 370.433 315.49 370.883 314.807C371.35 314.124 371.991 313.582 372.808 313.182C373.625 312.782 374.55 312.582 375.583 312.582C376.616 312.582 377.541 312.782 378.358 313.182C379.191 313.582 379.833 314.124 380.283 314.807C380.75 315.49 380.983 316.249 380.983 317.082V321.182C380.983 321.999 380.75 322.74 380.283 323.407C379.816 324.057 379.175 324.574 378.358 324.957C377.541 325.34 376.616 325.532 375.583 325.532ZM375.583 323.657C376.583 323.657 377.375 323.424 377.958 322.957C378.558 322.474 378.858 321.849 378.858 321.082V317.157C378.858 316.357 378.558 315.707 377.958 315.207C377.375 314.707 376.583 314.457 375.583 314.457C374.6 314.457 373.808 314.707 373.208 315.207C372.608 315.707 372.308 316.357 372.308 317.157V321.082C372.308 321.849 372.6 322.474 373.183 322.957C373.783 323.424 374.583 323.657 375.583 323.657ZM388.479 330.532C387.612 330.532 386.804 330.39 386.054 330.107C385.304 329.824 384.712 329.44 384.279 328.957C383.846 328.49 383.629 327.982 383.629 327.432C383.629 326.999 383.771 326.682 384.054 326.482C384.354 326.282 384.754 326.182 385.254 326.182C385.287 326.965 385.587 327.582 386.154 328.032C386.737 328.499 387.512 328.732 388.479 328.732C390.612 328.732 391.679 327.699 391.679 325.632V324.182C391.912 323.982 392.087 323.799 392.204 323.632L392.129 323.507C391.646 324.024 391.037 324.449 390.304 324.782C389.587 325.115 388.862 325.282 388.129 325.282C386.696 325.282 385.521 324.89 384.604 324.107C383.704 323.307 383.254 322.257 383.254 320.957V316.932C383.254 316.082 383.462 315.332 383.879 314.682C384.312 314.015 384.896 313.499 385.629 313.132C386.379 312.765 387.204 312.582 388.104 312.582C389.737 312.582 391.104 313.299 392.204 314.732L392.304 314.632L391.804 314.007C391.804 313.54 391.962 313.19 392.279 312.957C392.612 312.707 393.146 312.582 393.879 312.582V325.407C393.879 326.407 393.646 327.29 393.179 328.057C392.729 328.84 392.096 329.449 391.279 329.882C390.462 330.315 389.529 330.532 388.479 330.532ZM388.529 323.382C389.412 323.382 390.162 323.149 390.779 322.682C391.396 322.199 391.704 321.632 391.704 320.982V316.907C391.704 316.224 391.396 315.649 390.779 315.182C390.179 314.715 389.446 314.482 388.579 314.482C387.579 314.482 386.804 314.707 386.254 315.157C385.704 315.59 385.429 316.215 385.429 317.032V320.857C385.429 321.64 385.696 322.257 386.229 322.707C386.779 323.157 387.546 323.382 388.529 323.382ZM398.23 330.507C397.197 330.507 396.655 329.907 396.605 328.707C397.105 328.774 397.463 328.807 397.68 328.807C398.413 328.807 398.997 328.59 399.43 328.157C399.88 327.724 400.338 326.974 400.805 325.907L401.305 324.782L396.38 312.757C396.497 312.707 396.647 312.665 396.83 312.632C397.03 312.599 397.197 312.582 397.33 312.582C397.68 312.599 397.997 312.699 398.28 312.882C398.563 313.049 398.763 313.274 398.88 313.557L402.23 322.107L401.88 323.107L402.03 323.182L405.83 313.557C405.947 313.257 406.138 313.024 406.405 312.857C406.688 312.674 407.005 312.582 407.355 312.582C407.505 312.582 407.672 312.599 407.855 312.632C408.055 312.665 408.205 312.707 408.305 312.757L402.68 326.532C402.13 327.865 401.513 328.857 400.83 329.507C400.147 330.174 399.28 330.507 398.23 330.507ZM412.214 325.532C411.748 325.532 411.356 325.382 411.039 325.082C410.723 324.765 410.564 324.374 410.564 323.907C410.564 323.44 410.723 323.049 411.039 322.732C411.356 322.415 411.748 322.257 412.214 322.257C412.664 322.257 413.056 322.424 413.389 322.757C413.723 323.074 413.889 323.457 413.889 323.907C413.889 324.357 413.723 324.74 413.389 325.057C413.056 325.374 412.664 325.532 412.214 325.532Z" fill="white" fill-opacity="0.8"/>
<path d="M324.5 50.2857H219.5C215.358 50.2857 212 46.4481 212 41.7143V24.5714C212 19.8376 215.358 16 219.5 16H324.5C328.642 16 332 19.8376 332 24.5714V41.7143C332 46.4481 328.642 50.2857 324.5 50.2857ZM313.25 26.7143C310.143 26.7143 307.625 29.5924 307.625 33.1429C307.625 36.6933 310.143 39.5714 313.25 39.5714C316.357 39.5714 318.875 36.6933 318.875 33.1429C318.875 29.5924 316.357 26.7143 313.25 26.7143ZM298.25 26.7143C295.143 26.7143 292.625 29.5924 292.625 33.1429C292.625 36.6933 295.143 39.5714 298.25 39.5714C301.357 39.5714 303.875 36.6933 303.875 33.1429C303.875 29.5924 301.357 26.7143 298.25 26.7143ZM324.5 93.1429H219.5C215.358 93.1429 212 89.3053 212 84.5714V67.4286C212 62.6947 215.358 58.8571 219.5 58.8571H324.5C328.642 58.8571 332 62.6947 332 67.4286V84.5714C332 89.3053 328.642 93.1429 324.5 93.1429ZM313.25 69.5714C310.143 69.5714 307.625 72.4496 307.625 76C307.625 79.5504 310.143 82.4286 313.25 82.4286C316.357 82.4286 318.875 79.5504 318.875 76C318.875 72.4496 316.357 69.5714 313.25 69.5714ZM298.25 69.5714C295.143 69.5714 292.625 72.4496 292.625 76C292.625 79.5504 295.143 82.4286 298.25 82.4286C301.357 82.4286 303.875 79.5504 303.875 76C303.875 72.4496 301.357 69.5714 298.25 69.5714ZM324.5 136H219.5C215.358 136 212 132.162 212 127.429V110.286C212 105.552 215.358 101.714 219.5 101.714H324.5C328.642 101.714 332 105.552 332 110.286V127.429C332 132.162 328.642 136 324.5 136ZM313.25 112.429C310.143 112.429 307.625 115.307 307.625 118.857C307.625 122.408 310.143 125.286 313.25 125.286C316.357 125.286 318.875 122.408 318.875 118.857C318.875 115.307 316.357 112.429 313.25 112.429ZM298.25 112.429C295.143 112.429 292.625 115.307 292.625 118.857C292.625 122.408 295.143 125.286 298.25 125.286C301.357 125.286 303.875 122.408 303.875 118.857C303.875 115.307 301.357 112.429 298.25 112.429Z" fill="#910A67" fill-opacity="0.7"/>
</svg>
