<svg width="543" height="301" viewBox="0 0 543 301" fill="none" xmlns="http://www.w3.org/2000/svg">
<path d="M125.817 168.44C125.817 167.773 126.07 167.2 126.577 166.72C127.11 166.24 127.75 166 128.497 166H146.617C146.617 167.6 146.337 168.773 145.777 169.52C145.244 170.24 144.364 170.6 143.137 170.6H131.177V177.36H141.817C141.817 178.96 141.537 180.133 140.977 180.88C140.444 181.6 139.564 181.96 138.337 181.96H131.177V190.56C131.177 191.893 130.75 192.867 129.897 193.48C129.044 194.067 127.684 194.36 125.817 194.36V168.44ZM155.667 177.96C154.094 177.96 152.814 178.387 151.827 179.24C150.841 180.067 150.347 181.107 150.347 182.36V191.32C150.347 192.387 149.947 193.16 149.147 193.64C148.347 194.12 147.094 194.36 145.387 194.36V177.48C145.387 176.253 145.774 175.307 146.547 174.64C147.347 173.973 148.547 173.64 150.147 173.64V176C149.747 176.453 149.427 176.893 149.187 177.32L149.427 177.48C151.107 174.92 153.214 173.64 155.747 173.64C156.894 173.64 157.761 173.947 158.347 174.56C158.934 175.147 159.227 175.893 159.227 176.8C159.227 177.493 159.041 178.08 158.667 178.56C157.947 178.16 156.947 177.96 155.667 177.96ZM169.576 194.36C167.923 194.36 166.416 194.04 165.056 193.4C163.696 192.733 162.616 191.84 161.816 190.72C161.016 189.573 160.616 188.293 160.616 186.88V181.56C160.616 180.067 161.029 178.72 161.856 177.52C162.683 176.32 163.776 175.373 165.136 174.68C166.523 173.987 168.016 173.64 169.616 173.64C171.189 173.64 172.629 173.973 173.936 174.64C175.269 175.28 176.323 176.187 177.096 177.36C177.869 178.507 178.256 179.827 178.256 181.32V183.56C178.256 184.147 178.029 184.64 177.576 185.04C177.149 185.44 176.603 185.64 175.936 185.64H165.456V186.52C165.456 187.667 165.803 188.6 166.496 189.32C167.189 190.04 168.229 190.4 169.616 190.4C170.949 190.4 171.936 190.107 172.576 189.52C173.243 188.933 173.576 188.173 173.576 187.24C174.056 187.187 174.389 187.16 174.576 187.16C175.563 187.16 176.336 187.387 176.896 187.84C177.456 188.267 177.736 188.88 177.736 189.68C177.736 190.453 177.376 191.2 176.656 191.92C175.936 192.64 174.949 193.227 173.696 193.68C172.443 194.133 171.069 194.36 169.576 194.36ZM173.736 182.08V181.32C173.736 180.2 173.349 179.293 172.576 178.6C171.803 177.907 170.803 177.56 169.576 177.56C168.349 177.56 167.349 177.907 166.576 178.6C165.829 179.267 165.456 180.173 165.456 181.32V182.08H173.736ZM190.826 194.36C189.173 194.36 187.666 194.04 186.306 193.4C184.946 192.733 183.866 191.84 183.066 190.72C182.266 189.573 181.866 188.293 181.866 186.88V181.56C181.866 180.067 182.279 178.72 183.106 177.52C183.933 176.32 185.026 175.373 186.386 174.68C187.773 173.987 189.266 173.64 190.866 173.64C192.439 173.64 193.879 173.973 195.186 174.64C196.519 175.28 197.573 176.187 198.346 177.36C199.119 178.507 199.506 179.827 199.506 181.32V183.56C199.506 184.147 199.279 184.64 198.826 185.04C198.399 185.44 197.853 185.64 197.186 185.64H186.706V186.52C186.706 187.667 187.053 188.6 187.746 189.32C188.439 190.04 189.479 190.4 190.866 190.4C192.199 190.4 193.186 190.107 193.826 189.52C194.493 188.933 194.826 188.173 194.826 187.24C195.306 187.187 195.639 187.16 195.826 187.16C196.813 187.16 197.586 187.387 198.146 187.84C198.706 188.267 198.986 188.88 198.986 189.68C198.986 190.453 198.626 191.2 197.906 191.92C197.186 192.64 196.199 193.227 194.946 193.68C193.693 194.133 192.319 194.36 190.826 194.36ZM194.986 182.08V181.32C194.986 180.2 194.599 179.293 193.826 178.6C193.053 177.907 192.053 177.56 190.826 177.56C189.599 177.56 188.599 177.907 187.826 178.6C187.079 179.267 186.706 180.173 186.706 181.32V182.08H194.986ZM214.469 169.64C214.469 168.387 214.935 167.413 215.869 166.72C216.802 166 218.122 165.64 219.829 165.64V190.36C219.829 191.64 219.362 192.627 218.429 193.32C217.495 194.013 216.175 194.36 214.469 194.36V169.64ZM225.309 177.48C225.309 176.253 225.696 175.307 226.469 174.64C227.269 173.973 228.469 173.64 230.069 173.64V176.04C229.749 176.413 229.429 176.84 229.109 177.32L229.349 177.48C230.149 176.28 231.176 175.347 232.429 174.68C233.683 173.987 235.069 173.64 236.589 173.64C237.949 173.64 239.149 173.947 240.189 174.56C241.229 175.173 242.029 176.013 242.589 177.08C243.176 178.147 243.469 179.347 243.469 180.68V191.32C243.469 192.387 243.056 193.16 242.229 193.64C241.403 194.12 240.149 194.36 238.469 194.36V181.4C238.469 180.387 238.163 179.56 237.549 178.92C236.963 178.28 236.096 177.96 234.949 177.96C233.589 177.96 232.469 178.387 231.589 179.24C230.709 180.067 230.269 181.107 230.269 182.36V191.32C230.269 192.387 229.869 193.16 229.069 193.64C228.269 194.12 227.016 194.36 225.309 194.36V177.48ZM256.046 194.36C253.486 194.36 251.42 193.907 249.846 193C248.3 192.067 247.513 190.827 247.486 189.28C247.486 188.613 247.753 188.053 248.286 187.6C248.846 187.147 249.726 186.907 250.926 186.88C251.166 188.053 251.726 188.96 252.606 189.6C253.486 190.213 254.553 190.52 255.806 190.52C257.166 190.52 258.233 190.347 259.006 190C259.78 189.653 260.166 189.133 260.166 188.44C260.166 187.8 259.846 187.267 259.206 186.84C258.593 186.413 257.366 185.987 255.526 185.56C253.526 185.08 251.966 184.6 250.846 184.12C249.753 183.64 248.94 183.027 248.406 182.28C247.873 181.533 247.606 180.547 247.606 179.32C247.606 177.613 248.326 176.24 249.766 175.2C251.206 174.16 253.18 173.64 255.686 173.64C258.113 173.64 260.126 174.08 261.726 174.96C263.326 175.813 264.126 176.96 264.126 178.4C264.126 179.12 263.86 179.653 263.326 180C262.793 180.347 261.913 180.533 260.686 180.56C260.42 179.493 259.913 178.693 259.166 178.16C258.42 177.627 257.366 177.36 256.006 177.36C254.993 177.36 254.113 177.533 253.366 177.88C252.646 178.227 252.286 178.68 252.286 179.24C252.286 179.827 252.593 180.28 253.206 180.6C253.82 180.92 254.886 181.24 256.406 181.56C259.393 182.2 261.553 183.053 262.886 184.12C264.246 185.187 264.926 186.64 264.926 188.48C264.926 190.267 264.126 191.693 262.526 192.76C260.953 193.827 258.793 194.36 256.046 194.36ZM276.235 194.36C274.075 194.36 272.475 193.733 271.435 192.48C270.395 191.227 269.875 189.613 269.875 187.64V177.72H265.755C265.755 176.467 265.995 175.533 266.475 174.92C266.955 174.307 267.595 174 268.395 174H269.955V170.68C269.955 169.587 270.355 168.813 271.155 168.36C271.955 167.88 273.169 167.64 274.795 167.64V174H280.115C280.115 175.333 279.862 176.293 279.355 176.88C278.849 177.44 278.035 177.72 276.915 177.72H274.875V187.44C274.875 188.373 275.049 189.04 275.395 189.44C275.769 189.84 276.395 190.04 277.275 190.04C278.209 190.04 279.142 189.787 280.075 189.28C280.342 189.52 280.555 189.827 280.715 190.2C280.875 190.547 280.955 190.907 280.955 191.28C280.955 192.08 280.542 192.8 279.715 193.44C278.889 194.053 277.729 194.36 276.235 194.36ZM290.152 194.36C288.792 194.36 287.539 194.093 286.392 193.56C285.272 193.027 284.366 192.267 283.672 191.28C283.006 190.267 282.672 189.067 282.672 187.68C282.672 186.293 283.032 185.093 283.752 184.08C284.472 183.04 285.446 182.253 286.672 181.72C287.926 181.16 289.299 180.88 290.792 180.88C292.019 180.88 293.112 181.08 294.072 181.48C295.059 181.853 295.966 182.427 296.792 183.2L296.992 183C296.752 182.76 296.339 182.4 295.752 181.92V181.12C295.752 180.027 295.366 179.16 294.592 178.52C293.819 177.88 292.739 177.56 291.352 177.56C288.872 177.56 287.046 178.467 285.872 180.28C285.286 180.093 284.792 179.8 284.392 179.4C283.992 178.973 283.792 178.52 283.792 178.04C283.792 177.24 284.152 176.507 284.872 175.84C285.592 175.173 286.566 174.64 287.792 174.24C289.019 173.84 290.352 173.64 291.792 173.64C294.619 173.64 296.806 174.307 298.352 175.64C299.899 176.947 300.672 178.733 300.672 181V191C300.672 192.173 300.299 193.027 299.552 193.56C298.806 194.093 297.632 194.36 296.032 194.36V192.72C296.486 192.267 296.792 191.933 296.952 191.72L296.792 191.52C295.912 192.453 294.966 193.16 293.952 193.64C292.966 194.12 291.699 194.36 290.152 194.36ZM291.432 190.72C292.819 190.72 293.899 190.453 294.672 189.92C295.446 189.387 295.832 188.627 295.832 187.64C295.832 186.68 295.432 185.92 294.632 185.36C293.859 184.8 292.806 184.52 291.472 184.52C290.246 184.52 289.272 184.8 288.552 185.36C287.859 185.893 287.512 186.653 287.512 187.64C287.512 188.653 287.859 189.427 288.552 189.96C289.246 190.467 290.206 190.72 291.432 190.72ZM311.713 194.36C309.5 194.36 307.82 193.733 306.673 192.48C305.553 191.2 304.993 189.587 304.993 187.64V168.68C304.993 167.587 305.393 166.813 306.193 166.36C307.02 165.88 308.286 165.64 309.993 165.64V187.44C309.993 188.347 310.193 189.013 310.593 189.44C310.993 189.84 311.633 190.04 312.513 190.04C313.5 190.04 314.486 189.787 315.473 189.28C315.74 189.52 315.94 189.827 316.073 190.2C316.233 190.547 316.313 190.907 316.313 191.28C316.313 192.08 315.913 192.8 315.113 193.44C314.313 194.053 313.18 194.36 311.713 194.36ZM325.307 194.36C323.093 194.36 321.413 193.733 320.267 192.48C319.147 191.2 318.587 189.587 318.587 187.64V168.68C318.587 167.587 318.987 166.813 319.787 166.36C320.613 165.88 321.88 165.64 323.587 165.64V187.44C323.587 188.347 323.787 189.013 324.187 189.44C324.587 189.84 325.227 190.04 326.107 190.04C327.093 190.04 328.08 189.787 329.067 189.28C329.333 189.52 329.533 189.827 329.667 190.2C329.827 190.547 329.907 190.907 329.907 191.28C329.907 192.08 329.507 192.8 328.707 193.44C327.907 194.053 326.773 194.36 325.307 194.36ZM338.98 194.36C337.62 194.36 336.367 194.093 335.22 193.56C334.1 193.027 333.194 192.267 332.5 191.28C331.834 190.267 331.5 189.067 331.5 187.68C331.5 186.293 331.86 185.093 332.58 184.08C333.3 183.04 334.274 182.253 335.5 181.72C336.754 181.16 338.127 180.88 339.62 180.88C340.847 180.88 341.94 181.08 342.9 181.48C343.887 181.853 344.794 182.427 345.62 183.2L345.82 183C345.58 182.76 345.167 182.4 344.58 181.92V181.12C344.58 180.027 344.194 179.16 343.42 178.52C342.647 177.88 341.567 177.56 340.18 177.56C337.7 177.56 335.874 178.467 334.7 180.28C334.114 180.093 333.62 179.8 333.22 179.4C332.82 178.973 332.62 178.52 332.62 178.04C332.62 177.24 332.98 176.507 333.7 175.84C334.42 175.173 335.394 174.64 336.62 174.24C337.847 173.84 339.18 173.64 340.62 173.64C343.447 173.64 345.634 174.307 347.18 175.64C348.727 176.947 349.5 178.733 349.5 181V191C349.5 192.173 349.127 193.027 348.38 193.56C347.634 194.093 346.46 194.36 344.86 194.36V192.72C345.314 192.267 345.62 191.933 345.78 191.72L345.62 191.52C344.74 192.453 343.794 193.16 342.78 193.64C341.794 194.12 340.527 194.36 338.98 194.36ZM340.26 190.72C341.647 190.72 342.727 190.453 343.5 189.92C344.274 189.387 344.66 188.627 344.66 187.64C344.66 186.68 344.26 185.92 343.46 185.36C342.687 184.8 341.634 184.52 340.3 184.52C339.074 184.52 338.1 184.8 337.38 185.36C336.687 185.893 336.34 186.653 336.34 187.64C336.34 188.653 336.687 189.427 337.38 189.96C338.074 190.467 339.034 190.72 340.26 190.72ZM361.704 194.36C359.544 194.36 357.944 193.733 356.904 192.48C355.864 191.227 355.344 189.613 355.344 187.64V177.72H351.224C351.224 176.467 351.464 175.533 351.944 174.92C352.424 174.307 353.064 174 353.864 174H355.424V170.68C355.424 169.587 355.824 168.813 356.624 168.36C357.424 167.88 358.638 167.64 360.264 167.64V174H365.584C365.584 175.333 365.331 176.293 364.824 176.88C364.318 177.44 363.504 177.72 362.384 177.72H360.344V187.44C360.344 188.373 360.518 189.04 360.864 189.44C361.238 189.84 361.864 190.04 362.744 190.04C363.678 190.04 364.611 189.787 365.544 189.28C365.811 189.52 366.024 189.827 366.184 190.2C366.344 190.547 366.424 190.907 366.424 191.28C366.424 192.08 366.011 192.8 365.184 193.44C364.358 194.053 363.198 194.36 361.704 194.36ZM373.512 171.76C372.552 171.76 371.752 171.48 371.112 170.92C370.499 170.333 370.192 169.587 370.192 168.68C370.192 167.8 370.499 167.08 371.112 166.52C371.752 165.933 372.552 165.64 373.512 165.64C374.472 165.64 375.259 165.933 375.872 166.52C376.512 167.08 376.832 167.8 376.832 168.68C376.832 169.587 376.512 170.333 375.872 170.92C375.259 171.48 374.472 171.76 373.512 171.76ZM370.992 176.68C370.992 175.587 371.405 174.813 372.232 174.36C373.059 173.88 374.312 173.64 375.992 173.64V191.32C375.992 192.387 375.579 193.16 374.752 193.64C373.925 194.12 372.672 194.36 370.992 194.36V176.68ZM388.904 194.36C387.17 194.36 385.597 194.053 384.184 193.44C382.797 192.8 381.704 191.92 380.904 190.8C380.104 189.68 379.704 188.413 379.704 187V181.36C379.704 179.92 380.09 178.613 380.864 177.44C381.664 176.267 382.757 175.347 384.144 174.68C385.53 173.987 387.117 173.64 388.904 173.64C390.69 173.64 392.277 173.987 393.664 174.68C395.077 175.347 396.17 176.267 396.944 177.44C397.744 178.613 398.144 179.92 398.144 181.36V187C398.144 188.413 397.73 189.68 396.904 190.8C396.104 191.92 394.997 192.8 393.584 193.44C392.197 194.053 390.637 194.36 388.904 194.36ZM388.904 190.08C390.237 190.08 391.277 189.773 392.024 189.16C392.797 188.547 393.184 187.72 393.184 186.68V181.6C393.184 180.507 392.797 179.627 392.024 178.96C391.277 178.267 390.237 177.92 388.904 177.92C387.597 177.92 386.557 178.267 385.784 178.96C385.01 179.627 384.624 180.507 384.624 181.6V186.68C384.624 187.72 385.01 188.547 385.784 189.16C386.557 189.773 387.597 190.08 388.904 190.08ZM401.286 177.48C401.286 176.253 401.672 175.307 402.446 174.64C403.246 173.973 404.446 173.64 406.046 173.64V176.04C405.726 176.413 405.406 176.84 405.086 177.32L405.326 177.48C406.126 176.28 407.152 175.347 408.406 174.68C409.659 173.987 411.046 173.64 412.566 173.64C413.926 173.64 415.126 173.947 416.166 174.56C417.206 175.173 418.006 176.013 418.566 177.08C419.152 178.147 419.446 179.347 419.446 180.68V191.32C419.446 192.387 419.032 193.16 418.206 193.64C417.379 194.12 416.126 194.36 414.446 194.36V181.4C414.446 180.387 414.139 179.56 413.526 178.92C412.939 178.28 412.072 177.96 410.926 177.96C409.566 177.96 408.446 178.387 407.566 179.24C406.686 180.067 406.246 181.107 406.246 182.36V191.32C406.246 192.387 405.846 193.16 405.046 193.64C404.246 194.12 402.992 194.36 401.286 194.36V177.48Z" fill="white"/>
<path d="M25.8872 261.225C25.2872 261.225 24.7955 261.083 24.4122 260.8C24.0289 260.5 23.7705 260.083 23.6372 259.55L19.5122 243.5C19.7622 243.35 20.0789 243.275 20.4622 243.275C20.9455 243.275 21.3539 243.4 21.6872 243.65C22.0205 243.883 22.2372 244.208 22.3372 244.625L25.0622 256.475L24.6622 257.95L24.8122 258L28.8372 244.05C28.9039 243.8 29.0289 243.608 29.2122 243.475C29.4122 243.342 29.6455 243.275 29.9122 243.275C30.1622 243.275 30.3872 243.342 30.5872 243.475C30.7872 243.608 30.9205 243.8 30.9872 244.05L34.4622 256.575L34.1122 258.1L34.2622 258.15L37.4872 244.625C37.5872 244.208 37.7955 243.883 38.1122 243.65C38.4455 243.4 38.8455 243.275 39.3122 243.275C39.6955 243.275 40.0289 243.35 40.3122 243.5L36.1872 259.55C36.0539 260.083 35.7872 260.5 35.3872 260.8C35.0039 261.083 34.5122 261.225 33.9122 261.225L29.6372 246.1L29.4872 246.15L29.8122 247.325L25.8872 261.225ZM46.5733 261.225C45.5567 261.225 44.6483 261.033 43.8483 260.65C43.0483 260.25 42.4233 259.708 41.9733 259.025C41.5233 258.325 41.2983 257.542 41.2983 256.675V252.975C41.2983 252.092 41.5317 251.292 41.9983 250.575C42.4817 249.858 43.1233 249.3 43.9233 248.9C44.74 248.483 45.6233 248.275 46.5733 248.275C47.5233 248.275 48.39 248.475 49.1733 248.875C49.9733 249.275 50.5983 249.825 51.0483 250.525C51.515 251.225 51.7483 252.017 51.7483 252.9V254.5C51.7483 254.767 51.6483 254.992 51.4483 255.175C51.2483 255.358 51.0067 255.45 50.7233 255.45H43.4233V256.575C43.4233 257.425 43.69 258.108 44.2233 258.625C44.7733 259.142 45.5567 259.4 46.5733 259.4C47.59 259.4 48.365 259.175 48.8983 258.725C49.4317 258.275 49.6983 257.667 49.6983 256.9C50.1983 256.867 50.615 256.967 50.9483 257.2C51.2983 257.417 51.4733 257.742 51.4733 258.175C51.4733 258.708 51.24 259.208 50.7733 259.675C50.3233 260.142 49.7233 260.517 48.9733 260.8C48.2233 261.083 47.4233 261.225 46.5733 261.225ZM49.7233 253.75V252.9C49.7233 252.067 49.4317 251.392 48.8483 250.875C48.2817 250.342 47.5233 250.075 46.5733 250.075C45.6233 250.075 44.8567 250.342 44.2733 250.875C43.7067 251.392 43.4233 252.067 43.4233 252.9V253.75H49.7233ZM61.0796 250.05C61.0796 249.5 61.2463 249.067 61.5796 248.75C61.9296 248.433 62.4546 248.275 63.1546 248.275V249.675L62.6546 250.325L62.7296 250.425C63.2463 249.758 63.8379 249.233 64.5046 248.85C65.1713 248.467 65.9629 248.275 66.8796 248.275C68.3129 248.275 69.4713 248.675 70.3546 249.475C71.2379 250.258 71.6796 251.308 71.6796 252.625V256.9C71.6796 258.217 71.2213 259.267 70.3046 260.05C69.3879 260.833 68.1963 261.225 66.7296 261.225C65.9463 261.225 65.2213 261.067 64.5546 260.75C63.9046 260.417 63.3296 259.983 62.8296 259.45L62.7546 259.575C62.8713 259.742 63.0463 259.925 63.2796 260.125V264.525C63.2796 265.658 62.5463 266.225 61.0796 266.225V250.05ZM66.4046 259.3C67.3879 259.3 68.1546 259.083 68.7046 258.65C69.2546 258.2 69.5296 257.583 69.5296 256.8V252.725C69.5296 251.908 69.2546 251.283 68.7046 250.85C68.1546 250.417 67.3796 250.2 66.3796 250.2C65.4963 250.2 64.7546 250.433 64.1546 250.9C63.5546 251.35 63.2546 251.917 63.2546 252.6V256.925C63.2546 257.592 63.5379 258.158 64.1046 258.625C64.6713 259.075 65.4379 259.3 66.4046 259.3ZM80.3474 250.2C79.414 250.2 78.639 250.483 78.0224 251.05C77.4057 251.6 77.0974 252.275 77.0974 253.075V259.625C77.0974 260.175 76.914 260.583 76.5474 260.85C76.1974 261.1 75.6557 261.225 74.9224 261.225V250.125C74.9224 248.892 75.6224 248.275 77.0224 248.275V249.8C76.7557 250.083 76.5724 250.333 76.4724 250.55L76.5724 250.65C77.639 249.067 78.9724 248.275 80.5724 248.275C81.1724 248.275 81.6307 248.425 81.9474 248.725C82.264 249.008 82.4224 249.358 82.4224 249.775C82.4224 250.075 82.3474 250.342 82.1974 250.575C81.7307 250.325 81.114 250.2 80.3474 250.2ZM88.1685 261.225C87.1518 261.225 86.2268 261.033 85.3935 260.65C84.5768 260.267 83.9351 259.75 83.4685 259.1C83.0185 258.433 82.7935 257.692 82.7935 256.875V252.775C82.7935 251.942 83.0185 251.183 83.4685 250.5C83.9351 249.817 84.5768 249.275 85.3935 248.875C86.2101 248.475 87.1351 248.275 88.1685 248.275C89.2018 248.275 90.1268 248.475 90.9435 248.875C91.7768 249.275 92.4185 249.817 92.8685 250.5C93.3351 251.183 93.5685 251.942 93.5685 252.775V256.875C93.5685 257.692 93.3351 258.433 92.8685 259.1C92.4018 259.75 91.7601 260.267 90.9435 260.65C90.1268 261.033 89.2018 261.225 88.1685 261.225ZM88.1685 259.35C89.1685 259.35 89.9601 259.117 90.5435 258.65C91.1435 258.167 91.4435 257.542 91.4435 256.775V252.85C91.4435 252.05 91.1435 251.4 90.5435 250.9C89.9601 250.4 89.1685 250.15 88.1685 250.15C87.1851 250.15 86.3935 250.4 85.7935 250.9C85.1935 251.4 84.8935 252.05 84.8935 252.85V256.775C84.8935 257.542 85.1851 258.167 85.7685 258.65C86.3685 259.117 87.1685 259.35 88.1685 259.35ZM100.095 261.225C99.8448 261.225 99.6198 261.158 99.4198 261.025C99.2198 260.892 99.0782 260.725 98.9948 260.525L94.1948 248.45C94.2948 248.4 94.4365 248.358 94.6198 248.325C94.8032 248.292 94.9698 248.275 95.1198 248.275C95.4865 248.275 95.8115 248.358 96.0948 248.525C96.3782 248.692 96.5698 248.933 96.6698 249.25L99.9698 258.225L99.6198 259.225L99.7448 259.275L103.495 249.25C103.595 248.933 103.786 248.692 104.07 248.525C104.353 248.358 104.67 248.275 105.02 248.275C105.17 248.275 105.336 248.292 105.52 248.325C105.703 248.358 105.853 248.4 105.97 248.45L101.17 260.525C101.086 260.725 100.945 260.892 100.745 261.025C100.561 261.158 100.345 261.225 100.095 261.225ZM109.849 246.4C109.382 246.4 108.99 246.25 108.674 245.95C108.357 245.65 108.199 245.275 108.199 244.825C108.199 244.375 108.357 244.008 108.674 243.725C108.99 243.425 109.382 243.275 109.849 243.275C110.299 243.275 110.682 243.425 110.999 243.725C111.315 244.008 111.474 244.375 111.474 244.825C111.474 245.275 111.315 245.65 110.999 245.95C110.682 246.25 110.299 246.4 109.849 246.4ZM108.749 249.875C108.749 249.325 108.924 248.925 109.274 248.675C109.64 248.408 110.19 248.275 110.924 248.275V259.625C110.924 260.175 110.74 260.583 110.374 260.85C110.024 261.1 109.482 261.225 108.749 261.225V249.875ZM119.561 261.225C118.128 261.225 116.961 260.833 116.061 260.05C115.178 259.25 114.736 258.192 114.736 256.875V252.6C114.736 251.75 114.944 251 115.361 250.35C115.778 249.683 116.353 249.175 117.086 248.825C117.836 248.458 118.694 248.275 119.661 248.275C120.444 248.275 121.169 248.442 121.836 248.775C122.503 249.092 123.086 249.517 123.586 250.05L123.661 249.925C123.544 249.758 123.369 249.575 123.136 249.375V244.975C123.136 244.425 123.319 244.008 123.686 243.725C124.053 243.425 124.603 243.275 125.336 243.275V259.45C125.336 260 125.169 260.433 124.836 260.75C124.519 261.067 124.003 261.225 123.286 261.225V259.825C123.519 259.525 123.678 259.308 123.761 259.175L123.686 259.075C123.153 259.742 122.561 260.267 121.911 260.65C121.261 261.033 120.478 261.225 119.561 261.225ZM120.036 259.3C120.919 259.3 121.661 259.075 122.261 258.625C122.861 258.158 123.161 257.583 123.161 256.9V252.575C123.161 251.908 122.878 251.35 122.311 250.9C121.744 250.433 120.978 250.2 120.011 250.2C119.028 250.2 118.261 250.425 117.711 250.875C117.178 251.308 116.911 251.917 116.911 252.7V256.775C116.911 257.592 117.178 258.217 117.711 258.65C118.261 259.083 119.036 259.3 120.036 259.3ZM133.854 261.225C132.837 261.225 131.929 261.033 131.129 260.65C130.329 260.25 129.704 259.708 129.254 259.025C128.804 258.325 128.579 257.542 128.579 256.675V252.975C128.579 252.092 128.812 251.292 129.279 250.575C129.762 249.858 130.404 249.3 131.204 248.9C132.02 248.483 132.904 248.275 133.854 248.275C134.804 248.275 135.67 248.475 136.454 248.875C137.254 249.275 137.879 249.825 138.329 250.525C138.795 251.225 139.029 252.017 139.029 252.9V254.5C139.029 254.767 138.929 254.992 138.729 255.175C138.529 255.358 138.287 255.45 138.004 255.45H130.704V256.575C130.704 257.425 130.97 258.108 131.504 258.625C132.054 259.142 132.837 259.4 133.854 259.4C134.87 259.4 135.645 259.175 136.179 258.725C136.712 258.275 136.979 257.667 136.979 256.9C137.479 256.867 137.895 256.967 138.229 257.2C138.579 257.417 138.754 257.742 138.754 258.175C138.754 258.708 138.52 259.208 138.054 259.675C137.604 260.142 137.004 260.517 136.254 260.8C135.504 261.083 134.704 261.225 133.854 261.225ZM137.004 253.75V252.9C137.004 252.067 136.712 251.392 136.129 250.875C135.562 250.342 134.804 250.075 133.854 250.075C132.904 250.075 132.137 250.342 131.554 250.875C130.987 251.392 130.704 252.067 130.704 252.9V253.75H137.004ZM152.51 261.225C151.077 261.225 149.918 260.842 149.035 260.075C148.168 259.308 147.735 258.3 147.735 257.05C147.735 255.783 148.193 254.767 149.11 254C150.027 253.217 151.235 252.825 152.735 252.825C154.335 252.825 155.652 253.392 156.685 254.525L156.785 254.425C156.602 254.225 156.393 254.017 156.16 253.8V252.75C156.16 251.9 155.893 251.242 155.36 250.775C154.827 250.308 154.068 250.075 153.085 250.075C151.335 250.075 150.085 250.767 149.335 252.15C149.068 252.017 148.843 251.842 148.66 251.625C148.493 251.392 148.41 251.158 148.41 250.925C148.41 250.475 148.635 250.05 149.085 249.65C149.535 249.233 150.127 248.9 150.86 248.65C151.61 248.4 152.393 248.275 153.21 248.275C154.793 248.275 156.035 248.667 156.935 249.45C157.852 250.233 158.31 251.317 158.31 252.7V259.55C158.31 260.133 158.143 260.558 157.81 260.825C157.477 261.092 156.952 261.225 156.235 261.225V260.05C156.585 259.683 156.777 259.467 156.81 259.4L156.71 259.3C155.627 260.583 154.227 261.225 152.51 261.225ZM152.885 259.5C153.918 259.5 154.727 259.283 155.31 258.85C155.91 258.417 156.21 257.817 156.21 257.05C156.21 256.283 155.918 255.675 155.335 255.225C154.752 254.775 153.952 254.55 152.935 254.55C151.985 254.55 151.235 254.775 150.685 255.225C150.152 255.658 149.885 256.267 149.885 257.05C149.885 257.833 150.143 258.442 150.66 258.875C151.193 259.292 151.935 259.5 152.885 259.5ZM173.135 261.225C172.119 261.225 171.21 261.042 170.41 260.675C169.61 260.308 168.985 259.792 168.535 259.125C168.102 258.458 167.885 257.7 167.885 256.85V252.8C167.885 251.917 168.102 251.133 168.535 250.45C168.985 249.767 169.602 249.233 170.385 248.85C171.169 248.467 172.069 248.275 173.085 248.275C174.035 248.275 174.877 248.417 175.61 248.7C176.36 248.967 176.944 249.35 177.36 249.85C177.777 250.35 177.985 250.917 177.985 251.55C177.985 251.967 177.819 252.308 177.485 252.575C177.169 252.825 176.752 252.933 176.235 252.9C176.235 252.1 175.944 251.45 175.36 250.95C174.794 250.45 174.052 250.2 173.135 250.2C172.219 250.2 171.477 250.45 170.91 250.95C170.344 251.433 170.06 252.067 170.06 252.85V256.75C170.06 257.5 170.352 258.117 170.935 258.6C171.519 259.067 172.269 259.3 173.185 259.3C174.102 259.3 174.844 259.05 175.41 258.55C175.994 258.05 176.285 257.408 176.285 256.625C176.819 256.592 177.244 256.7 177.56 256.95C177.894 257.183 178.06 257.517 178.06 257.95C178.06 258.583 177.852 259.15 177.435 259.65C177.019 260.15 176.435 260.542 175.685 260.825C174.935 261.092 174.085 261.225 173.135 261.225ZM185.043 261.225C184.027 261.225 183.102 261.033 182.268 260.65C181.452 260.267 180.81 259.75 180.343 259.1C179.893 258.433 179.668 257.692 179.668 256.875V252.775C179.668 251.942 179.893 251.183 180.343 250.5C180.81 249.817 181.452 249.275 182.268 248.875C183.085 248.475 184.01 248.275 185.043 248.275C186.077 248.275 187.002 248.475 187.818 248.875C188.652 249.275 189.293 249.817 189.743 250.5C190.21 251.183 190.443 251.942 190.443 252.775V256.875C190.443 257.692 190.21 258.433 189.743 259.1C189.277 259.75 188.635 260.267 187.818 260.65C187.002 261.033 186.077 261.225 185.043 261.225ZM185.043 259.35C186.043 259.35 186.835 259.117 187.418 258.65C188.018 258.167 188.318 257.542 188.318 256.775V252.85C188.318 252.05 188.018 251.4 187.418 250.9C186.835 250.4 186.043 250.15 185.043 250.15C184.06 250.15 183.268 250.4 182.668 250.9C182.068 251.4 181.768 252.05 181.768 252.85V256.775C181.768 257.542 182.06 258.167 182.643 258.65C183.243 259.117 184.043 259.35 185.043 259.35ZM193.331 250.125C193.331 248.892 194.022 248.275 195.406 248.275V249.875C195.189 250.108 195.014 250.333 194.881 250.55L194.981 250.65C195.514 249.9 196.081 249.317 196.681 248.9C197.281 248.483 197.972 248.275 198.756 248.275C200.272 248.275 201.314 249 201.881 250.45C202.831 249 204.097 248.275 205.681 248.275C206.864 248.275 207.772 248.675 208.406 249.475C209.056 250.258 209.381 251.292 209.381 252.575V259.625C209.381 260.175 209.197 260.583 208.831 260.85C208.481 261.1 207.947 261.225 207.231 261.225V252.7C207.231 251.9 207.064 251.275 206.731 250.825C206.397 250.375 205.872 250.15 205.156 250.15C204.406 250.15 203.764 250.408 203.231 250.925C202.697 251.425 202.431 252.1 202.431 252.95V259.625C202.431 260.175 202.256 260.583 201.906 260.85C201.556 261.1 201.022 261.225 200.306 261.225V252.7C200.306 251.9 200.139 251.275 199.806 250.825C199.472 250.375 198.947 250.15 198.231 250.15C197.464 250.15 196.814 250.425 196.281 250.975C195.747 251.525 195.481 252.2 195.481 253V259.625C195.481 260.175 195.297 260.583 194.931 260.85C194.581 261.1 194.047 261.225 193.331 261.225V250.125ZM212.642 250.05C212.642 249.5 212.809 249.067 213.142 248.75C213.492 248.433 214.017 248.275 214.717 248.275V249.675L214.217 250.325L214.292 250.425C214.809 249.758 215.4 249.233 216.067 248.85C216.734 248.467 217.525 248.275 218.442 248.275C219.875 248.275 221.034 248.675 221.917 249.475C222.8 250.258 223.242 251.308 223.242 252.625V256.9C223.242 258.217 222.784 259.267 221.867 260.05C220.95 260.833 219.759 261.225 218.292 261.225C217.509 261.225 216.784 261.067 216.117 260.75C215.467 260.417 214.892 259.983 214.392 259.45L214.317 259.575C214.434 259.742 214.609 259.925 214.842 260.125V264.525C214.842 265.658 214.109 266.225 212.642 266.225V250.05ZM217.967 259.3C218.95 259.3 219.717 259.083 220.267 258.65C220.817 258.2 221.092 257.583 221.092 256.8V252.725C221.092 251.908 220.817 251.283 220.267 250.85C219.717 250.417 218.942 250.2 217.942 250.2C217.059 250.2 216.317 250.433 215.717 250.9C215.117 251.35 214.817 251.917 214.817 252.6V256.925C214.817 257.592 215.1 258.158 215.667 258.625C216.234 259.075 217 259.3 217.967 259.3ZM230.11 261.225C228.893 261.225 227.985 260.892 227.385 260.225C226.785 259.542 226.485 258.65 226.485 257.55V244.875C226.485 244.325 226.66 243.925 227.01 243.675C227.377 243.408 227.927 243.275 228.66 243.275V257.475C228.66 258.125 228.793 258.592 229.06 258.875C229.327 259.158 229.768 259.3 230.385 259.3C231.002 259.3 231.568 259.15 232.085 258.85C232.302 259.1 232.41 259.392 232.41 259.725C232.41 260.125 232.202 260.475 231.785 260.775C231.368 261.075 230.81 261.225 230.11 261.225ZM239.42 261.225C238.403 261.225 237.495 261.033 236.695 260.65C235.895 260.25 235.27 259.708 234.82 259.025C234.37 258.325 234.145 257.542 234.145 256.675V252.975C234.145 252.092 234.378 251.292 234.845 250.575C235.328 249.858 235.97 249.3 236.77 248.9C237.587 248.483 238.47 248.275 239.42 248.275C240.37 248.275 241.237 248.475 242.02 248.875C242.82 249.275 243.445 249.825 243.895 250.525C244.362 251.225 244.595 252.017 244.595 252.9V254.5C244.595 254.767 244.495 254.992 244.295 255.175C244.095 255.358 243.853 255.45 243.57 255.45H236.27V256.575C236.27 257.425 236.537 258.108 237.07 258.625C237.62 259.142 238.403 259.4 239.42 259.4C240.437 259.4 241.212 259.175 241.745 258.725C242.278 258.275 242.545 257.667 242.545 256.9C243.045 256.867 243.462 256.967 243.795 257.2C244.145 257.417 244.32 257.742 244.32 258.175C244.32 258.708 244.087 259.208 243.62 259.675C243.17 260.142 242.57 260.517 241.82 260.8C241.07 261.083 240.27 261.225 239.42 261.225ZM242.57 253.75V252.9C242.57 252.067 242.278 251.392 241.695 250.875C241.128 250.342 240.37 250.075 239.42 250.075C238.47 250.075 237.703 250.342 237.12 250.875C236.553 251.392 236.27 252.067 236.27 252.9V253.75H242.57ZM251.821 261.225C250.638 261.225 249.755 260.892 249.171 260.225C248.588 259.542 248.296 258.65 248.296 257.55V250.25H245.971C245.971 249.683 246.096 249.25 246.346 248.95C246.596 248.65 246.938 248.5 247.371 248.5H248.321V246.125C248.321 245.575 248.496 245.175 248.846 244.925C249.213 244.658 249.755 244.525 250.471 244.525V248.5H253.796C253.796 249.667 253.271 250.25 252.221 250.25H250.496V257.475C250.496 258.142 250.613 258.617 250.846 258.9C251.096 259.167 251.538 259.3 252.171 259.3C252.755 259.3 253.305 259.15 253.821 258.85C254.038 259.067 254.146 259.358 254.146 259.725C254.146 260.125 253.938 260.475 253.521 260.775C253.105 261.075 252.538 261.225 251.821 261.225ZM261.808 261.225C260.791 261.225 259.883 261.033 259.083 260.65C258.283 260.25 257.658 259.708 257.208 259.025C256.758 258.325 256.533 257.542 256.533 256.675V252.975C256.533 252.092 256.766 251.292 257.233 250.575C257.716 249.858 258.358 249.3 259.158 248.9C259.974 248.483 260.858 248.275 261.808 248.275C262.758 248.275 263.624 248.475 264.408 248.875C265.208 249.275 265.833 249.825 266.283 250.525C266.749 251.225 266.983 252.017 266.983 252.9V254.5C266.983 254.767 266.883 254.992 266.683 255.175C266.483 255.358 266.241 255.45 265.958 255.45H258.658V256.575C258.658 257.425 258.924 258.108 259.458 258.625C260.008 259.142 260.791 259.4 261.808 259.4C262.824 259.4 263.599 259.175 264.133 258.725C264.666 258.275 264.933 257.667 264.933 256.9C265.433 256.867 265.849 256.967 266.183 257.2C266.533 257.417 266.708 257.742 266.708 258.175C266.708 258.708 266.474 259.208 266.008 259.675C265.558 260.142 264.958 260.517 264.208 260.8C263.458 261.083 262.658 261.225 261.808 261.225ZM264.958 253.75V252.9C264.958 252.067 264.666 251.392 264.083 250.875C263.516 250.342 262.758 250.075 261.808 250.075C260.858 250.075 260.091 250.342 259.508 250.875C258.941 251.392 258.658 252.067 258.658 252.9V253.75H264.958ZM269.594 264.5C270.194 263.95 270.644 263.383 270.944 262.8C271.244 262.217 271.394 261.65 271.394 261.1C271.227 261.183 271.035 261.225 270.819 261.225C270.352 261.225 269.969 261.075 269.669 260.775C269.385 260.458 269.244 260.058 269.244 259.575C269.244 259.042 269.41 258.608 269.744 258.275C270.094 257.942 270.527 257.775 271.044 257.775C271.594 257.775 272.035 257.958 272.369 258.325C272.719 258.675 272.894 259.117 272.894 259.65C272.894 260.783 272.719 261.725 272.369 262.475C272.019 263.225 271.51 263.883 270.844 264.45C270.677 264.583 270.444 264.65 270.144 264.65C269.91 264.65 269.727 264.6 269.594 264.5ZM283.422 250.25H281.347C281.347 249.083 281.781 248.5 282.647 248.5H283.422V246.975C283.422 245.892 283.731 245.008 284.347 244.325C284.964 243.625 285.889 243.275 287.122 243.275C287.822 243.275 288.364 243.433 288.747 243.75C289.131 244.05 289.322 244.4 289.322 244.8C289.322 245.15 289.214 245.433 288.997 245.65C288.481 245.35 287.922 245.2 287.322 245.2C286.706 245.2 286.264 245.35 285.997 245.65C285.731 245.95 285.597 246.425 285.597 247.075V248.5H288.722C288.722 249.1 288.589 249.542 288.322 249.825C288.072 250.108 287.681 250.25 287.147 250.25H285.597V259.625C285.597 260.175 285.414 260.583 285.047 260.85C284.697 261.1 284.156 261.225 283.422 261.225V250.25ZM296.241 250.2C295.308 250.2 294.533 250.483 293.916 251.05C293.299 251.6 292.991 252.275 292.991 253.075V259.625C292.991 260.175 292.808 260.583 292.441 260.85C292.091 261.1 291.549 261.225 290.816 261.225V250.125C290.816 248.892 291.516 248.275 292.916 248.275V249.8C292.649 250.083 292.466 250.333 292.366 250.55L292.466 250.65C293.533 249.067 294.866 248.275 296.466 248.275C297.066 248.275 297.524 248.425 297.841 248.725C298.158 249.008 298.316 249.358 298.316 249.775C298.316 250.075 298.241 250.342 298.091 250.575C297.624 250.325 297.008 250.2 296.241 250.2ZM304.85 261.225C303.833 261.225 302.925 261.033 302.125 260.65C301.325 260.25 300.7 259.708 300.25 259.025C299.8 258.325 299.575 257.542 299.575 256.675V252.975C299.575 252.092 299.808 251.292 300.275 250.575C300.758 249.858 301.4 249.3 302.2 248.9C303.016 248.483 303.9 248.275 304.85 248.275C305.8 248.275 306.666 248.475 307.45 248.875C308.25 249.275 308.875 249.825 309.325 250.525C309.791 251.225 310.025 252.017 310.025 252.9V254.5C310.025 254.767 309.925 254.992 309.725 255.175C309.525 255.358 309.283 255.45 309 255.45H301.7V256.575C301.7 257.425 301.966 258.108 302.5 258.625C303.05 259.142 303.833 259.4 304.85 259.4C305.866 259.4 306.641 259.175 307.175 258.725C307.708 258.275 307.975 257.667 307.975 256.9C308.475 256.867 308.891 256.967 309.225 257.2C309.575 257.417 309.75 257.742 309.75 258.175C309.75 258.708 309.516 259.208 309.05 259.675C308.6 260.142 308 260.517 307.25 260.8C306.5 261.083 305.7 261.225 304.85 261.225ZM308 253.75V252.9C308 252.067 307.708 251.392 307.125 250.875C306.558 250.342 305.8 250.075 304.85 250.075C303.9 250.075 303.133 250.342 302.55 250.875C301.983 251.392 301.7 252.067 301.7 252.9V253.75H308ZM317.936 261.225C316.919 261.225 316.011 261.033 315.211 260.65C314.411 260.25 313.786 259.708 313.336 259.025C312.886 258.325 312.661 257.542 312.661 256.675V252.975C312.661 252.092 312.894 251.292 313.361 250.575C313.844 249.858 314.486 249.3 315.286 248.9C316.102 248.483 316.986 248.275 317.936 248.275C318.886 248.275 319.752 248.475 320.536 248.875C321.336 249.275 321.961 249.825 322.411 250.525C322.877 251.225 323.111 252.017 323.111 252.9V254.5C323.111 254.767 323.011 254.992 322.811 255.175C322.611 255.358 322.369 255.45 322.086 255.45H314.786V256.575C314.786 257.425 315.052 258.108 315.586 258.625C316.136 259.142 316.919 259.4 317.936 259.4C318.952 259.4 319.727 259.175 320.261 258.725C320.794 258.275 321.061 257.667 321.061 256.9C321.561 256.867 321.977 256.967 322.311 257.2C322.661 257.417 322.836 257.742 322.836 258.175C322.836 258.708 322.602 259.208 322.136 259.675C321.686 260.142 321.086 260.517 320.336 260.8C319.586 261.083 318.786 261.225 317.936 261.225ZM321.086 253.75V252.9C321.086 252.067 320.794 251.392 320.211 250.875C319.644 250.342 318.886 250.075 317.936 250.075C316.986 250.075 316.219 250.342 315.636 250.875C315.069 251.392 314.786 252.067 314.786 252.9V253.75H321.086ZM334.092 246.4C333.625 246.4 333.234 246.25 332.917 245.95C332.6 245.65 332.442 245.275 332.442 244.825C332.442 244.375 332.6 244.008 332.917 243.725C333.234 243.425 333.625 243.275 334.092 243.275C334.542 243.275 334.925 243.425 335.242 243.725C335.559 244.008 335.717 244.375 335.717 244.825C335.717 245.275 335.559 245.65 335.242 245.95C334.925 246.25 334.542 246.4 334.092 246.4ZM332.992 249.875C332.992 249.325 333.167 248.925 333.517 248.675C333.884 248.408 334.434 248.275 335.167 248.275V259.625C335.167 260.175 334.984 260.583 334.617 260.85C334.267 261.1 333.725 261.225 332.992 261.225V249.875ZM339.229 250.125C339.229 248.892 339.929 248.275 341.329 248.275V249.875C341.179 250.025 341.004 250.25 340.804 250.55L340.904 250.65C341.404 249.95 342.054 249.383 342.854 248.95C343.654 248.5 344.521 248.275 345.454 248.275C346.804 248.275 347.871 248.675 348.654 249.475C349.437 250.275 349.829 251.308 349.829 252.575V259.625C349.829 260.175 349.646 260.583 349.279 260.85C348.929 261.1 348.387 261.225 347.654 261.225V252.8C347.654 252 347.429 251.367 346.979 250.9C346.529 250.433 345.846 250.2 344.929 250.2C344.312 250.2 343.729 250.333 343.179 250.6C342.646 250.85 342.212 251.2 341.879 251.65C341.562 252.083 341.404 252.558 341.404 253.075V259.625C341.404 260.175 341.221 260.583 340.854 260.85C340.504 261.1 339.962 261.225 339.229 261.225V250.125ZM357.597 261.225C356.747 261.225 355.947 261.1 355.197 260.85C354.447 260.583 353.838 260.208 353.372 259.725C352.922 259.242 352.697 258.675 352.697 258.025C352.697 257.225 353.18 256.792 354.147 256.725C354.313 257.658 354.705 258.35 355.322 258.8C355.955 259.233 356.755 259.45 357.722 259.45C358.688 259.45 359.438 259.308 359.972 259.025C360.505 258.742 360.772 258.308 360.772 257.725C360.772 257.308 360.663 256.975 360.447 256.725C360.23 256.458 359.88 256.233 359.397 256.05C358.93 255.85 358.255 255.658 357.372 255.475C356.272 255.225 355.397 254.958 354.747 254.675C354.097 254.392 353.597 254.017 353.247 253.55C352.913 253.083 352.747 252.467 352.747 251.7C352.747 251.05 352.947 250.467 353.347 249.95C353.747 249.417 354.297 249.008 354.997 248.725C355.713 248.425 356.522 248.275 357.422 248.275C358.255 248.275 359.038 248.392 359.772 248.625C360.522 248.858 361.122 249.192 361.572 249.625C362.038 250.058 362.272 250.558 362.272 251.125C362.272 251.508 362.122 251.817 361.822 252.05C361.522 252.267 361.105 252.392 360.572 252.425C360.522 251.692 360.222 251.117 359.672 250.7C359.138 250.267 358.388 250.05 357.422 250.05C356.622 250.05 355.988 250.2 355.522 250.5C355.055 250.8 354.822 251.2 354.822 251.7C354.822 252.233 355.038 252.633 355.472 252.9C355.922 253.15 356.68 253.392 357.747 253.625C359.497 253.975 360.78 254.458 361.597 255.075C362.43 255.675 362.847 256.533 362.847 257.65C362.847 258.783 362.388 259.667 361.472 260.3C360.555 260.917 359.263 261.225 357.597 261.225ZM369.57 261.225C368.387 261.225 367.504 260.892 366.92 260.225C366.337 259.542 366.045 258.65 366.045 257.55V250.25H363.72C363.72 249.683 363.845 249.25 364.095 248.95C364.345 248.65 364.687 248.5 365.12 248.5H366.07V246.125C366.07 245.575 366.245 245.175 366.595 244.925C366.962 244.658 367.504 244.525 368.22 244.525V248.5H371.545C371.545 249.667 371.02 250.25 369.97 250.25H368.245V257.475C368.245 258.142 368.362 258.617 368.595 258.9C368.845 259.167 369.287 259.3 369.92 259.3C370.504 259.3 371.054 259.15 371.57 258.85C371.787 259.067 371.895 259.358 371.895 259.725C371.895 260.125 371.687 260.475 371.27 260.775C370.854 261.075 370.287 261.225 369.57 261.225ZM378.316 261.225C376.882 261.225 375.724 260.842 374.841 260.075C373.974 259.308 373.541 258.3 373.541 257.05C373.541 255.783 373.999 254.767 374.916 254C375.832 253.217 377.041 252.825 378.541 252.825C380.141 252.825 381.457 253.392 382.491 254.525L382.591 254.425C382.407 254.225 382.199 254.017 381.966 253.8V252.75C381.966 251.9 381.699 251.242 381.166 250.775C380.632 250.308 379.874 250.075 378.891 250.075C377.141 250.075 375.891 250.767 375.141 252.15C374.874 252.017 374.649 251.842 374.466 251.625C374.299 251.392 374.216 251.158 374.216 250.925C374.216 250.475 374.441 250.05 374.891 249.65C375.341 249.233 375.932 248.9 376.666 248.65C377.416 248.4 378.199 248.275 379.016 248.275C380.599 248.275 381.841 248.667 382.741 249.45C383.657 250.233 384.116 251.317 384.116 252.7V259.55C384.116 260.133 383.949 260.558 383.616 260.825C383.282 261.092 382.757 261.225 382.041 261.225V260.05C382.391 259.683 382.582 259.467 382.616 259.4L382.516 259.3C381.432 260.583 380.032 261.225 378.316 261.225ZM378.691 259.5C379.724 259.5 380.532 259.283 381.116 258.85C381.716 258.417 382.016 257.817 382.016 257.05C382.016 256.283 381.724 255.675 381.141 255.225C380.557 254.775 379.757 254.55 378.741 254.55C377.791 254.55 377.041 254.775 376.491 255.225C375.957 255.658 375.691 256.267 375.691 257.05C375.691 257.833 375.949 258.442 376.466 258.875C376.999 259.292 377.741 259.5 378.691 259.5ZM391.121 261.225C389.904 261.225 388.996 260.892 388.396 260.225C387.796 259.542 387.496 258.65 387.496 257.55V244.875C387.496 244.325 387.671 243.925 388.021 243.675C388.387 243.408 388.937 243.275 389.671 243.275V257.475C389.671 258.125 389.804 258.592 390.071 258.875C390.337 259.158 390.779 259.3 391.396 259.3C392.012 259.3 392.579 259.15 393.096 258.85C393.312 259.1 393.421 259.392 393.421 259.725C393.421 260.125 393.212 260.475 392.796 260.775C392.379 261.075 391.821 261.225 391.121 261.225ZM399.031 261.225C397.814 261.225 396.906 260.892 396.306 260.225C395.706 259.542 395.406 258.65 395.406 257.55V244.875C395.406 244.325 395.581 243.925 395.931 243.675C396.297 243.408 396.847 243.275 397.581 243.275V257.475C397.581 258.125 397.714 258.592 397.981 258.875C398.247 259.158 398.689 259.3 399.306 259.3C399.922 259.3 400.489 259.15 401.006 258.85C401.222 259.1 401.331 259.392 401.331 259.725C401.331 260.125 401.122 260.475 400.706 260.775C400.289 261.075 399.731 261.225 399.031 261.225ZM407.466 261.225C406.033 261.225 404.874 260.842 403.991 260.075C403.124 259.308 402.691 258.3 402.691 257.05C402.691 255.783 403.149 254.767 404.066 254C404.983 253.217 406.191 252.825 407.691 252.825C409.291 252.825 410.608 253.392 411.641 254.525L411.741 254.425C411.558 254.225 411.349 254.017 411.116 253.8V252.75C411.116 251.9 410.849 251.242 410.316 250.775C409.783 250.308 409.024 250.075 408.041 250.075C406.291 250.075 405.041 250.767 404.291 252.15C404.024 252.017 403.799 251.842 403.616 251.625C403.449 251.392 403.366 251.158 403.366 250.925C403.366 250.475 403.591 250.05 404.041 249.65C404.491 249.233 405.083 248.9 405.816 248.65C406.566 248.4 407.349 248.275 408.166 248.275C409.749 248.275 410.991 248.667 411.891 249.45C412.808 250.233 413.266 251.317 413.266 252.7V259.55C413.266 260.133 413.099 260.558 412.766 260.825C412.433 261.092 411.908 261.225 411.191 261.225V260.05C411.541 259.683 411.733 259.467 411.766 259.4L411.666 259.3C410.583 260.583 409.183 261.225 407.466 261.225ZM407.841 259.5C408.874 259.5 409.683 259.283 410.266 258.85C410.866 258.417 411.166 257.817 411.166 257.05C411.166 256.283 410.874 255.675 410.291 255.225C409.708 254.775 408.908 254.55 407.891 254.55C406.941 254.55 406.191 254.775 405.641 255.225C405.108 255.658 404.841 256.267 404.841 257.05C404.841 257.833 405.099 258.442 405.616 258.875C406.149 259.292 406.891 259.5 407.841 259.5ZM420.498 261.225C419.315 261.225 418.431 260.892 417.848 260.225C417.265 259.542 416.973 258.65 416.973 257.55V250.25H414.648C414.648 249.683 414.773 249.25 415.023 248.95C415.273 248.65 415.615 248.5 416.048 248.5H416.998V246.125C416.998 245.575 417.173 245.175 417.523 244.925C417.89 244.658 418.431 244.525 419.148 244.525V248.5H422.473C422.473 249.667 421.948 250.25 420.898 250.25H419.173V257.475C419.173 258.142 419.29 258.617 419.523 258.9C419.773 259.167 420.215 259.3 420.848 259.3C421.431 259.3 421.981 259.15 422.498 258.85C422.715 259.067 422.823 259.358 422.823 259.725C422.823 260.125 422.615 260.475 422.198 260.775C421.781 261.075 421.215 261.225 420.498 261.225ZM427.109 246.4C426.643 246.4 426.251 246.25 425.934 245.95C425.618 245.65 425.459 245.275 425.459 244.825C425.459 244.375 425.618 244.008 425.934 243.725C426.251 243.425 426.643 243.275 427.109 243.275C427.559 243.275 427.943 243.425 428.259 243.725C428.576 244.008 428.734 244.375 428.734 244.825C428.734 245.275 428.576 245.65 428.259 245.95C427.943 246.25 427.559 246.4 427.109 246.4ZM426.009 249.875C426.009 249.325 426.184 248.925 426.534 248.675C426.901 248.408 427.451 248.275 428.184 248.275V259.625C428.184 260.175 428.001 260.583 427.634 260.85C427.284 261.1 426.743 261.225 426.009 261.225V249.875ZM436.362 261.225C435.345 261.225 434.42 261.033 433.587 260.65C432.77 260.267 432.128 259.75 431.662 259.1C431.212 258.433 430.987 257.692 430.987 256.875V252.775C430.987 251.942 431.212 251.183 431.662 250.5C432.128 249.817 432.77 249.275 433.587 248.875C434.403 248.475 435.328 248.275 436.362 248.275C437.395 248.275 438.32 248.475 439.137 248.875C439.97 249.275 440.612 249.817 441.062 250.5C441.528 251.183 441.762 251.942 441.762 252.775V256.875C441.762 257.692 441.528 258.433 441.062 259.1C440.595 259.75 439.953 260.267 439.137 260.65C438.32 261.033 437.395 261.225 436.362 261.225ZM436.362 259.35C437.362 259.35 438.153 259.117 438.737 258.65C439.337 258.167 439.637 257.542 439.637 256.775V252.85C439.637 252.05 439.337 251.4 438.737 250.9C438.153 250.4 437.362 250.15 436.362 250.15C435.378 250.15 434.587 250.4 433.987 250.9C433.387 251.4 433.087 252.05 433.087 252.85V256.775C433.087 257.542 433.378 258.167 433.962 258.65C434.562 259.117 435.362 259.35 436.362 259.35ZM444.649 250.125C444.649 248.892 445.349 248.275 446.749 248.275V249.875C446.599 250.025 446.424 250.25 446.224 250.55L446.324 250.65C446.824 249.95 447.474 249.383 448.274 248.95C449.074 248.5 449.941 248.275 450.874 248.275C452.224 248.275 453.291 248.675 454.074 249.475C454.857 250.275 455.249 251.308 455.249 252.575V259.625C455.249 260.175 455.066 260.583 454.699 260.85C454.349 261.1 453.807 261.225 453.074 261.225V252.8C453.074 252 452.849 251.367 452.399 250.9C451.949 250.433 451.266 250.2 450.349 250.2C449.732 250.2 449.149 250.333 448.599 250.6C448.066 250.85 447.632 251.2 447.299 251.65C446.982 252.083 446.824 252.558 446.824 253.075V259.625C446.824 260.175 446.641 260.583 446.274 260.85C445.924 261.1 445.382 261.225 444.649 261.225V250.125ZM469.912 266.225C469.045 266.225 468.237 266.083 467.487 265.8C466.737 265.517 466.145 265.133 465.712 264.65C465.279 264.183 465.062 263.675 465.062 263.125C465.062 262.692 465.204 262.375 465.487 262.175C465.787 261.975 466.187 261.875 466.687 261.875C466.72 262.658 467.02 263.275 467.587 263.725C468.17 264.192 468.945 264.425 469.912 264.425C472.045 264.425 473.112 263.392 473.112 261.325V259.875C473.345 259.675 473.52 259.492 473.637 259.325L473.562 259.2C473.079 259.717 472.47 260.142 471.737 260.475C471.02 260.808 470.295 260.975 469.562 260.975C468.129 260.975 466.954 260.583 466.037 259.8C465.137 259 464.687 257.95 464.687 256.65V252.625C464.687 251.775 464.895 251.025 465.312 250.375C465.745 249.708 466.329 249.192 467.062 248.825C467.812 248.458 468.637 248.275 469.537 248.275C471.17 248.275 472.537 248.992 473.637 250.425L473.737 250.325L473.237 249.7C473.237 249.233 473.395 248.883 473.712 248.65C474.045 248.4 474.579 248.275 475.312 248.275V261.1C475.312 262.1 475.079 262.983 474.612 263.75C474.162 264.533 473.529 265.142 472.712 265.575C471.895 266.008 470.962 266.225 469.912 266.225ZM469.962 259.075C470.845 259.075 471.595 258.842 472.212 258.375C472.829 257.892 473.137 257.325 473.137 256.675V252.6C473.137 251.917 472.829 251.342 472.212 250.875C471.612 250.408 470.879 250.175 470.012 250.175C469.012 250.175 468.237 250.4 467.687 250.85C467.137 251.283 466.862 251.908 466.862 252.725V256.55C466.862 257.333 467.129 257.95 467.662 258.4C468.212 258.85 468.979 259.075 469.962 259.075ZM489.154 259.375C489.154 260.608 488.454 261.225 487.054 261.225V259.625C487.204 259.475 487.379 259.25 487.579 258.95L487.479 258.85C486.979 259.567 486.346 260.142 485.579 260.575C484.829 261.008 484.004 261.225 483.104 261.225C482.204 261.225 481.404 261.033 480.704 260.65C480.021 260.267 479.488 259.733 479.104 259.05C478.738 258.367 478.554 257.6 478.554 256.75V249.875C478.554 249.325 478.738 248.925 479.104 248.675C479.471 248.408 480.021 248.275 480.754 248.275V256.65C480.754 257.45 480.988 258.092 481.454 258.575C481.938 259.058 482.646 259.3 483.579 259.3C484.196 259.3 484.763 259.175 485.279 258.925C485.796 258.658 486.204 258.308 486.504 257.875C486.821 257.425 486.979 256.942 486.979 256.425V249.875C486.979 249.325 487.154 248.925 487.504 248.675C487.871 248.408 488.421 248.275 489.154 248.275V259.375ZM494.297 246.4C493.83 246.4 493.439 246.25 493.122 245.95C492.805 245.65 492.647 245.275 492.647 244.825C492.647 244.375 492.805 244.008 493.122 243.725C493.439 243.425 493.83 243.275 494.297 243.275C494.747 243.275 495.13 243.425 495.447 243.725C495.764 244.008 495.922 244.375 495.922 244.825C495.922 245.275 495.764 245.65 495.447 245.95C495.13 246.25 494.747 246.4 494.297 246.4ZM493.197 249.875C493.197 249.325 493.372 248.925 493.722 248.675C494.089 248.408 494.639 248.275 495.372 248.275V259.625C495.372 260.175 495.189 260.583 494.822 260.85C494.472 261.1 493.93 261.225 493.197 261.225V249.875ZM504.009 261.225C502.576 261.225 501.409 260.833 500.509 260.05C499.626 259.25 499.184 258.192 499.184 256.875V252.6C499.184 251.75 499.392 251 499.809 250.35C500.226 249.683 500.801 249.175 501.534 248.825C502.284 248.458 503.142 248.275 504.109 248.275C504.892 248.275 505.617 248.442 506.284 248.775C506.951 249.092 507.534 249.517 508.034 250.05L508.109 249.925C507.992 249.758 507.817 249.575 507.584 249.375V244.975C507.584 244.425 507.767 244.008 508.134 243.725C508.501 243.425 509.051 243.275 509.784 243.275V259.45C509.784 260 509.617 260.433 509.284 260.75C508.967 261.067 508.451 261.225 507.734 261.225V259.825C507.967 259.525 508.126 259.308 508.209 259.175L508.134 259.075C507.601 259.742 507.009 260.267 506.359 260.65C505.709 261.033 504.926 261.225 504.009 261.225ZM504.484 259.3C505.367 259.3 506.109 259.075 506.709 258.625C507.309 258.158 507.609 257.583 507.609 256.9V252.575C507.609 251.908 507.326 251.35 506.759 250.9C506.192 250.433 505.426 250.2 504.459 250.2C503.476 250.2 502.709 250.425 502.159 250.875C501.626 251.308 501.359 251.917 501.359 252.7V256.775C501.359 257.592 501.626 258.217 502.159 258.65C502.709 259.083 503.484 259.3 504.484 259.3ZM518.302 261.225C517.285 261.225 516.377 261.033 515.577 260.65C514.777 260.25 514.152 259.708 513.702 259.025C513.252 258.325 513.027 257.542 513.027 256.675V252.975C513.027 252.092 513.26 251.292 513.727 250.575C514.21 249.858 514.852 249.3 515.652 248.9C516.469 248.483 517.352 248.275 518.302 248.275C519.252 248.275 520.119 248.475 520.902 248.875C521.702 249.275 522.327 249.825 522.777 250.525C523.244 251.225 523.477 252.017 523.477 252.9V254.5C523.477 254.767 523.377 254.992 523.177 255.175C522.977 255.358 522.735 255.45 522.452 255.45H515.152V256.575C515.152 257.425 515.419 258.108 515.952 258.625C516.502 259.142 517.285 259.4 518.302 259.4C519.319 259.4 520.094 259.175 520.627 258.725C521.16 258.275 521.427 257.667 521.427 256.9C521.927 256.867 522.344 256.967 522.677 257.2C523.027 257.417 523.202 257.742 523.202 258.175C523.202 258.708 522.969 259.208 522.502 259.675C522.052 260.142 521.452 260.517 520.702 260.8C519.952 261.083 519.152 261.225 518.302 261.225ZM521.452 253.75V252.9C521.452 252.067 521.16 251.392 520.577 250.875C520.01 250.342 519.252 250.075 518.302 250.075C517.352 250.075 516.585 250.342 516.002 250.875C515.435 251.392 515.152 252.067 515.152 252.9V253.75H521.452ZM167.956 283.25H165.881C165.881 282.083 166.314 281.5 167.181 281.5H167.956V279.975C167.956 278.892 168.264 278.008 168.881 277.325C169.498 276.625 170.423 276.275 171.656 276.275C172.356 276.275 172.898 276.433 173.281 276.75C173.664 277.05 173.856 277.4 173.856 277.8C173.856 278.15 173.748 278.433 173.531 278.65C173.014 278.35 172.456 278.2 171.856 278.2C171.239 278.2 170.798 278.35 170.531 278.65C170.264 278.95 170.131 279.425 170.131 280.075V281.5H173.256C173.256 282.1 173.123 282.542 172.856 282.825C172.606 283.108 172.214 283.25 171.681 283.25H170.131V292.625C170.131 293.175 169.948 293.583 169.581 293.85C169.231 294.1 168.689 294.225 167.956 294.225V283.25ZM180.775 283.2C179.841 283.2 179.066 283.483 178.45 284.05C177.833 284.6 177.525 285.275 177.525 286.075V292.625C177.525 293.175 177.341 293.583 176.975 293.85C176.625 294.1 176.083 294.225 175.35 294.225V283.125C175.35 281.892 176.05 281.275 177.45 281.275V282.8C177.183 283.083 177 283.333 176.9 283.55L177 283.65C178.066 282.067 179.4 281.275 181 281.275C181.6 281.275 182.058 281.425 182.375 281.725C182.691 282.008 182.85 282.358 182.85 282.775C182.85 283.075 182.775 283.342 182.625 283.575C182.158 283.325 181.541 283.2 180.775 283.2ZM188.596 294.225C187.579 294.225 186.654 294.033 185.821 293.65C185.004 293.267 184.362 292.75 183.896 292.1C183.446 291.433 183.221 290.692 183.221 289.875V285.775C183.221 284.942 183.446 284.183 183.896 283.5C184.362 282.817 185.004 282.275 185.821 281.875C186.637 281.475 187.562 281.275 188.596 281.275C189.629 281.275 190.554 281.475 191.371 281.875C192.204 282.275 192.846 282.817 193.296 283.5C193.762 284.183 193.996 284.942 193.996 285.775V289.875C193.996 290.692 193.762 291.433 193.296 292.1C192.829 292.75 192.187 293.267 191.371 293.65C190.554 294.033 189.629 294.225 188.596 294.225ZM188.596 292.35C189.596 292.35 190.387 292.117 190.971 291.65C191.571 291.167 191.871 290.542 191.871 289.775V285.85C191.871 285.05 191.571 284.4 190.971 283.9C190.387 283.4 189.596 283.15 188.596 283.15C187.612 283.15 186.821 283.4 186.221 283.9C185.621 284.4 185.321 285.05 185.321 285.85V289.775C185.321 290.542 185.612 291.167 186.196 291.65C186.796 292.117 187.596 292.35 188.596 292.35ZM196.883 283.125C196.883 281.892 197.574 281.275 198.958 281.275V282.875C198.741 283.108 198.566 283.333 198.433 283.55L198.533 283.65C199.066 282.9 199.633 282.317 200.233 281.9C200.833 281.483 201.524 281.275 202.308 281.275C203.824 281.275 204.866 282 205.433 283.45C206.383 282 207.649 281.275 209.233 281.275C210.416 281.275 211.324 281.675 211.958 282.475C212.608 283.258 212.933 284.292 212.933 285.575V292.625C212.933 293.175 212.749 293.583 212.383 293.85C212.033 294.1 211.499 294.225 210.783 294.225V285.7C210.783 284.9 210.616 284.275 210.283 283.825C209.949 283.375 209.424 283.15 208.708 283.15C207.958 283.15 207.316 283.408 206.783 283.925C206.249 284.425 205.983 285.1 205.983 285.95V292.625C205.983 293.175 205.808 293.583 205.458 293.85C205.108 294.1 204.574 294.225 203.858 294.225V285.7C203.858 284.9 203.691 284.275 203.358 283.825C203.024 283.375 202.499 283.15 201.783 283.15C201.016 283.15 200.366 283.425 199.833 283.975C199.299 284.525 199.033 285.2 199.033 286V292.625C199.033 293.175 198.849 293.583 198.483 293.85C198.133 294.1 197.599 294.225 196.883 294.225V283.125ZM227.165 294.225C226.315 294.225 225.515 294.1 224.765 293.85C224.015 293.583 223.406 293.208 222.94 292.725C222.49 292.242 222.265 291.675 222.265 291.025C222.265 290.225 222.748 289.792 223.715 289.725C223.881 290.658 224.273 291.35 224.89 291.8C225.523 292.233 226.323 292.45 227.29 292.45C228.256 292.45 229.006 292.308 229.54 292.025C230.073 291.742 230.34 291.308 230.34 290.725C230.34 290.308 230.231 289.975 230.015 289.725C229.798 289.458 229.448 289.233 228.965 289.05C228.498 288.85 227.823 288.658 226.94 288.475C225.84 288.225 224.965 287.958 224.315 287.675C223.665 287.392 223.165 287.017 222.815 286.55C222.481 286.083 222.315 285.467 222.315 284.7C222.315 284.05 222.515 283.467 222.915 282.95C223.315 282.417 223.865 282.008 224.565 281.725C225.281 281.425 226.09 281.275 226.99 281.275C227.823 281.275 228.606 281.392 229.34 281.625C230.09 281.858 230.69 282.192 231.14 282.625C231.606 283.058 231.84 283.558 231.84 284.125C231.84 284.508 231.69 284.817 231.39 285.05C231.09 285.267 230.673 285.392 230.14 285.425C230.09 284.692 229.79 284.117 229.24 283.7C228.706 283.267 227.956 283.05 226.99 283.05C226.19 283.05 225.556 283.2 225.09 283.5C224.623 283.8 224.39 284.2 224.39 284.7C224.39 285.233 224.606 285.633 225.04 285.9C225.49 286.15 226.248 286.392 227.315 286.625C229.065 286.975 230.348 287.458 231.165 288.075C231.998 288.675 232.415 289.533 232.415 290.65C232.415 291.783 231.956 292.667 231.04 293.3C230.123 293.917 228.831 294.225 227.165 294.225ZM239.138 294.225C237.955 294.225 237.071 293.892 236.488 293.225C235.905 292.542 235.613 291.65 235.613 290.55V283.25H233.288C233.288 282.683 233.413 282.25 233.663 281.95C233.913 281.65 234.255 281.5 234.688 281.5H235.638V279.125C235.638 278.575 235.813 278.175 236.163 277.925C236.53 277.658 237.071 277.525 237.788 277.525V281.5H241.113C241.113 282.667 240.588 283.25 239.538 283.25H237.813V290.475C237.813 291.142 237.93 291.617 238.163 291.9C238.413 292.167 238.855 292.3 239.488 292.3C240.071 292.3 240.621 292.15 241.138 291.85C241.355 292.067 241.463 292.358 241.463 292.725C241.463 293.125 241.255 293.475 240.838 293.775C240.421 294.075 239.855 294.225 239.138 294.225ZM247.883 294.225C246.45 294.225 245.292 293.842 244.408 293.075C243.542 292.308 243.108 291.3 243.108 290.05C243.108 288.783 243.567 287.767 244.483 287C245.4 286.217 246.608 285.825 248.108 285.825C249.708 285.825 251.025 286.392 252.058 287.525L252.158 287.425C251.975 287.225 251.767 287.017 251.533 286.8V285.75C251.533 284.9 251.267 284.242 250.733 283.775C250.2 283.308 249.442 283.075 248.458 283.075C246.708 283.075 245.458 283.767 244.708 285.15C244.442 285.017 244.217 284.842 244.033 284.625C243.867 284.392 243.783 284.158 243.783 283.925C243.783 283.475 244.008 283.05 244.458 282.65C244.908 282.233 245.5 281.9 246.233 281.65C246.983 281.4 247.767 281.275 248.583 281.275C250.167 281.275 251.408 281.667 252.308 282.45C253.225 283.233 253.683 284.317 253.683 285.7V292.55C253.683 293.133 253.517 293.558 253.183 293.825C252.85 294.092 252.325 294.225 251.608 294.225V293.05C251.958 292.683 252.15 292.467 252.183 292.4L252.083 292.3C251 293.583 249.6 294.225 247.883 294.225ZM248.258 292.5C249.292 292.5 250.1 292.283 250.683 291.85C251.283 291.417 251.583 290.817 251.583 290.05C251.583 289.283 251.292 288.675 250.708 288.225C250.125 287.775 249.325 287.55 248.308 287.55C247.358 287.55 246.608 287.775 246.058 288.225C245.525 288.658 245.258 289.267 245.258 290.05C245.258 290.833 245.517 291.442 246.033 291.875C246.567 292.292 247.308 292.5 248.258 292.5ZM262.488 283.2C261.555 283.2 260.78 283.483 260.163 284.05C259.547 284.6 259.238 285.275 259.238 286.075V292.625C259.238 293.175 259.055 293.583 258.688 293.85C258.338 294.1 257.797 294.225 257.063 294.225V283.125C257.063 281.892 257.763 281.275 259.163 281.275V282.8C258.897 283.083 258.713 283.333 258.613 283.55L258.713 283.65C259.78 282.067 261.113 281.275 262.713 281.275C263.313 281.275 263.772 281.425 264.088 281.725C264.405 282.008 264.563 282.358 264.563 282.775C264.563 283.075 264.488 283.342 264.338 283.575C263.872 283.325 263.255 283.2 262.488 283.2ZM271.536 294.225C270.352 294.225 269.469 293.892 268.886 293.225C268.302 292.542 268.011 291.65 268.011 290.55V283.25H265.686C265.686 282.683 265.811 282.25 266.061 281.95C266.311 281.65 266.652 281.5 267.086 281.5H268.036V279.125C268.036 278.575 268.211 278.175 268.561 277.925C268.927 277.658 269.469 277.525 270.186 277.525V281.5H273.511C273.511 282.667 272.986 283.25 271.936 283.25H270.211V290.475C270.211 291.142 270.327 291.617 270.561 291.9C270.811 292.167 271.252 292.3 271.886 292.3C272.469 292.3 273.019 292.15 273.536 291.85C273.752 292.067 273.861 292.358 273.861 292.725C273.861 293.125 273.652 293.475 273.236 293.775C272.819 294.075 272.252 294.225 271.536 294.225ZM287.917 294.225C286.734 294.225 285.851 293.892 285.267 293.225C284.684 292.542 284.392 291.65 284.392 290.55V283.25H282.067C282.067 282.683 282.192 282.25 282.442 281.95C282.692 281.65 283.034 281.5 283.467 281.5H284.417V279.125C284.417 278.575 284.592 278.175 284.942 277.925C285.309 277.658 285.851 277.525 286.567 277.525V281.5H289.892C289.892 282.667 289.367 283.25 288.317 283.25H286.592V290.475C286.592 291.142 286.709 291.617 286.942 291.9C287.192 292.167 287.634 292.3 288.267 292.3C288.851 292.3 289.401 292.15 289.917 291.85C290.134 292.067 290.242 292.358 290.242 292.725C290.242 293.125 290.034 293.475 289.617 293.775C289.201 294.075 288.634 294.225 287.917 294.225ZM296.994 294.225C295.977 294.225 295.052 294.033 294.219 293.65C293.402 293.267 292.761 292.75 292.294 292.1C291.844 291.433 291.619 290.692 291.619 289.875V285.775C291.619 284.942 291.844 284.183 292.294 283.5C292.761 282.817 293.402 282.275 294.219 281.875C295.036 281.475 295.961 281.275 296.994 281.275C298.027 281.275 298.952 281.475 299.769 281.875C300.602 282.275 301.244 282.817 301.694 283.5C302.161 284.183 302.394 284.942 302.394 285.775V289.875C302.394 290.692 302.161 291.433 301.694 292.1C301.227 292.75 300.586 293.267 299.769 293.65C298.952 294.033 298.027 294.225 296.994 294.225ZM296.994 292.35C297.994 292.35 298.786 292.117 299.369 291.65C299.969 291.167 300.269 290.542 300.269 289.775V285.85C300.269 285.05 299.969 284.4 299.369 283.9C298.786 283.4 297.994 283.15 296.994 283.15C296.011 283.15 295.219 283.4 294.619 283.9C294.019 284.4 293.719 285.05 293.719 285.85V289.775C293.719 290.542 294.011 291.167 294.594 291.65C295.194 292.117 295.994 292.35 296.994 292.35ZM312.927 283.125H310.852C310.852 281.958 311.285 281.375 312.152 281.375H312.927V280.125C312.927 278.958 313.285 278.025 314.002 277.325C314.735 276.625 315.71 276.275 316.927 276.275C317.593 276.275 318.16 276.433 318.627 276.75C319.11 277.05 319.352 277.417 319.352 277.85C319.352 278.2 319.243 278.483 319.027 278.7C318.443 278.367 317.802 278.2 317.102 278.2C316.468 278.2 315.977 278.375 315.627 278.725C315.277 279.075 315.102 279.575 315.102 280.225V281.375H323.002V292.625C323.002 293.692 322.277 294.225 320.827 294.225V283.125H315.102V292.625C315.102 293.175 314.927 293.583 314.577 293.85C314.227 294.1 313.677 294.225 312.927 294.225V283.125ZM321.927 279.4C321.46 279.4 321.068 279.25 320.752 278.95C320.435 278.65 320.277 278.275 320.277 277.825C320.277 277.392 320.435 277.025 320.752 276.725C321.068 276.425 321.46 276.275 321.927 276.275C322.393 276.275 322.777 276.425 323.077 276.725C323.393 277.025 323.552 277.392 323.552 277.825C323.552 278.258 323.393 278.633 323.077 278.95C322.777 279.25 322.393 279.4 321.927 279.4ZM327.059 283.125C327.059 281.892 327.759 281.275 329.159 281.275V282.875C329.009 283.025 328.834 283.25 328.634 283.55L328.734 283.65C329.234 282.95 329.884 282.383 330.684 281.95C331.484 281.5 332.35 281.275 333.284 281.275C334.634 281.275 335.7 281.675 336.484 282.475C337.267 283.275 337.659 284.308 337.659 285.575V292.625C337.659 293.175 337.475 293.583 337.109 293.85C336.759 294.1 336.217 294.225 335.484 294.225V285.8C335.484 285 335.259 284.367 334.809 283.9C334.359 283.433 333.675 283.2 332.759 283.2C332.142 283.2 331.559 283.333 331.009 283.6C330.475 283.85 330.042 284.2 329.709 284.65C329.392 285.083 329.234 285.558 329.234 286.075V292.625C329.234 293.175 329.05 293.583 328.684 293.85C328.334 294.1 327.792 294.225 327.059 294.225V283.125ZM342.551 279.4C342.085 279.4 341.693 279.25 341.376 278.95C341.06 278.65 340.901 278.275 340.901 277.825C340.901 277.375 341.06 277.008 341.376 276.725C341.693 276.425 342.085 276.275 342.551 276.275C343.001 276.275 343.385 276.425 343.701 276.725C344.018 277.008 344.176 277.375 344.176 277.825C344.176 278.275 344.018 278.65 343.701 278.95C343.385 279.25 343.001 279.4 342.551 279.4ZM341.451 282.875C341.451 282.325 341.626 281.925 341.976 281.675C342.343 281.408 342.893 281.275 343.626 281.275V292.625C343.626 293.175 343.443 293.583 343.076 293.85C342.726 294.1 342.185 294.225 341.451 294.225V282.875ZM352.213 294.225C351.363 294.225 350.563 294.1 349.813 293.85C349.063 293.583 348.455 293.208 347.988 292.725C347.538 292.242 347.313 291.675 347.313 291.025C347.313 290.225 347.797 289.792 348.763 289.725C348.93 290.658 349.322 291.35 349.938 291.8C350.572 292.233 351.372 292.45 352.338 292.45C353.305 292.45 354.055 292.308 354.588 292.025C355.122 291.742 355.388 291.308 355.388 290.725C355.388 290.308 355.28 289.975 355.063 289.725C354.847 289.458 354.497 289.233 354.013 289.05C353.547 288.85 352.872 288.658 351.988 288.475C350.888 288.225 350.013 287.958 349.363 287.675C348.713 287.392 348.213 287.017 347.863 286.55C347.53 286.083 347.363 285.467 347.363 284.7C347.363 284.05 347.563 283.467 347.963 282.95C348.363 282.417 348.913 282.008 349.613 281.725C350.33 281.425 351.138 281.275 352.038 281.275C352.872 281.275 353.655 281.392 354.388 281.625C355.138 281.858 355.738 282.192 356.188 282.625C356.655 283.058 356.888 283.558 356.888 284.125C356.888 284.508 356.738 284.817 356.438 285.05C356.138 285.267 355.722 285.392 355.188 285.425C355.138 284.692 354.838 284.117 354.288 283.7C353.755 283.267 353.005 283.05 352.038 283.05C351.238 283.05 350.605 283.2 350.138 283.5C349.672 283.8 349.438 284.2 349.438 284.7C349.438 285.233 349.655 285.633 350.088 285.9C350.538 286.15 351.297 286.392 352.363 286.625C354.113 286.975 355.397 287.458 356.213 288.075C357.047 288.675 357.463 289.533 357.463 290.65C357.463 291.783 357.005 292.667 356.088 293.3C355.172 293.917 353.88 294.225 352.213 294.225ZM360.335 278.125C360.335 277.525 360.518 277.067 360.885 276.75C361.252 276.433 361.793 276.275 362.51 276.275V282.85C362.277 283.117 362.093 283.35 361.96 283.55L362.06 283.65C362.577 282.95 363.227 282.383 364.01 281.95C364.793 281.5 365.643 281.275 366.56 281.275C367.91 281.275 368.977 281.675 369.76 282.475C370.543 283.275 370.935 284.308 370.935 285.575V292.625C370.935 293.175 370.752 293.583 370.385 293.85C370.035 294.1 369.493 294.225 368.76 294.225V285.8C368.76 285 368.535 284.367 368.085 283.9C367.635 283.433 366.952 283.2 366.035 283.2C365.418 283.2 364.835 283.333 364.285 283.6C363.752 283.85 363.318 284.2 362.985 284.65C362.668 285.083 362.51 285.558 362.51 286.075V292.625C362.51 293.175 362.327 293.583 361.96 293.85C361.61 294.1 361.068 294.225 360.335 294.225V278.125ZM375.203 294.225C374.736 294.225 374.344 294.075 374.028 293.775C373.711 293.458 373.553 293.067 373.553 292.6C373.553 292.133 373.711 291.742 374.028 291.425C374.344 291.108 374.736 290.95 375.203 290.95C375.653 290.95 376.044 291.117 376.378 291.45C376.711 291.767 376.878 292.15 376.878 292.6C376.878 293.05 376.711 293.433 376.378 293.75C376.044 294.067 375.653 294.225 375.203 294.225Z" fill="white" fill-opacity="0.8"/>
<path d="M317.877 65.875C318.134 64 318.263 62.0625 318.263 60C318.263 58 318.134 56 317.813 54.125L330.856 44.25C332.013 43.375 332.334 41.6875 331.627 40.4375L319.291 19.6875C318.52 18.3125 316.913 17.875 315.5 18.3125L300.143 24.3125C296.93 21.9375 293.525 19.9375 289.734 18.4375L287.421 2.5625C287.164 1.0625 285.879 0 284.337 0H259.663C258.121 0 256.9 1.0625 256.643 2.5625L254.33 18.4375C250.539 19.9375 247.07 22 243.921 24.3125L228.565 18.3125C227.151 17.8125 225.545 18.3125 224.774 19.6875L212.501 40.4375C211.73 41.75 211.987 43.375 213.272 44.25L226.316 54.125C225.994 56 225.737 58.0625 225.737 60C225.737 61.9375 225.866 64 226.187 65.875L213.144 75.75C211.987 76.625 211.666 78.3125 212.373 79.5625L224.709 100.312C225.48 101.688 227.087 102.125 228.5 101.687L243.857 95.6875C247.07 98.0625 250.475 100.062 254.266 101.562L256.579 117.438C256.9 118.938 258.121 120 259.663 120H284.337C285.879 120 287.164 118.938 287.357 117.438L289.67 101.562C293.461 100.062 296.93 98.0625 300.079 95.6875L315.435 101.687C316.849 102.187 318.455 101.688 319.226 100.312L331.563 79.5625C332.334 78.1875 332.013 76.625 330.792 75.75L317.877 65.875ZM272 82.5C259.278 82.5 248.869 72.375 248.869 60C248.869 47.625 259.278 37.5 272 37.5C284.722 37.5 295.131 47.625 295.131 60C295.131 72.375 284.722 82.5 272 82.5Z" fill="#910A67" fill-opacity="0.7"/>
</svg>
