<svg width="543" height="367" viewBox="0 0 543 367" fill="none" xmlns="http://www.w3.org/2000/svg">
<path d="M60.2069 227.335C60.2069 226.081 60.6735 225.108 61.6069 224.415C62.5402 223.695 63.8602 223.335 65.5669 223.335V248.055C65.5669 249.335 65.1002 250.321 64.1669 251.015C63.2335 251.708 61.9135 252.055 60.2069 252.055V227.335ZM71.0475 235.175C71.0475 233.948 71.4342 233.001 72.2075 232.335C72.9808 231.668 74.1542 231.335 75.7275 231.335V233.735C75.2475 234.321 74.9275 234.748 74.7675 235.015L75.0475 235.175C75.8742 233.921 76.7542 232.975 77.6875 232.335C78.6208 231.668 79.7275 231.335 81.0075 231.335C83.3275 231.335 84.9275 232.468 85.8075 234.735C86.4742 233.668 87.3275 232.841 88.3675 232.255C89.4075 231.641 90.5808 231.335 91.8875 231.335C93.7008 231.335 95.1408 232.001 96.2075 233.335C97.3008 234.641 97.8475 236.321 97.8475 238.375V249.015C97.8475 250.081 97.4342 250.855 96.6075 251.335C95.8075 251.815 94.5808 252.055 92.9275 252.055V238.775C92.9275 237.788 92.7008 237.001 92.2475 236.415C91.8208 235.828 91.1542 235.535 90.2475 235.535C89.2875 235.535 88.4742 235.868 87.8075 236.535C87.1675 237.175 86.8475 238.188 86.8475 239.575V249.015C86.8475 250.081 86.4475 250.855 85.6475 251.335C84.8742 251.815 83.6608 252.055 82.0075 252.055V238.775C82.0075 237.761 81.7942 236.975 81.3675 236.415C80.9408 235.828 80.2742 235.535 79.3675 235.535C78.2475 235.535 77.3942 235.921 76.8075 236.695C76.2475 237.441 75.9675 238.468 75.9675 239.775V249.015C75.9675 250.081 75.5542 250.855 74.7275 251.335C73.9275 251.815 72.7008 252.055 71.0475 252.055V235.175ZM102.298 235.175C102.298 233.948 102.684 233.001 103.458 232.335C104.231 231.668 105.404 231.335 106.978 231.335V233.735C106.498 234.321 106.178 234.748 106.018 235.015L106.298 235.175C107.124 233.921 108.004 232.975 108.938 232.335C109.871 231.668 110.978 231.335 112.258 231.335C114.578 231.335 116.178 232.468 117.058 234.735C117.724 233.668 118.578 232.841 119.618 232.255C120.658 231.641 121.831 231.335 123.138 231.335C124.951 231.335 126.391 232.001 127.458 233.335C128.551 234.641 129.098 236.321 129.098 238.375V249.015C129.098 250.081 128.684 250.855 127.858 251.335C127.058 251.815 125.831 252.055 124.178 252.055V238.775C124.178 237.788 123.951 237.001 123.498 236.415C123.071 235.828 122.404 235.535 121.498 235.535C120.538 235.535 119.724 235.868 119.058 236.535C118.418 237.175 118.098 238.188 118.098 239.575V249.015C118.098 250.081 117.698 250.855 116.898 251.335C116.124 251.815 114.911 252.055 113.258 252.055V238.775C113.258 237.761 113.044 236.975 112.618 236.415C112.191 235.828 111.524 235.535 110.618 235.535C109.498 235.535 108.644 235.921 108.058 236.695C107.498 237.441 107.218 238.468 107.218 239.775V249.015C107.218 250.081 106.804 250.855 105.978 251.335C105.178 251.815 103.951 252.055 102.298 252.055V235.175ZM142.268 252.055C140.614 252.055 139.108 251.735 137.748 251.095C136.388 250.428 135.308 249.535 134.508 248.415C133.708 247.268 133.308 245.988 133.308 244.575V239.255C133.308 237.761 133.721 236.415 134.548 235.215C135.374 234.015 136.468 233.068 137.828 232.375C139.214 231.681 140.708 231.335 142.308 231.335C143.881 231.335 145.321 231.668 146.628 232.335C147.961 232.975 149.014 233.881 149.788 235.055C150.561 236.201 150.948 237.521 150.948 239.015V241.255C150.948 241.841 150.721 242.335 150.268 242.735C149.841 243.135 149.294 243.335 148.628 243.335H138.148V244.215C138.148 245.361 138.494 246.295 139.188 247.015C139.881 247.735 140.921 248.095 142.308 248.095C143.641 248.095 144.628 247.801 145.268 247.215C145.934 246.628 146.268 245.868 146.268 244.935C146.748 244.881 147.081 244.855 147.268 244.855C148.254 244.855 149.028 245.081 149.588 245.535C150.148 245.961 150.428 246.575 150.428 247.375C150.428 248.148 150.068 248.895 149.348 249.615C148.628 250.335 147.641 250.921 146.388 251.375C145.134 251.828 143.761 252.055 142.268 252.055ZM146.428 239.775V239.015C146.428 237.895 146.041 236.988 145.268 236.295C144.494 235.601 143.494 235.255 142.268 235.255C141.041 235.255 140.041 235.601 139.268 236.295C138.521 236.961 138.148 237.868 138.148 239.015V239.775H146.428ZM162.158 252.055C160.718 252.055 159.424 251.748 158.278 251.135C157.131 250.521 156.224 249.681 155.558 248.615C154.891 247.521 154.558 246.268 154.558 244.855V238.535C154.558 237.148 154.904 235.908 155.598 234.815C156.291 233.721 157.251 232.868 158.478 232.255C159.731 231.641 161.118 231.335 162.638 231.335C163.624 231.335 164.638 231.548 165.678 231.975C166.744 232.375 167.638 232.921 168.358 233.615L168.518 233.415C168.384 233.201 168.091 232.935 167.638 232.615V226.695C167.638 225.628 168.051 224.801 168.878 224.215C169.731 223.628 171.011 223.335 172.718 223.335V248.615C172.718 249.601 172.344 250.428 171.598 251.095C170.851 251.735 169.691 252.055 168.118 252.055V249.855C168.464 249.428 168.718 249.081 168.878 248.815L168.678 248.655C167.851 249.775 166.931 250.628 165.918 251.215C164.931 251.775 163.678 252.055 162.158 252.055ZM163.638 247.735C164.838 247.735 165.811 247.455 166.558 246.895C167.331 246.308 167.718 245.575 167.718 244.695V238.655C167.718 237.801 167.331 237.095 166.558 236.535C165.811 235.948 164.824 235.655 163.598 235.655C162.291 235.655 161.278 235.935 160.558 236.495C159.864 237.028 159.518 237.801 159.518 238.815V244.495C159.518 245.561 159.864 246.375 160.558 246.935C161.278 247.468 162.304 247.735 163.638 247.735ZM180.735 229.455C179.775 229.455 178.975 229.175 178.335 228.615C177.721 228.028 177.415 227.281 177.415 226.375C177.415 225.495 177.721 224.775 178.335 224.215C178.975 223.628 179.775 223.335 180.735 223.335C181.695 223.335 182.481 223.628 183.095 224.215C183.735 224.775 184.055 225.495 184.055 226.375C184.055 227.281 183.735 228.028 183.095 228.615C182.481 229.175 181.695 229.455 180.735 229.455ZM178.215 234.375C178.215 233.281 178.628 232.508 179.455 232.055C180.281 231.575 181.535 231.335 183.215 231.335V249.015C183.215 250.081 182.801 250.855 181.975 251.335C181.148 251.815 179.895 252.055 178.215 252.055V234.375ZM195.422 252.055C194.062 252.055 192.809 251.788 191.662 251.255C190.542 250.721 189.635 249.961 188.942 248.975C188.275 247.961 187.942 246.761 187.942 245.375C187.942 243.988 188.302 242.788 189.022 241.775C189.742 240.735 190.715 239.948 191.942 239.415C193.195 238.855 194.569 238.575 196.062 238.575C197.289 238.575 198.382 238.775 199.342 239.175C200.329 239.548 201.235 240.121 202.062 240.895L202.262 240.695C202.022 240.455 201.609 240.095 201.022 239.615V238.815C201.022 237.721 200.635 236.855 199.862 236.215C199.089 235.575 198.009 235.255 196.622 235.255C194.142 235.255 192.315 236.161 191.142 237.975C190.555 237.788 190.062 237.495 189.662 237.095C189.262 236.668 189.062 236.215 189.062 235.735C189.062 234.935 189.422 234.201 190.142 233.535C190.862 232.868 191.835 232.335 193.062 231.935C194.289 231.535 195.622 231.335 197.062 231.335C199.889 231.335 202.075 232.001 203.622 233.335C205.169 234.641 205.942 236.428 205.942 238.695V248.695C205.942 249.868 205.569 250.721 204.822 251.255C204.075 251.788 202.902 252.055 201.302 252.055V250.415C201.755 249.961 202.062 249.628 202.222 249.415L202.062 249.215C201.182 250.148 200.235 250.855 199.222 251.335C198.235 251.815 196.969 252.055 195.422 252.055ZM196.702 248.415C198.089 248.415 199.169 248.148 199.942 247.615C200.715 247.081 201.102 246.321 201.102 245.335C201.102 244.375 200.702 243.615 199.902 243.055C199.129 242.495 198.075 242.215 196.742 242.215C195.515 242.215 194.542 242.495 193.822 243.055C193.129 243.588 192.782 244.348 192.782 245.335C192.782 246.348 193.129 247.121 193.822 247.655C194.515 248.161 195.475 248.415 196.702 248.415ZM218.146 252.055C215.986 252.055 214.386 251.428 213.346 250.175C212.306 248.921 211.786 247.308 211.786 245.335V235.415H207.666C207.666 234.161 207.906 233.228 208.386 232.615C208.866 232.001 209.506 231.695 210.306 231.695H211.866V228.375C211.866 227.281 212.266 226.508 213.066 226.055C213.866 225.575 215.079 225.335 216.706 225.335V231.695H222.026C222.026 233.028 221.772 233.988 221.266 234.575C220.759 235.135 219.946 235.415 218.826 235.415H216.786V245.135C216.786 246.068 216.959 246.735 217.306 247.135C217.679 247.535 218.306 247.735 219.186 247.735C220.119 247.735 221.052 247.481 221.986 246.975C222.252 247.215 222.466 247.521 222.626 247.895C222.786 248.241 222.866 248.601 222.866 248.975C222.866 249.775 222.452 250.495 221.626 251.135C220.799 251.748 219.639 252.055 218.146 252.055ZM234.299 252.055C232.645 252.055 231.139 251.735 229.779 251.095C228.419 250.428 227.339 249.535 226.539 248.415C225.739 247.268 225.339 245.988 225.339 244.575V239.255C225.339 237.761 225.752 236.415 226.579 235.215C227.405 234.015 228.499 233.068 229.859 232.375C231.245 231.681 232.739 231.335 234.339 231.335C235.912 231.335 237.352 231.668 238.659 232.335C239.992 232.975 241.045 233.881 241.819 235.055C242.592 236.201 242.979 237.521 242.979 239.015V241.255C242.979 241.841 242.752 242.335 242.299 242.735C241.872 243.135 241.325 243.335 240.659 243.335H230.179V244.215C230.179 245.361 230.525 246.295 231.219 247.015C231.912 247.735 232.952 248.095 234.339 248.095C235.672 248.095 236.659 247.801 237.299 247.215C237.965 246.628 238.299 245.868 238.299 244.935C238.779 244.881 239.112 244.855 239.299 244.855C240.285 244.855 241.059 245.081 241.619 245.535C242.179 245.961 242.459 246.575 242.459 247.375C242.459 248.148 242.099 248.895 241.379 249.615C240.659 250.335 239.672 250.921 238.419 251.375C237.165 251.828 235.792 252.055 234.299 252.055ZM238.459 239.775V239.015C238.459 237.895 238.072 236.988 237.299 236.295C236.525 235.601 235.525 235.255 234.299 235.255C233.072 235.255 232.072 235.601 231.299 236.295C230.552 236.961 230.179 237.868 230.179 239.015V239.775H238.459ZM259.981 252.055C258.835 251.921 257.928 251.521 257.261 250.855C256.621 250.188 256.301 249.348 256.301 248.335C256.301 247.561 256.488 246.761 256.861 245.935L266.021 225.095C266.528 223.921 267.408 223.335 268.661 223.335C269.888 223.335 270.755 223.921 271.261 225.095L280.421 245.935C280.795 246.815 280.981 247.615 280.981 248.335C280.981 249.348 280.648 250.188 279.981 250.855C279.341 251.521 278.435 251.921 277.261 252.055L273.901 244.455H263.381L259.981 252.055ZM272.261 239.895L267.861 228.935L267.381 229.135L268.341 231.615L264.981 239.895H272.261ZM292.069 252.055C290.336 252.055 288.803 251.748 287.469 251.135C286.136 250.495 285.096 249.615 284.349 248.495C283.603 247.375 283.229 246.108 283.229 244.695V239.095C283.229 237.575 283.603 236.228 284.349 235.055C285.096 233.881 286.136 232.975 287.469 232.335C288.803 231.668 290.323 231.335 292.029 231.335C293.629 231.335 295.043 231.561 296.269 232.015C297.523 232.468 298.496 233.108 299.189 233.935C299.883 234.735 300.229 235.668 300.229 236.735C300.229 237.561 299.909 238.228 299.269 238.735C298.629 239.241 297.789 239.495 296.749 239.495C296.456 239.495 296.243 239.481 296.109 239.455C296.109 238.308 295.736 237.388 294.989 236.695C294.269 236.001 293.323 235.655 292.149 235.655C290.976 235.655 290.016 235.988 289.269 236.655C288.549 237.321 288.189 238.201 288.189 239.295V244.335C288.189 245.348 288.563 246.175 289.309 246.815C290.056 247.428 291.016 247.735 292.189 247.735C293.363 247.735 294.323 247.388 295.069 246.695C295.816 245.975 296.189 245.068 296.189 243.975C296.349 243.948 296.576 243.935 296.869 243.935C297.909 243.935 298.749 244.175 299.389 244.655C300.029 245.135 300.349 245.788 300.349 246.615C300.349 247.681 299.989 248.628 299.269 249.455C298.576 250.255 297.603 250.895 296.349 251.375C295.096 251.828 293.669 252.055 292.069 252.055ZM312.364 252.055C310.204 252.055 308.604 251.428 307.564 250.175C306.524 248.921 306.004 247.308 306.004 245.335V235.415H301.884C301.884 234.161 302.124 233.228 302.604 232.615C303.084 232.001 303.724 231.695 304.524 231.695H306.084V228.375C306.084 227.281 306.484 226.508 307.284 226.055C308.084 225.575 309.298 225.335 310.924 225.335V231.695H316.244C316.244 233.028 315.991 233.988 315.484 234.575C314.978 235.135 314.164 235.415 313.044 235.415H311.004V245.135C311.004 246.068 311.178 246.735 311.524 247.135C311.898 247.535 312.524 247.735 313.404 247.735C314.338 247.735 315.271 247.481 316.204 246.975C316.471 247.215 316.684 247.521 316.844 247.895C317.004 248.241 317.084 248.601 317.084 248.975C317.084 249.775 316.671 250.495 315.844 251.135C315.018 251.748 313.858 252.055 312.364 252.055ZM324.172 229.455C323.212 229.455 322.412 229.175 321.772 228.615C321.159 228.028 320.852 227.281 320.852 226.375C320.852 225.495 321.159 224.775 321.772 224.215C322.412 223.628 323.212 223.335 324.172 223.335C325.132 223.335 325.919 223.628 326.532 224.215C327.172 224.775 327.492 225.495 327.492 226.375C327.492 227.281 327.172 228.028 326.532 228.615C325.919 229.175 325.132 229.455 324.172 229.455ZM321.652 234.375C321.652 233.281 322.066 232.508 322.892 232.055C323.719 231.575 324.972 231.335 326.652 231.335V249.015C326.652 250.081 326.239 250.855 325.412 251.335C324.586 251.815 323.332 252.055 321.652 252.055V234.375ZM340.204 252.055C339.564 252.055 339.004 251.908 338.524 251.615C338.07 251.321 337.75 250.921 337.564 250.415L330.364 231.735C330.55 231.628 330.87 231.535 331.324 231.455C331.804 231.375 332.19 231.335 332.484 231.335C333.257 231.335 333.95 231.495 334.564 231.815C335.204 232.135 335.63 232.601 335.844 233.215L339.964 245.695L339.284 247.575L339.604 247.655L344.564 233.215C344.777 232.601 345.19 232.135 345.804 231.815C346.444 231.495 347.15 231.335 347.924 231.335C348.217 231.335 348.59 231.375 349.044 231.455C349.524 231.535 349.857 231.628 350.044 231.735L342.844 250.415C342.657 250.921 342.324 251.321 341.844 251.615C341.39 251.908 340.844 252.055 340.204 252.055ZM358.391 252.055C357.031 252.055 355.777 251.788 354.631 251.255C353.511 250.721 352.604 249.961 351.911 248.975C351.244 247.961 350.911 246.761 350.911 245.375C350.911 243.988 351.271 242.788 351.991 241.775C352.711 240.735 353.684 239.948 354.911 239.415C356.164 238.855 357.537 238.575 359.031 238.575C360.257 238.575 361.351 238.775 362.311 239.175C363.297 239.548 364.204 240.121 365.031 240.895L365.231 240.695C364.991 240.455 364.577 240.095 363.991 239.615V238.815C363.991 237.721 363.604 236.855 362.831 236.215C362.057 235.575 360.977 235.255 359.591 235.255C357.111 235.255 355.284 236.161 354.111 237.975C353.524 237.788 353.031 237.495 352.631 237.095C352.231 236.668 352.031 236.215 352.031 235.735C352.031 234.935 352.391 234.201 353.111 233.535C353.831 232.868 354.804 232.335 356.031 231.935C357.257 231.535 358.591 231.335 360.031 231.335C362.857 231.335 365.044 232.001 366.591 233.335C368.137 234.641 368.911 236.428 368.911 238.695V248.695C368.911 249.868 368.537 250.721 367.791 251.255C367.044 251.788 365.871 252.055 364.271 252.055V250.415C364.724 249.961 365.031 249.628 365.191 249.415L365.031 249.215C364.151 250.148 363.204 250.855 362.191 251.335C361.204 251.815 359.937 252.055 358.391 252.055ZM359.671 248.415C361.057 248.415 362.137 248.148 362.911 247.615C363.684 247.081 364.071 246.321 364.071 245.335C364.071 244.375 363.671 243.615 362.871 243.055C362.097 242.495 361.044 242.215 359.711 242.215C358.484 242.215 357.511 242.495 356.791 243.055C356.097 243.588 355.751 244.348 355.751 245.335C355.751 246.348 356.097 247.121 356.791 247.655C357.484 248.161 358.444 248.415 359.671 248.415ZM381.114 252.055C378.954 252.055 377.354 251.428 376.314 250.175C375.274 248.921 374.754 247.308 374.754 245.335V235.415H370.634C370.634 234.161 370.874 233.228 371.354 232.615C371.834 232.001 372.474 231.695 373.274 231.695H374.834V228.375C374.834 227.281 375.234 226.508 376.034 226.055C376.834 225.575 378.048 225.335 379.674 225.335V231.695H384.994C384.994 233.028 384.741 233.988 384.234 234.575C383.728 235.135 382.914 235.415 381.794 235.415H379.754V245.135C379.754 246.068 379.928 246.735 380.274 247.135C380.648 247.535 381.274 247.735 382.154 247.735C383.088 247.735 384.021 247.481 384.954 246.975C385.221 247.215 385.434 247.521 385.594 247.895C385.754 248.241 385.834 248.601 385.834 248.975C385.834 249.775 385.421 250.495 384.594 251.135C383.768 251.748 382.608 252.055 381.114 252.055ZM392.922 229.455C391.962 229.455 391.162 229.175 390.522 228.615C389.909 228.028 389.602 227.281 389.602 226.375C389.602 225.495 389.909 224.775 390.522 224.215C391.162 223.628 391.962 223.335 392.922 223.335C393.882 223.335 394.669 223.628 395.282 224.215C395.922 224.775 396.242 225.495 396.242 226.375C396.242 227.281 395.922 228.028 395.282 228.615C394.669 229.175 393.882 229.455 392.922 229.455ZM390.402 234.375C390.402 233.281 390.816 232.508 391.642 232.055C392.469 231.575 393.722 231.335 395.402 231.335V249.015C395.402 250.081 394.989 250.855 394.162 251.335C393.336 251.815 392.082 252.055 390.402 252.055V234.375ZM408.314 252.055C406.58 252.055 405.007 251.748 403.594 251.135C402.207 250.495 401.114 249.615 400.314 248.495C399.514 247.375 399.114 246.108 399.114 244.695V239.055C399.114 237.615 399.5 236.308 400.274 235.135C401.074 233.961 402.167 233.041 403.554 232.375C404.94 231.681 406.527 231.335 408.314 231.335C410.1 231.335 411.687 231.681 413.074 232.375C414.487 233.041 415.58 233.961 416.354 235.135C417.154 236.308 417.554 237.615 417.554 239.055V244.695C417.554 246.108 417.14 247.375 416.314 248.495C415.514 249.615 414.407 250.495 412.994 251.135C411.607 251.748 410.047 252.055 408.314 252.055ZM408.314 247.775C409.647 247.775 410.687 247.468 411.434 246.855C412.207 246.241 412.594 245.415 412.594 244.375V239.295C412.594 238.201 412.207 237.321 411.434 236.655C410.687 235.961 409.647 235.615 408.314 235.615C407.007 235.615 405.967 235.961 405.194 236.655C404.42 237.321 404.034 238.201 404.034 239.295V244.375C404.034 245.415 404.42 246.241 405.194 246.855C405.967 247.468 407.007 247.775 408.314 247.775ZM420.696 235.175C420.696 233.948 421.083 233.001 421.856 232.335C422.656 231.668 423.856 231.335 425.456 231.335V233.735C425.136 234.108 424.816 234.535 424.496 235.015L424.736 235.175C425.536 233.975 426.563 233.041 427.816 232.375C429.069 231.681 430.456 231.335 431.976 231.335C433.336 231.335 434.536 231.641 435.576 232.255C436.616 232.868 437.416 233.708 437.976 234.775C438.563 235.841 438.856 237.041 438.856 238.375V249.015C438.856 250.081 438.443 250.855 437.616 251.335C436.789 251.815 435.536 252.055 433.856 252.055V239.095C433.856 238.081 433.549 237.255 432.936 236.615C432.349 235.975 431.483 235.655 430.336 235.655C428.976 235.655 427.856 236.081 426.976 236.935C426.096 237.761 425.656 238.801 425.656 240.055V249.015C425.656 250.081 425.256 250.855 424.456 251.335C423.656 251.815 422.403 252.055 420.696 252.055V235.175Z" fill="white"/>
<path d="M7.91494 318.345L1.68994 307.27C1.80661 307.186 1.98161 307.12 2.21494 307.07C2.46494 307.003 2.69827 306.97 2.91494 306.97C3.76494 306.97 4.37328 307.328 4.73994 308.045L9.01494 316.07L8.48994 317.12L8.66494 317.22L13.4149 308.045C13.7983 307.328 14.4149 306.97 15.2649 306.97C15.4816 306.97 15.7066 307.003 15.9399 307.07C16.1899 307.12 16.3733 307.186 16.4899 307.27L10.2649 318.345V322.97C10.2649 323.603 10.0649 324.086 9.66494 324.42C9.26494 324.753 8.68161 324.92 7.91494 324.92V318.345ZM20.981 324.92C19.9643 324.92 19.0393 324.728 18.206 324.345C17.3893 323.961 16.7476 323.445 16.281 322.795C15.831 322.128 15.606 321.386 15.606 320.57V316.47C15.606 315.636 15.831 314.878 16.281 314.195C16.7476 313.511 17.3893 312.97 18.206 312.57C19.0226 312.17 19.9476 311.97 20.981 311.97C22.0143 311.97 22.9393 312.17 23.756 312.57C24.5893 312.97 25.231 313.511 25.681 314.195C26.1476 314.878 26.381 315.636 26.381 316.47V320.57C26.381 321.386 26.1476 322.128 25.681 322.795C25.2143 323.445 24.5726 323.961 23.756 324.345C22.9393 324.728 22.0143 324.92 20.981 324.92ZM20.981 323.045C21.981 323.045 22.7726 322.811 23.356 322.345C23.956 321.861 24.256 321.236 24.256 320.47V316.545C24.256 315.745 23.956 315.095 23.356 314.595C22.7726 314.095 21.981 313.845 20.981 313.845C19.9976 313.845 19.206 314.095 18.606 314.595C18.006 315.095 17.706 315.745 17.706 316.545V320.47C17.706 321.236 17.9976 321.861 18.581 322.345C19.181 322.811 19.981 323.045 20.981 323.045ZM39.2519 323.07C39.2519 324.303 38.5519 324.92 37.1519 324.92V323.32C37.3019 323.17 37.4769 322.945 37.6769 322.645L37.5769 322.545C37.0769 323.261 36.4435 323.836 35.6769 324.27C34.9269 324.703 34.1019 324.92 33.2019 324.92C32.3019 324.92 31.5019 324.728 30.8019 324.345C30.1185 323.961 29.5852 323.428 29.2019 322.745C28.8352 322.061 28.6519 321.295 28.6519 320.445V313.57C28.6519 313.02 28.8352 312.62 29.2019 312.37C29.5685 312.103 30.1185 311.97 30.8519 311.97V320.345C30.8519 321.145 31.0852 321.786 31.5519 322.27C32.0352 322.753 32.7435 322.995 33.6769 322.995C34.2935 322.995 34.8602 322.87 35.3769 322.62C35.8935 322.353 36.3019 322.003 36.6019 321.57C36.9185 321.12 37.0769 320.636 37.0769 320.12V313.57C37.0769 313.02 37.2519 312.62 37.6019 312.37C37.9685 312.103 38.5185 311.97 39.2519 311.97V323.07ZM48.1696 313.895C47.2363 313.895 46.4613 314.178 45.8446 314.745C45.228 315.295 44.9196 315.97 44.9196 316.77V323.32C44.9196 323.87 44.7363 324.278 44.3696 324.545C44.0196 324.795 43.478 324.92 42.7446 324.92V313.82C42.7446 312.586 43.4446 311.97 44.8446 311.97V313.495C44.578 313.778 44.3946 314.028 44.2946 314.245L44.3946 314.345C45.4613 312.761 46.7946 311.97 48.3946 311.97C48.9946 311.97 49.453 312.12 49.7696 312.42C50.0863 312.703 50.2446 313.053 50.2446 313.47C50.2446 313.77 50.1696 314.036 50.0196 314.27C49.553 314.02 48.9363 313.895 48.1696 313.895ZM63.8468 324.92C62.9968 324.92 62.1968 324.795 61.4468 324.545C60.6968 324.278 60.0884 323.903 59.6218 323.42C59.1718 322.936 58.9468 322.37 58.9468 321.72C58.9468 320.92 59.4301 320.486 60.3968 320.42C60.5634 321.353 60.9551 322.045 61.5718 322.495C62.2051 322.928 63.0051 323.145 63.9718 323.145C64.9384 323.145 65.6884 323.003 66.2218 322.72C66.7551 322.436 67.0218 322.003 67.0218 321.42C67.0218 321.003 66.9134 320.67 66.6968 320.42C66.4801 320.153 66.1301 319.928 65.6468 319.745C65.1801 319.545 64.5051 319.353 63.6218 319.17C62.5218 318.92 61.6468 318.653 60.9968 318.37C60.3468 318.086 59.8468 317.711 59.4968 317.245C59.1634 316.778 58.9968 316.161 58.9968 315.395C58.9968 314.745 59.1968 314.161 59.5968 313.645C59.9968 313.111 60.5468 312.703 61.2468 312.42C61.9634 312.12 62.7718 311.97 63.6718 311.97C64.5051 311.97 65.2884 312.086 66.0218 312.32C66.7718 312.553 67.3718 312.886 67.8218 313.32C68.2884 313.753 68.5218 314.253 68.5218 314.82C68.5218 315.203 68.3718 315.511 68.0718 315.745C67.7718 315.961 67.3551 316.086 66.8218 316.12C66.7718 315.386 66.4718 314.811 65.9218 314.395C65.3884 313.961 64.6384 313.745 63.6718 313.745C62.8718 313.745 62.2384 313.895 61.7718 314.195C61.3051 314.495 61.0718 314.895 61.0718 315.395C61.0718 315.928 61.2884 316.328 61.7218 316.595C62.1718 316.845 62.9301 317.086 63.9968 317.32C65.7468 317.67 67.0301 318.153 67.8468 318.77C68.6801 319.37 69.0968 320.228 69.0968 321.345C69.0968 322.478 68.6384 323.361 67.7218 323.995C66.8051 324.611 65.5134 324.92 63.8468 324.92ZM82.3183 323.07C82.3183 324.303 81.6183 324.92 80.2183 324.92V323.32C80.3683 323.17 80.5433 322.945 80.7433 322.645L80.6433 322.545C80.1433 323.261 79.5099 323.836 78.7433 324.27C77.9933 324.703 77.1683 324.92 76.2683 324.92C75.3683 324.92 74.5683 324.728 73.8683 324.345C73.1849 323.961 72.6516 323.428 72.2683 322.745C71.9016 322.061 71.7183 321.295 71.7183 320.445V313.57C71.7183 313.02 71.9016 312.62 72.2683 312.37C72.6349 312.103 73.1849 311.97 73.9183 311.97V320.345C73.9183 321.145 74.1516 321.786 74.6183 322.27C75.1016 322.753 75.8099 322.995 76.7433 322.995C77.3599 322.995 77.9266 322.87 78.4433 322.62C78.9599 322.353 79.3683 322.003 79.6683 321.57C79.9849 321.12 80.1433 320.636 80.1433 320.12V313.57C80.1433 313.02 80.3183 312.62 80.6683 312.37C81.0349 312.103 81.5849 311.97 82.3183 311.97V323.07ZM85.811 308.67C85.811 307.536 86.5444 306.97 88.011 306.97V313.07C87.761 313.286 87.586 313.47 87.486 313.62L87.561 313.745C88.061 313.211 88.6694 312.786 89.386 312.47C90.1194 312.136 90.836 311.97 91.536 311.97C93.0194 311.97 94.2027 312.361 95.086 313.145C95.9694 313.928 96.411 314.978 96.411 316.295V320.57C96.411 321.403 96.2027 322.153 95.786 322.82C95.386 323.486 94.8194 324.003 94.086 324.37C93.3527 324.736 92.5194 324.92 91.586 324.92C89.9527 324.92 88.5777 324.203 87.461 322.77L87.386 322.87C87.486 323.02 87.6527 323.228 87.886 323.495C87.886 323.978 87.7194 324.336 87.386 324.57C87.0527 324.803 86.5277 324.92 85.811 324.92V308.67ZM91.111 322.995C92.1277 322.995 92.9027 322.778 93.436 322.345C93.986 321.911 94.261 321.286 94.261 320.47V316.395C94.261 315.611 93.986 315.003 93.436 314.57C92.886 314.12 92.1194 313.895 91.136 313.895C90.2694 313.895 89.5277 314.128 88.911 314.595C88.2944 315.061 87.986 315.62 87.986 316.27V320.595C87.986 321.278 88.286 321.853 88.886 322.32C89.486 322.77 90.2277 322.995 91.111 322.995ZM103.544 324.92C102.694 324.92 101.894 324.795 101.144 324.545C100.394 324.278 99.7857 323.903 99.319 323.42C98.869 322.936 98.644 322.37 98.644 321.72C98.644 320.92 99.1274 320.486 100.094 320.42C100.261 321.353 100.652 322.045 101.269 322.495C101.902 322.928 102.702 323.145 103.669 323.145C104.636 323.145 105.386 323.003 105.919 322.72C106.452 322.436 106.719 322.003 106.719 321.42C106.719 321.003 106.611 320.67 106.394 320.42C106.177 320.153 105.827 319.928 105.344 319.745C104.877 319.545 104.202 319.353 103.319 319.17C102.219 318.92 101.344 318.653 100.694 318.37C100.044 318.086 99.544 317.711 99.194 317.245C98.8607 316.778 98.694 316.161 98.694 315.395C98.694 314.745 98.894 314.161 99.294 313.645C99.694 313.111 100.244 312.703 100.944 312.42C101.661 312.12 102.469 311.97 103.369 311.97C104.202 311.97 104.986 312.086 105.719 312.32C106.469 312.553 107.069 312.886 107.519 313.32C107.986 313.753 108.219 314.253 108.219 314.82C108.219 315.203 108.069 315.511 107.769 315.745C107.469 315.961 107.052 316.086 106.519 316.12C106.469 315.386 106.169 314.811 105.619 314.395C105.086 313.961 104.336 313.745 103.369 313.745C102.569 313.745 101.936 313.895 101.469 314.195C101.002 314.495 100.769 314.895 100.769 315.395C100.769 315.928 100.986 316.328 101.419 316.595C101.869 316.845 102.627 317.086 103.694 317.32C105.444 317.67 106.727 318.153 107.544 318.77C108.377 319.37 108.794 320.228 108.794 321.345C108.794 322.478 108.336 323.361 107.419 323.995C106.502 324.611 105.211 324.92 103.544 324.92ZM116.666 324.92C115.649 324.92 114.741 324.736 113.941 324.37C113.141 324.003 112.516 323.486 112.066 322.82C111.632 322.153 111.416 321.395 111.416 320.545V316.495C111.416 315.611 111.632 314.828 112.066 314.145C112.516 313.461 113.132 312.928 113.916 312.545C114.699 312.161 115.599 311.97 116.616 311.97C117.566 311.97 118.407 312.111 119.141 312.395C119.891 312.661 120.474 313.045 120.891 313.545C121.307 314.045 121.516 314.611 121.516 315.245C121.516 315.661 121.349 316.003 121.016 316.27C120.699 316.52 120.282 316.628 119.766 316.595C119.766 315.795 119.474 315.145 118.891 314.645C118.324 314.145 117.582 313.895 116.666 313.895C115.749 313.895 115.007 314.145 114.441 314.645C113.874 315.128 113.591 315.761 113.591 316.545V320.445C113.591 321.195 113.882 321.811 114.466 322.295C115.049 322.761 115.799 322.995 116.716 322.995C117.632 322.995 118.374 322.745 118.941 322.245C119.524 321.745 119.816 321.103 119.816 320.32C120.349 320.286 120.774 320.395 121.091 320.645C121.424 320.878 121.591 321.211 121.591 321.645C121.591 322.278 121.382 322.845 120.966 323.345C120.549 323.845 119.966 324.236 119.216 324.52C118.466 324.786 117.616 324.92 116.666 324.92ZM129.883 313.895C128.95 313.895 128.175 314.178 127.558 314.745C126.942 315.295 126.633 315.97 126.633 316.77V323.32C126.633 323.87 126.45 324.278 126.083 324.545C125.733 324.795 125.192 324.92 124.458 324.92V313.82C124.458 312.586 125.158 311.97 126.558 311.97V313.495C126.292 313.778 126.108 314.028 126.008 314.245L126.108 314.345C127.175 312.761 128.508 311.97 130.108 311.97C130.708 311.97 131.167 312.12 131.483 312.42C131.8 312.703 131.958 313.053 131.958 313.47C131.958 313.77 131.883 314.036 131.733 314.27C131.267 314.02 130.65 313.895 129.883 313.895ZM135.606 310.095C135.139 310.095 134.747 309.945 134.431 309.645C134.114 309.345 133.956 308.97 133.956 308.52C133.956 308.07 134.114 307.703 134.431 307.42C134.747 307.12 135.139 306.97 135.606 306.97C136.056 306.97 136.439 307.12 136.756 307.42C137.072 307.703 137.231 308.07 137.231 308.52C137.231 308.97 137.072 309.345 136.756 309.645C136.439 309.945 136.056 310.095 135.606 310.095ZM134.506 313.57C134.506 313.02 134.681 312.62 135.031 312.37C135.397 312.103 135.947 311.97 136.681 311.97V323.32C136.681 323.87 136.497 324.278 136.131 324.545C135.781 324.795 135.239 324.92 134.506 324.92V313.57ZM140.743 313.745C140.743 313.195 140.909 312.761 141.243 312.445C141.593 312.128 142.118 311.97 142.818 311.97V313.37L142.318 314.02L142.393 314.12C142.909 313.453 143.501 312.928 144.168 312.545C144.834 312.161 145.626 311.97 146.543 311.97C147.976 311.97 149.134 312.37 150.018 313.17C150.901 313.953 151.343 315.003 151.343 316.32V320.595C151.343 321.911 150.884 322.961 149.968 323.745C149.051 324.528 147.859 324.92 146.393 324.92C145.609 324.92 144.884 324.761 144.218 324.445C143.568 324.111 142.993 323.678 142.493 323.145L142.418 323.27C142.534 323.436 142.709 323.62 142.943 323.82V328.22C142.943 329.353 142.209 329.92 140.743 329.92V313.745ZM146.068 322.995C147.051 322.995 147.818 322.778 148.368 322.345C148.918 321.895 149.193 321.278 149.193 320.495V316.42C149.193 315.603 148.918 314.978 148.368 314.545C147.818 314.111 147.043 313.895 146.043 313.895C145.159 313.895 144.418 314.128 143.818 314.595C143.218 315.045 142.918 315.611 142.918 316.295V320.62C142.918 321.286 143.201 321.853 143.768 322.32C144.334 322.77 145.101 322.995 146.068 322.995ZM158.926 324.92C157.742 324.92 156.859 324.586 156.276 323.92C155.692 323.236 155.401 322.345 155.401 321.245V313.945H153.076C153.076 313.378 153.201 312.945 153.451 312.645C153.701 312.345 154.042 312.195 154.476 312.195H155.426V309.82C155.426 309.27 155.601 308.87 155.951 308.62C156.317 308.353 156.859 308.22 157.576 308.22V312.195H160.901C160.901 313.361 160.376 313.945 159.326 313.945H157.601V321.17C157.601 321.836 157.717 322.311 157.951 322.595C158.201 322.861 158.642 322.995 159.276 322.995C159.859 322.995 160.409 322.845 160.926 322.545C161.142 322.761 161.251 323.053 161.251 323.42C161.251 323.82 161.042 324.17 160.626 324.47C160.209 324.77 159.642 324.92 158.926 324.92ZM165.537 310.095C165.071 310.095 164.679 309.945 164.362 309.645C164.046 309.345 163.887 308.97 163.887 308.52C163.887 308.07 164.046 307.703 164.362 307.42C164.679 307.12 165.071 306.97 165.537 306.97C165.987 306.97 166.371 307.12 166.687 307.42C167.004 307.703 167.162 308.07 167.162 308.52C167.162 308.97 167.004 309.345 166.687 309.645C166.371 309.945 165.987 310.095 165.537 310.095ZM164.437 313.57C164.437 313.02 164.612 312.62 164.962 312.37C165.329 312.103 165.879 311.97 166.612 311.97V323.32C166.612 323.87 166.429 324.278 166.062 324.545C165.712 324.795 165.171 324.92 164.437 324.92V313.57ZM174.79 324.92C173.773 324.92 172.848 324.728 172.015 324.345C171.198 323.961 170.556 323.445 170.09 322.795C169.64 322.128 169.415 321.386 169.415 320.57V316.47C169.415 315.636 169.64 314.878 170.09 314.195C170.556 313.511 171.198 312.97 172.015 312.57C172.831 312.17 173.756 311.97 174.79 311.97C175.823 311.97 176.748 312.17 177.565 312.57C178.398 312.97 179.04 313.511 179.49 314.195C179.956 314.878 180.19 315.636 180.19 316.47V320.57C180.19 321.386 179.956 322.128 179.49 322.795C179.023 323.445 178.381 323.961 177.565 324.345C176.748 324.728 175.823 324.92 174.79 324.92ZM174.79 323.045C175.79 323.045 176.581 322.811 177.165 322.345C177.765 321.861 178.065 321.236 178.065 320.47V316.545C178.065 315.745 177.765 315.095 177.165 314.595C176.581 314.095 175.79 313.845 174.79 313.845C173.806 313.845 173.015 314.095 172.415 314.595C171.815 315.095 171.515 315.745 171.515 316.545V320.47C171.515 321.236 171.806 321.861 172.39 322.345C172.99 322.811 173.79 323.045 174.79 323.045ZM183.077 313.82C183.077 312.586 183.777 311.97 185.177 311.97V313.57C185.027 313.72 184.852 313.945 184.652 314.245L184.752 314.345C185.252 313.645 185.902 313.078 186.702 312.645C187.502 312.195 188.368 311.97 189.302 311.97C190.652 311.97 191.718 312.37 192.502 313.17C193.285 313.97 193.677 315.003 193.677 316.27V323.32C193.677 323.87 193.493 324.278 193.127 324.545C192.777 324.795 192.235 324.92 191.502 324.92V316.495C191.502 315.695 191.277 315.061 190.827 314.595C190.377 314.128 189.693 313.895 188.777 313.895C188.16 313.895 187.577 314.028 187.027 314.295C186.493 314.545 186.06 314.895 185.727 315.345C185.41 315.778 185.252 316.253 185.252 316.77V323.32C185.252 323.87 185.068 324.278 184.702 324.545C184.352 324.795 183.81 324.92 183.077 324.92V313.82ZM205.015 310.095C204.548 310.095 204.156 309.945 203.84 309.645C203.523 309.345 203.365 308.97 203.365 308.52C203.365 308.07 203.523 307.703 203.84 307.42C204.156 307.12 204.548 306.97 205.015 306.97C205.465 306.97 205.848 307.12 206.165 307.42C206.481 307.703 206.64 308.07 206.64 308.52C206.64 308.97 206.481 309.345 206.165 309.645C205.848 309.945 205.465 310.095 205.015 310.095ZM203.915 313.57C203.915 313.02 204.09 312.62 204.44 312.37C204.806 312.103 205.356 311.97 206.09 311.97V323.32C206.09 323.87 205.906 324.278 205.54 324.545C205.19 324.795 204.648 324.92 203.915 324.92V313.57ZM214.677 324.92C213.827 324.92 213.027 324.795 212.277 324.545C211.527 324.278 210.919 323.903 210.452 323.42C210.002 322.936 209.777 322.37 209.777 321.72C209.777 320.92 210.26 320.486 211.227 320.42C211.394 321.353 211.785 322.045 212.402 322.495C213.035 322.928 213.835 323.145 214.802 323.145C215.769 323.145 216.519 323.003 217.052 322.72C217.585 322.436 217.852 322.003 217.852 321.42C217.852 321.003 217.744 320.67 217.527 320.42C217.31 320.153 216.96 319.928 216.477 319.745C216.01 319.545 215.335 319.353 214.452 319.17C213.352 318.92 212.477 318.653 211.827 318.37C211.177 318.086 210.677 317.711 210.327 317.245C209.994 316.778 209.827 316.161 209.827 315.395C209.827 314.745 210.027 314.161 210.427 313.645C210.827 313.111 211.377 312.703 212.077 312.42C212.794 312.12 213.602 311.97 214.502 311.97C215.335 311.97 216.119 312.086 216.852 312.32C217.602 312.553 218.202 312.886 218.652 313.32C219.119 313.753 219.352 314.253 219.352 314.82C219.352 315.203 219.202 315.511 218.902 315.745C218.602 315.961 218.185 316.086 217.652 316.12C217.602 315.386 217.302 314.811 216.752 314.395C216.219 313.961 215.469 313.745 214.502 313.745C213.702 313.745 213.069 313.895 212.602 314.195C212.135 314.495 211.902 314.895 211.902 315.395C211.902 315.928 212.119 316.328 212.552 316.595C213.002 316.845 213.76 317.086 214.827 317.32C216.577 317.67 217.86 318.153 218.677 318.77C219.51 319.37 219.927 320.228 219.927 321.345C219.927 322.478 219.469 323.361 218.552 323.995C217.635 324.611 216.344 324.92 214.677 324.92ZM230.894 310.095C230.427 310.095 230.035 309.945 229.719 309.645C229.402 309.345 229.244 308.97 229.244 308.52C229.244 308.07 229.402 307.703 229.719 307.42C230.035 307.12 230.427 306.97 230.894 306.97C231.344 306.97 231.727 307.12 232.044 307.42C232.36 307.703 232.519 308.07 232.519 308.52C232.519 308.97 232.36 309.345 232.044 309.645C231.727 309.945 231.344 310.095 230.894 310.095ZM229.794 313.57C229.794 313.02 229.969 312.62 230.319 312.37C230.685 312.103 231.235 311.97 231.969 311.97V323.32C231.969 323.87 231.785 324.278 231.419 324.545C231.069 324.795 230.527 324.92 229.794 324.92V313.57ZM236.031 313.82C236.031 312.586 236.722 311.97 238.106 311.97V313.57C237.889 313.803 237.714 314.028 237.581 314.245L237.681 314.345C238.214 313.595 238.781 313.011 239.381 312.595C239.981 312.178 240.672 311.97 241.456 311.97C242.972 311.97 244.014 312.695 244.581 314.145C245.531 312.695 246.797 311.97 248.381 311.97C249.564 311.97 250.472 312.37 251.106 313.17C251.756 313.953 252.081 314.986 252.081 316.27V323.32C252.081 323.87 251.897 324.278 251.531 324.545C251.181 324.795 250.647 324.92 249.931 324.92V316.395C249.931 315.595 249.764 314.97 249.431 314.52C249.097 314.07 248.572 313.845 247.856 313.845C247.106 313.845 246.464 314.103 245.931 314.62C245.397 315.12 245.131 315.795 245.131 316.645V323.32C245.131 323.87 244.956 324.278 244.606 324.545C244.256 324.795 243.722 324.92 243.006 324.92V316.395C243.006 315.595 242.839 314.97 242.506 314.52C242.172 314.07 241.647 313.845 240.931 313.845C240.164 313.845 239.514 314.12 238.981 314.67C238.447 315.22 238.181 315.895 238.181 316.695V323.32C238.181 323.87 237.997 324.278 237.631 324.545C237.281 324.795 236.747 324.92 236.031 324.92V313.82ZM255.342 313.82C255.342 312.586 256.034 311.97 257.417 311.97V313.57C257.201 313.803 257.026 314.028 256.892 314.245L256.992 314.345C257.526 313.595 258.092 313.011 258.692 312.595C259.292 312.178 259.984 311.97 260.767 311.97C262.284 311.97 263.326 312.695 263.892 314.145C264.842 312.695 266.109 311.97 267.692 311.97C268.876 311.97 269.784 312.37 270.417 313.17C271.067 313.953 271.392 314.986 271.392 316.27V323.32C271.392 323.87 271.209 324.278 270.842 324.545C270.492 324.795 269.959 324.92 269.242 324.92V316.395C269.242 315.595 269.076 314.97 268.742 314.52C268.409 314.07 267.884 313.845 267.167 313.845C266.417 313.845 265.776 314.103 265.242 314.62C264.709 315.12 264.442 315.795 264.442 316.645V323.32C264.442 323.87 264.267 324.278 263.917 324.545C263.567 324.795 263.034 324.92 262.317 324.92V316.395C262.317 315.595 262.151 314.97 261.817 314.52C261.484 314.07 260.959 313.845 260.242 313.845C259.476 313.845 258.826 314.12 258.292 314.67C257.759 315.22 257.492 315.895 257.492 316.695V323.32C257.492 323.87 257.309 324.278 256.942 324.545C256.592 324.795 256.059 324.92 255.342 324.92V313.82ZM279.679 324.92C278.662 324.92 277.754 324.728 276.954 324.345C276.154 323.945 275.529 323.403 275.079 322.72C274.629 322.02 274.404 321.236 274.404 320.37V316.67C274.404 315.786 274.637 314.986 275.104 314.27C275.587 313.553 276.229 312.995 277.029 312.595C277.845 312.178 278.729 311.97 279.679 311.97C280.629 311.97 281.495 312.17 282.279 312.57C283.079 312.97 283.704 313.52 284.154 314.22C284.62 314.92 284.854 315.711 284.854 316.595V318.195C284.854 318.461 284.754 318.686 284.554 318.87C284.354 319.053 284.112 319.145 283.829 319.145H276.529V320.27C276.529 321.12 276.795 321.803 277.329 322.32C277.879 322.836 278.662 323.095 279.679 323.095C280.695 323.095 281.47 322.87 282.004 322.42C282.537 321.97 282.804 321.361 282.804 320.595C283.304 320.561 283.72 320.661 284.054 320.895C284.404 321.111 284.579 321.436 284.579 321.87C284.579 322.403 284.345 322.903 283.879 323.37C283.429 323.836 282.829 324.211 282.079 324.495C281.329 324.778 280.529 324.92 279.679 324.92ZM282.829 317.445V316.595C282.829 315.761 282.537 315.086 281.954 314.57C281.387 314.036 280.629 313.77 279.679 313.77C278.729 313.77 277.962 314.036 277.379 314.57C276.812 315.086 276.529 315.761 276.529 316.595V317.445H282.829ZM292.315 324.92C290.881 324.92 289.715 324.528 288.815 323.745C287.931 322.945 287.49 321.886 287.49 320.57V316.295C287.49 315.445 287.698 314.695 288.115 314.045C288.531 313.378 289.106 312.87 289.84 312.52C290.59 312.153 291.448 311.97 292.415 311.97C293.198 311.97 293.923 312.136 294.59 312.47C295.256 312.786 295.84 313.211 296.34 313.745L296.415 313.62C296.298 313.453 296.123 313.27 295.89 313.07V308.67C295.89 308.12 296.073 307.703 296.44 307.42C296.806 307.12 297.356 306.97 298.09 306.97V323.145C298.09 323.695 297.923 324.128 297.59 324.445C297.273 324.761 296.756 324.92 296.04 324.92V323.52C296.273 323.22 296.431 323.003 296.515 322.87L296.44 322.77C295.906 323.436 295.315 323.961 294.665 324.345C294.015 324.728 293.231 324.92 292.315 324.92ZM292.79 322.995C293.673 322.995 294.415 322.77 295.015 322.32C295.615 321.853 295.915 321.278 295.915 320.595V316.27C295.915 315.603 295.631 315.045 295.065 314.595C294.498 314.128 293.731 313.895 292.765 313.895C291.781 313.895 291.015 314.12 290.465 314.57C289.931 315.003 289.665 315.611 289.665 316.395V320.47C289.665 321.286 289.931 321.911 290.465 322.345C291.015 322.778 291.79 322.995 292.79 322.995ZM303.233 310.095C302.766 310.095 302.374 309.945 302.058 309.645C301.741 309.345 301.583 308.97 301.583 308.52C301.583 308.07 301.741 307.703 302.058 307.42C302.374 307.12 302.766 306.97 303.233 306.97C303.683 306.97 304.066 307.12 304.383 307.42C304.699 307.703 304.858 308.07 304.858 308.52C304.858 308.97 304.699 309.345 304.383 309.645C304.066 309.945 303.683 310.095 303.233 310.095ZM302.133 313.57C302.133 313.02 302.308 312.62 302.658 312.37C303.024 312.103 303.574 311.97 304.308 311.97V323.32C304.308 323.87 304.124 324.278 303.758 324.545C303.408 324.795 302.866 324.92 302.133 324.92V313.57ZM312.52 324.92C311.086 324.92 309.928 324.536 309.045 323.77C308.178 323.003 307.745 321.995 307.745 320.745C307.745 319.478 308.203 318.461 309.12 317.695C310.036 316.911 311.245 316.52 312.745 316.52C314.345 316.52 315.661 317.086 316.695 318.22L316.795 318.12C316.611 317.92 316.403 317.711 316.17 317.495V316.445C316.17 315.595 315.903 314.936 315.37 314.47C314.836 314.003 314.078 313.77 313.095 313.77C311.345 313.77 310.095 314.461 309.345 315.845C309.078 315.711 308.853 315.536 308.67 315.32C308.503 315.086 308.42 314.853 308.42 314.62C308.42 314.17 308.645 313.745 309.095 313.345C309.545 312.928 310.136 312.595 310.87 312.345C311.62 312.095 312.403 311.97 313.22 311.97C314.803 311.97 316.045 312.361 316.945 313.145C317.861 313.928 318.32 315.011 318.32 316.395V323.245C318.32 323.828 318.153 324.253 317.82 324.52C317.486 324.786 316.961 324.92 316.245 324.92V323.745C316.595 323.378 316.786 323.161 316.82 323.095L316.72 322.995C315.636 324.278 314.236 324.92 312.52 324.92ZM312.895 323.195C313.928 323.195 314.736 322.978 315.32 322.545C315.92 322.111 316.22 321.511 316.22 320.745C316.22 319.978 315.928 319.37 315.345 318.92C314.761 318.47 313.961 318.245 312.945 318.245C311.995 318.245 311.245 318.47 310.695 318.92C310.161 319.353 309.895 319.961 309.895 320.745C309.895 321.528 310.153 322.136 310.67 322.57C311.203 322.986 311.945 323.195 312.895 323.195ZM325.552 324.92C324.368 324.92 323.485 324.586 322.902 323.92C322.318 323.236 322.027 322.345 322.027 321.245V313.945H319.702C319.702 313.378 319.827 312.945 320.077 312.645C320.327 312.345 320.668 312.195 321.102 312.195H322.052V309.82C322.052 309.27 322.227 308.87 322.577 308.62C322.943 308.353 323.485 308.22 324.202 308.22V312.195H327.527C327.527 313.361 327.002 313.945 325.952 313.945H324.227V321.17C324.227 321.836 324.343 322.311 324.577 322.595C324.827 322.861 325.268 322.995 325.902 322.995C326.485 322.995 327.035 322.845 327.552 322.545C327.768 322.761 327.877 323.053 327.877 323.42C327.877 323.82 327.668 324.17 327.252 324.47C326.835 324.77 326.268 324.92 325.552 324.92ZM335.538 324.92C334.522 324.92 333.613 324.728 332.813 324.345C332.013 323.945 331.388 323.403 330.938 322.72C330.488 322.02 330.263 321.236 330.263 320.37V316.67C330.263 315.786 330.497 314.986 330.963 314.27C331.447 313.553 332.088 312.995 332.888 312.595C333.705 312.178 334.588 311.97 335.538 311.97C336.488 311.97 337.355 312.17 338.138 312.57C338.938 312.97 339.563 313.52 340.013 314.22C340.48 314.92 340.713 315.711 340.713 316.595V318.195C340.713 318.461 340.613 318.686 340.413 318.87C340.213 319.053 339.972 319.145 339.688 319.145H332.388V320.27C332.388 321.12 332.655 321.803 333.188 322.32C333.738 322.836 334.522 323.095 335.538 323.095C336.555 323.095 337.33 322.87 337.863 322.42C338.397 321.97 338.663 321.361 338.663 320.595C339.163 320.561 339.58 320.661 339.913 320.895C340.263 321.111 340.438 321.436 340.438 321.87C340.438 322.403 340.205 322.903 339.738 323.37C339.288 323.836 338.688 324.211 337.938 324.495C337.188 324.778 336.388 324.92 335.538 324.92ZM338.688 317.445V316.595C338.688 315.761 338.397 315.086 337.813 314.57C337.247 314.036 336.488 313.77 335.538 313.77C334.588 313.77 333.822 314.036 333.238 314.57C332.672 315.086 332.388 315.761 332.388 316.595V317.445H338.688ZM347.224 324.92C346.007 324.92 345.099 324.586 344.499 323.92C343.899 323.236 343.599 322.345 343.599 321.245V308.57C343.599 308.02 343.774 307.62 344.124 307.37C344.491 307.103 345.041 306.97 345.774 306.97V321.17C345.774 321.82 345.907 322.286 346.174 322.57C346.441 322.853 346.882 322.995 347.499 322.995C348.116 322.995 348.682 322.845 349.199 322.545C349.416 322.795 349.524 323.086 349.524 323.42C349.524 323.82 349.316 324.17 348.899 324.47C348.482 324.77 347.924 324.92 347.224 324.92ZM352.246 329.895C351.213 329.895 350.671 329.295 350.621 328.095C351.121 328.161 351.479 328.195 351.696 328.195C352.429 328.195 353.013 327.978 353.446 327.545C353.896 327.111 354.354 326.361 354.821 325.295L355.321 324.17L350.396 312.145C350.513 312.095 350.663 312.053 350.846 312.02C351.046 311.986 351.213 311.97 351.346 311.97C351.696 311.986 352.013 312.086 352.296 312.27C352.579 312.436 352.779 312.661 352.896 312.945L356.246 321.495L355.896 322.495L356.046 322.57L359.846 312.945C359.963 312.645 360.154 312.411 360.421 312.245C360.704 312.061 361.021 311.97 361.371 311.97C361.521 311.97 361.688 311.986 361.871 312.02C362.071 312.053 362.221 312.095 362.321 312.145L356.696 325.92C356.146 327.253 355.529 328.245 354.846 328.895C354.163 329.561 353.296 329.895 352.246 329.895ZM372.851 313.945H370.776C370.776 312.778 371.209 312.195 372.076 312.195H372.851V310.67C372.851 309.586 373.159 308.703 373.776 308.02C374.393 307.32 375.318 306.97 376.551 306.97C377.251 306.97 377.793 307.128 378.176 307.445C378.559 307.745 378.751 308.095 378.751 308.495C378.751 308.845 378.643 309.128 378.426 309.345C377.909 309.045 377.351 308.895 376.751 308.895C376.134 308.895 375.693 309.045 375.426 309.345C375.159 309.645 375.026 310.12 375.026 310.77V312.195H378.151C378.151 312.795 378.018 313.236 377.751 313.52C377.501 313.803 377.109 313.945 376.576 313.945H375.026V323.32C375.026 323.87 374.843 324.278 374.476 324.545C374.126 324.795 373.584 324.92 372.851 324.92V313.945ZM390.595 323.07C390.595 324.303 389.895 324.92 388.495 324.92V323.32C388.645 323.17 388.82 322.945 389.02 322.645L388.92 322.545C388.42 323.261 387.786 323.836 387.02 324.27C386.27 324.703 385.445 324.92 384.545 324.92C383.645 324.92 382.845 324.728 382.145 324.345C381.461 323.961 380.928 323.428 380.545 322.745C380.178 322.061 379.995 321.295 379.995 320.445V313.57C379.995 313.02 380.178 312.62 380.545 312.37C380.911 312.103 381.461 311.97 382.195 311.97V320.345C382.195 321.145 382.428 321.786 382.895 322.27C383.378 322.753 384.086 322.995 385.02 322.995C385.636 322.995 386.203 322.87 386.72 322.62C387.236 322.353 387.645 322.003 387.945 321.57C388.261 321.12 388.42 320.636 388.42 320.12V313.57C388.42 313.02 388.595 312.62 388.945 312.37C389.311 312.103 389.861 311.97 390.595 311.97V323.07ZM397.712 324.92C396.496 324.92 395.587 324.586 394.987 323.92C394.387 323.236 394.087 322.345 394.087 321.245V308.57C394.087 308.02 394.262 307.62 394.612 307.37C394.979 307.103 395.529 306.97 396.262 306.97V321.17C396.262 321.82 396.396 322.286 396.662 322.57C396.929 322.853 397.371 322.995 397.987 322.995C398.604 322.995 399.171 322.845 399.687 322.545C399.904 322.795 400.012 323.086 400.012 323.42C400.012 323.82 399.804 324.17 399.387 324.47C398.971 324.77 398.412 324.92 397.712 324.92ZM405.623 324.92C404.406 324.92 403.498 324.586 402.898 323.92C402.298 323.236 401.998 322.345 401.998 321.245V308.57C401.998 308.02 402.173 307.62 402.523 307.37C402.889 307.103 403.439 306.97 404.173 306.97V321.17C404.173 321.82 404.306 322.286 404.573 322.57C404.839 322.853 405.281 322.995 405.898 322.995C406.514 322.995 407.081 322.845 407.598 322.545C407.814 322.795 407.923 323.086 407.923 323.42C407.923 323.82 407.714 324.17 407.298 324.47C406.881 324.77 406.323 324.92 405.623 324.92ZM410.644 329.895C409.611 329.895 409.069 329.295 409.019 328.095C409.519 328.161 409.878 328.195 410.094 328.195C410.828 328.195 411.411 327.978 411.844 327.545C412.294 327.111 412.753 326.361 413.219 325.295L413.719 324.17L408.794 312.145C408.911 312.095 409.061 312.053 409.244 312.02C409.444 311.986 409.611 311.97 409.744 311.97C410.094 311.986 410.411 312.086 410.694 312.27C410.978 312.436 411.178 312.661 411.294 312.945L414.644 321.495L414.294 322.495L414.444 322.57L418.244 312.945C418.361 312.645 418.553 312.411 418.819 312.245C419.103 312.061 419.419 311.97 419.769 311.97C419.919 311.97 420.086 311.986 420.269 312.02C420.469 312.053 420.619 312.095 420.719 312.145L415.094 325.92C414.544 327.253 413.928 328.245 413.244 328.895C412.561 329.561 411.694 329.895 410.644 329.895ZM434.199 324.92C432.766 324.92 431.608 324.536 430.724 323.77C429.858 323.003 429.424 321.995 429.424 320.745C429.424 319.478 429.883 318.461 430.799 317.695C431.716 316.911 432.924 316.52 434.424 316.52C436.024 316.52 437.341 317.086 438.374 318.22L438.474 318.12C438.291 317.92 438.083 317.711 437.849 317.495V316.445C437.849 315.595 437.583 314.936 437.049 314.47C436.516 314.003 435.758 313.77 434.774 313.77C433.024 313.77 431.774 314.461 431.024 315.845C430.758 315.711 430.533 315.536 430.349 315.32C430.183 315.086 430.099 314.853 430.099 314.62C430.099 314.17 430.324 313.745 430.774 313.345C431.224 312.928 431.816 312.595 432.549 312.345C433.299 312.095 434.083 311.97 434.899 311.97C436.483 311.97 437.724 312.361 438.624 313.145C439.541 313.928 439.999 315.011 439.999 316.395V323.245C439.999 323.828 439.833 324.253 439.499 324.52C439.166 324.786 438.641 324.92 437.924 324.92V323.745C438.274 323.378 438.466 323.161 438.499 323.095L438.399 322.995C437.316 324.278 435.916 324.92 434.199 324.92ZM434.574 323.195C435.608 323.195 436.416 322.978 436.999 322.545C437.599 322.111 437.899 321.511 437.899 320.745C437.899 319.978 437.608 319.37 437.024 318.92C436.441 318.47 435.641 318.245 434.624 318.245C433.674 318.245 432.924 318.47 432.374 318.92C431.841 319.353 431.574 319.961 431.574 320.745C431.574 321.528 431.833 322.136 432.349 322.57C432.883 322.986 433.624 323.195 434.574 323.195ZM448.013 324.92C446.997 324.92 446.088 324.736 445.288 324.37C444.488 324.003 443.863 323.486 443.413 322.82C442.98 322.153 442.763 321.395 442.763 320.545V316.495C442.763 315.611 442.98 314.828 443.413 314.145C443.863 313.461 444.48 312.928 445.263 312.545C446.047 312.161 446.947 311.97 447.963 311.97C448.913 311.97 449.755 312.111 450.488 312.395C451.238 312.661 451.822 313.045 452.238 313.545C452.655 314.045 452.863 314.611 452.863 315.245C452.863 315.661 452.697 316.003 452.363 316.27C452.047 316.52 451.63 316.628 451.113 316.595C451.113 315.795 450.822 315.145 450.238 314.645C449.672 314.145 448.93 313.895 448.013 313.895C447.097 313.895 446.355 314.145 445.788 314.645C445.222 315.128 444.938 315.761 444.938 316.545V320.445C444.938 321.195 445.23 321.811 445.813 322.295C446.397 322.761 447.147 322.995 448.063 322.995C448.98 322.995 449.722 322.745 450.288 322.245C450.872 321.745 451.163 321.103 451.163 320.32C451.697 320.286 452.122 320.395 452.438 320.645C452.772 320.878 452.938 321.211 452.938 321.645C452.938 322.278 452.73 322.845 452.313 323.345C451.897 323.845 451.313 324.236 450.563 324.52C449.813 324.786 448.963 324.92 448.013 324.92ZM460.146 324.92C458.963 324.92 458.08 324.586 457.496 323.92C456.913 323.236 456.621 322.345 456.621 321.245V313.945H454.296C454.296 313.378 454.421 312.945 454.671 312.645C454.921 312.345 455.263 312.195 455.696 312.195H456.646V309.82C456.646 309.27 456.821 308.87 457.171 308.62C457.538 308.353 458.08 308.22 458.796 308.22V312.195H462.121C462.121 313.361 461.596 313.945 460.546 313.945H458.821V321.17C458.821 321.836 458.938 322.311 459.171 322.595C459.421 322.861 459.863 322.995 460.496 322.995C461.08 322.995 461.63 322.845 462.146 322.545C462.363 322.761 462.471 323.053 462.471 323.42C462.471 323.82 462.263 324.17 461.846 324.47C461.43 324.77 460.863 324.92 460.146 324.92ZM466.758 310.095C466.291 310.095 465.9 309.945 465.583 309.645C465.266 309.345 465.108 308.97 465.108 308.52C465.108 308.07 465.266 307.703 465.583 307.42C465.9 307.12 466.291 306.97 466.758 306.97C467.208 306.97 467.591 307.12 467.908 307.42C468.225 307.703 468.383 308.07 468.383 308.52C468.383 308.97 468.225 309.345 467.908 309.645C467.591 309.945 467.208 310.095 466.758 310.095ZM465.658 313.57C465.658 313.02 465.833 312.62 466.183 312.37C466.55 312.103 467.1 311.97 467.833 311.97V323.32C467.833 323.87 467.65 324.278 467.283 324.545C466.933 324.795 466.391 324.92 465.658 324.92V313.57ZM476.535 324.92C476.285 324.92 476.06 324.853 475.86 324.72C475.66 324.586 475.519 324.42 475.435 324.22L470.635 312.145C470.735 312.095 470.877 312.053 471.06 312.02C471.244 311.986 471.41 311.97 471.56 311.97C471.927 311.97 472.252 312.053 472.535 312.22C472.819 312.386 473.01 312.628 473.11 312.945L476.41 321.92L476.06 322.92L476.185 322.97L479.935 312.945C480.035 312.628 480.227 312.386 480.51 312.22C480.794 312.053 481.11 311.97 481.46 311.97C481.61 311.97 481.777 311.986 481.96 312.02C482.144 312.053 482.294 312.095 482.41 312.145L477.61 324.22C477.527 324.42 477.385 324.586 477.185 324.72C477.002 324.853 476.785 324.92 476.535 324.92ZM488.663 324.92C487.647 324.92 486.738 324.728 485.938 324.345C485.138 323.945 484.513 323.403 484.063 322.72C483.613 322.02 483.388 321.236 483.388 320.37V316.67C483.388 315.786 483.622 314.986 484.088 314.27C484.572 313.553 485.213 312.995 486.013 312.595C486.83 312.178 487.713 311.97 488.663 311.97C489.613 311.97 490.48 312.17 491.263 312.57C492.063 312.97 492.688 313.52 493.138 314.22C493.605 314.92 493.838 315.711 493.838 316.595V318.195C493.838 318.461 493.738 318.686 493.538 318.87C493.338 319.053 493.097 319.145 492.813 319.145H485.513V320.27C485.513 321.12 485.78 321.803 486.313 322.32C486.863 322.836 487.647 323.095 488.663 323.095C489.68 323.095 490.455 322.87 490.988 322.42C491.522 321.97 491.788 321.361 491.788 320.595C492.288 320.561 492.705 320.661 493.038 320.895C493.388 321.111 493.563 321.436 493.563 321.87C493.563 322.403 493.33 322.903 492.863 323.37C492.413 323.836 491.813 324.211 491.063 324.495C490.313 324.778 489.513 324.92 488.663 324.92ZM491.813 317.445V316.595C491.813 315.761 491.522 315.086 490.938 314.57C490.372 314.036 489.613 313.77 488.663 313.77C487.713 313.77 486.947 314.036 486.363 314.57C485.797 315.086 485.513 315.761 485.513 316.595V317.445H491.813ZM507.319 324.92C505.886 324.92 504.728 324.536 503.844 323.77C502.978 323.003 502.544 321.995 502.544 320.745C502.544 319.478 503.003 318.461 503.919 317.695C504.836 316.911 506.044 316.52 507.544 316.52C509.144 316.52 510.461 317.086 511.494 318.22L511.594 318.12C511.411 317.92 511.203 317.711 510.969 317.495V316.445C510.969 315.595 510.703 314.936 510.169 314.47C509.636 314.003 508.878 313.77 507.894 313.77C506.144 313.77 504.894 314.461 504.144 315.845C503.878 315.711 503.653 315.536 503.469 315.32C503.303 315.086 503.219 314.853 503.219 314.62C503.219 314.17 503.444 313.745 503.894 313.345C504.344 312.928 504.936 312.595 505.669 312.345C506.419 312.095 507.203 311.97 508.019 311.97C509.603 311.97 510.844 312.361 511.744 313.145C512.661 313.928 513.119 315.011 513.119 316.395V323.245C513.119 323.828 512.953 324.253 512.619 324.52C512.286 324.786 511.761 324.92 511.044 324.92V323.745C511.394 323.378 511.586 323.161 511.619 323.095L511.519 322.995C510.436 324.278 509.036 324.92 507.319 324.92ZM507.694 323.195C508.728 323.195 509.536 322.978 510.119 322.545C510.719 322.111 511.019 321.511 511.019 320.745C511.019 319.978 510.728 319.37 510.144 318.92C509.561 318.47 508.761 318.245 507.744 318.245C506.794 318.245 506.044 318.47 505.494 318.92C504.961 319.353 504.694 319.961 504.694 320.745C504.694 321.528 504.953 322.136 505.469 322.57C506.003 322.986 506.744 323.195 507.694 323.195ZM516.5 313.82C516.5 312.586 517.2 311.97 518.6 311.97V313.57C518.45 313.72 518.275 313.945 518.075 314.245L518.175 314.345C518.675 313.645 519.325 313.078 520.125 312.645C520.925 312.195 521.791 311.97 522.725 311.97C524.075 311.97 525.141 312.37 525.925 313.17C526.708 313.97 527.1 315.003 527.1 316.27V323.32C527.1 323.87 526.916 324.278 526.55 324.545C526.2 324.795 525.658 324.92 524.925 324.92V316.495C524.925 315.695 524.7 315.061 524.25 314.595C523.8 314.128 523.116 313.895 522.2 313.895C521.583 313.895 521 314.028 520.45 314.295C519.916 314.545 519.483 314.895 519.15 315.345C518.833 315.778 518.675 316.253 518.675 316.77V323.32C518.675 323.87 518.491 324.278 518.125 324.545C517.775 324.795 517.233 324.92 516.5 324.92V313.82ZM534.917 324.92C533.484 324.92 532.317 324.528 531.417 323.745C530.534 322.945 530.092 321.886 530.092 320.57V316.295C530.092 315.445 530.301 314.695 530.717 314.045C531.134 313.378 531.709 312.87 532.442 312.52C533.192 312.153 534.051 311.97 535.017 311.97C535.801 311.97 536.526 312.136 537.192 312.47C537.859 312.786 538.442 313.211 538.942 313.745L539.017 313.62C538.901 313.453 538.726 313.27 538.492 313.07V308.67C538.492 308.12 538.676 307.703 539.042 307.42C539.409 307.12 539.959 306.97 540.692 306.97V323.145C540.692 323.695 540.526 324.128 540.192 324.445C539.876 324.761 539.359 324.92 538.642 324.92V323.52C538.876 323.22 539.034 323.003 539.117 322.87L539.042 322.77C538.509 323.436 537.917 323.961 537.267 324.345C536.617 324.728 535.834 324.92 534.917 324.92ZM535.392 322.995C536.276 322.995 537.017 322.77 537.617 322.32C538.217 321.853 538.517 321.278 538.517 320.595V316.27C538.517 315.603 538.234 315.045 537.667 314.595C537.101 314.128 536.334 313.895 535.367 313.895C534.384 313.895 533.617 314.12 533.067 314.57C532.534 315.003 532.267 315.611 532.267 316.395V320.47C532.267 321.286 532.534 321.911 533.067 322.345C533.617 322.778 534.392 322.995 535.392 322.995ZM207.13 346.895C206.196 346.895 205.421 347.178 204.805 347.745C204.188 348.295 203.88 348.97 203.88 349.77V356.32C203.88 356.87 203.696 357.278 203.33 357.545C202.98 357.795 202.438 357.92 201.705 357.92V346.82C201.705 345.586 202.405 344.97 203.805 344.97V346.495C203.538 346.778 203.355 347.028 203.255 347.245L203.355 347.345C204.421 345.761 205.755 344.97 207.355 344.97C207.955 344.97 208.413 345.12 208.73 345.42C209.046 345.703 209.205 346.053 209.205 346.47C209.205 346.77 209.13 347.036 208.98 347.27C208.513 347.02 207.896 346.895 207.13 346.895ZM215.738 357.92C214.722 357.92 213.813 357.728 213.013 357.345C212.213 356.945 211.588 356.403 211.138 355.72C210.688 355.02 210.463 354.236 210.463 353.37V349.67C210.463 348.786 210.697 347.986 211.163 347.27C211.647 346.553 212.288 345.995 213.088 345.595C213.905 345.178 214.788 344.97 215.738 344.97C216.688 344.97 217.555 345.17 218.338 345.57C219.138 345.97 219.763 346.52 220.213 347.22C220.68 347.92 220.913 348.711 220.913 349.595V351.195C220.913 351.461 220.813 351.686 220.613 351.87C220.413 352.053 220.172 352.145 219.888 352.145H212.588V353.27C212.588 354.12 212.855 354.803 213.388 355.32C213.938 355.836 214.722 356.095 215.738 356.095C216.755 356.095 217.53 355.87 218.063 355.42C218.597 354.97 218.863 354.361 218.863 353.595C219.363 353.561 219.78 353.661 220.113 353.895C220.463 354.111 220.638 354.436 220.638 354.87C220.638 355.403 220.405 355.903 219.938 356.37C219.488 356.836 218.888 357.211 218.138 357.495C217.388 357.778 216.588 357.92 215.738 357.92ZM218.888 350.445V349.595C218.888 348.761 218.597 348.086 218.013 347.57C217.447 347.036 216.688 346.77 215.738 346.77C214.788 346.77 214.022 347.036 213.438 347.57C212.872 348.086 212.588 348.761 212.588 349.595V350.445H218.888ZM227.583 357.92C226.15 357.92 224.991 357.536 224.108 356.77C223.241 356.003 222.808 354.995 222.808 353.745C222.808 352.478 223.266 351.461 224.183 350.695C225.1 349.911 226.308 349.52 227.808 349.52C229.408 349.52 230.725 350.086 231.758 351.22L231.858 351.12C231.675 350.92 231.466 350.711 231.233 350.495V349.445C231.233 348.595 230.966 347.936 230.433 347.47C229.9 347.003 229.141 346.77 228.158 346.77C226.408 346.77 225.158 347.461 224.408 348.845C224.141 348.711 223.916 348.536 223.733 348.32C223.566 348.086 223.483 347.853 223.483 347.62C223.483 347.17 223.708 346.745 224.158 346.345C224.608 345.928 225.2 345.595 225.933 345.345C226.683 345.095 227.466 344.97 228.283 344.97C229.866 344.97 231.108 345.361 232.008 346.145C232.925 346.928 233.383 348.011 233.383 349.395V356.245C233.383 356.828 233.216 357.253 232.883 357.52C232.55 357.786 232.025 357.92 231.308 357.92V356.745C231.658 356.378 231.85 356.161 231.883 356.095L231.783 355.995C230.7 357.278 229.3 357.92 227.583 357.92ZM227.958 356.195C228.991 356.195 229.8 355.978 230.383 355.545C230.983 355.111 231.283 354.511 231.283 353.745C231.283 352.978 230.991 352.37 230.408 351.92C229.825 351.47 229.025 351.245 228.008 351.245C227.058 351.245 226.308 351.47 225.758 351.92C225.225 352.353 224.958 352.961 224.958 353.745C224.958 354.528 225.216 355.136 225.733 355.57C226.266 355.986 227.008 356.195 227.958 356.195ZM241.338 357.92C239.905 357.92 238.738 357.528 237.838 356.745C236.955 355.945 236.513 354.886 236.513 353.57V349.295C236.513 348.445 236.722 347.695 237.138 347.045C237.555 346.378 238.13 345.87 238.863 345.52C239.613 345.153 240.472 344.97 241.438 344.97C242.222 344.97 242.947 345.136 243.613 345.47C244.28 345.786 244.863 346.211 245.363 346.745L245.438 346.62C245.322 346.453 245.147 346.27 244.913 346.07V341.67C244.913 341.12 245.097 340.703 245.463 340.42C245.83 340.12 246.38 339.97 247.113 339.97V356.145C247.113 356.695 246.947 357.128 246.613 357.445C246.297 357.761 245.78 357.92 245.063 357.92V356.52C245.297 356.22 245.455 356.003 245.538 355.87L245.463 355.77C244.93 356.436 244.338 356.961 243.688 357.345C243.038 357.728 242.255 357.92 241.338 357.92ZM241.813 355.995C242.697 355.995 243.438 355.77 244.038 355.32C244.638 354.853 244.938 354.278 244.938 353.595V349.27C244.938 348.603 244.655 348.045 244.088 347.595C243.522 347.128 242.755 346.895 241.788 346.895C240.805 346.895 240.038 347.12 239.488 347.57C238.955 348.003 238.688 348.611 238.688 349.395V353.47C238.688 354.286 238.955 354.911 239.488 355.345C240.038 355.778 240.813 355.995 241.813 355.995ZM251.465 362.895C250.431 362.895 249.89 362.295 249.84 361.095C250.34 361.161 250.698 361.195 250.915 361.195C251.648 361.195 252.231 360.978 252.665 360.545C253.115 360.111 253.573 359.361 254.04 358.295L254.54 357.17L249.615 345.145C249.731 345.095 249.881 345.053 250.065 345.02C250.265 344.986 250.431 344.97 250.565 344.97C250.915 344.986 251.231 345.086 251.515 345.27C251.798 345.436 251.998 345.661 252.115 345.945L255.465 354.495L255.115 355.495L255.265 355.57L259.065 345.945C259.181 345.645 259.373 345.411 259.64 345.245C259.923 345.061 260.24 344.97 260.59 344.97C260.74 344.97 260.906 344.986 261.09 345.02C261.29 345.053 261.44 345.095 261.54 345.145L255.915 358.92C255.365 360.253 254.748 361.245 254.065 361.895C253.381 362.561 252.515 362.895 251.465 362.895ZM275.845 357.92C274.661 357.92 273.778 357.586 273.195 356.92C272.611 356.236 272.32 355.345 272.32 354.245V346.945H269.995C269.995 346.378 270.12 345.945 270.37 345.645C270.62 345.345 270.961 345.195 271.395 345.195H272.345V342.82C272.345 342.27 272.52 341.87 272.87 341.62C273.236 341.353 273.778 341.22 274.495 341.22V345.195H277.82C277.82 346.361 277.295 346.945 276.245 346.945H274.52V354.17C274.52 354.836 274.636 355.311 274.87 355.595C275.12 355.861 275.561 355.995 276.195 355.995C276.778 355.995 277.328 355.845 277.845 355.545C278.061 355.761 278.17 356.053 278.17 356.42C278.17 356.82 277.961 357.17 277.545 357.47C277.128 357.77 276.561 357.92 275.845 357.92ZM284.921 357.92C283.905 357.92 282.98 357.728 282.146 357.345C281.33 356.961 280.688 356.445 280.221 355.795C279.771 355.128 279.546 354.386 279.546 353.57V349.47C279.546 348.636 279.771 347.878 280.221 347.195C280.688 346.511 281.33 345.97 282.146 345.57C282.963 345.17 283.888 344.97 284.921 344.97C285.955 344.97 286.88 345.17 287.696 345.57C288.53 345.97 289.171 346.511 289.621 347.195C290.088 347.878 290.321 348.636 290.321 349.47V353.57C290.321 354.386 290.088 355.128 289.621 355.795C289.155 356.445 288.513 356.961 287.696 357.345C286.88 357.728 285.955 357.92 284.921 357.92ZM284.921 356.045C285.921 356.045 286.713 355.811 287.296 355.345C287.896 354.861 288.196 354.236 288.196 353.47V349.545C288.196 348.745 287.896 348.095 287.296 347.595C286.713 347.095 285.921 346.845 284.921 346.845C283.938 346.845 283.146 347.095 282.546 347.595C281.946 348.095 281.646 348.745 281.646 349.545V353.47C281.646 354.236 281.938 354.861 282.521 355.345C283.121 355.811 283.921 356.045 284.921 356.045ZM310.004 356.07C310.004 357.303 309.304 357.92 307.904 357.92V356.32C308.054 356.17 308.229 355.945 308.429 355.645L308.329 355.545C307.829 356.261 307.195 356.836 306.429 357.27C305.679 357.703 304.854 357.92 303.954 357.92C303.054 357.92 302.254 357.728 301.554 357.345C300.87 356.961 300.337 356.428 299.954 355.745C299.587 355.061 299.404 354.295 299.404 353.445V346.57C299.404 346.02 299.587 345.62 299.954 345.37C300.32 345.103 300.87 344.97 301.604 344.97V353.345C301.604 354.145 301.837 354.786 302.304 355.27C302.787 355.753 303.495 355.995 304.429 355.995C305.045 355.995 305.612 355.87 306.129 355.62C306.645 355.353 307.054 355.003 307.354 354.57C307.67 354.12 307.829 353.636 307.829 353.12V346.57C307.829 346.02 308.004 345.62 308.354 345.37C308.72 345.103 309.27 344.97 310.004 344.97V356.07ZM318.022 357.92C317.172 357.92 316.372 357.795 315.622 357.545C314.872 357.278 314.263 356.903 313.797 356.42C313.347 355.936 313.122 355.37 313.122 354.72C313.122 353.92 313.605 353.486 314.572 353.42C314.738 354.353 315.13 355.045 315.747 355.495C316.38 355.928 317.18 356.145 318.147 356.145C319.113 356.145 319.863 356.003 320.397 355.72C320.93 355.436 321.197 355.003 321.197 354.42C321.197 354.003 321.088 353.67 320.872 353.42C320.655 353.153 320.305 352.928 319.822 352.745C319.355 352.545 318.68 352.353 317.797 352.17C316.697 351.92 315.822 351.653 315.172 351.37C314.522 351.086 314.022 350.711 313.672 350.245C313.338 349.778 313.172 349.161 313.172 348.395C313.172 347.745 313.372 347.161 313.772 346.645C314.172 346.111 314.722 345.703 315.422 345.42C316.138 345.12 316.947 344.97 317.847 344.97C318.68 344.97 319.463 345.086 320.197 345.32C320.947 345.553 321.547 345.886 321.997 346.32C322.463 346.753 322.697 347.253 322.697 347.82C322.697 348.203 322.547 348.511 322.247 348.745C321.947 348.961 321.53 349.086 320.997 349.12C320.947 348.386 320.647 347.811 320.097 347.395C319.563 346.961 318.813 346.745 317.847 346.745C317.047 346.745 316.413 346.895 315.947 347.195C315.48 347.495 315.247 347.895 315.247 348.395C315.247 348.928 315.463 349.328 315.897 349.595C316.347 349.845 317.105 350.086 318.172 350.32C319.922 350.67 321.205 351.153 322.022 351.77C322.855 352.37 323.272 353.228 323.272 354.345C323.272 355.478 322.813 356.361 321.897 356.995C320.98 357.611 319.688 357.92 318.022 357.92ZM331.168 357.92C330.151 357.92 329.243 357.728 328.443 357.345C327.643 356.945 327.018 356.403 326.568 355.72C326.118 355.02 325.893 354.236 325.893 353.37V349.67C325.893 348.786 326.126 347.986 326.593 347.27C327.076 346.553 327.718 345.995 328.518 345.595C329.335 345.178 330.218 344.97 331.168 344.97C332.118 344.97 332.985 345.17 333.768 345.57C334.568 345.97 335.193 346.52 335.643 347.22C336.11 347.92 336.343 348.711 336.343 349.595V351.195C336.343 351.461 336.243 351.686 336.043 351.87C335.843 352.053 335.601 352.145 335.318 352.145H328.018V353.27C328.018 354.12 328.285 354.803 328.818 355.32C329.368 355.836 330.151 356.095 331.168 356.095C332.185 356.095 332.96 355.87 333.493 355.42C334.026 354.97 334.293 354.361 334.293 353.595C334.793 353.561 335.21 353.661 335.543 353.895C335.893 354.111 336.068 354.436 336.068 354.87C336.068 355.403 335.835 355.903 335.368 356.37C334.918 356.836 334.318 357.211 333.568 357.495C332.818 357.778 332.018 357.92 331.168 357.92ZM334.318 350.445V349.595C334.318 348.761 334.026 348.086 333.443 347.57C332.876 347.036 332.118 346.77 331.168 346.77C330.218 346.77 329.451 347.036 328.868 347.57C328.301 348.086 328.018 348.761 328.018 349.595V350.445H334.318ZM340.254 357.92C339.787 357.92 339.396 357.77 339.079 357.47C338.762 357.153 338.604 356.761 338.604 356.295C338.604 355.828 338.762 355.436 339.079 355.12C339.396 354.803 339.787 354.645 340.254 354.645C340.704 354.645 341.096 354.811 341.429 355.145C341.762 355.461 341.929 355.845 341.929 356.295C341.929 356.745 341.762 357.128 341.429 357.445C341.096 357.761 340.704 357.92 340.254 357.92Z" fill="white" fill-opacity="0.8"/>
<path d="M318.325 120.563H314.65V101.349C314.65 99.0922 313.479 96.9238 311.411 95.3242L288.466 77.5686C286.398 75.9689 283.596 75.0625 280.679 75.0625H270.55V66.5313C270.55 61.8213 265.612 58 259.525 58H200.725C194.638 58 189.7 61.8213 189.7 66.5313V75.0625H176.838C175.827 75.0625 175 75.7023 175 76.4844V79.3281C175 80.1102 175.827 80.75 176.838 80.75H239.312C240.323 80.75 241.15 81.3898 241.15 82.1719V85.0156C241.15 85.7977 240.323 86.4375 239.312 86.4375H184.188C183.177 86.4375 182.35 87.0773 182.35 87.8594V90.7031C182.35 91.4852 183.177 92.125 184.188 92.125H231.963C232.973 92.125 233.8 92.7648 233.8 93.5469V96.3906C233.8 97.1727 232.973 97.8125 231.963 97.8125H176.838C175.827 97.8125 175 98.4523 175 99.2344V102.078C175 102.86 175.827 103.5 176.838 103.5H224.612C225.623 103.5 226.45 104.14 226.45 104.922V107.766C226.45 108.548 225.623 109.188 224.612 109.188H189.7V131.938C189.7 141.357 199.577 149 211.75 149C223.923 149 233.8 141.357 233.8 131.938H263.2C263.2 141.357 273.077 149 285.25 149C297.423 149 307.3 141.357 307.3 131.938H318.325C320.346 131.938 322 130.658 322 129.094V123.406C322 121.842 320.346 120.563 318.325 120.563ZM211.75 140.469C205.663 140.469 200.725 136.647 200.725 131.938C200.725 127.228 205.663 123.406 211.75 123.406C217.837 123.406 222.775 127.228 222.775 131.938C222.775 136.647 217.837 140.469 211.75 140.469ZM285.25 140.469C279.163 140.469 274.225 136.647 274.225 131.938C274.225 127.228 279.163 123.406 285.25 123.406C291.337 123.406 296.275 127.228 296.275 131.938C296.275 136.647 291.337 140.469 285.25 140.469ZM303.625 103.5H270.55V83.5938H280.679L303.625 101.349V103.5Z" fill="#720455" fill-opacity="0.7"/>
</svg>
