<svg width="214" height="196" viewBox="0 0 214 196" fill="none" xmlns="http://www.w3.org/2000/svg">
<path d="M6.98 21.18C5.86 21.18 4.84667 20.9533 3.94 20.5C3.04667 20.0467 2.34667 19.42 1.84 18.62C1.33333 17.82 1.08 16.9133 1.08 15.9V8.8C1.08 8.16 1.30667 7.67333 1.76 7.34C2.21333 6.99333 2.88 6.82 3.76 6.82V15.9C3.76 16.7933 4.05333 17.5067 4.64 18.04C5.22667 18.5733 6.00667 18.84 6.98 18.84C7.95333 18.84 8.73333 18.5733 9.32 18.04C9.90667 17.5067 10.2 16.7933 10.2 15.9V8.8C10.2 8.14667 10.4267 7.65333 10.88 7.32C11.3333 6.98667 12 6.82 12.88 6.82V15.9C12.88 16.9133 12.6267 17.82 12.12 18.62C11.6133 19.42 10.9067 20.0467 10 20.5C9.10667 20.9533 8.1 21.18 6.98 21.18ZM22.8253 21.18C21.6253 21.18 20.5786 21.0333 19.6853 20.74C18.792 20.4467 18.1053 20.0333 17.6253 19.5C17.1586 18.9533 16.9253 18.32 16.9253 17.6C16.9253 16.5067 17.6653 15.96 19.1453 15.96C19.1986 16.9733 19.5386 17.74 20.1653 18.26C20.8053 18.78 21.6986 19.04 22.8453 19.04C23.792 19.04 24.5253 18.88 25.0453 18.56C25.5653 18.2267 25.8253 17.7667 25.8253 17.18C25.8253 16.7933 25.7253 16.48 25.5253 16.24C25.3253 15.9867 24.9853 15.7667 24.5053 15.58C24.0253 15.38 23.3253 15.18 22.4053 14.98C21.0986 14.6733 20.0653 14.3333 19.3053 13.96C18.5586 13.5867 18.0186 13.14 17.6853 12.62C17.352 12.0867 17.1853 11.4267 17.1853 10.64C17.1853 9.88 17.4053 9.21333 17.8453 8.64C18.2986 8.06667 18.932 7.62 19.7453 7.3C20.572 6.98 21.5186 6.82 22.5853 6.82C23.612 6.82 24.5253 6.96 25.3253 7.24C26.1386 7.50667 26.772 7.88667 27.2253 8.38C27.692 8.87333 27.9253 9.44 27.9253 10.08C27.9253 11.0667 27.212 11.58 25.7853 11.62C25.7053 10.7 25.412 10.0267 24.9053 9.6C24.3986 9.17333 23.6253 8.96 22.5853 8.96C21.692 8.96 21.0053 9.10667 20.5253 9.4C20.0453 9.69333 19.8053 10.1067 19.8053 10.64C19.8053 11.0133 19.8986 11.3267 20.0853 11.58C20.272 11.82 20.5853 12.0333 21.0253 12.22C21.4653 12.3933 22.092 12.5733 22.9053 12.76C24.2786 13.0667 25.3653 13.4133 26.1653 13.8C26.9653 14.1733 27.5453 14.6333 27.9053 15.18C28.2653 15.7133 28.4453 16.3733 28.4453 17.16C28.4453 17.9733 28.212 18.6867 27.7453 19.3C27.292 19.9 26.6386 20.3667 25.7853 20.7C24.9453 21.02 23.9586 21.18 22.8253 21.18ZM32.5722 8.22C32.5722 7.88667 32.6989 7.6 32.9522 7.36C33.2189 7.12 33.5389 7 33.9122 7H42.8322C42.8322 7.8 42.6922 8.38667 42.4122 8.76C42.1455 9.12 41.7055 9.3 41.0922 9.3H35.2522V12.78H40.5722C40.5722 13.58 40.4322 14.1667 40.1522 14.54C39.8855 14.9 39.4455 15.08 38.8322 15.08H35.2522V18.7H41.5122C42.1122 18.7 42.5455 18.8867 42.8122 19.26C43.0922 19.62 43.2322 20.2 43.2322 21H33.9122C33.5389 21 33.2189 20.8867 32.9522 20.66C32.6989 20.42 32.5722 20.1267 32.5722 19.78V8.22ZM47.3698 8.22C47.3698 7.88667 47.4965 7.6 47.7498 7.36C48.0165 7.12 48.3365 7 48.7098 7H57.7698C57.7698 7.8 57.6298 8.38667 57.3498 8.76C57.0832 9.12 56.6432 9.3 56.0298 9.3H50.0498V12.68H55.3698C55.3698 13.48 55.2298 14.0667 54.9498 14.44C54.6832 14.8 54.2432 14.98 53.6298 14.98H50.0498V19.28C50.0498 19.9467 49.8365 20.4333 49.4098 20.74C48.9832 21.0333 48.3032 21.18 47.3698 21.18V8.22ZM67.655 21.18C66.535 21.18 65.5217 20.9533 64.615 20.5C63.7217 20.0467 63.0217 19.42 62.515 18.62C62.0083 17.82 61.755 16.9133 61.755 15.9V8.8C61.755 8.16 61.9817 7.67333 62.435 7.34C62.8883 6.99333 63.555 6.82 64.435 6.82V15.9C64.435 16.7933 64.7283 17.5067 65.315 18.04C65.9017 18.5733 66.6817 18.84 67.655 18.84C68.6283 18.84 69.4083 18.5733 69.995 18.04C70.5817 17.5067 70.875 16.7933 70.875 15.9V8.8C70.875 8.14667 71.1017 7.65333 71.555 7.32C72.0083 6.98667 72.675 6.82 73.555 6.82V15.9C73.555 16.9133 73.3017 17.82 72.795 18.62C72.2883 19.42 71.5817 20.0467 70.675 20.5C69.7817 20.9533 68.775 21.18 67.655 21.18ZM79.4003 21C79.0136 21 78.6803 20.86 78.4003 20.58C78.1336 20.3 78.0003 19.9667 78.0003 19.58V8.8C78.0003 8.13333 78.2203 7.64 78.6603 7.32C79.1003 6.98667 79.7736 6.82 80.6803 6.82V18.68H86.0803C86.707 18.68 87.1803 18.88 87.5003 19.28C87.8203 19.6667 87.9803 20.24 87.9803 21H79.4003ZM100.675 21C100.289 21 99.9553 20.86 99.6753 20.58C99.4086 20.3 99.2753 19.9667 99.2753 19.58V8.8C99.2753 8.13333 99.4953 7.64 99.9353 7.32C100.375 6.98667 101.049 6.82 101.955 6.82V18.68H107.355C107.982 18.68 108.455 18.88 108.775 19.28C109.095 19.6667 109.255 20.24 109.255 21H100.675ZM113.594 8.82C113.594 8.19333 113.827 7.70667 114.294 7.36C114.761 7 115.421 6.82 116.274 6.82V19.18C116.274 19.82 116.041 20.3133 115.574 20.66C115.107 21.0067 114.447 21.18 113.594 21.18V8.82ZM121.214 8.94C121.214 8.28667 121.434 7.77333 121.874 7.4C122.314 7.01333 122.908 6.82 123.654 6.82L130.414 17.38L130.614 17.22L129.794 15.86V6.82C130.661 6.82 131.314 6.98667 131.754 7.32C132.208 7.65333 132.434 8.14667 132.434 8.8V19.36C132.434 19.8533 132.221 20.28 131.794 20.64C131.381 21 130.901 21.18 130.354 21.18L123.234 10.04L123.034 10.22L123.854 11.58V19.2C123.854 19.8533 123.628 20.3467 123.174 20.68C122.734 21.0133 122.081 21.18 121.214 21.18V8.94ZM136.969 8.84C136.969 8.18667 137.202 7.68667 137.669 7.34C138.136 6.99333 138.796 6.82 139.649 6.82V13.24L146.349 6.82C146.682 7.06 146.949 7.33333 147.149 7.64C147.362 7.93333 147.469 8.19333 147.469 8.42C147.469 8.62 147.396 8.82 147.249 9.02C147.116 9.20667 146.909 9.43333 146.629 9.7L142.629 13.48L148.129 20.34C147.716 20.9 147.176 21.18 146.509 21.18C145.869 21.18 145.356 20.94 144.969 20.46L140.789 15.16L139.649 16.28V19.28C139.649 19.9333 139.436 20.4133 139.009 20.72C138.582 21.0267 137.902 21.18 136.969 21.18V8.84ZM157.15 21.18C155.95 21.18 154.903 21.0333 154.01 20.74C153.116 20.4467 152.43 20.0333 151.95 19.5C151.483 18.9533 151.25 18.32 151.25 17.6C151.25 16.5067 151.99 15.96 153.47 15.96C153.523 16.9733 153.863 17.74 154.49 18.26C155.13 18.78 156.023 19.04 157.17 19.04C158.116 19.04 158.85 18.88 159.37 18.56C159.89 18.2267 160.15 17.7667 160.15 17.18C160.15 16.7933 160.05 16.48 159.85 16.24C159.65 15.9867 159.31 15.7667 158.83 15.58C158.35 15.38 157.65 15.18 156.73 14.98C155.423 14.6733 154.39 14.3333 153.63 13.96C152.883 13.5867 152.343 13.14 152.01 12.62C151.676 12.0867 151.51 11.4267 151.51 10.64C151.51 9.88 151.73 9.21333 152.17 8.64C152.623 8.06667 153.256 7.62 154.07 7.3C154.896 6.98 155.843 6.82 156.91 6.82C157.936 6.82 158.85 6.96 159.65 7.24C160.463 7.50667 161.096 7.88667 161.55 8.38C162.016 8.87333 162.25 9.44 162.25 10.08C162.25 11.0667 161.536 11.58 160.11 11.62C160.03 10.7 159.736 10.0267 159.23 9.6C158.723 9.17333 157.95 8.96 156.91 8.96C156.016 8.96 155.33 9.10667 154.85 9.4C154.37 9.69333 154.13 10.1067 154.13 10.64C154.13 11.0133 154.223 11.3267 154.41 11.58C154.596 11.82 154.91 12.0333 155.35 12.22C155.79 12.3933 156.416 12.5733 157.23 12.76C158.603 13.0667 159.69 13.4133 160.49 13.8C161.29 14.1733 161.87 14.6333 162.23 15.18C162.59 15.7133 162.77 16.3733 162.77 17.16C162.77 17.9733 162.536 18.6867 162.07 19.3C161.616 19.9 160.963 20.3667 160.11 20.7C159.27 21.02 158.283 21.18 157.15 21.18Z" fill="white"/>
<path d="M1.95 64.135C1.52 64.085 1.18 63.935 0.93 63.685C0.69 63.435 0.57 63.12 0.57 62.74C0.57 62.45 0.64 62.15 0.78 61.84L4.215 54.025C4.405 53.585 4.735 53.365 5.205 53.365C5.665 53.365 5.99 53.585 6.18 54.025L9.615 61.84C9.755 62.17 9.825 62.47 9.825 62.74C9.825 63.12 9.7 63.435 9.45 63.685C9.21 63.935 8.87 64.085 8.43 64.135L7.17 61.285H3.225L1.95 64.135ZM6.555 59.575L4.905 55.465L4.725 55.54L5.085 56.47L3.825 59.575H6.555ZM12.9354 54.625C12.9354 54.225 13.0904 53.915 13.4004 53.695C13.7204 53.475 14.1954 53.365 14.8254 53.365V56.845C14.6854 56.955 14.5754 57.055 14.4954 57.145L14.5554 57.22C14.8254 56.96 15.1754 56.755 15.6054 56.605C16.0454 56.445 16.4504 56.365 16.8204 56.365C17.7104 56.365 18.4204 56.615 18.9504 57.115C19.4804 57.605 19.7454 58.25 19.7454 59.05V61.435C19.7454 61.955 19.6154 62.42 19.3554 62.83C19.0954 63.24 18.7454 63.56 18.3054 63.79C17.8654 64.02 17.3954 64.135 16.8954 64.135C16.3654 64.135 15.9004 64.03 15.5004 63.82C15.1104 63.6 14.7554 63.28 14.4354 62.86L14.3754 62.92C14.4154 62.99 14.4654 63.06 14.5254 63.13C14.5854 63.2 14.6304 63.255 14.6604 63.295C14.6604 63.575 14.5254 63.785 14.2554 63.925C13.9854 64.065 13.5454 64.135 12.9354 64.135V54.625ZM16.3404 62.515C16.8404 62.515 17.2204 62.415 17.4804 62.215C17.7504 62.005 17.8854 61.7 17.8854 61.3V59.17C17.8854 58.79 17.7504 58.5 17.4804 58.3C17.2104 58.09 16.8304 57.985 16.3404 57.985C15.9004 57.985 15.5304 58.095 15.2304 58.315C14.9404 58.535 14.7954 58.8 14.7954 59.11V61.375C14.7954 61.705 14.9404 61.98 15.2304 62.2C15.5204 62.41 15.8904 62.515 16.3404 62.515ZM25.8503 64.135C25.2003 64.135 24.6103 64.02 24.0803 63.79C23.5603 63.55 23.1503 63.22 22.8503 62.8C22.5503 62.38 22.4003 61.905 22.4003 61.375V59.26C22.4003 58.72 22.5453 58.23 22.8353 57.79C23.1353 57.35 23.5453 57.005 24.0653 56.755C24.5853 56.495 25.1803 56.365 25.8503 56.365C26.5203 56.365 27.1153 56.495 27.6353 56.755C28.1653 57.005 28.5753 57.35 28.8653 57.79C29.1653 58.23 29.3153 58.72 29.3153 59.26V61.375C29.3153 61.905 29.1603 62.38 28.8503 62.8C28.5503 63.22 28.1353 63.55 27.6053 63.79C27.0853 64.02 26.5003 64.135 25.8503 64.135ZM25.8503 62.53C26.3503 62.53 26.7403 62.415 27.0203 62.185C27.3103 61.955 27.4553 61.645 27.4553 61.255V59.35C27.4553 58.94 27.3103 58.61 27.0203 58.36C26.7403 58.1 26.3503 57.97 25.8503 57.97C25.3603 57.97 24.9703 58.1 24.6803 58.36C24.3903 58.61 24.2453 58.94 24.2453 59.35V61.255C24.2453 61.645 24.3903 61.955 24.6803 62.185C24.9703 62.415 25.3603 62.53 25.8503 62.53ZM38.7154 62.68C38.7154 63.15 38.5654 63.51 38.2654 63.76C37.9754 64.01 37.5304 64.135 36.9304 64.135V63.235C37.0604 63.085 37.1804 62.92 37.2904 62.74L37.2004 62.68C36.5604 63.65 35.7004 64.135 34.6204 64.135C34.1104 64.135 33.6504 64.02 33.2404 63.79C32.8404 63.55 32.5204 63.22 32.2804 62.8C32.0504 62.38 31.9354 61.905 31.9354 61.375V57.505C31.9354 57.095 32.0854 56.805 32.3854 56.635C32.6954 56.455 33.1654 56.365 33.7954 56.365V61.24C33.7954 61.63 33.9154 61.94 34.1554 62.17C34.3954 62.4 34.7404 62.515 35.1904 62.515C35.6904 62.515 36.0904 62.36 36.3904 62.05C36.7004 61.73 36.8554 61.335 36.8554 60.865V57.505C36.8554 57.095 37.0054 56.805 37.3054 56.635C37.6054 56.455 38.0754 56.365 38.7154 56.365V62.68ZM45.4202 64.135C44.6102 64.135 44.0102 63.9 43.6202 63.43C43.2302 62.96 43.0352 62.355 43.0352 61.615V57.895H41.4902C41.4902 57.425 41.5802 57.075 41.7602 56.845C41.9402 56.615 42.1802 56.5 42.4802 56.5H43.0652V55.255C43.0652 54.845 43.2152 54.555 43.5152 54.385C43.8152 54.205 44.2702 54.115 44.8802 54.115V56.5H46.8752C46.8752 57 46.7802 57.36 46.5902 57.58C46.4002 57.79 46.0952 57.895 45.6752 57.895H44.9102V61.54C44.9102 61.89 44.9752 62.14 45.1052 62.29C45.2452 62.44 45.4802 62.515 45.8102 62.515C46.1602 62.515 46.5102 62.42 46.8602 62.23C46.9602 62.32 47.0402 62.435 47.1002 62.575C47.1602 62.705 47.1902 62.84 47.1902 62.98C47.1902 63.28 47.0352 63.55 46.7252 63.79C46.4152 64.02 45.9802 64.135 45.4202 64.135ZM62.4154 62.68C62.4154 63.15 62.2654 63.51 61.9654 63.76C61.6754 64.01 61.2304 64.135 60.6304 64.135V63.235C60.7604 63.085 60.8804 62.92 60.9904 62.74L60.9004 62.68C60.2604 63.65 59.4004 64.135 58.3204 64.135C57.8104 64.135 57.3504 64.02 56.9404 63.79C56.5404 63.55 56.2204 63.22 55.9804 62.8C55.7504 62.38 55.6354 61.905 55.6354 61.375V57.505C55.6354 57.095 55.7854 56.805 56.0854 56.635C56.3954 56.455 56.8654 56.365 57.4954 56.365V61.24C57.4954 61.63 57.6154 61.94 57.8554 62.17C58.0954 62.4 58.4404 62.515 58.8904 62.515C59.3904 62.515 59.7904 62.36 60.0904 62.05C60.4004 61.73 60.5554 61.335 60.5554 60.865V57.505C60.5554 57.095 60.7054 56.805 61.0054 56.635C61.3054 56.455 61.7754 56.365 62.4154 56.365V62.68ZM68.8736 64.135C67.9136 64.135 67.1386 63.965 66.5486 63.625C65.9686 63.275 65.6736 62.81 65.6636 62.23C65.6636 61.98 65.7636 61.77 65.9636 61.6C66.1736 61.43 66.5036 61.34 66.9536 61.33C67.0436 61.77 67.2536 62.11 67.5836 62.35C67.9136 62.58 68.3136 62.695 68.7836 62.695C69.2936 62.695 69.6936 62.63 69.9836 62.5C70.2736 62.37 70.4186 62.175 70.4186 61.915C70.4186 61.675 70.2986 61.475 70.0586 61.315C69.8286 61.155 69.3686 60.995 68.6786 60.835C67.9286 60.655 67.3436 60.475 66.9236 60.295C66.5136 60.115 66.2086 59.885 66.0086 59.605C65.8086 59.325 65.7086 58.955 65.7086 58.495C65.7086 57.855 65.9786 57.34 66.5186 56.95C67.0586 56.56 67.7986 56.365 68.7386 56.365C69.6486 56.365 70.4036 56.53 71.0036 56.86C71.6036 57.18 71.9036 57.61 71.9036 58.15C71.9036 58.42 71.8036 58.62 71.6036 58.75C71.4036 58.88 71.0736 58.95 70.6136 58.96C70.5136 58.56 70.3236 58.26 70.0436 58.06C69.7636 57.86 69.3686 57.76 68.8586 57.76C68.4786 57.76 68.1486 57.825 67.8686 57.955C67.5986 58.085 67.4636 58.255 67.4636 58.465C67.4636 58.685 67.5786 58.855 67.8086 58.975C68.0386 59.095 68.4386 59.215 69.0086 59.335C70.1286 59.575 70.9386 59.895 71.4386 60.295C71.9486 60.695 72.2036 61.24 72.2036 61.93C72.2036 62.6 71.9036 63.135 71.3036 63.535C70.7136 63.935 69.9036 64.135 68.8736 64.135Z" fill="white" fill-opacity="0.7"/>
<path d="M5.205 96.135C4.315 96.135 3.52 95.965 2.82 95.625C2.13 95.285 1.59 94.81 1.2 94.2C0.81 93.59 0.615 92.895 0.615 92.115V89.355C0.615 88.575 0.805 87.885 1.185 87.285C1.575 86.675 2.11 86.205 2.79 85.875C3.47 85.535 4.25 85.365 5.13 85.365C6.01 85.365 6.79 85.5 7.47 85.77C8.16 86.03 8.695 86.4 9.075 86.88C9.455 87.35 9.645 87.89 9.645 88.5C9.645 88.87 9.52 89.165 9.27 89.385C9.03 89.595 8.705 89.7 8.295 89.7C8.095 89.7 7.875 89.67 7.635 89.61C7.655 89.37 7.665 89.135 7.665 88.905C7.665 88.375 7.43 87.945 6.96 87.615C6.49 87.285 5.88 87.12 5.13 87.12C4.39 87.12 3.785 87.33 3.315 87.75C2.855 88.16 2.625 88.695 2.625 89.355V92.115C2.625 92.785 2.865 93.33 3.345 93.75C3.825 94.17 4.445 94.38 5.205 94.38C5.955 94.38 6.565 94.215 7.035 93.885C7.505 93.555 7.74 93.13 7.74 92.61C7.74 92.37 7.73 92.14 7.71 91.92C7.96 91.87 8.17 91.845 8.34 91.845C8.76 91.845 9.095 91.955 9.345 92.175C9.595 92.395 9.72 92.695 9.72 93.075C9.72 93.665 9.53 94.195 9.15 94.665C8.77 95.125 8.235 95.485 7.545 95.745C6.865 96.005 6.085 96.135 5.205 96.135ZM15.5723 96.135C14.9223 96.135 14.3323 96.02 13.8023 95.79C13.2823 95.55 12.8723 95.22 12.5723 94.8C12.2723 94.38 12.1223 93.905 12.1223 93.375V91.26C12.1223 90.72 12.2673 90.23 12.5573 89.79C12.8573 89.35 13.2673 89.005 13.7873 88.755C14.3073 88.495 14.9023 88.365 15.5723 88.365C16.2423 88.365 16.8373 88.495 17.3573 88.755C17.8873 89.005 18.2973 89.35 18.5873 89.79C18.8873 90.23 19.0373 90.72 19.0373 91.26V93.375C19.0373 93.905 18.8823 94.38 18.5723 94.8C18.2723 95.22 17.8573 95.55 17.3273 95.79C16.8073 96.02 16.2223 96.135 15.5723 96.135ZM15.5723 94.53C16.0723 94.53 16.4623 94.415 16.7423 94.185C17.0323 93.955 17.1773 93.645 17.1773 93.255V91.35C17.1773 90.94 17.0323 90.61 16.7423 90.36C16.4623 90.1 16.0723 89.97 15.5723 89.97C15.0823 89.97 14.6923 90.1 14.4023 90.36C14.1123 90.61 13.9673 90.94 13.9673 91.35V93.255C13.9673 93.645 14.1123 93.955 14.4023 94.185C14.6923 94.415 15.0823 94.53 15.5723 94.53ZM21.8657 89.805C21.8657 89.345 22.0107 88.99 22.3007 88.74C22.6007 88.49 23.0507 88.365 23.6507 88.365V89.265C23.5307 89.405 23.4107 89.565 23.2907 89.745L23.3807 89.805C23.6807 89.355 24.0657 89.005 24.5357 88.755C25.0057 88.495 25.5257 88.365 26.0957 88.365C26.6057 88.365 27.0557 88.48 27.4457 88.71C27.8357 88.94 28.1357 89.255 28.3457 89.655C28.5657 90.055 28.6757 90.505 28.6757 91.005V94.995C28.6757 95.395 28.5207 95.685 28.2107 95.865C27.9007 96.045 27.4307 96.135 26.8007 96.135V91.275C26.8007 90.895 26.6857 90.585 26.4557 90.345C26.2357 90.105 25.9107 89.985 25.4807 89.985C24.9707 89.985 24.5507 90.145 24.2207 90.465C23.8907 90.775 23.7257 91.165 23.7257 91.635V94.995C23.7257 95.395 23.5757 95.685 23.2757 95.865C22.9757 96.045 22.5057 96.135 21.8657 96.135V89.805ZM35.2888 96.135C34.4788 96.135 33.8788 95.9 33.4888 95.43C33.0988 94.96 32.9038 94.355 32.9038 93.615V89.895H31.3588C31.3588 89.425 31.4488 89.075 31.6288 88.845C31.8088 88.615 32.0488 88.5 32.3488 88.5H32.9338V87.255C32.9338 86.845 33.0838 86.555 33.3838 86.385C33.6838 86.205 34.1388 86.115 34.7488 86.115V88.5H36.7438C36.7438 89 36.6488 89.36 36.4588 89.58C36.2688 89.79 35.9638 89.895 35.5438 89.895H34.7788V93.54C34.7788 93.89 34.8438 94.14 34.9738 94.29C35.1138 94.44 35.3488 94.515 35.6788 94.515C36.0288 94.515 36.3788 94.42 36.7288 94.23C36.8288 94.32 36.9088 94.435 36.9688 94.575C37.0288 94.705 37.0588 94.84 37.0588 94.98C37.0588 95.28 36.9038 95.55 36.5938 95.79C36.2838 96.02 35.8488 96.135 35.2888 96.135ZM42.1576 96.135C41.6476 96.135 41.1776 96.035 40.7476 95.835C40.3276 95.635 39.9876 95.35 39.7276 94.98C39.4776 94.6 39.3526 94.15 39.3526 93.63C39.3526 93.11 39.4876 92.66 39.7576 92.28C40.0276 91.89 40.3926 91.595 40.8526 91.395C41.3226 91.185 41.8376 91.08 42.3976 91.08C42.8576 91.08 43.2676 91.155 43.6276 91.305C43.9976 91.445 44.3376 91.66 44.6476 91.95L44.7226 91.875C44.6326 91.785 44.4776 91.65 44.2576 91.47V91.17C44.2576 90.76 44.1126 90.435 43.8226 90.195C43.5326 89.955 43.1276 89.835 42.6076 89.835C41.6776 89.835 40.9926 90.175 40.5526 90.855C40.3326 90.785 40.1476 90.675 39.9976 90.525C39.8476 90.365 39.7726 90.195 39.7726 90.015C39.7726 89.715 39.9076 89.44 40.1776 89.19C40.4476 88.94 40.8126 88.74 41.2726 88.59C41.7326 88.44 42.2326 88.365 42.7726 88.365C43.8326 88.365 44.6526 88.615 45.2326 89.115C45.8126 89.605 46.1026 90.275 46.1026 91.125V94.875C46.1026 95.315 45.9626 95.635 45.6826 95.835C45.4026 96.035 44.9626 96.135 44.3626 96.135V95.52C44.5326 95.35 44.6476 95.225 44.7076 95.145L44.6476 95.07C44.3176 95.42 43.9626 95.685 43.5826 95.865C43.2126 96.045 42.7376 96.135 42.1576 96.135ZM42.6376 94.77C43.1576 94.77 43.5626 94.67 43.8526 94.47C44.1426 94.27 44.2876 93.985 44.2876 93.615C44.2876 93.255 44.1376 92.97 43.8376 92.76C43.5476 92.55 43.1526 92.445 42.6526 92.445C42.1926 92.445 41.8276 92.55 41.5576 92.76C41.2976 92.96 41.1676 93.245 41.1676 93.615C41.1676 93.995 41.2976 94.285 41.5576 94.485C41.8176 94.675 42.1776 94.77 42.6376 94.77ZM52.4381 96.135C51.7881 96.135 51.2131 96.02 50.7131 95.79C50.2131 95.55 49.8231 95.22 49.5431 94.8C49.2631 94.38 49.1231 93.905 49.1231 93.375V91.275C49.1231 90.705 49.2631 90.2 49.5431 89.76C49.8231 89.32 50.2131 88.98 50.7131 88.74C51.2131 88.49 51.7831 88.365 52.4231 88.365C53.0231 88.365 53.5531 88.45 54.0131 88.62C54.4831 88.79 54.8481 89.03 55.1081 89.34C55.3681 89.64 55.4981 89.99 55.4981 90.39C55.4981 90.7 55.3781 90.95 55.1381 91.14C54.8981 91.33 54.5831 91.425 54.1931 91.425C54.0831 91.425 54.0031 91.42 53.9531 91.41C53.9531 90.98 53.8131 90.635 53.5331 90.375C53.2631 90.115 52.9081 89.985 52.4681 89.985C52.0281 89.985 51.6681 90.11 51.3881 90.36C51.1181 90.61 50.9831 90.94 50.9831 91.35V93.24C50.9831 93.62 51.1231 93.93 51.4031 94.17C51.6831 94.4 52.0431 94.515 52.4831 94.515C52.9231 94.515 53.2831 94.385 53.5631 94.125C53.8431 93.855 53.9831 93.515 53.9831 93.105C54.0431 93.095 54.1281 93.09 54.2381 93.09C54.6281 93.09 54.9431 93.18 55.1831 93.36C55.4231 93.54 55.5431 93.785 55.5431 94.095C55.5431 94.495 55.4081 94.85 55.1381 95.16C54.8781 95.46 54.5131 95.7 54.0431 95.88C53.5731 96.05 53.0381 96.135 52.4381 96.135ZM61.6988 96.135C60.8888 96.135 60.2888 95.9 59.8988 95.43C59.5088 94.96 59.3138 94.355 59.3138 93.615V89.895H57.7688C57.7688 89.425 57.8588 89.075 58.0388 88.845C58.2188 88.615 58.4588 88.5 58.7588 88.5H59.3438V87.255C59.3438 86.845 59.4938 86.555 59.7938 86.385C60.0938 86.205 60.5488 86.115 61.1588 86.115V88.5H63.1538C63.1538 89 63.0588 89.36 62.8688 89.58C62.6788 89.79 62.3738 89.895 61.9538 89.895H61.1888V93.54C61.1888 93.89 61.2538 94.14 61.3838 94.29C61.5238 94.44 61.7588 94.515 62.0888 94.515C62.4388 94.515 62.7888 94.42 63.1388 94.23C63.2388 94.32 63.3188 94.435 63.3788 94.575C63.4388 94.705 63.4688 94.84 63.4688 94.98C63.4688 95.28 63.3138 95.55 63.0038 95.79C62.6938 96.02 62.2588 96.135 61.6988 96.135Z" fill="white" fill-opacity="0.7"/>
<path d="M0.885 118.415C0.885 118.155 0.98 117.94 1.17 117.77C1.36 117.59 1.6 117.5 1.89 117.5H6.06C6.78 117.5 7.415 117.645 7.965 117.935C8.525 118.215 8.955 118.62 9.255 119.15C9.565 119.67 9.72 120.275 9.72 120.965C9.72 121.665 9.57 122.28 9.27 122.81C8.97 123.33 8.545 123.735 7.995 124.025C7.445 124.305 6.8 124.445 6.06 124.445H2.895V126.65C2.895 127.13 2.72 127.5 2.37 127.76C2.03 128.01 1.535 128.135 0.885 128.135V118.415ZM6.06 122.705C6.59 122.705 7 122.55 7.29 122.24C7.58 121.93 7.725 121.5 7.725 120.95C7.725 120.41 7.575 119.99 7.275 119.69C6.985 119.39 6.58 119.24 6.06 119.24H2.895V122.705H6.06ZM16.1459 121.985C15.5559 121.985 15.0759 122.145 14.7059 122.465C14.3359 122.775 14.1509 123.165 14.1509 123.635V126.995C14.1509 127.395 14.0009 127.685 13.7009 127.865C13.4009 128.045 12.9309 128.135 12.2909 128.135V121.805C12.2909 121.345 12.4359 120.99 12.7259 120.74C13.0259 120.49 13.4759 120.365 14.0759 120.365V121.25C13.9259 121.42 13.8059 121.585 13.7159 121.745L13.8059 121.805C14.4359 120.845 15.2259 120.365 16.1759 120.365C16.6059 120.365 16.9309 120.48 17.1509 120.71C17.3709 120.93 17.4809 121.21 17.4809 121.55C17.4809 121.81 17.4109 122.03 17.2709 122.21C17.0009 122.06 16.6259 121.985 16.1459 121.985ZM21.2796 119.66C20.9196 119.66 20.6196 119.555 20.3796 119.345C20.1496 119.125 20.0346 118.845 20.0346 118.505C20.0346 118.175 20.1496 117.905 20.3796 117.695C20.6196 117.475 20.9196 117.365 21.2796 117.365C21.6396 117.365 21.9346 117.475 22.1646 117.695C22.4046 117.905 22.5246 118.175 22.5246 118.505C22.5246 118.845 22.4046 119.125 22.1646 119.345C21.9346 119.555 21.6396 119.66 21.2796 119.66ZM20.3346 121.505C20.3346 121.095 20.4896 120.805 20.7996 120.635C21.1096 120.455 21.5796 120.365 22.2096 120.365V126.995C22.2096 127.395 22.0546 127.685 21.7446 127.865C21.4346 128.045 20.9646 128.135 20.3346 128.135V121.505ZM28.9414 128.135C28.7014 128.135 28.4914 128.08 28.3114 127.97C28.1414 127.86 28.0214 127.71 27.9514 127.52L25.2514 120.515C25.3214 120.475 25.4414 120.44 25.6114 120.41C25.7914 120.38 25.9364 120.365 26.0464 120.365C26.3364 120.365 26.5964 120.425 26.8264 120.545C27.0664 120.665 27.2264 120.84 27.3064 121.07L28.8514 125.75L28.5964 126.455L28.7164 126.485L30.5764 121.07C30.6564 120.84 30.8114 120.665 31.0414 120.545C31.2814 120.425 31.5464 120.365 31.8364 120.365C31.9464 120.365 32.0864 120.38 32.2564 120.41C32.4364 120.44 32.5614 120.475 32.6314 120.515L29.9314 127.52C29.8614 127.71 29.7364 127.86 29.5564 127.97C29.3864 128.08 29.1814 128.135 28.9414 128.135ZM37.4115 128.135C36.9015 128.135 36.4315 128.035 36.0015 127.835C35.5815 127.635 35.2415 127.35 34.9815 126.98C34.7315 126.6 34.6065 126.15 34.6065 125.63C34.6065 125.11 34.7415 124.66 35.0115 124.28C35.2815 123.89 35.6465 123.595 36.1065 123.395C36.5765 123.185 37.0915 123.08 37.6515 123.08C38.1115 123.08 38.5215 123.155 38.8815 123.305C39.2515 123.445 39.5915 123.66 39.9015 123.95L39.9765 123.875C39.8865 123.785 39.7315 123.65 39.5115 123.47V123.17C39.5115 122.76 39.3665 122.435 39.0765 122.195C38.7865 121.955 38.3815 121.835 37.8615 121.835C36.9315 121.835 36.2465 122.175 35.8065 122.855C35.5865 122.785 35.4015 122.675 35.2515 122.525C35.1015 122.365 35.0265 122.195 35.0265 122.015C35.0265 121.715 35.1615 121.44 35.4315 121.19C35.7015 120.94 36.0665 120.74 36.5265 120.59C36.9865 120.44 37.4865 120.365 38.0265 120.365C39.0865 120.365 39.9065 120.615 40.4865 121.115C41.0665 121.605 41.3565 122.275 41.3565 123.125V126.875C41.3565 127.315 41.2165 127.635 40.9365 127.835C40.6565 128.035 40.2165 128.135 39.6165 128.135V127.52C39.7865 127.35 39.9015 127.225 39.9615 127.145L39.9015 127.07C39.5715 127.42 39.2165 127.685 38.8365 127.865C38.4665 128.045 37.9915 128.135 37.4115 128.135ZM37.8915 126.77C38.4115 126.77 38.8165 126.67 39.1065 126.47C39.3965 126.27 39.5415 125.985 39.5415 125.615C39.5415 125.255 39.3915 124.97 39.0915 124.76C38.8015 124.55 38.4065 124.445 37.9065 124.445C37.4465 124.445 37.0815 124.55 36.8115 124.76C36.5515 124.96 36.4215 125.245 36.4215 125.615C36.4215 125.995 36.5515 126.285 36.8115 126.485C37.0715 126.675 37.4315 126.77 37.8915 126.77ZM47.692 128.135C47.042 128.135 46.467 128.02 45.967 127.79C45.467 127.55 45.077 127.22 44.797 126.8C44.517 126.38 44.377 125.905 44.377 125.375V123.275C44.377 122.705 44.517 122.2 44.797 121.76C45.077 121.32 45.467 120.98 45.967 120.74C46.467 120.49 47.037 120.365 47.677 120.365C48.277 120.365 48.807 120.45 49.267 120.62C49.737 120.79 50.102 121.03 50.362 121.34C50.622 121.64 50.752 121.99 50.752 122.39C50.752 122.7 50.632 122.95 50.392 123.14C50.152 123.33 49.837 123.425 49.447 123.425C49.337 123.425 49.257 123.42 49.207 123.41C49.207 122.98 49.067 122.635 48.787 122.375C48.517 122.115 48.162 121.985 47.722 121.985C47.282 121.985 46.922 122.11 46.642 122.36C46.372 122.61 46.237 122.94 46.237 123.35V125.24C46.237 125.62 46.377 125.93 46.657 126.17C46.937 126.4 47.297 126.515 47.737 126.515C48.177 126.515 48.537 126.385 48.817 126.125C49.097 125.855 49.237 125.515 49.237 125.105C49.297 125.095 49.382 125.09 49.492 125.09C49.882 125.09 50.197 125.18 50.437 125.36C50.677 125.54 50.797 125.785 50.797 126.095C50.797 126.495 50.662 126.85 50.392 127.16C50.132 127.46 49.767 127.7 49.297 127.88C48.827 128.05 48.292 128.135 47.692 128.135ZM54.4069 131.135C54.0169 131.135 53.7069 131 53.4769 130.73C53.2569 130.46 53.1469 130.07 53.1469 129.56C53.4469 129.61 53.6969 129.635 53.8969 129.635C54.2769 129.635 54.5769 129.535 54.7969 129.335C55.0269 129.135 55.2769 128.735 55.5469 128.135L55.7869 127.58L52.8919 120.515C52.9619 120.475 53.0819 120.44 53.2519 120.41C53.4319 120.38 53.5769 120.365 53.6869 120.365C53.9769 120.365 54.2419 120.43 54.4819 120.56C54.7219 120.68 54.8869 120.85 54.9769 121.07L56.5819 125.285L56.3269 125.99L56.4619 126.035L58.3969 121.07C58.4869 120.84 58.6469 120.665 58.8769 120.545C59.1169 120.425 59.3819 120.365 59.6719 120.365C59.7819 120.365 59.9219 120.38 60.0919 120.41C60.2719 120.44 60.4019 120.475 60.4819 120.515L57.1219 128.675C56.7719 129.515 56.3869 130.135 55.9669 130.535C55.5569 130.935 55.0369 131.135 54.4069 131.135ZM69.0899 118.415C69.0899 118.155 69.1849 117.94 69.3749 117.77C69.5649 117.59 69.8049 117.5 70.0949 117.5H74.2649C74.9849 117.5 75.6199 117.645 76.1699 117.935C76.7299 118.215 77.1599 118.62 77.4599 119.15C77.7699 119.67 77.9249 120.275 77.9249 120.965C77.9249 121.665 77.7749 122.28 77.4749 122.81C77.1749 123.33 76.7499 123.735 76.1999 124.025C75.6499 124.305 75.0049 124.445 74.2649 124.445H71.0999V126.65C71.0999 127.13 70.9249 127.5 70.5749 127.76C70.2349 128.01 69.7399 128.135 69.0899 128.135V118.415ZM74.2649 122.705C74.7949 122.705 75.2049 122.55 75.4949 122.24C75.7849 121.93 75.9299 121.5 75.9299 120.95C75.9299 120.41 75.7799 119.99 75.4799 119.69C75.1899 119.39 74.7849 119.24 74.2649 119.24H71.0999V122.705H74.2649ZM83.1327 128.135C82.4827 128.135 81.8927 128.02 81.3627 127.79C80.8427 127.55 80.4327 127.22 80.1327 126.8C79.8327 126.38 79.6827 125.905 79.6827 125.375V123.26C79.6827 122.72 79.8277 122.23 80.1177 121.79C80.4177 121.35 80.8277 121.005 81.3477 120.755C81.8677 120.495 82.4627 120.365 83.1327 120.365C83.8027 120.365 84.3977 120.495 84.9177 120.755C85.4477 121.005 85.8577 121.35 86.1477 121.79C86.4477 122.23 86.5977 122.72 86.5977 123.26V125.375C86.5977 125.905 86.4427 126.38 86.1327 126.8C85.8327 127.22 85.4177 127.55 84.8877 127.79C84.3677 128.02 83.7827 128.135 83.1327 128.135ZM83.1327 126.53C83.6327 126.53 84.0227 126.415 84.3027 126.185C84.5927 125.955 84.7377 125.645 84.7377 125.255V123.35C84.7377 122.94 84.5927 122.61 84.3027 122.36C84.0227 122.1 83.6327 121.97 83.1327 121.97C82.6427 121.97 82.2527 122.1 81.9627 122.36C81.6727 122.61 81.5277 122.94 81.5277 123.35V125.255C81.5277 125.645 81.6727 125.955 81.9627 126.185C82.2527 126.415 82.6427 126.53 83.1327 126.53ZM92.1643 128.135C91.3343 128.135 90.7043 127.9 90.2743 127.43C89.8543 126.95 89.6443 126.345 89.6443 125.615V118.505C89.6443 118.095 89.7943 117.805 90.0943 117.635C90.4043 117.455 90.8793 117.365 91.5193 117.365V125.54C91.5193 125.88 91.5943 126.13 91.7443 126.29C91.8943 126.44 92.1343 126.515 92.4643 126.515C92.8343 126.515 93.2043 126.42 93.5743 126.23C93.6743 126.32 93.7493 126.435 93.7993 126.575C93.8593 126.705 93.8893 126.84 93.8893 126.98C93.8893 127.28 93.7393 127.55 93.4393 127.79C93.1393 128.02 92.7143 128.135 92.1643 128.135ZM98.0779 119.66C97.7179 119.66 97.4179 119.555 97.1779 119.345C96.9479 119.125 96.8329 118.845 96.8329 118.505C96.8329 118.175 96.9479 117.905 97.1779 117.695C97.4179 117.475 97.7179 117.365 98.0779 117.365C98.4379 117.365 98.7329 117.475 98.9629 117.695C99.2029 117.905 99.3229 118.175 99.3229 118.505C99.3229 118.845 99.2029 119.125 98.9629 119.345C98.7329 119.555 98.4379 119.66 98.0779 119.66ZM97.1329 121.505C97.1329 121.095 97.2879 120.805 97.5979 120.635C97.9079 120.455 98.3779 120.365 99.0079 120.365V126.995C99.0079 127.395 98.8529 127.685 98.5429 127.865C98.2329 128.045 97.7629 128.135 97.1329 128.135V121.505ZM105.971 128.135C105.321 128.135 104.746 128.02 104.246 127.79C103.746 127.55 103.356 127.22 103.076 126.8C102.796 126.38 102.656 125.905 102.656 125.375V123.275C102.656 122.705 102.796 122.2 103.076 121.76C103.356 121.32 103.746 120.98 104.246 120.74C104.746 120.49 105.316 120.365 105.956 120.365C106.556 120.365 107.086 120.45 107.546 120.62C108.016 120.79 108.381 121.03 108.641 121.34C108.901 121.64 109.031 121.99 109.031 122.39C109.031 122.7 108.911 122.95 108.671 123.14C108.431 123.33 108.116 123.425 107.726 123.425C107.616 123.425 107.536 123.42 107.486 123.41C107.486 122.98 107.346 122.635 107.066 122.375C106.796 122.115 106.441 121.985 106.001 121.985C105.561 121.985 105.201 122.11 104.921 122.36C104.651 122.61 104.516 122.94 104.516 123.35V125.24C104.516 125.62 104.656 125.93 104.936 126.17C105.216 126.4 105.576 126.515 106.016 126.515C106.456 126.515 106.816 126.385 107.096 126.125C107.376 125.855 107.516 125.515 107.516 125.105C107.576 125.095 107.661 125.09 107.771 125.09C108.161 125.09 108.476 125.18 108.716 125.36C108.956 125.54 109.076 125.785 109.076 126.095C109.076 126.495 108.941 126.85 108.671 127.16C108.411 127.46 108.046 127.7 107.576 127.88C107.106 128.05 106.571 128.135 105.971 128.135ZM112.685 131.135C112.295 131.135 111.985 131 111.755 130.73C111.535 130.46 111.425 130.07 111.425 129.56C111.725 129.61 111.975 129.635 112.175 129.635C112.555 129.635 112.855 129.535 113.075 129.335C113.305 129.135 113.555 128.735 113.825 128.135L114.065 127.58L111.17 120.515C111.24 120.475 111.36 120.44 111.53 120.41C111.71 120.38 111.855 120.365 111.965 120.365C112.255 120.365 112.52 120.43 112.76 120.56C113 120.68 113.165 120.85 113.255 121.07L114.86 125.285L114.605 125.99L114.74 126.035L116.675 121.07C116.765 120.84 116.925 120.665 117.155 120.545C117.395 120.425 117.66 120.365 117.95 120.365C118.06 120.365 118.2 120.38 118.37 120.41C118.55 120.44 118.68 120.475 118.76 120.515L115.4 128.675C115.05 129.515 114.665 130.135 114.245 130.535C113.835 130.935 113.315 131.135 112.685 131.135Z" fill="white" fill-opacity="0.7"/>
<path d="M4.035 151.24H0.42C0.42 150.08 0.945 149.5 1.995 149.5H9.66C9.66 150.66 9.13 151.24 8.07 151.24H6.045V158.65C6.045 159.13 5.875 159.5 5.535 159.76C5.195 160.01 4.695 160.135 4.035 160.135V151.24ZM13.4808 160.135C12.8608 160.135 12.2958 160.015 11.7858 159.775C11.2758 159.525 10.8708 159.19 10.5708 158.77C10.2708 158.34 10.1208 157.86 10.1208 157.33V155.335C10.1208 154.775 10.2758 154.27 10.5858 153.82C10.8958 153.37 11.3058 153.015 11.8158 152.755C12.3358 152.495 12.8958 152.365 13.4958 152.365C14.0858 152.365 14.6258 152.49 15.1158 152.74C15.6158 152.98 16.0108 153.32 16.3008 153.76C16.5908 154.19 16.7358 154.685 16.7358 155.245V156.085C16.7358 156.305 16.6508 156.49 16.4808 156.64C16.3208 156.79 16.1158 156.865 15.8658 156.865H11.9358V157.195C11.9358 157.625 12.0658 157.975 12.3258 158.245C12.5858 158.515 12.9758 158.65 13.4958 158.65C13.9958 158.65 14.3658 158.54 14.6058 158.32C14.8558 158.1 14.9808 157.815 14.9808 157.465C15.1608 157.445 15.2858 157.435 15.3558 157.435C15.7258 157.435 16.0158 157.52 16.2258 157.69C16.4358 157.85 16.5408 158.08 16.5408 158.38C16.5408 158.67 16.4058 158.95 16.1358 159.22C15.8658 159.49 15.4958 159.71 15.0258 159.88C14.5558 160.05 14.0408 160.135 13.4808 160.135ZM15.0408 155.53V155.245C15.0408 154.825 14.8958 154.485 14.6058 154.225C14.3158 153.965 13.9408 153.835 13.4808 153.835C13.0208 153.835 12.6458 153.965 12.3558 154.225C12.0758 154.475 11.9358 154.815 11.9358 155.245V155.53H15.0408ZM23.6845 153.985C23.0945 153.985 22.6145 154.145 22.2445 154.465C21.8745 154.775 21.6895 155.165 21.6895 155.635V158.995C21.6895 159.395 21.5395 159.685 21.2395 159.865C20.9395 160.045 20.4695 160.135 19.8295 160.135V153.805C19.8295 153.345 19.9745 152.99 20.2645 152.74C20.5645 152.49 21.0145 152.365 21.6145 152.365V153.25C21.4645 153.42 21.3445 153.585 21.2545 153.745L21.3445 153.805C21.9745 152.845 22.7645 152.365 23.7145 152.365C24.1445 152.365 24.4695 152.48 24.6895 152.71C24.9095 152.93 25.0195 153.21 25.0195 153.55C25.0195 153.81 24.9495 154.03 24.8095 154.21C24.5395 154.06 24.1645 153.985 23.6845 153.985ZM27.9541 153.805C27.9541 153.345 28.0991 152.99 28.3891 152.74C28.6791 152.49 29.1191 152.365 29.7091 152.365V153.265C29.5291 153.485 29.4091 153.645 29.3491 153.745L29.4541 153.805C29.7641 153.335 30.0941 152.98 30.4441 152.74C30.7941 152.49 31.2091 152.365 31.6891 152.365C32.5591 152.365 33.1591 152.79 33.4891 153.64C33.7391 153.24 34.0591 152.93 34.4491 152.71C34.8391 152.48 35.2791 152.365 35.7691 152.365C36.4491 152.365 36.9891 152.615 37.3891 153.115C37.7991 153.605 38.0041 154.235 38.0041 155.005V158.995C38.0041 159.395 37.8491 159.685 37.5391 159.865C37.2391 160.045 36.7791 160.135 36.1591 160.135V155.155C36.1591 154.785 36.0741 154.49 35.9041 154.27C35.7441 154.05 35.4941 153.94 35.1541 153.94C34.7941 153.94 34.4891 154.065 34.2391 154.315C33.9991 154.555 33.8791 154.935 33.8791 155.455V158.995C33.8791 159.395 33.7291 159.685 33.4291 159.865C33.1391 160.045 32.6841 160.135 32.0641 160.135V155.155C32.0641 154.775 31.9841 154.48 31.8241 154.27C31.6641 154.05 31.4141 153.94 31.0741 153.94C30.6541 153.94 30.3341 154.085 30.1141 154.375C29.9041 154.655 29.7991 155.04 29.7991 155.53V158.995C29.7991 159.395 29.6441 159.685 29.3341 159.865C29.0341 160.045 28.5741 160.135 27.9541 160.135V153.805ZM44.3679 160.135C43.4079 160.135 42.6329 159.965 42.0429 159.625C41.4629 159.275 41.1679 158.81 41.1579 158.23C41.1579 157.98 41.2579 157.77 41.4579 157.6C41.6679 157.43 41.9979 157.34 42.4479 157.33C42.5379 157.77 42.7479 158.11 43.0779 158.35C43.4079 158.58 43.8079 158.695 44.2779 158.695C44.7879 158.695 45.1879 158.63 45.4779 158.5C45.7679 158.37 45.9129 158.175 45.9129 157.915C45.9129 157.675 45.7929 157.475 45.5529 157.315C45.3229 157.155 44.8629 156.995 44.1729 156.835C43.4229 156.655 42.8379 156.475 42.4179 156.295C42.0079 156.115 41.7029 155.885 41.5029 155.605C41.3029 155.325 41.2029 154.955 41.2029 154.495C41.2029 153.855 41.4729 153.34 42.0129 152.95C42.5529 152.56 43.2929 152.365 44.2329 152.365C45.1429 152.365 45.8979 152.53 46.4979 152.86C47.0979 153.18 47.3979 153.61 47.3979 154.15C47.3979 154.42 47.2979 154.62 47.0979 154.75C46.8979 154.88 46.5679 154.95 46.1079 154.96C46.0079 154.56 45.8179 154.26 45.5379 154.06C45.2579 153.86 44.8629 153.76 44.3529 153.76C43.9729 153.76 43.6429 153.825 43.3629 153.955C43.0929 154.085 42.9579 154.255 42.9579 154.465C42.9579 154.685 43.0729 154.855 43.3029 154.975C43.5329 155.095 43.9329 155.215 44.5029 155.335C45.6229 155.575 46.4329 155.895 46.9329 156.295C47.4429 156.695 47.6979 157.24 47.6979 157.93C47.6979 158.6 47.3979 159.135 46.7979 159.535C46.2079 159.935 45.3979 160.135 44.3679 160.135ZM59.3448 160.135C58.6948 160.135 58.1048 160.02 57.5748 159.79C57.0548 159.55 56.6448 159.22 56.3448 158.8C56.0448 158.38 55.8948 157.905 55.8948 157.375V155.26C55.8948 154.72 56.0398 154.23 56.3298 153.79C56.6298 153.35 57.0398 153.005 57.5598 152.755C58.0798 152.495 58.6748 152.365 59.3448 152.365C60.0148 152.365 60.6098 152.495 61.1298 152.755C61.6598 153.005 62.0698 153.35 62.3598 153.79C62.6598 154.23 62.8098 154.72 62.8098 155.26V157.375C62.8098 157.905 62.6548 158.38 62.3448 158.8C62.0448 159.22 61.6298 159.55 61.0998 159.79C60.5798 160.02 59.9948 160.135 59.3448 160.135ZM59.3448 158.53C59.8448 158.53 60.2348 158.415 60.5148 158.185C60.8048 157.955 60.9498 157.645 60.9498 157.255V155.35C60.9498 154.94 60.8048 154.61 60.5148 154.36C60.2348 154.1 59.8448 153.97 59.3448 153.97C58.8548 153.97 58.4648 154.1 58.1748 154.36C57.8848 154.61 57.7398 154.94 57.7398 155.35V157.255C57.7398 157.645 57.8848 157.955 58.1748 158.185C58.4648 158.415 58.8548 158.53 59.3448 158.53ZM65.9776 153.895H64.7776C64.7776 153.415 64.8476 153.065 64.9876 152.845C65.1276 152.615 65.3426 152.5 65.6326 152.5H65.9776V151.885C65.9776 151.165 66.1876 150.565 66.6076 150.085C67.0376 149.605 67.6676 149.365 68.4976 149.365C69.0476 149.365 69.4676 149.485 69.7576 149.725C70.0576 149.955 70.2076 150.22 70.2076 150.52C70.2076 150.66 70.1776 150.8 70.1176 150.94C70.0676 151.07 69.9926 151.18 69.8926 151.27C69.5426 151.08 69.1776 150.985 68.7976 150.985C68.4576 150.985 68.2126 151.065 68.0626 151.225C67.9126 151.375 67.8376 151.62 67.8376 151.96V152.5H69.7876C69.7876 153 69.6926 153.36 69.5026 153.58C69.3126 153.79 69.0026 153.895 68.5726 153.895H67.8376V158.995C67.8376 159.395 67.6826 159.685 67.3726 159.865C67.0726 160.045 66.6076 160.135 65.9776 160.135V153.895ZM83.0293 160.135C82.1893 160.135 81.4293 159.965 80.7493 159.625C80.0793 159.285 79.5543 158.815 79.1743 158.215C78.7943 157.615 78.6043 156.935 78.6043 156.175V150.85C78.6043 150.37 78.7743 150.005 79.1143 149.755C79.4543 149.495 79.9543 149.365 80.6143 149.365V156.175C80.6143 156.845 80.8343 157.38 81.2743 157.78C81.7143 158.18 82.2993 158.38 83.0293 158.38C83.7593 158.38 84.3443 158.18 84.7843 157.78C85.2243 157.38 85.4443 156.845 85.4443 156.175V150.85C85.4443 150.36 85.6143 149.99 85.9543 149.74C86.2943 149.49 86.7943 149.365 87.4543 149.365V156.175C87.4543 156.935 87.2643 157.615 86.8843 158.215C86.5043 158.815 85.9743 159.285 85.2943 159.625C84.6243 159.965 83.8693 160.135 83.0293 160.135ZM93.8333 160.135C92.8733 160.135 92.0983 159.965 91.5083 159.625C90.9283 159.275 90.6333 158.81 90.6233 158.23C90.6233 157.98 90.7233 157.77 90.9233 157.6C91.1333 157.43 91.4633 157.34 91.9133 157.33C92.0033 157.77 92.2133 158.11 92.5433 158.35C92.8733 158.58 93.2733 158.695 93.7433 158.695C94.2533 158.695 94.6533 158.63 94.9433 158.5C95.2333 158.37 95.3783 158.175 95.3783 157.915C95.3783 157.675 95.2583 157.475 95.0183 157.315C94.7883 157.155 94.3283 156.995 93.6383 156.835C92.8883 156.655 92.3033 156.475 91.8833 156.295C91.4733 156.115 91.1683 155.885 90.9683 155.605C90.7683 155.325 90.6683 154.955 90.6683 154.495C90.6683 153.855 90.9383 153.34 91.4783 152.95C92.0183 152.56 92.7583 152.365 93.6983 152.365C94.6083 152.365 95.3633 152.53 95.9633 152.86C96.5633 153.18 96.8633 153.61 96.8633 154.15C96.8633 154.42 96.7633 154.62 96.5633 154.75C96.3633 154.88 96.0333 154.95 95.5733 154.96C95.4733 154.56 95.2833 154.26 95.0033 154.06C94.7233 153.86 94.3283 153.76 93.8183 153.76C93.4383 153.76 93.1083 153.825 92.8283 153.955C92.5583 154.085 92.4233 154.255 92.4233 154.465C92.4233 154.685 92.5383 154.855 92.7683 154.975C92.9983 155.095 93.3983 155.215 93.9683 155.335C95.0883 155.575 95.8983 155.895 96.3983 156.295C96.9083 156.695 97.1633 157.24 97.1633 157.93C97.1633 158.6 96.8633 159.135 96.2633 159.535C95.6733 159.935 94.8633 160.135 93.8333 160.135ZM103.428 160.135C102.808 160.135 102.243 160.015 101.733 159.775C101.223 159.525 100.818 159.19 100.518 158.77C100.218 158.34 100.068 157.86 100.068 157.33V155.335C100.068 154.775 100.223 154.27 100.533 153.82C100.843 153.37 101.253 153.015 101.763 152.755C102.283 152.495 102.843 152.365 103.443 152.365C104.033 152.365 104.573 152.49 105.063 152.74C105.563 152.98 105.958 153.32 106.248 153.76C106.538 154.19 106.683 154.685 106.683 155.245V156.085C106.683 156.305 106.598 156.49 106.428 156.64C106.268 156.79 106.063 156.865 105.813 156.865H101.883V157.195C101.883 157.625 102.013 157.975 102.273 158.245C102.533 158.515 102.923 158.65 103.443 158.65C103.943 158.65 104.313 158.54 104.553 158.32C104.803 158.1 104.928 157.815 104.928 157.465C105.108 157.445 105.233 157.435 105.303 157.435C105.673 157.435 105.963 157.52 106.173 157.69C106.383 157.85 106.488 158.08 106.488 158.38C106.488 158.67 106.353 158.95 106.083 159.22C105.813 159.49 105.443 159.71 104.973 159.88C104.503 160.05 103.988 160.135 103.428 160.135ZM104.988 155.53V155.245C104.988 154.825 104.843 154.485 104.553 154.225C104.263 153.965 103.888 153.835 103.428 153.835C102.968 153.835 102.593 153.965 102.303 154.225C102.023 154.475 101.883 154.815 101.883 155.245V155.53H104.988Z" fill="white" fill-opacity="0.7"/>
<path d="M0.885 182.415C0.885 182.155 0.98 181.94 1.17 181.77C1.36 181.59 1.6 181.5 1.89 181.5H5.895C6.975 181.5 7.81 181.785 8.4 182.355C9 182.925 9.3 183.725 9.3 184.755C9.3 185.345 9.18 185.845 8.94 186.255C8.7 186.655 8.335 186.975 7.845 187.215V187.26C8.725 187.65 9.165 188.39 9.165 189.48V190.65C9.165 191.13 8.995 191.5 8.655 191.76C8.315 192.01 7.815 192.135 7.155 192.135V189.57C7.155 189.04 7.05 188.65 6.84 188.4C6.63 188.15 6.31 188.025 5.88 188.025H2.865V190.65C2.865 191.14 2.695 191.51 2.355 191.76C2.025 192.01 1.535 192.135 0.885 192.135V182.415ZM5.79 186.315C6.27 186.315 6.64 186.18 6.9 185.91C7.16 185.63 7.29 185.24 7.29 184.74C7.29 183.72 6.79 183.21 5.79 183.21H2.865V186.315H5.79ZM15.4583 192.135C14.8383 192.135 14.2733 192.015 13.7633 191.775C13.2533 191.525 12.8483 191.19 12.5483 190.77C12.2483 190.34 12.0983 189.86 12.0983 189.33V187.335C12.0983 186.775 12.2533 186.27 12.5633 185.82C12.8733 185.37 13.2833 185.015 13.7933 184.755C14.3133 184.495 14.8733 184.365 15.4733 184.365C16.0633 184.365 16.6033 184.49 17.0933 184.74C17.5933 184.98 17.9883 185.32 18.2783 185.76C18.5683 186.19 18.7133 186.685 18.7133 187.245V188.085C18.7133 188.305 18.6283 188.49 18.4583 188.64C18.2983 188.79 18.0933 188.865 17.8433 188.865H13.9133V189.195C13.9133 189.625 14.0433 189.975 14.3033 190.245C14.5633 190.515 14.9533 190.65 15.4733 190.65C15.9733 190.65 16.3433 190.54 16.5833 190.32C16.8333 190.1 16.9583 189.815 16.9583 189.465C17.1383 189.445 17.2633 189.435 17.3333 189.435C17.7033 189.435 17.9933 189.52 18.2033 189.69C18.4133 189.85 18.5183 190.08 18.5183 190.38C18.5183 190.67 18.3833 190.95 18.1133 191.22C17.8433 191.49 17.4733 191.71 17.0033 191.88C16.5333 192.05 16.0183 192.135 15.4583 192.135ZM17.0183 187.53V187.245C17.0183 186.825 16.8733 186.485 16.5833 186.225C16.2933 185.965 15.9183 185.835 15.4583 185.835C14.9983 185.835 14.6233 185.965 14.3333 186.225C14.0533 186.475 13.9133 186.815 13.9133 187.245V187.53H17.0183ZM22.5421 185.895H21.3421C21.3421 185.415 21.4121 185.065 21.5521 184.845C21.6921 184.615 21.9071 184.5 22.1971 184.5H22.5421V183.885C22.5421 183.165 22.7521 182.565 23.1721 182.085C23.6021 181.605 24.2321 181.365 25.0621 181.365C25.6121 181.365 26.0321 181.485 26.3221 181.725C26.6221 181.955 26.7721 182.22 26.7721 182.52C26.7721 182.66 26.7421 182.8 26.6821 182.94C26.6321 183.07 26.5571 183.18 26.4571 183.27C26.1071 183.08 25.7421 182.985 25.3621 182.985C25.0221 182.985 24.7771 183.065 24.6271 183.225C24.4771 183.375 24.4021 183.62 24.4021 183.96V184.5H26.3521C26.3521 185 26.2571 185.36 26.0671 185.58C25.8771 185.79 25.5671 185.895 25.1371 185.895H24.4021V190.995C24.4021 191.395 24.2471 191.685 23.9371 191.865C23.6371 192.045 23.1721 192.135 22.5421 192.135V185.895ZM35.6978 190.68C35.6978 191.15 35.5478 191.51 35.2478 191.76C34.9578 192.01 34.5128 192.135 33.9128 192.135V191.235C34.0428 191.085 34.1628 190.92 34.2728 190.74L34.1828 190.68C33.5428 191.65 32.6828 192.135 31.6028 192.135C31.0928 192.135 30.6328 192.02 30.2228 191.79C29.8228 191.55 29.5028 191.22 29.2628 190.8C29.0328 190.38 28.9178 189.905 28.9178 189.375V185.505C28.9178 185.095 29.0678 184.805 29.3678 184.635C29.6778 184.455 30.1478 184.365 30.7778 184.365V189.24C30.7778 189.63 30.8978 189.94 31.1378 190.17C31.3778 190.4 31.7228 190.515 32.1728 190.515C32.6728 190.515 33.0728 190.36 33.3728 190.05C33.6828 189.73 33.8378 189.335 33.8378 188.865V185.505C33.8378 185.095 33.9878 184.805 34.2878 184.635C34.5878 184.455 35.0578 184.365 35.6978 184.365V190.68ZM39.111 185.805C39.111 185.345 39.256 184.99 39.546 184.74C39.846 184.49 40.296 184.365 40.896 184.365V185.265C40.776 185.405 40.656 185.565 40.536 185.745L40.626 185.805C40.926 185.355 41.311 185.005 41.781 184.755C42.251 184.495 42.771 184.365 43.341 184.365C43.851 184.365 44.301 184.48 44.691 184.71C45.081 184.94 45.381 185.255 45.591 185.655C45.811 186.055 45.921 186.505 45.921 187.005V190.995C45.921 191.395 45.766 191.685 45.456 191.865C45.146 192.045 44.676 192.135 44.046 192.135V187.275C44.046 186.895 43.931 186.585 43.701 186.345C43.481 186.105 43.156 185.985 42.726 185.985C42.216 185.985 41.796 186.145 41.466 186.465C41.136 186.775 40.971 187.165 40.971 187.635V190.995C40.971 191.395 40.821 191.685 40.521 191.865C40.221 192.045 39.751 192.135 39.111 192.135V185.805ZM52.0024 192.135C51.4624 192.135 50.9774 192.02 50.5474 191.79C50.1174 191.56 49.7774 191.245 49.5274 190.845C49.2774 190.435 49.1524 189.965 49.1524 189.435V187.065C49.1524 186.545 49.2824 186.08 49.5424 185.67C49.8024 185.26 50.1624 184.94 50.6224 184.71C51.0924 184.48 51.6124 184.365 52.1824 184.365C52.5524 184.365 52.9324 184.445 53.3224 184.605C53.7224 184.755 54.0574 184.96 54.3274 185.22L54.3874 185.145C54.3374 185.065 54.2274 184.965 54.0574 184.845V182.625C54.0574 182.225 54.2124 181.915 54.5224 181.695C54.8424 181.475 55.3224 181.365 55.9624 181.365V190.845C55.9624 191.215 55.8224 191.525 55.5424 191.775C55.2624 192.015 54.8274 192.135 54.2374 192.135V191.31C54.3674 191.15 54.4624 191.02 54.5224 190.92L54.4474 190.86C54.1374 191.28 53.7924 191.6 53.4124 191.82C53.0424 192.03 52.5724 192.135 52.0024 192.135ZM52.5574 190.515C53.0074 190.515 53.3724 190.41 53.6524 190.2C53.9424 189.98 54.0874 189.705 54.0874 189.375V187.11C54.0874 186.79 53.9424 186.525 53.6524 186.315C53.3724 186.095 53.0024 185.985 52.5424 185.985C52.0524 185.985 51.6724 186.09 51.4024 186.3C51.1424 186.5 51.0124 186.79 51.0124 187.17V189.3C51.0124 189.7 51.1424 190.005 51.4024 190.215C51.6724 190.415 52.0574 190.515 52.5574 190.515ZM67.3811 192.135C66.8711 192.135 66.4011 192.035 65.9711 191.835C65.5511 191.635 65.2111 191.35 64.9511 190.98C64.7011 190.6 64.5761 190.15 64.5761 189.63C64.5761 189.11 64.7111 188.66 64.9811 188.28C65.2511 187.89 65.6161 187.595 66.0761 187.395C66.5461 187.185 67.0611 187.08 67.6211 187.08C68.0811 187.08 68.4911 187.155 68.8511 187.305C69.2211 187.445 69.5611 187.66 69.8711 187.95L69.9461 187.875C69.8561 187.785 69.7011 187.65 69.4811 187.47V187.17C69.4811 186.76 69.3361 186.435 69.0461 186.195C68.7561 185.955 68.3511 185.835 67.8311 185.835C66.9011 185.835 66.2161 186.175 65.7761 186.855C65.5561 186.785 65.3711 186.675 65.2211 186.525C65.0711 186.365 64.9961 186.195 64.9961 186.015C64.9961 185.715 65.1311 185.44 65.4011 185.19C65.6711 184.94 66.0361 184.74 66.4961 184.59C66.9561 184.44 67.4561 184.365 67.9961 184.365C69.0561 184.365 69.8761 184.615 70.4561 185.115C71.0361 185.605 71.3261 186.275 71.3261 187.125V190.875C71.3261 191.315 71.1861 191.635 70.9061 191.835C70.6261 192.035 70.1861 192.135 69.5861 192.135V191.52C69.7561 191.35 69.8711 191.225 69.9311 191.145L69.8711 191.07C69.5411 191.42 69.1861 191.685 68.8061 191.865C68.4361 192.045 67.9611 192.135 67.3811 192.135ZM67.8611 190.77C68.3811 190.77 68.7861 190.67 69.0761 190.47C69.3661 190.27 69.5111 189.985 69.5111 189.615C69.5111 189.255 69.3611 188.97 69.0611 188.76C68.7711 188.55 68.3761 188.445 67.8761 188.445C67.4161 188.445 67.0511 188.55 66.7811 188.76C66.5211 188.96 66.3911 189.245 66.3911 189.615C66.3911 189.995 66.5211 190.285 66.7811 190.485C67.0411 190.675 67.4011 190.77 67.8611 190.77ZM74.6563 185.805C74.6563 185.345 74.8013 184.99 75.0913 184.74C75.3913 184.49 75.8413 184.365 76.4413 184.365V185.265C76.3213 185.405 76.2013 185.565 76.0813 185.745L76.1713 185.805C76.4713 185.355 76.8563 185.005 77.3263 184.755C77.7963 184.495 78.3163 184.365 78.8863 184.365C79.3963 184.365 79.8463 184.48 80.2363 184.71C80.6263 184.94 80.9263 185.255 81.1363 185.655C81.3563 186.055 81.4663 186.505 81.4663 187.005V190.995C81.4663 191.395 81.3113 191.685 81.0013 191.865C80.6913 192.045 80.2213 192.135 79.5913 192.135V187.275C79.5913 186.895 79.4763 186.585 79.2463 186.345C79.0263 186.105 78.7013 185.985 78.2713 185.985C77.7613 185.985 77.3413 186.145 77.0113 186.465C76.6813 186.775 76.5163 187.165 76.5163 187.635V190.995C76.5163 191.395 76.3663 191.685 76.0663 191.865C75.7663 192.045 75.2963 192.135 74.6563 192.135V185.805ZM87.5477 192.135C87.0077 192.135 86.5227 192.02 86.0927 191.79C85.6627 191.56 85.3227 191.245 85.0727 190.845C84.8227 190.435 84.6977 189.965 84.6977 189.435V187.065C84.6977 186.545 84.8277 186.08 85.0877 185.67C85.3477 185.26 85.7077 184.94 86.1677 184.71C86.6377 184.48 87.1577 184.365 87.7277 184.365C88.0977 184.365 88.4777 184.445 88.8677 184.605C89.2677 184.755 89.6027 184.96 89.8727 185.22L89.9327 185.145C89.8827 185.065 89.7727 184.965 89.6027 184.845V182.625C89.6027 182.225 89.7577 181.915 90.0677 181.695C90.3877 181.475 90.8677 181.365 91.5077 181.365V190.845C91.5077 191.215 91.3677 191.525 91.0877 191.775C90.8077 192.015 90.3727 192.135 89.7827 192.135V191.31C89.9127 191.15 90.0077 191.02 90.0677 190.92L89.9927 190.86C89.6827 191.28 89.3377 191.6 88.9577 191.82C88.5877 192.03 88.1177 192.135 87.5477 192.135ZM88.1027 190.515C88.5527 190.515 88.9177 190.41 89.1977 190.2C89.4877 189.98 89.6327 189.705 89.6327 189.375V187.11C89.6327 186.79 89.4877 186.525 89.1977 186.315C88.9177 186.095 88.5477 185.985 88.0877 185.985C87.5977 185.985 87.2177 186.09 86.9477 186.3C86.6877 186.5 86.5577 186.79 86.5577 187.17V189.3C86.5577 189.7 86.6877 190.005 86.9477 190.215C87.2177 190.415 87.6027 190.515 88.1027 190.515ZM100.436 182.415C100.436 182.155 100.531 181.94 100.721 181.77C100.911 181.59 101.151 181.5 101.441 181.5H105.446C106.526 181.5 107.361 181.785 107.951 182.355C108.551 182.925 108.851 183.725 108.851 184.755C108.851 185.345 108.731 185.845 108.491 186.255C108.251 186.655 107.886 186.975 107.396 187.215V187.26C108.276 187.65 108.716 188.39 108.716 189.48V190.65C108.716 191.13 108.546 191.5 108.206 191.76C107.866 192.01 107.366 192.135 106.706 192.135V189.57C106.706 189.04 106.601 188.65 106.391 188.4C106.181 188.15 105.861 188.025 105.431 188.025H102.416V190.65C102.416 191.14 102.246 191.51 101.906 191.76C101.576 192.01 101.086 192.135 100.436 192.135V182.415ZM105.341 186.315C105.821 186.315 106.191 186.18 106.451 185.91C106.711 185.63 106.841 185.24 106.841 184.74C106.841 183.72 106.341 183.21 105.341 183.21H102.416V186.315H105.341ZM115.01 192.135C114.39 192.135 113.825 192.015 113.315 191.775C112.805 191.525 112.4 191.19 112.1 190.77C111.8 190.34 111.65 189.86 111.65 189.33V187.335C111.65 186.775 111.805 186.27 112.115 185.82C112.425 185.37 112.835 185.015 113.345 184.755C113.865 184.495 114.425 184.365 115.025 184.365C115.615 184.365 116.155 184.49 116.645 184.74C117.145 184.98 117.54 185.32 117.83 185.76C118.12 186.19 118.265 186.685 118.265 187.245V188.085C118.265 188.305 118.18 188.49 118.01 188.64C117.85 188.79 117.645 188.865 117.395 188.865H113.465V189.195C113.465 189.625 113.595 189.975 113.855 190.245C114.115 190.515 114.505 190.65 115.025 190.65C115.525 190.65 115.895 190.54 116.135 190.32C116.385 190.1 116.51 189.815 116.51 189.465C116.69 189.445 116.815 189.435 116.885 189.435C117.255 189.435 117.545 189.52 117.755 189.69C117.965 189.85 118.07 190.08 118.07 190.38C118.07 190.67 117.935 190.95 117.665 191.22C117.395 191.49 117.025 191.71 116.555 191.88C116.085 192.05 115.57 192.135 115.01 192.135ZM116.57 187.53V187.245C116.57 186.825 116.425 186.485 116.135 186.225C115.845 185.965 115.47 185.835 115.01 185.835C114.55 185.835 114.175 185.965 113.885 186.225C113.605 186.475 113.465 186.815 113.465 187.245V187.53H116.57ZM124.43 192.135C123.62 192.135 123.02 191.9 122.63 191.43C122.24 190.96 122.045 190.355 122.045 189.615V185.895H120.5C120.5 185.425 120.59 185.075 120.77 184.845C120.95 184.615 121.19 184.5 121.49 184.5H122.075V183.255C122.075 182.845 122.225 182.555 122.525 182.385C122.825 182.205 123.28 182.115 123.89 182.115V184.5H125.885C125.885 185 125.79 185.36 125.6 185.58C125.41 185.79 125.105 185.895 124.685 185.895H123.92V189.54C123.92 189.89 123.985 190.14 124.115 190.29C124.255 190.44 124.49 190.515 124.82 190.515C125.17 190.515 125.52 190.42 125.87 190.23C125.97 190.32 126.05 190.435 126.11 190.575C126.17 190.705 126.2 190.84 126.2 190.98C126.2 191.28 126.045 191.55 125.735 191.79C125.425 192.02 124.99 192.135 124.43 192.135ZM135.908 190.68C135.908 191.15 135.758 191.51 135.458 191.76C135.168 192.01 134.723 192.135 134.123 192.135V191.235C134.253 191.085 134.373 190.92 134.483 190.74L134.393 190.68C133.753 191.65 132.893 192.135 131.813 192.135C131.303 192.135 130.843 192.02 130.433 191.79C130.033 191.55 129.713 191.22 129.473 190.8C129.243 190.38 129.128 189.905 129.128 189.375V185.505C129.128 185.095 129.278 184.805 129.578 184.635C129.888 184.455 130.358 184.365 130.988 184.365V189.24C130.988 189.63 131.108 189.94 131.348 190.17C131.588 190.4 131.933 190.515 132.383 190.515C132.883 190.515 133.283 190.36 133.583 190.05C133.893 189.73 134.048 189.335 134.048 188.865V185.505C134.048 185.095 134.198 184.805 134.498 184.635C134.798 184.455 135.268 184.365 135.908 184.365V190.68ZM143.177 185.985C142.587 185.985 142.107 186.145 141.737 186.465C141.367 186.775 141.182 187.165 141.182 187.635V190.995C141.182 191.395 141.032 191.685 140.732 191.865C140.432 192.045 139.962 192.135 139.322 192.135V185.805C139.322 185.345 139.467 184.99 139.757 184.74C140.057 184.49 140.507 184.365 141.107 184.365V185.25C140.957 185.42 140.837 185.585 140.747 185.745L140.837 185.805C141.467 184.845 142.257 184.365 143.207 184.365C143.637 184.365 143.962 184.48 144.182 184.71C144.402 184.93 144.512 185.21 144.512 185.55C144.512 185.81 144.442 186.03 144.302 186.21C144.032 186.06 143.657 185.985 143.177 185.985ZM147.446 185.805C147.446 185.345 147.591 184.99 147.881 184.74C148.181 184.49 148.631 184.365 149.231 184.365V185.265C149.111 185.405 148.991 185.565 148.871 185.745L148.961 185.805C149.261 185.355 149.646 185.005 150.116 184.755C150.586 184.495 151.106 184.365 151.676 184.365C152.186 184.365 152.636 184.48 153.026 184.71C153.416 184.94 153.716 185.255 153.926 185.655C154.146 186.055 154.256 186.505 154.256 187.005V190.995C154.256 191.395 154.101 191.685 153.791 191.865C153.481 192.045 153.011 192.135 152.381 192.135V187.275C152.381 186.895 152.266 186.585 152.036 186.345C151.816 186.105 151.491 185.985 151.061 185.985C150.551 185.985 150.131 186.145 149.801 186.465C149.471 186.775 149.306 187.165 149.306 187.635V190.995C149.306 191.395 149.156 191.685 148.856 191.865C148.556 192.045 148.086 192.135 147.446 192.135V185.805ZM163.095 182.415C163.095 182.155 163.19 181.94 163.38 181.77C163.57 181.59 163.81 181.5 164.1 181.5H168.27C168.99 181.5 169.625 181.645 170.175 181.935C170.735 182.215 171.165 182.62 171.465 183.15C171.775 183.67 171.93 184.275 171.93 184.965C171.93 185.665 171.78 186.28 171.48 186.81C171.18 187.33 170.755 187.735 170.205 188.025C169.655 188.305 169.01 188.445 168.27 188.445H165.105V190.65C165.105 191.13 164.93 191.5 164.58 191.76C164.24 192.01 163.745 192.135 163.095 192.135V182.415ZM168.27 186.705C168.8 186.705 169.21 186.55 169.5 186.24C169.79 185.93 169.935 185.5 169.935 184.95C169.935 184.41 169.785 183.99 169.485 183.69C169.195 183.39 168.79 183.24 168.27 183.24H165.105V186.705H168.27ZM177.138 192.135C176.488 192.135 175.898 192.02 175.368 191.79C174.848 191.55 174.438 191.22 174.138 190.8C173.838 190.38 173.688 189.905 173.688 189.375V187.26C173.688 186.72 173.833 186.23 174.123 185.79C174.423 185.35 174.833 185.005 175.353 184.755C175.873 184.495 176.468 184.365 177.138 184.365C177.808 184.365 178.403 184.495 178.923 184.755C179.453 185.005 179.863 185.35 180.153 185.79C180.453 186.23 180.603 186.72 180.603 187.26V189.375C180.603 189.905 180.448 190.38 180.138 190.8C179.838 191.22 179.423 191.55 178.893 191.79C178.373 192.02 177.788 192.135 177.138 192.135ZM177.138 190.53C177.638 190.53 178.028 190.415 178.308 190.185C178.598 189.955 178.743 189.645 178.743 189.255V187.35C178.743 186.94 178.598 186.61 178.308 186.36C178.028 186.1 177.638 185.97 177.138 185.97C176.648 185.97 176.258 186.1 175.968 186.36C175.678 186.61 175.533 186.94 175.533 187.35V189.255C175.533 189.645 175.678 189.955 175.968 190.185C176.258 190.415 176.648 190.53 177.138 190.53ZM186.169 192.135C185.339 192.135 184.709 191.9 184.279 191.43C183.859 190.95 183.649 190.345 183.649 189.615V182.505C183.649 182.095 183.799 181.805 184.099 181.635C184.409 181.455 184.884 181.365 185.524 181.365V189.54C185.524 189.88 185.599 190.13 185.749 190.29C185.899 190.44 186.139 190.515 186.469 190.515C186.839 190.515 187.209 190.42 187.579 190.23C187.679 190.32 187.754 190.435 187.804 190.575C187.864 190.705 187.894 190.84 187.894 190.98C187.894 191.28 187.744 191.55 187.444 191.79C187.144 192.02 186.719 192.135 186.169 192.135ZM192.083 183.66C191.723 183.66 191.423 183.555 191.183 183.345C190.953 183.125 190.838 182.845 190.838 182.505C190.838 182.175 190.953 181.905 191.183 181.695C191.423 181.475 191.723 181.365 192.083 181.365C192.443 181.365 192.738 181.475 192.968 181.695C193.208 181.905 193.328 182.175 193.328 182.505C193.328 182.845 193.208 183.125 192.968 183.345C192.738 183.555 192.443 183.66 192.083 183.66ZM191.138 185.505C191.138 185.095 191.293 184.805 191.603 184.635C191.913 184.455 192.383 184.365 193.013 184.365V190.995C193.013 191.395 192.858 191.685 192.548 191.865C192.238 192.045 191.768 192.135 191.138 192.135V185.505ZM199.975 192.135C199.325 192.135 198.75 192.02 198.25 191.79C197.75 191.55 197.36 191.22 197.08 190.8C196.8 190.38 196.66 189.905 196.66 189.375V187.275C196.66 186.705 196.8 186.2 197.08 185.76C197.36 185.32 197.75 184.98 198.25 184.74C198.75 184.49 199.32 184.365 199.96 184.365C200.56 184.365 201.09 184.45 201.55 184.62C202.02 184.79 202.385 185.03 202.645 185.34C202.905 185.64 203.035 185.99 203.035 186.39C203.035 186.7 202.915 186.95 202.675 187.14C202.435 187.33 202.12 187.425 201.73 187.425C201.62 187.425 201.54 187.42 201.49 187.41C201.49 186.98 201.35 186.635 201.07 186.375C200.8 186.115 200.445 185.985 200.005 185.985C199.565 185.985 199.205 186.11 198.925 186.36C198.655 186.61 198.52 186.94 198.52 187.35V189.24C198.52 189.62 198.66 189.93 198.94 190.17C199.22 190.4 199.58 190.515 200.02 190.515C200.46 190.515 200.82 190.385 201.1 190.125C201.38 189.855 201.52 189.515 201.52 189.105C201.58 189.095 201.665 189.09 201.775 189.09C202.165 189.09 202.48 189.18 202.72 189.36C202.96 189.54 203.08 189.785 203.08 190.095C203.08 190.495 202.945 190.85 202.675 191.16C202.415 191.46 202.05 191.7 201.58 191.88C201.11 192.05 200.575 192.135 199.975 192.135ZM206.69 195.135C206.3 195.135 205.99 195 205.76 194.73C205.54 194.46 205.43 194.07 205.43 193.56C205.73 193.61 205.98 193.635 206.18 193.635C206.56 193.635 206.86 193.535 207.08 193.335C207.31 193.135 207.56 192.735 207.83 192.135L208.07 191.58L205.175 184.515C205.245 184.475 205.365 184.44 205.535 184.41C205.715 184.38 205.86 184.365 205.97 184.365C206.26 184.365 206.525 184.43 206.765 184.56C207.005 184.68 207.17 184.85 207.26 185.07L208.865 189.285L208.61 189.99L208.745 190.035L210.68 185.07C210.77 184.84 210.93 184.665 211.16 184.545C211.4 184.425 211.665 184.365 211.955 184.365C212.065 184.365 212.205 184.38 212.375 184.41C212.555 184.44 212.685 184.475 212.765 184.515L209.405 192.675C209.055 193.515 208.67 194.135 208.25 194.535C207.84 194.935 207.32 195.135 206.69 195.135Z" fill="white" fill-opacity="0.7"/>
</svg>
