<svg width="144" height="139" viewBox="0 0 144 139" fill="none" xmlns="http://www.w3.org/2000/svg">
<g id="Frame 31">
<g id="Group 72">
<ellipse id="Ellipse 10" cx="72" cy="69.5" rx="72" ry="69.5" fill="#092635" fill-opacity="0.7"/>
<path id="Vector" d="M71.8235 72.6581C85.7433 72.6581 97.0368 60.6409 97.0368 45.829C97.0368 31.0172 85.7433 19 71.8235 19C57.9037 19 46.6103 31.0172 46.6103 45.829C46.6103 60.6409 57.9037 72.6581 71.8235 72.6581ZM94.2353 78.6201H84.5877C80.7007 80.5205 76.3759 81.6011 71.8235 81.6011C67.2711 81.6011 62.9639 80.5205 59.0593 78.6201H49.4118C37.0328 78.6201 27 89.2958 27 102.468V105.449C27 110.386 30.7645 114.392 35.4044 114.392H108.243C112.883 114.392 116.647 110.386 116.647 105.449V102.468C116.647 89.2958 106.614 78.6201 94.2353 78.6201Z" fill="white" fill-opacity="0.8"/>
</g>
</g>
</svg>
