<svg width="543" height="293" viewBox="0 0 543 293" fill="none" xmlns="http://www.w3.org/2000/svg">
<path d="M98.9103 179.36C97.577 179.36 96.4703 179.067 95.5903 178.48C94.737 177.867 94.1636 177 93.8703 175.88L87.5903 151.24C88.2303 150.84 89.057 150.64 90.0703 150.64C91.057 150.64 91.8703 150.88 92.5103 151.36C93.1503 151.813 93.577 152.467 93.7903 153.32L97.1503 168.48L96.3503 171.56L96.7103 171.68L102.15 152.44C102.31 151.88 102.59 151.44 102.99 151.12C103.417 150.8 103.924 150.64 104.51 150.64C105.097 150.64 105.604 150.8 106.03 151.12C106.457 151.44 106.75 151.88 106.91 152.44L111.27 168.84L110.51 172.08L110.95 172.2L115.27 153.32C115.457 152.467 115.857 151.813 116.47 151.36C117.11 150.88 117.937 150.64 118.95 150.64C119.937 150.64 120.777 150.84 121.47 151.24L115.15 175.88C114.857 177 114.27 177.867 113.39 178.48C112.537 179.067 111.444 179.36 110.11 179.36L104.03 157.12L103.67 157.24L104.31 159.6L98.9103 179.36ZM130.267 179.36C128.534 179.36 126.96 179.053 125.547 178.44C124.16 177.8 123.067 176.92 122.267 175.8C121.467 174.68 121.067 173.413 121.067 172V166.36C121.067 164.92 121.454 163.613 122.227 162.44C123.027 161.267 124.12 160.347 125.507 159.68C126.894 158.987 128.48 158.64 130.267 158.64C132.054 158.64 133.64 158.987 135.027 159.68C136.44 160.347 137.534 161.267 138.307 162.44C139.107 163.613 139.507 164.92 139.507 166.36V172C139.507 173.413 139.094 174.68 138.267 175.8C137.467 176.92 136.36 177.8 134.947 178.44C133.56 179.053 132 179.36 130.267 179.36ZM130.267 175.08C131.6 175.08 132.64 174.773 133.387 174.16C134.16 173.547 134.547 172.72 134.547 171.68V166.6C134.547 165.507 134.16 164.627 133.387 163.96C132.64 163.267 131.6 162.92 130.267 162.92C128.96 162.92 127.92 163.267 127.147 163.96C126.374 164.627 125.987 165.507 125.987 166.6V171.68C125.987 172.72 126.374 173.547 127.147 174.16C127.92 174.773 128.96 175.08 130.267 175.08ZM153.671 162.96C152.098 162.96 150.818 163.387 149.831 164.24C148.845 165.067 148.351 166.107 148.351 167.36V176.32C148.351 177.387 147.951 178.16 147.151 178.64C146.351 179.12 145.098 179.36 143.391 179.36V162.48C143.391 161.253 143.778 160.307 144.551 159.64C145.351 158.973 146.551 158.64 148.151 158.64V161C147.751 161.453 147.431 161.893 147.191 162.32L147.431 162.48C149.111 159.92 151.218 158.64 153.751 158.64C154.898 158.64 155.765 158.947 156.351 159.56C156.938 160.147 157.231 160.893 157.231 161.8C157.231 162.493 157.045 163.08 156.671 163.56C155.951 163.16 154.951 162.96 153.671 162.96ZM178.697 177.92C178.457 178.373 178.11 178.733 177.657 179C177.204 179.24 176.684 179.36 176.097 179.36C175.59 179.36 175.137 179.24 174.737 179C174.337 178.787 173.95 178.427 173.577 177.92L168.297 170.12L165.577 172.64V176.32C165.577 177.387 165.164 178.16 164.337 178.64C163.537 179.12 162.31 179.36 160.657 179.36V154.48C160.657 151.92 162.324 150.64 165.657 150.64V167.16L174.817 158.64C176.15 159.68 176.817 160.533 176.817 161.2C176.817 161.627 176.697 162 176.457 162.32C176.244 162.64 175.897 163.013 175.417 163.44L171.217 167.36L178.697 177.92ZM201.126 179.36C199.393 179.36 197.82 179.053 196.406 178.44C195.02 177.8 193.926 176.92 193.126 175.8C192.326 174.68 191.926 173.413 191.926 172V166.36C191.926 164.92 192.313 163.613 193.086 162.44C193.886 161.267 194.98 160.347 196.366 159.68C197.753 158.987 199.34 158.64 201.126 158.64C202.913 158.64 204.5 158.987 205.886 159.68C207.3 160.347 208.393 161.267 209.166 162.44C209.966 163.613 210.366 164.92 210.366 166.36V172C210.366 173.413 209.953 174.68 209.126 175.8C208.326 176.92 207.22 177.8 205.806 178.44C204.42 179.053 202.86 179.36 201.126 179.36ZM201.126 175.08C202.46 175.08 203.5 174.773 204.246 174.16C205.02 173.547 205.406 172.72 205.406 171.68V166.6C205.406 165.507 205.02 164.627 204.246 163.96C203.5 163.267 202.46 162.92 201.126 162.92C199.82 162.92 198.78 163.267 198.006 163.96C197.233 164.627 196.846 165.507 196.846 166.6V171.68C196.846 172.72 197.233 173.547 198.006 174.16C198.78 174.773 199.82 175.08 201.126 175.08ZM213.508 162.48C213.508 161.253 213.895 160.307 214.668 159.64C215.468 158.973 216.668 158.64 218.268 158.64V161.04C217.948 161.413 217.628 161.84 217.308 162.32L217.548 162.48C218.348 161.28 219.375 160.347 220.628 159.68C221.882 158.987 223.268 158.64 224.788 158.64C226.148 158.64 227.348 158.947 228.388 159.56C229.428 160.173 230.228 161.013 230.788 162.08C231.375 163.147 231.668 164.347 231.668 165.68V176.32C231.668 177.387 231.255 178.16 230.428 178.64C229.602 179.12 228.348 179.36 226.668 179.36V166.4C226.668 165.387 226.362 164.56 225.748 163.92C225.162 163.28 224.295 162.96 223.148 162.96C221.788 162.96 220.668 163.387 219.788 164.24C218.908 165.067 218.468 166.107 218.468 167.36V176.32C218.468 177.387 218.068 178.16 217.268 178.64C216.468 179.12 215.215 179.36 213.508 179.36V162.48ZM253.078 179.36C251.718 179.36 250.465 179.093 249.318 178.56C248.198 178.027 247.291 177.267 246.598 176.28C245.931 175.267 245.598 174.067 245.598 172.68C245.598 171.293 245.958 170.093 246.678 169.08C247.398 168.04 248.371 167.253 249.598 166.72C250.851 166.16 252.225 165.88 253.718 165.88C254.945 165.88 256.038 166.08 256.998 166.48C257.985 166.853 258.891 167.427 259.718 168.2L259.918 168C259.678 167.76 259.265 167.4 258.678 166.92V166.12C258.678 165.027 258.291 164.16 257.518 163.52C256.745 162.88 255.665 162.56 254.278 162.56C251.798 162.56 249.971 163.467 248.798 165.28C248.211 165.093 247.718 164.8 247.318 164.4C246.918 163.973 246.718 163.52 246.718 163.04C246.718 162.24 247.078 161.507 247.798 160.84C248.518 160.173 249.491 159.64 250.718 159.24C251.945 158.84 253.278 158.64 254.718 158.64C257.545 158.64 259.731 159.307 261.278 160.64C262.825 161.947 263.598 163.733 263.598 166V176C263.598 177.173 263.225 178.027 262.478 178.56C261.731 179.093 260.558 179.36 258.958 179.36V177.72C259.411 177.267 259.718 176.933 259.878 176.72L259.718 176.52C258.838 177.453 257.891 178.16 256.878 178.64C255.891 179.12 254.625 179.36 253.078 179.36ZM254.358 175.72C255.745 175.72 256.825 175.453 257.598 174.92C258.371 174.387 258.758 173.627 258.758 172.64C258.758 171.68 258.358 170.92 257.558 170.36C256.785 169.8 255.731 169.52 254.398 169.52C253.171 169.52 252.198 169.8 251.478 170.36C250.785 170.893 250.438 171.653 250.438 172.64C250.438 173.653 250.785 174.427 251.478 174.96C252.171 175.467 253.131 175.72 254.358 175.72ZM274.639 179.36C272.425 179.36 270.745 178.733 269.599 177.48C268.479 176.2 267.919 174.587 267.919 172.64V153.68C267.919 152.587 268.319 151.813 269.119 151.36C269.945 150.88 271.212 150.64 272.919 150.64V172.44C272.919 173.347 273.119 174.013 273.519 174.44C273.919 174.84 274.559 175.04 275.439 175.04C276.425 175.04 277.412 174.787 278.399 174.28C278.665 174.52 278.865 174.827 278.999 175.2C279.159 175.547 279.239 175.907 279.239 176.28C279.239 177.08 278.839 177.8 278.039 178.44C277.239 179.053 276.105 179.36 274.639 179.36ZM288.233 179.36C286.019 179.36 284.339 178.733 283.193 177.48C282.073 176.2 281.513 174.587 281.513 172.64V153.68C281.513 152.587 281.913 151.813 282.713 151.36C283.539 150.88 284.806 150.64 286.513 150.64V172.44C286.513 173.347 286.713 174.013 287.113 174.44C287.513 174.84 288.153 175.04 289.033 175.04C290.019 175.04 291.006 174.787 291.993 174.28C292.259 174.52 292.459 174.827 292.593 175.2C292.753 175.547 292.833 175.907 292.833 176.28C292.833 177.08 292.433 177.8 291.633 178.44C290.833 179.053 289.699 179.36 288.233 179.36ZM313.954 179.36C312.514 179.36 311.221 179.053 310.074 178.44C308.928 177.827 308.021 176.987 307.354 175.92C306.688 174.827 306.354 173.573 306.354 172.16V165.84C306.354 164.453 306.701 163.213 307.394 162.12C308.088 161.027 309.048 160.173 310.274 159.56C311.528 158.947 312.914 158.64 314.434 158.64C315.421 158.64 316.434 158.853 317.474 159.28C318.541 159.68 319.434 160.227 320.154 160.92L320.314 160.72C320.181 160.507 319.888 160.24 319.434 159.92V154C319.434 152.933 319.848 152.107 320.674 151.52C321.528 150.933 322.808 150.64 324.514 150.64V175.92C324.514 176.907 324.141 177.733 323.394 178.4C322.648 179.04 321.488 179.36 319.914 179.36V177.16C320.261 176.733 320.514 176.387 320.674 176.12L320.474 175.96C319.648 177.08 318.728 177.933 317.714 178.52C316.728 179.08 315.474 179.36 313.954 179.36ZM315.434 175.04C316.634 175.04 317.608 174.76 318.354 174.2C319.128 173.613 319.514 172.88 319.514 172V165.96C319.514 165.107 319.128 164.4 318.354 163.84C317.608 163.253 316.621 162.96 315.394 162.96C314.088 162.96 313.074 163.24 312.354 163.8C311.661 164.333 311.314 165.107 311.314 166.12V171.8C311.314 172.867 311.661 173.68 312.354 174.24C313.074 174.773 314.101 175.04 315.434 175.04ZM337.932 179.36C336.278 179.36 334.772 179.04 333.412 178.4C332.052 177.733 330.972 176.84 330.172 175.72C329.372 174.573 328.972 173.293 328.972 171.88V166.56C328.972 165.067 329.385 163.72 330.212 162.52C331.038 161.32 332.132 160.373 333.492 159.68C334.878 158.987 336.372 158.64 337.972 158.64C339.545 158.64 340.985 158.973 342.292 159.64C343.625 160.28 344.678 161.187 345.452 162.36C346.225 163.507 346.612 164.827 346.612 166.32V168.56C346.612 169.147 346.385 169.64 345.932 170.04C345.505 170.44 344.958 170.64 344.292 170.64H333.812V171.52C333.812 172.667 334.158 173.6 334.852 174.32C335.545 175.04 336.585 175.4 337.972 175.4C339.305 175.4 340.292 175.107 340.932 174.52C341.598 173.933 341.932 173.173 341.932 172.24C342.412 172.187 342.745 172.16 342.932 172.16C343.918 172.16 344.692 172.387 345.252 172.84C345.812 173.267 346.092 173.88 346.092 174.68C346.092 175.453 345.732 176.2 345.012 176.92C344.292 177.64 343.305 178.227 342.052 178.68C340.798 179.133 339.425 179.36 337.932 179.36ZM342.092 167.08V166.32C342.092 165.2 341.705 164.293 340.932 163.6C340.158 162.907 339.158 162.56 337.932 162.56C336.705 162.56 335.705 162.907 334.932 163.6C334.185 164.267 333.812 165.173 333.812 166.32V167.08H342.092ZM357.665 179.36C357.025 179.36 356.465 179.213 355.985 178.92C355.531 178.627 355.211 178.227 355.025 177.72L347.825 159.04C348.011 158.933 348.331 158.84 348.785 158.76C349.265 158.68 349.651 158.64 349.945 158.64C350.718 158.64 351.411 158.8 352.025 159.12C352.665 159.44 353.091 159.907 353.305 160.52L357.425 173L356.745 174.88L357.065 174.96L362.025 160.52C362.238 159.907 362.651 159.44 363.265 159.12C363.905 158.8 364.611 158.64 365.385 158.64C365.678 158.64 366.051 158.68 366.505 158.76C366.985 158.84 367.318 158.933 367.505 159.04L360.305 177.72C360.118 178.227 359.785 178.627 359.305 178.92C358.851 179.213 358.305 179.36 357.665 179.36ZM373.703 156.76C372.743 156.76 371.943 156.48 371.303 155.92C370.69 155.333 370.383 154.587 370.383 153.68C370.383 152.8 370.69 152.08 371.303 151.52C371.943 150.933 372.743 150.64 373.703 150.64C374.663 150.64 375.45 150.933 376.063 151.52C376.703 152.08 377.023 152.8 377.023 153.68C377.023 154.587 376.703 155.333 376.063 155.92C375.45 156.48 374.663 156.76 373.703 156.76ZM371.183 161.68C371.183 160.587 371.597 159.813 372.423 159.36C373.25 158.88 374.503 158.64 376.183 158.64V176.32C376.183 177.387 375.77 178.16 374.943 178.64C374.117 179.12 372.863 179.36 371.183 179.36V161.68ZM390.351 179.36C388.617 179.36 387.084 179.053 385.751 178.44C384.417 177.8 383.377 176.92 382.631 175.8C381.884 174.68 381.511 173.413 381.511 172V166.4C381.511 164.88 381.884 163.533 382.631 162.36C383.377 161.187 384.417 160.28 385.751 159.64C387.084 158.973 388.604 158.64 390.311 158.64C391.911 158.64 393.324 158.867 394.551 159.32C395.804 159.773 396.777 160.413 397.471 161.24C398.164 162.04 398.511 162.973 398.511 164.04C398.511 164.867 398.191 165.533 397.551 166.04C396.911 166.547 396.071 166.8 395.031 166.8C394.737 166.8 394.524 166.787 394.391 166.76C394.391 165.613 394.017 164.693 393.271 164C392.551 163.307 391.604 162.96 390.431 162.96C389.257 162.96 388.297 163.293 387.551 163.96C386.831 164.627 386.471 165.507 386.471 166.6V171.64C386.471 172.653 386.844 173.48 387.591 174.12C388.337 174.733 389.297 175.04 390.471 175.04C391.644 175.04 392.604 174.693 393.351 174C394.097 173.28 394.471 172.373 394.471 171.28C394.631 171.253 394.857 171.24 395.151 171.24C396.191 171.24 397.031 171.48 397.671 171.96C398.311 172.44 398.631 173.093 398.631 173.92C398.631 174.987 398.271 175.933 397.551 176.76C396.857 177.56 395.884 178.2 394.631 178.68C393.377 179.133 391.951 179.36 390.351 179.36ZM411.174 179.36C409.52 179.36 408.014 179.04 406.654 178.4C405.294 177.733 404.214 176.84 403.414 175.72C402.614 174.573 402.214 173.293 402.214 171.88V166.56C402.214 165.067 402.627 163.72 403.454 162.52C404.28 161.32 405.374 160.373 406.734 159.68C408.12 158.987 409.614 158.64 411.214 158.64C412.787 158.64 414.227 158.973 415.534 159.64C416.867 160.28 417.92 161.187 418.694 162.36C419.467 163.507 419.854 164.827 419.854 166.32V168.56C419.854 169.147 419.627 169.64 419.174 170.04C418.747 170.44 418.2 170.64 417.534 170.64H407.054V171.52C407.054 172.667 407.4 173.6 408.094 174.32C408.787 175.04 409.827 175.4 411.214 175.4C412.547 175.4 413.534 175.107 414.174 174.52C414.84 173.933 415.174 173.173 415.174 172.24C415.654 172.187 415.987 172.16 416.174 172.16C417.16 172.16 417.934 172.387 418.494 172.84C419.054 173.267 419.334 173.88 419.334 174.68C419.334 175.453 418.974 176.2 418.254 176.92C417.534 177.64 416.547 178.227 415.294 178.68C414.04 179.133 412.667 179.36 411.174 179.36ZM415.334 167.08V166.32C415.334 165.2 414.947 164.293 414.174 163.6C413.4 162.907 412.4 162.56 411.174 162.56C409.947 162.56 408.947 162.907 408.174 163.6C407.427 164.267 407.054 165.173 407.054 166.32V167.08H415.334ZM431.824 179.36C429.264 179.36 427.197 178.907 425.624 178C424.077 177.067 423.29 175.827 423.264 174.28C423.264 173.613 423.53 173.053 424.064 172.6C424.624 172.147 425.504 171.907 426.704 171.88C426.944 173.053 427.504 173.96 428.384 174.6C429.264 175.213 430.33 175.52 431.584 175.52C432.944 175.52 434.01 175.347 434.784 175C435.557 174.653 435.944 174.133 435.944 173.44C435.944 172.8 435.624 172.267 434.984 171.84C434.37 171.413 433.144 170.987 431.304 170.56C429.304 170.08 427.744 169.6 426.624 169.12C425.53 168.64 424.717 168.027 424.184 167.28C423.65 166.533 423.384 165.547 423.384 164.32C423.384 162.613 424.104 161.24 425.544 160.2C426.984 159.16 428.957 158.64 431.464 158.64C433.89 158.64 435.904 159.08 437.504 159.96C439.104 160.813 439.904 161.96 439.904 163.4C439.904 164.12 439.637 164.653 439.104 165C438.57 165.347 437.69 165.533 436.464 165.56C436.197 164.493 435.69 163.693 434.944 163.16C434.197 162.627 433.144 162.36 431.784 162.36C430.77 162.36 429.89 162.533 429.144 162.88C428.424 163.227 428.064 163.68 428.064 164.24C428.064 164.827 428.37 165.28 428.984 165.6C429.597 165.92 430.664 166.24 432.184 166.56C435.17 167.2 437.33 168.053 438.664 169.12C440.024 170.187 440.704 171.64 440.704 173.48C440.704 175.267 439.904 176.693 438.304 177.76C436.73 178.827 434.57 179.36 431.824 179.36Z" fill="white"/>
<path d="M29.9486 246.65L23.7236 235.575C23.8403 235.492 24.0153 235.425 24.2486 235.375C24.4986 235.308 24.732 235.275 24.9486 235.275C25.7986 235.275 26.407 235.633 26.7736 236.35L31.0486 244.375L30.5236 245.425L30.6986 245.525L35.4486 236.35C35.832 235.633 36.4486 235.275 37.2986 235.275C37.5153 235.275 37.7403 235.308 37.9736 235.375C38.2236 235.425 38.407 235.492 38.5236 235.575L32.2986 246.65V251.275C32.2986 251.908 32.0986 252.392 31.6986 252.725C31.2986 253.058 30.7153 253.225 29.9486 253.225V246.65ZM43.0146 253.225C41.998 253.225 41.073 253.033 40.2396 252.65C39.423 252.267 38.7813 251.75 38.3146 251.1C37.8646 250.433 37.6396 249.692 37.6396 248.875V244.775C37.6396 243.942 37.8646 243.183 38.3146 242.5C38.7813 241.817 39.423 241.275 40.2396 240.875C41.0563 240.475 41.9813 240.275 43.0146 240.275C44.048 240.275 44.973 240.475 45.7896 240.875C46.623 241.275 47.2646 241.817 47.7146 242.5C48.1813 243.183 48.4146 243.942 48.4146 244.775V248.875C48.4146 249.692 48.1813 250.433 47.7146 251.1C47.248 251.75 46.6063 252.267 45.7896 252.65C44.973 253.033 44.048 253.225 43.0146 253.225ZM43.0146 251.35C44.0146 251.35 44.8063 251.117 45.3896 250.65C45.9896 250.167 46.2896 249.542 46.2896 248.775V244.85C46.2896 244.05 45.9896 243.4 45.3896 242.9C44.8063 242.4 44.0146 242.15 43.0146 242.15C42.0313 242.15 41.2396 242.4 40.6396 242.9C40.0396 243.4 39.7396 244.05 39.7396 244.85V248.775C39.7396 249.542 40.0313 250.167 40.6146 250.65C41.2146 251.117 42.0146 251.35 43.0146 251.35ZM61.2855 251.375C61.2855 252.608 60.5855 253.225 59.1855 253.225V251.625C59.3355 251.475 59.5105 251.25 59.7105 250.95L59.6105 250.85C59.1105 251.567 58.4772 252.142 57.7105 252.575C56.9605 253.008 56.1355 253.225 55.2355 253.225C54.3355 253.225 53.5355 253.033 52.8355 252.65C52.1522 252.267 51.6189 251.733 51.2355 251.05C50.8689 250.367 50.6855 249.6 50.6855 248.75V241.875C50.6855 241.325 50.8689 240.925 51.2355 240.675C51.6022 240.408 52.1522 240.275 52.8855 240.275V248.65C52.8855 249.45 53.1189 250.092 53.5855 250.575C54.0689 251.058 54.7772 251.3 55.7105 251.3C56.3272 251.3 56.8939 251.175 57.4105 250.925C57.9272 250.658 58.3355 250.308 58.6355 249.875C58.9522 249.425 59.1105 248.942 59.1105 248.425V241.875C59.1105 241.325 59.2855 240.925 59.6355 240.675C60.0022 240.408 60.5522 240.275 61.2855 240.275V251.375ZM76.2236 253.225C75.207 253.225 74.2986 253.042 73.4986 252.675C72.6986 252.308 72.0736 251.792 71.6236 251.125C71.1903 250.458 70.9736 249.7 70.9736 248.85V244.8C70.9736 243.917 71.1903 243.133 71.6236 242.45C72.0736 241.767 72.6903 241.233 73.4736 240.85C74.257 240.467 75.157 240.275 76.1736 240.275C77.1236 240.275 77.9653 240.417 78.6986 240.7C79.4486 240.967 80.032 241.35 80.4486 241.85C80.8653 242.35 81.0736 242.917 81.0736 243.55C81.0736 243.967 80.907 244.308 80.5736 244.575C80.257 244.825 79.8403 244.933 79.3236 244.9C79.3236 244.1 79.032 243.45 78.4486 242.95C77.882 242.45 77.1403 242.2 76.2236 242.2C75.307 242.2 74.5653 242.45 73.9986 242.95C73.432 243.433 73.1486 244.067 73.1486 244.85V248.75C73.1486 249.5 73.4403 250.117 74.0236 250.6C74.607 251.067 75.357 251.3 76.2736 251.3C77.1903 251.3 77.932 251.05 78.4986 250.55C79.082 250.05 79.3736 249.408 79.3736 248.625C79.907 248.592 80.332 248.7 80.6486 248.95C80.982 249.183 81.1486 249.517 81.1486 249.95C81.1486 250.583 80.9403 251.15 80.5236 251.65C80.107 252.15 79.5236 252.542 78.7736 252.825C78.0236 253.092 77.1736 253.225 76.2236 253.225ZM87.8004 253.225C86.3671 253.225 85.2087 252.842 84.3254 252.075C83.4587 251.308 83.0254 250.3 83.0254 249.05C83.0254 247.783 83.4837 246.767 84.4004 246C85.3171 245.217 86.5254 244.825 88.0254 244.825C89.6254 244.825 90.9421 245.392 91.9754 246.525L92.0754 246.425C91.8921 246.225 91.6837 246.017 91.4504 245.8V244.75C91.4504 243.9 91.1837 243.242 90.6504 242.775C90.1171 242.308 89.3587 242.075 88.3754 242.075C86.6254 242.075 85.3754 242.767 84.6254 244.15C84.3587 244.017 84.1337 243.842 83.9504 243.625C83.7837 243.392 83.7004 243.158 83.7004 242.925C83.7004 242.475 83.9254 242.05 84.3754 241.65C84.8254 241.233 85.4171 240.9 86.1504 240.65C86.9004 240.4 87.6837 240.275 88.5004 240.275C90.0837 240.275 91.3254 240.667 92.2254 241.45C93.1421 242.233 93.6004 243.317 93.6004 244.7V251.55C93.6004 252.133 93.4337 252.558 93.1004 252.825C92.7671 253.092 92.2421 253.225 91.5254 253.225V252.05C91.8754 251.683 92.0671 251.467 92.1004 251.4L92.0004 251.3C90.9171 252.583 89.5171 253.225 87.8004 253.225ZM88.1754 251.5C89.2087 251.5 90.0171 251.283 90.6004 250.85C91.2004 250.417 91.5004 249.817 91.5004 249.05C91.5004 248.283 91.2087 247.675 90.6254 247.225C90.0421 246.775 89.2421 246.55 88.2254 246.55C87.2754 246.55 86.5254 246.775 85.9754 247.225C85.4421 247.658 85.1754 248.267 85.1754 249.05C85.1754 249.833 85.4337 250.442 85.9504 250.875C86.4837 251.292 87.2254 251.5 88.1754 251.5ZM96.9805 242.125C96.9805 240.892 97.6805 240.275 99.0805 240.275V241.875C98.9305 242.025 98.7555 242.25 98.5555 242.55L98.6555 242.65C99.1555 241.95 99.8055 241.383 100.605 240.95C101.405 240.5 102.272 240.275 103.205 240.275C104.555 240.275 105.622 240.675 106.405 241.475C107.189 242.275 107.58 243.308 107.58 244.575V251.625C107.58 252.175 107.397 252.583 107.03 252.85C106.68 253.1 106.139 253.225 105.405 253.225V244.8C105.405 244 105.18 243.367 104.73 242.9C104.28 242.433 103.597 242.2 102.68 242.2C102.064 242.2 101.48 242.333 100.93 242.6C100.397 242.85 99.9638 243.2 99.6305 243.65C99.3138 244.083 99.1555 244.558 99.1555 245.075V251.625C99.1555 252.175 98.9721 252.583 98.6055 252.85C98.2555 253.1 97.7138 253.225 96.9805 253.225V242.125ZM121.869 253.225C121.335 253.225 120.894 253.108 120.544 252.875C120.194 252.625 119.952 252.283 119.819 251.85L116.644 240.475C116.877 240.342 117.194 240.275 117.594 240.275C117.96 240.275 118.269 240.358 118.519 240.525C118.769 240.692 118.927 240.933 118.994 241.25L121.094 249.55L120.844 250.625L120.969 250.675L123.694 241C123.76 240.783 123.885 240.608 124.069 240.475C124.252 240.342 124.477 240.275 124.744 240.275C125.01 240.275 125.235 240.342 125.419 240.475C125.602 240.608 125.727 240.783 125.794 241L128.169 249.65L127.869 250.725L128.019 250.775L130.469 241.25C130.535 240.933 130.694 240.692 130.944 240.525C131.194 240.358 131.502 240.275 131.869 240.275C132.269 240.275 132.585 240.342 132.819 240.475L129.644 251.85C129.527 252.283 129.277 252.625 128.894 252.875C128.51 253.108 128.052 253.225 127.519 253.225L124.519 242.425L124.419 242.45L124.669 243.375L121.869 253.225ZM138.728 253.225C137.295 253.225 136.136 252.842 135.253 252.075C134.386 251.308 133.953 250.3 133.953 249.05C133.953 247.783 134.411 246.767 135.328 246C136.245 245.217 137.453 244.825 138.953 244.825C140.553 244.825 141.87 245.392 142.903 246.525L143.003 246.425C142.82 246.225 142.611 246.017 142.378 245.8V244.75C142.378 243.9 142.111 243.242 141.578 242.775C141.045 242.308 140.286 242.075 139.303 242.075C137.553 242.075 136.303 242.767 135.553 244.15C135.286 244.017 135.061 243.842 134.878 243.625C134.711 243.392 134.628 243.158 134.628 242.925C134.628 242.475 134.853 242.05 135.303 241.65C135.753 241.233 136.345 240.9 137.078 240.65C137.828 240.4 138.611 240.275 139.428 240.275C141.011 240.275 142.253 240.667 143.153 241.45C144.07 242.233 144.528 243.317 144.528 244.7V251.55C144.528 252.133 144.361 252.558 144.028 252.825C143.695 253.092 143.17 253.225 142.453 253.225V252.05C142.803 251.683 142.995 251.467 143.028 251.4L142.928 251.3C141.845 252.583 140.445 253.225 138.728 253.225ZM139.103 251.5C140.136 251.5 140.945 251.283 141.528 250.85C142.128 250.417 142.428 249.817 142.428 249.05C142.428 248.283 142.136 247.675 141.553 247.225C140.97 246.775 140.17 246.55 139.153 246.55C138.203 246.55 137.453 246.775 136.903 247.225C136.37 247.658 136.103 248.267 136.103 249.05C136.103 249.833 136.361 250.442 136.878 250.875C137.411 251.292 138.153 251.5 139.103 251.5ZM151.76 253.225C150.577 253.225 149.693 252.892 149.11 252.225C148.527 251.542 148.235 250.65 148.235 249.55V242.25H145.91C145.91 241.683 146.035 241.25 146.285 240.95C146.535 240.65 146.877 240.5 147.31 240.5H148.26V238.125C148.26 237.575 148.435 237.175 148.785 236.925C149.152 236.658 149.693 236.525 150.41 236.525V240.5H153.735C153.735 241.667 153.21 242.25 152.16 242.25H150.435V249.475C150.435 250.142 150.552 250.617 150.785 250.9C151.035 251.167 151.477 251.3 152.11 251.3C152.693 251.3 153.243 251.15 153.76 250.85C153.977 251.067 154.085 251.358 154.085 251.725C154.085 252.125 153.877 252.475 153.46 252.775C153.043 253.075 152.477 253.225 151.76 253.225ZM161.722 253.225C160.705 253.225 159.797 253.042 158.997 252.675C158.197 252.308 157.572 251.792 157.122 251.125C156.688 250.458 156.472 249.7 156.472 248.85V244.8C156.472 243.917 156.688 243.133 157.122 242.45C157.572 241.767 158.188 241.233 158.972 240.85C159.755 240.467 160.655 240.275 161.672 240.275C162.622 240.275 163.463 240.417 164.197 240.7C164.947 240.967 165.53 241.35 165.947 241.85C166.363 242.35 166.572 242.917 166.572 243.55C166.572 243.967 166.405 244.308 166.072 244.575C165.755 244.825 165.338 244.933 164.822 244.9C164.822 244.1 164.53 243.45 163.947 242.95C163.38 242.45 162.638 242.2 161.722 242.2C160.805 242.2 160.063 242.45 159.497 242.95C158.93 243.433 158.647 244.067 158.647 244.85V248.75C158.647 249.5 158.938 250.117 159.522 250.6C160.105 251.067 160.855 251.3 161.772 251.3C162.688 251.3 163.43 251.05 163.997 250.55C164.58 250.05 164.872 249.408 164.872 248.625C165.405 248.592 165.83 248.7 166.147 248.95C166.48 249.183 166.647 249.517 166.647 249.95C166.647 250.583 166.438 251.15 166.022 251.65C165.605 252.15 165.022 252.542 164.272 252.825C163.522 253.092 162.672 253.225 161.722 253.225ZM169.515 237.125C169.515 236.525 169.698 236.067 170.065 235.75C170.431 235.433 170.973 235.275 171.69 235.275V241.85C171.456 242.117 171.273 242.35 171.14 242.55L171.24 242.65C171.756 241.95 172.406 241.383 173.19 240.95C173.973 240.5 174.823 240.275 175.74 240.275C177.09 240.275 178.156 240.675 178.94 241.475C179.723 242.275 180.115 243.308 180.115 244.575V251.625C180.115 252.175 179.931 252.583 179.565 252.85C179.215 253.1 178.673 253.225 177.94 253.225V244.8C177.94 244 177.715 243.367 177.265 242.9C176.815 242.433 176.131 242.2 175.215 242.2C174.598 242.2 174.015 242.333 173.465 242.6C172.931 242.85 172.498 243.2 172.165 243.65C171.848 244.083 171.69 244.558 171.69 245.075V251.625C171.69 252.175 171.506 252.583 171.14 252.85C170.79 253.1 170.248 253.225 169.515 253.225V237.125ZM193.953 253.225C192.519 253.225 191.361 252.842 190.478 252.075C189.611 251.308 189.178 250.3 189.178 249.05C189.178 247.783 189.636 246.767 190.553 246C191.469 245.217 192.678 244.825 194.178 244.825C195.778 244.825 197.094 245.392 198.128 246.525L198.228 246.425C198.044 246.225 197.836 246.017 197.603 245.8V244.75C197.603 243.9 197.336 243.242 196.803 242.775C196.269 242.308 195.511 242.075 194.528 242.075C192.778 242.075 191.528 242.767 190.778 244.15C190.511 244.017 190.286 243.842 190.103 243.625C189.936 243.392 189.853 243.158 189.853 242.925C189.853 242.475 190.078 242.05 190.528 241.65C190.978 241.233 191.569 240.9 192.303 240.65C193.053 240.4 193.836 240.275 194.653 240.275C196.236 240.275 197.478 240.667 198.378 241.45C199.294 242.233 199.753 243.317 199.753 244.7V251.55C199.753 252.133 199.586 252.558 199.253 252.825C198.919 253.092 198.394 253.225 197.678 253.225V252.05C198.028 251.683 198.219 251.467 198.253 251.4L198.153 251.3C197.069 252.583 195.669 253.225 193.953 253.225ZM194.328 251.5C195.361 251.5 196.169 251.283 196.753 250.85C197.353 250.417 197.653 249.817 197.653 249.05C197.653 248.283 197.361 247.675 196.778 247.225C196.194 246.775 195.394 246.55 194.378 246.55C193.428 246.55 192.678 246.775 192.128 247.225C191.594 247.658 191.328 248.267 191.328 249.05C191.328 249.833 191.586 250.442 192.103 250.875C192.636 251.292 193.378 251.5 194.328 251.5ZM206.758 253.225C205.541 253.225 204.633 252.892 204.033 252.225C203.433 251.542 203.133 250.65 203.133 249.55V236.875C203.133 236.325 203.308 235.925 203.658 235.675C204.024 235.408 204.574 235.275 205.308 235.275V249.475C205.308 250.125 205.441 250.592 205.708 250.875C205.974 251.158 206.416 251.3 207.033 251.3C207.649 251.3 208.216 251.15 208.733 250.85C208.949 251.1 209.058 251.392 209.058 251.725C209.058 252.125 208.849 252.475 208.433 252.775C208.016 253.075 207.458 253.225 206.758 253.225ZM214.668 253.225C213.451 253.225 212.543 252.892 211.943 252.225C211.343 251.542 211.043 250.65 211.043 249.55V236.875C211.043 236.325 211.218 235.925 211.568 235.675C211.935 235.408 212.485 235.275 213.218 235.275V249.475C213.218 250.125 213.351 250.592 213.618 250.875C213.885 251.158 214.326 251.3 214.943 251.3C215.56 251.3 216.126 251.15 216.643 250.85C216.86 251.1 216.968 251.392 216.968 251.725C216.968 252.125 216.76 252.475 216.343 252.775C215.926 253.075 215.368 253.225 214.668 253.225ZM227.258 258.2C226.225 258.2 225.683 257.6 225.633 256.4C226.133 256.467 226.492 256.5 226.708 256.5C227.442 256.5 228.025 256.283 228.458 255.85C228.908 255.417 229.367 254.667 229.833 253.6L230.333 252.475L225.408 240.45C225.525 240.4 225.675 240.358 225.858 240.325C226.058 240.292 226.225 240.275 226.358 240.275C226.708 240.292 227.025 240.392 227.308 240.575C227.592 240.742 227.792 240.967 227.908 241.25L231.258 249.8L230.908 250.8L231.058 250.875L234.858 241.25C234.975 240.95 235.167 240.717 235.433 240.55C235.717 240.367 236.033 240.275 236.383 240.275C236.533 240.275 236.7 240.292 236.883 240.325C237.083 240.358 237.233 240.4 237.333 240.45L231.708 254.225C231.158 255.558 230.542 256.55 229.858 257.2C229.175 257.867 228.308 258.2 227.258 258.2ZM243.332 253.225C242.315 253.225 241.39 253.033 240.557 252.65C239.74 252.267 239.099 251.75 238.632 251.1C238.182 250.433 237.957 249.692 237.957 248.875V244.775C237.957 243.942 238.182 243.183 238.632 242.5C239.099 241.817 239.74 241.275 240.557 240.875C241.374 240.475 242.299 240.275 243.332 240.275C244.365 240.275 245.29 240.475 246.107 240.875C246.94 241.275 247.582 241.817 248.032 242.5C248.499 243.183 248.732 243.942 248.732 244.775V248.875C248.732 249.692 248.499 250.433 248.032 251.1C247.565 251.75 246.924 252.267 246.107 252.65C245.29 253.033 244.365 253.225 243.332 253.225ZM243.332 251.35C244.332 251.35 245.124 251.117 245.707 250.65C246.307 250.167 246.607 249.542 246.607 248.775V244.85C246.607 244.05 246.307 243.4 245.707 242.9C245.124 242.4 244.332 242.15 243.332 242.15C242.349 242.15 241.557 242.4 240.957 242.9C240.357 243.4 240.057 244.05 240.057 244.85V248.775C240.057 249.542 240.349 250.167 240.932 250.65C241.532 251.117 242.332 251.35 243.332 251.35ZM261.603 251.375C261.603 252.608 260.903 253.225 259.503 253.225V251.625C259.653 251.475 259.828 251.25 260.028 250.95L259.928 250.85C259.428 251.567 258.795 252.142 258.028 252.575C257.278 253.008 256.453 253.225 255.553 253.225C254.653 253.225 253.853 253.033 253.153 252.65C252.47 252.267 251.936 251.733 251.553 251.05C251.186 250.367 251.003 249.6 251.003 248.75V241.875C251.003 241.325 251.186 240.925 251.553 240.675C251.92 240.408 252.47 240.275 253.203 240.275V248.65C253.203 249.45 253.436 250.092 253.903 250.575C254.386 251.058 255.095 251.3 256.028 251.3C256.645 251.3 257.211 251.175 257.728 250.925C258.245 250.658 258.653 250.308 258.953 249.875C259.27 249.425 259.428 248.942 259.428 248.425V241.875C259.428 241.325 259.603 240.925 259.953 240.675C260.32 240.408 260.87 240.275 261.603 240.275V251.375ZM270.521 242.2C269.587 242.2 268.812 242.483 268.196 243.05C267.579 243.6 267.271 244.275 267.271 245.075V251.625C267.271 252.175 267.087 252.583 266.721 252.85C266.371 253.1 265.829 253.225 265.096 253.225V242.125C265.096 240.892 265.796 240.275 267.196 240.275V241.8C266.929 242.083 266.746 242.333 266.646 242.55L266.746 242.65C267.812 241.067 269.146 240.275 270.746 240.275C271.346 240.275 271.804 240.425 272.121 240.725C272.437 241.008 272.596 241.358 272.596 241.775C272.596 242.075 272.521 242.342 272.371 242.575C271.904 242.325 271.287 242.2 270.521 242.2ZM282.873 242.25H280.798C280.798 241.083 281.231 240.5 282.098 240.5H282.873V238.975C282.873 237.892 283.181 237.008 283.798 236.325C284.415 235.625 285.34 235.275 286.573 235.275C287.273 235.275 287.815 235.433 288.198 235.75C288.581 236.05 288.773 236.4 288.773 236.8C288.773 237.15 288.665 237.433 288.448 237.65C287.931 237.35 287.373 237.2 286.773 237.2C286.156 237.2 285.715 237.35 285.448 237.65C285.181 237.95 285.048 238.425 285.048 239.075V240.5H288.173C288.173 241.1 288.04 241.542 287.773 241.825C287.523 242.108 287.131 242.25 286.598 242.25H285.048V251.625C285.048 252.175 284.865 252.583 284.498 252.85C284.148 253.1 283.606 253.225 282.873 253.225V242.25ZM293.904 253.225C292.471 253.225 291.312 252.842 290.429 252.075C289.562 251.308 289.129 250.3 289.129 249.05C289.129 247.783 289.587 246.767 290.504 246C291.421 245.217 292.629 244.825 294.129 244.825C295.729 244.825 297.046 245.392 298.079 246.525L298.179 246.425C297.996 246.225 297.787 246.017 297.554 245.8V244.75C297.554 243.9 297.287 243.242 296.754 242.775C296.221 242.308 295.462 242.075 294.479 242.075C292.729 242.075 291.479 242.767 290.729 244.15C290.462 244.017 290.237 243.842 290.054 243.625C289.887 243.392 289.804 243.158 289.804 242.925C289.804 242.475 290.029 242.05 290.479 241.65C290.929 241.233 291.521 240.9 292.254 240.65C293.004 240.4 293.787 240.275 294.604 240.275C296.187 240.275 297.429 240.667 298.329 241.45C299.246 242.233 299.704 243.317 299.704 244.7V251.55C299.704 252.133 299.537 252.558 299.204 252.825C298.871 253.092 298.346 253.225 297.629 253.225V252.05C297.979 251.683 298.171 251.467 298.204 251.4L298.104 251.3C297.021 252.583 295.621 253.225 293.904 253.225ZM294.279 251.5C295.312 251.5 296.121 251.283 296.704 250.85C297.304 250.417 297.604 249.817 297.604 249.05C297.604 248.283 297.312 247.675 296.729 247.225C296.146 246.775 295.346 246.55 294.329 246.55C293.379 246.55 292.629 246.775 292.079 247.225C291.546 247.658 291.279 248.267 291.279 249.05C291.279 249.833 291.537 250.442 292.054 250.875C292.587 251.292 293.329 251.5 294.279 251.5ZM307.236 253.225C306.986 253.225 306.761 253.158 306.561 253.025C306.361 252.892 306.219 252.725 306.136 252.525L301.336 240.45C301.436 240.4 301.578 240.358 301.761 240.325C301.944 240.292 302.111 240.275 302.261 240.275C302.628 240.275 302.953 240.358 303.236 240.525C303.519 240.692 303.711 240.933 303.811 241.25L307.111 250.225L306.761 251.225L306.886 251.275L310.636 241.25C310.736 240.933 310.928 240.692 311.211 240.525C311.494 240.358 311.811 240.275 312.161 240.275C312.311 240.275 312.478 240.292 312.661 240.325C312.844 240.358 312.994 240.4 313.111 240.45L308.311 252.525C308.228 252.725 308.086 252.892 307.886 253.025C307.703 253.158 307.486 253.225 307.236 253.225ZM319.089 253.225C318.072 253.225 317.147 253.033 316.314 252.65C315.497 252.267 314.856 251.75 314.389 251.1C313.939 250.433 313.714 249.692 313.714 248.875V244.775C313.714 243.942 313.939 243.183 314.389 242.5C314.856 241.817 315.497 241.275 316.314 240.875C317.131 240.475 318.056 240.275 319.089 240.275C320.122 240.275 321.047 240.475 321.864 240.875C322.697 241.275 323.339 241.817 323.789 242.5C324.256 243.183 324.489 243.942 324.489 244.775V248.875C324.489 249.692 324.256 250.433 323.789 251.1C323.322 251.75 322.681 252.267 321.864 252.65C321.047 253.033 320.122 253.225 319.089 253.225ZM319.089 251.35C320.089 251.35 320.881 251.117 321.464 250.65C322.064 250.167 322.364 249.542 322.364 248.775V244.85C322.364 244.05 322.064 243.4 321.464 242.9C320.881 242.4 320.089 242.15 319.089 242.15C318.106 242.15 317.314 242.4 316.714 242.9C316.114 243.4 315.814 244.05 315.814 244.85V248.775C315.814 249.542 316.106 250.167 316.689 250.65C317.289 251.117 318.089 251.35 319.089 251.35ZM332.801 242.2C331.868 242.2 331.093 242.483 330.476 243.05C329.859 243.6 329.551 244.275 329.551 245.075V251.625C329.551 252.175 329.368 252.583 329.001 252.85C328.651 253.1 328.109 253.225 327.376 253.225V242.125C327.376 240.892 328.076 240.275 329.476 240.275V241.8C329.209 242.083 329.026 242.333 328.926 242.55L329.026 242.65C330.093 241.067 331.426 240.275 333.026 240.275C333.626 240.275 334.084 240.425 334.401 240.725C334.718 241.008 334.876 241.358 334.876 241.775C334.876 242.075 334.801 242.342 334.651 242.575C334.184 242.325 333.568 242.2 332.801 242.2ZM338.523 238.4C338.056 238.4 337.665 238.25 337.348 237.95C337.031 237.65 336.873 237.275 336.873 236.825C336.873 236.375 337.031 236.008 337.348 235.725C337.665 235.425 338.056 235.275 338.523 235.275C338.973 235.275 339.356 235.425 339.673 235.725C339.99 236.008 340.148 236.375 340.148 236.825C340.148 237.275 339.99 237.65 339.673 237.95C339.356 238.25 338.973 238.4 338.523 238.4ZM337.423 241.875C337.423 241.325 337.598 240.925 337.948 240.675C338.315 240.408 338.865 240.275 339.598 240.275V251.625C339.598 252.175 339.415 252.583 339.048 252.85C338.698 253.1 338.156 253.225 337.423 253.225V241.875ZM348.635 253.225C347.452 253.225 346.568 252.892 345.985 252.225C345.402 251.542 345.11 250.65 345.11 249.55V242.25H342.785C342.785 241.683 342.91 241.25 343.16 240.95C343.41 240.65 343.752 240.5 344.185 240.5H345.135V238.125C345.135 237.575 345.31 237.175 345.66 236.925C346.027 236.658 346.568 236.525 347.285 236.525V240.5H350.61C350.61 241.667 350.085 242.25 349.035 242.25H347.31V249.475C347.31 250.142 347.427 250.617 347.66 250.9C347.91 251.167 348.352 251.3 348.985 251.3C349.568 251.3 350.118 251.15 350.635 250.85C350.852 251.067 350.96 251.358 350.96 251.725C350.96 252.125 350.752 252.475 350.335 252.775C349.918 253.075 349.352 253.225 348.635 253.225ZM358.622 253.225C357.605 253.225 356.697 253.033 355.897 252.65C355.097 252.25 354.472 251.708 354.022 251.025C353.572 250.325 353.347 249.542 353.347 248.675V244.975C353.347 244.092 353.58 243.292 354.047 242.575C354.53 241.858 355.172 241.3 355.972 240.9C356.788 240.483 357.672 240.275 358.622 240.275C359.572 240.275 360.438 240.475 361.222 240.875C362.022 241.275 362.647 241.825 363.097 242.525C363.563 243.225 363.797 244.017 363.797 244.9V246.5C363.797 246.767 363.697 246.992 363.497 247.175C363.297 247.358 363.055 247.45 362.772 247.45H355.472V248.575C355.472 249.425 355.738 250.108 356.272 250.625C356.822 251.142 357.605 251.4 358.622 251.4C359.638 251.4 360.413 251.175 360.947 250.725C361.48 250.275 361.747 249.667 361.747 248.9C362.247 248.867 362.663 248.967 362.997 249.2C363.347 249.417 363.522 249.742 363.522 250.175C363.522 250.708 363.288 251.208 362.822 251.675C362.372 252.142 361.772 252.517 361.022 252.8C360.272 253.083 359.472 253.225 358.622 253.225ZM361.772 245.75V244.9C361.772 244.067 361.48 243.392 360.897 242.875C360.33 242.342 359.572 242.075 358.622 242.075C357.672 242.075 356.905 242.342 356.322 242.875C355.755 243.392 355.472 244.067 355.472 244.9V245.75H361.772ZM378.128 253.225C377.111 253.225 376.203 253.042 375.403 252.675C374.603 252.308 373.978 251.792 373.528 251.125C373.095 250.458 372.878 249.7 372.878 248.85V244.8C372.878 243.917 373.095 243.133 373.528 242.45C373.978 241.767 374.595 241.233 375.378 240.85C376.161 240.467 377.061 240.275 378.078 240.275C379.028 240.275 379.87 240.417 380.603 240.7C381.353 240.967 381.936 241.35 382.353 241.85C382.77 242.35 382.978 242.917 382.978 243.55C382.978 243.967 382.811 244.308 382.478 244.575C382.161 244.825 381.745 244.933 381.228 244.9C381.228 244.1 380.936 243.45 380.353 242.95C379.786 242.45 379.045 242.2 378.128 242.2C377.211 242.2 376.47 242.45 375.903 242.95C375.336 243.433 375.053 244.067 375.053 244.85V248.75C375.053 249.5 375.345 250.117 375.928 250.6C376.511 251.067 377.261 251.3 378.178 251.3C379.095 251.3 379.836 251.05 380.403 250.55C380.986 250.05 381.278 249.408 381.278 248.625C381.811 248.592 382.236 248.7 382.553 248.95C382.886 249.183 383.053 249.517 383.053 249.95C383.053 250.583 382.845 251.15 382.428 251.65C382.011 252.15 381.428 252.542 380.678 252.825C379.928 253.092 379.078 253.225 378.128 253.225ZM385.921 237.125C385.921 236.525 386.104 236.067 386.471 235.75C386.838 235.433 387.379 235.275 388.096 235.275V241.85C387.863 242.117 387.679 242.35 387.546 242.55L387.646 242.65C388.163 241.95 388.813 241.383 389.596 240.95C390.379 240.5 391.229 240.275 392.146 240.275C393.496 240.275 394.563 240.675 395.346 241.475C396.129 242.275 396.521 243.308 396.521 244.575V251.625C396.521 252.175 396.338 252.583 395.971 252.85C395.621 253.1 395.079 253.225 394.346 253.225V244.8C394.346 244 394.121 243.367 393.671 242.9C393.221 242.433 392.538 242.2 391.621 242.2C391.004 242.2 390.421 242.333 389.871 242.6C389.338 242.85 388.904 243.2 388.571 243.65C388.254 244.083 388.096 244.558 388.096 245.075V251.625C388.096 252.175 387.913 252.583 387.546 252.85C387.196 253.1 386.654 253.225 385.921 253.225V237.125ZM403.914 253.225C402.48 253.225 401.322 252.842 400.439 252.075C399.572 251.308 399.139 250.3 399.139 249.05C399.139 247.783 399.597 246.767 400.514 246C401.43 245.217 402.639 244.825 404.139 244.825C405.739 244.825 407.055 245.392 408.089 246.525L408.189 246.425C408.005 246.225 407.797 246.017 407.564 245.8V244.75C407.564 243.9 407.297 243.242 406.764 242.775C406.23 242.308 405.472 242.075 404.489 242.075C402.739 242.075 401.489 242.767 400.739 244.15C400.472 244.017 400.247 243.842 400.064 243.625C399.897 243.392 399.814 243.158 399.814 242.925C399.814 242.475 400.039 242.05 400.489 241.65C400.939 241.233 401.53 240.9 402.264 240.65C403.014 240.4 403.797 240.275 404.614 240.275C406.197 240.275 407.439 240.667 408.339 241.45C409.255 242.233 409.714 243.317 409.714 244.7V251.55C409.714 252.133 409.547 252.558 409.214 252.825C408.88 253.092 408.355 253.225 407.639 253.225V252.05C407.989 251.683 408.18 251.467 408.214 251.4L408.114 251.3C407.03 252.583 405.63 253.225 403.914 253.225ZM404.289 251.5C405.322 251.5 406.13 251.283 406.714 250.85C407.314 250.417 407.614 249.817 407.614 249.05C407.614 248.283 407.322 247.675 406.739 247.225C406.155 246.775 405.355 246.55 404.339 246.55C403.389 246.55 402.639 246.775 402.089 247.225C401.555 247.658 401.289 248.267 401.289 249.05C401.289 249.833 401.547 250.442 402.064 250.875C402.597 251.292 403.339 251.5 404.289 251.5ZM413.094 242.125C413.094 240.892 413.794 240.275 415.194 240.275V241.875C415.044 242.025 414.869 242.25 414.669 242.55L414.769 242.65C415.269 241.95 415.919 241.383 416.719 240.95C417.519 240.5 418.385 240.275 419.319 240.275C420.669 240.275 421.735 240.675 422.519 241.475C423.302 242.275 423.694 243.308 423.694 244.575V251.625C423.694 252.175 423.51 252.583 423.144 252.85C422.794 253.1 422.252 253.225 421.519 253.225V244.8C421.519 244 421.294 243.367 420.844 242.9C420.394 242.433 419.71 242.2 418.794 242.2C418.177 242.2 417.594 242.333 417.044 242.6C416.51 242.85 416.077 243.2 415.744 243.65C415.427 244.083 415.269 244.558 415.269 245.075V251.625C415.269 252.175 415.085 252.583 414.719 252.85C414.369 253.1 413.827 253.225 413.094 253.225V242.125ZM426.937 242.125C426.937 240.892 427.637 240.275 429.037 240.275V241.875C428.887 242.025 428.712 242.25 428.512 242.55L428.612 242.65C429.112 241.95 429.762 241.383 430.562 240.95C431.362 240.5 432.228 240.275 433.162 240.275C434.512 240.275 435.578 240.675 436.362 241.475C437.145 242.275 437.537 243.308 437.537 244.575V251.625C437.537 252.175 437.353 252.583 436.987 252.85C436.637 253.1 436.095 253.225 435.362 253.225V244.8C435.362 244 435.137 243.367 434.687 242.9C434.237 242.433 433.553 242.2 432.637 242.2C432.02 242.2 431.437 242.333 430.887 242.6C430.353 242.85 429.92 243.2 429.587 243.65C429.27 244.083 429.112 244.558 429.112 245.075V251.625C429.112 252.175 428.928 252.583 428.562 252.85C428.212 253.1 427.67 253.225 426.937 253.225V242.125ZM445.804 253.225C444.788 253.225 443.879 253.033 443.079 252.65C442.279 252.25 441.654 251.708 441.204 251.025C440.754 250.325 440.529 249.542 440.529 248.675V244.975C440.529 244.092 440.763 243.292 441.229 242.575C441.713 241.858 442.354 241.3 443.154 240.9C443.971 240.483 444.854 240.275 445.804 240.275C446.754 240.275 447.621 240.475 448.404 240.875C449.204 241.275 449.829 241.825 450.279 242.525C450.746 243.225 450.979 244.017 450.979 244.9V246.5C450.979 246.767 450.879 246.992 450.679 247.175C450.479 247.358 450.238 247.45 449.954 247.45H442.654V248.575C442.654 249.425 442.921 250.108 443.454 250.625C444.004 251.142 444.788 251.4 445.804 251.4C446.821 251.4 447.596 251.175 448.129 250.725C448.663 250.275 448.929 249.667 448.929 248.9C449.429 248.867 449.846 248.967 450.179 249.2C450.529 249.417 450.704 249.742 450.704 250.175C450.704 250.708 450.471 251.208 450.004 251.675C449.554 252.142 448.954 252.517 448.204 252.8C447.454 253.083 446.654 253.225 445.804 253.225ZM448.954 245.75V244.9C448.954 244.067 448.663 243.392 448.079 242.875C447.513 242.342 446.754 242.075 445.804 242.075C444.854 242.075 444.088 242.342 443.504 242.875C442.938 243.392 442.654 244.067 442.654 244.9V245.75H448.954ZM457.49 253.225C456.274 253.225 455.365 252.892 454.765 252.225C454.165 251.542 453.865 250.65 453.865 249.55V236.875C453.865 236.325 454.04 235.925 454.39 235.675C454.757 235.408 455.307 235.275 456.04 235.275V249.475C456.04 250.125 456.174 250.592 456.44 250.875C456.707 251.158 457.149 251.3 457.765 251.3C458.382 251.3 458.949 251.15 459.465 250.85C459.682 251.1 459.79 251.392 459.79 251.725C459.79 252.125 459.582 252.475 459.165 252.775C458.749 253.075 458.19 253.225 457.49 253.225ZM466.569 253.225C465.719 253.225 464.919 253.1 464.169 252.85C463.419 252.583 462.811 252.208 462.344 251.725C461.894 251.242 461.669 250.675 461.669 250.025C461.669 249.225 462.152 248.792 463.119 248.725C463.286 249.658 463.677 250.35 464.294 250.8C464.927 251.233 465.727 251.45 466.694 251.45C467.661 251.45 468.411 251.308 468.944 251.025C469.477 250.742 469.744 250.308 469.744 249.725C469.744 249.308 469.636 248.975 469.419 248.725C469.202 248.458 468.852 248.233 468.369 248.05C467.902 247.85 467.227 247.658 466.344 247.475C465.244 247.225 464.369 246.958 463.719 246.675C463.069 246.392 462.569 246.017 462.219 245.55C461.886 245.083 461.719 244.467 461.719 243.7C461.719 243.05 461.919 242.467 462.319 241.95C462.719 241.417 463.269 241.008 463.969 240.725C464.686 240.425 465.494 240.275 466.394 240.275C467.227 240.275 468.011 240.392 468.744 240.625C469.494 240.858 470.094 241.192 470.544 241.625C471.011 242.058 471.244 242.558 471.244 243.125C471.244 243.508 471.094 243.817 470.794 244.05C470.494 244.267 470.077 244.392 469.544 244.425C469.494 243.692 469.194 243.117 468.644 242.7C468.111 242.267 467.361 242.05 466.394 242.05C465.594 242.05 464.961 242.2 464.494 242.5C464.027 242.8 463.794 243.2 463.794 243.7C463.794 244.233 464.011 244.633 464.444 244.9C464.894 245.15 465.652 245.392 466.719 245.625C468.469 245.975 469.752 246.458 470.569 247.075C471.402 247.675 471.819 248.533 471.819 249.65C471.819 250.783 471.361 251.667 470.444 252.3C469.527 252.917 468.236 253.225 466.569 253.225ZM485.286 253.225C483.852 253.225 482.694 252.842 481.811 252.075C480.944 251.308 480.511 250.3 480.511 249.05C480.511 247.783 480.969 246.767 481.886 246C482.802 245.217 484.011 244.825 485.511 244.825C487.111 244.825 488.427 245.392 489.461 246.525L489.561 246.425C489.377 246.225 489.169 246.017 488.936 245.8V244.75C488.936 243.9 488.669 243.242 488.136 242.775C487.602 242.308 486.844 242.075 485.861 242.075C484.111 242.075 482.861 242.767 482.111 244.15C481.844 244.017 481.619 243.842 481.436 243.625C481.269 243.392 481.186 243.158 481.186 242.925C481.186 242.475 481.411 242.05 481.861 241.65C482.311 241.233 482.902 240.9 483.636 240.65C484.386 240.4 485.169 240.275 485.986 240.275C487.569 240.275 488.811 240.667 489.711 241.45C490.627 242.233 491.086 243.317 491.086 244.7V251.55C491.086 252.133 490.919 252.558 490.586 252.825C490.252 253.092 489.727 253.225 489.011 253.225V252.05C489.361 251.683 489.552 251.467 489.586 251.4L489.486 251.3C488.402 252.583 487.002 253.225 485.286 253.225ZM485.661 251.5C486.694 251.5 487.502 251.283 488.086 250.85C488.686 250.417 488.986 249.817 488.986 249.05C488.986 248.283 488.694 247.675 488.111 247.225C487.527 246.775 486.727 246.55 485.711 246.55C484.761 246.55 484.011 246.775 483.461 247.225C482.927 247.658 482.661 248.267 482.661 249.05C482.661 249.833 482.919 250.442 483.436 250.875C483.969 251.292 484.711 251.5 485.661 251.5ZM494.466 242.125C494.466 240.892 495.166 240.275 496.566 240.275V241.875C496.416 242.025 496.241 242.25 496.041 242.55L496.141 242.65C496.641 241.95 497.291 241.383 498.091 240.95C498.891 240.5 499.757 240.275 500.691 240.275C502.041 240.275 503.107 240.675 503.891 241.475C504.674 242.275 505.066 243.308 505.066 244.575V251.625C505.066 252.175 504.882 252.583 504.516 252.85C504.166 253.1 503.624 253.225 502.891 253.225V244.8C502.891 244 502.666 243.367 502.216 242.9C501.766 242.433 501.082 242.2 500.166 242.2C499.549 242.2 498.966 242.333 498.416 242.6C497.882 242.85 497.449 243.2 497.116 243.65C496.799 244.083 496.641 244.558 496.641 245.075V251.625C496.641 252.175 496.457 252.583 496.091 252.85C495.741 253.1 495.199 253.225 494.466 253.225V242.125ZM512.884 253.225C511.45 253.225 510.284 252.833 509.384 252.05C508.5 251.25 508.059 250.192 508.059 248.875V244.6C508.059 243.75 508.267 243 508.684 242.35C509.1 241.683 509.675 241.175 510.409 240.825C511.159 240.458 512.017 240.275 512.984 240.275C513.767 240.275 514.492 240.442 515.159 240.775C515.825 241.092 516.409 241.517 516.909 242.05L516.984 241.925C516.867 241.758 516.692 241.575 516.459 241.375V236.975C516.459 236.425 516.642 236.008 517.009 235.725C517.375 235.425 517.925 235.275 518.659 235.275V251.45C518.659 252 518.492 252.433 518.159 252.75C517.842 253.067 517.325 253.225 516.609 253.225V251.825C516.842 251.525 517 251.308 517.084 251.175L517.009 251.075C516.475 251.742 515.884 252.267 515.234 252.65C514.584 253.033 513.8 253.225 512.884 253.225ZM513.359 251.3C514.242 251.3 514.984 251.075 515.584 250.625C516.184 250.158 516.484 249.583 516.484 248.9V244.575C516.484 243.908 516.2 243.35 515.634 242.9C515.067 242.433 514.3 242.2 513.334 242.2C512.35 242.2 511.584 242.425 511.034 242.875C510.5 243.308 510.234 243.917 510.234 244.7V248.775C510.234 249.592 510.5 250.217 511.034 250.65C511.584 251.083 512.359 251.3 513.359 251.3ZM119.836 286.225C119.286 286.225 118.911 285.975 118.711 285.475L112.261 268.5C112.395 268.433 112.553 268.383 112.736 268.35C112.92 268.3 113.086 268.275 113.236 268.275C113.703 268.275 114.095 268.392 114.411 268.625C114.745 268.842 114.986 269.15 115.136 269.55L119.711 282.325L119.261 283.6L119.461 283.675L124.536 269.55C124.686 269.15 124.928 268.842 125.261 268.625C125.595 268.392 125.995 268.275 126.461 268.275C126.745 268.275 127.07 268.35 127.436 268.5L120.986 285.475C120.903 285.708 120.761 285.892 120.561 286.025C120.361 286.158 120.12 286.225 119.836 286.225ZM135.526 286.225C134.142 286.225 132.901 285.958 131.801 285.425C130.717 284.875 129.867 284.125 129.251 283.175C128.634 282.208 128.326 281.142 128.326 279.975V274.475C128.326 273.308 128.634 272.258 129.251 271.325C129.867 270.375 130.717 269.633 131.801 269.1C132.901 268.55 134.142 268.275 135.526 268.275C136.926 268.275 138.167 268.55 139.251 269.1C140.351 269.633 141.209 270.375 141.826 271.325C142.442 272.258 142.751 273.308 142.751 274.475V279.975C142.751 281.142 142.442 282.208 141.826 283.175C141.209 284.125 140.351 284.875 139.251 285.425C138.151 285.958 136.909 286.225 135.526 286.225ZM135.526 284.175C137.076 284.175 138.284 283.792 139.151 283.025C140.017 282.258 140.451 281.233 140.451 279.95V274.525C140.451 273.242 140.017 272.225 139.151 271.475C138.284 270.708 137.076 270.325 135.526 270.325C133.992 270.325 132.792 270.708 131.926 271.475C131.059 272.225 130.626 273.242 130.626 274.525V279.95C130.626 281.233 131.059 282.258 131.926 283.025C132.792 283.792 133.992 284.175 135.526 284.175ZM146.825 286C146.492 286 146.209 285.9 145.975 285.7C145.742 285.483 145.625 285.217 145.625 284.9V269.6C145.625 269.283 145.734 269.025 145.95 268.825C146.184 268.608 146.475 268.5 146.825 268.5H152.675C154.092 268.5 155.342 268.767 156.425 269.3C157.509 269.833 158.35 270.583 158.95 271.55C159.567 272.5 159.875 273.592 159.875 274.825V279.625C159.875 280.858 159.567 281.958 158.95 282.925C158.35 283.892 157.5 284.65 156.4 285.2C155.317 285.733 154.075 286 152.675 286H146.825ZM152.425 283.95C154.025 283.95 155.275 283.575 156.175 282.825C157.075 282.058 157.525 281 157.525 279.65V274.8C157.525 273.467 157.075 272.425 156.175 271.675C155.275 270.925 154.025 270.55 152.425 270.55H147.975V283.95H152.425ZM174.326 286.225C173.309 286.225 172.384 286.033 171.551 285.65C170.734 285.267 170.092 284.75 169.626 284.1C169.176 283.433 168.951 282.692 168.951 281.875V277.775C168.951 276.942 169.176 276.183 169.626 275.5C170.092 274.817 170.734 274.275 171.551 273.875C172.367 273.475 173.292 273.275 174.326 273.275C175.359 273.275 176.284 273.475 177.101 273.875C177.934 274.275 178.576 274.817 179.026 275.5C179.492 276.183 179.726 276.942 179.726 277.775V281.875C179.726 282.692 179.492 283.433 179.026 284.1C178.559 284.75 177.917 285.267 177.101 285.65C176.284 286.033 175.359 286.225 174.326 286.225ZM174.326 284.35C175.326 284.35 176.117 284.117 176.701 283.65C177.301 283.167 177.601 282.542 177.601 281.775V277.85C177.601 277.05 177.301 276.4 176.701 275.9C176.117 275.4 175.326 275.15 174.326 275.15C173.342 275.15 172.551 275.4 171.951 275.9C171.351 276.4 171.051 277.05 171.051 277.85V281.775C171.051 282.542 171.342 283.167 171.926 283.65C172.526 284.117 173.326 284.35 174.326 284.35ZM182.613 275.125C182.613 273.892 183.313 273.275 184.713 273.275V274.875C184.563 275.025 184.388 275.25 184.188 275.55L184.288 275.65C184.788 274.95 185.438 274.383 186.238 273.95C187.038 273.5 187.904 273.275 188.838 273.275C190.188 273.275 191.254 273.675 192.038 274.475C192.821 275.275 193.213 276.308 193.213 277.575V284.625C193.213 285.175 193.029 285.583 192.663 285.85C192.313 286.1 191.771 286.225 191.038 286.225V277.8C191.038 277 190.813 276.367 190.363 275.9C189.913 275.433 189.229 275.2 188.313 275.2C187.696 275.2 187.113 275.333 186.563 275.6C186.029 275.85 185.596 276.2 185.263 276.65C184.946 277.083 184.788 277.558 184.788 278.075V284.625C184.788 285.175 184.604 285.583 184.238 285.85C183.888 286.1 183.346 286.225 182.613 286.225V275.125ZM207.051 286.225C205.618 286.225 204.459 285.842 203.576 285.075C202.709 284.308 202.276 283.3 202.276 282.05C202.276 280.783 202.734 279.767 203.651 279C204.568 278.217 205.776 277.825 207.276 277.825C208.876 277.825 210.193 278.392 211.226 279.525L211.326 279.425C211.143 279.225 210.934 279.017 210.701 278.8V277.75C210.701 276.9 210.434 276.242 209.901 275.775C209.368 275.308 208.609 275.075 207.626 275.075C205.876 275.075 204.626 275.767 203.876 277.15C203.609 277.017 203.384 276.842 203.201 276.625C203.034 276.392 202.951 276.158 202.951 275.925C202.951 275.475 203.176 275.05 203.626 274.65C204.076 274.233 204.668 273.9 205.401 273.65C206.151 273.4 206.934 273.275 207.751 273.275C209.334 273.275 210.576 273.667 211.476 274.45C212.393 275.233 212.851 276.317 212.851 277.7V284.55C212.851 285.133 212.684 285.558 212.351 285.825C212.018 286.092 211.493 286.225 210.776 286.225V285.05C211.126 284.683 211.318 284.467 211.351 284.4L211.251 284.3C210.168 285.583 208.768 286.225 207.051 286.225ZM207.426 284.5C208.459 284.5 209.268 284.283 209.851 283.85C210.451 283.417 210.751 282.817 210.751 282.05C210.751 281.283 210.459 280.675 209.876 280.225C209.293 279.775 208.493 279.55 207.476 279.55C206.526 279.55 205.776 279.775 205.226 280.225C204.693 280.658 204.426 281.267 204.426 282.05C204.426 282.833 204.684 283.442 205.201 283.875C205.734 284.292 206.476 284.5 207.426 284.5ZM216.231 275.125C216.231 273.892 216.931 273.275 218.331 273.275V274.875C218.181 275.025 218.006 275.25 217.806 275.55L217.906 275.65C218.406 274.95 219.056 274.383 219.856 273.95C220.656 273.5 221.523 273.275 222.456 273.275C223.806 273.275 224.873 273.675 225.656 274.475C226.439 275.275 226.831 276.308 226.831 277.575V284.625C226.831 285.175 226.648 285.583 226.281 285.85C225.931 286.1 225.389 286.225 224.656 286.225V277.8C224.656 277 224.431 276.367 223.981 275.9C223.531 275.433 222.848 275.2 221.931 275.2C221.314 275.2 220.731 275.333 220.181 275.6C219.648 275.85 219.214 276.2 218.881 276.65C218.564 277.083 218.406 277.558 218.406 278.075V284.625C218.406 285.175 218.223 285.583 217.856 285.85C217.506 286.1 216.964 286.225 216.231 286.225V275.125ZM230.42 291.2C229.386 291.2 228.845 290.6 228.795 289.4C229.295 289.467 229.653 289.5 229.87 289.5C230.603 289.5 231.186 289.283 231.62 288.85C232.07 288.417 232.528 287.667 232.995 286.6L233.495 285.475L228.57 273.45C228.686 273.4 228.836 273.358 229.02 273.325C229.22 273.292 229.386 273.275 229.52 273.275C229.87 273.292 230.186 273.392 230.47 273.575C230.753 273.742 230.953 273.967 231.07 274.25L234.42 282.8L234.07 283.8L234.22 283.875L238.02 274.25C238.136 273.95 238.328 273.717 238.595 273.55C238.878 273.367 239.195 273.275 239.545 273.275C239.695 273.275 239.861 273.292 240.045 273.325C240.245 273.358 240.395 273.4 240.495 273.45L234.87 287.225C234.32 288.558 233.703 289.55 233.02 290.2C232.336 290.867 231.47 291.2 230.42 291.2ZM254.4 286.225C252.966 286.225 251.8 285.833 250.9 285.05C250.016 284.25 249.575 283.192 249.575 281.875V277.6C249.575 276.75 249.783 276 250.2 275.35C250.616 274.683 251.191 274.175 251.925 273.825C252.675 273.458 253.533 273.275 254.5 273.275C255.283 273.275 256.008 273.442 256.675 273.775C257.341 274.092 257.925 274.517 258.425 275.05L258.5 274.925C258.383 274.758 258.208 274.575 257.975 274.375V269.975C257.975 269.425 258.158 269.008 258.525 268.725C258.891 268.425 259.441 268.275 260.175 268.275V284.45C260.175 285 260.008 285.433 259.675 285.75C259.358 286.067 258.841 286.225 258.125 286.225V284.825C258.358 284.525 258.516 284.308 258.6 284.175L258.525 284.075C257.991 284.742 257.4 285.267 256.75 285.65C256.1 286.033 255.316 286.225 254.4 286.225ZM254.875 284.3C255.758 284.3 256.5 284.075 257.1 283.625C257.7 283.158 258 282.583 258 281.9V277.575C258 276.908 257.716 276.35 257.15 275.9C256.583 275.433 255.816 275.2 254.85 275.2C253.866 275.2 253.1 275.425 252.55 275.875C252.016 276.308 251.75 276.917 251.75 277.7V281.775C251.75 282.592 252.016 283.217 252.55 283.65C253.1 284.083 253.875 284.3 254.875 284.3ZM268.692 286.225C267.676 286.225 266.767 286.033 265.967 285.65C265.167 285.25 264.542 284.708 264.092 284.025C263.642 283.325 263.417 282.542 263.417 281.675V277.975C263.417 277.092 263.651 276.292 264.117 275.575C264.601 274.858 265.242 274.3 266.042 273.9C266.859 273.483 267.742 273.275 268.692 273.275C269.642 273.275 270.509 273.475 271.292 273.875C272.092 274.275 272.717 274.825 273.167 275.525C273.634 276.225 273.867 277.017 273.867 277.9V279.5C273.867 279.767 273.767 279.992 273.567 280.175C273.367 280.358 273.126 280.45 272.842 280.45H265.542V281.575C265.542 282.425 265.809 283.108 266.342 283.625C266.892 284.142 267.676 284.4 268.692 284.4C269.709 284.4 270.484 284.175 271.017 283.725C271.551 283.275 271.817 282.667 271.817 281.9C272.317 281.867 272.734 281.967 273.067 282.2C273.417 282.417 273.592 282.742 273.592 283.175C273.592 283.708 273.359 284.208 272.892 284.675C272.442 285.142 271.842 285.517 271.092 285.8C270.342 286.083 269.542 286.225 268.692 286.225ZM271.842 278.75V277.9C271.842 277.067 271.551 276.392 270.967 275.875C270.401 275.342 269.642 275.075 268.692 275.075C267.742 275.075 266.976 275.342 266.392 275.875C265.826 276.392 265.542 277.067 265.542 277.9V278.75H271.842ZM280.905 286.225C280.655 286.225 280.43 286.158 280.23 286.025C280.03 285.892 279.889 285.725 279.805 285.525L275.005 273.45C275.105 273.4 275.247 273.358 275.43 273.325C275.614 273.292 275.78 273.275 275.93 273.275C276.297 273.275 276.622 273.358 276.905 273.525C277.189 273.692 277.38 273.933 277.48 274.25L280.78 283.225L280.43 284.225L280.555 284.275L284.305 274.25C284.405 273.933 284.597 273.692 284.88 273.525C285.164 273.358 285.48 273.275 285.83 273.275C285.98 273.275 286.147 273.292 286.33 273.325C286.514 273.358 286.664 273.4 286.78 273.45L281.98 285.525C281.897 285.725 281.755 285.892 281.555 286.025C281.372 286.158 281.155 286.225 280.905 286.225ZM290.659 271.4C290.193 271.4 289.801 271.25 289.484 270.95C289.168 270.65 289.009 270.275 289.009 269.825C289.009 269.375 289.168 269.008 289.484 268.725C289.801 268.425 290.193 268.275 290.659 268.275C291.109 268.275 291.493 268.425 291.809 268.725C292.126 269.008 292.284 269.375 292.284 269.825C292.284 270.275 292.126 270.65 291.809 270.95C291.493 271.25 291.109 271.4 290.659 271.4ZM289.559 274.875C289.559 274.325 289.734 273.925 290.084 273.675C290.451 273.408 291.001 273.275 291.734 273.275V284.625C291.734 285.175 291.551 285.583 291.184 285.85C290.834 286.1 290.293 286.225 289.559 286.225V274.875ZM300.796 286.225C299.78 286.225 298.871 286.042 298.071 285.675C297.271 285.308 296.646 284.792 296.196 284.125C295.763 283.458 295.546 282.7 295.546 281.85V277.8C295.546 276.917 295.763 276.133 296.196 275.45C296.646 274.767 297.263 274.233 298.046 273.85C298.83 273.467 299.73 273.275 300.746 273.275C301.696 273.275 302.538 273.417 303.271 273.7C304.021 273.967 304.605 274.35 305.021 274.85C305.438 275.35 305.646 275.917 305.646 276.55C305.646 276.967 305.48 277.308 305.146 277.575C304.83 277.825 304.413 277.933 303.896 277.9C303.896 277.1 303.605 276.45 303.021 275.95C302.455 275.45 301.713 275.2 300.796 275.2C299.88 275.2 299.138 275.45 298.571 275.95C298.005 276.433 297.721 277.067 297.721 277.85V281.75C297.721 282.5 298.013 283.117 298.596 283.6C299.18 284.067 299.93 284.3 300.846 284.3C301.763 284.3 302.505 284.05 303.071 283.55C303.655 283.05 303.946 282.408 303.946 281.625C304.48 281.592 304.905 281.7 305.221 281.95C305.555 282.183 305.721 282.517 305.721 282.95C305.721 283.583 305.513 284.15 305.096 284.65C304.68 285.15 304.096 285.542 303.346 285.825C302.596 286.092 301.746 286.225 300.796 286.225ZM313.614 286.225C312.598 286.225 311.689 286.033 310.889 285.65C310.089 285.25 309.464 284.708 309.014 284.025C308.564 283.325 308.339 282.542 308.339 281.675V277.975C308.339 277.092 308.573 276.292 309.039 275.575C309.523 274.858 310.164 274.3 310.964 273.9C311.781 273.483 312.664 273.275 313.614 273.275C314.564 273.275 315.431 273.475 316.214 273.875C317.014 274.275 317.639 274.825 318.089 275.525C318.556 276.225 318.789 277.017 318.789 277.9V279.5C318.789 279.767 318.689 279.992 318.489 280.175C318.289 280.358 318.048 280.45 317.764 280.45H310.464V281.575C310.464 282.425 310.731 283.108 311.264 283.625C311.814 284.142 312.598 284.4 313.614 284.4C314.631 284.4 315.406 284.175 315.939 283.725C316.473 283.275 316.739 282.667 316.739 281.9C317.239 281.867 317.656 281.967 317.989 282.2C318.339 282.417 318.514 282.742 318.514 283.175C318.514 283.708 318.281 284.208 317.814 284.675C317.364 285.142 316.764 285.517 316.014 285.8C315.264 286.083 314.464 286.225 313.614 286.225ZM316.764 278.75V277.9C316.764 277.067 316.473 276.392 315.889 275.875C315.323 275.342 314.564 275.075 313.614 275.075C312.664 275.075 311.898 275.342 311.314 275.875C310.748 276.392 310.464 277.067 310.464 277.9V278.75H316.764ZM329.346 291.2C328.312 291.2 327.771 290.6 327.721 289.4C328.221 289.467 328.579 289.5 328.796 289.5C329.529 289.5 330.112 289.283 330.546 288.85C330.996 288.417 331.454 287.667 331.921 286.6L332.421 285.475L327.496 273.45C327.612 273.4 327.762 273.358 327.946 273.325C328.146 273.292 328.312 273.275 328.446 273.275C328.796 273.292 329.112 273.392 329.396 273.575C329.679 273.742 329.879 273.967 329.996 274.25L333.346 282.8L332.996 283.8L333.146 283.875L336.946 274.25C337.062 273.95 337.254 273.717 337.521 273.55C337.804 273.367 338.121 273.275 338.471 273.275C338.621 273.275 338.787 273.292 338.971 273.325C339.171 273.358 339.321 273.4 339.421 273.45L333.796 287.225C333.246 288.558 332.629 289.55 331.946 290.2C331.262 290.867 330.396 291.2 329.346 291.2ZM345.419 286.225C344.403 286.225 343.478 286.033 342.644 285.65C341.828 285.267 341.186 284.75 340.719 284.1C340.269 283.433 340.044 282.692 340.044 281.875V277.775C340.044 276.942 340.269 276.183 340.719 275.5C341.186 274.817 341.828 274.275 342.644 273.875C343.461 273.475 344.386 273.275 345.419 273.275C346.453 273.275 347.378 273.475 348.194 273.875C349.028 274.275 349.669 274.817 350.119 275.5C350.586 276.183 350.819 276.942 350.819 277.775V281.875C350.819 282.692 350.586 283.433 350.119 284.1C349.653 284.75 349.011 285.267 348.194 285.65C347.378 286.033 346.453 286.225 345.419 286.225ZM345.419 284.35C346.419 284.35 347.211 284.117 347.794 283.65C348.394 283.167 348.694 282.542 348.694 281.775V277.85C348.694 277.05 348.394 276.4 347.794 275.9C347.211 275.4 346.419 275.15 345.419 275.15C344.436 275.15 343.644 275.4 343.044 275.9C342.444 276.4 342.144 277.05 342.144 277.85V281.775C342.144 282.542 342.436 283.167 343.019 283.65C343.619 284.117 344.419 284.35 345.419 284.35ZM363.69 284.375C363.69 285.608 362.99 286.225 361.59 286.225V284.625C361.74 284.475 361.915 284.25 362.115 283.95L362.015 283.85C361.515 284.567 360.882 285.142 360.115 285.575C359.365 286.008 358.54 286.225 357.64 286.225C356.74 286.225 355.94 286.033 355.24 285.65C354.557 285.267 354.024 284.733 353.64 284.05C353.274 283.367 353.09 282.6 353.09 281.75V274.875C353.09 274.325 353.274 273.925 353.64 273.675C354.007 273.408 354.557 273.275 355.29 273.275V281.65C355.29 282.45 355.524 283.092 355.99 283.575C356.474 284.058 357.182 284.3 358.115 284.3C358.732 284.3 359.299 284.175 359.815 283.925C360.332 283.658 360.74 283.308 361.04 282.875C361.357 282.425 361.515 281.942 361.515 281.425V274.875C361.515 274.325 361.69 273.925 362.04 273.675C362.407 273.408 362.957 273.275 363.69 273.275V284.375ZM378.228 286.225C377.695 286.225 377.253 286.108 376.903 285.875C376.553 285.625 376.312 285.283 376.178 284.85L373.003 273.475C373.237 273.342 373.553 273.275 373.953 273.275C374.32 273.275 374.628 273.358 374.878 273.525C375.128 273.692 375.287 273.933 375.353 274.25L377.453 282.55L377.203 283.625L377.328 283.675L380.053 274C380.12 273.783 380.245 273.608 380.428 273.475C380.612 273.342 380.837 273.275 381.103 273.275C381.37 273.275 381.595 273.342 381.778 273.475C381.962 273.608 382.087 273.783 382.153 274L384.528 282.65L384.228 283.725L384.378 283.775L386.828 274.25C386.895 273.933 387.053 273.692 387.303 273.525C387.553 273.358 387.862 273.275 388.228 273.275C388.628 273.275 388.945 273.342 389.178 273.475L386.003 284.85C385.887 285.283 385.637 285.625 385.253 285.875C384.87 286.108 384.412 286.225 383.878 286.225L380.878 275.425L380.778 275.45L381.028 276.375L378.228 286.225ZM395.088 286.225C393.655 286.225 392.496 285.842 391.613 285.075C390.746 284.308 390.313 283.3 390.313 282.05C390.313 280.783 390.771 279.767 391.688 279C392.605 278.217 393.813 277.825 395.313 277.825C396.913 277.825 398.23 278.392 399.263 279.525L399.363 279.425C399.18 279.225 398.971 279.017 398.738 278.8V277.75C398.738 276.9 398.471 276.242 397.938 275.775C397.405 275.308 396.646 275.075 395.663 275.075C393.913 275.075 392.663 275.767 391.913 277.15C391.646 277.017 391.421 276.842 391.238 276.625C391.071 276.392 390.988 276.158 390.988 275.925C390.988 275.475 391.213 275.05 391.663 274.65C392.113 274.233 392.705 273.9 393.438 273.65C394.188 273.4 394.971 273.275 395.788 273.275C397.371 273.275 398.613 273.667 399.513 274.45C400.43 275.233 400.888 276.317 400.888 277.7V284.55C400.888 285.133 400.721 285.558 400.388 285.825C400.055 286.092 399.53 286.225 398.813 286.225V285.05C399.163 284.683 399.355 284.467 399.388 284.4L399.288 284.3C398.205 285.583 396.805 286.225 395.088 286.225ZM395.463 284.5C396.496 284.5 397.305 284.283 397.888 283.85C398.488 283.417 398.788 282.817 398.788 282.05C398.788 281.283 398.496 280.675 397.913 280.225C397.33 279.775 396.53 279.55 395.513 279.55C394.563 279.55 393.813 279.775 393.263 280.225C392.73 280.658 392.463 281.267 392.463 282.05C392.463 282.833 392.721 283.442 393.238 283.875C393.771 284.292 394.513 284.5 395.463 284.5ZM404.268 275.125C404.268 273.892 404.968 273.275 406.368 273.275V274.875C406.218 275.025 406.043 275.25 405.843 275.55L405.943 275.65C406.443 274.95 407.093 274.383 407.893 273.95C408.693 273.5 409.56 273.275 410.493 273.275C411.843 273.275 412.91 273.675 413.693 274.475C414.476 275.275 414.868 276.308 414.868 277.575V284.625C414.868 285.175 414.685 285.583 414.318 285.85C413.968 286.1 413.426 286.225 412.693 286.225V277.8C412.693 277 412.468 276.367 412.018 275.9C411.568 275.433 410.885 275.2 409.968 275.2C409.351 275.2 408.768 275.333 408.218 275.6C407.685 275.85 407.251 276.2 406.918 276.65C406.601 277.083 406.443 277.558 406.443 278.075V284.625C406.443 285.175 406.26 285.583 405.893 285.85C405.543 286.1 405.001 286.225 404.268 286.225V275.125ZM423.086 286.225C421.903 286.225 421.019 285.892 420.436 285.225C419.853 284.542 419.561 283.65 419.561 282.55V275.25H417.236C417.236 274.683 417.361 274.25 417.611 273.95C417.861 273.65 418.203 273.5 418.636 273.5H419.586V271.125C419.586 270.575 419.761 270.175 420.111 269.925C420.478 269.658 421.019 269.525 421.736 269.525V273.5H425.061C425.061 274.667 424.536 275.25 423.486 275.25H421.761V282.475C421.761 283.142 421.878 283.617 422.111 283.9C422.361 284.167 422.803 284.3 423.436 284.3C424.019 284.3 424.569 284.15 425.086 283.85C425.303 284.067 425.411 284.358 425.411 284.725C425.411 285.125 425.203 285.475 424.786 285.775C424.369 286.075 423.803 286.225 423.086 286.225ZM429.072 286.225C428.606 286.225 428.214 286.075 427.897 285.775C427.581 285.458 427.422 285.067 427.422 284.6C427.422 284.133 427.581 283.742 427.897 283.425C428.214 283.108 428.606 282.95 429.072 282.95C429.522 282.95 429.914 283.117 430.247 283.45C430.581 283.767 430.747 284.15 430.747 284.6C430.747 285.05 430.581 285.433 430.247 285.75C429.914 286.067 429.522 286.225 429.072 286.225Z" fill="white" fill-opacity="0.8"/>
<path d="M322.636 0H220.364C214.114 0 209 5.4 209 12V84C209 90.6 214.114 96 220.364 96H260.136V108H248.773V120H294.227V108H282.864V96H322.636C328.886 96 334 90.6 334 84V12C334 5.4 328.886 0 322.636 0ZM322.636 84H220.364V12H322.636V84Z" fill="#910A67" fill-opacity="0.7"/>
</svg>
